ISO-10303-21;
HEADER;
FILE_DESCRIPTION(('ViewDefinition [SchedulingView]'),'2;1');
FILE_NAME('Zuidas Office Building.ifc','2026-09-28T13:27:20',('Mark Bakker'),('Zuidas Development BV'),'Open Vision Studio 0.1','Open Vision Studio','');
FILE_SCHEMA(('IFC4X3'));
ENDSEC;
DATA;
#1=IFCPERSON($,'Mark Bakker',$,$,$,$,$,$);
#2=IFCORGANIZATION($,'Zuidas Development BV',$,$,$);
#3=IFCPERSONANDORGANIZATION(#1,#2,$);
#4=IFCORGANIZATION($,'Spanvision infra',$,$,$);
#5=IFCAPPLICATION(#4,'0.2','Open Vision Studio','OPS');
#6=IFCOWNERHISTORY(#3,#5,$,.NOCHANGE.,$,$,$,1790602040);
#7=IFCSIUNIT(*,.LENGTHUNIT.,$,.METRE.);
#8=IFCSIUNIT(*,.TIMEUNIT.,$,.SECOND.);
#9=IFCUNITASSIGNMENT((#7,#8));
#10=IFCCARTESIANPOINT((0.,0.,0.));
#11=IFCAXIS2PLACEMENT3D(#10,$,$);
#12=IFCGEOMETRICREPRESENTATIONCONTEXT($,'Plan',3,1.0E-05,#11,$);
#13=IFCPROJECT('3rpCvp7MLxbRNR33VcWlHw',#6,'Zuidas Office Building','Eight-storey office building with basement car park, BREEAM Excellent',$,$,$,(#12),#9);
#14=IFCTIMEPERIOD('07:00:00','16:00:00');
#15=IFCRECURRENCEPATTERN(.WEEKLY.,$,(1,2,3,4,5),$,$,$,$,(#14));
#16=IFCWORKTIME('Standard work week',.PREDICTED.,$,#15,$,$);
#17=IFCWORKTIME('New Year''s Day',.PREDICTED.,$,$,'2027-01-01','2027-01-01');
#18=IFCWORKTIME('Good Friday',.PREDICTED.,$,$,'2027-03-26','2027-03-26');
#19=IFCWORKTIME('Easter',.PREDICTED.,$,$,'2027-03-28','2027-03-29');
#20=IFCWORKTIME('King''s Day',.PREDICTED.,$,$,'2027-04-27','2027-04-27');
#21=IFCWORKTIME('Liberation Day',.PREDICTED.,$,$,'2027-05-05','2027-05-05');
#22=IFCWORKTIME('Ascension Day',.PREDICTED.,$,$,'2027-05-06','2027-05-06');
#23=IFCWORKTIME('Whitsun',.PREDICTED.,$,$,'2027-05-16','2027-05-17');
#24=IFCWORKTIME('Christmas',.PREDICTED.,$,$,'2027-12-25','2027-12-26');
#25=IFCWORKTIME('Construction holiday (northern region)',.PREDICTED.,$,$,'2027-07-26','2027-08-15');
#26=IFCWORKTIME('New Year''s Day',.PREDICTED.,$,$,'2028-01-01','2028-01-01');
#27=IFCWORKTIME('Good Friday',.PREDICTED.,$,$,'2028-04-14','2028-04-14');
#28=IFCWORKTIME('Easter',.PREDICTED.,$,$,'2028-04-16','2028-04-17');
#29=IFCWORKTIME('King''s Day',.PREDICTED.,$,$,'2028-04-27','2028-04-27');
#30=IFCWORKTIME('Liberation Day',.PREDICTED.,$,$,'2028-05-05','2028-05-05');
#31=IFCWORKTIME('Ascension Day',.PREDICTED.,$,$,'2028-05-25','2028-05-25');
#32=IFCWORKTIME('Whitsun',.PREDICTED.,$,$,'2028-06-04','2028-06-05');
#33=IFCWORKTIME('Christmas',.PREDICTED.,$,$,'2028-12-25','2028-12-26');
#34=IFCWORKTIME('Construction holiday (northern region)',.PREDICTED.,$,$,'2028-07-24','2028-08-13');
#35=IFCWORKCALENDAR('2C9Hn0YuvULaPPrYp0SrOY',#6,'Construction calendar NL','Standard construction calendar: Mon-Fri 07:00-16:00',$,(#16),(#17,#18,#19,#20,#21,#22,#23,#24,#25,#26,#27,#28,#29,#30,#31,#32,#33,#34),.FIRSTSHIFT.);
#36=IFCPROPERTYSINGLEVALUE('HoursPerDay',$,IFCREAL(8),$);
#37=IFCPROPERTYSET('28qBTQpN68goGRg4aFirtU',#6,'OPS_Calendar',$,(#36));
#38=IFCRELDEFINESBYPROPERTIES('1NylL8G6At73KlLrb_V1VT',#6,$,$,(#35),#37);
#39=IFCWORKPLAN('2jhFxVwUSEzG_py0v6C6CL',#6,'Zuidas Office Building','Eight-storey office building with basement car park, BREEAM Excellent',$,$,'2026-09-28T13:27:20',$,$,$,$,$,'2027-03-01T07:00:00','2027-03-26T07:00:00',.PLANNED.);
#40=IFCWORKSCHEDULE('1WAkhyYfimTqhzP7lf0BpA',#6,'Construction schedule v1.0',$,$,$,'2026-09-28T13:27:20',$,$,$,$,$,'2027-03-01T07:00:00','2027-03-26T07:00:00',.PLANNED.);
#41=IFCRELAGGREGATES('3873$1mmh__$EDtEU0LFAn',#6,$,$,#39,(#40));
#42=IFCTASKTIME('1. Preparation Time',.PREDICTED.,$,.WORKTIME.,'P0Y0M20D','2027-03-01T07:00:00','2027-03-05T07:00:00','2027-03-01T07:00:00','2027-03-30T07:00:00','2027-03-01T07:00:00','2028-05-04T07:00:00','P0Y0M0D','P0Y0M0D',.T.,$,$,$,$,$,0.00);
#43=IFCTASK('0H0pvZS9rFpO8fpt_McLZD',#6,'1. Preparation',$,$,'1',$,$,$,.F.,$,#42,.CONSTRUCTION.);
#44=IFCTASKTIME('Set up site Time',.PREDICTED.,$,.WORKTIME.,'P0Y0M8D','2027-03-01T07:00:00','2027-03-10T07:00:00','2027-03-01T07:00:00','2027-03-10T07:00:00','2027-03-01T07:00:00','2027-03-10T07:00:00','P0Y0M0D','P0Y0M0D',.T.,$,$,$,$,$,0.00);
#45=IFCTASK('20pDKxjw7oEXUrBwtyFlH2',#6,'Set up site',$,$,'1.1',$,$,$,.F.,$,#44,.LOGISTIC.);
#46=IFCTASKTIME('Stakeholder management Time',.PREDICTED.,$,.WORKTIME.,'P0Y0M5D','2027-03-01T07:00:00','2027-03-05T07:00:00','2027-03-11T07:00:00','2027-03-17T07:00:00','2028-04-18T07:00:00','2028-04-24T07:00:00','P0Y0M0D','P0Y0M265D',.F.,$,$,$,$,$,0.00);
#47=IFCTASK('3uODgAKNG9FtGI7BLAozps',#6,'Stakeholder management',$,$,'1.2',$,$,$,.F.,$,#46,.ATTENDANCE.);
#48=IFCTASKTIME('Traffic management Time',.PREDICTED.,$,.WORKTIME.,'P0Y0M3D','2027-03-01T07:00:00','2027-03-03T07:00:00','2027-03-18T07:00:00','2027-03-22T07:00:00','2028-04-25T07:00:00','2028-04-28T07:00:00','P0Y0M0D','P0Y0M265D',.F.,$,$,$,$,$,0.00);
#49=IFCTASK('1fpE2GlfNlFGrgEY3ZK6Mq',#6,'Traffic management',$,$,'1.3',$,$,$,.F.,$,#48,.LOGISTIC.);
#50=IFCTASKTIME('Piezometer monitoring Time',.PREDICTED.,$,.WORKTIME.,'P0Y0M3D','2027-03-01T07:00:00','2027-03-03T07:00:00','2027-03-23T07:00:00','2027-03-25T07:00:00','2028-05-01T07:00:00','2028-05-03T07:00:00','P0Y0M0D','P0Y0M265D',.F.,$,$,$,$,$,0.00);
#51=IFCTASK('2yJUa$LiQLMzu_SuP80OJp',#6,'Piezometer monitoring',$,$,'1.4',$,$,$,.F.,$,#50,.INSTALLATION.);
#52=IFCTASKTIME('Start of construction Time',.PREDICTED.,$,.WORKTIME.,'P0Y0M0D','2027-03-01T07:00:00','2027-03-01T07:00:00','2027-03-30T07:00:00','2027-03-30T07:00:00','2028-05-04T07:00:00','2028-05-04T07:00:00','P0Y0M265D','P0Y0M265D',.F.,$,$,$,$,$,0.00);
#53=IFCTASK('0OZ2VYfFVi2KDt6AHH8fLy',#6,'Start of construction',$,$,'1.5',$,$,$,.T.,$,#52,.CONSTRUCTION.);
#54=IFCTASKTIME('2. Earthworks & foundations Time',.PREDICTED.,$,.WORKTIME.,'P0Y0M108D','2027-03-01T07:00:00','2027-03-05T07:00:00','2027-03-15T07:00:00','2027-09-09T07:00:00','2027-03-15T07:00:00','2028-05-04T07:00:00','P0Y0M0D','P0Y0M0D',.T.,$,$,$,$,$,0.00);
#55=IFCTASK('2l7rPavOd_U4Zs$iwGxIJi',#6,'2. Earthworks & foundations',$,$,'2',$,$,$,.F.,$,#54,.CONSTRUCTION.);
#56=IFCTASKTIME('Sheet pile sections Time',.PREDICTED.,$,.WORKTIME.,'P0Y0M15D','2027-03-01T07:00:00','2027-03-19T07:00:00','2027-03-15T07:00:00','2027-04-06T07:00:00','2027-03-15T07:00:00','2027-04-06T07:00:00','P0Y0M0D','P0Y0M0D',.T.,$,$,$,$,$,0.00);
#57=IFCTASK('1_mT_$7P$qDHjc4TQeR_yo',#6,'Sheet pile sections',$,$,'2.1',$,$,$,.F.,$,#56,.CONSTRUCTION.);
#58=IFCTASKTIME('Wellpoint dewatering Time',.PREDICTED.,$,.WORKTIME.,'P0Y0M5D','2027-03-01T07:00:00','2027-03-05T07:00:00','2027-04-07T07:00:00','2027-04-13T07:00:00','2027-12-23T07:00:00','2027-12-29T07:00:00','P0Y0M0D','P0Y0M167D',.F.,$,$,$,$,$,0.00);
#59=IFCTASK('3ZcCpbs9HClpJ6hTTNLwQo',#6,'Wellpoint dewatering',$,$,'2.2',$,$,$,.F.,$,#58,.INSTALLATION.);
#60=IFCTASKTIME('Excavate to level -2 Time',.PREDICTED.,$,.WORKTIME.,'P0Y0M12D','2027-03-01T07:00:00','2027-03-16T07:00:00','2027-04-14T07:00:00','2027-04-30T07:00:00','2027-12-30T07:00:00','2028-01-14T07:00:00','P0Y0M0D','P0Y0M167D',.F.,$,$,$,$,$,0.00);
#61=IFCTASK('0KlGQtdLt_Ov8e9L0$RLnS',#6,'Excavate to level -2',$,$,'2.3',$,$,$,.F.,$,#60,.CONSTRUCTION.);
#62=IFCTASKTIME('Excavate to level -1 Time',.PREDICTED.,$,.WORKTIME.,'P0Y0M10D','2027-03-01T07:00:00','2027-03-12T07:00:00','2027-05-03T07:00:00','2027-05-19T07:00:00','2028-01-17T07:00:00','2028-01-28T07:00:00','P0Y0M0D','P0Y0M167D',.F.,$,$,$,$,$,0.00);
#63=IFCTASK('3OZJR1A7WV1LQQ8mrtjGX0',#6,'Excavate to level -1',$,$,'2.4',$,$,$,.F.,$,#62,.CONSTRUCTION.);
#64=IFCTASKTIME('Bore foundation piles Time',.PREDICTED.,$,.WORKTIME.,'P0Y0M20D','2027-03-01T07:00:00','2027-03-26T07:00:00','2027-05-20T07:00:00','2027-06-16T07:00:00','2028-01-31T07:00:00','2028-02-25T07:00:00','P0Y0M0D','P0Y0M167D',.F.,$,$,$,$,$,0.00);
#65=IFCTASK('2zGAw8u7nUNrsdP3eWHPq_',#6,'Bore foundation piles',$,$,'2.5',$,$,$,.F.,$,#64,.CONSTRUCTION.);
#66=IFCTASKTIME('Foundation beams Time',.PREDICTED.,$,.WORKTIME.,'P0Y0M10D','2027-03-01T07:00:00','2027-03-12T07:00:00','2027-06-17T07:00:00','2027-06-30T07:00:00','2028-02-28T07:00:00','2028-03-10T07:00:00','P0Y0M0D','P0Y0M167D',.F.,$,$,$,$,$,0.00);
#67=IFCTASK('0m9A3WUyKS1zaMM_9Rwa5y',#6,'Foundation beams',$,$,'2.6',$,$,$,.F.,$,#66,.CONSTRUCTION.);
#68=IFCTASKTIME('Basement floor P2 Time',.PREDICTED.,$,.WORKTIME.,'P0Y0M8D','2027-03-01T07:00:00','2027-03-10T07:00:00','2027-07-01T07:00:00','2027-07-12T07:00:00','2028-03-13T07:00:00','2028-03-22T07:00:00','P0Y0M0D','P0Y0M167D',.F.,$,$,$,$,$,0.00);
#69=IFCTASK('1YxlqGMi52NP0aSCwj0IaO',#6,'Basement floor P2',$,$,'2.7',$,$,$,.F.,$,#68,.CONSTRUCTION.);
#70=IFCTASKTIME('Basement floor P1 Time',.PREDICTED.,$,.WORKTIME.,'P0Y0M8D','2027-03-01T07:00:00','2027-03-10T07:00:00','2027-07-13T07:00:00','2027-07-22T07:00:00','2028-03-23T07:00:00','2028-04-03T07:00:00','P0Y0M0D','P0Y0M167D',.F.,$,$,$,$,$,0.00);
#71=IFCTASK('00Asp0W_IDV$5FpcvegatO',#6,'Basement floor P1',$,$,'2.8',$,$,$,.F.,$,#70,.CONSTRUCTION.);
#72=IFCTASKTIME('Pour basement walls Time',.PREDICTED.,$,.WORKTIME.,'P0Y0M12D','2027-03-01T07:00:00','2027-03-16T07:00:00','2027-07-23T07:00:00','2027-08-30T07:00:00','2028-04-04T07:00:00','2028-04-21T07:00:00','P0Y0M0D','P0Y0M167D',.F.,$,$,$,$,$,0.00);
#73=IFCTASK('04EHOkGsYiqXeH0M3Hu84t',#6,'Pour basement walls',$,$,'2.9',$,$,$,.F.,$,#72,.CONSTRUCTION.);
#74=IFCTASKTIME('Basement waterproofing Time',.PREDICTED.,$,.WORKTIME.,'P0Y0M8D','2027-03-01T07:00:00','2027-03-10T07:00:00','2027-08-31T07:00:00','2027-09-09T07:00:00','2028-04-24T07:00:00','2028-05-04T07:00:00','P0Y0M167D','P0Y0M167D',.F.,$,$,$,$,$,0.00);
#75=IFCTASK('2XjbCA2OjR1AAiz53cokh_',#6,'Basement waterproofing',$,$,'2.10',$,$,$,.F.,$,#74,.CONSTRUCTION.);
#76=IFCTASKTIME('3. Structural works Time',.PREDICTED.,$,.WORKTIME.,'P0Y0M101D','2027-03-01T07:00:00','2027-03-05T07:00:00','2027-03-23T07:00:00','2027-09-08T07:00:00','2027-03-23T07:00:00','2028-05-04T07:00:00','P0Y0M0D','P0Y0M0D',.T.,$,$,$,$,$,0.00);
#77=IFCTASK('0tioVFkIwxcW65NM7SNOqO',#6,'3. Structural works',$,$,'3',$,$,$,.F.,$,#76,.CONSTRUCTION.);
#78=IFCTASKTIME('Ground floor columns & slab Time',.PREDICTED.,$,.WORKTIME.,'P0Y0M10D','2027-03-01T07:00:00','2027-03-12T07:00:00','2027-03-23T07:00:00','2027-04-07T07:00:00','2027-03-23T07:00:00','2027-04-07T07:00:00','P0Y0M0D','P0Y0M0D',.T.,$,$,$,$,$,0.00);
#79=IFCTASK('0R6yGtiq9hL2xp5uLmjqXs',#6,'Ground floor columns & slab',$,$,'3.1',$,$,$,.F.,$,#78,.CONSTRUCTION.);
#80=IFCTASKTIME('Floor 1 structural works Time',.PREDICTED.,$,.WORKTIME.,'P0Y0M8D','2027-03-01T07:00:00','2027-03-10T07:00:00','2027-04-08T07:00:00','2027-04-19T07:00:00','2027-04-08T07:00:00','2027-04-19T07:00:00','P0Y0M0D','P0Y0M0D',.T.,$,$,$,$,$,0.00);
#81=IFCTASK('1ZNu_$GMyayA8YyePIcGw6',#6,'Floor 1 structural works',$,$,'3.2',$,$,$,.F.,$,#80,.CONSTRUCTION.);
#82=IFCTASKTIME('Floor 2 structural works Time',.PREDICTED.,$,.WORKTIME.,'P0Y0M8D','2027-03-01T07:00:00','2027-03-10T07:00:00','2027-04-20T07:00:00','2027-04-30T07:00:00','2027-04-20T07:00:00','2027-04-30T07:00:00','P0Y0M0D','P0Y0M0D',.T.,$,$,$,$,$,0.00);
#83=IFCTASK('39OnfOoYd8LnEHGUHm91Is',#6,'Floor 2 structural works',$,$,'3.3',$,$,$,.F.,$,#82,.CONSTRUCTION.);
#84=IFCTASKTIME('Floor 3 structural works Time',.PREDICTED.,$,.WORKTIME.,'P0Y0M8D','2027-03-01T07:00:00','2027-03-10T07:00:00','2027-05-03T07:00:00','2027-05-14T07:00:00','2027-05-03T07:00:00','2027-05-14T07:00:00','P0Y0M0D','P0Y0M0D',.T.,$,$,$,$,$,0.00);
#85=IFCTASK('1_UBZ900XyxCGOC4vk_b_8',#6,'Floor 3 structural works',$,$,'3.4',$,$,$,.F.,$,#84,.CONSTRUCTION.);
#86=IFCTASKTIME('Floor 4 structural works Time',.PREDICTED.,$,.WORKTIME.,'P0Y0M8D','2027-03-01T07:00:00','2027-03-10T07:00:00','2027-05-18T07:00:00','2027-05-27T07:00:00','2027-05-18T07:00:00','2027-05-27T07:00:00','P0Y0M0D','P0Y0M0D',.T.,$,$,$,$,$,0.00);
#87=IFCTASK('21_R5mDG_yzoUFYsIrZnb$',#6,'Floor 4 structural works',$,$,'3.5',$,$,$,.F.,$,#86,.CONSTRUCTION.);
#88=IFCTASKTIME('Floor 5 structural works Time',.PREDICTED.,$,.WORKTIME.,'P0Y0M8D','2027-03-01T07:00:00','2027-03-10T07:00:00','2027-05-28T07:00:00','2027-06-08T07:00:00','2027-05-28T07:00:00','2027-06-08T07:00:00','P0Y0M0D','P0Y0M0D',.T.,$,$,$,$,$,0.00);
#89=IFCTASK('0w302o$NAXRzSlzjOt84PD',#6,'Floor 5 structural works',$,$,'3.6',$,$,$,.F.,$,#88,.CONSTRUCTION.);
#90=IFCTASKTIME('Floor 6 structural works Time',.PREDICTED.,$,.WORKTIME.,'P0Y0M8D','2027-03-01T07:00:00','2027-03-10T07:00:00','2027-06-09T07:00:00','2027-06-18T07:00:00','2027-06-09T07:00:00','2027-06-18T07:00:00','P0Y0M0D','P0Y0M0D',.T.,$,$,$,$,$,0.00);
#91=IFCTASK('0GQQtzkr_20y2zls8o775Z',#6,'Floor 6 structural works',$,$,'3.7',$,$,$,.F.,$,#90,.CONSTRUCTION.);
#92=IFCTASKTIME('Floor 7 structural works Time',.PREDICTED.,$,.WORKTIME.,'P0Y0M8D','2027-03-01T07:00:00','2027-03-10T07:00:00','2027-06-21T07:00:00','2027-06-30T07:00:00','2027-06-21T07:00:00','2027-06-30T07:00:00','P0Y0M0D','P0Y0M0D',.T.,$,$,$,$,$,0.00);
#93=IFCTASK('1BOkF10pzd1k_aav8f1cBz',#6,'Floor 7 structural works',$,$,'3.8',$,$,$,.F.,$,#92,.CONSTRUCTION.);
#94=IFCTASKTIME('Floor 8 structural works Time',.PREDICTED.,$,.WORKTIME.,'P0Y0M8D','2027-03-01T07:00:00','2027-03-10T07:00:00','2027-07-01T07:00:00','2027-07-12T07:00:00','2027-07-01T07:00:00','2027-07-12T07:00:00','P0Y0M0D','P0Y0M0D',.T.,$,$,$,$,$,0.00);
#95=IFCTASK('2a5M_3jlSw4YlMM4v23ZHW',#6,'Floor 8 structural works',$,$,'3.9',$,$,$,.F.,$,#94,.CONSTRUCTION.);
#96=IFCTASKTIME('Concrete stair and lift core Time',.PREDICTED.,$,.WORKTIME.,'P0Y0M20D','2027-03-01T07:00:00','2027-03-26T07:00:00','2027-07-08T07:00:00','2027-08-25T07:00:00','2027-07-08T07:00:00','2027-08-25T07:00:00','P0Y0M0D','P0Y0M0D',.T.,$,$,$,$,$,0.00);
#97=IFCTASK('3OGAmakM89aWZtSNyg2Stx',#6,'Concrete stair and lift core',$,$,'3.10',$,$,$,.F.,$,#96,.CONSTRUCTION.);
#98=IFCTASKTIME('Steel roof structure Time',.PREDICTED.,$,.WORKTIME.,'P0Y0M10D','2027-03-01T07:00:00','2027-03-12T07:00:00','2027-08-26T07:00:00','2027-09-08T07:00:00','2027-08-26T07:00:00','2027-09-08T07:00:00','P0Y0M0D','P0Y0M0D',.T.,$,$,$,$,$,0.00);
#99=IFCTASK('0Ui4772WmbOg8xnbCyHCLy',#6,'Steel roof structure',$,$,'3.11',$,$,$,.F.,$,#98,.CONSTRUCTION.);
#100=IFCTASKTIME('Topping out Time',.PREDICTED.,$,.WORKTIME.,'P0Y0M0D','2027-03-01T07:00:00','2027-03-01T07:00:00','2027-09-08T07:00:00','2027-09-08T07:00:00','2028-05-04T07:00:00','2028-05-04T07:00:00','P0Y0M168D','P0Y0M168D',.F.,$,$,$,$,$,0.00);
#101=IFCTASK('3RD5YGCrS4WzYdhPrU43rC',#6,'Topping out',$,$,'3.12',$,$,$,.T.,$,#100,.CONSTRUCTION.);
#102=IFCTASKTIME('4. Facade Time',.PREDICTED.,$,.WORKTIME.,'P0Y0M52D','2027-03-01T07:00:00','2027-03-05T07:00:00','2027-07-21T07:00:00','2027-10-21T07:00:00','2027-07-21T07:00:00','2028-05-04T07:00:00','P0Y0M0D','P0Y0M0D',.T.,$,$,$,$,$,0.00);
#103=IFCTASK('1Q2SyzHobkug45gMNanEcT',#6,'4. Facade',$,$,'4',$,$,$,.F.,$,#102,.INSTALLATION.);
#104=IFCTASKTIME('Curtain wall installation, phase 1 Time',.PREDICTED.,$,.WORKTIME.,'P0Y0M15D','2027-03-01T07:00:00','2027-03-19T07:00:00','2027-07-21T07:00:00','2027-08-31T07:00:00','2027-07-21T07:00:00','2027-08-31T07:00:00','P0Y0M0D','P0Y0M0D',.T.,$,$,$,$,$,0.00);
#105=IFCTASK('15FvUoaPQ9_q2dPWVQnhVo',#6,'Curtain wall installation, phase 1',$,$,'4.1',$,$,$,.F.,$,#104,.INSTALLATION.);
#106=IFCTASKTIME('Curtain wall installation, phase 2 Time',.PREDICTED.,$,.WORKTIME.,'P0Y0M15D','2027-03-01T07:00:00','2027-03-19T07:00:00','2027-09-01T07:00:00','2027-09-21T07:00:00','2027-09-01T07:00:00','2027-09-21T07:00:00','P0Y0M0D','P0Y0M0D',.T.,$,$,$,$,$,0.00);
#107=IFCTASK('17hwVe3uMHxhbvYg8QibYc',#6,'Curtain wall installation, phase 2',$,$,'4.2',$,$,$,.F.,$,#106,.INSTALLATION.);
#108=IFCTASKTIME('Curtain wall installation, phase 3 Time',.PREDICTED.,$,.WORKTIME.,'P0Y0M12D','2027-03-01T07:00:00','2027-03-16T07:00:00','2027-09-22T07:00:00','2027-10-07T07:00:00','2027-09-22T07:00:00','2027-10-07T07:00:00','P0Y0M0D','P0Y0M0D',.T.,$,$,$,$,$,0.00);
#109=IFCTASK('31$TaITA$fa8W0hY3o5tGk',#6,'Curtain wall installation, phase 3',$,$,'4.3',$,$,$,.F.,$,#108,.INSTALLATION.);
#110=IFCTASKTIME('Roof finishes and services Time',.PREDICTED.,$,.WORKTIME.,'P0Y0M10D','2027-03-01T07:00:00','2027-03-12T07:00:00','2027-10-08T07:00:00','2027-10-21T07:00:00','2027-10-08T07:00:00','2027-10-21T07:00:00','P0Y0M0D','P0Y0M0D',.T.,$,$,$,$,$,0.00);
#111=IFCTASK('2k80rIbhRf2sFwyR_kwktL',#6,'Roof finishes and services',$,$,'4.4',$,$,$,.F.,$,#110,.CONSTRUCTION.);
#112=IFCTASKTIME('Wind and weathertight Time',.PREDICTED.,$,.WORKTIME.,'P0Y0M0D','2027-03-01T07:00:00','2027-03-01T07:00:00','2027-10-21T07:00:00','2027-10-21T07:00:00','2028-05-04T07:00:00','2028-05-04T07:00:00','P0Y0M137D','P0Y0M137D',.F.,$,$,$,$,$,0.00);
#113=IFCTASK('3xfA6cZiJxhM5ueaF1ENk6',#6,'Wind and weathertight',$,$,'4.5',$,$,$,.T.,$,#112,.INSTALLATION.);
#114=IFCTASKTIME('5. Building services Time',.PREDICTED.,$,.WORKTIME.,'P0Y0M88D','2027-03-01T07:00:00','2027-03-05T07:00:00','2027-10-22T07:00:00','2028-02-22T07:00:00','2027-10-22T07:00:00','2028-05-04T07:00:00','P0Y0M0D','P0Y0M0D',.T.,$,$,$,$,$,0.00);
#115=IFCTASK('2m65di9uWRZ6xPYNSceEVC',#6,'5. Building services',$,$,'5',$,$,$,.F.,$,#114,.INSTALLATION.);
#116=IFCTASKTIME('Main electrical switchroom Time',.PREDICTED.,$,.WORKTIME.,'P0Y0M10D','2027-03-01T07:00:00','2027-03-12T07:00:00','2027-10-22T07:00:00','2027-11-04T07:00:00','2027-10-22T07:00:00','2027-11-04T07:00:00','P0Y0M0D','P0Y0M0D',.T.,$,$,$,$,$,0.00);
#117=IFCTASK('2PUmgHY_Q1UJodjoV42XJS',#6,'Main electrical switchroom',$,$,'5.1',$,$,$,.F.,$,#116,.INSTALLATION.);
#118=IFCTASKTIME('Risers, electrical Time',.PREDICTED.,$,.WORKTIME.,'P0Y0M12D','2027-03-01T07:00:00','2027-03-16T07:00:00','2027-11-05T07:00:00','2027-11-22T07:00:00','2028-01-13T07:00:00','2028-01-28T07:00:00','P0Y0M0D','P0Y0M49D',.F.,$,$,$,$,$,0.00);
#119=IFCTASK('1zFKu_IIK_gamrY9D3LkA9',#6,'Risers, electrical',$,$,'5.2',$,$,$,.F.,$,#118,.INSTALLATION.);
#120=IFCTASKTIME('Risers, mechanical services Time',.PREDICTED.,$,.WORKTIME.,'P0Y0M12D','2027-03-01T07:00:00','2027-03-16T07:00:00','2027-11-10T07:00:00','2027-11-25T07:00:00','2028-01-18T07:00:00','2028-02-02T07:00:00','P0Y0M0D','P0Y0M49D',.F.,$,$,$,$,$,0.00);
#121=IFCTASK('1laeBGE_gzttmoql3UpY6Z',#6,'Risers, mechanical services',$,$,'5.3',$,$,$,.F.,$,#120,.INSTALLATION.);
#122=IFCTASKTIME('Air handling units Time',.PREDICTED.,$,.WORKTIME.,'P0Y0M10D','2027-03-01T07:00:00','2027-03-12T07:00:00','2027-11-26T07:00:00','2027-12-09T07:00:00','2028-02-03T07:00:00','2028-02-16T07:00:00','P0Y0M0D','P0Y0M49D',.F.,$,$,$,$,$,0.00);
#123=IFCTASK('3kNOErUvm0P1o0ipfrU2ri',#6,'Air handling units',$,$,'5.4',$,$,$,.F.,$,#122,.INSTALLATION.);
#124=IFCTASKTIME('Ventilation ductwork Time',.PREDICTED.,$,.WORKTIME.,'P0Y0M15D','2027-03-01T07:00:00','2027-03-19T07:00:00','2027-12-10T07:00:00','2027-12-30T07:00:00','2028-02-17T07:00:00','2028-03-08T07:00:00','P0Y0M0D','P0Y0M49D',.F.,$,$,$,$,$,0.00);
#125=IFCTASK('0XSTOcA0fPCrSTGCgT_Lx6',#6,'Ventilation ductwork',$,$,'5.5',$,$,$,.F.,$,#124,.INSTALLATION.);
#126=IFCTASKTIME('Sprinkler installation Time',.PREDICTED.,$,.WORKTIME.,'P0Y0M10D','2027-03-01T07:00:00','2027-03-12T07:00:00','2027-12-31T07:00:00','2028-01-13T07:00:00','2028-03-09T07:00:00','2028-03-22T07:00:00','P0Y0M0D','P0Y0M49D',.F.,$,$,$,$,$,0.00);
#127=IFCTASK('3hgpBafJ60Dl_pYE19Uy9n',#6,'Sprinkler installation',$,$,'5.6',$,$,$,.F.,$,#126,.INSTALLATION.);
#128=IFCTASKTIME('Lift installation Time',.PREDICTED.,$,.WORKTIME.,'P0Y0M20D','2027-03-01T07:00:00','2027-03-26T07:00:00','2028-01-14T07:00:00','2028-02-10T07:00:00','2028-03-23T07:00:00','2028-04-21T07:00:00','P0Y0M0D','P0Y0M49D',.F.,$,$,$,$,$,0.00);
#129=IFCTASK('1NfAjssAoIZhc$TS9kVUCk',#6,'Lift installation',$,$,'5.7',$,$,$,.F.,$,#128,.INSTALLATION.);
#130=IFCTASKTIME('BMS/building management Time',.PREDICTED.,$,.WORKTIME.,'P0Y0M8D','2027-03-01T07:00:00','2027-03-10T07:00:00','2028-02-11T07:00:00','2028-02-22T07:00:00','2028-04-24T07:00:00','2028-05-04T07:00:00','P0Y0M49D','P0Y0M49D',.F.,$,$,$,$,$,0.00);
#131=IFCTASK('2A4AS$Cb3g3BSoPpp1TZSB',#6,'BMS/building management',$,$,'5.8',$,$,$,.F.,$,#130,.INSTALLATION.);
#132=IFCTASKTIME('6. Fit-out Time',.PREDICTED.,$,.WORKTIME.,'P0Y0M60D','2027-03-01T07:00:00','2027-03-05T07:00:00','2027-12-30T07:00:00','2028-03-22T07:00:00','2027-12-30T07:00:00','2028-03-22T07:00:00','P0Y0M0D','P0Y0M0D',.T.,$,$,$,$,$,0.00);
#133=IFCTASK('1qkVNqVT6DJzAOvBBfGCAu',#6,'6. Fit-out',$,$,'6',$,$,$,.F.,$,#132,.CONSTRUCTION.);
#134=IFCTASKTIME('Office system partitions Time',.PREDICTED.,$,.WORKTIME.,'P0Y0M15D','2027-03-01T07:00:00','2027-03-19T07:00:00','2027-12-30T07:00:00','2028-01-19T07:00:00','2027-12-30T07:00:00','2028-01-19T07:00:00','P0Y0M0D','P0Y0M0D',.T.,$,$,$,$,$,0.00);
#135=IFCTASK('3TAg1nOVNQFyawQm6r8kvI',#6,'Office system partitions',$,$,'6.1',$,$,$,.F.,$,#134,.CONSTRUCTION.);
#136=IFCTASKTIME('Suspended ceilings Time',.PREDICTED.,$,.WORKTIME.,'P0Y0M12D','2027-03-01T07:00:00','2027-03-16T07:00:00','2028-01-20T07:00:00','2028-02-04T07:00:00','2028-01-20T07:00:00','2028-02-04T07:00:00','P0Y0M0D','P0Y0M0D',.T.,$,$,$,$,$,0.00);
#137=IFCTASK('0fjDQa3IwzU_h$sQZY3kNU',#6,'Suspended ceilings',$,$,'6.2',$,$,$,.F.,$,#136,.CONSTRUCTION.);
#138=IFCTASKTIME('Raised floors Time',.PREDICTED.,$,.WORKTIME.,'P0Y0M10D','2027-03-01T07:00:00','2027-03-12T07:00:00','2028-02-07T07:00:00','2028-02-18T07:00:00','2028-02-07T07:00:00','2028-02-18T07:00:00','P0Y0M0D','P0Y0M0D',.T.,$,$,$,$,$,0.00);
#139=IFCTASK('1ZD5R7mKiaitOpgzEFtWos',#6,'Raised floors',$,$,'6.3',$,$,$,.F.,$,#138,.CONSTRUCTION.);
#140=IFCTASKTIME('Sanitary rooms Time',.PREDICTED.,$,.WORKTIME.,'P0Y0M8D','2027-03-01T07:00:00','2027-03-10T07:00:00','2028-02-21T07:00:00','2028-03-01T07:00:00','2028-02-21T07:00:00','2028-03-01T07:00:00','P0Y0M0D','P0Y0M0D',.T.,$,$,$,$,$,0.00);
#141=IFCTASK('3jgRT$AUK_h_q$xVkJOie4',#6,'Sanitary rooms',$,$,'6.4',$,$,$,.F.,$,#140,.CONSTRUCTION.);
#142=IFCTASKTIME('Kitchen/pantry fit-out Time',.PREDICTED.,$,.WORKTIME.,'P0Y0M5D','2027-03-01T07:00:00','2027-03-05T07:00:00','2028-03-02T07:00:00','2028-03-08T07:00:00','2028-03-02T07:00:00','2028-03-08T07:00:00','P0Y0M0D','P0Y0M0D',.T.,$,$,$,$,$,0.00);
#143=IFCTASK('3ghvPT8Zy6WL$kyieL0WzC',#6,'Kitchen/pantry fit-out',$,$,'6.5',$,$,$,.F.,$,#142,.INSTALLATION.);
#144=IFCTASKTIME('Painting & finishing Time',.PREDICTED.,$,.WORKTIME.,'P0Y0M10D','2027-03-01T07:00:00','2027-03-12T07:00:00','2028-03-09T07:00:00','2028-03-22T07:00:00','2028-03-09T07:00:00','2028-03-22T07:00:00','P0Y0M0D','P0Y0M0D',.T.,$,$,$,$,$,0.00);
#145=IFCTASK('3Kqmx2vgnMhZ72vrb_n5_I',#6,'Painting & finishing',$,$,'6.6',$,$,$,.F.,$,#144,.CONSTRUCTION.);
#146=IFCTASKTIME('7. Site works & handover Time',.PREDICTED.,$,.WORKTIME.,'P0Y0M28D','2027-03-01T07:00:00','2027-03-05T07:00:00','2028-03-23T07:00:00','2028-05-04T07:00:00','2028-03-23T07:00:00','2028-05-04T07:00:00','P0Y0M0D','P0Y0M0D',.T.,$,$,$,$,$,0.00);
#147=IFCTASK('1_423DbdOL1GgROJY$xkhP',#6,'7. Site works & handover',$,$,'7',$,$,$,.F.,$,#146,.CONSTRUCTION.);
#148=IFCTASKTIME('Paving & landscaping Time',.PREDICTED.,$,.WORKTIME.,'P0Y0M10D','2027-03-01T07:00:00','2027-03-12T07:00:00','2028-03-23T07:00:00','2028-04-05T07:00:00','2028-03-23T07:00:00','2028-04-05T07:00:00','P0Y0M0D','P0Y0M0D',.T.,$,$,$,$,$,0.00);
#149=IFCTASK('1aZrUK46Au7wEbVHXKDHIq',#6,'Paving & landscaping',$,$,'7.1',$,$,$,.F.,$,#148,.CONSTRUCTION.);
#150=IFCTASKTIME('Entrance & lobby fit-out Time',.PREDICTED.,$,.WORKTIME.,'P0Y0M8D','2027-03-01T07:00:00','2027-03-10T07:00:00','2028-04-06T07:00:00','2028-04-19T07:00:00','2028-04-06T07:00:00','2028-04-19T07:00:00','P0Y0M0D','P0Y0M0D',.T.,$,$,$,$,$,0.00);
#151=IFCTASK('10NNlaoTmMgJU6HmYVivLQ',#6,'Entrance & lobby fit-out',$,$,'7.2',$,$,$,.F.,$,#150,.INSTALLATION.);
#152=IFCTASKTIME('Testing & commissioning Time',.PREDICTED.,$,.WORKTIME.,'P0Y0M10D','2027-03-01T07:00:00','2027-03-12T07:00:00','2028-04-20T07:00:00','2028-05-04T07:00:00','2028-04-20T07:00:00','2028-05-04T07:00:00','P0Y0M0D','P0Y0M0D',.T.,$,$,$,$,$,0.00);
#153=IFCTASK('2PccdgejADeHYJtCQpje3_',#6,'Testing & commissioning',$,$,'7.3',$,$,$,.F.,$,#152,.ATTENDANCE.);
#154=IFCTASKTIME('Handover Time',.PREDICTED.,$,.WORKTIME.,'P0Y0M0D','2027-03-01T07:00:00','2027-03-01T07:00:00','2028-05-04T07:00:00','2028-05-04T07:00:00','2028-05-04T07:00:00','2028-05-04T07:00:00','P0Y0M0D','P0Y0M0D',.T.,$,$,$,$,$,0.00);
#155=IFCTASK('0pSSOAy2mm5PRq_yTymaPK',#6,'Handover',$,$,'7.4',$,$,$,.T.,$,#154,.CONSTRUCTION.);
#156=IFCRELNESTS('2FHBLxeuVObJ296AACeTMj',#6,'WBS 1. Preparation',$,#43,( #45,#47,#49,#51,#53));
#157=IFCRELNESTS('0k_3zzCC4JuaD9_EORB_Nt',#6,'WBS 2. Earthworks & foundations',$,#55,( #57,#59,#61,#63,#65,#67,#69,#71,#73,#75));
#158=IFCRELNESTS('2bXtVtc2TBNpbHCEKJSh2v',#6,'WBS 3. Structural works',$,#77,( #79,#81,#83,#85,#87,#89,#91,#93,#95,#97,#99,#101));
#159=IFCRELNESTS('1N7lNoxF06qoRtbf7rWtHM',#6,'WBS 4. Facade',$,#103,( #105,#107,#109,#111,#113));
#160=IFCRELNESTS('3pvhz8ubjmqvJnKxTBmWef',#6,'WBS 5. Building services',$,#115,( #117,#119,#121,#123,#125,#127,#129,#131));
#161=IFCRELNESTS('0wA7QaqbTZpLEZnNpVcfvq',#6,'WBS 6. Fit-out',$,#133,( #135,#137,#139,#141,#143,#145));
#162=IFCRELNESTS('2Cg2sSGqXeHpctHvfbX3Nn',#6,'WBS 7. Site works & handover',$,#147,( #149,#151,#153,#155));
#163=IFCRELNESTS('3XCu0RUfKK9fI7vD4ZL6ry',#6,'WBS Hoofd',$,#40,(#43,#55,#77,#103,#115,#133,#147));
#164=IFCRELSEQUENCE('3SW4WLaptT_i6NYA0DC93M',#6,$,$,#45,#47,$,.FINISH_START.,$);
#165=IFCRELSEQUENCE('2damzQ_JBZNHu30EWKuHiH',#6,$,$,#47,#49,$,.FINISH_START.,$);
#166=IFCRELSEQUENCE('3HOrJm3cUN1TxQZvdo_rLA',#6,$,$,#49,#51,$,.FINISH_START.,$);
#167=IFCRELSEQUENCE('0VtBlSF8b$mheY97rhvWl5',#6,$,$,#51,#53,$,.FINISH_START.,$);
#168=IFCRELSEQUENCE('3sbSgcjrXxtrQ0E6SuR$2l',#6,$,$,#57,#59,$,.FINISH_START.,$);
#169=IFCRELSEQUENCE('3$b_5ESbrGNHH8HaaLKrgT',#6,$,$,#59,#61,$,.FINISH_START.,$);
#170=IFCRELSEQUENCE('1ytJVRdo1DG9L7AxUFIgHE',#6,$,$,#61,#63,$,.FINISH_START.,$);
#171=IFCRELSEQUENCE('3ZLwtfDfATpEE8tUGKpVgo',#6,$,$,#63,#65,$,.FINISH_START.,$);
#172=IFCRELSEQUENCE('3wBaV9tKd2PphwnPCdO7tK',#6,$,$,#65,#67,$,.FINISH_START.,$);
#173=IFCRELSEQUENCE('2vPHs7K9SMtPXr$niqOo_J',#6,$,$,#67,#69,$,.FINISH_START.,$);
#174=IFCRELSEQUENCE('2zm2MNG0_uSOe2iOXSK_nK',#6,$,$,#69,#71,$,.FINISH_START.,$);
#175=IFCRELSEQUENCE('0wX06CfVC$OmnH5i6Fw0J0',#6,$,$,#71,#73,$,.FINISH_START.,$);
#176=IFCRELSEQUENCE('1o7AYJtJ4i8bIO7cn3sZ9R',#6,$,$,#73,#75,$,.FINISH_START.,$);
#177=IFCRELSEQUENCE('3Ki5TNMIYNY0epCNh6mIV7',#6,$,$,#79,#81,$,.FINISH_START.,$);
#178=IFCRELSEQUENCE('3nZrOvecWdpP9MmAPIdzIy',#6,$,$,#81,#83,$,.FINISH_START.,$);
#179=IFCRELSEQUENCE('3xtJ5z4YeuyR$N1gJ5SztE',#6,$,$,#83,#85,$,.FINISH_START.,$);
#180=IFCRELSEQUENCE('07l0sgvDk$t1awtoi2Fro2',#6,$,$,#85,#87,$,.FINISH_START.,$);
#181=IFCRELSEQUENCE('1SnWCVpQErCED9Sbrk$QKy',#6,$,$,#87,#89,$,.FINISH_START.,$);
#182=IFCRELSEQUENCE('3UCeuzJPXCq_DH1ZNyFfM6',#6,$,$,#89,#91,$,.FINISH_START.,$);
#183=IFCRELSEQUENCE('0eHGKQ1dQvxgH3xxWE70fG',#6,$,$,#91,#93,$,.FINISH_START.,$);
#184=IFCRELSEQUENCE('0KHgTwX$O_CdcJh5$7if1Z',#6,$,$,#93,#95,$,.FINISH_START.,$);
#185=IFCLAGTIME('Lag',.PREDICTED.,$,IFCDURATION('P5D'),.WORKTIME.);
#186=IFCRELSEQUENCE('0elXpXzGv6Azv_TkhYaYVJ',#6,$,$,#95,#97,#185,.START_START.,$);
#187=IFCRELSEQUENCE('0yS1Ece7IBHk_RgJPjoQvj',#6,$,$,#97,#99,$,.FINISH_START.,$);
#188=IFCRELSEQUENCE('2Te_gIQdAd3bfkbaFeuE38',#6,$,$,#99,#101,$,.FINISH_START.,$);
#189=IFCRELSEQUENCE('2EVp3R8E552lpr9YJcE8NM',#6,$,$,#105,#107,$,.FINISH_START.,$);
#190=IFCRELSEQUENCE('2deI9MU5mfAxPrJc6sz5$9',#6,$,$,#107,#109,$,.FINISH_START.,$);
#191=IFCRELSEQUENCE('3GUNMrGMxdOw9gLAfZxrdD',#6,$,$,#109,#111,$,.FINISH_START.,$);
#192=IFCRELSEQUENCE('2cz9fZ5l$nkoaEbm6EVFia',#6,$,$,#111,#113,$,.FINISH_START.,$);
#193=IFCRELSEQUENCE('1PEIUqrip0UMW4XbfJL4OE',#6,$,$,#117,#119,$,.FINISH_START.,$);
#194=IFCLAGTIME('Lag',.PREDICTED.,$,IFCDURATION('P3D'),.WORKTIME.);
#195=IFCRELSEQUENCE('09Rgv0SaFZ0XjEvNK0Yh1x',#6,$,$,#119,#121,#194,.START_START.,$);
#196=IFCRELSEQUENCE('2e$fYvPwUS$m0m8pVAA1D3',#6,$,$,#121,#123,$,.FINISH_START.,$);
#197=IFCRELSEQUENCE('2ftJQP6VqbcSXQbLxvAsXB',#6,$,$,#123,#125,$,.FINISH_START.,$);
#198=IFCRELSEQUENCE('0sCC0eWvd3Ix5FYsJLdUeg',#6,$,$,#125,#127,$,.FINISH_START.,$);
#199=IFCRELSEQUENCE('3RAI7Bv0VNapbC4zlH4k_v',#6,$,$,#127,#129,$,.FINISH_START.,$);
#200=IFCRELSEQUENCE('1ahwCgO9FgTn6zIxN7EFqy',#6,$,$,#129,#131,$,.FINISH_START.,$);
#201=IFCRELSEQUENCE('0xRJBhAsBAs5j8RYXNgpgs',#6,$,$,#135,#137,$,.FINISH_START.,$);
#202=IFCRELSEQUENCE('2S4tqI7hiK0Xfkaq_JkCq_',#6,$,$,#137,#139,$,.FINISH_START.,$);
#203=IFCRELSEQUENCE('2S5XkaaXmN6WKSlYvrwiv9',#6,$,$,#139,#141,$,.FINISH_START.,$);
#204=IFCRELSEQUENCE('08lvPbA0DygtqwhMS8v_BB',#6,$,$,#141,#143,$,.FINISH_START.,$);
#205=IFCRELSEQUENCE('10IMuWsXrnjHg0WZ20K4Y5',#6,$,$,#143,#145,$,.FINISH_START.,$);
#206=IFCRELSEQUENCE('3TrX7Eo9QrdWOB_LfQHVe2',#6,$,$,#149,#151,$,.FINISH_START.,$);
#207=IFCRELSEQUENCE('2AjyMwvc0GZyvDgJL0GBD$',#6,$,$,#151,#153,$,.FINISH_START.,$);
#208=IFCRELSEQUENCE('1fLwhfW9k_ZML73Lp9gZzb',#6,$,$,#153,#155,$,.FINISH_START.,$);
#209=IFCLAGTIME('Lag',.PREDICTED.,$,IFCDURATION('P10D'),.WORKTIME.);
#210=IFCRELSEQUENCE('156$TrXOQ0MvkMGwnyCyJE',#6,$,$,#45,#57,#209,.START_START.,$);
#211=IFCLAGTIME('Lag',.PREDICTED.,$,IFCRATIOMEASURE(0.4),.WORKTIME.);
#212=IFCRELSEQUENCE('2HVnRCNJqJrkQ9bxeleRE9',#6,$,$,#57,#79,#211,.START_START.,$);
#213=IFCLAGTIME('Lag',.PREDICTED.,$,IFCDURATION('-P21D'),.WORKTIME.);
#214=IFCRELSEQUENCE('0MBfImP8bb8L$TWJcBrPuH',#6,$,$,#99,#105,#213,.FINISH_START.,$);
#215=IFCLAGTIME('Lag',.PREDICTED.,$,IFCDURATION('P2D'),.WORKTIME.);
#216=IFCRELSEQUENCE('0Q6qfHuZJ1Fe0APdJ86juf',#6,$,$,#99,#111,#215,.FINISH_FINISH.,$);
#217=IFCRELSEQUENCE('0y1h5UOuNXgLgyAteZc_bu',#6,$,$,#111,#117,$,.FINISH_START.,$);
#218=IFCLAGTIME('Lag',.PREDICTED.,$,IFCDURATION('P49D'),.WORKTIME.);
#219=IFCRELSEQUENCE('2LHN1kCcEVfDPjHm_UwDGP',#6,$,$,#117,#135,#218,.START_START.,$);
#220=IFCRELSEQUENCE('3HkojbZsOOhLeVlz5Pqt_j',#6,$,$,#145,#149,$,.FINISH_START.,$);
#221=IFCCONSTRUCTIONEQUIPMENTRESOURCE('0q2F0IrMzkDVgTM8443o6C',#6,'Tower crane','One tower crane \X2\2014\X0\ the plot has room for a single crane base; floors, core and steel roof all queue for it',$,$,$,$,.USERDEFINED.);
#222=IFCSUBCONTRACTRESOURCE('0BjyUs$CFVIVHURanR2QzD',#6,'Site works contractor','Site set-up, the traffic measures on the surrounding roads and, at the very end, the paving and landscaping',$,$,$,$,.USERDEFINED.);
#223=IFCLABORRESOURCE('0BAJzKxoPUK0UrX53E0q9Y',#6,'Project management','Stakeholder management towards neighbours and the city, and the handover file',$,$,$,$,.USERDEFINED.);
#224=IFCSUBCONTRACTRESOURCE('3ka2CMc0HHqL5ad4e0bh61',#6,'Geotechnical monitoring contractor','Piezometers and deformation monitoring of the adjoining buildings \X2\2014\X0\ standard for a deep basement in the inner city',$,$,$,$,.USERDEFINED.);
#225=IFCSUBCONTRACTRESOURCE('22JlMfpAlUTN1gDKcQ7Qlh',#6,'Piling contractor','Sheet piling and bored foundation piles',$,$,$,$,.USERDEFINED.);
#226=IFCSUBCONTRACTRESOURCE('33$aqVyRDuTQl$xbbmc0HN',#6,'Earthworks contractor','Dewatering and the excavation down to level -2',$,$,$,$,.USERDEFINED.);
#227=IFCLABORRESOURCE('2bLeSKcTdrWLAph$YS6tFA',#6,'Structural works crew','Two concrete gangs of seven: one finishing the basement while the other climbs the tower',$,$,$,$,.USERDEFINED.);
#228=IFCLABORRESOURCE('09AloVS8ldpIk5koL7vFR9',#6,'Core formwork gang','Dedicated gang on the self-climbing formwork of the stair and lift core, running alongside the floor cycle',$,$,$,$,.USERDEFINED.);
#229=IFCLABORRESOURCE('0xnF42Bnaa8nJaN2fLj9E6',#6,'Steel fixers','Two rebar gangs of four, on the heavy elements; the typical floors get prefabricated reinforcement',$,$,$,$,.USERDEFINED.);
#230=IFCCONSTRUCTIONMATERIALRESOURCE('21rNdGA0bn2uwTmsCx8PNK',#6,'Concrete C30/37',$,$,$,$,$,.USERDEFINED.);
#231=IFCSUBCONTRACTRESOURCE('2EmzFyMgkC7sEeiAUE68OL',#6,'Structural steel contractor','Steel erection gang for the roof structure',$,$,$,$,.USERDEFINED.);
#232=IFCSUBCONTRACTRESOURCE('1NONQ1joV5Zf56uEEcHgZH',#6,'Facade contractor','Unitised curtain wall, hoisted with its own monorail hoists off the floor edge \X2\2014\X0\ it never queues for the tower crane',$,$,$,$,.USERDEFINED.);
#233=IFCSUBCONTRACTRESOURCE('3NFS1OJ2a4UYQZfpJNLulc',#6,'Roofing contractor',$,$,$,$,$,.USERDEFINED.);
#234=IFCLABORRESOURCE('0QTOSviRUM_2v9Kv9E79x9',#6,'Electricians',$,$,$,$,$,.USERDEFINED.);
#235=IFCLABORRESOURCE('1zdSXcOz2lcpjTYwQ3OtE5',#6,'Mechanical fitters','Ductwork, air handling, sprinklers; peaks on the ventilation ductwork',$,$,$,$,.USERDEFINED.);
#236=IFCSUBCONTRACTRESOURCE('1R1XeR$BpFcJhIMX8iL663',#6,'Lift contractor',$,$,$,$,$,.USERDEFINED.);
#237=IFCLABORRESOURCE('2xlNF$188xp_NUO9oWqBCg',#6,'Fit-out crew','System partitions, ceilings and raised floors across eight office storeys',$,$,$,$,.USERDEFINED.);
#238=IFCLABORRESOURCE('2m_MPgw0jQRh9Uy0h3utiQ',#6,'Painters',$,$,$,$,$,.USERDEFINED.);
#239=IFCPROPERTYSINGLEVALUE('CostPerHour',$,IFCMONETARYMEASURE(110),$);
#240=IFCPROPERTYSINGLEVALUE('Color',$,IFCTEXT('#1E293B'),$);
#241=IFCPROPERTYSET('3RyhGTYedpD5Ynfqc3vsPs',#6,'OPS_Resource',$,(#239,#240));
#242=IFCRELDEFINESBYPROPERTIES('3LwwxcHnQfK_nDqkkFxh7$',#6,$,$,(#221),#241);
#243=IFCPROPERTYSINGLEVALUE('MaxUnits',$,IFCREAL(6),$);
#244=IFCPROPERTYSINGLEVALUE('CostPerHour',$,IFCMONETARYMEASURE(58),$);
#245=IFCPROPERTYSINGLEVALUE('Color',$,IFCTEXT('#B91C1C'),$);
#246=IFCPROPERTYSET('3uiaCHfq2OosAiYW2kdFOL',#6,'OPS_Resource',$,(#243,#244,#245));
#247=IFCRELDEFINESBYPROPERTIES('3mo6mN1OV4KW6sIYyYcnbi',#6,$,$,(#222),#246);
#248=IFCPROPERTYSINGLEVALUE('MaxUnits',$,IFCREAL(2),$);
#249=IFCPROPERTYSINGLEVALUE('CostPerHour',$,IFCMONETARYMEASURE(95),$);
#250=IFCPROPERTYSINGLEVALUE('Color',$,IFCTEXT('#DB2777'),$);
#251=IFCPROPERTYSET('1DGmJb3TMwa9NkY7UCq3lP',#6,'OPS_Resource',$,(#248,#249,#250));
#252=IFCRELDEFINESBYPROPERTIES('16WrhWYguGzqo0ypCbO2s8',#6,$,$,(#223),#251);
#253=IFCPROPERTYSINGLEVALUE('MaxUnits',$,IFCREAL(2),$);
#254=IFCPROPERTYSINGLEVALUE('CostPerHour',$,IFCMONETARYMEASURE(115),$);
#255=IFCPROPERTYSINGLEVALUE('Color',$,IFCTEXT('#C2410C'),$);
#256=IFCPROPERTYSET('0fK7hYLyzihheHyYswp1LW',#6,'OPS_Resource',$,(#253,#254,#255));
#257=IFCRELDEFINESBYPROPERTIES('3yLklh1XamSivMEaQ0KHOA',#6,$,$,(#224),#256);
#258=IFCPROPERTYSINGLEVALUE('MaxUnits',$,IFCREAL(4),$);
#259=IFCPROPERTYSINGLEVALUE('CostPerHour',$,IFCMONETARYMEASURE(78),$);
#260=IFCPROPERTYSINGLEVALUE('Color',$,IFCTEXT('#6366F1'),$);
#261=IFCPROPERTYSET('1D_obYHTTUrWm28gJlDE5j',#6,'OPS_Resource',$,(#258,#259,#260));
#262=IFCRELDEFINESBYPROPERTIES('22CTqORJZXKFKE67dH9cp_',#6,$,$,(#225),#261);
#263=IFCPROPERTYSINGLEVALUE('MaxUnits',$,IFCREAL(6),$);
#264=IFCPROPERTYSINGLEVALUE('CostPerHour',$,IFCMONETARYMEASURE(62),$);
#265=IFCPROPERTYSINGLEVALUE('Color',$,IFCTEXT('#0D9488'),$);
#266=IFCPROPERTYSET('2ZSzGIsBWqb$FTPjhKYK_C',#6,'OPS_Resource',$,(#263,#264,#265));
#267=IFCRELDEFINESBYPROPERTIES('3h4$MpvUT7K6mbjWGLCZma',#6,$,$,(#226),#266);
#268=IFCPROPERTYSINGLEVALUE('MaxUnits',$,IFCREAL(14),$);
#269=IFCPROPERTYSINGLEVALUE('CostPerHour',$,IFCMONETARYMEASURE(46),$);
#270=IFCPROPERTYSINGLEVALUE('Color',$,IFCTEXT('#D97706'),$);
#271=IFCPROPERTYSET('3pGp6UiE0bBoGICn1tUxye',#6,'OPS_Resource',$,(#268,#269,#270));
#272=IFCRELDEFINESBYPROPERTIES('0Ah$fmRlm$A_XHp6m5Wrzh',#6,$,$,(#227),#271);
#273=IFCPROPERTYSINGLEVALUE('MaxUnits',$,IFCREAL(6),$);
#274=IFCPROPERTYSINGLEVALUE('CostPerHour',$,IFCMONETARYMEASURE(48),$);
#275=IFCPROPERTYSINGLEVALUE('Color',$,IFCTEXT('#A78BFA'),$);
#276=IFCPROPERTYSET('0gkaGkUwAaRQYpRRirBpdH',#6,'OPS_Resource',$,(#273,#274,#275));
#277=IFCRELDEFINESBYPROPERTIES('2aRurNOP3EOep4EyVR3u2Y',#6,$,$,(#228),#276);
#278=IFCPROPERTYSINGLEVALUE('MaxUnits',$,IFCREAL(8),$);
#279=IFCPROPERTYSINGLEVALUE('CostPerHour',$,IFCMONETARYMEASURE(44),$);
#280=IFCPROPERTYSINGLEVALUE('Color',$,IFCTEXT('#38BDF8'),$);
#281=IFCPROPERTYSET('03qgAq_2YxSuU5H7jNRbZw',#6,'OPS_Resource',$,(#278,#279,#280));
#282=IFCRELDEFINESBYPROPERTIES('02PIZ5GzK4VdMqN7D_X_7O',#6,$,$,(#229),#281);
#283=IFCPROPERTYSINGLEVALUE('MaxUnits',$,IFCREAL(999),$);
#284=IFCPROPERTYSINGLEVALUE('UnitOfMeasure',$,IFCLABEL('m\X2\00B3\X0\'),$);
#285=IFCPROPERTYSINGLEVALUE('Color',$,IFCTEXT('#4ADE80'),$);
#286=IFCPROPERTYSET('0$sy1KKUBlVCvnh9Ztduvz',#6,'OPS_Resource',$,(#283,#284,#285));
#287=IFCRELDEFINESBYPROPERTIES('2G5hffg_7y4VnrgusWvBFh',#6,$,$,(#230),#286);
#288=IFCPROPERTYSINGLEVALUE('MaxUnits',$,IFCREAL(4),$);
#289=IFCPROPERTYSINGLEVALUE('CostPerHour',$,IFCMONETARYMEASURE(70),$);
#290=IFCPROPERTYSINGLEVALUE('Color',$,IFCTEXT('#FBBF24'),$);
#291=IFCPROPERTYSET('1G5qHjjrcgzaA_kQBgTWIc',#6,'OPS_Resource',$,(#288,#289,#290));
#292=IFCRELDEFINESBYPROPERTIES('0SwakU4snBEcVzxyQVdNsX',#6,$,$,(#231),#291);
#293=IFCPROPERTYSINGLEVALUE('MaxUnits',$,IFCREAL(8),$);
#294=IFCPROPERTYSINGLEVALUE('CostPerHour',$,IFCMONETARYMEASURE(72),$);
#295=IFCPROPERTYSINGLEVALUE('Color',$,IFCTEXT('#BEF264'),$);
#296=IFCPROPERTYSET('0q622zxNZa4imeanX2OsQJ',#6,'OPS_Resource',$,(#293,#294,#295));
#297=IFCRELDEFINESBYPROPERTIES('19861bvwukPKbyg5zJQIiy',#6,$,$,(#232),#296);
#298=IFCPROPERTYSINGLEVALUE('MaxUnits',$,IFCREAL(4),$);
#299=IFCPROPERTYSINGLEVALUE('CostPerHour',$,IFCMONETARYMEASURE(66),$);
#300=IFCPROPERTYSINGLEVALUE('Color',$,IFCTEXT('#1E293B'),$);
#301=IFCPROPERTYSET('1RKj8_qO4L7L5AapUnMY$t',#6,'OPS_Resource',$,(#298,#299,#300));
#302=IFCRELDEFINESBYPROPERTIES('0GGfaaDb44ORD2kCteGNhV',#6,$,$,(#233),#301);
#303=IFCPROPERTYSINGLEVALUE('MaxUnits',$,IFCREAL(6),$);
#304=IFCPROPERTYSINGLEVALUE('CostPerHour',$,IFCMONETARYMEASURE(49),$);
#305=IFCPROPERTYSINGLEVALUE('Color',$,IFCTEXT('#1E293B'),$);
#306=IFCPROPERTYSET('3V1R$DHUhk67YVa$jYWgVx',#6,'OPS_Resource',$,(#303,#304,#305));
#307=IFCRELDEFINESBYPROPERTIES('2UEJ6ibyUURGIqf0Cj6$dM',#6,$,$,(#234),#306);
#308=IFCPROPERTYSINGLEVALUE('MaxUnits',$,IFCREAL(8),$);
#309=IFCPROPERTYSINGLEVALUE('CostPerHour',$,IFCMONETARYMEASURE(48),$);
#310=IFCPROPERTYSINGLEVALUE('Color',$,IFCTEXT('#1E293B'),$);
#311=IFCPROPERTYSET('36N5Jwl_zEac1Nru6X7K4K',#6,'OPS_Resource',$,(#308,#309,#310));
#312=IFCRELDEFINESBYPROPERTIES('0zic3cVszsSIae8vvsene5',#6,$,$,(#235),#311);
#313=IFCPROPERTYSINGLEVALUE('MaxUnits',$,IFCREAL(3),$);
#314=IFCPROPERTYSINGLEVALUE('CostPerHour',$,IFCMONETARYMEASURE(82),$);
#315=IFCPROPERTYSINGLEVALUE('Color',$,IFCTEXT('#1E293B'),$);
#316=IFCPROPERTYSET('3mjl_o2ov6sLxg1nFNSxzj',#6,'OPS_Resource',$,(#313,#314,#315));
#317=IFCRELDEFINESBYPROPERTIES('2dIqJgHTgAwfpJO1aExjnM',#6,$,$,(#236),#316);
#318=IFCPROPERTYSINGLEVALUE('MaxUnits',$,IFCREAL(10),$);
#319=IFCPROPERTYSINGLEVALUE('CostPerHour',$,IFCMONETARYMEASURE(44),$);
#320=IFCPROPERTYSINGLEVALUE('Color',$,IFCTEXT('#1E293B'),$);
#321=IFCPROPERTYSET('2a2w_Zz5U$9P6zXAsPMo9z',#6,'OPS_Resource',$,(#318,#319,#320));
#322=IFCRELDEFINESBYPROPERTIES('3mO42PZDE3kU$ffTUoEs8Z',#6,$,$,(#237),#321);
#323=IFCPROPERTYSINGLEVALUE('MaxUnits',$,IFCREAL(6),$);
#324=IFCPROPERTYSINGLEVALUE('CostPerHour',$,IFCMONETARYMEASURE(38),$);
#325=IFCPROPERTYSINGLEVALUE('Color',$,IFCTEXT('#1E293B'),$);
#326=IFCPROPERTYSET('3RckL_6qFxI8835597D$ER',#6,'OPS_Resource',$,(#323,#324,#325));
#327=IFCRELDEFINESBYPROPERTIES('3GQr_eaKuqMt$DAnAwUbzC',#6,$,$,(#238),#326);
#328=IFCRELASSIGNSTOPROCESS('2$7ZV6Xe5mNcJ6mS9LhgN5',#6,$,$,(#222),$,#45,$);
#329=IFCRELASSIGNSTOPROCESS('0CeOptl64PVvHQGlgeBUw5',#6,$,$,(#223),$,#47,$);
#330=IFCRELASSIGNSTOPROCESS('3UFQrrIZ6k9O7c1tLEfx3_',#6,$,$,(#222),$,#49,$);
#331=IFCRELASSIGNSTOPROCESS('0$2V4h1TJ8G1Z87jtYgy94',#6,$,$,(#224),$,#51,$);
#332=IFCRELASSIGNSTOPROCESS('04zlM4UAclB3d2a_PVpp52',#6,$,$,(#225),$,#57,$);
#333=IFCRELASSIGNSTOPROCESS('1LpiqAcYd7ty_UYrsfiJ$G',#6,$,$,(#226),$,#59,$);
#334=IFCRELASSIGNSTOPROCESS('3TO5J7UGaJA6UybsGF612o',#6,$,$,(#226),$,#61,$);
#335=IFCRELASSIGNSTOPROCESS('1VGFxaBZqSIU5r4xJr3L1L',#6,$,$,(#226),$,#63,$);
#336=IFCRELASSIGNSTOPROCESS('2oCqmOSQgYL$bl0buB$fR9',#6,$,$,(#225),$,#65,$);
#337=IFCRELASSIGNSTOPROCESS('016LTWnJzqIyiYgG3Zzl_w',#6,$,$,(#227,#229,#230),$,#67,$);
#338=IFCRELASSIGNSTOPROCESS('2_YPH55P2IAEcL0MD4Mog2',#6,$,$,(#227,#230),$,#69,$);
#339=IFCRELASSIGNSTOPROCESS('1z4K0LOpJJ7JC5DlK7Gb3M',#6,$,$,(#227,#230),$,#71,$);
#340=IFCRELASSIGNSTOPROCESS('2kkSiIwkCssKCYR0VD9eOr',#6,$,$,(#227,#229,#230),$,#73,$);
#341=IFCRELASSIGNSTOPROCESS('3umZUeWUPO9EVaVX8psMGA',#6,$,$,(#227),$,#75,$);
#342=IFCRELASSIGNSTOPROCESS('16LvDpeSDAPRpQI$JmP6Kl',#6,$,$,(#227,#229,#221,#230),$,#79,$);
#343=IFCRELASSIGNSTOPROCESS('0XczlFiq2A743KKaZV6q3A',#6,$,$,(#227,#221,#230),$,#81,$);
#344=IFCRELASSIGNSTOPROCESS('1EEIFsTHj2iaDYS_qiecIm',#6,$,$,(#227,#221,#230),$,#83,$);
#345=IFCRELASSIGNSTOPROCESS('1skZ2me3v7K2OfpORlL_TN',#6,$,$,(#227,#221,#230),$,#85,$);
#346=IFCRELASSIGNSTOPROCESS('3W$40T3EwUPjJRiEXIEjyl',#6,$,$,(#227,#221,#230),$,#87,$);
#347=IFCRELASSIGNSTOPROCESS('1GMDfpBFRrhmUo9CtmPWzX',#6,$,$,(#227,#221,#230),$,#89,$);
#348=IFCRELASSIGNSTOPROCESS('1uV5T4tjyGvvZP269VKwFT',#6,$,$,(#227,#221,#230),$,#91,$);
#349=IFCRELASSIGNSTOPROCESS('1kdPesRqPnKtemm4bjt$fo',#6,$,$,(#227,#221,#230),$,#93,$);
#350=IFCRELASSIGNSTOPROCESS('3nOA5DwsOrpkzt1mJhrVFT',#6,$,$,(#227,#221,#230),$,#95,$);
#351=IFCRELASSIGNSTOPROCESS('3oTVq$YfFEK$6yxaqx9w_q',#6,$,$,(#228,#229,#230),$,#97,$);
#352=IFCRELASSIGNSTOPROCESS('3srx4iSsj0gCzacz_3E1k3',#6,$,$,(#231,#221),$,#99,$);
#353=IFCRELASSIGNSTOPROCESS('0jD4SflT_$mHDz1nf6wG4G',#6,$,$,(#232),$,#105,$);
#354=IFCRELASSIGNSTOPROCESS('2i3$HfK96UxqXXAnqYVySZ',#6,$,$,(#232),$,#107,$);
#355=IFCRELASSIGNSTOPROCESS('26GwtniJn6elxCYGjAB71b',#6,$,$,(#232),$,#109,$);
#356=IFCRELASSIGNSTOPROCESS('1Sm3O7rv4s74EqntlHyE9v',#6,$,$,(#233),$,#111,$);
#357=IFCRELASSIGNSTOPROCESS('2LPbAOph5Is$JnX8jKBDu0',#6,$,$,(#234),$,#117,$);
#358=IFCRELASSIGNSTOPROCESS('1Kg4W78cto3U9rP_XxFZDE',#6,$,$,(#234),$,#119,$);
#359=IFCRELASSIGNSTOPROCESS('1w_CCfRdvUownvzIWIn8LL',#6,$,$,(#235),$,#121,$);
#360=IFCRELASSIGNSTOPROCESS('1MSxIWLxxwaPeLGGt$tXER',#6,$,$,(#235),$,#123,$);
#361=IFCRELASSIGNSTOPROCESS('347HF$eqG_i_XXrlOe0YoO',#6,$,$,(#235),$,#125,$);
#362=IFCRELASSIGNSTOPROCESS('3AnVR5WgilriWSyt8QLUpe',#6,$,$,(#235),$,#127,$);
#363=IFCRELASSIGNSTOPROCESS('3XCS1Ww0FdGZOvWGepPMTD',#6,$,$,(#236),$,#129,$);
#364=IFCRELASSIGNSTOPROCESS('2rnr2CBWbnpBz$gms7Tg9S',#6,$,$,(#234),$,#131,$);
#365=IFCRELASSIGNSTOPROCESS('0DunPIOv$lSxBtGxjMXa$5',#6,$,$,(#237),$,#135,$);
#366=IFCRELASSIGNSTOPROCESS('1epOG0Bz77ByJUjIckmHU7',#6,$,$,(#237),$,#137,$);
#367=IFCRELASSIGNSTOPROCESS('23G47NsJcHY3fl9kfzgN97',#6,$,$,(#237),$,#139,$);
#368=IFCRELASSIGNSTOPROCESS('1hfEcef3x_jMGnLauivmeN',#6,$,$,(#237,#235),$,#141,$);
#369=IFCRELASSIGNSTOPROCESS('2DJ63XwqRbN$PRac8qTDxx',#6,$,$,(#237),$,#143,$);
#370=IFCRELASSIGNSTOPROCESS('3U1e8LsOXMQ6v9jeEU180F',#6,$,$,(#238),$,#145,$);
#371=IFCRELASSIGNSTOPROCESS('3uR57a0zJhjp$sLGjdeBaS',#6,$,$,(#222),$,#149,$);
#372=IFCRELASSIGNSTOPROCESS('2OcrVwYDppgMX6icqQWs9G',#6,$,$,(#237),$,#151,$);
#373=IFCRELASSIGNSTOPROCESS('3UOh6TzPGin1U_QD3EbgXX',#6,$,$,(#234,#235,#223),$,#153,$);
#374=IFCPROPERTYSINGLEVALUE('0BjyUs$CFVIVHURanR2QzD#0',$,IFCTEXT('6|UNIFORM'),$);
#375=IFCPROPERTYSET('0oDCHgh5YECOdXLGBAc84n',#6,'OPS_Assignments',$,(#374));
#376=IFCRELDEFINESBYPROPERTIES('3dxW7r$VcXP63avco8PPwp',#6,$,$,(#45),#375);
#377=IFCPROPERTYSINGLEVALUE('0BAJzKxoPUK0UrX53E0q9Y#0',$,IFCTEXT('2|UNIFORM'),$);
#378=IFCPROPERTYSET('2ipbGh7LEqWt37xWZdFf52',#6,'OPS_Assignments',$,(#377));
#379=IFCRELDEFINESBYPROPERTIES('3172t2KbeAgQnlyOHPK09K',#6,$,$,(#47),#378);
#380=IFCPROPERTYSINGLEVALUE('0BjyUs$CFVIVHURanR2QzD#0',$,IFCTEXT('4|UNIFORM'),$);
#381=IFCPROPERTYSET('0IpTRgacCUK_OhrAzkRbGH',#6,'OPS_Assignments',$,(#380));
#382=IFCRELDEFINESBYPROPERTIES('2cln8VMmBvtGXjjR6zgits',#6,$,$,(#49),#381);
#383=IFCPROPERTYSINGLEVALUE('3ka2CMc0HHqL5ad4e0bh61#0',$,IFCTEXT('2|UNIFORM'),$);
#384=IFCPROPERTYSET('2zqfCMOcTS6ITl$quh7ZBP',#6,'OPS_Assignments',$,(#383));
#385=IFCRELDEFINESBYPROPERTIES('3a6r9ePbpz_waX7Cj60ELp',#6,$,$,(#51),#384);
#386=IFCPROPERTYSINGLEVALUE('22JlMfpAlUTN1gDKcQ7Qlh#0',$,IFCTEXT('4|UNIFORM'),$);
#387=IFCPROPERTYSET('3k7o9QQ6dMpfoF9B4OmehW',#6,'OPS_Assignments',$,(#386));
#388=IFCRELDEFINESBYPROPERTIES('0SBGcBiwbQTRiBftj6vKpV',#6,$,$,(#57),#387);
#389=IFCPROPERTYSINGLEVALUE('33$aqVyRDuTQl$xbbmc0HN#0',$,IFCTEXT('3|UNIFORM'),$);
#390=IFCPROPERTYSET('2CT6K4VuVk4_vV8uq6a38_',#6,'OPS_Assignments',$,(#389));
#391=IFCRELDEFINESBYPROPERTIES('3vo9VURgkK35xagToSxLjb',#6,$,$,(#59),#390);
#392=IFCPROPERTYSINGLEVALUE('33$aqVyRDuTQl$xbbmc0HN#0',$,IFCTEXT('6|UNIFORM'),$);
#393=IFCPROPERTYSET('0A1MgzrJ5A6FrpLzxM78nK',#6,'OPS_Assignments',$,(#392));
#394=IFCRELDEFINESBYPROPERTIES('2JJHgd9bvn5$FI85fd6dVQ',#6,$,$,(#61),#393);
#395=IFCPROPERTYSINGLEVALUE('33$aqVyRDuTQl$xbbmc0HN#0',$,IFCTEXT('6|UNIFORM'),$);
#396=IFCPROPERTYSET('0nTiyl44A70WiYo4OikGEo',#6,'OPS_Assignments',$,(#395));
#397=IFCRELDEFINESBYPROPERTIES('25jJUfYZy3fNOpO7TL7bSa',#6,$,$,(#63),#396);
#398=IFCPROPERTYSINGLEVALUE('22JlMfpAlUTN1gDKcQ7Qlh#0',$,IFCTEXT('4|UNIFORM'),$);
#399=IFCPROPERTYSET('1mHeB4BY2oZYBAFPYyHFdh',#6,'OPS_Assignments',$,(#398));
#400=IFCRELDEFINESBYPROPERTIES('2aUodBBNLOZ_fMoA5bLzme',#6,$,$,(#65),#399);
#401=IFCPROPERTYSINGLEVALUE('2bLeSKcTdrWLAph$YS6tFA#0',$,IFCTEXT('6|UNIFORM'),$);
#402=IFCPROPERTYSINGLEVALUE('0xnF42Bnaa8nJaN2fLj9E6#1',$,IFCTEXT('4|UNIFORM'),$);
#403=IFCPROPERTYSINGLEVALUE('21rNdGA0bn2uwTmsCx8PNK#2',$,IFCTEXT('45|UNIFORM'),$);
#404=IFCPROPERTYSET('3SQYBHiwoQ1qlVh5tDDRiE',#6,'OPS_Assignments',$,(#401,#402,#403));
#405=IFCRELDEFINESBYPROPERTIES('2Hd5JmKO5939qEIoSWiEdW',#6,$,$,(#67),#404);
#406=IFCPROPERTYSINGLEVALUE('2bLeSKcTdrWLAph$YS6tFA#0',$,IFCTEXT('6|UNIFORM'),$);
#407=IFCPROPERTYSINGLEVALUE('21rNdGA0bn2uwTmsCx8PNK#1',$,IFCTEXT('70|UNIFORM'),$);
#408=IFCPROPERTYSET('3$bnUaewBp2M68os88_Mne',#6,'OPS_Assignments',$,(#406,#407));
#409=IFCRELDEFINESBYPROPERTIES('1ePtchp0eXxrzM1zeNRIJZ',#6,$,$,(#69),#408);
#410=IFCPROPERTYSINGLEVALUE('2bLeSKcTdrWLAph$YS6tFA#0',$,IFCTEXT('6|UNIFORM'),$);
#411=IFCPROPERTYSINGLEVALUE('21rNdGA0bn2uwTmsCx8PNK#1',$,IFCTEXT('70|UNIFORM'),$);
#412=IFCPROPERTYSET('1A4gsEJQBn9LJ1Gw642kjv',#6,'OPS_Assignments',$,(#410,#411));
#413=IFCRELDEFINESBYPROPERTIES('0PUA6jTN8pux1EOYgqwFRq',#6,$,$,(#71),#412);
#414=IFCPROPERTYSINGLEVALUE('2bLeSKcTdrWLAph$YS6tFA#0',$,IFCTEXT('6|UNIFORM'),$);
#415=IFCPROPERTYSINGLEVALUE('0xnF42Bnaa8nJaN2fLj9E6#1',$,IFCTEXT('4|UNIFORM'),$);
#416=IFCPROPERTYSINGLEVALUE('21rNdGA0bn2uwTmsCx8PNK#2',$,IFCTEXT('55|FRONT_LOADED'),$);
#417=IFCPROPERTYSET('2ZsGNYjsRaXg_8vjYJ5Tp9',#6,'OPS_Assignments',$,(#414,#415,#416));
#418=IFCRELDEFINESBYPROPERTIES('3xdczp$9acoWYOamtfBb28',#6,$,$,(#73),#417);
#419=IFCPROPERTYSINGLEVALUE('2bLeSKcTdrWLAph$YS6tFA#0',$,IFCTEXT('4|UNIFORM'),$);
#420=IFCPROPERTYSET('0lO70ocCxLJk0_4wC4Xr44',#6,'OPS_Assignments',$,(#419));
#421=IFCRELDEFINESBYPROPERTIES('2WtQRWGRq3wdIS1A_qp8dR',#6,$,$,(#75),#420);
#422=IFCPROPERTYSINGLEVALUE('2bLeSKcTdrWLAph$YS6tFA#0',$,IFCTEXT('8|UNIFORM'),$);
#423=IFCPROPERTYSINGLEVALUE('0xnF42Bnaa8nJaN2fLj9E6#1',$,IFCTEXT('4|UNIFORM'),$);
#424=IFCPROPERTYSINGLEVALUE('0q2F0IrMzkDVgTM8443o6C#2',$,IFCTEXT('1|UNIFORM'),$);
#425=IFCPROPERTYSINGLEVALUE('21rNdGA0bn2uwTmsCx8PNK#3',$,IFCTEXT('60|UNIFORM'),$);
#426=IFCPROPERTYSET('2YfWL6twhSo3B9ZOCabcnz',#6,'OPS_Assignments',$,(#422,#423,#424,#425));
#427=IFCRELDEFINESBYPROPERTIES('1aHcS0tra8T$0vbhH_EMNP',#6,$,$,(#79),#426);
#428=IFCPROPERTYSINGLEVALUE('2bLeSKcTdrWLAph$YS6tFA#0',$,IFCTEXT('8|UNIFORM'),$);
#429=IFCPROPERTYSINGLEVALUE('0q2F0IrMzkDVgTM8443o6C#1',$,IFCTEXT('1|UNIFORM'),$);
#430=IFCPROPERTYSINGLEVALUE('21rNdGA0bn2uwTmsCx8PNK#2',$,IFCTEXT('45|UNIFORM'),$);
#431=IFCPROPERTYSET('0V00JggL73Po3VCh9aF6$C',#6,'OPS_Assignments',$,(#428,#429,#430));
#432=IFCRELDEFINESBYPROPERTIES('3LJp4gxQIJxKFA5Fy$_H$n',#6,$,$,(#81),#431);
#433=IFCPROPERTYSINGLEVALUE('2bLeSKcTdrWLAph$YS6tFA#0',$,IFCTEXT('8|UNIFORM'),$);
#434=IFCPROPERTYSINGLEVALUE('0q2F0IrMzkDVgTM8443o6C#1',$,IFCTEXT('1|UNIFORM'),$);
#435=IFCPROPERTYSINGLEVALUE('21rNdGA0bn2uwTmsCx8PNK#2',$,IFCTEXT('45|UNIFORM'),$);
#436=IFCPROPERTYSET('1opS9OmP3u8TLOxOPTI2I0',#6,'OPS_Assignments',$,(#433,#434,#435));
#437=IFCRELDEFINESBYPROPERTIES('17IkJKPf1T4gcO0$oVTGSL',#6,$,$,(#83),#436);
#438=IFCPROPERTYSINGLEVALUE('2bLeSKcTdrWLAph$YS6tFA#0',$,IFCTEXT('8|UNIFORM'),$);
#439=IFCPROPERTYSINGLEVALUE('0q2F0IrMzkDVgTM8443o6C#1',$,IFCTEXT('1|UNIFORM'),$);
#440=IFCPROPERTYSINGLEVALUE('21rNdGA0bn2uwTmsCx8PNK#2',$,IFCTEXT('45|UNIFORM'),$);
#441=IFCPROPERTYSET('2TzMkpYqA4KO_almLocO0x',#6,'OPS_Assignments',$,(#438,#439,#440));
#442=IFCRELDEFINESBYPROPERTIES('3g4olG7U3rjGwU1ye6lIlB',#6,$,$,(#85),#441);
#443=IFCPROPERTYSINGLEVALUE('2bLeSKcTdrWLAph$YS6tFA#0',$,IFCTEXT('8|UNIFORM'),$);
#444=IFCPROPERTYSINGLEVALUE('0q2F0IrMzkDVgTM8443o6C#1',$,IFCTEXT('1|UNIFORM'),$);
#445=IFCPROPERTYSINGLEVALUE('21rNdGA0bn2uwTmsCx8PNK#2',$,IFCTEXT('45|UNIFORM'),$);
#446=IFCPROPERTYSET('3sQY8S7EOH9BrDsY3CZ35i',#6,'OPS_Assignments',$,(#443,#444,#445));
#447=IFCRELDEFINESBYPROPERTIES('2huhINHReFm6UPzYJ$hhMW',#6,$,$,(#87),#446);
#448=IFCPROPERTYSINGLEVALUE('2bLeSKcTdrWLAph$YS6tFA#0',$,IFCTEXT('8|UNIFORM'),$);
#449=IFCPROPERTYSINGLEVALUE('0q2F0IrMzkDVgTM8443o6C#1',$,IFCTEXT('1|UNIFORM'),$);
#450=IFCPROPERTYSINGLEVALUE('21rNdGA0bn2uwTmsCx8PNK#2',$,IFCTEXT('45|UNIFORM'),$);
#451=IFCPROPERTYSET('3foU5J_E62vtyLbUeUYkm2',#6,'OPS_Assignments',$,(#448,#449,#450));
#452=IFCRELDEFINESBYPROPERTIES('1TIsRmxdKZcJc0UNxZHSGn',#6,$,$,(#89),#451);
#453=IFCPROPERTYSINGLEVALUE('2bLeSKcTdrWLAph$YS6tFA#0',$,IFCTEXT('8|UNIFORM'),$);
#454=IFCPROPERTYSINGLEVALUE('0q2F0IrMzkDVgTM8443o6C#1',$,IFCTEXT('1|UNIFORM'),$);
#455=IFCPROPERTYSINGLEVALUE('21rNdGA0bn2uwTmsCx8PNK#2',$,IFCTEXT('45|UNIFORM'),$);
#456=IFCPROPERTYSET('3xxWIOSQ3tHq4v$Rjx82yB',#6,'OPS_Assignments',$,(#453,#454,#455));
#457=IFCRELDEFINESBYPROPERTIES('0rkcPePqELms6DsbehsWr5',#6,$,$,(#91),#456);
#458=IFCPROPERTYSINGLEVALUE('2bLeSKcTdrWLAph$YS6tFA#0',$,IFCTEXT('8|UNIFORM'),$);
#459=IFCPROPERTYSINGLEVALUE('0q2F0IrMzkDVgTM8443o6C#1',$,IFCTEXT('1|UNIFORM'),$);
#460=IFCPROPERTYSINGLEVALUE('21rNdGA0bn2uwTmsCx8PNK#2',$,IFCTEXT('45|UNIFORM'),$);
#461=IFCPROPERTYSET('3uign5rxQpYrYOD_Tzs9JF',#6,'OPS_Assignments',$,(#458,#459,#460));
#462=IFCRELDEFINESBYPROPERTIES('0PnfSSDof2enAoC898eU0H',#6,$,$,(#93),#461);
#463=IFCPROPERTYSINGLEVALUE('2bLeSKcTdrWLAph$YS6tFA#0',$,IFCTEXT('8|UNIFORM'),$);
#464=IFCPROPERTYSINGLEVALUE('0q2F0IrMzkDVgTM8443o6C#1',$,IFCTEXT('1|UNIFORM'),$);
#465=IFCPROPERTYSINGLEVALUE('21rNdGA0bn2uwTmsCx8PNK#2',$,IFCTEXT('45|UNIFORM'),$);
#466=IFCPROPERTYSET('3coDvsDT7rNvQ6JK0bFsIN',#6,'OPS_Assignments',$,(#463,#464,#465));
#467=IFCRELDEFINESBYPROPERTIES('1X7aif1CUO2xDdA3ra3fRU',#6,$,$,(#95),#466);
#468=IFCPROPERTYSINGLEVALUE('09AloVS8ldpIk5koL7vFR9#0',$,IFCTEXT('6|UNIFORM'),$);
#469=IFCPROPERTYSINGLEVALUE('0xnF42Bnaa8nJaN2fLj9E6#1',$,IFCTEXT('4|UNIFORM'),$);
#470=IFCPROPERTYSINGLEVALUE('21rNdGA0bn2uwTmsCx8PNK#2',$,IFCTEXT('35|UNIFORM'),$);
#471=IFCPROPERTYSET('3U_WFsOD2TrPgzpxAuvmqG',#6,'OPS_Assignments',$,(#468,#469,#470));
#472=IFCRELDEFINESBYPROPERTIES('2ol7bfROJTgWyMtVzgsTKZ',#6,$,$,(#97),#471);
#473=IFCPROPERTYSINGLEVALUE('2EmzFyMgkC7sEeiAUE68OL#0',$,IFCTEXT('4|UNIFORM'),$);
#474=IFCPROPERTYSINGLEVALUE('0q2F0IrMzkDVgTM8443o6C#1',$,IFCTEXT('1|UNIFORM'),$);
#475=IFCPROPERTYSET('1LeTJNqXOy8v_Un1D19LHJ',#6,'OPS_Assignments',$,(#473,#474));
#476=IFCRELDEFINESBYPROPERTIES('1ZHjfmN5WEmr9OXD$9P0S$',#6,$,$,(#99),#475);
#477=IFCPROPERTYSINGLEVALUE('1NONQ1joV5Zf56uEEcHgZH#0',$,IFCTEXT('8|UNIFORM'),$);
#478=IFCPROPERTYSET('2HIHpMhAXr9Bh17dqCVhW4',#6,'OPS_Assignments',$,(#477));
#479=IFCRELDEFINESBYPROPERTIES('39Y4l685iQtW0AdP6ef5kP',#6,$,$,(#105),#478);
#480=IFCPROPERTYSINGLEVALUE('1NONQ1joV5Zf56uEEcHgZH#0',$,IFCTEXT('8|UNIFORM'),$);
#481=IFCPROPERTYSET('0jbacq097WYTCmUTQdyRaX',#6,'OPS_Assignments',$,(#480));
#482=IFCRELDEFINESBYPROPERTIES('29RKYkTvQ0pZQlevvYnJKT',#6,$,$,(#107),#481);
#483=IFCPROPERTYSINGLEVALUE('1NONQ1joV5Zf56uEEcHgZH#0',$,IFCTEXT('6|UNIFORM'),$);
#484=IFCPROPERTYSET('3nh9Ll1CMt1b61GeRr5EM8',#6,'OPS_Assignments',$,(#483));
#485=IFCRELDEFINESBYPROPERTIES('0E8FPWljQwsuwdn4VSrNQx',#6,$,$,(#109),#484);
#486=IFCPROPERTYSINGLEVALUE('3NFS1OJ2a4UYQZfpJNLulc#0',$,IFCTEXT('4|UNIFORM'),$);
#487=IFCPROPERTYSET('1GFOoqljVRI$kExL2MCwfJ',#6,'OPS_Assignments',$,(#486));
#488=IFCRELDEFINESBYPROPERTIES('20XjbtY$rS6NDtbMjgBDrC',#6,$,$,(#111),#487);
#489=IFCPROPERTYSINGLEVALUE('0QTOSviRUM_2v9Kv9E79x9#0',$,IFCTEXT('4|UNIFORM'),$);
#490=IFCPROPERTYSET('0LV0$T5_dAtPKNLnMxun6T',#6,'OPS_Assignments',$,(#489));
#491=IFCRELDEFINESBYPROPERTIES('0Mv5WiAcXL1J5USjxE30Vk',#6,$,$,(#117),#490);
#492=IFCPROPERTYSINGLEVALUE('0QTOSviRUM_2v9Kv9E79x9#0',$,IFCTEXT('6|UNIFORM'),$);
#493=IFCPROPERTYSET('3jJCXATH$anmCy29Q9TMZz',#6,'OPS_Assignments',$,(#492));
#494=IFCRELDEFINESBYPROPERTIES('0BJ1kAvmG$PjTo9XUEkmrH',#6,$,$,(#119),#493);
#495=IFCPROPERTYSINGLEVALUE('1zdSXcOz2lcpjTYwQ3OtE5#0',$,IFCTEXT('6|UNIFORM'),$);
#496=IFCPROPERTYSET('0k5C567hIelBmDyL5_ErnG',#6,'OPS_Assignments',$,(#495));
#497=IFCRELDEFINESBYPROPERTIES('11JEEXwcQkpwtUWhYZtrin',#6,$,$,(#121),#496);
#498=IFCPROPERTYSINGLEVALUE('1zdSXcOz2lcpjTYwQ3OtE5#0',$,IFCTEXT('6|UNIFORM'),$);
#499=IFCPROPERTYSET('2JfMmNaxuLClUv64JHm6on',#6,'OPS_Assignments',$,(#498));
#500=IFCRELDEFINESBYPROPERTIES('36i4L3XcR80W0Kf4cF26qr',#6,$,$,(#123),#499);
#501=IFCPROPERTYSINGLEVALUE('1zdSXcOz2lcpjTYwQ3OtE5#0',$,IFCTEXT('8|UNIFORM'),$);
#502=IFCPROPERTYSET('0OONTvjsZ5iMg1FbOIHcJj',#6,'OPS_Assignments',$,(#501));
#503=IFCRELDEFINESBYPROPERTIES('1maCrg9pNddBeLZZjUF6rI',#6,$,$,(#125),#502);
#504=IFCPROPERTYSINGLEVALUE('1zdSXcOz2lcpjTYwQ3OtE5#0',$,IFCTEXT('6|UNIFORM'),$);
#505=IFCPROPERTYSET('0wkm6czhdsK0yG6UkFOrQU',#6,'OPS_Assignments',$,(#504));
#506=IFCRELDEFINESBYPROPERTIES('25Bef1C62tyhHW$43tH$nk',#6,$,$,(#127),#505);
#507=IFCPROPERTYSINGLEVALUE('1R1XeR$BpFcJhIMX8iL663#0',$,IFCTEXT('3|UNIFORM'),$);
#508=IFCPROPERTYSET('0kdKZ1tCYtPWmoez4qelwK',#6,'OPS_Assignments',$,(#507));
#509=IFCRELDEFINESBYPROPERTIES('3tMqYhuipHZK0P4UNX_Hu8',#6,$,$,(#129),#508);
#510=IFCPROPERTYSINGLEVALUE('0QTOSviRUM_2v9Kv9E79x9#0',$,IFCTEXT('4|UNIFORM'),$);
#511=IFCPROPERTYSET('2kSDePWfKBslslMfE2zACW',#6,'OPS_Assignments',$,(#510));
#512=IFCRELDEFINESBYPROPERTIES('1ocsboKNyS$PTMNi$Km_X3',#6,$,$,(#131),#511);
#513=IFCPROPERTYSINGLEVALUE('2xlNF$188xp_NUO9oWqBCg#0',$,IFCTEXT('10|UNIFORM'),$);
#514=IFCPROPERTYSET('3aqD4o$a3M012ru$8dw647',#6,'OPS_Assignments',$,(#513));
#515=IFCRELDEFINESBYPROPERTIES('2h7fTYXaPpEYOyYLwqCbSI',#6,$,$,(#135),#514);
#516=IFCPROPERTYSINGLEVALUE('2xlNF$188xp_NUO9oWqBCg#0',$,IFCTEXT('8|UNIFORM'),$);
#517=IFCPROPERTYSET('2NhsUDI5hXm8gqKiXQ0ZXh',#6,'OPS_Assignments',$,(#516));
#518=IFCRELDEFINESBYPROPERTIES('2A3o8JO1SmvjcKhRQqskHX',#6,$,$,(#137),#517);
#519=IFCPROPERTYSINGLEVALUE('2xlNF$188xp_NUO9oWqBCg#0',$,IFCTEXT('6|UNIFORM'),$);
#520=IFCPROPERTYSET('2WimwJiC83i_g0cFLpPz$8',#6,'OPS_Assignments',$,(#519));
#521=IFCRELDEFINESBYPROPERTIES('0bXkrda2B_fTa4ll67qAPU',#6,$,$,(#139),#520);
#522=IFCPROPERTYSINGLEVALUE('2xlNF$188xp_NUO9oWqBCg#0',$,IFCTEXT('4|UNIFORM'),$);
#523=IFCPROPERTYSINGLEVALUE('1zdSXcOz2lcpjTYwQ3OtE5#1',$,IFCTEXT('2|UNIFORM'),$);
#524=IFCPROPERTYSET('3Je3LKoPR650I2LjGr_TxS',#6,'OPS_Assignments',$,(#522,#523));
#525=IFCRELDEFINESBYPROPERTIES('2cme7vmCp3WIRwUqHNOiHW',#6,$,$,(#141),#524);
#526=IFCPROPERTYSINGLEVALUE('2xlNF$188xp_NUO9oWqBCg#0',$,IFCTEXT('4|UNIFORM'),$);
#527=IFCPROPERTYSET('1kXluT1PEi2oVcQM2jT$gl',#6,'OPS_Assignments',$,(#526));
#528=IFCRELDEFINESBYPROPERTIES('0eI4YJ26bke$xAZ5AYUVsg',#6,$,$,(#143),#527);
#529=IFCPROPERTYSINGLEVALUE('2m_MPgw0jQRh9Uy0h3utiQ#0',$,IFCTEXT('6|UNIFORM'),$);
#530=IFCPROPERTYSET('11qpk8O0QEjkIufDUSal$e',#6,'OPS_Assignments',$,(#529));
#531=IFCRELDEFINESBYPROPERTIES('0thk1OceiKCMfh6PXR0_iv',#6,$,$,(#145),#530);
#532=IFCPROPERTYSINGLEVALUE('0BjyUs$CFVIVHURanR2QzD#0',$,IFCTEXT('6|UNIFORM'),$);
#533=IFCPROPERTYSET('2bNZkNz5sEJu3LmDnhUchW',#6,'OPS_Assignments',$,(#532));
#534=IFCRELDEFINESBYPROPERTIES('0c1Iq5Ivw7PUsrwgYQ6a7Y',#6,$,$,(#149),#533);
#535=IFCPROPERTYSINGLEVALUE('2xlNF$188xp_NUO9oWqBCg#0',$,IFCTEXT('6|UNIFORM'),$);
#536=IFCPROPERTYSET('2JFEm1LJxbVDAX7UJQjKyE',#6,'OPS_Assignments',$,(#535));
#537=IFCRELDEFINESBYPROPERTIES('0RWQVHh2QIbljIiR8R4PRK',#6,$,$,(#151),#536);
#538=IFCPROPERTYSINGLEVALUE('0QTOSviRUM_2v9Kv9E79x9#0',$,IFCTEXT('3|UNIFORM'),$);
#539=IFCPROPERTYSINGLEVALUE('1zdSXcOz2lcpjTYwQ3OtE5#1',$,IFCTEXT('3|UNIFORM'),$);
#540=IFCPROPERTYSINGLEVALUE('0BAJzKxoPUK0UrX53E0q9Y#2',$,IFCTEXT('1|UNIFORM'),$);
#541=IFCPROPERTYSET('2IgHdFTfG1xHU8bV$l9Uqe',#6,'OPS_Assignments',$,(#538,#539,#540));
#542=IFCRELDEFINESBYPROPERTIES('3G7toPeeUelxqucvIPnBiU',#6,$,$,(#153),#541);
#543=IFCRELASSIGNSTOCONTROL('3O781WWTatYI3UPFnW5Y2g',#6,$,$,(#43,#45,#47,#49,#51,#53,#55,#57,#59,#61,#63,#65,#67,#69,#71,#73,#75,#77,#79,#81,#83,#85,#87,#89,#91,#93,#95,#97,#99,#101,#103,#105,#107,#109,#111,#113,#115,#117,#119,#121,#123,#125,#127,#129,#131,#133,#135,#137,#139,#141,#143,#145,#147,#149,#151,#153,#155),$,#40);
#544=IFCPROPERTYSINGLEVALUE('InternalProjectId',$,IFCTEXT('proj-mula80co4q8c1287'),$);
#545=IFCPROPERTYSINGLEVALUE('wbsAutoNumber',$,IFCBOOLEAN(.T.),$);
#546=IFCPROPERTYSINGLEVALUE('DefaultTaskDurationUnit',$,IFCLABEL('days'),$);
#547=IFCPROPERTYSINGLEVALUE('ProjectStartDate',$,IFCDATE('2027-03-01'),$);
#548=IFCPROPERTYSINGLEVALUE('ProjectEndDate',$,$,$);
#549=IFCPROPERTYSINGLEVALUE('CreatedAt',$,IFCTEXT('2026-09-28T13:27:19.752Z'),$);
#550=IFCPROPERTYSINGLEVALUE('ModifiedAt',$,IFCTEXT('2026-09-28T13:27:19.755Z'),$);
#551=IFCPROPERTYSET('2WV849Y2cZPWQKSmk5WNCe',#6,'OPS_ProjectSettings',$,(#544,#545,#546,#547,#548,#549,#550));
#552=IFCRELDEFINESBYPROPERTIES('1dJxCSXdVdaUL2alkUNvg0',#6,$,$,(#13),#551);
#553=IFCPROPERTYSINGLEVALUE('InternalTaskId',$,IFCTEXT('task-mula80dor7k41306'),$);
#554=IFCPROPERTYSET('28zKgVnedQUC8KxsiAKpyW',#6,'OPS_TaskIdentity',$,(#553));
#555=IFCRELDEFINESBYPROPERTIES('3Bh2jJUMe385VkiT8dmef4',#6,$,$,(#43),#554);
#556=IFCPROPERTYSINGLEVALUE('InternalTaskId',$,IFCTEXT('task-mula80dp64o41307'),$);
#557=IFCPROPERTYSET('1Df5D8amcWXPsemfbtp00N',#6,'OPS_TaskIdentity',$,(#556));
#558=IFCRELDEFINESBYPROPERTIES('3$ttmeIF5dzI64BU2ix0v6',#6,$,$,(#45),#557);
#559=IFCPROPERTYSINGLEVALUE('InternalTaskId',$,IFCTEXT('task-mula80drv7xt1308'),$);
#560=IFCPROPERTYSET('2VEguRrKyrnjKF7lDERSsx',#6,'OPS_TaskIdentity',$,(#559));
#561=IFCRELDEFINESBYPROPERTIES('1BNBgcCvlndm0VJslzd_FG',#6,$,$,(#47),#560);
#562=IFCPROPERTYSINGLEVALUE('InternalTaskId',$,IFCTEXT('task-mula80dstpog1309'),$);
#563=IFCPROPERTYSET('3hE4ohJoSevnCXARuI2l14',#6,'OPS_TaskIdentity',$,(#562));
#564=IFCRELDEFINESBYPROPERTIES('2olt6IKp_azYdvVgNbiRbK',#6,$,$,(#49),#563);
#565=IFCPROPERTYSINGLEVALUE('InternalTaskId',$,IFCTEXT('task-mula80duu58t1310'),$);
#566=IFCPROPERTYSET('1KYQSJrqZukFWSv5XUJWG9',#6,'OPS_TaskIdentity',$,(#565));
#567=IFCRELDEFINESBYPROPERTIES('2y529CXA4uSDmWkA5lczdW',#6,$,$,(#51),#566);
#568=IFCPROPERTYSINGLEVALUE('InternalTaskId',$,IFCTEXT('task-mula80dvbt8j1311'),$);
#569=IFCPROPERTYSET('0sl2Pp53wZmD6wQNgkr7eP',#6,'OPS_TaskIdentity',$,(#568));
#570=IFCRELDEFINESBYPROPERTIES('3V7elgBLYp3xQJxNYEK8VG',#6,$,$,(#53),#569);
#571=IFCPROPERTYSINGLEVALUE('InternalTaskId',$,IFCTEXT('task-mula80dx6bec1312'),$);
#572=IFCPROPERTYSET('0KaCPPmXO91lE1M5QzJc1c',#6,'OPS_TaskIdentity',$,(#571));
#573=IFCRELDEFINESBYPROPERTIES('2N8mZiXV_Hf$Wk8uznvC8C',#6,$,$,(#55),#572);
#574=IFCPROPERTYSINGLEVALUE('InternalTaskId',$,IFCTEXT('task-mula80dy6njc1313'),$);
#575=IFCPROPERTYSET('3ByNtj88IS$NrZca9rNWVo',#6,'OPS_TaskIdentity',$,(#574));
#576=IFCRELDEFINESBYPROPERTIES('1HOAuW4V_J0YGZLHRwjfXq',#6,$,$,(#57),#575);
#577=IFCPROPERTYSINGLEVALUE('InternalTaskId',$,IFCTEXT('task-mula80e02x3l1314'),$);
#578=IFCPROPERTYSET('07GVoa0UA_pNx5dzvfyxGR',#6,'OPS_TaskIdentity',$,(#577));
#579=IFCRELDEFINESBYPROPERTIES('1WGyvQ_7ytqqoEVbzAr9mr',#6,$,$,(#59),#578);
#580=IFCPROPERTYSINGLEVALUE('InternalTaskId',$,IFCTEXT('task-mula80e1mfd01315'),$);
#581=IFCPROPERTYSET('2uUtPCNIpF0tLlf8MVSmRr',#6,'OPS_TaskIdentity',$,(#580));
#582=IFCRELDEFINESBYPROPERTIES('1O3XOn52irROVWouMkgVwi',#6,$,$,(#61),#581);
#583=IFCPROPERTYSINGLEVALUE('InternalTaskId',$,IFCTEXT('task-mula80e3emnd1316'),$);
#584=IFCPROPERTYSET('3HQSb1nO0mPeVl2Pn_GaBz',#6,'OPS_TaskIdentity',$,(#583));
#585=IFCRELDEFINESBYPROPERTIES('2QD1bCcFB8Gi4UtP$zD9GI',#6,$,$,(#63),#584);
#586=IFCPROPERTYSINGLEVALUE('InternalTaskId',$,IFCTEXT('task-mula80e4giv61317'),$);
#587=IFCPROPERTYSET('0x$qtTf$hnqboRyT2fDcwd',#6,'OPS_TaskIdentity',$,(#586));
#588=IFCRELDEFINESBYPROPERTIES('1Ah_cj3GGygsmfAr6sg$Ld',#6,$,$,(#65),#587);
#589=IFCPROPERTYSINGLEVALUE('InternalTaskId',$,IFCTEXT('task-mula80e66nfg1318'),$);
#590=IFCPROPERTYSET('3CW5EnGx5WCzmpzsISmw2N',#6,'OPS_TaskIdentity',$,(#589));
#591=IFCRELDEFINESBYPROPERTIES('3MHSvqxCbpyb$jYRwvqIsc',#6,$,$,(#67),#590);
#592=IFCPROPERTYSINGLEVALUE('InternalTaskId',$,IFCTEXT('task-mula80e893fv1319'),$);
#593=IFCPROPERTYSET('2mN7NQ3OfculbgNs0cK9m5',#6,'OPS_TaskIdentity',$,(#592));
#594=IFCRELDEFINESBYPROPERTIES('0ZKQhgKh21ufatYmPBhlvj',#6,$,$,(#69),#593);
#595=IFCPROPERTYSINGLEVALUE('InternalTaskId',$,IFCTEXT('task-mula80e9ohut1320'),$);
#596=IFCPROPERTYSET('1tltX77KQY3D2ak2r3wx2P',#6,'OPS_TaskIdentity',$,(#595));
#597=IFCRELDEFINESBYPROPERTIES('3GtcT9mXBgKbut377NHZwN',#6,$,$,(#71),#596);
#598=IFCPROPERTYSINGLEVALUE('InternalTaskId',$,IFCTEXT('task-mula80ech1qt1321'),$);
#599=IFCPROPERTYSET('2vCHHnB9u96fpw5xxv2wFf',#6,'OPS_TaskIdentity',$,(#598));
#600=IFCRELDEFINESBYPROPERTIES('18Q9X6B5egvs64dTkYuQKu',#6,$,$,(#73),#599);
#601=IFCPROPERTYSINGLEVALUE('InternalTaskId',$,IFCTEXT('task-mula80eeogyz1322'),$);
#602=IFCPROPERTYSET('2huypWMOzYBFg7FRuPuKfH',#6,'OPS_TaskIdentity',$,(#601));
#603=IFCRELDEFINESBYPROPERTIES('379rpUNBSQzN$TLnGbscxu',#6,$,$,(#75),#602);
#604=IFCPROPERTYSINGLEVALUE('InternalTaskId',$,IFCTEXT('task-mula80egd7yi1323'),$);
#605=IFCPROPERTYSET('2WDuYLGWYTIZ2qI$TA2yDw',#6,'OPS_TaskIdentity',$,(#604));
#606=IFCRELDEFINESBYPROPERTIES('0DDg2702Ebmtts_1bRswtx',#6,$,$,(#77),#605);
#607=IFCPROPERTYSINGLEVALUE('InternalTaskId',$,IFCTEXT('task-mula80ei2kwp1324'),$);
#608=IFCPROPERTYSET('0zkdSCZT339VfiGHN60LGd',#6,'OPS_TaskIdentity',$,(#607));
#609=IFCRELDEFINESBYPROPERTIES('1ZTONpNTrgNdbfw3RY6$7a',#6,$,$,(#79),#608);
#610=IFCPROPERTYSINGLEVALUE('InternalTaskId',$,IFCTEXT('task-mula80ek0f051325'),$);
#611=IFCPROPERTYSET('0ra6NgXi3GS7aHC$4GYhDN',#6,'OPS_TaskIdentity',$,(#610));
#612=IFCRELDEFINESBYPROPERTIES('0bn3gsVFJMDrScNNIva8pu',#6,$,$,(#81),#611);
#613=IFCPROPERTYSINGLEVALUE('InternalTaskId',$,IFCTEXT('task-mula80emtvs01326'),$);
#614=IFCPROPERTYSET('0XGh0rH7sQE6W0$vubTW45',#6,'OPS_TaskIdentity',$,(#613));
#615=IFCRELDEFINESBYPROPERTIES('3LSNRpNfn$4S2IDwaocRtG',#6,$,$,(#83),#614);
#616=IFCPROPERTYSINGLEVALUE('InternalTaskId',$,IFCTEXT('task-mula80eomtvl1327'),$);
#617=IFCPROPERTYSET('3mHU42IP4nuyPaMrwUHUxM',#6,'OPS_TaskIdentity',$,(#616));
#618=IFCRELDEFINESBYPROPERTIES('1A8mNCNIii40bUE20tCzOe',#6,$,$,(#85),#617);
#619=IFCPROPERTYSINGLEVALUE('InternalTaskId',$,IFCTEXT('task-mula80eqgle61328'),$);
#620=IFCPROPERTYSET('3L33WinkP30Sb5v2Dc1VPh',#6,'OPS_TaskIdentity',$,(#619));
#621=IFCRELDEFINESBYPROPERTIES('3hBrW25aDUPNUrvHxjCqnG',#6,$,$,(#87),#620);
#622=IFCPROPERTYSINGLEVALUE('InternalTaskId',$,IFCTEXT('task-mula80esv6yf1329'),$);
#623=IFCPROPERTYSET('0hMrCGf7y6PG3XgbxWXaQ2',#6,'OPS_TaskIdentity',$,(#622));
#624=IFCRELDEFINESBYPROPERTIES('3_Qar0HEMv9zGUddwqxaqI',#6,$,$,(#89),#623);
#625=IFCPROPERTYSINGLEVALUE('InternalTaskId',$,IFCTEXT('task-mula80eug66v1330'),$);
#626=IFCPROPERTYSET('2XEIRQvhDZh_4ApDNL28f1',#6,'OPS_TaskIdentity',$,(#625));
#627=IFCRELDEFINESBYPROPERTIES('1b0hO6_ytXuyZzXYcKYVn5',#6,$,$,(#91),#626);
#628=IFCPROPERTYSINGLEVALUE('InternalTaskId',$,IFCTEXT('task-mula80evpfzz1331'),$);
#629=IFCPROPERTYSET('3M4zNK4L$1r7P8Fgf7MDII',#6,'OPS_TaskIdentity',$,(#628));
#630=IFCRELDEFINESBYPROPERTIES('16$zN0rrmxuWFTKIPl92Jc',#6,$,$,(#93),#629);
#631=IFCPROPERTYSINGLEVALUE('InternalTaskId',$,IFCTEXT('task-mula80exmfd31332'),$);
#632=IFCPROPERTYSET('2kG7fBjJjoU$i0s_9BozGy',#6,'OPS_TaskIdentity',$,(#631));
#633=IFCRELDEFINESBYPROPERTIES('0Twn1qZ0a0HysbFCv50ju2',#6,$,$,(#95),#632);
#634=IFCPROPERTYSINGLEVALUE('InternalTaskId',$,IFCTEXT('task-mula80ezo31k1333'),$);
#635=IFCPROPERTYSET('1th$Yf9j3OoqOaJ21jNYQa',#6,'OPS_TaskIdentity',$,(#634));
#636=IFCRELDEFINESBYPROPERTIES('2ZRWKRPrv0EWVInTEYnvhz',#6,$,$,(#97),#635);
#637=IFCPROPERTYSINGLEVALUE('InternalTaskId',$,IFCTEXT('task-mula80f11q0a1334'),$);
#638=IFCPROPERTYSET('0oBnkmrA0AWZRziKq5I9lP',#6,'OPS_TaskIdentity',$,(#637));
#639=IFCRELDEFINESBYPROPERTIES('0r7hNqSXVcITSHBXEdRmks',#6,$,$,(#99),#638);
#640=IFCPROPERTYSINGLEVALUE('InternalTaskId',$,IFCTEXT('task-mula80f35uf41335'),$);
#641=IFCPROPERTYSET('1AYJ6XQWMTon2ybsWr1H8z',#6,'OPS_TaskIdentity',$,(#640));
#642=IFCRELDEFINESBYPROPERTIES('09McOL5dr$ZLUnXf5x$TZA',#6,$,$,(#101),#641);
#643=IFCPROPERTYSINGLEVALUE('InternalTaskId',$,IFCTEXT('task-mula80f537111336'),$);
#644=IFCPROPERTYSET('2MZ$HgbIUgmAiSJdNdiB46',#6,'OPS_TaskIdentity',$,(#643));
#645=IFCRELDEFINESBYPROPERTIES('2xKOYQRcae0Uj9paD_S3TT',#6,$,$,(#103),#644);
#646=IFCPROPERTYSINGLEVALUE('InternalTaskId',$,IFCTEXT('task-mula80f6k06w1337'),$);
#647=IFCPROPERTYSET('27HkP4JbR4bK$IIagRb5cD',#6,'OPS_TaskIdentity',$,(#646));
#648=IFCRELDEFINESBYPROPERTIES('1Kl7cd89xr7PNccs5bk$lx',#6,$,$,(#105),#647);
#649=IFCPROPERTYSINGLEVALUE('InternalTaskId',$,IFCTEXT('task-mula80f9dl4v1338'),$);
#650=IFCPROPERTYSET('10qGVKViiKlfn9PZgidRGY',#6,'OPS_TaskIdentity',$,(#649));
#651=IFCRELDEFINESBYPROPERTIES('0j4IV8XdYdgInhmM6qNmar',#6,$,$,(#107),#650);
#652=IFCPROPERTYSINGLEVALUE('InternalTaskId',$,IFCTEXT('task-mula80fb2nrd1339'),$);
#653=IFCPROPERTYSET('0UjwbGUE_eu4H595JAmiZ8',#6,'OPS_TaskIdentity',$,(#652));
#654=IFCRELDEFINESBYPROPERTIES('1QoYdn1sN_hjzyOY64K6V8',#6,$,$,(#109),#653);
#655=IFCPROPERTYSINGLEVALUE('InternalTaskId',$,IFCTEXT('task-mula80fd9eqm1340'),$);
#656=IFCPROPERTYSET('169LMwXSHGz8hUJfCx3vjo',#6,'OPS_TaskIdentity',$,(#655));
#657=IFCRELDEFINESBYPROPERTIES('0vi7vuaBlCULZ75ZlaeSYJ',#6,$,$,(#111),#656);
#658=IFCPROPERTYSINGLEVALUE('InternalTaskId',$,IFCTEXT('task-mula80fflstz1341'),$);
#659=IFCPROPERTYSET('2kwUaWRRSvLPTfbYEh8cRo',#6,'OPS_TaskIdentity',$,(#658));
#660=IFCRELDEFINESBYPROPERTIES('23kH0uyfkRop7VbR1SWypz',#6,$,$,(#113),#659);
#661=IFCPROPERTYSINGLEVALUE('InternalTaskId',$,IFCTEXT('task-mula80fht7731342'),$);
#662=IFCPROPERTYSET('1k8SHvSn8Y2mJS_WFuGp_v',#6,'OPS_TaskIdentity',$,(#661));
#663=IFCRELDEFINESBYPROPERTIES('1js73JPuslBRuD0E1SzFbo',#6,$,$,(#115),#662);
#664=IFCPROPERTYSINGLEVALUE('InternalTaskId',$,IFCTEXT('task-mula80fie5f91343'),$);
#665=IFCPROPERTYSET('1W_XWOy3w4het7nYRhaskH',#6,'OPS_TaskIdentity',$,(#664));
#666=IFCRELDEFINESBYPROPERTIES('1OVAlQVvOqCqm4Jf0DyBgx',#6,$,$,(#117),#665);
#667=IFCPROPERTYSINGLEVALUE('InternalTaskId',$,IFCTEXT('task-mula80fk10jq1344'),$);
#668=IFCPROPERTYSET('2SE0erQta87q7qxEI7Y1oH',#6,'OPS_TaskIdentity',$,(#667));
#669=IFCRELDEFINESBYPROPERTIES('29s3PQVAVaeX5ft0_vZ7OC',#6,$,$,(#119),#668);
#670=IFCPROPERTYSINGLEVALUE('InternalTaskId',$,IFCTEXT('task-mula80fnktaq1345'),$);
#671=IFCPROPERTYSET('2ydgtmhxmLLIIOA7pDxG3e',#6,'OPS_TaskIdentity',$,(#670));
#672=IFCRELDEFINESBYPROPERTIES('2p31mhhDtfe8kKMi1D3cVd',#6,$,$,(#121),#671);
#673=IFCPROPERTYSINGLEVALUE('InternalTaskId',$,IFCTEXT('task-mula80fprk2l1346'),$);
#674=IFCPROPERTYSET('1DDEEkkg0oqcA77sBO82rW',#6,'OPS_TaskIdentity',$,(#673));
#675=IFCRELDEFINESBYPROPERTIES('3xPOF3XOhqHcWzCczuTu1o',#6,$,$,(#123),#674);
#676=IFCPROPERTYSINGLEVALUE('InternalTaskId',$,IFCTEXT('task-mula80frzdj41347'),$);
#677=IFCPROPERTYSET('0X5tTE4LHgF4lTkvjIY8_E',#6,'OPS_TaskIdentity',$,(#676));
#678=IFCRELDEFINESBYPROPERTIES('1CxEizMKi42735qS3irji7',#6,$,$,(#125),#677);
#679=IFCPROPERTYSINGLEVALUE('InternalTaskId',$,IFCTEXT('task-mula80ftjzxv1348'),$);
#680=IFCPROPERTYSET('1VIDfzM4iA_IhEf2Ib7AkJ',#6,'OPS_TaskIdentity',$,(#679));
#681=IFCRELDEFINESBYPROPERTIES('1ZmsWz9kNV2eGi3HC09VSo',#6,$,$,(#127),#680);
#682=IFCPROPERTYSINGLEVALUE('InternalTaskId',$,IFCTEXT('task-mula80fvh0m61349'),$);
#683=IFCPROPERTYSET('2OsWbrRZ5GmEryrQ8$WMGT',#6,'OPS_TaskIdentity',$,(#682));
#684=IFCRELDEFINESBYPROPERTIES('2HL8aXzAUMfqJbEmuT$GLs',#6,$,$,(#129),#683);
#685=IFCPROPERTYSINGLEVALUE('InternalTaskId',$,IFCTEXT('task-mula80fxgnqv1350'),$);
#686=IFCPROPERTYSET('30RUT3FsdH1dSMp9rZdQem',#6,'OPS_TaskIdentity',$,(#685));
#687=IFCRELDEFINESBYPROPERTIES('1Ezzr711nIoXp2SoNMlOVJ',#6,$,$,(#131),#686);
#688=IFCPROPERTYSINGLEVALUE('InternalTaskId',$,IFCTEXT('task-mula80fznrn11351'),$);
#689=IFCPROPERTYSET('3l50YtYpu3Q_bQ0CSBdEr2',#6,'OPS_TaskIdentity',$,(#688));
#690=IFCRELDEFINESBYPROPERTIES('1IrNnCnH$2fr7lRPAxMLxf',#6,$,$,(#133),#689);
#691=IFCPROPERTYSINGLEVALUE('InternalTaskId',$,IFCTEXT('task-mula80g2iuef1352'),$);
#692=IFCPROPERTYSET('3D83rSDKdvltLPugK1MRfw',#6,'OPS_TaskIdentity',$,(#691));
#693=IFCRELDEFINESBYPROPERTIES('1S467Dy1JIEPaznQ0IOvgW',#6,$,$,(#135),#692);
#694=IFCPROPERTYSINGLEVALUE('InternalTaskId',$,IFCTEXT('task-mula80g4mgus1353'),$);
#695=IFCPROPERTYSET('26CU7e9Qt$YhEbWVWugq9c',#6,'OPS_TaskIdentity',$,(#694));
#696=IFCRELDEFINESBYPROPERTIES('1WccikBvWa40tpmX08m9rv',#6,$,$,(#137),#695);
#697=IFCPROPERTYSINGLEVALUE('InternalTaskId',$,IFCTEXT('task-mula80g6jnsv1354'),$);
#698=IFCPROPERTYSET('041AWmMvmKjQ1H0n7XXpVC',#6,'OPS_TaskIdentity',$,(#697));
#699=IFCRELDEFINESBYPROPERTIES('0pPEXMygN$2HF2$aQ4qyfQ',#6,$,$,(#139),#698);
#700=IFCPROPERTYSINGLEVALUE('InternalTaskId',$,IFCTEXT('task-mula80g9znci1355'),$);
#701=IFCPROPERTYSET('1Fj505QvId_YY95Fgej$dg',#6,'OPS_TaskIdentity',$,(#700));
#702=IFCRELDEFINESBYPROPERTIES('187RGbXQNThfxTesFYzbPb',#6,$,$,(#141),#701);
#703=IFCPROPERTYSINGLEVALUE('InternalTaskId',$,IFCTEXT('task-mula80gcbfe11356'),$);
#704=IFCPROPERTYSET('2qYKoOkp$OezGE6sRhEZyQ',#6,'OPS_TaskIdentity',$,(#703));
#705=IFCRELDEFINESBYPROPERTIES('3No2KmMOsqV72ycVgNEHK5',#6,$,$,(#143),#704);
#706=IFCPROPERTYSINGLEVALUE('InternalTaskId',$,IFCTEXT('task-mula80gfnmjh1357'),$);
#707=IFCPROPERTYSET('22zc5w2hAe3gw8jlfdrgIW',#6,'OPS_TaskIdentity',$,(#706));
#708=IFCRELDEFINESBYPROPERTIES('1V_Y_wDuvZ8eebHmhbp1a2',#6,$,$,(#145),#707);
#709=IFCPROPERTYSINGLEVALUE('InternalTaskId',$,IFCTEXT('task-mula80gi8c2w1358'),$);
#710=IFCPROPERTYSET('2zbI1hFn28yecuy5WwhID$',#6,'OPS_TaskIdentity',$,(#709));
#711=IFCRELDEFINESBYPROPERTIES('22svawzZN1yTs9rawaGR8G',#6,$,$,(#147),#710);
#712=IFCPROPERTYSINGLEVALUE('InternalTaskId',$,IFCTEXT('task-mula80gkrxv61359'),$);
#713=IFCPROPERTYSET('3EQg6_2PhDsR6zBa5J45v9',#6,'OPS_TaskIdentity',$,(#712));
#714=IFCRELDEFINESBYPROPERTIES('3Ac3ru$96icZPjomBZmu4j',#6,$,$,(#149),#713);
#715=IFCPROPERTYSINGLEVALUE('InternalTaskId',$,IFCTEXT('task-mula80gm5b951360'),$);
#716=IFCPROPERTYSET('1OCrDxMhp3uyHJ9IumdO$a',#6,'OPS_TaskIdentity',$,(#715));
#717=IFCRELDEFINESBYPROPERTIES('2ikvLRA7gWpuoC03t_WCp4',#6,$,$,(#151),#716);
#718=IFCPROPERTYSINGLEVALUE('InternalTaskId',$,IFCTEXT('task-mula80gp145r1361'),$);
#719=IFCPROPERTYSET('1Pgo9A6Ii4$wCr7yViEBdw',#6,'OPS_TaskIdentity',$,(#718));
#720=IFCRELDEFINESBYPROPERTIES('3asTHufEcEAeX$KUzCWxjy',#6,$,$,(#153),#719);
#721=IFCPROPERTYSINGLEVALUE('InternalTaskId',$,IFCTEXT('task-mula80grmg0d1362'),$);
#722=IFCPROPERTYSET('2ZfO1BDWmbeLFOFtbgttbQ',#6,'OPS_TaskIdentity',$,(#721));
#723=IFCRELDEFINESBYPROPERTIES('0Y_BuNPtCHHW1Xk$wIDn3t',#6,$,$,(#155),#722);
#724=IFCPROPERTYSINGLEVALUE('MilestoneKind',$,IFCLABEL('START'),$);
#725=IFCPROPERTYSET('1YnJvPe_RjPrCpr85CQojq',#6,'OPS_Milestone',$,(#724));
#726=IFCRELDEFINESBYPROPERTIES('1BQ1$MfKqlglwCWvpewB$d',#6,$,$,(#53),#725);
#727=IFCPROPERTYSINGLEVALUE('MilestoneKind',$,IFCLABEL('FINISH'),$);
#728=IFCPROPERTYSET('1iRp87DJ7yCsh3gUHm4msd',#6,'OPS_Milestone',$,(#727));
#729=IFCRELDEFINESBYPROPERTIES('0se_yunox96YsFw2wcQOZx',#6,$,$,(#101),#728);
#730=IFCPROPERTYSINGLEVALUE('MilestoneKind',$,IFCLABEL('FINISH'),$);
#731=IFCPROPERTYSET('0AD5kZdzrfRHfHcQvv6IUN',#6,'OPS_Milestone',$,(#730));
#732=IFCRELDEFINESBYPROPERTIES('2XEtN97H$Nu4ypmPg7qh7M',#6,$,$,(#113),#731);
#733=IFCPROPERTYSINGLEVALUE('MilestoneKind',$,IFCLABEL('FINISH'),$);
#734=IFCPROPERTYSINGLEVALUE('Mandatory',$,IFCBOOLEAN(.T.),$);
#735=IFCPROPERTYSET('3DeRVR$iDH0BldvLKmO0rh',#6,'OPS_Milestone',$,(#733,#734));
#736=IFCRELDEFINESBYPROPERTIES('22B_dkkrE6ryMKtATUAMdK',#6,$,$,(#155),#735);
ENDSEC;
END-ISO-10303-21;
