ISO-10303-21;
HEADER;
FILE_DESCRIPTION(('ViewDefinition [SchedulingView]'),'2;1');
FILE_NAME('N279 Bridge Replacement.ifc','2026-09-28T13:27:20',('Henk Mulder'),('Infra Netherlands BV'),'Open Vision Studio 0.1','Open Vision Studio','');
FILE_SCHEMA(('IFC4X3'));
ENDSEC;
DATA;
#1=IFCPERSON($,'Henk Mulder',$,$,$,$,$,$);
#2=IFCORGANIZATION($,'Infra Netherlands BV',$,$,$);
#3=IFCPERSONANDORGANIZATION(#1,#2,$);
#4=IFCORGANIZATION($,'Spanvision infra',$,$,$);
#5=IFCAPPLICATION(#4,'0.2','Open Vision Studio','OPS');
#6=IFCOWNERHISTORY(#3,#5,$,.NOCHANGE.,$,$,$,1790602040);
#7=IFCSIUNIT(*,.LENGTHUNIT.,$,.METRE.);
#8=IFCSIUNIT(*,.TIMEUNIT.,$,.SECOND.);
#9=IFCUNITASSIGNMENT((#7,#8));
#10=IFCCARTESIANPOINT((0.,0.,0.));
#11=IFCAXIS2PLACEMENT3D(#10,$,$);
#12=IFCGEOMETRICREPRESENTATIONCONTEXT($,'Plan',3,1.0E-05,#11,$);
#13=IFCPROJECT('1kmDsGpB5LtsBZFbZEVZES',#6,'N279 Bridge Replacement','Replacement of the existing bridge with a new concrete bridge',$,$,$,(#12),#9);
#14=IFCTIMEPERIOD('07:00:00','16:00:00');
#15=IFCRECURRENCEPATTERN(.WEEKLY.,$,(1,2,3,4,5,6),$,$,$,$,(#14));
#16=IFCWORKTIME('Standard work week',.PREDICTED.,$,#15,$,$);
#17=IFCWORKTIME('New Year''s Day',.PREDICTED.,$,$,'2027-01-01','2027-01-01');
#18=IFCWORKTIME('Good Friday',.PREDICTED.,$,$,'2027-03-26','2027-03-26');
#19=IFCWORKTIME('Easter',.PREDICTED.,$,$,'2027-03-28','2027-03-29');
#20=IFCWORKTIME('King''s Day',.PREDICTED.,$,$,'2027-04-27','2027-04-27');
#21=IFCWORKTIME('Liberation Day',.PREDICTED.,$,$,'2027-05-05','2027-05-05');
#22=IFCWORKTIME('Ascension Day',.PREDICTED.,$,$,'2027-05-06','2027-05-06');
#23=IFCWORKTIME('Whitsun',.PREDICTED.,$,$,'2027-05-16','2027-05-17');
#24=IFCWORKTIME('Christmas',.PREDICTED.,$,$,'2027-12-25','2027-12-26');
#25=IFCWORKTIME('Construction holiday (northern region)',.PREDICTED.,$,$,'2027-07-26','2027-08-15');
#26=IFCWORKTIME('New Year''s Day',.PREDICTED.,$,$,'2028-01-01','2028-01-01');
#27=IFCWORKTIME('Good Friday',.PREDICTED.,$,$,'2028-04-14','2028-04-14');
#28=IFCWORKTIME('Easter',.PREDICTED.,$,$,'2028-04-16','2028-04-17');
#29=IFCWORKTIME('King''s Day',.PREDICTED.,$,$,'2028-04-27','2028-04-27');
#30=IFCWORKTIME('Liberation Day',.PREDICTED.,$,$,'2028-05-05','2028-05-05');
#31=IFCWORKTIME('Ascension Day',.PREDICTED.,$,$,'2028-05-25','2028-05-25');
#32=IFCWORKTIME('Whitsun',.PREDICTED.,$,$,'2028-06-04','2028-06-05');
#33=IFCWORKTIME('Christmas',.PREDICTED.,$,$,'2028-12-25','2028-12-26');
#34=IFCWORKTIME('Construction holiday (northern region)',.PREDICTED.,$,$,'2028-07-24','2028-08-13');
#35=IFCWORKCALENDAR('3svzA02ytYs$p4y69WsEWb',#6,'Infrastructure calendar Mon-Sat','Infrastructure/hydraulic works: Mon-Sat',$,(#16),(#17,#18,#19,#20,#21,#22,#23,#24,#25,#26,#27,#28,#29,#30,#31,#32,#33,#34),.FIRSTSHIFT.);
#36=IFCPROPERTYSINGLEVALUE('HoursPerDay',$,IFCREAL(8),$);
#37=IFCPROPERTYSET('2VQ2mXO31UJSvl6LNAtTOV',#6,'OPS_Calendar',$,(#36));
#38=IFCRELDEFINESBYPROPERTIES('2q_WJzXoJA0dOXm90Ckys8',#6,$,$,(#35),#37);
#39=IFCWORKPLAN('3P4vIiWVGMRJAYEIS_GlYN',#6,'N279 Bridge Replacement','Replacement of the existing bridge with a new concrete bridge',$,$,'2026-09-28T13:27:20',$,$,$,$,$,'2027-03-01T07:00:00','2027-03-19T07:00:00',.PLANNED.);
#40=IFCWORKSCHEDULE('0MPbiztJlBWC2F699QK1$P',#6,'Construction schedule v1.0',$,$,$,'2026-09-28T13:27:20',$,$,$,$,$,'2027-03-01T07:00:00','2027-03-19T07:00:00',.PLANNED.);
#41=IFCRELAGGREGATES('2_8i1oSaM25PhDUwRxiD2J',#6,$,$,#39,(#40));
#42=IFCTASKTIME('1. Preparation & diversions Time',.PREDICTED.,$,.WORKTIME.,'P0Y0M22D','2027-03-01T07:00:00','2027-03-05T07:00:00','2027-03-01T07:00:00','2027-03-25T07:00:00','2027-03-01T07:00:00','2027-09-18T07:00:00','P0Y0M0D','P0Y0M0D',.T.,$,$,$,$,$,0.00);
#43=IFCTASK('2w2nqppMslVRySn1qFjg7H',#6,'1. Preparation & diversions',$,$,'1',$,$,$,.F.,$,#42,.LOGISTIC.);
#44=IFCTASKTIME('Implement traffic management Time',.PREDICTED.,$,.WORKTIME.,'P0Y0M5D','2027-03-01T07:00:00','2027-03-05T07:00:00','2027-03-01T07:00:00','2027-03-05T07:00:00','2027-03-01T07:00:00','2027-03-05T07:00:00','P0Y0M0D','P0Y0M0D',.T.,$,$,$,$,$,0.00);
#45=IFCTASK('0CX6VABv1DuyrhVDKtleBs',#6,'Implement traffic management',$,$,'1.1',$,$,$,.F.,$,#44,.LOGISTIC.);
#46=IFCTASKTIME('Temporary diversion route Time',.PREDICTED.,$,.WORKTIME.,'P0Y0M8D','2027-03-01T07:00:00','2027-03-10T07:00:00','2027-03-06T07:00:00','2027-03-15T07:00:00','2027-08-31T07:00:00','2027-09-08T07:00:00','P0Y0M0D','P0Y0M128D',.F.,$,$,$,$,$,0.00);
#47=IFCTASK('0YOmcGCowZY$QqkOcvLRKI',#6,'Temporary diversion route',$,$,'1.2',$,$,$,.F.,$,#46,.LOGISTIC.);
#48=IFCTASKTIME('Set up site Time',.PREDICTED.,$,.WORKTIME.,'P0Y0M5D','2027-03-01T07:00:00','2027-03-05T07:00:00','2027-03-16T07:00:00','2027-03-20T07:00:00','2027-09-09T07:00:00','2027-09-14T07:00:00','P0Y0M0D','P0Y0M128D',.F.,$,$,$,$,$,0.00);
#49=IFCTASK('35cg$paH7DVg9evgaMwosU',#6,'Set up site',$,$,'1.3',$,$,$,.F.,$,#48,.LOGISTIC.);
#50=IFCTASKTIME('Impose shipping restrictions Time',.PREDICTED.,$,.WORKTIME.,'P0Y0M3D','2027-03-01T07:00:00','2027-03-03T07:00:00','2027-03-22T07:00:00','2027-03-24T07:00:00','2027-09-15T07:00:00','2027-09-17T07:00:00','P0Y0M0D','P0Y0M128D',.F.,$,$,$,$,$,0.00);
#51=IFCTASK('0$bLtvD_hKirIHiggXR4Ca',#6,'Impose shipping restrictions',$,$,'1.4',$,$,$,.F.,$,#50,.LOGISTIC.);
#52=IFCTASKTIME('Start of works Time',.PREDICTED.,$,.WORKTIME.,'P0Y0M0D','2027-03-01T07:00:00','2027-03-01T07:00:00','2027-03-25T07:00:00','2027-03-25T07:00:00','2027-09-18T07:00:00','2027-09-18T07:00:00','P0Y0M128D','P0Y0M128D',.F.,$,$,$,$,$,0.00);
#53=IFCTASK('3vFZQ1upIUAU0dexTo3eeD',#6,'Start of works',$,$,'1.5',$,$,$,.T.,$,#52,.LOGISTIC.);
#54=IFCTASKTIME('2. Demolition of old bridge Time',.PREDICTED.,$,.WORKTIME.,'P0Y0M37D','2027-03-01T07:00:00','2027-03-05T07:00:00','2027-03-13T07:00:00','2027-04-28T07:00:00','2027-03-13T07:00:00','2027-09-18T07:00:00','P0Y0M0D','P0Y0M0D',.T.,$,$,$,$,$,0.00);
#55=IFCTASK('0c2xjJzvdwfevdmY5nf3YT',#6,'2. Demolition of old bridge',$,$,'2',$,$,$,.F.,$,#54,.DEMOLITION.);
#56=IFCTASKTIME('Divert services Time',.PREDICTED.,$,.WORKTIME.,'P0Y0M8D','2027-03-01T07:00:00','2027-03-10T07:00:00','2027-03-13T07:00:00','2027-03-22T07:00:00','2027-03-13T07:00:00','2027-03-22T07:00:00','P0Y0M0D','P0Y0M0D',.T.,$,$,$,$,$,0.00);
#57=IFCTASK('3x8WoSQWKZgLxVHRvbiRw1',#6,'Divert services',$,$,'2.1',$,$,$,.F.,$,#56,.INSTALLATION.);
#58=IFCTASKTIME('Remove asphalt Time',.PREDICTED.,$,.WORKTIME.,'P0Y0M3D','2027-03-01T07:00:00','2027-03-03T07:00:00','2027-03-23T07:00:00','2027-03-25T07:00:00','2027-08-17T07:00:00','2027-08-19T07:00:00','P0Y0M0D','P0Y0M102D',.F.,$,$,$,$,$,0.00);
#59=IFCTASK('0Ny82CyKiOEfAkuFuLNrRD',#6,'Remove asphalt',$,$,'2.2',$,$,$,.F.,$,#58,.DEMOLITION.);
#60=IFCTASKTIME('Remove bridge railings Time',.PREDICTED.,$,.WORKTIME.,'P0Y0M3D','2027-03-01T07:00:00','2027-03-03T07:00:00','2027-03-27T07:00:00','2027-03-31T07:00:00','2027-08-20T07:00:00','2027-08-23T07:00:00','P0Y0M0D','P0Y0M102D',.F.,$,$,$,$,$,0.00);
#61=IFCTASK('2swr_ANtKPHLA6iq$3J3__',#6,'Remove bridge railings',$,$,'2.3',$,$,$,.F.,$,#60,.DEMOLITION.);
#62=IFCTASKTIME('Demolish bridge deck Time',.PREDICTED.,$,.WORKTIME.,'P0Y0M10D','2027-03-01T07:00:00','2027-03-12T07:00:00','2027-04-01T07:00:00','2027-04-12T07:00:00','2027-08-24T07:00:00','2027-09-03T07:00:00','P0Y0M0D','P0Y0M102D',.F.,$,$,$,$,$,0.00);
#63=IFCTASK('0afcQhQs6iHY7Djriv0sCs',#6,'Demolish bridge deck',$,$,'2.4',$,$,$,.F.,$,#62,.DEMOLITION.);
#64=IFCTASKTIME('Demolish abutments Time',.PREDICTED.,$,.WORKTIME.,'P0Y0M8D','2027-03-01T07:00:00','2027-03-10T07:00:00','2027-04-13T07:00:00','2027-04-21T07:00:00','2027-09-04T07:00:00','2027-09-13T07:00:00','P0Y0M0D','P0Y0M102D',.F.,$,$,$,$,$,0.00);
#65=IFCTASK('146mYECk29hJq$vhw$0P34',#6,'Demolish abutments',$,$,'2.5',$,$,$,.F.,$,#64,.DEMOLITION.);
#66=IFCTASKTIME('Remove rubble Time',.PREDICTED.,$,.WORKTIME.,'P0Y0M5D','2027-03-01T07:00:00','2027-03-05T07:00:00','2027-04-22T07:00:00','2027-04-28T07:00:00','2027-09-14T07:00:00','2027-09-18T07:00:00','P0Y0M102D','P0Y0M102D',.F.,$,$,$,$,$,0.00);
#67=IFCTASK('2ksjsRYizERdmHII9MmVgH',#6,'Remove rubble',$,$,'2.6',$,$,$,.F.,$,#66,.LOGISTIC.);
#68=IFCTASKTIME('3. New foundations Time',.PREDICTED.,$,.WORKTIME.,'P0Y0M40D','2027-03-01T07:00:00','2027-03-05T07:00:00','2027-03-17T07:00:00','2027-05-07T07:00:00','2027-03-17T07:00:00','2027-05-07T07:00:00','P0Y0M0D','P0Y0M0D',.T.,$,$,$,$,$,0.00);
#69=IFCTASK('1mEYaeeYtrobyZYjmexdkR',#6,'3. New foundations',$,$,'3',$,$,$,.F.,$,#68,.CONSTRUCTION.);
#70=IFCTASKTIME('Drive sheet piling Time',.PREDICTED.,$,.WORKTIME.,'P0Y0M10D','2027-03-01T07:00:00','2027-03-12T07:00:00','2027-03-17T07:00:00','2027-03-30T07:00:00','2027-03-17T07:00:00','2027-03-30T07:00:00','P0Y0M0D','P0Y0M0D',.T.,$,$,$,$,$,0.00);
#71=IFCTASK('23wK1o22ZGi7j2iPcOcFoU',#6,'Drive sheet piling',$,$,'3.1',$,$,$,.F.,$,#70,.CONSTRUCTION.);
#72=IFCTASKTIME('Underwater concrete Time',.PREDICTED.,$,.WORKTIME.,'P0Y0M8D','2027-03-01T07:00:00','2027-03-10T07:00:00','2027-03-31T07:00:00','2027-04-08T07:00:00','2027-03-31T07:00:00','2027-04-08T07:00:00','P0Y0M0D','P0Y0M0D',.T.,$,$,$,$,$,0.00);
#73=IFCTASK('08aSWB1KnE4lyEUSPdGc_e',#6,'Underwater concrete',$,$,'3.2',$,$,$,.F.,$,#72,.CONSTRUCTION.);
#74=IFCTASKTIME('Dewater excavation pit Time',.PREDICTED.,$,.WORKTIME.,'P0Y0M5D','2027-03-01T07:00:00','2027-03-05T07:00:00','2027-04-09T07:00:00','2027-04-14T07:00:00','2027-04-09T07:00:00','2027-04-14T07:00:00','P0Y0M0D','P0Y0M0D',.T.,$,$,$,$,$,0.00);
#75=IFCTASK('1zbNASIOHyJ8No6ue4CARw',#6,'Dewater excavation pit',$,$,'3.3',$,$,$,.F.,$,#74,.CONSTRUCTION.);
#76=IFCTASKTIME('Bore pile foundation Time',.PREDICTED.,$,.WORKTIME.,'P0Y0M12D','2027-03-01T07:00:00','2027-03-16T07:00:00','2027-04-15T07:00:00','2027-04-29T07:00:00','2027-04-15T07:00:00','2027-04-29T07:00:00','P0Y0M0D','P0Y0M0D',.T.,$,$,$,$,$,0.00);
#77=IFCTASK('0ubNPToZmg8qnwvmcWZJku',#6,'Bore pile foundation',$,$,'3.4',$,$,$,.F.,$,#76,.CONSTRUCTION.);
#78=IFCTASKTIME('Ground improvement Time',.PREDICTED.,$,.WORKTIME.,'P0Y0M5D','2027-03-01T07:00:00','2027-03-05T07:00:00','2027-04-30T07:00:00','2027-05-07T07:00:00','2027-04-30T07:00:00','2027-05-07T07:00:00','P0Y0M0D','P0Y0M0D',.T.,$,$,$,$,$,0.00);
#79=IFCTASK('35blcgr9wFR7VY73RaGevt',#6,'Ground improvement',$,$,'3.5',$,$,$,.F.,$,#78,.CONSTRUCTION.);
#80=IFCTASKTIME('4. Concrete structure Time',.PREDICTED.,$,.WORKTIME.,'P0Y0M68D','2027-03-01T07:00:00','2027-03-05T07:00:00','2027-04-26T07:00:00','2027-07-17T07:00:00','2027-04-26T07:00:00','2027-07-17T07:00:00','P0Y0M0D','P0Y0M0D',.T.,$,$,$,$,$,0.00);
#81=IFCTASK('0uZjEClT86Mpzvw$YBS3vi',#6,'4. Concrete structure',$,$,'4',$,$,$,.F.,$,#80,.CONSTRUCTION.);
#82=IFCTASKTIME('West abutment: rebar and pour Time',.PREDICTED.,$,.WORKTIME.,'P0Y0M15D','2027-03-01T07:00:00','2027-03-19T07:00:00','2027-04-26T07:00:00','2027-05-15T07:00:00','2027-04-26T07:00:00','2027-05-15T07:00:00','P0Y0M0D','P0Y0M0D',.T.,$,$,$,$,$,0.00);
#83=IFCTASK('1lRamNrC2uDs$EQJtj8kF8',#6,'West abutment: rebar and pour',$,$,'4.1',$,$,$,.F.,$,#82,.CONSTRUCTION.);
#84=IFCTASKTIME('East abutment: rebar and pour Time',.PREDICTED.,$,.WORKTIME.,'P0Y0M15D','2027-03-01T07:00:00','2027-03-19T07:00:00','2027-05-03T07:00:00','2027-05-22T07:00:00','2027-05-03T07:00:00','2027-05-22T07:00:00','P0Y0M0D','P0Y0M0D',.T.,$,$,$,$,$,0.00);
#85=IFCTASK('0q73FL3cjDWNEnUx8miKRq',#6,'East abutment: rebar and pour',$,$,'4.2',$,$,$,.F.,$,#84,.CONSTRUCTION.);
#86=IFCTASKTIME('Pour central pier Time',.PREDICTED.,$,.WORKTIME.,'P0Y0M10D','2027-03-01T07:00:00','2027-03-12T07:00:00','2027-05-24T07:00:00','2027-06-03T07:00:00','2027-05-24T07:00:00','2027-06-03T07:00:00','P0Y0M0D','P0Y0M0D',.T.,$,$,$,$,$,0.00);
#87=IFCTASK('15uFmvmHoLhdSJ5xPr2ZwO',#6,'Pour central pier',$,$,'4.3',$,$,$,.F.,$,#86,.CONSTRUCTION.);
#88=IFCTASKTIME('Place precast beams Time',.PREDICTED.,$,.WORKTIME.,'P0Y0M8D','2027-03-01T07:00:00','2027-03-10T07:00:00','2027-06-04T07:00:00','2027-06-12T07:00:00','2027-06-04T07:00:00','2027-06-12T07:00:00','P0Y0M0D','P0Y0M0D',.T.,$,$,$,$,$,0.00);
#89=IFCTASK('1D0HyIxsRvwbxIWKUewXCp',#6,'Place precast beams',$,$,'4.4',$,$,$,.F.,$,#88,.CONSTRUCTION.);
#90=IFCTASKTIME('Bridge deck reinforcement Time',.PREDICTED.,$,.WORKTIME.,'P0Y0M10D','2027-03-01T07:00:00','2027-03-12T07:00:00','2027-06-14T07:00:00','2027-06-24T07:00:00','2027-06-14T07:00:00','2027-06-24T07:00:00','P0Y0M0D','P0Y0M0D',.T.,$,$,$,$,$,0.00);
#91=IFCTASK('0$KTcy$27DTLs$uWSaZCP4',#6,'Bridge deck reinforcement',$,$,'4.5',$,$,$,.F.,$,#90,.CONSTRUCTION.);
#92=IFCTASKTIME('Pour bridge deck Time',.PREDICTED.,$,.WORKTIME.,'P0Y0M5D','2027-03-01T07:00:00','2027-03-05T07:00:00','2027-06-25T07:00:00','2027-06-30T07:00:00','2027-06-25T07:00:00','2027-06-30T07:00:00','P0Y0M0D','P0Y0M0D',.T.,$,$,$,$,$,0.00);
#93=IFCTASK('0k0iOZ_kO4yW_$F4RlIaLP',#6,'Pour bridge deck',$,$,'4.6',$,$,$,.F.,$,#92,.CONSTRUCTION.);
#94=IFCTASKTIME('Concrete curing Time',.PREDICTED.,$,.WORKTIME.,'P0Y0M15D','2027-03-01T07:00:00','2027-03-19T07:00:00','2027-07-01T07:00:00','2027-07-17T07:00:00','2027-07-01T07:00:00','2027-07-17T07:00:00','P0Y0M0D','P0Y0M0D',.T.,$,$,$,$,$,0.00);
#95=IFCTASK('0EAj3xMItcJWbqx4hSAEie',#6,'Concrete curing',$,$,'4.7',$,$,$,.F.,$,#94,.CONSTRUCTION.);
#96=IFCTASKTIME('5. Finishing Time',.PREDICTED.,$,.WORKTIME.,'P0Y0M24D','2027-03-01T07:00:00','2027-03-05T07:00:00','2027-07-19T07:00:00','2027-09-04T07:00:00','2027-07-19T07:00:00','2027-09-04T07:00:00','P0Y0M0D','P0Y0M0D',.T.,$,$,$,$,$,0.00);
#97=IFCTASK('2YO6EP1_Nm9a$W2TAVlfSh',#6,'5. Finishing',$,$,'5',$,$,$,.F.,$,#96,.CONSTRUCTION.);
#98=IFCTASKTIME('Install bridge railings Time',.PREDICTED.,$,.WORKTIME.,'P0Y0M5D','2027-03-01T07:00:00','2027-03-05T07:00:00','2027-07-19T07:00:00','2027-07-23T07:00:00','2027-07-19T07:00:00','2027-07-23T07:00:00','P0Y0M0D','P0Y0M0D',.T.,$,$,$,$,$,0.00);
#99=IFCTASK('0EN4YIuQc4oc3_YCPm_r44',#6,'Install bridge railings',$,$,'5.1',$,$,$,.F.,$,#98,.INSTALLATION.);
#100=IFCTASKTIME('Bridge deck waterproofing Time',.PREDICTED.,$,.WORKTIME.,'P0Y0M5D','2027-03-01T07:00:00','2027-03-05T07:00:00','2027-07-24T07:00:00','2027-08-19T07:00:00','2027-07-24T07:00:00','2027-08-19T07:00:00','P0Y0M0D','P0Y0M0D',.T.,$,$,$,$,$,0.00);
#101=IFCTASK('37EoH9hdFQFKkOqN_54xGz',#6,'Bridge deck waterproofing',$,$,'5.2',$,$,$,.F.,$,#100,.INSTALLATION.);
#102=IFCTASKTIME('Asphalt bridge deck Time',.PREDICTED.,$,.WORKTIME.,'P0Y0M3D','2027-03-01T07:00:00','2027-03-03T07:00:00','2027-08-20T07:00:00','2027-08-23T07:00:00','2027-08-20T07:00:00','2027-08-23T07:00:00','P0Y0M0D','P0Y0M0D',.T.,$,$,$,$,$,0.00);
#103=IFCTASK('3bbyVUMHnA5Rt7ZZBncpU4',#6,'Asphalt bridge deck',$,$,'5.3',$,$,$,.F.,$,#102,.CONSTRUCTION.);
#104=IFCTASKTIME('Asphalt tie-ins Time',.PREDICTED.,$,.WORKTIME.,'P0Y0M5D','2027-03-01T07:00:00','2027-03-05T07:00:00','2027-08-24T07:00:00','2027-08-28T07:00:00','2027-08-24T07:00:00','2027-08-28T07:00:00','P0Y0M0D','P0Y0M0D',.T.,$,$,$,$,$,0.00);
#105=IFCTASK('0cGf5XDPf_D2$WM55HGldn',#6,'Asphalt tie-ins',$,$,'5.4',$,$,$,.F.,$,#104,.CONSTRUCTION.);
#106=IFCTASKTIME('Lighting Time',.PREDICTED.,$,.WORKTIME.,'P0Y0M3D','2027-03-01T07:00:00','2027-03-03T07:00:00','2027-08-30T07:00:00','2027-09-01T07:00:00','2027-08-30T07:00:00','2027-09-01T07:00:00','P0Y0M0D','P0Y0M0D',.T.,$,$,$,$,$,0.00);
#107=IFCTASK('27KxufP71HI8NnhMS_VYE2',#6,'Lighting',$,$,'5.5',$,$,$,.F.,$,#106,.INSTALLATION.);
#108=IFCTASKTIME('Crash barrier Time',.PREDICTED.,$,.WORKTIME.,'P0Y0M3D','2027-03-01T07:00:00','2027-03-03T07:00:00','2027-09-02T07:00:00','2027-09-04T07:00:00','2027-09-02T07:00:00','2027-09-04T07:00:00','P0Y0M0D','P0Y0M0D',.T.,$,$,$,$,$,0.00);
#109=IFCTASK('0hLn6NXL9rV9GJqudgHeEd',#6,'Crash barrier',$,$,'5.6',$,$,$,.F.,$,#108,.INSTALLATION.);
#110=IFCTASKTIME('6. Handover Time',.PREDICTED.,$,.WORKTIME.,'P0Y0M12D','2027-03-01T07:00:00','2027-03-05T07:00:00','2027-09-06T07:00:00','2027-09-18T07:00:00','2027-09-06T07:00:00','2027-09-18T07:00:00','P0Y0M0D','P0Y0M0D',.T.,$,$,$,$,$,0.00);
#111=IFCTASK('0hVo6oBngouVZNGnBqQHDI',#6,'6. Handover',$,$,'6',$,$,$,.F.,$,#110,.CONSTRUCTION.);
#112=IFCTASKTIME('Load test Time',.PREDICTED.,$,.WORKTIME.,'P0Y0M3D','2027-03-01T07:00:00','2027-03-03T07:00:00','2027-09-06T07:00:00','2027-09-08T07:00:00','2027-09-06T07:00:00','2027-09-08T07:00:00','P0Y0M0D','P0Y0M0D',.T.,$,$,$,$,$,0.00);
#113=IFCTASK('2i6gTUaEOq5Z4AJTsAErgH',#6,'Load test',$,$,'6.1',$,$,$,.F.,$,#112,.ATTENDANCE.);
#114=IFCTASKTIME('Remove diversions Time',.PREDICTED.,$,.WORKTIME.,'P0Y0M3D','2027-03-01T07:00:00','2027-03-03T07:00:00','2027-09-09T07:00:00','2027-09-11T07:00:00','2027-09-09T07:00:00','2027-09-11T07:00:00','P0Y0M0D','P0Y0M0D',.T.,$,$,$,$,$,0.00);
#115=IFCTASK('2l$nryFlHzTTRG7AZoix0B',#6,'Remove diversions',$,$,'6.2',$,$,$,.F.,$,#114,.LOGISTIC.);
#116=IFCTASKTIME('Clear site Time',.PREDICTED.,$,.WORKTIME.,'P0Y0M5D','2027-03-01T07:00:00','2027-03-05T07:00:00','2027-09-13T07:00:00','2027-09-17T07:00:00','2027-09-13T07:00:00','2027-09-17T07:00:00','P0Y0M0D','P0Y0M0D',.T.,$,$,$,$,$,0.00);
#117=IFCTASK('1AUYCEe5IDTJCdfvpdi8Vx',#6,'Clear site',$,$,'6.3',$,$,$,.F.,$,#116,.LOGISTIC.);
#118=IFCTASKTIME('Bridge open to traffic Time',.PREDICTED.,$,.WORKTIME.,'P0Y0M0D','2027-03-01T07:00:00','2027-03-01T07:00:00','2027-09-18T07:00:00','2027-09-18T07:00:00','2027-09-18T07:00:00','2027-09-18T07:00:00','P0Y0M0D','P0Y0M0D',.T.,$,$,$,$,$,0.00);
#119=IFCTASK('2iNl1UlV97vhzCzE$spBPc',#6,'Bridge open to traffic',$,$,'6.4',$,$,$,.T.,$,#118,.CONSTRUCTION.);
#120=IFCRELNESTS('1_7o4zW0LDTsjOLFK8ewVJ',#6,'WBS 1. Preparation & diversions',$,#43,( #45,#47,#49,#51,#53));
#121=IFCRELNESTS('29dvWVGFQM8r1iuR7C5aLt',#6,'WBS 2. Demolition of old bridge',$,#55,( #57,#59,#61,#63,#65,#67));
#122=IFCRELNESTS('3sFExC4BLr7yNdMjQ4rShf',#6,'WBS 3. New foundations',$,#69,( #71,#73,#75,#77,#79));
#123=IFCRELNESTS('2dvIWTbNmXfp67cJ3MiiqO',#6,'WBS 4. Concrete structure',$,#81,( #83,#85,#87,#89,#91,#93,#95));
#124=IFCRELNESTS('26VUTIE9hevjSi97jBAOOa',#6,'WBS 5. Finishing',$,#97,( #99,#101,#103,#105,#107,#109));
#125=IFCRELNESTS('03y7VS5dDKot4rbOBIh71z',#6,'WBS 6. Handover',$,#111,( #113,#115,#117,#119));
#126=IFCRELNESTS('1s$yvwzsWOFiEkJ9wFjpbB',#6,'WBS Hoofd',$,#40,(#43,#55,#69,#81,#97,#111));
#127=IFCRELSEQUENCE('31EMtkd8ZeFIf8ywbYpgPl',#6,$,$,#45,#47,$,.FINISH_START.,$);
#128=IFCRELSEQUENCE('0GlMqeorrPKC5mJqBXw1CR',#6,$,$,#47,#49,$,.FINISH_START.,$);
#129=IFCRELSEQUENCE('0C$RvQtov4XAJzvBznf4nC',#6,$,$,#49,#51,$,.FINISH_START.,$);
#130=IFCRELSEQUENCE('0iz4NZcYjjfu0eeZYPxwPV',#6,$,$,#51,#53,$,.FINISH_START.,$);
#131=IFCRELSEQUENCE('3DAbgvq_xKfGdCsuEuBvgP',#6,$,$,#57,#59,$,.FINISH_START.,$);
#132=IFCRELSEQUENCE('0DZ1Mwn8cpbt1GEUDVNjyz',#6,$,$,#59,#61,$,.FINISH_START.,$);
#133=IFCRELSEQUENCE('0lCaeFoB7ksldruZ4B2d__',#6,$,$,#61,#63,$,.FINISH_START.,$);
#134=IFCRELSEQUENCE('3u6$nr$_Myf3IRe$Nm6JWj',#6,$,$,#63,#65,$,.FINISH_START.,$);
#135=IFCRELSEQUENCE('3DyIvPJeYofsHuHapn5OC5',#6,$,$,#65,#67,$,.FINISH_START.,$);
#136=IFCRELSEQUENCE('1SobkwR8ZTr2X2o_yHJ74k',#6,$,$,#71,#73,$,.FINISH_START.,$);
#137=IFCRELSEQUENCE('0L9cumwZ6pKvaH9LB4tAB$',#6,$,$,#73,#75,$,.FINISH_START.,$);
#138=IFCRELSEQUENCE('1TDYrnzFIIEZ0G43oB4jSu',#6,$,$,#75,#77,$,.FINISH_START.,$);
#139=IFCRELSEQUENCE('0mMu1NgxOPfa5mYQTDuBjK',#6,$,$,#77,#79,$,.FINISH_START.,$);
#140=IFCLAGTIME('Lag',.PREDICTED.,$,IFCDURATION('P5D'),.WORKTIME.);
#141=IFCRELSEQUENCE('2wGG$1bmPbOxGpUX69fRm5',#6,$,$,#83,#85,#140,.START_START.,$);
#142=IFCRELSEQUENCE('3Yv60fcit9HKPN53xVmQE9',#6,$,$,#85,#87,$,.FINISH_START.,$);
#143=IFCRELSEQUENCE('1A22tj778QGt_SdSwHaf8V',#6,$,$,#87,#89,$,.FINISH_START.,$);
#144=IFCRELSEQUENCE('2bxu1mzfZXCXa4AkRaLg_7',#6,$,$,#89,#91,$,.FINISH_START.,$);
#145=IFCRELSEQUENCE('05qPJOYeTiH6jh8RGN0IRi',#6,$,$,#91,#93,$,.FINISH_START.,$);
#146=IFCRELSEQUENCE('1$gKFHVJplp6PifmktK4Wl',#6,$,$,#93,#95,$,.FINISH_START.,$);
#147=IFCRELSEQUENCE('0BKjOQULwcZwjYidzqhzuJ',#6,$,$,#99,#101,$,.FINISH_START.,$);
#148=IFCRELSEQUENCE('0uiz6W2$fYUTeO$g4D4bYj',#6,$,$,#101,#103,$,.FINISH_START.,$);
#149=IFCRELSEQUENCE('30Cc5ekh5gI6gyt9PX$Fd7',#6,$,$,#103,#105,$,.FINISH_START.,$);
#150=IFCRELSEQUENCE('0JUc4wgIztNVJigsyc9WwU',#6,$,$,#105,#107,$,.FINISH_START.,$);
#151=IFCRELSEQUENCE('3oItFxHrJSrwR8Sbj7UpEw',#6,$,$,#107,#109,$,.FINISH_START.,$);
#152=IFCRELSEQUENCE('01zoNgVYCRH_bAlJsBkLYn',#6,$,$,#113,#115,$,.FINISH_START.,$);
#153=IFCRELSEQUENCE('1t9TE_Juo_hG5Snhb1lLzW',#6,$,$,#115,#117,$,.FINISH_START.,$);
#154=IFCRELSEQUENCE('0ZpDLPmS$TaGjARhNLoV2n',#6,$,$,#117,#119,$,.FINISH_START.,$);
#155=IFCLAGTIME('Lag',.PREDICTED.,$,IFCDURATION('P11D'),.WORKTIME.);
#156=IFCRELSEQUENCE('1yC9_b7ppMLE6eLjnMtcMz',#6,$,$,#45,#57,#155,.START_START.,$);
#157=IFCLAGTIME('Lag',.PREDICTED.,$,IFCRATIOMEASURE(0.4),.WORKTIME.);
#158=IFCRELSEQUENCE('2oJufmhyy31GXijEn_6rab',#6,$,$,#57,#71,#157,.START_START.,$);
#159=IFCLAGTIME('Lag',.PREDICTED.,$,IFCDURATION('-P8D'),.WORKTIME.);
#160=IFCRELSEQUENCE('2gFCqeriIwS9MSR0WlEwbP',#6,$,$,#79,#83,#159,.FINISH_START.,$);
#161=IFCLAGTIME('Lag',.PREDICTED.,$,IFCDURATION('P2D'),.WORKTIME.);
#162=IFCRELSEQUENCE('3v7q_cZndsZOFr7F7tSgnC',#6,$,$,#79,#95,#161,.FINISH_FINISH.,$);
#163=IFCRELSEQUENCE('13gmNUJmQOqGKbAOFa4Ip0',#6,$,$,#95,#99,$,.FINISH_START.,$);
#164=IFCRELSEQUENCE('1JM4Sgq_GAaG0nFJczd7lj',#6,$,$,#109,#113,$,.FINISH_START.,$);
#165=IFCCONSTRUCTIONEQUIPMENTRESOURCE('1Ms$SoI0A5AmCpSrIPy058',#6,'Crawler crane 250 t','One crawler crane on site \X2\2014\X0\ deck demolition and beam placement share it',$,$,$,$,.USERDEFINED.);
#166=IFCCONSTRUCTIONEQUIPMENTRESOURCE('0dNKrW_O4PCtfDf1bb38$4',#6,'Piling rig',$,$,$,$,$,.USERDEFINED.);
#167=IFCSUBCONTRACTRESOURCE('05Y09GK29MBWcc7IEH8HEz',#6,'Traffic management contractor',$,$,$,$,$,.USERDEFINED.);
#168=IFCSUBCONTRACTRESOURCE('2WTCvZTqorG73BHLgiq7qc',#6,'Demolition contractor',$,$,$,$,$,.USERDEFINED.);
#169=IFCSUBCONTRACTRESOURCE('0M6E8gRg$tm0ZvOGg7hW2f',#6,'Asphalt contractor','Paving gang working inside the agreed road-closure window',$,$,$,$,.USERDEFINED.);
#170=IFCLABORRESOURCE('33ONCxwNk09$azTCpwGNJU',#6,'Concrete crew','Two gangs of four; both abutments run in parallel with a five-day stagger',$,$,$,$,.USERDEFINED.);
#171=IFCLABORRESOURCE('0N40GA6dUNKicH7Jc6zqZ8',#6,'Steel fixers','Two rebar gangs of four \X2\2014\X0\ same parallel abutments',$,$,$,$,.USERDEFINED.);
#172=IFCCONSTRUCTIONMATERIALRESOURCE('3s9CD6M_e7foQEyaNKtY61',#6,'Concrete C35/45',$,$,$,$,$,.USERDEFINED.);
#173=IFCPROPERTYSINGLEVALUE('CostPerHour',$,IFCMONETARYMEASURE(185),$);
#174=IFCPROPERTYSINGLEVALUE('Color',$,IFCTEXT('#1E293B'),$);
#175=IFCPROPERTYSET('3S8Nar2Bi3eHbeLXe32u$l',#6,'OPS_Resource',$,(#173,#174));
#176=IFCRELDEFINESBYPROPERTIES('2q$arLHGpUodxJaHPjyQDx',#6,$,$,(#165),#175);
#177=IFCPROPERTYSINGLEVALUE('CostPerHour',$,IFCMONETARYMEASURE(150),$);
#178=IFCPROPERTYSINGLEVALUE('Color',$,IFCTEXT('#B91C1C'),$);
#179=IFCPROPERTYSET('2bbrov8XmF1PxNN6NDVavN',#6,'OPS_Resource',$,(#177,#178));
#180=IFCRELDEFINESBYPROPERTIES('2mX1uTwy8YWSjZYoD9Dse5',#6,$,$,(#166),#179);
#181=IFCPROPERTYSINGLEVALUE('MaxUnits',$,IFCREAL(3),$);
#182=IFCPROPERTYSINGLEVALUE('CostPerHour',$,IFCMONETARYMEASURE(55),$);
#183=IFCPROPERTYSINGLEVALUE('Color',$,IFCTEXT('#DB2777'),$);
#184=IFCPROPERTYSET('2RoTM0jd1rEvy2Q85I0WXp',#6,'OPS_Resource',$,(#181,#182,#183));
#185=IFCRELDEFINESBYPROPERTIES('2zJz$a31n7PHTRcRE7FOWr',#6,$,$,(#167),#184);
#186=IFCPROPERTYSINGLEVALUE('MaxUnits',$,IFCREAL(4),$);
#187=IFCPROPERTYSINGLEVALUE('CostPerHour',$,IFCMONETARYMEASURE(62),$);
#188=IFCPROPERTYSINGLEVALUE('Color',$,IFCTEXT('#C2410C'),$);
#189=IFCPROPERTYSET('3eQJfW74ychDIYVP_jf79i',#6,'OPS_Resource',$,(#186,#187,#188));
#190=IFCRELDEFINESBYPROPERTIES('2wTGKzjyu4RszAgL5M5r0S',#6,$,$,(#168),#189);
#191=IFCPROPERTYSINGLEVALUE('MaxUnits',$,IFCREAL(6),$);
#192=IFCPROPERTYSINGLEVALUE('CostPerHour',$,IFCMONETARYMEASURE(70),$);
#193=IFCPROPERTYSINGLEVALUE('Color',$,IFCTEXT('#6366F1'),$);
#194=IFCPROPERTYSET('1sqXIefKDiZ4jKCMe4WcXr',#6,'OPS_Resource',$,(#191,#192,#193));
#195=IFCRELDEFINESBYPROPERTIES('2YY6jpNOFA8wwTicw5yN0S',#6,$,$,(#169),#194);
#196=IFCPROPERTYSINGLEVALUE('MaxUnits',$,IFCREAL(8),$);
#197=IFCPROPERTYSINGLEVALUE('CostPerHour',$,IFCMONETARYMEASURE(47),$);
#198=IFCPROPERTYSINGLEVALUE('Color',$,IFCTEXT('#0D9488'),$);
#199=IFCPROPERTYSET('3Rkzysy5Y91CdNA4HIXI9w',#6,'OPS_Resource',$,(#196,#197,#198));
#200=IFCRELDEFINESBYPROPERTIES('1_8gJ3WbFM4WMmiF1Y0o3e',#6,$,$,(#170),#199);
#201=IFCPROPERTYSINGLEVALUE('MaxUnits',$,IFCREAL(8),$);
#202=IFCPROPERTYSINGLEVALUE('CostPerHour',$,IFCMONETARYMEASURE(44),$);
#203=IFCPROPERTYSINGLEVALUE('Color',$,IFCTEXT('#D97706'),$);
#204=IFCPROPERTYSET('3Ea2cTRq9eTeWB3_WgUdmX',#6,'OPS_Resource',$,(#201,#202,#203));
#205=IFCRELDEFINESBYPROPERTIES('3hkjIdD3zt88qfbYNJh9j5',#6,$,$,(#171),#204);
#206=IFCPROPERTYSINGLEVALUE('MaxUnits',$,IFCREAL(999),$);
#207=IFCPROPERTYSINGLEVALUE('UnitOfMeasure',$,IFCLABEL('m\X2\00B3\X0\'),$);
#208=IFCPROPERTYSINGLEVALUE('Color',$,IFCTEXT('#A78BFA'),$);
#209=IFCPROPERTYSET('0wBUbKuLXfxeXizSgSVrLI',#6,'OPS_Resource',$,(#206,#207,#208));
#210=IFCRELDEFINESBYPROPERTIES('0WwnAkj2IQH9JAeXAG5kE_',#6,$,$,(#172),#209);
#211=IFCRELASSIGNSTOPROCESS('2apq8v1Y6YcCMfFi0J_ObN',#6,$,$,(#167),$,#45,$);
#212=IFCRELASSIGNSTOPROCESS('1EG8NgrWYugAVprOXaJTFk',#6,$,$,(#167),$,#47,$);
#213=IFCRELASSIGNSTOPROCESS('3T6qgalJ8MQ7uPTQfex9fv',#6,$,$,(#168),$,#59,$);
#214=IFCRELASSIGNSTOPROCESS('2ZsWf1J5Yq_qZuBo71IwAs',#6,$,$,(#168),$,#61,$);
#215=IFCRELASSIGNSTOPROCESS('3kvG2IpSj9WdO6xdQicgVU',#6,$,$,(#168,#165),$,#63,$);
#216=IFCRELASSIGNSTOPROCESS('1eXZEMAw8JElOi40qiGYYD',#6,$,$,(#168),$,#65,$);
#217=IFCRELASSIGNSTOPROCESS('0yxo9SwXc9D47dmp6TOdd5',#6,$,$,(#168),$,#67,$);
#218=IFCRELASSIGNSTOPROCESS('0KGOR7aXW7xrw6l_RrM3dz',#6,$,$,(#166),$,#71,$);
#219=IFCRELASSIGNSTOPROCESS('1_JtW4JIIjD0soWolcnvXu',#6,$,$,(#172),$,#73,$);
#220=IFCRELASSIGNSTOPROCESS('0l8uHEJly0XWlsscAPFD_y',#6,$,$,(#166),$,#77,$);
#221=IFCRELASSIGNSTOPROCESS('1z$yk9mGY3ADK7rV9x26IV',#6,$,$,(#171,#170,#172),$,#83,$);
#222=IFCRELASSIGNSTOPROCESS('0WuR$3m6ye28Hw7$irlR$n',#6,$,$,(#171,#170,#172),$,#85,$);
#223=IFCRELASSIGNSTOPROCESS('3_WPBNpFwPmQg_7z3yMgh2',#6,$,$,(#170,#172),$,#87,$);
#224=IFCRELASSIGNSTOPROCESS('0dKON27PEWgkZ6onAvwg5y',#6,$,$,(#165,#170),$,#89,$);
#225=IFCRELASSIGNSTOPROCESS('2gt46XHFeIYOlZZ2lQQT0B',#6,$,$,(#171),$,#91,$);
#226=IFCRELASSIGNSTOPROCESS('2FB86fx2VZ4X5KiM9kQUiu',#6,$,$,(#170,#172),$,#93,$);
#227=IFCRELASSIGNSTOPROCESS('1Wq24Hsjp$Bq5X4oZ$GCiy',#6,$,$,(#170),$,#99,$);
#228=IFCRELASSIGNSTOPROCESS('3XwnCHeHjjx5ROcMT2ow26',#6,$,$,(#169),$,#103,$);
#229=IFCRELASSIGNSTOPROCESS('2kevwBnCosWY3rMzjVPCAl',#6,$,$,(#169),$,#105,$);
#230=IFCPROPERTYSINGLEVALUE('05Y09GK29MBWcc7IEH8HEz#0',$,IFCTEXT('3|UNIFORM'),$);
#231=IFCPROPERTYSET('13d7dTgKe7WA1MBvJKZTQu',#6,'OPS_Assignments',$,(#230));
#232=IFCRELDEFINESBYPROPERTIES('3yLGj0xbBCgF36LUaVTurG',#6,$,$,(#45),#231);
#233=IFCPROPERTYSINGLEVALUE('05Y09GK29MBWcc7IEH8HEz#0',$,IFCTEXT('3|UNIFORM'),$);
#234=IFCPROPERTYSET('1x3sbiUNE2IlzSUUDQQea4',#6,'OPS_Assignments',$,(#233));
#235=IFCRELDEFINESBYPROPERTIES('2sgtZc2C3d3pz_$k5W$SoF',#6,$,$,(#47),#234);
#236=IFCPROPERTYSINGLEVALUE('2WTCvZTqorG73BHLgiq7qc#0',$,IFCTEXT('3|UNIFORM'),$);
#237=IFCPROPERTYSET('1AIziUG1hiMZNtZip9I9rg',#6,'OPS_Assignments',$,(#236));
#238=IFCRELDEFINESBYPROPERTIES('3DSnnuYqSJ_ZvfMOrPtEiB',#6,$,$,(#59),#237);
#239=IFCPROPERTYSINGLEVALUE('2WTCvZTqorG73BHLgiq7qc#0',$,IFCTEXT('2|UNIFORM'),$);
#240=IFCPROPERTYSET('0bN0kVQGpFyqpHILEl9G32',#6,'OPS_Assignments',$,(#239));
#241=IFCRELDEFINESBYPROPERTIES('2TQO6rrRjG_F45pssF3Ioo',#6,$,$,(#61),#240);
#242=IFCPROPERTYSINGLEVALUE('2WTCvZTqorG73BHLgiq7qc#0',$,IFCTEXT('4|UNIFORM'),$);
#243=IFCPROPERTYSINGLEVALUE('1Ms$SoI0A5AmCpSrIPy058#1',$,IFCTEXT('1|UNIFORM'),$);
#244=IFCPROPERTYSET('2LBAqaeukX$DjoXa0uKtlc',#6,'OPS_Assignments',$,(#242,#243));
#245=IFCRELDEFINESBYPROPERTIES('0awJwwNtjPSkAd1AdWKpuS',#6,$,$,(#63),#244);
#246=IFCPROPERTYSINGLEVALUE('2WTCvZTqorG73BHLgiq7qc#0',$,IFCTEXT('4|UNIFORM'),$);
#247=IFCPROPERTYSET('2NoZTx7XMHoob1FVP1ZbZm',#6,'OPS_Assignments',$,(#246));
#248=IFCRELDEFINESBYPROPERTIES('2LE_PJljZnEJGErqQgDcur',#6,$,$,(#65),#247);
#249=IFCPROPERTYSINGLEVALUE('2WTCvZTqorG73BHLgiq7qc#0',$,IFCTEXT('2|UNIFORM'),$);
#250=IFCPROPERTYSET('1PgtWWr02lbMVmobCax5i8',#6,'OPS_Assignments',$,(#249));
#251=IFCRELDEFINESBYPROPERTIES('1IrE5KG8DrPaaSaoJHVoYN',#6,$,$,(#67),#250);
#252=IFCPROPERTYSINGLEVALUE('0dNKrW_O4PCtfDf1bb38$4#0',$,IFCTEXT('1|UNIFORM'),$);
#253=IFCPROPERTYSET('0HLle11gcVwT$REujdSRcu',#6,'OPS_Assignments',$,(#252));
#254=IFCRELDEFINESBYPROPERTIES('1YQi1RSykM1pdcmJwEKCKp',#6,$,$,(#71),#253);
#255=IFCPROPERTYSINGLEVALUE('3s9CD6M_e7foQEyaNKtY61#0',$,IFCTEXT('60|FRONT_LOADED'),$);
#256=IFCPROPERTYSET('1jxrxTdlsgiPiTES$dhe6t',#6,'OPS_Assignments',$,(#255));
#257=IFCRELDEFINESBYPROPERTIES('1r_Kw$olj3suMYvJN2OGuF',#6,$,$,(#73),#256);
#258=IFCPROPERTYSINGLEVALUE('0dNKrW_O4PCtfDf1bb38$4#0',$,IFCTEXT('1|UNIFORM'),$);
#259=IFCPROPERTYSET('1u61yTjtDVPjgpPKmgImj7',#6,'OPS_Assignments',$,(#258));
#260=IFCRELDEFINESBYPROPERTIES('1fcLf1AAp8gUZigdxfx_I3',#6,$,$,(#77),#259);
#261=IFCPROPERTYSINGLEVALUE('0N40GA6dUNKicH7Jc6zqZ8#0',$,IFCTEXT('4|UNIFORM'),$);
#262=IFCPROPERTYSINGLEVALUE('33ONCxwNk09$azTCpwGNJU#1',$,IFCTEXT('4|UNIFORM'),$);
#263=IFCPROPERTYSINGLEVALUE('3s9CD6M_e7foQEyaNKtY61#2',$,IFCTEXT('25|UNIFORM'),$);
#264=IFCPROPERTYSET('2n8r7ANKAyj7QRqk6hzi8D',#6,'OPS_Assignments',$,(#261,#262,#263));
#265=IFCRELDEFINESBYPROPERTIES('02mRoD7NSU_YvulY3iQaIU',#6,$,$,(#83),#264);
#266=IFCPROPERTYSINGLEVALUE('0N40GA6dUNKicH7Jc6zqZ8#0',$,IFCTEXT('4|UNIFORM'),$);
#267=IFCPROPERTYSINGLEVALUE('33ONCxwNk09$azTCpwGNJU#1',$,IFCTEXT('4|UNIFORM'),$);
#268=IFCPROPERTYSINGLEVALUE('3s9CD6M_e7foQEyaNKtY61#2',$,IFCTEXT('25|UNIFORM'),$);
#269=IFCPROPERTYSET('2rYFQVyqCSdwZgL12kEYE0',#6,'OPS_Assignments',$,(#266,#267,#268));
#270=IFCRELDEFINESBYPROPERTIES('0quHpRb9dRIJin2toXKsYo',#6,$,$,(#85),#269);
#271=IFCPROPERTYSINGLEVALUE('33ONCxwNk09$azTCpwGNJU#0',$,IFCTEXT('4|UNIFORM'),$);
#272=IFCPROPERTYSINGLEVALUE('3s9CD6M_e7foQEyaNKtY61#1',$,IFCTEXT('20|FRONT_LOADED'),$);
#273=IFCPROPERTYSET('2K736u2mOTEiBedi9z3PV$',#6,'OPS_Assignments',$,(#271,#272));
#274=IFCRELDEFINESBYPROPERTIES('3KHzEHDLK5CSv9paU1qNtq',#6,$,$,(#87),#273);
#275=IFCPROPERTYSINGLEVALUE('1Ms$SoI0A5AmCpSrIPy058#0',$,IFCTEXT('1|UNIFORM'),$);
#276=IFCPROPERTYSINGLEVALUE('33ONCxwNk09$azTCpwGNJU#1',$,IFCTEXT('3|UNIFORM'),$);
#277=IFCPROPERTYSET('28T6prbAC7XJD8VaCq$Uo4',#6,'OPS_Assignments',$,(#275,#276));
#278=IFCRELDEFINESBYPROPERTIES('0hnyd0UUXxOAR605NaXDoP',#6,$,$,(#89),#277);
#279=IFCPROPERTYSINGLEVALUE('0N40GA6dUNKicH7Jc6zqZ8#0',$,IFCTEXT('5|UNIFORM'),$);
#280=IFCPROPERTYSET('1ok1tt0KT5qfEoar$orzoI',#6,'OPS_Assignments',$,(#279));
#281=IFCRELDEFINESBYPROPERTIES('14Xl91iGkGJKGY38KB3nYo',#6,$,$,(#91),#280);
#282=IFCPROPERTYSINGLEVALUE('33ONCxwNk09$azTCpwGNJU#0',$,IFCTEXT('6|UNIFORM'),$);
#283=IFCPROPERTYSINGLEVALUE('3s9CD6M_e7foQEyaNKtY61#1',$,IFCTEXT('90|FRONT_LOADED'),$);
#284=IFCPROPERTYSET('285dSSgDl9D3gFB5Ja$wzN',#6,'OPS_Assignments',$,(#282,#283));
#285=IFCRELDEFINESBYPROPERTIES('35ipgfvmgm7QCUYVWBU5tL',#6,$,$,(#93),#284);
#286=IFCPROPERTYSINGLEVALUE('33ONCxwNk09$azTCpwGNJU#0',$,IFCTEXT('2|UNIFORM'),$);
#287=IFCPROPERTYSET('3e40nsHOiXF6llPOVudmaT',#6,'OPS_Assignments',$,(#286));
#288=IFCRELDEFINESBYPROPERTIES('2pzcZkJfDomAfwp3XUTmEd',#6,$,$,(#99),#287);
#289=IFCPROPERTYSINGLEVALUE('0M6E8gRg$tm0ZvOGg7hW2f#0',$,IFCTEXT('6|UNIFORM'),$);
#290=IFCPROPERTYSET('1fPcx8GV3aC3TX7x8f5G$x',#6,'OPS_Assignments',$,(#289));
#291=IFCRELDEFINESBYPROPERTIES('2o3AmCz3x6QyVY6jMgQjdj',#6,$,$,(#103),#290);
#292=IFCPROPERTYSINGLEVALUE('0M6E8gRg$tm0ZvOGg7hW2f#0',$,IFCTEXT('4|UNIFORM'),$);
#293=IFCPROPERTYSET('00SNqRwcKu4b0qaqAPua5g',#6,'OPS_Assignments',$,(#292));
#294=IFCRELDEFINESBYPROPERTIES('1TJ2Q17dEHrd3XH7FSH$Qa',#6,$,$,(#105),#293);
#295=IFCRELASSIGNSTOCONTROL('3_zpns4RpoJ9hLrFSAexLr',#6,$,$,(#43,#45,#47,#49,#51,#53,#55,#57,#59,#61,#63,#65,#67,#69,#71,#73,#75,#77,#79,#81,#83,#85,#87,#89,#91,#93,#95,#97,#99,#101,#103,#105,#107,#109,#111,#113,#115,#117,#119),$,#40);
#296=IFCPROPERTYSINGLEVALUE('InternalProjectId',$,IFCTEXT('proj-mula811biw2c1586'),$);
#297=IFCPROPERTYSINGLEVALUE('wbsAutoNumber',$,IFCBOOLEAN(.T.),$);
#298=IFCPROPERTYSINGLEVALUE('DefaultTaskDurationUnit',$,IFCLABEL('days'),$);
#299=IFCPROPERTYSINGLEVALUE('ProjectStartDate',$,IFCDATE('2027-03-01'),$);
#300=IFCPROPERTYSINGLEVALUE('ProjectEndDate',$,$,$);
#301=IFCPROPERTYSINGLEVALUE('CreatedAt',$,IFCTEXT('2026-09-28T13:27:20.639Z'),$);
#302=IFCPROPERTYSINGLEVALUE('ModifiedAt',$,IFCTEXT('2026-09-28T13:27:20.641Z'),$);
#303=IFCPROPERTYSET('36WpplWHTAVbd2Va0WB8Jl',#6,'OPS_ProjectSettings',$,(#296,#297,#298,#299,#300,#301,#302));
#304=IFCRELDEFINESBYPROPERTIES('0x_LI5brxZWugTF624jndJ',#6,$,$,(#13),#303);
#305=IFCPROPERTYSINGLEVALUE('InternalTaskId',$,IFCTEXT('task-mula811t4f301595'),$);
#306=IFCPROPERTYSET('3_K0q44jKXdKimPDm9uwXi',#6,'OPS_TaskIdentity',$,(#305));
#307=IFCRELDEFINESBYPROPERTIES('1vaB7F8LHZeEsuMydogkwV',#6,$,$,(#43),#306);
#308=IFCPROPERTYSINGLEVALUE('InternalTaskId',$,IFCTEXT('task-mula811v9dqv1596'),$);
#309=IFCPROPERTYSET('0CJp1V8iKdvIhCWBxd4MLj',#6,'OPS_TaskIdentity',$,(#308));
#310=IFCRELDEFINESBYPROPERTIES('0kjiq9tv7luEvB7qNendHx',#6,$,$,(#45),#309);
#311=IFCPROPERTYSINGLEVALUE('InternalTaskId',$,IFCTEXT('task-mula811yopw91597'),$);
#312=IFCPROPERTYSET('3ohHB9spgtMA7SjkubjSmk',#6,'OPS_TaskIdentity',$,(#311));
#313=IFCRELDEFINESBYPROPERTIES('008xYAvQl13hJhqpnTLnqO',#6,$,$,(#47),#312);
#314=IFCPROPERTYSINGLEVALUE('InternalTaskId',$,IFCTEXT('task-mula81204cmg1598'),$);
#315=IFCPROPERTYSET('3jK_00DjNvjGthGFI1rC66',#6,'OPS_TaskIdentity',$,(#314));
#316=IFCRELDEFINESBYPROPERTIES('0REri1gH9BJHN7zp0u6wH$',#6,$,$,(#49),#315);
#317=IFCPROPERTYSINGLEVALUE('InternalTaskId',$,IFCTEXT('task-mula8122bed01599'),$);
#318=IFCPROPERTYSET('0XzGeuhyioqDe3DNXOvqSh',#6,'OPS_TaskIdentity',$,(#317));
#319=IFCRELDEFINESBYPROPERTIES('07NKtDKVcNuKYdSZsM_QtV',#6,$,$,(#51),#318);
#320=IFCPROPERTYSINGLEVALUE('InternalTaskId',$,IFCTEXT('task-mula812456cm1600'),$);
#321=IFCPROPERTYSET('0qFLzEDUSEcbRIGv0ZJuO$',#6,'OPS_TaskIdentity',$,(#320));
#322=IFCRELDEFINESBYPROPERTIES('3HM8Lvcd5zHNGgejxEVpFC',#6,$,$,(#53),#321);
#323=IFCPROPERTYSINGLEVALUE('InternalTaskId',$,IFCTEXT('task-mula8126ifpl1601'),$);
#324=IFCPROPERTYSET('1BXrM4nYWMfIfvzW9_Tm2V',#6,'OPS_TaskIdentity',$,(#323));
#325=IFCRELDEFINESBYPROPERTIES('2B$1wN7UWos1LJ0Io5LkSB',#6,$,$,(#55),#324);
#326=IFCPROPERTYSINGLEVALUE('InternalTaskId',$,IFCTEXT('task-mula8128j4c11602'),$);
#327=IFCPROPERTYSET('2kZ4q4XFAVdnCNA5HKmCwk',#6,'OPS_TaskIdentity',$,(#326));
#328=IFCRELDEFINESBYPROPERTIES('0eic8jB6dsuToXFe34jy8R',#6,$,$,(#57),#327);
#329=IFCPROPERTYSINGLEVALUE('InternalTaskId',$,IFCTEXT('task-mula812amfln1603'),$);
#330=IFCPROPERTYSET('32Za7R8fNda595kYFlNHxs',#6,'OPS_TaskIdentity',$,(#329));
#331=IFCRELDEFINESBYPROPERTIES('2efdy7mFFhNDgHxz9msAhG',#6,$,$,(#59),#330);
#332=IFCPROPERTYSINGLEVALUE('InternalTaskId',$,IFCTEXT('task-mula812dsy5g1604'),$);
#333=IFCPROPERTYSET('0uqJnKdtl3aWMUJ9j29pVU',#6,'OPS_TaskIdentity',$,(#332));
#334=IFCRELDEFINESBYPROPERTIES('2aiDdHIyjjTCl9TKY3RImU',#6,$,$,(#61),#333);
#335=IFCPROPERTYSINGLEVALUE('InternalTaskId',$,IFCTEXT('task-mula812fdr191605'),$);
#336=IFCPROPERTYSET('3s1p_DbGeRghGr7yst$oj9',#6,'OPS_TaskIdentity',$,(#335));
#337=IFCRELDEFINESBYPROPERTIES('0ZWg9iPcvIi6JoK88Ql4sT',#6,$,$,(#63),#336);
#338=IFCPROPERTYSINGLEVALUE('InternalTaskId',$,IFCTEXT('task-mula812iy1351606'),$);
#339=IFCPROPERTYSET('3mtvJOacW7hLIW07x075JG',#6,'OPS_TaskIdentity',$,(#338));
#340=IFCRELDEFINESBYPROPERTIES('0UhhLsrQqaH9fVrOtZp6MP',#6,$,$,(#65),#339);
#341=IFCPROPERTYSINGLEVALUE('InternalTaskId',$,IFCTEXT('task-mula812khfuz1607'),$);
#342=IFCPROPERTYSET('3co03SbdmuGPnfQw3keCSQ',#6,'OPS_TaskIdentity',$,(#341));
#343=IFCRELDEFINESBYPROPERTIES('1juqOEGRicQmm6xVG$62BD',#6,$,$,(#67),#342);
#344=IFCPROPERTYSINGLEVALUE('InternalTaskId',$,IFCTEXT('task-mula812mz5ho1608'),$);
#345=IFCPROPERTYSET('1IKIafJs9JvONKuB1RThiU',#6,'OPS_TaskIdentity',$,(#344));
#346=IFCRELDEFINESBYPROPERTIES('0cCxZdtGOaydgpwh_S95fw',#6,$,$,(#69),#345);
#347=IFCPROPERTYSINGLEVALUE('InternalTaskId',$,IFCTEXT('task-mula812o8d5o1609'),$);
#348=IFCPROPERTYSET('2sHHqxsOwVV$sYg9ZTN$U2',#6,'OPS_TaskIdentity',$,(#347));
#349=IFCRELDEFINESBYPROPERTIES('3YYelCqdeSqj4rLJOgOdnZ',#6,$,$,(#71),#348);
#350=IFCPROPERTYSINGLEVALUE('InternalTaskId',$,IFCTEXT('task-mula812ro2sp1610'),$);
#351=IFCPROPERTYSET('24kC0XYTAgsGnG0owGikNc',#6,'OPS_TaskIdentity',$,(#350));
#352=IFCRELDEFINESBYPROPERTIES('2l4fypFwd$WQ9qwi_2_A8k',#6,$,$,(#73),#351);
#353=IFCPROPERTYSINGLEVALUE('InternalTaskId',$,IFCTEXT('task-mula812ty82c1611'),$);
#354=IFCPROPERTYSET('3yHhPK5X4wTngwlV0K05RT',#6,'OPS_TaskIdentity',$,(#353));
#355=IFCRELDEFINESBYPROPERTIES('0de_OhSxypYRxGJDATBux2',#6,$,$,(#75),#354);
#356=IFCPROPERTYSINGLEVALUE('InternalTaskId',$,IFCTEXT('task-mula812wouvx1612'),$);
#357=IFCPROPERTYSET('2wWTe8RKDtsNUIB44VAu8D',#6,'OPS_TaskIdentity',$,(#356));
#358=IFCRELDEFINESBYPROPERTIES('0u5qVZKafgjN_rBXoKYB0p',#6,$,$,(#77),#357);
#359=IFCPROPERTYSINGLEVALUE('InternalTaskId',$,IFCTEXT('task-mula812y8o1m1613'),$);
#360=IFCPROPERTYSET('3NtcCYHavEJBD1eKyYOoG_',#6,'OPS_TaskIdentity',$,(#359));
#361=IFCRELDEFINESBYPROPERTIES('0hhJstFpDhOuSPS1TpYNXS',#6,$,$,(#79),#360);
#362=IFCPROPERTYSINGLEVALUE('InternalTaskId',$,IFCTEXT('task-mula8131urnb1614'),$);
#363=IFCPROPERTYSET('0DtH1W59ysmQQlokNHOuPE',#6,'OPS_TaskIdentity',$,(#362));
#364=IFCRELDEFINESBYPROPERTIES('0viIqHfwZU7z$Orfr4UHdr',#6,$,$,(#81),#363);
#365=IFCPROPERTYSINGLEVALUE('InternalTaskId',$,IFCTEXT('task-mula81341iro1615'),$);
#366=IFCPROPERTYSET('3CdXN4EXIPz0P$pTc50qt5',#6,'OPS_TaskIdentity',$,(#365));
#367=IFCRELDEFINESBYPROPERTIES('0aosE$JC00lQP8ulOp$31_',#6,$,$,(#83),#366);
#368=IFCPROPERTYSINGLEVALUE('InternalTaskId',$,IFCTEXT('task-mula81372f4k1616'),$);
#369=IFCPROPERTYSET('2LwZhWuOeFqF7HQLc3wchT',#6,'OPS_TaskIdentity',$,(#368));
#370=IFCRELDEFINESBYPROPERTIES('3FfZReEdhNcKLlD$T_7bff',#6,$,$,(#85),#369);
#371=IFCPROPERTYSINGLEVALUE('InternalTaskId',$,IFCTEXT('task-mula813a9n661617'),$);
#372=IFCPROPERTYSET('1iUx8iHbyqj59SCfqaphON',#6,'OPS_TaskIdentity',$,(#371));
#373=IFCRELDEFINESBYPROPERTIES('2BsW9hW18Tu6KjyLMcXb9n',#6,$,$,(#87),#372);
#374=IFCPROPERTYSINGLEVALUE('InternalTaskId',$,IFCTEXT('task-mula813d50m91618'),$);
#375=IFCPROPERTYSET('2SNN0hnQkOf6aQAm$0OjT_',#6,'OPS_TaskIdentity',$,(#374));
#376=IFCRELDEFINESBYPROPERTIES('0Bl$uqRZ3HEgDmabGnn4rm',#6,$,$,(#89),#375);
#377=IFCPROPERTYSINGLEVALUE('InternalTaskId',$,IFCTEXT('task-mula813gwlgs1619'),$);
#378=IFCPROPERTYSET('36W670HdrfKBbf8h3iK0Tm',#6,'OPS_TaskIdentity',$,(#377));
#379=IFCRELDEFINESBYPROPERTIES('00na3bGagaIG3D9fsIW01l',#6,$,$,(#91),#378);
#380=IFCPROPERTYSINGLEVALUE('InternalTaskId',$,IFCTEXT('task-mula813injuh1620'),$);
#381=IFCPROPERTYSET('39ojPtZRfnntOhpGiPcarR',#6,'OPS_TaskIdentity',$,(#380));
#382=IFCRELDEFINESBYPROPERTIES('25K4tJgjn_a2K6iN2AVBT0',#6,$,$,(#93),#381);
#383=IFCPROPERTYSINGLEVALUE('InternalTaskId',$,IFCTEXT('task-mula813l04p01621'),$);
#384=IFCPROPERTYSET('2QDze12jO_SOWFZBIQw2CY',#6,'OPS_TaskIdentity',$,(#383));
#385=IFCRELDEFINESBYPROPERTIES('1kiFGJ8L5SfLCk90xxDjbk',#6,$,$,(#95),#384);
#386=IFCPROPERTYSINGLEVALUE('InternalTaskId',$,IFCTEXT('task-mula813pqau91622'),$);
#387=IFCPROPERTYSET('3avuJ0uNyrbPuSSLMEVZoQ',#6,'OPS_TaskIdentity',$,(#386));
#388=IFCRELDEFINESBYPROPERTIES('2Gi4jDovKPaNx0WI4BtL6$',#6,$,$,(#97),#387);
#389=IFCPROPERTYSINGLEVALUE('InternalTaskId',$,IFCTEXT('task-mula813ro3ii1623'),$);
#390=IFCPROPERTYSET('1wdqNd2SXIa3JFgc8xyM6b',#6,'OPS_TaskIdentity',$,(#389));
#391=IFCRELDEFINESBYPROPERTIES('0CD5rCTteA7m8dsMYqseOg',#6,$,$,(#99),#390);
#392=IFCPROPERTYSINGLEVALUE('InternalTaskId',$,IFCTEXT('task-mula813uanxq1624'),$);
#393=IFCPROPERTYSET('2SXTkwIdzbtNp5LeIeNZo7',#6,'OPS_TaskIdentity',$,(#392));
#394=IFCRELDEFINESBYPROPERTIES('0YyyRwaUjwH4QzsNoKOk6F',#6,$,$,(#101),#393);
#395=IFCPROPERTYSINGLEVALUE('InternalTaskId',$,IFCTEXT('task-mula813xrcqs1625'),$);
#396=IFCPROPERTYSET('1iffBAjc6tZu_GnZwnmnbl',#6,'OPS_TaskIdentity',$,(#395));
#397=IFCRELDEFINESBYPROPERTIES('3apL1mX2PfKfgD42tN71Yo',#6,$,$,(#103),#396);
#398=IFCPROPERTYSINGLEVALUE('InternalTaskId',$,IFCTEXT('task-mula8140yu391626'),$);
#399=IFCPROPERTYSET('3vWLqZAp3H86XUf94_3dtn',#6,'OPS_TaskIdentity',$,(#398));
#400=IFCRELDEFINESBYPROPERTIES('3ADp4VROhn39Bg9eg6xINf',#6,$,$,(#105),#399);
#401=IFCPROPERTYSINGLEVALUE('InternalTaskId',$,IFCTEXT('task-mula8143u9tt1627'),$);
#402=IFCPROPERTYSET('3xbHVVEfN1IQ96mDKEpEU4',#6,'OPS_TaskIdentity',$,(#401));
#403=IFCRELDEFINESBYPROPERTIES('38WIk5UOGD4meqLTXeJOkz',#6,$,$,(#107),#402);
#404=IFCPROPERTYSINGLEVALUE('InternalTaskId',$,IFCTEXT('task-mula8146fs3w1628'),$);
#405=IFCPROPERTYSET('0OGRvbzZfqnwMdSYUSKI$r',#6,'OPS_TaskIdentity',$,(#404));
#406=IFCRELDEFINESBYPROPERTIES('2uGpg7sQhcY38B6YaXUN2M',#6,$,$,(#109),#405);
#407=IFCPROPERTYSINGLEVALUE('InternalTaskId',$,IFCTEXT('task-mula8149nen71629'),$);
#408=IFCPROPERTYSET('16nHMyYrt$0$jx92YrI64X',#6,'OPS_TaskIdentity',$,(#407));
#409=IFCRELDEFINESBYPROPERTIES('0Vdlh4Gt89rmEGcLU4keBk',#6,$,$,(#111),#408);
#410=IFCPROPERTYSINGLEVALUE('InternalTaskId',$,IFCTEXT('task-mula814cr6nh1630'),$);
#411=IFCPROPERTYSET('3hqH5uYs8PvI7o1zVLefFF',#6,'OPS_TaskIdentity',$,(#410));
#412=IFCRELDEFINESBYPROPERTIES('2OEp64UFWj661jszOq3zDC',#6,$,$,(#113),#411);
#413=IFCPROPERTYSINGLEVALUE('InternalTaskId',$,IFCTEXT('task-mula814f13xv1631'),$);
#414=IFCPROPERTYSET('3kObDlIcR$B4sw8PXSy7Pk',#6,'OPS_TaskIdentity',$,(#413));
#415=IFCRELDEFINESBYPROPERTIES('3Yi8ilXV_3NPdNEygy9iI6',#6,$,$,(#115),#414);
#416=IFCPROPERTYSINGLEVALUE('InternalTaskId',$,IFCTEXT('task-mula814k9qao1632'),$);
#417=IFCPROPERTYSET('2w9gQkaKp0LuO9sAQEiy_r',#6,'OPS_TaskIdentity',$,(#416));
#418=IFCRELDEFINESBYPROPERTIES('25uyuPrwc9aspJj$j10oKf',#6,$,$,(#117),#417);
#419=IFCPROPERTYSINGLEVALUE('InternalTaskId',$,IFCTEXT('task-mula814n6nk61633'),$);
#420=IFCPROPERTYSET('3gxbLHHvlcennnUralLYvQ',#6,'OPS_TaskIdentity',$,(#419));
#421=IFCRELDEFINESBYPROPERTIES('34kKr15OMvrJOmfZlSjlNw',#6,$,$,(#119),#420);
#422=IFCPROPERTYSINGLEVALUE('MilestoneKind',$,IFCLABEL('START'),$);
#423=IFCPROPERTYSET('2J51kuzEQjR65x8PQtKvC8',#6,'OPS_Milestone',$,(#422));
#424=IFCRELDEFINESBYPROPERTIES('3tSYW9CzhYoFjZs1PjjW4_',#6,$,$,(#53),#423);
ENDSEC;
END-ISO-10303-21;
