ISO-10303-21;
HEADER;
FILE_DESCRIPTION(('ViewDefinition [SchedulingView]'),'2;1');
FILE_NAME('De Linde Care Centre.ifc','2026-09-28T13:27:21',('Linda de Groot'),('Healthcare Construction Netherlands BV'),'Open Vision Studio 0.1','Open Vision Studio','');
FILE_SCHEMA(('IFC4X3'));
ENDSEC;
DATA;
#1=IFCPERSON($,'Linda de Groot',$,$,$,$,$,$);
#2=IFCORGANIZATION($,'Healthcare Construction Netherlands BV',$,$,$);
#3=IFCPERSONANDORGANIZATION(#1,#2,$);
#4=IFCORGANIZATION($,'Spanvision infra',$,$,$);
#5=IFCAPPLICATION(#4,'0.2','Open Vision Studio','OPS');
#6=IFCOWNERHISTORY(#3,#5,$,.NOCHANGE.,$,$,$,1790602041);
#7=IFCSIUNIT(*,.LENGTHUNIT.,$,.METRE.);
#8=IFCSIUNIT(*,.TIMEUNIT.,$,.SECOND.);
#9=IFCUNITASSIGNMENT((#7,#8));
#10=IFCCARTESIANPOINT((0.,0.,0.));
#11=IFCAXIS2PLACEMENT3D(#10,$,$);
#12=IFCGEOMETRICREPRESENTATIONCONTEXT($,'Plan',3,1.0E-05,#11,$);
#13=IFCPROJECT('3N6fmbk2ufdynT6xKQxhob',#6,'De Linde Care Centre','New-build care centre with 60 rooms and treatment areas',$,$,$,(#12),#9);
#14=IFCTIMEPERIOD('07:00:00','16:00:00');
#15=IFCRECURRENCEPATTERN(.WEEKLY.,$,(1,2,3,4,5),$,$,$,$,(#14));
#16=IFCWORKTIME('Standard work week',.PREDICTED.,$,#15,$,$);
#17=IFCWORKTIME('New Year''s Day',.PREDICTED.,$,$,'2027-01-01','2027-01-01');
#18=IFCWORKTIME('Good Friday',.PREDICTED.,$,$,'2027-03-26','2027-03-26');
#19=IFCWORKTIME('Easter',.PREDICTED.,$,$,'2027-03-28','2027-03-29');
#20=IFCWORKTIME('King''s Day',.PREDICTED.,$,$,'2027-04-27','2027-04-27');
#21=IFCWORKTIME('Liberation Day',.PREDICTED.,$,$,'2027-05-05','2027-05-05');
#22=IFCWORKTIME('Ascension Day',.PREDICTED.,$,$,'2027-05-06','2027-05-06');
#23=IFCWORKTIME('Whitsun',.PREDICTED.,$,$,'2027-05-16','2027-05-17');
#24=IFCWORKTIME('Christmas',.PREDICTED.,$,$,'2027-12-25','2027-12-26');
#25=IFCWORKTIME('Construction holiday (northern region)',.PREDICTED.,$,$,'2027-07-26','2027-08-15');
#26=IFCWORKTIME('New Year''s Day',.PREDICTED.,$,$,'2028-01-01','2028-01-01');
#27=IFCWORKTIME('Good Friday',.PREDICTED.,$,$,'2028-04-14','2028-04-14');
#28=IFCWORKTIME('Easter',.PREDICTED.,$,$,'2028-04-16','2028-04-17');
#29=IFCWORKTIME('King''s Day',.PREDICTED.,$,$,'2028-04-27','2028-04-27');
#30=IFCWORKTIME('Liberation Day',.PREDICTED.,$,$,'2028-05-05','2028-05-05');
#31=IFCWORKTIME('Ascension Day',.PREDICTED.,$,$,'2028-05-25','2028-05-25');
#32=IFCWORKTIME('Whitsun',.PREDICTED.,$,$,'2028-06-04','2028-06-05');
#33=IFCWORKTIME('Christmas',.PREDICTED.,$,$,'2028-12-25','2028-12-26');
#34=IFCWORKTIME('Construction holiday (northern region)',.PREDICTED.,$,$,'2028-07-24','2028-08-13');
#35=IFCWORKCALENDAR('2gxv92RttnhO6taspOjgto',#6,'Construction calendar NL','Standard construction calendar: Mon-Fri 07:00-16:00',$,(#16),(#17,#18,#19,#20,#21,#22,#23,#24,#25,#26,#27,#28,#29,#30,#31,#32,#33,#34),.FIRSTSHIFT.);
#36=IFCPROPERTYSINGLEVALUE('HoursPerDay',$,IFCREAL(8),$);
#37=IFCPROPERTYSET('0fLdcMThgZuICxPboEO6dz',#6,'OPS_Calendar',$,(#36));
#38=IFCRELDEFINESBYPROPERTIES('2pb1aW3GKNBWAPg$6XXdwE',#6,$,$,(#35),#37);
#39=IFCWORKPLAN('2X3LY1k$NgcClpEbwZv4Ae',#6,'De Linde Care Centre','New-build care centre with 60 rooms and treatment areas',$,$,'2026-09-28T13:27:21',$,$,$,$,$,'2027-03-01T07:00:00','2027-03-19T07:00:00',.PLANNED.);
#40=IFCWORKSCHEDULE('0pw65N15jJ6YH5IuBja3WU',#6,'Construction schedule v1.0',$,$,$,'2026-09-28T13:27:21',$,$,$,$,$,'2027-03-01T07:00:00','2027-03-19T07:00:00',.PLANNED.);
#41=IFCRELAGGREGATES('2qIID8S4Fwo7ZLMWWXq0ND',#6,$,$,#39,(#40));
#42=IFCTASKTIME('1. Preparation Time',.PREDICTED.,$,.WORKTIME.,'P0Y0M12D','2027-03-01T07:00:00','2027-03-05T07:00:00','2027-03-01T07:00:00','2027-03-16T07:00:00','2027-03-01T07:00:00','2028-01-18T07:00:00','P0Y0M0D','P0Y0M0D',.T.,$,$,$,$,$,0.00);
#43=IFCTASK('2KJqamRF8z3Mr6mHOyTH6S',#6,'1. Preparation',$,$,'1',$,$,$,.F.,$,#42,.CONSTRUCTION.);
#44=IFCTASKTIME('Set up site Time',.PREDICTED.,$,.WORKTIME.,'P0Y0M5D','2027-03-01T07:00:00','2027-03-05T07:00:00','2027-03-01T07:00:00','2027-03-05T07:00:00','2027-03-01T07:00:00','2027-03-05T07:00:00','P0Y0M0D','P0Y0M0D',.T.,$,$,$,$,$,0.00);
#45=IFCTASK('3ouSq5izx$GFhLX6kf7t_P',#6,'Set up site',$,$,'1.1',$,$,$,.F.,$,#44,.LOGISTIC.);
#46=IFCTASKTIME('Additional soil investigation Time',.PREDICTED.,$,.WORKTIME.,'P0Y0M3D','2027-03-01T07:00:00','2027-03-03T07:00:00','2027-03-08T07:00:00','2027-03-10T07:00:00','2028-01-10T07:00:00','2028-01-12T07:00:00','P0Y0M0D','P0Y0M199D',.F.,$,$,$,$,$,0.00);
#47=IFCTASK('0x1mDFhYqmcD7TWgqa0XYr',#6,'Additional soil investigation',$,$,'1.2',$,$,$,.F.,$,#46,.CONSTRUCTION.);
#48=IFCTASKTIME('Fell and transplant trees Time',.PREDICTED.,$,.WORKTIME.,'P0Y0M3D','2027-03-01T07:00:00','2027-03-03T07:00:00','2027-03-11T07:00:00','2027-03-15T07:00:00','2028-01-13T07:00:00','2028-01-17T07:00:00','P0Y0M0D','P0Y0M199D',.F.,$,$,$,$,$,0.00);
#49=IFCTASK('2pHjHThWWSEFdbdLdp4yFs',#6,'Fell and transplant trees',$,$,'1.3',$,$,$,.F.,$,#48,.DEMOLITION.);
#50=IFCTASKTIME('Start of construction Time',.PREDICTED.,$,.WORKTIME.,'P0Y0M0D','2027-03-01T07:00:00','2027-03-01T07:00:00','2027-03-16T07:00:00','2027-03-16T07:00:00','2028-01-18T07:00:00','2028-01-18T07:00:00','P0Y0M199D','P0Y0M199D',.F.,$,$,$,$,$,0.00);
#51=IFCTASK('3WkCrQ0lzX$QXDTskz3X3J',#6,'Start of construction',$,$,'1.4',$,$,$,.T.,$,#50,.CONSTRUCTION.);
#52=IFCTASKTIME('2. Foundations Time',.PREDICTED.,$,.WORKTIME.,'P0Y0M36D','2027-03-01T07:00:00','2027-03-05T07:00:00','2027-03-09T07:00:00','2027-04-30T07:00:00','2027-03-09T07:00:00','2028-01-18T07:00:00','P0Y0M0D','P0Y0M0D',.T.,$,$,$,$,$,0.00);
#53=IFCTASK('1EpyAL_7VNaubJOZW7lXjw',#6,'2. Foundations',$,$,'2',$,$,$,.F.,$,#52,.CONSTRUCTION.);
#54=IFCTASKTIME('Pile driving, foundation piles Time',.PREDICTED.,$,.WORKTIME.,'P0Y0M12D','2027-03-01T07:00:00','2027-03-16T07:00:00','2027-03-09T07:00:00','2027-03-24T07:00:00','2027-03-09T07:00:00','2027-03-24T07:00:00','P0Y0M0D','P0Y0M0D',.T.,$,$,$,$,$,0.00);
#55=IFCTASK('3y7A0IlPEKIT6weV7X_SDw',#6,'Pile driving, foundation piles',$,$,'2.1',$,$,$,.F.,$,#54,.CONSTRUCTION.);
#56=IFCTASKTIME('Foundation beams Time',.PREDICTED.,$,.WORKTIME.,'P0Y0M8D','2027-03-01T07:00:00','2027-03-10T07:00:00','2027-03-25T07:00:00','2027-04-07T07:00:00','2027-12-16T07:00:00','2027-12-27T07:00:00','P0Y0M0D','P0Y0M169D',.F.,$,$,$,$,$,0.00);
#57=IFCTASK('1hON2WczdSHJQY2$gG6Xs8',#6,'Foundation beams',$,$,'2.2',$,$,$,.F.,$,#56,.CONSTRUCTION.);
#58=IFCTASKTIME('Sewerage and underground pipework Time',.PREDICTED.,$,.WORKTIME.,'P0Y0M8D','2027-03-01T07:00:00','2027-03-10T07:00:00','2027-04-08T07:00:00','2027-04-19T07:00:00','2027-12-28T07:00:00','2028-01-06T07:00:00','P0Y0M0D','P0Y0M169D',.F.,$,$,$,$,$,0.00);
#59=IFCTASK('2HYi4l59yoyNvuOtEw0B8U',#6,'Sewerage and underground pipework',$,$,'2.3',$,$,$,.F.,$,#58,.INSTALLATION.);
#60=IFCTASKTIME('Pour ground floor slab Time',.PREDICTED.,$,.WORKTIME.,'P0Y0M8D','2027-03-01T07:00:00','2027-03-10T07:00:00','2027-04-20T07:00:00','2027-04-30T07:00:00','2028-01-07T07:00:00','2028-01-18T07:00:00','P0Y0M169D','P0Y0M169D',.F.,$,$,$,$,$,0.00);
#61=IFCTASK('2zB5GrPXXCkMGk4d3uRt2r',#6,'Pour ground floor slab',$,$,'2.4',$,$,$,.F.,$,#60,.CONSTRUCTION.);
#62=IFCTASKTIME('3. Structural works Time',.PREDICTED.,$,.WORKTIME.,'P0Y0M67D','2027-03-01T07:00:00','2027-03-05T07:00:00','2027-03-16T07:00:00','2027-06-24T07:00:00','2027-03-16T07:00:00','2028-01-18T07:00:00','P0Y0M0D','P0Y0M0D',.T.,$,$,$,$,$,0.00);
#63=IFCTASK('0ox9ugPYwT40BgkIGJyPNt',#6,'3. Structural works',$,$,'3',$,$,$,.F.,$,#62,.CONSTRUCTION.);
#64=IFCTASKTIME('Ground floor load-bearing structure Time',.PREDICTED.,$,.WORKTIME.,'P0Y0M12D','2027-03-01T07:00:00','2027-03-16T07:00:00','2027-03-16T07:00:00','2027-04-02T07:00:00','2027-03-16T07:00:00','2027-04-02T07:00:00','P0Y0M0D','P0Y0M0D',.T.,$,$,$,$,$,0.00);
#65=IFCTASK('0srAsOUvRqQm4cbMgaoq05',#6,'Ground floor load-bearing structure',$,$,'3.1',$,$,$,.F.,$,#64,.CONSTRUCTION.);
#66=IFCTASKTIME('Floor 1 concrete Time',.PREDICTED.,$,.WORKTIME.,'P0Y0M10D','2027-03-01T07:00:00','2027-03-12T07:00:00','2027-04-05T07:00:00','2027-04-16T07:00:00','2027-04-05T07:00:00','2027-04-16T07:00:00','P0Y0M0D','P0Y0M0D',.T.,$,$,$,$,$,0.00);
#67=IFCTASK('2dC9nEQBssrULHviV4ihxk',#6,'Floor 1 concrete',$,$,'3.2',$,$,$,.F.,$,#66,.CONSTRUCTION.);
#68=IFCTASKTIME('Floor 2 concrete Time',.PREDICTED.,$,.WORKTIME.,'P0Y0M10D','2027-03-01T07:00:00','2027-03-12T07:00:00','2027-04-19T07:00:00','2027-05-03T07:00:00','2027-04-19T07:00:00','2027-05-03T07:00:00','P0Y0M0D','P0Y0M0D',.T.,$,$,$,$,$,0.00);
#69=IFCTASK('05_q$J$sJNpF9q83W7sak0',#6,'Floor 2 concrete',$,$,'3.3',$,$,$,.F.,$,#68,.CONSTRUCTION.);
#70=IFCTASKTIME('Facade masonry Time',.PREDICTED.,$,.WORKTIME.,'P0Y0M15D','2027-03-01T07:00:00','2027-03-19T07:00:00','2027-05-04T07:00:00','2027-05-27T07:00:00','2027-05-04T07:00:00','2027-05-27T07:00:00','P0Y0M0D','P0Y0M0D',.T.,$,$,$,$,$,0.00);
#71=IFCTASK('2WPrIkIt1Vr92pQMRI8Fg_',#6,'Facade masonry',$,$,'3.4',$,$,$,.F.,$,#70,.CONSTRUCTION.);
#72=IFCTASKTIME('Internal walls, sand-lime brick Time',.PREDICTED.,$,.WORKTIME.,'P0Y0M10D','2027-03-01T07:00:00','2027-03-12T07:00:00','2027-05-28T07:00:00','2027-06-10T07:00:00','2027-05-28T07:00:00','2027-06-10T07:00:00','P0Y0M0D','P0Y0M0D',.T.,$,$,$,$,$,0.00);
#73=IFCTASK('3EL$Bc0uSGKgr0UF3VC7i0',#6,'Internal walls, sand-lime brick',$,$,'3.5',$,$,$,.F.,$,#72,.CONSTRUCTION.);
#74=IFCTASKTIME('Roof structure Time',.PREDICTED.,$,.WORKTIME.,'P0Y0M10D','2027-03-01T07:00:00','2027-03-12T07:00:00','2027-06-11T07:00:00','2027-06-24T07:00:00','2027-06-11T07:00:00','2027-06-24T07:00:00','P0Y0M0D','P0Y0M0D',.T.,$,$,$,$,$,0.00);
#75=IFCTASK('1XYQuEz5I_8McpMoj08gg$',#6,'Roof structure',$,$,'3.6',$,$,$,.F.,$,#74,.CONSTRUCTION.);
#76=IFCTASKTIME('Topping out Time',.PREDICTED.,$,.WORKTIME.,'P0Y0M0D','2027-03-01T07:00:00','2027-03-01T07:00:00','2027-06-24T07:00:00','2027-06-24T07:00:00','2028-01-18T07:00:00','2028-01-18T07:00:00','P0Y0M133D','P0Y0M133D',.F.,$,$,$,$,$,0.00);
#77=IFCTASK('2Va4i5JZWWlb2z4uwuZGhP',#6,'Topping out',$,$,'3.7',$,$,$,.T.,$,#76,.CONSTRUCTION.);
#78=IFCTASKTIME('4. Facade & roof Time',.PREDICTED.,$,.WORKTIME.,'P0Y0M35D','2027-03-01T07:00:00','2027-03-05T07:00:00','2027-06-08T07:00:00','2027-08-16T07:00:00','2027-06-08T07:00:00','2028-01-18T07:00:00','P0Y0M0D','P0Y0M0D',.T.,$,$,$,$,$,0.00);
#79=IFCTASK('3pCHSsrqHFinUN0wlFxY6v',#6,'4. Facade & roof',$,$,'4',$,$,$,.F.,$,#78,.CONSTRUCTION.);
#80=IFCTASKTIME('Facade insulation and finish Time',.PREDICTED.,$,.WORKTIME.,'P0Y0M12D','2027-03-01T07:00:00','2027-03-16T07:00:00','2027-06-08T07:00:00','2027-06-23T07:00:00','2027-06-08T07:00:00','2027-06-23T07:00:00','P0Y0M0D','P0Y0M0D',.T.,$,$,$,$,$,0.00);
#81=IFCTASK('1nQYf2rNwDU2Z5UStXxeOW',#6,'Facade insulation and finish',$,$,'4.1',$,$,$,.F.,$,#80,.INSTALLATION.);
#82=IFCTASKTIME('Window frames and screens Time',.PREDICTED.,$,.WORKTIME.,'P0Y0M10D','2027-03-01T07:00:00','2027-03-12T07:00:00','2027-06-24T07:00:00','2027-07-07T07:00:00','2027-06-24T07:00:00','2027-07-07T07:00:00','P0Y0M0D','P0Y0M0D',.T.,$,$,$,$,$,0.00);
#83=IFCTASK('3P68Uo0QsS9MLnpXtrQcVU',#6,'Window frames and screens',$,$,'4.2',$,$,$,.F.,$,#82,.INSTALLATION.);
#84=IFCTASKTIME('Roof insulation and covering Time',.PREDICTED.,$,.WORKTIME.,'P0Y0M8D','2027-03-01T07:00:00','2027-03-10T07:00:00','2027-07-08T07:00:00','2027-07-19T07:00:00','2027-07-08T07:00:00','2027-07-19T07:00:00','P0Y0M0D','P0Y0M0D',.T.,$,$,$,$,$,0.00);
#85=IFCTASK('1lYa6Wk7qJ1oL4kIHNfmU9',#6,'Roof insulation and covering',$,$,'4.3',$,$,$,.F.,$,#84,.CONSTRUCTION.);
#86=IFCTASKTIME('Roof edges and rainwater drainage Time',.PREDICTED.,$,.WORKTIME.,'P0Y0M5D','2027-03-01T07:00:00','2027-03-05T07:00:00','2027-07-20T07:00:00','2027-08-16T07:00:00','2027-07-20T07:00:00','2027-08-16T07:00:00','P0Y0M0D','P0Y0M0D',.T.,$,$,$,$,$,0.00);
#87=IFCTASK('2eoCcNDvG0ZkQGKcOHjkT8',#6,'Roof edges and rainwater drainage',$,$,'4.4',$,$,$,.F.,$,#86,.CONSTRUCTION.);
#88=IFCTASKTIME('Wind and weathertight Time',.PREDICTED.,$,.WORKTIME.,'P0Y0M0D','2027-03-01T07:00:00','2027-03-01T07:00:00','2027-08-16T07:00:00','2027-08-16T07:00:00','2028-01-18T07:00:00','2028-01-18T07:00:00','P0Y0M111D','P0Y0M111D',.F.,$,$,$,$,$,0.00);
#89=IFCTASK('2FyWmTu_jh3yjqeSZNZOSL',#6,'Wind and weathertight',$,$,'4.5',$,$,$,.T.,$,#88,.CONSTRUCTION.);
#90=IFCTASKTIME('5. Building services Time',.PREDICTED.,$,.WORKTIME.,'P0Y0M72D','2027-03-01T07:00:00','2027-03-05T07:00:00','2027-08-17T07:00:00','2027-11-24T07:00:00','2027-08-17T07:00:00','2028-01-18T07:00:00','P0Y0M0D','P0Y0M0D',.T.,$,$,$,$,$,0.00);
#91=IFCTASK('2JI$ChB2ILexTuZ_O6rNU1',#6,'5. Building services',$,$,'5',$,$,$,.F.,$,#90,.INSTALLATION.);
#92=IFCTASKTIME('Main electrical distribution Time',.PREDICTED.,$,.WORKTIME.,'P0Y0M8D','2027-03-01T07:00:00','2027-03-10T07:00:00','2027-08-17T07:00:00','2027-08-26T07:00:00','2027-08-17T07:00:00','2027-08-26T07:00:00','P0Y0M0D','P0Y0M0D',.T.,$,$,$,$,$,0.00);
#93=IFCTASK('14GMzW0wlDIWLYRZzYlnu1',#6,'Main electrical distribution',$,$,'5.1',$,$,$,.F.,$,#92,.INSTALLATION.);
#94=IFCTASKTIME('Emergency power supply Time',.PREDICTED.,$,.WORKTIME.,'P0Y0M5D','2027-03-01T07:00:00','2027-03-05T07:00:00','2027-08-27T07:00:00','2027-09-02T07:00:00','2027-10-21T07:00:00','2027-10-27T07:00:00','P0Y0M0D','P0Y0M39D',.F.,$,$,$,$,$,0.00);
#95=IFCTASK('2itJUdPDEv4R5Eo7wUCRK3',#6,'Emergency power supply',$,$,'5.2',$,$,$,.F.,$,#94,.INSTALLATION.);
#96=IFCTASKTIME('Oxygen and medical gases Time',.PREDICTED.,$,.WORKTIME.,'P0Y0M8D','2027-03-01T07:00:00','2027-03-10T07:00:00','2027-09-03T07:00:00','2027-09-14T07:00:00','2027-10-28T07:00:00','2027-11-08T07:00:00','P0Y0M0D','P0Y0M39D',.F.,$,$,$,$,$,0.00);
#97=IFCTASK('1TvooKYk3WTHQp3IXjlkra',#6,'Oxygen and medical gases',$,$,'5.3',$,$,$,.F.,$,#96,.INSTALLATION.);
#98=IFCTASKTIME('Heating and cooling Time',.PREDICTED.,$,.WORKTIME.,'P0Y0M10D','2027-03-01T07:00:00','2027-03-12T07:00:00','2027-09-08T07:00:00','2027-09-21T07:00:00','2027-11-02T07:00:00','2027-11-15T07:00:00','P0Y0M0D','P0Y0M39D',.F.,$,$,$,$,$,0.00);
#99=IFCTASK('3Rw$WggWiO7KVVlX6hEqhk',#6,'Heating and cooling',$,$,'5.4',$,$,$,.F.,$,#98,.INSTALLATION.);
#100=IFCTASKTIME('Ventilation with HEPA filters Time',.PREDICTED.,$,.WORKTIME.,'P0Y0M10D','2027-03-01T07:00:00','2027-03-12T07:00:00','2027-09-22T07:00:00','2027-10-05T07:00:00','2027-11-16T07:00:00','2027-11-29T07:00:00','P0Y0M0D','P0Y0M39D',.F.,$,$,$,$,$,0.00);
#101=IFCTASK('2bHAjnOy8CHQ7sIwHvj$hM',#6,'Ventilation with HEPA filters',$,$,'5.5',$,$,$,.F.,$,#100,.INSTALLATION.);
#102=IFCTASKTIME('Sprinkler and fire alarm Time',.PREDICTED.,$,.WORKTIME.,'P0Y0M8D','2027-03-01T07:00:00','2027-03-10T07:00:00','2027-10-06T07:00:00','2027-10-15T07:00:00','2027-11-30T07:00:00','2027-12-09T07:00:00','P0Y0M0D','P0Y0M39D',.F.,$,$,$,$,$,0.00);
#103=IFCTASK('0$lG7H7cbWTy2hwyRAMHLt',#6,'Sprinkler and fire alarm',$,$,'5.6',$,$,$,.F.,$,#102,.INSTALLATION.);
#104=IFCTASKTIME('Lift installation Time',.PREDICTED.,$,.WORKTIME.,'P0Y0M15D','2027-03-01T07:00:00','2027-03-19T07:00:00','2027-10-18T07:00:00','2027-11-05T07:00:00','2027-12-10T07:00:00','2027-12-30T07:00:00','P0Y0M0D','P0Y0M39D',.F.,$,$,$,$,$,0.00);
#105=IFCTASK('3Vj_dj5S6vJ7THlAjO8THZ',#6,'Lift installation',$,$,'5.7',$,$,$,.F.,$,#104,.INSTALLATION.);
#106=IFCTASKTIME('Nurse call system Time',.PREDICTED.,$,.WORKTIME.,'P0Y0M5D','2027-03-01T07:00:00','2027-03-05T07:00:00','2027-11-08T07:00:00','2027-11-12T07:00:00','2027-12-31T07:00:00','2028-01-06T07:00:00','P0Y0M0D','P0Y0M39D',.F.,$,$,$,$,$,0.00);
#107=IFCTASK('3xdG5YXB1qv_X_rBIwrZ9n',#6,'Nurse call system',$,$,'5.8',$,$,$,.F.,$,#106,.INSTALLATION.);
#108=IFCTASKTIME('ICT cabling Time',.PREDICTED.,$,.WORKTIME.,'P0Y0M8D','2027-03-01T07:00:00','2027-03-10T07:00:00','2027-11-15T07:00:00','2027-11-24T07:00:00','2028-01-07T07:00:00','2028-01-18T07:00:00','P0Y0M39D','P0Y0M39D',.F.,$,$,$,$,$,0.00);
#109=IFCTASK('1vA$7PuFUoCgyWTerU3TZA',#6,'ICT cabling',$,$,'5.9',$,$,$,.F.,$,#108,.INSTALLATION.);
#110=IFCTASKTIME('6. Fit-out Time',.PREDICTED.,$,.WORKTIME.,'P0Y0M54D','2027-03-01T07:00:00','2027-03-05T07:00:00','2027-10-11T07:00:00','2027-12-23T07:00:00','2027-10-11T07:00:00','2027-12-23T07:00:00','P0Y0M0D','P0Y0M0D',.T.,$,$,$,$,$,0.00);
#111=IFCTASK('0iaJCaeZZqSJweb9SrwiGl',#6,'6. Fit-out',$,$,'6',$,$,$,.F.,$,#110,.CONSTRUCTION.);
#112=IFCTASKTIME('Partition walls Time',.PREDICTED.,$,.WORKTIME.,'P0Y0M8D','2027-03-01T07:00:00','2027-03-10T07:00:00','2027-10-11T07:00:00','2027-10-20T07:00:00','2027-10-11T07:00:00','2027-10-20T07:00:00','P0Y0M0D','P0Y0M0D',.T.,$,$,$,$,$,0.00);
#113=IFCTASK('0gS0sxrWnsH7ifWxzN0zH5',#6,'Partition walls',$,$,'6.1',$,$,$,.F.,$,#112,.CONSTRUCTION.);
#114=IFCTASKTIME('Finish ceilings and walls Time',.PREDICTED.,$,.WORKTIME.,'P0Y0M10D','2027-03-01T07:00:00','2027-03-12T07:00:00','2027-10-21T07:00:00','2027-11-03T07:00:00','2027-10-21T07:00:00','2027-11-03T07:00:00','P0Y0M0D','P0Y0M0D',.T.,$,$,$,$,$,0.00);
#115=IFCTASK('1QpyZ7B7MdeNbnir6zy_qv',#6,'Finish ceilings and walls',$,$,'6.2',$,$,$,.F.,$,#114,.CONSTRUCTION.);
#116=IFCTASKTIME('Tiling, wet rooms Time',.PREDICTED.,$,.WORKTIME.,'P0Y0M8D','2027-03-01T07:00:00','2027-03-10T07:00:00','2027-11-04T07:00:00','2027-11-15T07:00:00','2027-11-04T07:00:00','2027-11-15T07:00:00','P0Y0M0D','P0Y0M0D',.T.,$,$,$,$,$,0.00);
#117=IFCTASK('1no6CpyfS$_JKI3o1d_3rS',#6,'Tiling, wet rooms',$,$,'6.3',$,$,$,.F.,$,#116,.CONSTRUCTION.);
#118=IFCTASKTIME('Screeds and floor finishes Time',.PREDICTED.,$,.WORKTIME.,'P0Y0M8D','2027-03-01T07:00:00','2027-03-10T07:00:00','2027-11-16T07:00:00','2027-11-25T07:00:00','2027-11-16T07:00:00','2027-11-25T07:00:00','P0Y0M0D','P0Y0M0D',.T.,$,$,$,$,$,0.00);
#119=IFCTASK('1oAVqzkLmE1QIT8Vgs$V9N',#6,'Screeds and floor finishes',$,$,'6.4',$,$,$,.F.,$,#118,.CONSTRUCTION.);
#120=IFCTASKTIME('Painting Time',.PREDICTED.,$,.WORKTIME.,'P0Y0M10D','2027-03-01T07:00:00','2027-03-12T07:00:00','2027-11-26T07:00:00','2027-12-09T07:00:00','2027-11-26T07:00:00','2027-12-09T07:00:00','P0Y0M0D','P0Y0M0D',.T.,$,$,$,$,$,0.00);
#121=IFCTASK('3bDunUd$UxP_30E8lUL28g',#6,'Painting',$,$,'6.5',$,$,$,.F.,$,#120,.CONSTRUCTION.);
#122=IFCTASKTIME('Kitchens and pantry Time',.PREDICTED.,$,.WORKTIME.,'P0Y0M5D','2027-03-01T07:00:00','2027-03-05T07:00:00','2027-12-10T07:00:00','2027-12-16T07:00:00','2027-12-10T07:00:00','2027-12-16T07:00:00','P0Y0M0D','P0Y0M0D',.T.,$,$,$,$,$,0.00);
#123=IFCTASK('3zAnEdmpMTU89WpdEkqge4',#6,'Kitchens and pantry',$,$,'6.6',$,$,$,.F.,$,#122,.INSTALLATION.);
#124=IFCTASKTIME('Install sanitary fittings Time',.PREDICTED.,$,.WORKTIME.,'P0Y0M5D','2027-03-01T07:00:00','2027-03-05T07:00:00','2027-12-17T07:00:00','2027-12-23T07:00:00','2027-12-17T07:00:00','2027-12-23T07:00:00','P0Y0M0D','P0Y0M0D',.T.,$,$,$,$,$,0.00);
#125=IFCTASK('2X_0E53KaNa1a_5zG9QBCN',#6,'Install sanitary fittings',$,$,'6.7',$,$,$,.F.,$,#124,.INSTALLATION.);
#126=IFCTASKTIME('7. Handover Time',.PREDICTED.,$,.WORKTIME.,'P0Y0M18D','2027-03-01T07:00:00','2027-03-05T07:00:00','2027-12-24T07:00:00','2028-01-18T07:00:00','2027-12-24T07:00:00','2028-01-18T07:00:00','P0Y0M0D','P0Y0M0D',.T.,$,$,$,$,$,0.00);
#127=IFCTASK('1pIvpl4N_FSLuwYU7T2ipc',#6,'7. Handover',$,$,'7',$,$,$,.F.,$,#126,.CONSTRUCTION.);
#128=IFCTASKTIME('Construct external areas Time',.PREDICTED.,$,.WORKTIME.,'P0Y0M8D','2027-03-01T07:00:00','2027-03-10T07:00:00','2027-12-24T07:00:00','2028-01-04T07:00:00','2027-12-24T07:00:00','2028-01-04T07:00:00','P0Y0M0D','P0Y0M0D',.T.,$,$,$,$,$,0.00);
#129=IFCTASK('23DuyYNQzK5fpqXygSuxg5',#6,'Construct external areas',$,$,'7.1',$,$,$,.F.,$,#128,.CONSTRUCTION.);
#130=IFCTASKTIME('Room furnishing Time',.PREDICTED.,$,.WORKTIME.,'P0Y0M5D','2027-03-01T07:00:00','2027-03-05T07:00:00','2028-01-05T07:00:00','2028-01-11T07:00:00','2028-01-05T07:00:00','2028-01-11T07:00:00','P0Y0M0D','P0Y0M0D',.T.,$,$,$,$,$,0.00);
#131=IFCTASK('1IPWsmdkWeCfllqOMImeiD',#6,'Room furnishing',$,$,'7.2',$,$,$,.F.,$,#130,.LOGISTIC.);
#132=IFCTASKTIME('Test building services Time',.PREDICTED.,$,.WORKTIME.,'P0Y0M5D','2027-03-01T07:00:00','2027-03-05T07:00:00','2028-01-12T07:00:00','2028-01-18T07:00:00','2028-01-12T07:00:00','2028-01-18T07:00:00','P0Y0M0D','P0Y0M0D',.T.,$,$,$,$,$,0.00);
#133=IFCTASK('2$L2J3BzpYzGhT3qpiizP3',#6,'Test building services',$,$,'7.3',$,$,$,.F.,$,#132,.ATTENDANCE.);
#134=IFCTASKTIME('Handover Time',.PREDICTED.,$,.WORKTIME.,'P0Y0M0D','2027-03-01T07:00:00','2027-03-01T07:00:00','2028-01-18T07:00:00','2028-01-18T07:00:00','2028-01-18T07:00:00','2028-01-18T07:00:00','P0Y0M0D','P0Y0M0D',.T.,$,$,$,$,$,0.00);
#135=IFCTASK('1bUiElfsGii2wTEWGUXFLN',#6,'Handover',$,$,'7.4',$,$,$,.T.,$,#134,.CONSTRUCTION.);
#136=IFCRELNESTS('3_krynWwlLcIFwS9xFy_3f',#6,'WBS 1. Preparation',$,#43,( #45,#47,#49,#51));
#137=IFCRELNESTS('1XE9zr2yF3obZuDdQUJ55C',#6,'WBS 2. Foundations',$,#53,( #55,#57,#59,#61));
#138=IFCRELNESTS('3h9gV_b6buo2$GXtvtz9Yl',#6,'WBS 3. Structural works',$,#63,( #65,#67,#69,#71,#73,#75,#77));
#139=IFCRELNESTS('2iIPr9hVHVtXji3cBUtyBH',#6,'WBS 4. Facade & roof',$,#79,( #81,#83,#85,#87,#89));
#140=IFCRELNESTS('3pK5NymnhyMJ77u$w1pGP2',#6,'WBS 5. Building services',$,#91,( #93,#95,#97,#99,#101,#103,#105,#107,#109));
#141=IFCRELNESTS('1lmIjraBARWOSSz5wBK2wT',#6,'WBS 6. Fit-out',$,#111,( #113,#115,#117,#119,#121,#123,#125));
#142=IFCRELNESTS('05B0lRy5LWy95xyDlAfyID',#6,'WBS 7. Handover',$,#127,( #129,#131,#133,#135));
#143=IFCRELNESTS('3HIKMwilBcT9PxgPtYMhhL',#6,'WBS Hoofd',$,#40,(#43,#53,#63,#79,#91,#111,#127));
#144=IFCRELSEQUENCE('3QaYSyZFP4LIE_2MSX1SB$',#6,$,$,#45,#47,$,.FINISH_START.,$);
#145=IFCRELSEQUENCE('0oLQdu08z7DE1oMu02y41h',#6,$,$,#47,#49,$,.FINISH_START.,$);
#146=IFCRELSEQUENCE('0eSpiMRStdKdzq3s75CEIQ',#6,$,$,#49,#51,$,.FINISH_START.,$);
#147=IFCRELSEQUENCE('0laNOmq$rSbOQ_BPx6mmRc',#6,$,$,#55,#57,$,.FINISH_START.,$);
#148=IFCRELSEQUENCE('1yA$Aob1Qd01$KgCgNYfmz',#6,$,$,#57,#59,$,.FINISH_START.,$);
#149=IFCRELSEQUENCE('1SzHh6po4hl_2l9gS3aHnz',#6,$,$,#59,#61,$,.FINISH_START.,$);
#150=IFCRELSEQUENCE('1xtQtRmWdHj8$0fbOchhml',#6,$,$,#65,#67,$,.FINISH_START.,$);
#151=IFCRELSEQUENCE('3KBqZfH9pdC47eoWlEohSO',#6,$,$,#67,#69,$,.FINISH_START.,$);
#152=IFCRELSEQUENCE('1UtCNccQCFUHkaVEQzaa_E',#6,$,$,#69,#71,$,.FINISH_START.,$);
#153=IFCRELSEQUENCE('0fBSntTaAd055FDc6ke3xd',#6,$,$,#71,#73,$,.FINISH_START.,$);
#154=IFCRELSEQUENCE('0Bu3N5IoHuiHzgC_LjKR_Z',#6,$,$,#73,#75,$,.FINISH_START.,$);
#155=IFCRELSEQUENCE('23gqBp7$bsUOUPWsjeEU$T',#6,$,$,#75,#77,$,.FINISH_START.,$);
#156=IFCRELSEQUENCE('367n9bS4xsIVhIGG0rnaG6',#6,$,$,#81,#83,$,.FINISH_START.,$);
#157=IFCRELSEQUENCE('2_VrhU4UULzg2ZGfPbYiFp',#6,$,$,#83,#85,$,.FINISH_START.,$);
#158=IFCRELSEQUENCE('0cRsUJi9dlTmYqLAnaEJ$H',#6,$,$,#85,#87,$,.FINISH_START.,$);
#159=IFCRELSEQUENCE('0o1arDtZMEVdNVd_xKM1cL',#6,$,$,#87,#89,$,.FINISH_START.,$);
#160=IFCRELSEQUENCE('1oQQEX5jdScv2bqWiC10WO',#6,$,$,#93,#95,$,.FINISH_START.,$);
#161=IFCRELSEQUENCE('0uWa_OzY2Oy57AtoBvBsiF',#6,$,$,#95,#97,$,.FINISH_START.,$);
#162=IFCLAGTIME('Lag',.PREDICTED.,$,IFCDURATION('P3D'),.WORKTIME.);
#163=IFCRELSEQUENCE('3l2c$0$DlrTKqRIVIZ8Aiw',#6,$,$,#97,#99,#162,.START_START.,$);
#164=IFCRELSEQUENCE('0qxb60lDVHZ242rgio2k36',#6,$,$,#99,#101,$,.FINISH_START.,$);
#165=IFCRELSEQUENCE('3N3g7j9qMdvmDmGDS2wpVq',#6,$,$,#101,#103,$,.FINISH_START.,$);
#166=IFCRELSEQUENCE('2PkoDdi$IWbvi0Bgq9ryIg',#6,$,$,#103,#105,$,.FINISH_START.,$);
#167=IFCRELSEQUENCE('3JJbLIyqBbJUe2HzKSZ1m6',#6,$,$,#105,#107,$,.FINISH_START.,$);
#168=IFCRELSEQUENCE('0W12LDXdBc6BZWVJqNKcEG',#6,$,$,#107,#109,$,.FINISH_START.,$);
#169=IFCRELSEQUENCE('0_nsodgRfQtyT4DWsX$aIE',#6,$,$,#113,#115,$,.FINISH_START.,$);
#170=IFCRELSEQUENCE('1mJgdufmTxKvGJGuPIqa4M',#6,$,$,#115,#117,$,.FINISH_START.,$);
#171=IFCRELSEQUENCE('2w7ZuLuABIQSpoG5NZ5QPU',#6,$,$,#117,#119,$,.FINISH_START.,$);
#172=IFCRELSEQUENCE('0ghyPEhTnbY5oESCIibFwz',#6,$,$,#119,#121,$,.FINISH_START.,$);
#173=IFCRELSEQUENCE('0AvmblbWCeBA0lRxVU2Qjw',#6,$,$,#121,#123,$,.FINISH_START.,$);
#174=IFCRELSEQUENCE('0LCRa_WaKiOQjIwY$2hu0E',#6,$,$,#123,#125,$,.FINISH_START.,$);
#175=IFCRELSEQUENCE('3$RHoGsGVJ$7X4eC$L19et',#6,$,$,#129,#131,$,.FINISH_START.,$);
#176=IFCRELSEQUENCE('06_kr58MkStX0o0AsMZk7s',#6,$,$,#131,#133,$,.FINISH_START.,$);
#177=IFCRELSEQUENCE('08DQqVyDXnDQ0W5o42WJiE',#6,$,$,#133,#135,$,.FINISH_START.,$);
#178=IFCLAGTIME('Lag',.PREDICTED.,$,IFCDURATION('P6D'),.WORKTIME.);
#179=IFCRELSEQUENCE('17c1x8aqYOabQKujuc2Ud$',#6,$,$,#45,#55,#178,.START_START.,$);
#180=IFCLAGTIME('Lag',.PREDICTED.,$,IFCRATIOMEASURE(0.4),.WORKTIME.);
#181=IFCRELSEQUENCE('3_gi1QVdYHII0Bm7XhULRH',#6,$,$,#55,#65,#180,.START_START.,$);
#182=IFCLAGTIME('Lag',.PREDICTED.,$,IFCDURATION('-P13D'),.WORKTIME.);
#183=IFCRELSEQUENCE('0iiGqM3MhnCFJAsdJ8gPRA',#6,$,$,#75,#81,#182,.FINISH_START.,$);
#184=IFCLAGTIME('Lag',.PREDICTED.,$,IFCDURATION('P2D'),.WORKTIME.);
#185=IFCRELSEQUENCE('1Q5Eq776T4HndymeHa5ykH',#6,$,$,#75,#87,#184,.FINISH_FINISH.,$);
#186=IFCRELSEQUENCE('2tKu7cErV$DF6ez83pSzqu',#6,$,$,#87,#93,$,.FINISH_START.,$);
#187=IFCLAGTIME('Lag',.PREDICTED.,$,IFCDURATION('P39D'),.WORKTIME.);
#188=IFCRELSEQUENCE('1GomHdgnotEOHSvcVAO7Ns',#6,$,$,#93,#113,#187,.START_START.,$);
#189=IFCRELSEQUENCE('2StzqZwDgA$NpzIG_rUuLD',#6,$,$,#125,#129,$,.FINISH_START.,$);
#190=IFCSUBCONTRACTRESOURCE('1RFIySYMJuWzy1a0AD4sz1',#6,'Civils and landscaping contractor','Site set-up, tree work, the underground pipework and the external areas at handover',$,$,$,$,.USERDEFINED.);
#191=IFCSUBCONTRACTRESOURCE('0iGCV$oex__zx_9YvFKO7X',#6,'Piling contractor',$,$,$,$,$,.USERDEFINED.);
#192=IFCLABORRESOURCE('3S6wV$f3_ooCSmFFZCy8CO',#6,'Structural works crew','Concrete gangs for foundations and superstructure; the two phases overlap',$,$,$,$,.USERDEFINED.);
#193=IFCLABORRESOURCE('204MvsQlNwdwH7PduuokGO',#6,'Bricklayers','Facade masonry and the sand-lime brick internal walls, one gang moving through the building',$,$,$,$,.USERDEFINED.);
#194=IFCCONSTRUCTIONEQUIPMENTRESOURCE('082J7iY37mVpQoW3ILcoAL',#6,'Mobile crane','One mobile crane for the floors, the masonry supply and the roof structure',$,$,$,$,.USERDEFINED.);
#195=IFCCONSTRUCTIONMATERIALRESOURCE('2RFfb9SeDsuSS$uonKB7G$',#6,'Concrete C30/37',$,$,$,$,$,.USERDEFINED.);
#196=IFCSUBCONTRACTRESOURCE('3FXYe02kDlQlgskS5zLNzZ',#6,'Facade contractor','Facade insulation and finish, window frames and sun screens',$,$,$,$,.USERDEFINED.);
#197=IFCSUBCONTRACTRESOURCE('0QNlpYsBceG4SdtaoUPP4g',#6,'Roofing contractor',$,$,$,$,$,.USERDEFINED.);
#198=IFCLABORRESOURCE('0j6kUYsZ9Mt2XbwPoDT0Do',#6,'Electricians','Distribution, emergency power, nurse call and the data cabling',$,$,$,$,.USERDEFINED.);
#199=IFCLABORRESOURCE('1JBkVN2YFsEJj79DwNh$fJ',#6,'Mechanical fitters',$,$,$,$,$,.USERDEFINED.);
#200=IFCSUBCONTRACTRESOURCE('3ckM5J1GdSjOqSGa_CPypg',#6,'Medical gas contractor','Certified installer for oxygen and medical gases \X2\2014\X0\ a care-specific package',$,$,$,$,.USERDEFINED.);
#201=IFCSUBCONTRACTRESOURCE('1Fxynf$fkkWu6VS7fqGS3B',#6,'Lift contractor',$,$,$,$,$,.USERDEFINED.);
#202=IFCLABORRESOURCE('0ZDqzPeQiIJxJD2UHREPWA',#6,'Fit-out crew','Partitions, ceilings, screeds, pantries and finally the room furnishing',$,$,$,$,.USERDEFINED.);
#203=IFCLABORRESOURCE('0J2baTFqG2ZSti9f4ZVx$J',#6,'Tilers',$,$,$,$,$,.USERDEFINED.);
#204=IFCLABORRESOURCE('34NCvm6kJxZqVPlFlOiNxG',#6,'Painters',$,$,$,$,$,.USERDEFINED.);
#205=IFCLABORRESOURCE('0TnmLRVrMICCuF4NUzoI8n',#6,'Commissioning engineer','Balances and tests the services with the care provider before handover',$,$,$,$,.USERDEFINED.);
#206=IFCPROPERTYSINGLEVALUE('MaxUnits',$,IFCREAL(5),$);
#207=IFCPROPERTYSINGLEVALUE('CostPerHour',$,IFCMONETARYMEASURE(56),$);
#208=IFCPROPERTYSINGLEVALUE('Color',$,IFCTEXT('#1E293B'),$);
#209=IFCPROPERTYSET('1ZY0tqd_a8yZ6H8eTH6fU0',#6,'OPS_Resource',$,(#206,#207,#208));
#210=IFCRELDEFINESBYPROPERTIES('1RzsFwd$IAhdzc5vonbGlm',#6,$,$,(#190),#209);
#211=IFCPROPERTYSINGLEVALUE('MaxUnits',$,IFCREAL(4),$);
#212=IFCPROPERTYSINGLEVALUE('CostPerHour',$,IFCMONETARYMEASURE(78),$);
#213=IFCPROPERTYSINGLEVALUE('Color',$,IFCTEXT('#B91C1C'),$);
#214=IFCPROPERTYSET('2FKkIz_oq2XOLNSGhwETgQ',#6,'OPS_Resource',$,(#211,#212,#213));
#215=IFCRELDEFINESBYPROPERTIES('0tmG8gy26d4Kdfq5W00WRp',#6,$,$,(#191),#214);
#216=IFCPROPERTYSINGLEVALUE('MaxUnits',$,IFCREAL(12),$);
#217=IFCPROPERTYSINGLEVALUE('CostPerHour',$,IFCMONETARYMEASURE(46),$);
#218=IFCPROPERTYSINGLEVALUE('Color',$,IFCTEXT('#DB2777'),$);
#219=IFCPROPERTYSET('26QDT5NGWqAUuh9NdsuNHS',#6,'OPS_Resource',$,(#216,#217,#218));
#220=IFCRELDEFINESBYPROPERTIES('3AbVof04deLEdy0CwniwuF',#6,$,$,(#192),#219);
#221=IFCPROPERTYSINGLEVALUE('MaxUnits',$,IFCREAL(6),$);
#222=IFCPROPERTYSINGLEVALUE('CostPerHour',$,IFCMONETARYMEASURE(46),$);
#223=IFCPROPERTYSINGLEVALUE('Color',$,IFCTEXT('#C2410C'),$);
#224=IFCPROPERTYSET('3COYzk5S9KtByw3YtIGbVA',#6,'OPS_Resource',$,(#221,#222,#223));
#225=IFCRELDEFINESBYPROPERTIES('1Gp5n3jbhOzPTX1zBvkAB6',#6,$,$,(#193),#224);
#226=IFCPROPERTYSINGLEVALUE('CostPerHour',$,IFCMONETARYMEASURE(95),$);
#227=IFCPROPERTYSINGLEVALUE('Color',$,IFCTEXT('#6366F1'),$);
#228=IFCPROPERTYSET('1OyqFJByM9SKr13o3dwgEl',#6,'OPS_Resource',$,(#226,#227));
#229=IFCRELDEFINESBYPROPERTIES('1noX$SnLOb3Wrq02NSsfBm',#6,$,$,(#194),#228);
#230=IFCPROPERTYSINGLEVALUE('MaxUnits',$,IFCREAL(999),$);
#231=IFCPROPERTYSINGLEVALUE('UnitOfMeasure',$,IFCLABEL('m\X2\00B3\X0\'),$);
#232=IFCPROPERTYSINGLEVALUE('Color',$,IFCTEXT('#0D9488'),$);
#233=IFCPROPERTYSET('2cfiGpQ2m3XQFxxU0J$PgW',#6,'OPS_Resource',$,(#230,#231,#232));
#234=IFCRELDEFINESBYPROPERTIES('1I$nKHTMxQIcMbviaj1ruU',#6,$,$,(#195),#233);
#235=IFCPROPERTYSINGLEVALUE('MaxUnits',$,IFCREAL(6),$);
#236=IFCPROPERTYSINGLEVALUE('CostPerHour',$,IFCMONETARYMEASURE(68),$);
#237=IFCPROPERTYSINGLEVALUE('Color',$,IFCTEXT('#D97706'),$);
#238=IFCPROPERTYSET('0Mn5Sos8$HSQWmak6ZWgNV',#6,'OPS_Resource',$,(#235,#236,#237));
#239=IFCRELDEFINESBYPROPERTIES('2rSUzSL8Y$e5uxoxgp9p0p',#6,$,$,(#196),#238);
#240=IFCPROPERTYSINGLEVALUE('MaxUnits',$,IFCREAL(4),$);
#241=IFCPROPERTYSINGLEVALUE('CostPerHour',$,IFCMONETARYMEASURE(66),$);
#242=IFCPROPERTYSINGLEVALUE('Color',$,IFCTEXT('#A78BFA'),$);
#243=IFCPROPERTYSET('3ycbHbg1KPmhREmcXr36xM',#6,'OPS_Resource',$,(#240,#241,#242));
#244=IFCRELDEFINESBYPROPERTIES('3UY$Jrml6PpOLtzXWZ0qEa',#6,$,$,(#197),#243);
#245=IFCPROPERTYSINGLEVALUE('MaxUnits',$,IFCREAL(4),$);
#246=IFCPROPERTYSINGLEVALUE('CostPerHour',$,IFCMONETARYMEASURE(49),$);
#247=IFCPROPERTYSINGLEVALUE('Color',$,IFCTEXT('#38BDF8'),$);
#248=IFCPROPERTYSET('0KoUsx8Bil9llm3wZjGiYL',#6,'OPS_Resource',$,(#245,#246,#247));
#249=IFCRELDEFINESBYPROPERTIES('0LessFyNpA$7M3DWkI8kpK',#6,$,$,(#198),#248);
#250=IFCPROPERTYSINGLEVALUE('MaxUnits',$,IFCREAL(6),$);
#251=IFCPROPERTYSINGLEVALUE('CostPerHour',$,IFCMONETARYMEASURE(48),$);
#252=IFCPROPERTYSINGLEVALUE('Color',$,IFCTEXT('#4ADE80'),$);
#253=IFCPROPERTYSET('3sXXmM$aN2ooPek4auJxJj',#6,'OPS_Resource',$,(#250,#251,#252));
#254=IFCRELDEFINESBYPROPERTIES('0ul4v0zDp8JwFVXPvWVR5B',#6,$,$,(#199),#253);
#255=IFCPROPERTYSINGLEVALUE('MaxUnits',$,IFCREAL(3),$);
#256=IFCPROPERTYSINGLEVALUE('CostPerHour',$,IFCMONETARYMEASURE(88),$);
#257=IFCPROPERTYSINGLEVALUE('Color',$,IFCTEXT('#FBBF24'),$);
#258=IFCPROPERTYSET('1mA0GluaoPzKLFVeIkwQNH',#6,'OPS_Resource',$,(#255,#256,#257));
#259=IFCRELDEFINESBYPROPERTIES('2$yzuzz0q5pyfOuLAxZxDe',#6,$,$,(#200),#258);
#260=IFCPROPERTYSINGLEVALUE('MaxUnits',$,IFCREAL(3),$);
#261=IFCPROPERTYSINGLEVALUE('CostPerHour',$,IFCMONETARYMEASURE(82),$);
#262=IFCPROPERTYSINGLEVALUE('Color',$,IFCTEXT('#BEF264'),$);
#263=IFCPROPERTYSET('1Sm$zT2avqJjPfHLjwCzOJ',#6,'OPS_Resource',$,(#260,#261,#262));
#264=IFCRELDEFINESBYPROPERTIES('0aNuMNinwaksow_DADPIzl',#6,$,$,(#201),#263);
#265=IFCPROPERTYSINGLEVALUE('MaxUnits',$,IFCREAL(6),$);
#266=IFCPROPERTYSINGLEVALUE('CostPerHour',$,IFCMONETARYMEASURE(44),$);
#267=IFCPROPERTYSINGLEVALUE('Color',$,IFCTEXT('#1E293B'),$);
#268=IFCPROPERTYSET('0dloqTUTw7T02wGmNM2CVm',#6,'OPS_Resource',$,(#265,#266,#267));
#269=IFCRELDEFINESBYPROPERTIES('1fYysriHBZXNSK$HJFSu__',#6,$,$,(#202),#268);
#270=IFCPROPERTYSINGLEVALUE('MaxUnits',$,IFCREAL(4),$);
#271=IFCPROPERTYSINGLEVALUE('CostPerHour',$,IFCMONETARYMEASURE(43),$);
#272=IFCPROPERTYSINGLEVALUE('Color',$,IFCTEXT('#1E293B'),$);
#273=IFCPROPERTYSET('2huupe6KlQxqZN89dR8dJS',#6,'OPS_Resource',$,(#270,#271,#272));
#274=IFCRELDEFINESBYPROPERTIES('2zzHlyYbnIhRvaFOqZDygo',#6,$,$,(#203),#273);
#275=IFCPROPERTYSINGLEVALUE('MaxUnits',$,IFCREAL(5),$);
#276=IFCPROPERTYSINGLEVALUE('CostPerHour',$,IFCMONETARYMEASURE(38),$);
#277=IFCPROPERTYSINGLEVALUE('Color',$,IFCTEXT('#1E293B'),$);
#278=IFCPROPERTYSET('36Ov57dnxBZvO7sQD2XwXh',#6,'OPS_Resource',$,(#275,#276,#277));
#279=IFCRELDEFINESBYPROPERTIES('3WcfK1KlyOO1ogBSSwy_4m',#6,$,$,(#204),#278);
#280=IFCPROPERTYSINGLEVALUE('MaxUnits',$,IFCREAL(2),$);
#281=IFCPROPERTYSINGLEVALUE('CostPerHour',$,IFCMONETARYMEASURE(85),$);
#282=IFCPROPERTYSINGLEVALUE('Color',$,IFCTEXT('#1E293B'),$);
#283=IFCPROPERTYSET('0a7gpe6N69eHOFypcHnOph',#6,'OPS_Resource',$,(#280,#281,#282));
#284=IFCRELDEFINESBYPROPERTIES('0$k12oqmK2Ip7rTWrsTMYL',#6,$,$,(#205),#283);
#285=IFCRELASSIGNSTOPROCESS('1SKGGqzXxPfig6drhUCntH',#6,$,$,(#190),$,#45,$);
#286=IFCRELASSIGNSTOPROCESS('3m9rBbUfLqBGl8sOqPl7K$',#6,$,$,(#190),$,#49,$);
#287=IFCRELASSIGNSTOPROCESS('338PTXijGu94KUEWyxBOms',#6,$,$,(#191),$,#55,$);
#288=IFCRELASSIGNSTOPROCESS('1jcy_0S3TviUisduSjN6hq',#6,$,$,(#192,#195),$,#57,$);
#289=IFCRELASSIGNSTOPROCESS('0KJjpSwbR3Neqyy4o0A1iz',#6,$,$,(#190),$,#59,$);
#290=IFCRELASSIGNSTOPROCESS('2NUWQ_AT_wYk$WutaIcvEL',#6,$,$,(#192,#195),$,#61,$);
#291=IFCRELASSIGNSTOPROCESS('3lWbbUN5rJN0$$rR_o0rMa',#6,$,$,(#192,#194,#195),$,#65,$);
#292=IFCRELASSIGNSTOPROCESS('3ayN$aUYskaEZCOmHGGAx4',#6,$,$,(#192,#194,#195),$,#67,$);
#293=IFCRELASSIGNSTOPROCESS('3wZeN61ntYXRKOqVTNMxH3',#6,$,$,(#192,#194,#195),$,#69,$);
#294=IFCRELASSIGNSTOPROCESS('0VozugIiR$ciQ4qKvqj_iU',#6,$,$,(#193,#194),$,#71,$);
#295=IFCRELASSIGNSTOPROCESS('2tvNLCX3w$2tpmSjKBrYdA',#6,$,$,(#193),$,#73,$);
#296=IFCRELASSIGNSTOPROCESS('2tVLh0oDbjW3IBnvpw$alA',#6,$,$,(#192,#194),$,#75,$);
#297=IFCRELASSIGNSTOPROCESS('2Y2uYzQL5UUDGDyEMw4ukY',#6,$,$,(#196),$,#81,$);
#298=IFCRELASSIGNSTOPROCESS('3ZaJVZWnOz53K9acP36TSc',#6,$,$,(#196),$,#83,$);
#299=IFCRELASSIGNSTOPROCESS('2eF088dkOQ94yddk5s6F8M',#6,$,$,(#197),$,#85,$);
#300=IFCRELASSIGNSTOPROCESS('0WW$K0O4b9JRtZlIN_iWD7',#6,$,$,(#197),$,#87,$);
#301=IFCRELASSIGNSTOPROCESS('2xmClJiM8$aFuFrz8oWCAW',#6,$,$,(#198),$,#93,$);
#302=IFCRELASSIGNSTOPROCESS('0INFGLGRwiMrjL43rWr7bj',#6,$,$,(#198),$,#95,$);
#303=IFCRELASSIGNSTOPROCESS('205m8Cxja3VZzbBaI2sfhX',#6,$,$,(#200),$,#97,$);
#304=IFCRELASSIGNSTOPROCESS('0Sv7ufonpX4cAYev8TcgMG',#6,$,$,(#199),$,#99,$);
#305=IFCRELASSIGNSTOPROCESS('06Lzxu3qItVdxmO4g43sNR',#6,$,$,(#199),$,#101,$);
#306=IFCRELASSIGNSTOPROCESS('03s2iH55ILvrDB3IrFujLG',#6,$,$,(#199),$,#103,$);
#307=IFCRELASSIGNSTOPROCESS('2INRaMuy6WVg5QNzqjIRPP',#6,$,$,(#201),$,#105,$);
#308=IFCRELASSIGNSTOPROCESS('1Y5uarJTZwR7V5F1QRp90i',#6,$,$,(#198),$,#107,$);
#309=IFCRELASSIGNSTOPROCESS('0lNu6Vf50c8q3sv2PVtNgf',#6,$,$,(#198),$,#109,$);
#310=IFCRELASSIGNSTOPROCESS('2$3eI7zDm_Y3bw3Mw2GBA0',#6,$,$,(#202),$,#113,$);
#311=IFCRELASSIGNSTOPROCESS('0mZau76jmWGvXej1p0Zrqt',#6,$,$,(#202),$,#115,$);
#312=IFCRELASSIGNSTOPROCESS('20cXvtlly1YUOTj58uy4g6',#6,$,$,(#203),$,#117,$);
#313=IFCRELASSIGNSTOPROCESS('2sNdWgLvISN4x2wgF44Wpz',#6,$,$,(#202),$,#119,$);
#314=IFCRELASSIGNSTOPROCESS('2jqjKhaWr38GoCoODdMH8b',#6,$,$,(#204),$,#121,$);
#315=IFCRELASSIGNSTOPROCESS('0ogyh5w66Ot95s8cle19Pz',#6,$,$,(#202),$,#123,$);
#316=IFCRELASSIGNSTOPROCESS('3n6MukvexUPXBExOQnwriF',#6,$,$,(#199),$,#125,$);
#317=IFCRELASSIGNSTOPROCESS('1$zUCVvARKRG4eX9ppZjBj',#6,$,$,(#190),$,#129,$);
#318=IFCRELASSIGNSTOPROCESS('3Ufwvam_jBJVSWW5_jIz7p',#6,$,$,(#202),$,#131,$);
#319=IFCRELASSIGNSTOPROCESS('0J7eMeY9VW_jIuhO6BHR1r',#6,$,$,(#205,#198,#199),$,#133,$);
#320=IFCPROPERTYSINGLEVALUE('1RFIySYMJuWzy1a0AD4sz1#0',$,IFCTEXT('4|UNIFORM'),$);
#321=IFCPROPERTYSET('3fHpd1qTmv1BwacRmmkx7H',#6,'OPS_Assignments',$,(#320));
#322=IFCRELDEFINESBYPROPERTIES('1cd3UQnfycJMeufxDsPgSJ',#6,$,$,(#45),#321);
#323=IFCPROPERTYSINGLEVALUE('1RFIySYMJuWzy1a0AD4sz1#0',$,IFCTEXT('3|UNIFORM'),$);
#324=IFCPROPERTYSET('2I$1xmvfXhV5HTGNv_J9VZ',#6,'OPS_Assignments',$,(#323));
#325=IFCRELDEFINESBYPROPERTIES('1ICmUgko1Z$22SO1WEEMSK',#6,$,$,(#49),#324);
#326=IFCPROPERTYSINGLEVALUE('0iGCV$oex__zx_9YvFKO7X#0',$,IFCTEXT('4|UNIFORM'),$);
#327=IFCPROPERTYSET('3BuzeKlNpdV6dt26Bne_mm',#6,'OPS_Assignments',$,(#326));
#328=IFCRELDEFINESBYPROPERTIES('14Lbu1tuLJGpbo1epCLDip',#6,$,$,(#55),#327);
#329=IFCPROPERTYSINGLEVALUE('3S6wV$f3_ooCSmFFZCy8CO#0',$,IFCTEXT('5|UNIFORM'),$);
#330=IFCPROPERTYSINGLEVALUE('2RFfb9SeDsuSS$uonKB7G$#1',$,IFCTEXT('35|UNIFORM'),$);
#331=IFCPROPERTYSET('06alkBnQsXq0p_K7jHlhGN',#6,'OPS_Assignments',$,(#329,#330));
#332=IFCRELDEFINESBYPROPERTIES('3lx9duH$9CkxMYONx$NmT2',#6,$,$,(#57),#331);
#333=IFCPROPERTYSINGLEVALUE('1RFIySYMJuWzy1a0AD4sz1#0',$,IFCTEXT('4|UNIFORM'),$);
#334=IFCPROPERTYSET('2sRQoP5WN_5MXELc2OKMb6',#6,'OPS_Assignments',$,(#333));
#335=IFCRELDEFINESBYPROPERTIES('3LlebAXDri8OXKvv7lgODm',#6,$,$,(#59),#334);
#336=IFCPROPERTYSINGLEVALUE('3S6wV$f3_ooCSmFFZCy8CO#0',$,IFCTEXT('5|UNIFORM'),$);
#337=IFCPROPERTYSINGLEVALUE('2RFfb9SeDsuSS$uonKB7G$#1',$,IFCTEXT('55|FRONT_LOADED'),$);
#338=IFCPROPERTYSET('3LmsaC6t15OJDc9kYwbc1x',#6,'OPS_Assignments',$,(#336,#337));
#339=IFCRELDEFINESBYPROPERTIES('254I$8VK1B6ERfHmIl7X3m',#6,$,$,(#61),#338);
#340=IFCPROPERTYSINGLEVALUE('3S6wV$f3_ooCSmFFZCy8CO#0',$,IFCTEXT('7|UNIFORM'),$);
#341=IFCPROPERTYSINGLEVALUE('082J7iY37mVpQoW3ILcoAL#1',$,IFCTEXT('1|UNIFORM'),$);
#342=IFCPROPERTYSINGLEVALUE('2RFfb9SeDsuSS$uonKB7G$#2',$,IFCTEXT('40|UNIFORM'),$);
#343=IFCPROPERTYSET('3CZYKAIgQhCdiu4DW798N7',#6,'OPS_Assignments',$,(#340,#341,#342));
#344=IFCRELDEFINESBYPROPERTIES('3uEH8r7a_nP2TAVgew$VJv',#6,$,$,(#65),#343);
#345=IFCPROPERTYSINGLEVALUE('3S6wV$f3_ooCSmFFZCy8CO#0',$,IFCTEXT('7|UNIFORM'),$);
#346=IFCPROPERTYSINGLEVALUE('082J7iY37mVpQoW3ILcoAL#1',$,IFCTEXT('1|UNIFORM'),$);
#347=IFCPROPERTYSINGLEVALUE('2RFfb9SeDsuSS$uonKB7G$#2',$,IFCTEXT('45|UNIFORM'),$);
#348=IFCPROPERTYSET('0rZIr9WuS2h3$mV01XBHX7',#6,'OPS_Assignments',$,(#345,#346,#347));
#349=IFCRELDEFINESBYPROPERTIES('0lkxq1i12bnWof$mrcTg7i',#6,$,$,(#67),#348);
#350=IFCPROPERTYSINGLEVALUE('3S6wV$f3_ooCSmFFZCy8CO#0',$,IFCTEXT('7|UNIFORM'),$);
#351=IFCPROPERTYSINGLEVALUE('082J7iY37mVpQoW3ILcoAL#1',$,IFCTEXT('1|UNIFORM'),$);
#352=IFCPROPERTYSINGLEVALUE('2RFfb9SeDsuSS$uonKB7G$#2',$,IFCTEXT('45|UNIFORM'),$);
#353=IFCPROPERTYSET('2UJ99ROSCcJbHIB4yv2CwS',#6,'OPS_Assignments',$,(#350,#351,#352));
#354=IFCRELDEFINESBYPROPERTIES('1_9qRwVNAqa7Vuyng2CMTj',#6,$,$,(#69),#353);
#355=IFCPROPERTYSINGLEVALUE('204MvsQlNwdwH7PduuokGO#0',$,IFCTEXT('6|UNIFORM'),$);
#356=IFCPROPERTYSINGLEVALUE('082J7iY37mVpQoW3ILcoAL#1',$,IFCTEXT('1|UNIFORM'),$);
#357=IFCPROPERTYSET('09IHma1Lrv5$m0slwemMgI',#6,'OPS_Assignments',$,(#355,#356));
#358=IFCRELDEFINESBYPROPERTIES('3mxiAEckkimSkhaTxdqhw1',#6,$,$,(#71),#357);
#359=IFCPROPERTYSINGLEVALUE('204MvsQlNwdwH7PduuokGO#0',$,IFCTEXT('6|UNIFORM'),$);
#360=IFCPROPERTYSET('3$vpUPBBRnQSvjCU$GIk6I',#6,'OPS_Assignments',$,(#359));
#361=IFCRELDEFINESBYPROPERTIES('3zGgqOVZ23sjf7R9Yi4Ahl',#6,$,$,(#73),#360);
#362=IFCPROPERTYSINGLEVALUE('3S6wV$f3_ooCSmFFZCy8CO#0',$,IFCTEXT('6|UNIFORM'),$);
#363=IFCPROPERTYSINGLEVALUE('082J7iY37mVpQoW3ILcoAL#1',$,IFCTEXT('1|UNIFORM'),$);
#364=IFCPROPERTYSET('0Bz2YujLFr4jCjFZes_LAf',#6,'OPS_Assignments',$,(#362,#363));
#365=IFCRELDEFINESBYPROPERTIES('3U37Znkh7cuRpJzGlquW5W',#6,$,$,(#75),#364);
#366=IFCPROPERTYSINGLEVALUE('3FXYe02kDlQlgskS5zLNzZ#0',$,IFCTEXT('6|UNIFORM'),$);
#367=IFCPROPERTYSET('00341hk2Ew_JJyES0PWy4t',#6,'OPS_Assignments',$,(#366));
#368=IFCRELDEFINESBYPROPERTIES('2Ghfd3lYul56FVx7v_HP0x',#6,$,$,(#81),#367);
#369=IFCPROPERTYSINGLEVALUE('3FXYe02kDlQlgskS5zLNzZ#0',$,IFCTEXT('4|UNIFORM'),$);
#370=IFCPROPERTYSET('370CLZXhjyYND0AKjukho7',#6,'OPS_Assignments',$,(#369));
#371=IFCRELDEFINESBYPROPERTIES('1Y4jDk$1t0EOSgEqIX28z0',#6,$,$,(#83),#370);
#372=IFCPROPERTYSINGLEVALUE('0QNlpYsBceG4SdtaoUPP4g#0',$,IFCTEXT('4|UNIFORM'),$);
#373=IFCPROPERTYSET('1ny_ajvYNQ8QcdLcy97ilK',#6,'OPS_Assignments',$,(#372));
#374=IFCRELDEFINESBYPROPERTIES('21MHXvND_TLkfJxsmN6FHf',#6,$,$,(#85),#373);
#375=IFCPROPERTYSINGLEVALUE('0QNlpYsBceG4SdtaoUPP4g#0',$,IFCTEXT('3|UNIFORM'),$);
#376=IFCPROPERTYSET('3C43ACpHSbDa$q7_E9IPpB',#6,'OPS_Assignments',$,(#375));
#377=IFCRELDEFINESBYPROPERTIES('2FY0wYfiVKnfP0__2RMKPm',#6,$,$,(#87),#376);
#378=IFCPROPERTYSINGLEVALUE('0j6kUYsZ9Mt2XbwPoDT0Do#0',$,IFCTEXT('4|UNIFORM'),$);
#379=IFCPROPERTYSET('3l84lCCRNlOOlMku97ILjw',#6,'OPS_Assignments',$,(#378));
#380=IFCRELDEFINESBYPROPERTIES('1zepsfj$koudWb$0Gl8u_C',#6,$,$,(#93),#379);
#381=IFCPROPERTYSINGLEVALUE('0j6kUYsZ9Mt2XbwPoDT0Do#0',$,IFCTEXT('3|UNIFORM'),$);
#382=IFCPROPERTYSET('2AGMtFLiMzId5Z55eKwmsu',#6,'OPS_Assignments',$,(#381));
#383=IFCRELDEFINESBYPROPERTIES('0gsUJGQUyA9WJiPJl8RcLI',#6,$,$,(#95),#382);
#384=IFCPROPERTYSINGLEVALUE('3ckM5J1GdSjOqSGa_CPypg#0',$,IFCTEXT('3|UNIFORM'),$);
#385=IFCPROPERTYSET('0u$H2tncUd2hPgulwZhYMa',#6,'OPS_Assignments',$,(#384));
#386=IFCRELDEFINESBYPROPERTIES('30mypINsofCbl4ne0nJyw8',#6,$,$,(#97),#385);
#387=IFCPROPERTYSINGLEVALUE('1JBkVN2YFsEJj79DwNh$fJ#0',$,IFCTEXT('6|UNIFORM'),$);
#388=IFCPROPERTYSET('36_ByhkxGlGpxIZqp4kFw9',#6,'OPS_Assignments',$,(#387));
#389=IFCRELDEFINESBYPROPERTIES('1JEJ2eLTbEGN7Qy1tnTMtj',#6,$,$,(#99),#388);
#390=IFCPROPERTYSINGLEVALUE('1JBkVN2YFsEJj79DwNh$fJ#0',$,IFCTEXT('6|UNIFORM'),$);
#391=IFCPROPERTYSET('1XKUxiXwKsW9w0B$g2JnC3',#6,'OPS_Assignments',$,(#390));
#392=IFCRELDEFINESBYPROPERTIES('0wILacELfr3LV6mlLW7gJv',#6,$,$,(#101),#391);
#393=IFCPROPERTYSINGLEVALUE('1JBkVN2YFsEJj79DwNh$fJ#0',$,IFCTEXT('4|UNIFORM'),$);
#394=IFCPROPERTYSET('3HYy$U4Q2RdJ2kPIyHINdp',#6,'OPS_Assignments',$,(#393));
#395=IFCRELDEFINESBYPROPERTIES('0n4pqpszZKdGx4ZxamfMEE',#6,$,$,(#103),#394);
#396=IFCPROPERTYSINGLEVALUE('1Fxynf$fkkWu6VS7fqGS3B#0',$,IFCTEXT('3|UNIFORM'),$);
#397=IFCPROPERTYSET('0yDQkkIQRaMBNYcD35H9JI',#6,'OPS_Assignments',$,(#396));
#398=IFCRELDEFINESBYPROPERTIES('2Qdq8PgOoowT0ilCw9MMlj',#6,$,$,(#105),#397);
#399=IFCPROPERTYSINGLEVALUE('0j6kUYsZ9Mt2XbwPoDT0Do#0',$,IFCTEXT('3|UNIFORM'),$);
#400=IFCPROPERTYSET('3RaVb9vZE8SzEDrAvEJgex',#6,'OPS_Assignments',$,(#399));
#401=IFCRELDEFINESBYPROPERTIES('2sUg6ZGliivGtJjCNweKbs',#6,$,$,(#107),#400);
#402=IFCPROPERTYSINGLEVALUE('0j6kUYsZ9Mt2XbwPoDT0Do#0',$,IFCTEXT('4|UNIFORM'),$);
#403=IFCPROPERTYSET('1SiKVRD_te9ajwdF0rNmDu',#6,'OPS_Assignments',$,(#402));
#404=IFCRELDEFINESBYPROPERTIES('1f8ZllwrXKfQxi7_axnQ4U',#6,$,$,(#109),#403);
#405=IFCPROPERTYSINGLEVALUE('0ZDqzPeQiIJxJD2UHREPWA#0',$,IFCTEXT('6|UNIFORM'),$);
#406=IFCPROPERTYSET('0tHPCRovmK5Mh2zA1cvZVy',#6,'OPS_Assignments',$,(#405));
#407=IFCRELDEFINESBYPROPERTIES('2_XgXdSLr3P1xt2PFiE4Qp',#6,$,$,(#113),#406);
#408=IFCPROPERTYSINGLEVALUE('0ZDqzPeQiIJxJD2UHREPWA#0',$,IFCTEXT('6|UNIFORM'),$);
#409=IFCPROPERTYSET('1hWlH1vd__5W5qGXr4NRP_',#6,'OPS_Assignments',$,(#408));
#410=IFCRELDEFINESBYPROPERTIES('3J7Kx2IXqO3e0Es4qDtgMw',#6,$,$,(#115),#409);
#411=IFCPROPERTYSINGLEVALUE('0J2baTFqG2ZSti9f4ZVx$J#0',$,IFCTEXT('4|UNIFORM'),$);
#412=IFCPROPERTYSET('1r29ZABjQsNXb6DoDQ_F28',#6,'OPS_Assignments',$,(#411));
#413=IFCRELDEFINESBYPROPERTIES('0C5KV2AGxLXElmzpRTF1HT',#6,$,$,(#117),#412);
#414=IFCPROPERTYSINGLEVALUE('0ZDqzPeQiIJxJD2UHREPWA#0',$,IFCTEXT('5|UNIFORM'),$);
#415=IFCPROPERTYSET('0PTjcp5HMvWkuHdON$0lKs',#6,'OPS_Assignments',$,(#414));
#416=IFCRELDEFINESBYPROPERTIES('1e4kZf6yn55mv8Xj3B9GCS',#6,$,$,(#119),#415);
#417=IFCPROPERTYSINGLEVALUE('34NCvm6kJxZqVPlFlOiNxG#0',$,IFCTEXT('5|UNIFORM'),$);
#418=IFCPROPERTYSET('3hoQPbAdJPKHlWlopEPWN1',#6,'OPS_Assignments',$,(#417));
#419=IFCRELDEFINESBYPROPERTIES('3mH935nE8WmCqKNWYEvz7q',#6,$,$,(#121),#418);
#420=IFCPROPERTYSINGLEVALUE('0ZDqzPeQiIJxJD2UHREPWA#0',$,IFCTEXT('3|UNIFORM'),$);
#421=IFCPROPERTYSET('33TkLddc5$d8IRQSHLqzJz',#6,'OPS_Assignments',$,(#420));
#422=IFCRELDEFINESBYPROPERTIES('1szSLGmVfcy1WjR57YQO09',#6,$,$,(#123),#421);
#423=IFCPROPERTYSINGLEVALUE('1JBkVN2YFsEJj79DwNh$fJ#0',$,IFCTEXT('3|UNIFORM'),$);
#424=IFCPROPERTYSET('1UqRnQ5G4HzjWJElTphjmG',#6,'OPS_Assignments',$,(#423));
#425=IFCRELDEFINESBYPROPERTIES('3xghDVkZS9q1KkF_eeSkdz',#6,$,$,(#125),#424);
#426=IFCPROPERTYSINGLEVALUE('1RFIySYMJuWzy1a0AD4sz1#0',$,IFCTEXT('5|UNIFORM'),$);
#427=IFCPROPERTYSET('3VhO$so04_AwtrlXv6TVaM',#6,'OPS_Assignments',$,(#426));
#428=IFCRELDEFINESBYPROPERTIES('1_O5Cha$LhBrRgq5gQcmbD',#6,$,$,(#129),#427);
#429=IFCPROPERTYSINGLEVALUE('0ZDqzPeQiIJxJD2UHREPWA#0',$,IFCTEXT('4|UNIFORM'),$);
#430=IFCPROPERTYSET('3bmMJT7cB$Q_q8U1VMZZP7',#6,'OPS_Assignments',$,(#429));
#431=IFCRELDEFINESBYPROPERTIES('3WBbRB3_qhpGahtD5Rw1U_',#6,$,$,(#131),#430);
#432=IFCPROPERTYSINGLEVALUE('0TnmLRVrMICCuF4NUzoI8n#0',$,IFCTEXT('2|UNIFORM'),$);
#433=IFCPROPERTYSINGLEVALUE('0j6kUYsZ9Mt2XbwPoDT0Do#1',$,IFCTEXT('2|UNIFORM'),$);
#434=IFCPROPERTYSINGLEVALUE('1JBkVN2YFsEJj79DwNh$fJ#2',$,IFCTEXT('2|UNIFORM'),$);
#435=IFCPROPERTYSET('16qp07uyflOixmp8S6mrMh',#6,'OPS_Assignments',$,(#432,#433,#434));
#436=IFCRELDEFINESBYPROPERTIES('3LwuBoYh8u00xqfWz6qBD4',#6,$,$,(#133),#435);
#437=IFCRELASSIGNSTOCONTROL('3qHSDjdF27aDkgSf66SEmf',#6,$,$,(#43,#45,#47,#49,#51,#53,#55,#57,#59,#61,#63,#65,#67,#69,#71,#73,#75,#77,#79,#81,#83,#85,#87,#89,#91,#93,#95,#97,#99,#101,#103,#105,#107,#109,#111,#113,#115,#117,#119,#121,#123,#125,#127,#129,#131,#133,#135),$,#40);
#438=IFCPROPERTYSINGLEVALUE('InternalProjectId',$,IFCTEXT('proj-mula81jxa3tt1845'),$);
#439=IFCPROPERTYSINGLEVALUE('wbsAutoNumber',$,IFCBOOLEAN(.T.),$);
#440=IFCPROPERTYSINGLEVALUE('DefaultTaskDurationUnit',$,IFCLABEL('days'),$);
#441=IFCPROPERTYSINGLEVALUE('ProjectStartDate',$,IFCDATE('2027-03-01'),$);
#442=IFCPROPERTYSINGLEVALUE('ProjectEndDate',$,$,$);
#443=IFCPROPERTYSINGLEVALUE('CreatedAt',$,IFCTEXT('2026-09-28T13:27:21.309Z'),$);
#444=IFCPROPERTYSINGLEVALUE('ModifiedAt',$,IFCTEXT('2026-09-28T13:27:21.311Z'),$);
#445=IFCPROPERTYSET('0yfdnCqrRQMAczqkJOrWqj',#6,'OPS_ProjectSettings',$,(#438,#439,#440,#441,#442,#443,#444));
#446=IFCRELDEFINESBYPROPERTIES('3CfMcrZK2yQZAyFoQUVSaQ',#6,$,$,(#13),#445);
#447=IFCPROPERTYSINGLEVALUE('InternalTaskId',$,IFCTEXT('task-mula81kn6caz1862'),$);
#448=IFCPROPERTYSET('1$ya32SuYTL0BPFBvWM3ZN',#6,'OPS_TaskIdentity',$,(#447));
#449=IFCRELDEFINESBYPROPERTIES('3gf5nkARyxqPph9GYcY1AV',#6,$,$,(#43),#448);
#450=IFCPROPERTYSINGLEVALUE('InternalTaskId',$,IFCTEXT('task-mula81kpd9xj1863'),$);
#451=IFCPROPERTYSET('1N8tcYCP26eURuCMIvnkwk',#6,'OPS_TaskIdentity',$,(#450));
#452=IFCRELDEFINESBYPROPERTIES('2G3sxWZ94ckJLLxmcAUSw5',#6,$,$,(#45),#451);
#453=IFCPROPERTYSINGLEVALUE('InternalTaskId',$,IFCTEXT('task-mula81kqsag71864'),$);
#454=IFCPROPERTYSET('2nuiwJHSlQKY88GFUkIvxC',#6,'OPS_TaskIdentity',$,(#453));
#455=IFCRELDEFINESBYPROPERTIES('1Nd0eKQT3J4$dPoy9F4IxQ',#6,$,$,(#47),#454);
#456=IFCPROPERTYSINGLEVALUE('InternalTaskId',$,IFCTEXT('task-mula81kscu631865'),$);
#457=IFCPROPERTYSET('26uht9XJGyaEwfZxw1Agvq',#6,'OPS_TaskIdentity',$,(#456));
#458=IFCRELDEFINESBYPROPERTIES('25u$DTfF7erY2IEddMLLCV',#6,$,$,(#49),#457);
#459=IFCPROPERTYSINGLEVALUE('InternalTaskId',$,IFCTEXT('task-mula81ku0q2e1866'),$);
#460=IFCPROPERTYSET('27ArvnvHWJqTBtN_EkM2yZ',#6,'OPS_TaskIdentity',$,(#459));
#461=IFCRELDEFINESBYPROPERTIES('2Lqq1bFhDnWXQCXgLR$__K',#6,$,$,(#51),#460);
#462=IFCPROPERTYSINGLEVALUE('InternalTaskId',$,IFCTEXT('task-mula81kvz9h11867'),$);
#463=IFCPROPERTYSET('1uQLRF0higID5lFrUTJ$Wq',#6,'OPS_TaskIdentity',$,(#462));
#464=IFCRELDEFINESBYPROPERTIES('0h6l25F3KJebHj_CehC1TB',#6,$,$,(#53),#463);
#465=IFCPROPERTYSINGLEVALUE('InternalTaskId',$,IFCTEXT('task-mula81kxslpz1868'),$);
#466=IFCPROPERTYSET('05mO8IbXbeYZgFuyw0i24B',#6,'OPS_TaskIdentity',$,(#465));
#467=IFCRELDEFINESBYPROPERTIES('0IaDvuZOhsECqp7$S10tIv',#6,$,$,(#55),#466);
#468=IFCPROPERTYSINGLEVALUE('InternalTaskId',$,IFCTEXT('task-mula81kzwk431869'),$);
#469=IFCPROPERTYSET('1H_pYsO7QjThd8$uvLpC$_',#6,'OPS_TaskIdentity',$,(#468));
#470=IFCRELDEFINESBYPROPERTIES('1hTFTD22Tg9jzUz2jdU$Jn',#6,$,$,(#57),#469);
#471=IFCPROPERTYSINGLEVALUE('InternalTaskId',$,IFCTEXT('task-mula81l1o0i71870'),$);
#472=IFCPROPERTYSET('2nOdoss$5Sz33maZ74dnKH',#6,'OPS_TaskIdentity',$,(#471));
#473=IFCRELDEFINESBYPROPERTIES('3vVStN8S_VcYFoBbHlY4QA',#6,$,$,(#59),#472);
#474=IFCPROPERTYSINGLEVALUE('InternalTaskId',$,IFCTEXT('task-mula81l4m46b1871'),$);
#475=IFCPROPERTYSET('2Hs27Mmxw70lXCke$yCUIv',#6,'OPS_TaskIdentity',$,(#474));
#476=IFCRELDEFINESBYPROPERTIES('0sVw0M6H6L_c52HUKaRrHh',#6,$,$,(#61),#475);
#477=IFCPROPERTYSINGLEVALUE('InternalTaskId',$,IFCTEXT('task-mula81l7n0pn1872'),$);
#478=IFCPROPERTYSET('2LORQFiSX1nQaRN9O3ynE$',#6,'OPS_TaskIdentity',$,(#477));
#479=IFCRELDEFINESBYPROPERTIES('0eg9O7vNdzNPvQY4_aNk8L',#6,$,$,(#63),#478);
#480=IFCPROPERTYSINGLEVALUE('InternalTaskId',$,IFCTEXT('task-mula81l8finu1873'),$);
#481=IFCPROPERTYSET('39$TnNg9Pw5u1iOZUBDxPh',#6,'OPS_TaskIdentity',$,(#480));
#482=IFCRELDEFINESBYPROPERTIES('1U8MZGsnfiHT5P1nO0MYSX',#6,$,$,(#65),#481);
#483=IFCPROPERTYSINGLEVALUE('InternalTaskId',$,IFCTEXT('task-mula81la5tj41874'),$);
#484=IFCPROPERTYSET('3p4trJqyU8T3pqqrG6KRFW',#6,'OPS_TaskIdentity',$,(#483));
#485=IFCRELDEFINESBYPROPERTIES('1ycVdhWqkckFDbAP5c9Mbc',#6,$,$,(#67),#484);
#486=IFCPROPERTYSINGLEVALUE('InternalTaskId',$,IFCTEXT('task-mula81lck9ts1875'),$);
#487=IFCPROPERTYSET('30YUufsAxjDpePYcdUkcSj',#6,'OPS_TaskIdentity',$,(#486));
#488=IFCRELDEFINESBYPROPERTIES('0bE3hiFKfS_IcPAH$4UMP8',#6,$,$,(#69),#487);
#489=IFCPROPERTYSINGLEVALUE('InternalTaskId',$,IFCTEXT('task-mula81leeohr1876'),$);
#490=IFCPROPERTYSET('3sWsSuTaWovtDsHhtG8g3Z',#6,'OPS_TaskIdentity',$,(#489));
#491=IFCRELDEFINESBYPROPERTIES('3akzkFDYi5qz8FWxrA31u4',#6,$,$,(#71),#490);
#492=IFCPROPERTYSINGLEVALUE('InternalTaskId',$,IFCTEXT('task-mula81lgx4ft1877'),$);
#493=IFCPROPERTYSET('1QW7VqLdg_v58p3S$EqtdJ',#6,'OPS_TaskIdentity',$,(#492));
#494=IFCRELDEFINESBYPROPERTIES('1HlpkXORdcMYQBFdLNzYx5',#6,$,$,(#73),#493);
#495=IFCPROPERTYSINGLEVALUE('InternalTaskId',$,IFCTEXT('task-mula81lithzy1878'),$);
#496=IFCPROPERTYSET('08ro3266kWbYwNCVlWOsXZ',#6,'OPS_TaskIdentity',$,(#495));
#497=IFCRELDEFINESBYPROPERTIES('3tgLY0tNuygVL8h8NunWya',#6,$,$,(#75),#496);
#498=IFCPROPERTYSINGLEVALUE('InternalTaskId',$,IFCTEXT('task-mula81lkbq0g1879'),$);
#499=IFCPROPERTYSET('0W6f450jWoDnaJtk2EHr8a',#6,'OPS_TaskIdentity',$,(#498));
#500=IFCRELDEFINESBYPROPERTIES('3zXXRHULhLPBzxcjDROcCH',#6,$,$,(#77),#499);
#501=IFCPROPERTYSINGLEVALUE('InternalTaskId',$,IFCTEXT('task-mula81lm5zqg1880'),$);
#502=IFCPROPERTYSET('0EIb0J87Z2zH3QSYXmaDf5',#6,'OPS_TaskIdentity',$,(#501));
#503=IFCRELDEFINESBYPROPERTIES('2fuKv1iyN1yQgLl8ReBCvF',#6,$,$,(#79),#502);
#504=IFCPROPERTYSINGLEVALUE('InternalTaskId',$,IFCTEXT('task-mula81loe7ek1881'),$);
#505=IFCPROPERTYSET('2$ZVRG_OoEA2tvddpo0y2U',#6,'OPS_TaskIdentity',$,(#504));
#506=IFCRELDEFINESBYPROPERTIES('3Z09gzMvJa8NqBv__xan6l',#6,$,$,(#81),#505);
#507=IFCPROPERTYSINGLEVALUE('InternalTaskId',$,IFCTEXT('task-mula81lqvo0q1882'),$);
#508=IFCPROPERTYSET('0ZdZfAm7_FXWfKM_BQLMsq',#6,'OPS_TaskIdentity',$,(#507));
#509=IFCRELDEFINESBYPROPERTIES('32RElppLgBLO76X8w6aseT',#6,$,$,(#83),#508);
#510=IFCPROPERTYSINGLEVALUE('InternalTaskId',$,IFCTEXT('task-mula81ltft1b1883'),$);
#511=IFCPROPERTYSET('3rNcZ4TCzG2gtGl3lKKoZ8',#6,'OPS_TaskIdentity',$,(#510));
#512=IFCRELDEFINESBYPROPERTIES('0_0ib7VfuZHeDJuqzKDmGC',#6,$,$,(#85),#511);
#513=IFCPROPERTYSINGLEVALUE('InternalTaskId',$,IFCTEXT('task-mula81lvujrk1884'),$);
#514=IFCPROPERTYSET('07hPWRg7c_fmxaMIQhH9LB',#6,'OPS_TaskIdentity',$,(#513));
#515=IFCRELDEFINESBYPROPERTIES('0zt5IPDduaCitxsh1BnuBT',#6,$,$,(#87),#514);
#516=IFCPROPERTYSINGLEVALUE('InternalTaskId',$,IFCTEXT('task-mula81lxxly11885'),$);
#517=IFCPROPERTYSET('1saG9LwOOhHzruWM0albjT',#6,'OPS_TaskIdentity',$,(#516));
#518=IFCRELDEFINESBYPROPERTIES('1ip2A$7Dxs7TwGdR$gjAv1',#6,$,$,(#89),#517);
#519=IFCPROPERTYSINGLEVALUE('InternalTaskId',$,IFCTEXT('task-mula81lzvsb21886'),$);
#520=IFCPROPERTYSET('1foc25Ts3Dc6WrkU902C7y',#6,'OPS_TaskIdentity',$,(#519));
#521=IFCRELDEFINESBYPROPERTIES('3H4Nb8X1gcKrJENXIl71oE',#6,$,$,(#91),#520);
#522=IFCPROPERTYSINGLEVALUE('InternalTaskId',$,IFCTEXT('task-mula81m1hads1887'),$);
#523=IFCPROPERTYSET('3jPkAy9WcIPXWKkUzIeNYk',#6,'OPS_TaskIdentity',$,(#522));
#524=IFCRELDEFINESBYPROPERTIES('3FG5WLAQ6svXYDnHsA6ncT',#6,$,$,(#93),#523);
#525=IFCPROPERTYSINGLEVALUE('InternalTaskId',$,IFCTEXT('task-mula81m3xbw01888'),$);
#526=IFCPROPERTYSET('1w0W_DxO7t7JPGGTi1hkT1',#6,'OPS_TaskIdentity',$,(#525));
#527=IFCRELDEFINESBYPROPERTIES('0feoJBMp4Rx5GSULQ_ke2P',#6,$,$,(#95),#526);
#528=IFCPROPERTYSINGLEVALUE('InternalTaskId',$,IFCTEXT('task-mula81m5v4qn1889'),$);
#529=IFCPROPERTYSET('2E517acl26l4ligiCqBc_C',#6,'OPS_TaskIdentity',$,(#528));
#530=IFCRELDEFINESBYPROPERTIES('01sXq3SWX$9sAv9xdUETrn',#6,$,$,(#97),#529);
#531=IFCPROPERTYSINGLEVALUE('InternalTaskId',$,IFCTEXT('task-mula81m7p5pa1890'),$);
#532=IFCPROPERTYSET('3qCeKwakiF3QYuNntu1UIU',#6,'OPS_TaskIdentity',$,(#531));
#533=IFCRELDEFINESBYPROPERTIES('15XIb_bS8YH$PMVIL40$bA',#6,$,$,(#99),#532);
#534=IFCPROPERTYSINGLEVALUE('InternalTaskId',$,IFCTEXT('task-mula81m95gqf1891'),$);
#535=IFCPROPERTYSET('3TIY2K5tspRQJTXgKAMyh_',#6,'OPS_TaskIdentity',$,(#534));
#536=IFCRELDEFINESBYPROPERTIES('1tbaFhi4A4$9wHVNgdSwpV',#6,$,$,(#101),#535);
#537=IFCPROPERTYSINGLEVALUE('InternalTaskId',$,IFCTEXT('task-mula81mbvpv11892'),$);
#538=IFCPROPERTYSET('0j9ubkFR9FtJyC8Wn5HnuZ',#6,'OPS_TaskIdentity',$,(#537));
#539=IFCRELDEFINESBYPROPERTIES('2d20E4sCZRaGbrh_OD_tPY',#6,$,$,(#103),#538);
#540=IFCPROPERTYSINGLEVALUE('InternalTaskId',$,IFCTEXT('task-mula81mdtd6g1893'),$);
#541=IFCPROPERTYSET('04FH5$PcW5zuJXvyDPhP15',#6,'OPS_TaskIdentity',$,(#540));
#542=IFCRELDEFINESBYPROPERTIES('0eSayulRvlNChBQZdbVCgk',#6,$,$,(#105),#541);
#543=IFCPROPERTYSINGLEVALUE('InternalTaskId',$,IFCTEXT('task-mula81mf6gnl1894'),$);
#544=IFCPROPERTYSET('3j_iJ_7uEq6hkwEZ8$R5TJ',#6,'OPS_TaskIdentity',$,(#543));
#545=IFCRELDEFINESBYPROPERTIES('3dp0Hf$sP7oZ7b9rLvCTpI',#6,$,$,(#107),#544);
#546=IFCPROPERTYSINGLEVALUE('InternalTaskId',$,IFCTEXT('task-mula81mhxt721895'),$);
#547=IFCPROPERTYSET('2hAjZ1AuzZ$3TbEOOJak25',#6,'OPS_TaskIdentity',$,(#546));
#548=IFCRELDEFINESBYPROPERTIES('2SynW5ePSwurhVoModg9I1',#6,$,$,(#109),#547);
#549=IFCPROPERTYSINGLEVALUE('InternalTaskId',$,IFCTEXT('task-mula81mjoiyj1896'),$);
#550=IFCPROPERTYSET('1JzP9Ko$dJgwmbFURTE5mz',#6,'OPS_TaskIdentity',$,(#549));
#551=IFCRELDEFINESBYPROPERTIES('3OF6qyqnrQW0j3lPlj8e9e',#6,$,$,(#111),#550);
#552=IFCPROPERTYSINGLEVALUE('InternalTaskId',$,IFCTEXT('task-mula81mly5wj1897'),$);
#553=IFCPROPERTYSET('0FymsIyomdTi5G4Yznljoz',#6,'OPS_TaskIdentity',$,(#552));
#554=IFCRELDEFINESBYPROPERTIES('1R52bW1xtQaYaUX30967aZ',#6,$,$,(#113),#553);
#555=IFCPROPERTYSINGLEVALUE('InternalTaskId',$,IFCTEXT('task-mula81mnx0xt1898'),$);
#556=IFCPROPERTYSET('0mnEq_saN_i82HWwyXje$8',#6,'OPS_TaskIdentity',$,(#555));
#557=IFCRELDEFINESBYPROPERTIES('3rn11NTFIcyqC79xw0gW4g',#6,$,$,(#115),#556);
#558=IFCPROPERTYSINGLEVALUE('InternalTaskId',$,IFCTEXT('task-mula81mp7r7n1899'),$);
#559=IFCPROPERTYSET('1xGX_h8wA15R68Q365GqiC',#6,'OPS_TaskIdentity',$,(#558));
#560=IFCRELDEFINESBYPROPERTIES('1xPj54oa_T3lOrezFMdBNg',#6,$,$,(#117),#559);
#561=IFCPROPERTYSINGLEVALUE('InternalTaskId',$,IFCTEXT('task-mula81mrgq6q1900'),$);
#562=IFCPROPERTYSET('0HRRe105OwhKIsh2$J0QCE',#6,'OPS_TaskIdentity',$,(#561));
#563=IFCRELDEFINESBYPROPERTIES('0Pz7PQ7oraANDpKuL4Un8W',#6,$,$,(#119),#562);
#564=IFCPROPERTYSINGLEVALUE('InternalTaskId',$,IFCTEXT('task-mula81mtbhwk1901'),$);
#565=IFCPROPERTYSET('2mhOYuwcTSiJO$di2sG5Wn',#6,'OPS_TaskIdentity',$,(#564));
#566=IFCRELDEFINESBYPROPERTIES('0atUam1xp38ICm7M6CHhZx',#6,$,$,(#121),#565);
#567=IFCPROPERTYSINGLEVALUE('InternalTaskId',$,IFCTEXT('task-mula81mv0mvk1902'),$);
#568=IFCPROPERTYSET('3O0eaQqyz46UORtHgwJd98',#6,'OPS_TaskIdentity',$,(#567));
#569=IFCRELDEFINESBYPROPERTIES('1poiX2DFAk$tGjPSy0t7pX',#6,$,$,(#123),#568);
#570=IFCPROPERTYSINGLEVALUE('InternalTaskId',$,IFCTEXT('task-mula81mxitnw1903'),$);
#571=IFCPROPERTYSET('0G9GB1XsNuVhzYD$PT59$j',#6,'OPS_TaskIdentity',$,(#570));
#572=IFCRELDEFINESBYPROPERTIES('2IoD_j2HUDgBfAZfuy$$uB',#6,$,$,(#125),#571);
#573=IFCPROPERTYSINGLEVALUE('InternalTaskId',$,IFCTEXT('task-mula81n06hmb1904'),$);
#574=IFCPROPERTYSET('2OoooGCiO1J7AGUVg_ffi5',#6,'OPS_TaskIdentity',$,(#573));
#575=IFCRELDEFINESBYPROPERTIES('0buesjnGzlV6tPB1cdhS5y',#6,$,$,(#127),#574);
#576=IFCPROPERTYSINGLEVALUE('InternalTaskId',$,IFCTEXT('task-mula81n2e9ss1905'),$);
#577=IFCPROPERTYSET('3oaBQaIkN5oQjwSfhJ6BAx',#6,'OPS_TaskIdentity',$,(#576));
#578=IFCRELDEFINESBYPROPERTIES('1feE0vx8m2xt$doqhB1e0A',#6,$,$,(#129),#577);
#579=IFCPROPERTYSINGLEVALUE('InternalTaskId',$,IFCTEXT('task-mula81n4s6ey1906'),$);
#580=IFCPROPERTYSET('37aAdJvdNti3cW72mBcUAY',#6,'OPS_TaskIdentity',$,(#579));
#581=IFCRELDEFINESBYPROPERTIES('1K9L8exjeSj1cbW$DSF$5O',#6,$,$,(#131),#580);
#582=IFCPROPERTYSINGLEVALUE('InternalTaskId',$,IFCTEXT('task-mula81n75lm31907'),$);
#583=IFCPROPERTYSET('3lMUuMJihPeXtacF8Ov2E1',#6,'OPS_TaskIdentity',$,(#582));
#584=IFCRELDEFINESBYPROPERTIES('2Sm9qbJD7PXiZDIdzJR7DE',#6,$,$,(#133),#583);
#585=IFCPROPERTYSINGLEVALUE('InternalTaskId',$,IFCTEXT('task-mula81n9rzpz1908'),$);
#586=IFCPROPERTYSET('0fhpwmDO_dQ84m6T19rTAO',#6,'OPS_TaskIdentity',$,(#585));
#587=IFCRELDEFINESBYPROPERTIES('0enXWL$RzLto4cD778$dQW',#6,$,$,(#135),#586);
#588=IFCPROPERTYSINGLEVALUE('MilestoneKind',$,IFCLABEL('START'),$);
#589=IFCPROPERTYSET('3g1eRLDgZAOasE2CLCQqcr',#6,'OPS_Milestone',$,(#588));
#590=IFCRELDEFINESBYPROPERTIES('1THctZJTZKYZ6eza7m6WFa',#6,$,$,(#51),#589);
#591=IFCPROPERTYSINGLEVALUE('MilestoneKind',$,IFCLABEL('FINISH'),$);
#592=IFCPROPERTYSET('3asfGQvAxaLSdebFZWrrDh',#6,'OPS_Milestone',$,(#591));
#593=IFCRELDEFINESBYPROPERTIES('2TV0Y4N$iSFNAlZd3$YUlc',#6,$,$,(#77),#592);
#594=IFCPROPERTYSINGLEVALUE('MilestoneKind',$,IFCLABEL('FINISH'),$);
#595=IFCPROPERTYSET('1UC7N6RPwUg9Ud7hHd_R26',#6,'OPS_Milestone',$,(#594));
#596=IFCRELDEFINESBYPROPERTIES('21kODcdV1HZMSc2VV6OE3r',#6,$,$,(#89),#595);
#597=IFCPROPERTYSINGLEVALUE('MilestoneKind',$,IFCLABEL('FINISH'),$);
#598=IFCPROPERTYSINGLEVALUE('Mandatory',$,IFCBOOLEAN(.T.),$);
#599=IFCPROPERTYSET('2A28VJZ0EQc0r$hhXiA5a4',#6,'OPS_Milestone',$,(#597,#598));
#600=IFCRELDEFINESBYPROPERTIES('0_9Ptyv0fza4fuUeeAg0Zi',#6,$,$,(#135),#599);
ENDSEC;
END-ISO-10303-21;
