ISO-10303-21;
HEADER;
FILE_DESCRIPTION(('ViewDefinition [SchedulingView]'),'2;1');
FILE_NAME('Agriport A7 Data Centre.ifc','2026-09-28T13:27:22',('Vincent Kok'),('Digital Infrastructure BV'),'Open Vision Studio 0.1','Open Vision Studio','');
FILE_SCHEMA(('IFC4X3'));
ENDSEC;
DATA;
#1=IFCPERSON($,'Vincent Kok',$,$,$,$,$,$);
#2=IFCORGANIZATION($,'Digital Infrastructure BV',$,$,$);
#3=IFCPERSONANDORGANIZATION(#1,#2,$);
#4=IFCORGANIZATION($,'Spanvision infra',$,$,$);
#5=IFCAPPLICATION(#4,'0.2','Open Vision Studio','OPS');
#6=IFCOWNERHISTORY(#3,#5,$,.NOCHANGE.,$,$,$,1790602042);
#7=IFCSIUNIT(*,.LENGTHUNIT.,$,.METRE.);
#8=IFCSIUNIT(*,.TIMEUNIT.,$,.SECOND.);
#9=IFCUNITASSIGNMENT((#7,#8));
#10=IFCCARTESIANPOINT((0.,0.,0.));
#11=IFCAXIS2PLACEMENT3D(#10,$,$);
#12=IFCGEOMETRICREPRESENTATIONCONTEXT($,'Plan',3,1.0E-05,#11,$);
#13=IFCPROJECT('3ve0ZrboofCKDWNoSCKo0v',#6,'Agriport A7 Data Centre','5,000 m2 data centre with its own power supply',$,$,$,(#12),#9);
#14=IFCTIMEPERIOD('07:00:00','16:00:00');
#15=IFCRECURRENCEPATTERN(.WEEKLY.,$,(1,2,3,4,5),$,$,$,$,(#14));
#16=IFCWORKTIME('Standard work week',.PREDICTED.,$,#15,$,$);
#17=IFCWORKTIME('New Year''s Day',.PREDICTED.,$,$,'2027-01-01','2027-01-01');
#18=IFCWORKTIME('Good Friday',.PREDICTED.,$,$,'2027-03-26','2027-03-26');
#19=IFCWORKTIME('Easter',.PREDICTED.,$,$,'2027-03-28','2027-03-29');
#20=IFCWORKTIME('King''s Day',.PREDICTED.,$,$,'2027-04-27','2027-04-27');
#21=IFCWORKTIME('Liberation Day',.PREDICTED.,$,$,'2027-05-05','2027-05-05');
#22=IFCWORKTIME('Ascension Day',.PREDICTED.,$,$,'2027-05-06','2027-05-06');
#23=IFCWORKTIME('Whitsun',.PREDICTED.,$,$,'2027-05-16','2027-05-17');
#24=IFCWORKTIME('Christmas',.PREDICTED.,$,$,'2027-12-25','2027-12-26');
#25=IFCWORKTIME('Construction holiday (northern region)',.PREDICTED.,$,$,'2027-07-26','2027-08-15');
#26=IFCWORKTIME('New Year''s Day',.PREDICTED.,$,$,'2028-01-01','2028-01-01');
#27=IFCWORKTIME('Good Friday',.PREDICTED.,$,$,'2028-04-14','2028-04-14');
#28=IFCWORKTIME('Easter',.PREDICTED.,$,$,'2028-04-16','2028-04-17');
#29=IFCWORKTIME('King''s Day',.PREDICTED.,$,$,'2028-04-27','2028-04-27');
#30=IFCWORKTIME('Liberation Day',.PREDICTED.,$,$,'2028-05-05','2028-05-05');
#31=IFCWORKTIME('Ascension Day',.PREDICTED.,$,$,'2028-05-25','2028-05-25');
#32=IFCWORKTIME('Whitsun',.PREDICTED.,$,$,'2028-06-04','2028-06-05');
#33=IFCWORKTIME('Christmas',.PREDICTED.,$,$,'2028-12-25','2028-12-26');
#34=IFCWORKTIME('Construction holiday (northern region)',.PREDICTED.,$,$,'2028-07-24','2028-08-13');
#35=IFCWORKCALENDAR('0lkqpEVvW6bxx3kbX8wbIw',#6,'Construction calendar NL','Standard construction calendar: Mon-Fri 07:00-16:00',$,(#16),(#17,#18,#19,#20,#21,#22,#23,#24,#25,#26,#27,#28,#29,#30,#31,#32,#33,#34),.FIRSTSHIFT.);
#36=IFCPROPERTYSINGLEVALUE('HoursPerDay',$,IFCREAL(8),$);
#37=IFCPROPERTYSET('0k27bqdrnAwTZYiCsSymB1',#6,'OPS_Calendar',$,(#36));
#38=IFCRELDEFINESBYPROPERTIES('0skbtfzgi5mBJihmpGbHms',#6,$,$,(#35),#37);
#39=IFCWORKPLAN('28OXQoyln7P5kAlCOVSBiO',#6,'Agriport A7 Data Centre','5,000 m2 data centre with its own power supply',$,$,'2026-09-28T13:27:22',$,$,$,$,$,'2027-03-01T07:00:00','2027-03-16T07:00:00',.PLANNED.);
#40=IFCWORKSCHEDULE('2PYg2cwhPXcT6VXqoff707',#6,'Construction schedule v1.0',$,$,$,'2026-09-28T13:27:22',$,$,$,$,$,'2027-03-01T07:00:00','2027-03-16T07:00:00',.PLANNED.);
#41=IFCRELAGGREGATES('2NOw$dYpwiaoM8OsnhTnkR',#6,$,$,#39,(#40));
#42=IFCTASKTIME('1. Preparation Time',.PREDICTED.,$,.WORKTIME.,'P0Y0M22D','2027-03-01T07:00:00','2027-03-05T07:00:00','2027-03-01T07:00:00','2027-04-01T07:00:00','2027-03-01T07:00:00','2027-10-15T07:00:00','P0Y0M0D','P0Y0M0D',.T.,$,$,$,$,$,0.00);
#43=IFCTASK('0PDAzSWSwV2NGzLz9e0jhh',#6,'1. Preparation',$,$,'1',$,$,$,.F.,$,#42,.CONSTRUCTION.);
#44=IFCTASKTIME('Prepare site for construction Time',.PREDICTED.,$,.WORKTIME.,'P0Y0M8D','2027-03-01T07:00:00','2027-03-10T07:00:00','2027-03-01T07:00:00','2027-03-10T07:00:00','2027-03-01T07:00:00','2027-03-10T07:00:00','P0Y0M0D','P0Y0M0D',.T.,$,$,$,$,$,0.00);
#45=IFCTASK('0$H6WfFaH9P4uN2nNw79to',#6,'Prepare site for construction',$,$,'1.1',$,$,$,.F.,$,#44,.CONSTRUCTION.);
#46=IFCTASKTIME('10 kV utility connections Time',.PREDICTED.,$,.WORKTIME.,'P0Y0M10D','2027-03-01T07:00:00','2027-03-12T07:00:00','2027-03-11T07:00:00','2027-03-24T07:00:00','2027-09-28T07:00:00','2027-10-11T07:00:00','P0Y0M0D','P0Y0M122D',.F.,$,$,$,$,$,0.00);
#47=IFCTASK('0cFWiV8_BWJnPvYhVD3Y3b',#6,'10 kV utility connections',$,$,'1.2',$,$,$,.F.,$,#46,.INSTALLATION.);
#48=IFCTASKTIME('Temporary security fencing Time',.PREDICTED.,$,.WORKTIME.,'P0Y0M3D','2027-03-01T07:00:00','2027-03-03T07:00:00','2027-03-25T07:00:00','2027-03-31T07:00:00','2027-10-12T07:00:00','2027-10-14T07:00:00','P0Y0M0D','P0Y0M122D',.F.,$,$,$,$,$,0.00);
#49=IFCTASK('23Rzc$0Ud7WB5v7mKsoTWg',#6,'Temporary security fencing',$,$,'1.3',$,$,$,.F.,$,#48,.INSTALLATION.);
#50=IFCTASKTIME('Start of construction Time',.PREDICTED.,$,.WORKTIME.,'P0Y0M0D','2027-03-01T07:00:00','2027-03-01T07:00:00','2027-04-01T07:00:00','2027-04-01T07:00:00','2027-10-15T07:00:00','2027-10-15T07:00:00','P0Y0M122D','P0Y0M122D',.F.,$,$,$,$,$,0.00);
#51=IFCTASK('3C9$j5urq2Vgtemwv4V7t0',#6,'Start of construction',$,$,'1.4',$,$,$,.T.,$,#50,.CONSTRUCTION.);
#52=IFCTASKTIME('2. Foundations Time',.PREDICTED.,$,.WORKTIME.,'P0Y0M31D','2027-03-01T07:00:00','2027-03-05T07:00:00','2027-03-16T07:00:00','2027-04-30T07:00:00','2027-03-16T07:00:00','2027-10-15T07:00:00','P0Y0M0D','P0Y0M0D',.T.,$,$,$,$,$,0.00);
#53=IFCTASK('0bS551GEduI8Z6uzkAdH9K',#6,'2. Foundations',$,$,'2',$,$,$,.F.,$,#52,.CONSTRUCTION.);
#54=IFCTASKTIME('Pile driving, foundation piles Time',.PREDICTED.,$,.WORKTIME.,'P0Y0M10D','2027-03-01T07:00:00','2027-03-12T07:00:00','2027-03-16T07:00:00','2027-03-31T07:00:00','2027-03-16T07:00:00','2027-03-31T07:00:00','P0Y0M0D','P0Y0M0D',.T.,$,$,$,$,$,0.00);
#55=IFCTASK('3CDvDzYhpun0qoIGmEZ8PB',#6,'Pile driving, foundation piles',$,$,'2.1',$,$,$,.F.,$,#54,.CONSTRUCTION.);
#56=IFCTASKTIME('Foundation beams Time',.PREDICTED.,$,.WORKTIME.,'P0Y0M8D','2027-03-01T07:00:00','2027-03-10T07:00:00','2027-04-01T07:00:00','2027-04-12T07:00:00','2027-09-17T07:00:00','2027-09-28T07:00:00','P0Y0M0D','P0Y0M102D',.F.,$,$,$,$,$,0.00);
#57=IFCTASK('1$PpL1j$68tQbBrsGbpTQX',#6,'Foundation beams',$,$,'2.2',$,$,$,.F.,$,#56,.CONSTRUCTION.);
#58=IFCTASKTIME('Pour slab on piles Time',.PREDICTED.,$,.WORKTIME.,'P0Y0M8D','2027-03-01T07:00:00','2027-03-10T07:00:00','2027-04-13T07:00:00','2027-04-22T07:00:00','2027-09-29T07:00:00','2027-10-08T07:00:00','P0Y0M0D','P0Y0M102D',.F.,$,$,$,$,$,0.00);
#59=IFCTASK('3A55uCjbKRhpS8STWPcWIV',#6,'Pour slab on piles',$,$,'2.3',$,$,$,.F.,$,#58,.CONSTRUCTION.);
#60=IFCTASKTIME('Cable trays in floor Time',.PREDICTED.,$,.WORKTIME.,'P0Y0M5D','2027-03-01T07:00:00','2027-03-05T07:00:00','2027-04-23T07:00:00','2027-04-30T07:00:00','2027-10-11T07:00:00','2027-10-15T07:00:00','P0Y0M102D','P0Y0M102D',.F.,$,$,$,$,$,0.00);
#61=IFCTASK('2KHiWsFI3Ea608k8utBFWd',#6,'Cable trays in floor',$,$,'2.4',$,$,$,.F.,$,#60,.INSTALLATION.);
#62=IFCTASKTIME('3. Structure Time',.PREDICTED.,$,.WORKTIME.,'P0Y0M38D','2027-03-01T07:00:00','2027-03-05T07:00:00','2027-03-22T07:00:00','2027-05-20T07:00:00','2027-03-22T07:00:00','2027-10-15T07:00:00','P0Y0M0D','P0Y0M0D',.T.,$,$,$,$,$,0.00);
#63=IFCTASK('05fAkHIoQM8rkwZVkcqa$T',#6,'3. Structure',$,$,'3',$,$,$,.F.,$,#62,.CONSTRUCTION.);
#64=IFCTASKTIME('Precast concrete walls Time',.PREDICTED.,$,.WORKTIME.,'P0Y0M12D','2027-03-01T07:00:00','2027-03-16T07:00:00','2027-03-22T07:00:00','2027-04-08T07:00:00','2027-03-22T07:00:00','2027-04-08T07:00:00','P0Y0M0D','P0Y0M0D',.T.,$,$,$,$,$,0.00);
#65=IFCTASK('1N$T_HYChnwXWXC8dcksCl',#6,'Precast concrete walls',$,$,'3.1',$,$,$,.F.,$,#64,.CONSTRUCTION.);
#66=IFCTASKTIME('Structural steel, roof Time',.PREDICTED.,$,.WORKTIME.,'P0Y0M8D','2027-03-01T07:00:00','2027-03-10T07:00:00','2027-04-09T07:00:00','2027-04-20T07:00:00','2027-04-09T07:00:00','2027-04-20T07:00:00','P0Y0M0D','P0Y0M0D',.T.,$,$,$,$,$,0.00);
#67=IFCTASK('174djssBffP1K0vei3zTRd',#6,'Structural steel, roof',$,$,'3.2',$,$,$,.F.,$,#66,.CONSTRUCTION.);
#68=IFCTASKTIME('Sandwich roof panels Time',.PREDICTED.,$,.WORKTIME.,'P0Y0M8D','2027-03-01T07:00:00','2027-03-10T07:00:00','2027-04-21T07:00:00','2027-05-03T07:00:00','2027-04-21T07:00:00','2027-05-03T07:00:00','P0Y0M0D','P0Y0M0D',.T.,$,$,$,$,$,0.00);
#69=IFCTASK('2XdQvBOJdxpsS1ZR9JCjPo',#6,'Sandwich roof panels',$,$,'3.3',$,$,$,.F.,$,#68,.INSTALLATION.);
#70=IFCTASKTIME('Raised computer floor Time',.PREDICTED.,$,.WORKTIME.,'P0Y0M10D','2027-03-01T07:00:00','2027-03-12T07:00:00','2027-05-04T07:00:00','2027-05-20T07:00:00','2027-05-04T07:00:00','2027-05-20T07:00:00','P0Y0M0D','P0Y0M0D',.T.,$,$,$,$,$,0.00);
#71=IFCTASK('1kVvWcEVAsDT_GtyIBc7fn',#6,'Raised computer floor',$,$,'3.4',$,$,$,.F.,$,#70,.INSTALLATION.);
#72=IFCTASKTIME('Topping out Time',.PREDICTED.,$,.WORKTIME.,'P0Y0M0D','2027-03-01T07:00:00','2027-03-01T07:00:00','2027-05-20T07:00:00','2027-05-20T07:00:00','2027-10-15T07:00:00','2027-10-15T07:00:00','P0Y0M91D','P0Y0M91D',.F.,$,$,$,$,$,0.00);
#73=IFCTASK('2M9iugp1VlqRF6VM3NYUzc',#6,'Topping out',$,$,'3.5',$,$,$,.T.,$,#72,.CONSTRUCTION.);
#74=IFCTASKTIME('4. Facade & weathertight Time',.PREDICTED.,$,.WORKTIME.,'P0Y0M20D','2027-03-01T07:00:00','2027-03-05T07:00:00','2027-05-10T07:00:00','2027-06-07T07:00:00','2027-05-10T07:00:00','2027-10-15T07:00:00','P0Y0M0D','P0Y0M0D',.T.,$,$,$,$,$,0.00);
#75=IFCTASK('35GhBbRJVMUcQE90WI$wQ4',#6,'4. Facade & weathertight',$,$,'4',$,$,$,.F.,$,#74,.CONSTRUCTION.);
#76=IFCTASKTIME('Facade insulation and cladding Time',.PREDICTED.,$,.WORKTIME.,'P0Y0M10D','2027-03-01T07:00:00','2027-03-12T07:00:00','2027-05-10T07:00:00','2027-05-24T07:00:00','2027-05-10T07:00:00','2027-05-24T07:00:00','P0Y0M0D','P0Y0M0D',.T.,$,$,$,$,$,0.00);
#77=IFCTASK('0GahwBaM1trnjCqKLkPjWa',#6,'Facade insulation and cladding',$,$,'4.1',$,$,$,.F.,$,#76,.INSTALLATION.);
#78=IFCTASKTIME('Loading docks and doors Time',.PREDICTED.,$,.WORKTIME.,'P0Y0M5D','2027-03-01T07:00:00','2027-03-05T07:00:00','2027-05-25T07:00:00','2027-05-31T07:00:00','2027-05-25T07:00:00','2027-05-31T07:00:00','P0Y0M0D','P0Y0M0D',.T.,$,$,$,$,$,0.00);
#79=IFCTASK('0prc31lSfXD7BuMlr91Dr_',#6,'Loading docks and doors',$,$,'4.2',$,$,$,.F.,$,#78,.INSTALLATION.);
#80=IFCTASKTIME('Roof waterproofing Time',.PREDICTED.,$,.WORKTIME.,'P0Y0M5D','2027-03-01T07:00:00','2027-03-05T07:00:00','2027-06-01T07:00:00','2027-06-07T07:00:00','2027-06-01T07:00:00','2027-06-07T07:00:00','P0Y0M0D','P0Y0M0D',.T.,$,$,$,$,$,0.00);
#81=IFCTASK('2Yvx2W7oxvubcaJ3N8yt8B',#6,'Roof waterproofing',$,$,'4.3',$,$,$,.F.,$,#80,.CONSTRUCTION.);
#82=IFCTASKTIME('Wind and weathertight Time',.PREDICTED.,$,.WORKTIME.,'P0Y0M0D','2027-03-01T07:00:00','2027-03-01T07:00:00','2027-06-07T07:00:00','2027-06-07T07:00:00','2027-10-15T07:00:00','2027-10-15T07:00:00','P0Y0M79D','P0Y0M79D',.F.,$,$,$,$,$,0.00);
#83=IFCTASK('1KWLv3gALdjwquNgFk1iwD',#6,'Wind and weathertight',$,$,'4.4',$,$,$,.T.,$,#82,.CONSTRUCTION.);
#84=IFCTASKTIME('5. Power & cooling Time',.PREDICTED.,$,.WORKTIME.,'P0Y0M62D','2027-03-01T07:00:00','2027-03-05T07:00:00','2027-06-08T07:00:00','2027-09-22T07:00:00','2027-06-08T07:00:00','2027-10-15T07:00:00','P0Y0M0D','P0Y0M0D',.T.,$,$,$,$,$,0.00);
#85=IFCTASK('1ZBuNz1u7LJw9oCfA9yBnk',#6,'5. Power & cooling',$,$,'5',$,$,$,.F.,$,#84,.INSTALLATION.);
#86=IFCTASKTIME('10 kV transformers Time',.PREDICTED.,$,.WORKTIME.,'P0Y0M8D','2027-03-01T07:00:00','2027-03-10T07:00:00','2027-06-08T07:00:00','2027-06-17T07:00:00','2027-06-08T07:00:00','2027-06-17T07:00:00','P0Y0M0D','P0Y0M0D',.T.,$,$,$,$,$,0.00);
#87=IFCTASK('14Id8SuxEweJMacgtWBZPh',#6,'10 kV transformers',$,$,'5.1',$,$,$,.F.,$,#86,.INSTALLATION.);
#88=IFCTASKTIME('UPS systems Time',.PREDICTED.,$,.WORKTIME.,'P0Y0M10D','2027-03-01T07:00:00','2027-03-12T07:00:00','2027-06-18T07:00:00','2027-07-01T07:00:00','2027-07-13T07:00:00','2027-08-16T07:00:00','P0Y0M0D','P0Y0M17D',.F.,$,$,$,$,$,0.00);
#89=IFCTASK('34Bi7KGnYPdFXfhAQW1EHc',#6,'UPS systems',$,$,'5.2',$,$,$,.F.,$,#88,.INSTALLATION.);
#90=IFCTASKTIME('Emergency generators Time',.PREDICTED.,$,.WORKTIME.,'P0Y0M8D','2027-03-01T07:00:00','2027-03-10T07:00:00','2027-07-02T07:00:00','2027-07-13T07:00:00','2027-08-17T07:00:00','2027-08-26T07:00:00','P0Y0M0D','P0Y0M17D',.F.,$,$,$,$,$,0.00);
#91=IFCTASK('3WvCjoOHiMelSAUhzICWY$',#6,'Emergency generators',$,$,'5.3',$,$,$,.F.,$,#90,.INSTALLATION.);
#92=IFCTASKTIME('Main distribution and PDUs Time',.PREDICTED.,$,.WORKTIME.,'P0Y0M10D','2027-03-01T07:00:00','2027-03-12T07:00:00','2027-07-14T07:00:00','2027-08-17T07:00:00','2027-08-27T07:00:00','2027-09-09T07:00:00','P0Y0M0D','P0Y0M17D',.F.,$,$,$,$,$,0.00);
#93=IFCTASK('1wi51xblrHPdCqiaWtJLYf',#6,'Main distribution and PDUs',$,$,'5.4',$,$,$,.F.,$,#92,.INSTALLATION.);
#94=IFCTASKTIME('Chillers Time',.PREDICTED.,$,.WORKTIME.,'P0Y0M10D','2027-03-01T07:00:00','2027-03-12T07:00:00','2027-08-18T07:00:00','2027-08-31T07:00:00','2027-09-10T07:00:00','2027-09-23T07:00:00','P0Y0M0D','P0Y0M17D',.F.,$,$,$,$,$,0.00);
#95=IFCTASK('3soBRgQIQnWdOzMPTmxsrk',#6,'Chillers',$,$,'5.5',$,$,$,.F.,$,#94,.INSTALLATION.);
#96=IFCTASKTIME('CRAH units, data halls Time',.PREDICTED.,$,.WORKTIME.,'P0Y0M8D','2027-03-01T07:00:00','2027-03-10T07:00:00','2027-09-01T07:00:00','2027-09-10T07:00:00','2027-09-24T07:00:00','2027-10-05T07:00:00','P0Y0M0D','P0Y0M17D',.F.,$,$,$,$,$,0.00);
#97=IFCTASK('3UIrcDoVjJC5wvRjCoFJU8',#6,'CRAH units, data halls',$,$,'5.6',$,$,$,.F.,$,#96,.INSTALLATION.);
#98=IFCTASKTIME('External cooling towers Time',.PREDICTED.,$,.WORKTIME.,'P0Y0M8D','2027-03-01T07:00:00','2027-03-10T07:00:00','2027-09-13T07:00:00','2027-09-22T07:00:00','2027-10-06T07:00:00','2027-10-15T07:00:00','P0Y0M17D','P0Y0M17D',.F.,$,$,$,$,$,0.00);
#99=IFCTASK('10GcTHnxP3Ydv4i3WXyIEc',#6,'External cooling towers',$,$,'5.7',$,$,$,.F.,$,#98,.INSTALLATION.);
#100=IFCTASKTIME('6. ICT & security Time',.PREDICTED.,$,.WORKTIME.,'P0Y0M33D','2027-03-01T07:00:00','2027-03-05T07:00:00','2027-07-21T07:00:00','2027-09-24T07:00:00','2027-07-21T07:00:00','2027-09-24T07:00:00','P0Y0M0D','P0Y0M0D',.T.,$,$,$,$,$,0.00);
#101=IFCTASK('3MQ9U7LDVcVWD1XIfYqlAF',#6,'6. ICT & security',$,$,'6',$,$,$,.F.,$,#100,.INSTALLATION.);
#102=IFCTASKTIME('Incoming fibre optics Time',.PREDICTED.,$,.WORKTIME.,'P0Y0M5D','2027-03-01T07:00:00','2027-03-05T07:00:00','2027-07-21T07:00:00','2027-08-17T07:00:00','2027-07-21T07:00:00','2027-08-17T07:00:00','P0Y0M0D','P0Y0M0D',.T.,$,$,$,$,$,0.00);
#103=IFCTASK('1X5_C5VbvaREYMKt0xlMhy',#6,'Incoming fibre optics',$,$,'6.1',$,$,$,.F.,$,#102,.INSTALLATION.);
#104=IFCTASKTIME('Patch panels and cabling Time',.PREDICTED.,$,.WORKTIME.,'P0Y0M8D','2027-03-01T07:00:00','2027-03-10T07:00:00','2027-08-18T07:00:00','2027-08-27T07:00:00','2027-08-18T07:00:00','2027-08-27T07:00:00','P0Y0M0D','P0Y0M0D',.T.,$,$,$,$,$,0.00);
#105=IFCTASK('3Fhagk1xwwzn71SkVWnBLS',#6,'Patch panels and cabling',$,$,'6.2',$,$,$,.F.,$,#104,.INSTALLATION.);
#106=IFCTASKTIME('Gas fire suppression system Time',.PREDICTED.,$,.WORKTIME.,'P0Y0M5D','2027-03-01T07:00:00','2027-03-05T07:00:00','2027-08-30T07:00:00','2027-09-03T07:00:00','2027-08-30T07:00:00','2027-09-03T07:00:00','P0Y0M0D','P0Y0M0D',.T.,$,$,$,$,$,0.00);
#107=IFCTASK('0eKmef51XpS6qlBmAxPyP9',#6,'Gas fire suppression system',$,$,'6.3',$,$,$,.F.,$,#106,.INSTALLATION.);
#108=IFCTASKTIME('Biometric access control Time',.PREDICTED.,$,.WORKTIME.,'P0Y0M5D','2027-03-01T07:00:00','2027-03-05T07:00:00','2027-09-06T07:00:00','2027-09-10T07:00:00','2027-09-06T07:00:00','2027-09-10T07:00:00','P0Y0M0D','P0Y0M0D',.T.,$,$,$,$,$,0.00);
#109=IFCTASK('2U4fAV16wspcX9Pvrh_oyQ',#6,'Biometric access control',$,$,'6.4',$,$,$,.F.,$,#108,.INSTALLATION.);
#110=IFCTASKTIME('CCTV system Time',.PREDICTED.,$,.WORKTIME.,'P0Y0M5D','2027-03-01T07:00:00','2027-03-05T07:00:00','2027-09-13T07:00:00','2027-09-17T07:00:00','2027-09-13T07:00:00','2027-09-17T07:00:00','P0Y0M0D','P0Y0M0D',.T.,$,$,$,$,$,0.00);
#111=IFCTASK('3uVxVEDdAV17rr86jPD2Af',#6,'CCTV system',$,$,'6.5',$,$,$,.F.,$,#110,.INSTALLATION.);
#112=IFCTASKTIME('BMS monitoring Time',.PREDICTED.,$,.WORKTIME.,'P0Y0M5D','2027-03-01T07:00:00','2027-03-05T07:00:00','2027-09-20T07:00:00','2027-09-24T07:00:00','2027-09-20T07:00:00','2027-09-24T07:00:00','P0Y0M0D','P0Y0M0D',.T.,$,$,$,$,$,0.00);
#113=IFCTASK('3k2Rq$N9JDdst1NqZA9gka',#6,'BMS monitoring',$,$,'6.6',$,$,$,.F.,$,#112,.INSTALLATION.);
#114=IFCTASKTIME('7. Handover Time',.PREDICTED.,$,.WORKTIME.,'P0Y0M15D','2027-03-01T07:00:00','2027-03-05T07:00:00','2027-09-27T07:00:00','2027-10-15T07:00:00','2027-09-27T07:00:00','2027-10-15T07:00:00','P0Y0M0D','P0Y0M0D',.T.,$,$,$,$,$,0.00);
#115=IFCTASK('0jnNJ7s02qabHH77qn$TW1',#6,'7. Handover',$,$,'7',$,$,$,.F.,$,#114,.CONSTRUCTION.);
#116=IFCTASKTIME('Test failover scenario Time',.PREDICTED.,$,.WORKTIME.,'P0Y0M5D','2027-03-01T07:00:00','2027-03-05T07:00:00','2027-09-27T07:00:00','2027-10-01T07:00:00','2027-09-27T07:00:00','2027-10-01T07:00:00','P0Y0M0D','P0Y0M0D',.T.,$,$,$,$,$,0.00);
#117=IFCTASK('3Wnm9Q4O9AWkjmt61LY7nK',#6,'Test failover scenario',$,$,'7.1',$,$,$,.F.,$,#116,.ATTENDANCE.);
#118=IFCTASKTIME('Site finishing Time',.PREDICTED.,$,.WORKTIME.,'P0Y0M5D','2027-03-01T07:00:00','2027-03-05T07:00:00','2027-10-04T07:00:00','2027-10-08T07:00:00','2027-10-04T07:00:00','2027-10-08T07:00:00','P0Y0M0D','P0Y0M0D',.T.,$,$,$,$,$,0.00);
#119=IFCTASK('00WpOnRqAUToTdeSmRGfMc',#6,'Site finishing',$,$,'7.2',$,$,$,.F.,$,#118,.CONSTRUCTION.);
#120=IFCTASKTIME('Tier III certification Time',.PREDICTED.,$,.WORKTIME.,'P0Y0M5D','2027-03-01T07:00:00','2027-03-05T07:00:00','2027-10-11T07:00:00','2027-10-15T07:00:00','2027-10-11T07:00:00','2027-10-15T07:00:00','P0Y0M0D','P0Y0M0D',.T.,$,$,$,$,$,0.00);
#121=IFCTASK('1ajEF2rOFCQnRghpH5Uas9',#6,'Tier III certification',$,$,'7.3',$,$,$,.F.,$,#120,.ATTENDANCE.);
#122=IFCTASKTIME('Handover Time',.PREDICTED.,$,.WORKTIME.,'P0Y0M0D','2027-03-01T07:00:00','2027-03-01T07:00:00','2027-10-15T07:00:00','2027-10-15T07:00:00','2027-10-15T07:00:00','2027-10-15T07:00:00','P0Y0M0D','P0Y0M0D',.T.,$,$,$,$,$,0.00);
#123=IFCTASK('2b1VJskz_ArkdO3BYD6tLf',#6,'Handover',$,$,'7.4',$,$,$,.T.,$,#122,.CONSTRUCTION.);
#124=IFCRELNESTS('2dm7wOdKj99gMs39jKIRxA',#6,'WBS 1. Preparation',$,#43,( #45,#47,#49,#51));
#125=IFCRELNESTS('1mzRJy4D7lVdy4HpVAhyqH',#6,'WBS 2. Foundations',$,#53,( #55,#57,#59,#61));
#126=IFCRELNESTS('2tovNDFeROfW58UWu6cmNp',#6,'WBS 3. Structure',$,#63,( #65,#67,#69,#71,#73));
#127=IFCRELNESTS('0N_dGmjk3Hh_BjbG8MpR94',#6,'WBS 4. Facade & weathertight',$,#75,( #77,#79,#81,#83));
#128=IFCRELNESTS('1777H2SnohyJU9ZVyTdu1N',#6,'WBS 5. Power & cooling',$,#85,( #87,#89,#91,#93,#95,#97,#99));
#129=IFCRELNESTS('2m4tP1r$BXWoykIs7yoq$k',#6,'WBS 6. ICT & security',$,#101,( #103,#105,#107,#109,#111,#113));
#130=IFCRELNESTS('13a3$397qFIAS72Hc2LqY6',#6,'WBS 7. Handover',$,#115,( #117,#119,#121,#123));
#131=IFCRELNESTS('2TGryhYJDEnFxuo0MjqI7m',#6,'WBS Hoofd',$,#40,(#43,#53,#63,#75,#85,#101,#115));
#132=IFCRELSEQUENCE('1BLzV3zF3adO3Coq$56qqq',#6,$,$,#45,#47,$,.FINISH_START.,$);
#133=IFCRELSEQUENCE('0kRxxP$sbeSG75wYxgKuET',#6,$,$,#47,#49,$,.FINISH_START.,$);
#134=IFCRELSEQUENCE('0rLTDoiWGXA7L3j1f6L3U8',#6,$,$,#49,#51,$,.FINISH_START.,$);
#135=IFCRELSEQUENCE('24$P1O3oLbfPhFL3Be2Y3V',#6,$,$,#55,#57,$,.FINISH_START.,$);
#136=IFCRELSEQUENCE('1DqgLU0pElz0DMx_Slhf_k',#6,$,$,#57,#59,$,.FINISH_START.,$);
#137=IFCRELSEQUENCE('2Inb42miiZu7ETdTeQyQxC',#6,$,$,#59,#61,$,.FINISH_START.,$);
#138=IFCRELSEQUENCE('3xr4I1rtddYkFOZdp0XSgM',#6,$,$,#65,#67,$,.FINISH_START.,$);
#139=IFCRELSEQUENCE('0dT8l84SNt3k5Ot6FqMPXI',#6,$,$,#67,#69,$,.FINISH_START.,$);
#140=IFCRELSEQUENCE('3iAaFHj2Ohn4ByFQ4BexhO',#6,$,$,#69,#71,$,.FINISH_START.,$);
#141=IFCRELSEQUENCE('0IAgE_hkCjBX7M6YZPPc12',#6,$,$,#71,#73,$,.FINISH_START.,$);
#142=IFCRELSEQUENCE('2TxpXHW04xUpWZlalL$F_e',#6,$,$,#77,#79,$,.FINISH_START.,$);
#143=IFCRELSEQUENCE('1jEkkYk35ZLxhARTNo5IgD',#6,$,$,#79,#81,$,.FINISH_START.,$);
#144=IFCRELSEQUENCE('0V5kSfH4jw8359vu_d0P86',#6,$,$,#81,#83,$,.FINISH_START.,$);
#145=IFCRELSEQUENCE('1Jx075fMq$OoBzm3BMwQRZ',#6,$,$,#87,#89,$,.FINISH_START.,$);
#146=IFCRELSEQUENCE('0BvgU3AiWNu_PV893Bo30p',#6,$,$,#89,#91,$,.FINISH_START.,$);
#147=IFCRELSEQUENCE('0mq4cc6GqMoWqKw8ZELJTO',#6,$,$,#91,#93,$,.FINISH_START.,$);
#148=IFCRELSEQUENCE('3AfC9u5brtuzX5zPiELMTT',#6,$,$,#93,#95,$,.FINISH_START.,$);
#149=IFCRELSEQUENCE('3g60GV4SdPy4pNSITsC4E5',#6,$,$,#95,#97,$,.FINISH_START.,$);
#150=IFCRELSEQUENCE('2A3dua_0fCgoKhb4guIUaY',#6,$,$,#97,#99,$,.FINISH_START.,$);
#151=IFCRELSEQUENCE('0yZNG1C3DUuQcxhM4UTI$5',#6,$,$,#103,#105,$,.FINISH_START.,$);
#152=IFCRELSEQUENCE('2Dst5frBvnkp1Xtn6W0khQ',#6,$,$,#105,#107,$,.FINISH_START.,$);
#153=IFCRELSEQUENCE('0G$3CnNXvK_Oza9ywA9nHr',#6,$,$,#107,#109,$,.FINISH_START.,$);
#154=IFCRELSEQUENCE('3POxhc5AWOeFA6KAkvZJ2r',#6,$,$,#109,#111,$,.FINISH_START.,$);
#155=IFCRELSEQUENCE('0dUYhkzn_nJRfbeoYOkWGe',#6,$,$,#111,#113,$,.FINISH_START.,$);
#156=IFCRELSEQUENCE('3O4LtoAqgchUnnzoPbU1H7',#6,$,$,#117,#119,$,.FINISH_START.,$);
#157=IFCRELSEQUENCE('1bvXrW3BD1nnkMaG9E_iMP',#6,$,$,#119,#121,$,.FINISH_START.,$);
#158=IFCRELSEQUENCE('0BBX1kwZlVElatkHZ8$GWq',#6,$,$,#121,#123,$,.FINISH_START.,$);
#159=IFCLAGTIME('Lag',.PREDICTED.,$,IFCDURATION('P11D'),.WORKTIME.);
#160=IFCRELSEQUENCE('3TEdI_E2YIF2hR9WJUXtDp',#6,$,$,#45,#55,#159,.START_START.,$);
#161=IFCLAGTIME('Lag',.PREDICTED.,$,IFCRATIOMEASURE(0.4),.WORKTIME.);
#162=IFCRELSEQUENCE('2ClKWYyLHHO30RIuk$7oaj',#6,$,$,#55,#65,#161,.START_START.,$);
#163=IFCLAGTIME('Lag',.PREDICTED.,$,IFCDURATION('-P8D'),.WORKTIME.);
#164=IFCRELSEQUENCE('1VwCRATBFRPbEpD_cWrHlx',#6,$,$,#71,#77,#163,.FINISH_START.,$);
#165=IFCLAGTIME('Lag',.PREDICTED.,$,IFCDURATION('P2D'),.WORKTIME.);
#166=IFCRELSEQUENCE('2PKwztP8x6OFvvMV9TYk7i',#6,$,$,#71,#81,#165,.FINISH_FINISH.,$);
#167=IFCRELSEQUENCE('2H_IGI5ya$ItgvDHKLR17q',#6,$,$,#81,#87,$,.FINISH_START.,$);
#168=IFCLAGTIME('Lag',.PREDICTED.,$,IFCDURATION('P31D'),.WORKTIME.);
#169=IFCRELSEQUENCE('2pmyEGY1ftrarm3kKscT6E',#6,$,$,#87,#103,#168,.START_START.,$);
#170=IFCRELSEQUENCE('2DJFB7dSoLRkYE3i71ZpYi',#6,$,$,#113,#117,$,.FINISH_START.,$);
#171=IFCLABORRESOURCE('1m82u2p3j7C842P4Ien9RC',#6,'Electricians','Power distribution from the 10 kV connection down to the PDUs \X2\2014\X0\ the dominant discipline here',$,$,$,$,.USERDEFINED.);
#172=IFCLABORRESOURCE('2AdFYMyQOfDDM16bWCAewn',#6,'Mechanical fitters',$,$,$,$,$,.USERDEFINED.);
#173=IFCLABORRESOURCE('0DOydS5WT4qMUBnqJq9rMP',#6,'ICT cabling technicians',$,$,$,$,$,.USERDEFINED.);
#174=IFCLABORRESOURCE('2q6t27ginjlaFMR8VaWAdt',#6,'Commissioning engineer','Integral testing of the failover scenario and the Tier III certification',$,$,$,$,.USERDEFINED.);
#175=IFCLABORRESOURCE('2SSk3jKsB01oKcCdlCCDrT',#6,'Structural crew','Shell and core; secondary on this project',$,$,$,$,.USERDEFINED.);
#176=IFCCONSTRUCTIONEQUIPMENTRESOURCE('06K0xAonczbYvzdYjaUILg',#6,'Mobile crane',$,$,$,$,$,.USERDEFINED.);
#177=IFCSUBCONTRACTRESOURCE('217BuXJjf8V9mk_hld2COf',#6,'UPS and generator supplier',$,$,$,$,$,.USERDEFINED.);
#178=IFCSUBCONTRACTRESOURCE('2O9HK5RG3InagP6zWM_zIg',#6,'Cooling contractor',$,$,$,$,$,.USERDEFINED.);
#179=IFCSUBCONTRACTRESOURCE('1hqjEDbDoju$BmyrOH_0fW',#6,'Fire suppression contractor',$,$,$,$,$,.USERDEFINED.);
#180=IFCPROPERTYSINGLEVALUE('MaxUnits',$,IFCREAL(12),$);
#181=IFCPROPERTYSINGLEVALUE('CostPerHour',$,IFCMONETARYMEASURE(49),$);
#182=IFCPROPERTYSINGLEVALUE('Color',$,IFCTEXT('#1E293B'),$);
#183=IFCPROPERTYSET('283oZwdymxi1jF40j9kyEq',#6,'OPS_Resource',$,(#180,#181,#182));
#184=IFCRELDEFINESBYPROPERTIES('2m2ysZHmE8$gkAEASCSiiR',#6,$,$,(#171),#183);
#185=IFCPROPERTYSINGLEVALUE('MaxUnits',$,IFCREAL(8),$);
#186=IFCPROPERTYSINGLEVALUE('CostPerHour',$,IFCMONETARYMEASURE(48),$);
#187=IFCPROPERTYSINGLEVALUE('Color',$,IFCTEXT('#B91C1C'),$);
#188=IFCPROPERTYSET('0EdAMBL91O8Es6WqRlFjm4',#6,'OPS_Resource',$,(#185,#186,#187));
#189=IFCRELDEFINESBYPROPERTIES('07bpD8WM75SD73axo4z7q6',#6,$,$,(#172),#188);
#190=IFCPROPERTYSINGLEVALUE('MaxUnits',$,IFCREAL(6),$);
#191=IFCPROPERTYSINGLEVALUE('CostPerHour',$,IFCMONETARYMEASURE(47),$);
#192=IFCPROPERTYSINGLEVALUE('Color',$,IFCTEXT('#DB2777'),$);
#193=IFCPROPERTYSET('30vMBHGrauX2y1UeX9R9pB',#6,'OPS_Resource',$,(#190,#191,#192));
#194=IFCRELDEFINESBYPROPERTIES('2m5oqnd2Wb$lvEM20v$$v8',#6,$,$,(#173),#193);
#195=IFCPROPERTYSINGLEVALUE('MaxUnits',$,IFCREAL(2),$);
#196=IFCPROPERTYSINGLEVALUE('CostPerHour',$,IFCMONETARYMEASURE(85),$);
#197=IFCPROPERTYSINGLEVALUE('Color',$,IFCTEXT('#C2410C'),$);
#198=IFCPROPERTYSET('1aIFtmPoTM9$7VkFZtpp6o',#6,'OPS_Resource',$,(#195,#196,#197));
#199=IFCRELDEFINESBYPROPERTIES('0DCB4E4Zum3tGzLeZ5KykO',#6,$,$,(#174),#198);
#200=IFCPROPERTYSINGLEVALUE('MaxUnits',$,IFCREAL(8),$);
#201=IFCPROPERTYSINGLEVALUE('CostPerHour',$,IFCMONETARYMEASURE(45),$);
#202=IFCPROPERTYSINGLEVALUE('Color',$,IFCTEXT('#6366F1'),$);
#203=IFCPROPERTYSET('04nTgAiBw8gME7MkvVhkrL',#6,'OPS_Resource',$,(#200,#201,#202));
#204=IFCRELDEFINESBYPROPERTIES('2j9hLstwbLxwetBGU50n_8',#6,$,$,(#175),#203);
#205=IFCPROPERTYSINGLEVALUE('CostPerHour',$,IFCMONETARYMEASURE(95),$);
#206=IFCPROPERTYSINGLEVALUE('Color',$,IFCTEXT('#0D9488'),$);
#207=IFCPROPERTYSET('0KyvavjmHHmXx$RhBW5mVJ',#6,'OPS_Resource',$,(#205,#206));
#208=IFCRELDEFINESBYPROPERTIES('20upxUYqo8mMXU56tYSwOs',#6,$,$,(#176),#207);
#209=IFCPROPERTYSINGLEVALUE('MaxUnits',$,IFCREAL(4),$);
#210=IFCPROPERTYSINGLEVALUE('CostPerHour',$,IFCMONETARYMEASURE(95),$);
#211=IFCPROPERTYSINGLEVALUE('Color',$,IFCTEXT('#D97706'),$);
#212=IFCPROPERTYSET('3HI1aIVdzFITSP$hCIaQ1z',#6,'OPS_Resource',$,(#209,#210,#211));
#213=IFCRELDEFINESBYPROPERTIES('32oyKUBKplb6CtWGU6Bvy9',#6,$,$,(#177),#212);
#214=IFCPROPERTYSINGLEVALUE('MaxUnits',$,IFCREAL(6),$);
#215=IFCPROPERTYSINGLEVALUE('CostPerHour',$,IFCMONETARYMEASURE(72),$);
#216=IFCPROPERTYSINGLEVALUE('Color',$,IFCTEXT('#A78BFA'),$);
#217=IFCPROPERTYSET('34ABzAKiv_9hDDa1vbgHOl',#6,'OPS_Resource',$,(#214,#215,#216));
#218=IFCRELDEFINESBYPROPERTIES('0ee3s9SpxxtxhlQvWNZAuY',#6,$,$,(#178),#217);
#219=IFCPROPERTYSINGLEVALUE('MaxUnits',$,IFCREAL(3),$);
#220=IFCPROPERTYSINGLEVALUE('CostPerHour',$,IFCMONETARYMEASURE(78),$);
#221=IFCPROPERTYSINGLEVALUE('Color',$,IFCTEXT('#38BDF8'),$);
#222=IFCPROPERTYSET('0FmuHffWzgqCU_CSGej4xM',#6,'OPS_Resource',$,(#219,#220,#221));
#223=IFCRELDEFINESBYPROPERTIES('0j1e$mFcFMTG7bayezkHSF',#6,$,$,(#179),#222);
#224=IFCRELASSIGNSTOPROCESS('1kW8yINshlSN1B5tMWEag6',#6,$,$,(#171),$,#47,$);
#225=IFCRELASSIGNSTOPROCESS('3Zsho6aBc0L6aqIjHEUFwK',#6,$,$,(#175),$,#57,$);
#226=IFCRELASSIGNSTOPROCESS('1eLbXBiwbISuqsFBFBkpzZ',#6,$,$,(#175),$,#59,$);
#227=IFCRELASSIGNSTOPROCESS('0_ATY9iH8CFdpIDVeJo8fo',#6,$,$,(#171),$,#61,$);
#228=IFCRELASSIGNSTOPROCESS('0GqKHN7TTVPqYlXdizDYwj',#6,$,$,(#176,#175),$,#65,$);
#229=IFCRELASSIGNSTOPROCESS('0RjwswRFNvuFyrQgGOcrZT',#6,$,$,(#176,#175),$,#67,$);
#230=IFCRELASSIGNSTOPROCESS('3Yi$bZgJQN4w3rh8rkKROx',#6,$,$,(#175),$,#69,$);
#231=IFCRELASSIGNSTOPROCESS('3s30Lfxbgk3qUqjXVUAZqr',#6,$,$,(#172),$,#71,$);
#232=IFCRELASSIGNSTOPROCESS('2rxh4PvL76nIINr6vZn61O',#6,$,$,(#175),$,#77,$);
#233=IFCRELASSIGNSTOPROCESS('2aslT5AErswT6HJC$yws_C',#6,$,$,(#171),$,#87,$);
#234=IFCRELASSIGNSTOPROCESS('16MlyeFTlDjpmxdDeKF6Zk',#6,$,$,(#177,#171),$,#89,$);
#235=IFCRELASSIGNSTOPROCESS('1KgUqqsIpk1mUUm0J9Km1t',#6,$,$,(#177,#172),$,#91,$);
#236=IFCRELASSIGNSTOPROCESS('0vRGK$nPTsoNZsbtiNXQtJ',#6,$,$,(#171),$,#93,$);
#237=IFCRELASSIGNSTOPROCESS('1XaVEUncnsy3FU594GnhI$',#6,$,$,(#178,#172),$,#95,$);
#238=IFCRELASSIGNSTOPROCESS('34S_eDHIXOuMheU5M2Z3WN',#6,$,$,(#178,#172),$,#97,$);
#239=IFCRELASSIGNSTOPROCESS('1$FYzJYieyCYE4bdCpzIKS',#6,$,$,(#178),$,#99,$);
#240=IFCRELASSIGNSTOPROCESS('354LVWeUMsBKAi4nvk_xn7',#6,$,$,(#173),$,#103,$);
#241=IFCRELASSIGNSTOPROCESS('3nxV4n7GzbVPb5IjLRIG7e',#6,$,$,(#173),$,#105,$);
#242=IFCRELASSIGNSTOPROCESS('2ydI_Kg4NhtpU5MbeiZMkx',#6,$,$,(#179),$,#107,$);
#243=IFCRELASSIGNSTOPROCESS('2RhkbloSuHfTkIM9tNusaY',#6,$,$,(#173),$,#109,$);
#244=IFCRELASSIGNSTOPROCESS('1O8M4Whwth5_FW8tIuutiZ',#6,$,$,(#173),$,#111,$);
#245=IFCRELASSIGNSTOPROCESS('0SXzIzcHElaXxEJhdB9F8G',#6,$,$,(#173,#171),$,#113,$);
#246=IFCRELASSIGNSTOPROCESS('387lL_t$23o5DiW_7iTFIg',#6,$,$,(#174,#171),$,#117,$);
#247=IFCRELASSIGNSTOPROCESS('0SKa5mRr$YiaHaSJ5G81MS',#6,$,$,(#174),$,#121,$);
#248=IFCPROPERTYSINGLEVALUE('1m82u2p3j7C842P4Ien9RC#0',$,IFCTEXT('4|UNIFORM'),$);
#249=IFCPROPERTYSET('2c8hl3X5E_EReTJ2sD$ofI',#6,'OPS_Assignments',$,(#248));
#250=IFCRELDEFINESBYPROPERTIES('0_o46m$tWVzGAfBUDfG2M6',#6,$,$,(#47),#249);
#251=IFCPROPERTYSINGLEVALUE('2SSk3jKsB01oKcCdlCCDrT#0',$,IFCTEXT('4|UNIFORM'),$);
#252=IFCPROPERTYSET('0P7HBi3jy_yy7ful8BYoLs',#6,'OPS_Assignments',$,(#251));
#253=IFCRELDEFINESBYPROPERTIES('0si5Tw$VNz9e8hioAr8cpp',#6,$,$,(#57),#252);
#254=IFCPROPERTYSINGLEVALUE('2SSk3jKsB01oKcCdlCCDrT#0',$,IFCTEXT('4|UNIFORM'),$);
#255=IFCPROPERTYSET('0WPgkxdn0GoaQCKswxFSPs',#6,'OPS_Assignments',$,(#254));
#256=IFCRELDEFINESBYPROPERTIES('27RAUCpRH0SRxzrSc_zCjj',#6,$,$,(#59),#255);
#257=IFCPROPERTYSINGLEVALUE('1m82u2p3j7C842P4Ien9RC#0',$,IFCTEXT('4|UNIFORM'),$);
#258=IFCPROPERTYSET('272aLyjectmjoWpDIcUkjN',#6,'OPS_Assignments',$,(#257));
#259=IFCRELDEFINESBYPROPERTIES('05S7W0VIBUFAWXTIU4MO0y',#6,$,$,(#61),#258);
#260=IFCPROPERTYSINGLEVALUE('06K0xAonczbYvzdYjaUILg#0',$,IFCTEXT('1|UNIFORM'),$);
#261=IFCPROPERTYSINGLEVALUE('2SSk3jKsB01oKcCdlCCDrT#1',$,IFCTEXT('4|UNIFORM'),$);
#262=IFCPROPERTYSET('0_6R8ZH9TRATzplvOYeHHL',#6,'OPS_Assignments',$,(#260,#261));
#263=IFCRELDEFINESBYPROPERTIES('3i6er0hpOv6WjUb7TD4lrp',#6,$,$,(#65),#262);
#264=IFCPROPERTYSINGLEVALUE('06K0xAonczbYvzdYjaUILg#0',$,IFCTEXT('1|UNIFORM'),$);
#265=IFCPROPERTYSINGLEVALUE('2SSk3jKsB01oKcCdlCCDrT#1',$,IFCTEXT('4|UNIFORM'),$);
#266=IFCPROPERTYSET('28KS_NjyWRkbFBpxBo_xoz',#6,'OPS_Assignments',$,(#264,#265));
#267=IFCRELDEFINESBYPROPERTIES('2HVH4KmZkK4gnDUc9eC4Az',#6,$,$,(#67),#266);
#268=IFCPROPERTYSINGLEVALUE('2SSk3jKsB01oKcCdlCCDrT#0',$,IFCTEXT('4|UNIFORM'),$);
#269=IFCPROPERTYSET('1doXUSVLnKL0wLq3BQPVju',#6,'OPS_Assignments',$,(#268));
#270=IFCRELDEFINESBYPROPERTIES('3gSYk2dp$UPq5pHZUJPGyM',#6,$,$,(#69),#269);
#271=IFCPROPERTYSINGLEVALUE('2AdFYMyQOfDDM16bWCAewn#0',$,IFCTEXT('4|UNIFORM'),$);
#272=IFCPROPERTYSET('22B6HkZ7kI3WI7fLupYdNH',#6,'OPS_Assignments',$,(#271));
#273=IFCRELDEFINESBYPROPERTIES('2CQFdNJn90zasVHZxnXkGS',#6,$,$,(#71),#272);
#274=IFCPROPERTYSINGLEVALUE('2SSk3jKsB01oKcCdlCCDrT#0',$,IFCTEXT('4|UNIFORM'),$);
#275=IFCPROPERTYSET('21x8PKS_J4sZu9lCP9$Zag',#6,'OPS_Assignments',$,(#274));
#276=IFCRELDEFINESBYPROPERTIES('2WbHXeg3agEcUE9XTM6XTc',#6,$,$,(#77),#275);
#277=IFCPROPERTYSINGLEVALUE('1m82u2p3j7C842P4Ien9RC#0',$,IFCTEXT('6|UNIFORM'),$);
#278=IFCPROPERTYSET('184mMOpGEFb112oCdR3IYu',#6,'OPS_Assignments',$,(#277));
#279=IFCRELDEFINESBYPROPERTIES('2lXoCf5noBxfDrEEWLKXXH',#6,$,$,(#87),#278);
#280=IFCPROPERTYSINGLEVALUE('217BuXJjf8V9mk_hld2COf#0',$,IFCTEXT('4|UNIFORM'),$);
#281=IFCPROPERTYSINGLEVALUE('1m82u2p3j7C842P4Ien9RC#1',$,IFCTEXT('4|UNIFORM'),$);
#282=IFCPROPERTYSET('0hHwNCPDACeNiO4gtfZLmd',#6,'OPS_Assignments',$,(#280,#281));
#283=IFCRELDEFINESBYPROPERTIES('06EY6iU8GKymI1wHiGSoXQ',#6,$,$,(#89),#282);
#284=IFCPROPERTYSINGLEVALUE('217BuXJjf8V9mk_hld2COf#0',$,IFCTEXT('4|UNIFORM'),$);
#285=IFCPROPERTYSINGLEVALUE('2AdFYMyQOfDDM16bWCAewn#1',$,IFCTEXT('4|UNIFORM'),$);
#286=IFCPROPERTYSET('3ESrg6NWPKYrliStCagyxZ',#6,'OPS_Assignments',$,(#284,#285));
#287=IFCRELDEFINESBYPROPERTIES('2dQeLy98FkvcWC0G8$Ftp3',#6,$,$,(#91),#286);
#288=IFCPROPERTYSINGLEVALUE('1m82u2p3j7C842P4Ien9RC#0',$,IFCTEXT('8|UNIFORM'),$);
#289=IFCPROPERTYSET('1NlIqPw59Hdi$ryqbnjxmu',#6,'OPS_Assignments',$,(#288));
#290=IFCRELDEFINESBYPROPERTIES('2HkPvK8Hoj2HEzpkh7LdZE',#6,$,$,(#93),#289);
#291=IFCPROPERTYSINGLEVALUE('2O9HK5RG3InagP6zWM_zIg#0',$,IFCTEXT('6|UNIFORM'),$);
#292=IFCPROPERTYSINGLEVALUE('2AdFYMyQOfDDM16bWCAewn#1',$,IFCTEXT('4|UNIFORM'),$);
#293=IFCPROPERTYSET('0KxJpLSYMkUtyM2P_fbNP3',#6,'OPS_Assignments',$,(#291,#292));
#294=IFCRELDEFINESBYPROPERTIES('2h8$t3uCahAvFP8QKZVLza',#6,$,$,(#95),#293);
#295=IFCPROPERTYSINGLEVALUE('2O9HK5RG3InagP6zWM_zIg#0',$,IFCTEXT('4|UNIFORM'),$);
#296=IFCPROPERTYSINGLEVALUE('2AdFYMyQOfDDM16bWCAewn#1',$,IFCTEXT('4|UNIFORM'),$);
#297=IFCPROPERTYSET('0B_1rJGDeGiSmv6Kn7BuQ1',#6,'OPS_Assignments',$,(#295,#296));
#298=IFCRELDEFINESBYPROPERTIES('0OtrDJ$OVuybJFBVC$zhNN',#6,$,$,(#97),#297);
#299=IFCPROPERTYSINGLEVALUE('2O9HK5RG3InagP6zWM_zIg#0',$,IFCTEXT('4|UNIFORM'),$);
#300=IFCPROPERTYSET('2Qp2p58TKcNZT7OzSWFrU$',#6,'OPS_Assignments',$,(#299));
#301=IFCRELDEFINESBYPROPERTIES('1d2a0_ex9gyTN1IsF1c6Py',#6,$,$,(#99),#300);
#302=IFCPROPERTYSINGLEVALUE('0DOydS5WT4qMUBnqJq9rMP#0',$,IFCTEXT('4|UNIFORM'),$);
#303=IFCPROPERTYSET('2ahfNyPGAiwGJUDW$zBcK$',#6,'OPS_Assignments',$,(#302));
#304=IFCRELDEFINESBYPROPERTIES('2gfMZXKjKyO8RJBPffkNCV',#6,$,$,(#103),#303);
#305=IFCPROPERTYSINGLEVALUE('0DOydS5WT4qMUBnqJq9rMP#0',$,IFCTEXT('6|UNIFORM'),$);
#306=IFCPROPERTYSET('3sW3mx0RHgmAY3xZCwXmGS',#6,'OPS_Assignments',$,(#305));
#307=IFCRELDEFINESBYPROPERTIES('2v1D0VYEJJ5yNSvxujro6B',#6,$,$,(#105),#306);
#308=IFCPROPERTYSINGLEVALUE('1hqjEDbDoju$BmyrOH_0fW#0',$,IFCTEXT('3|UNIFORM'),$);
#309=IFCPROPERTYSET('2jgjnDGQW5LgLpfMGqDLDV',#6,'OPS_Assignments',$,(#308));
#310=IFCRELDEFINESBYPROPERTIES('0ZtgTqtHrXq2pFvf74MJve',#6,$,$,(#107),#309);
#311=IFCPROPERTYSINGLEVALUE('0DOydS5WT4qMUBnqJq9rMP#0',$,IFCTEXT('3|UNIFORM'),$);
#312=IFCPROPERTYSET('0EndlRwhmBpqNA6vmhxdrk',#6,'OPS_Assignments',$,(#311));
#313=IFCRELDEFINESBYPROPERTIES('2TjOnRYEXhxBth8vHU$Hvd',#6,$,$,(#109),#312);
#314=IFCPROPERTYSINGLEVALUE('0DOydS5WT4qMUBnqJq9rMP#0',$,IFCTEXT('3|UNIFORM'),$);
#315=IFCPROPERTYSET('1sfmmpMPUC_LIXk7nlTNYh',#6,'OPS_Assignments',$,(#314));
#316=IFCRELDEFINESBYPROPERTIES('12U3StYIPTUV9siWV1lNlB',#6,$,$,(#111),#315);
#317=IFCPROPERTYSINGLEVALUE('0DOydS5WT4qMUBnqJq9rMP#0',$,IFCTEXT('2|UNIFORM'),$);
#318=IFCPROPERTYSINGLEVALUE('1m82u2p3j7C842P4Ien9RC#1',$,IFCTEXT('2|UNIFORM'),$);
#319=IFCPROPERTYSET('0MH7GSTc7aU1sWuGCT_k52',#6,'OPS_Assignments',$,(#317,#318));
#320=IFCRELDEFINESBYPROPERTIES('1rFRADeaMdh4V6bPZ8qdiw',#6,$,$,(#113),#319);
#321=IFCPROPERTYSINGLEVALUE('2q6t27ginjlaFMR8VaWAdt#0',$,IFCTEXT('2|UNIFORM'),$);
#322=IFCPROPERTYSINGLEVALUE('1m82u2p3j7C842P4Ien9RC#1',$,IFCTEXT('2|UNIFORM'),$);
#323=IFCPROPERTYSET('2H0$FrJgmIk7e53MZq8DOU',#6,'OPS_Assignments',$,(#321,#322));
#324=IFCRELDEFINESBYPROPERTIES('3yOYyFdco6QhCprbUyoCU5',#6,$,$,(#117),#323);
#325=IFCPROPERTYSINGLEVALUE('2q6t27ginjlaFMR8VaWAdt#0',$,IFCTEXT('2|UNIFORM'),$);
#326=IFCPROPERTYSET('16SsOhycRy4S0rjD6hrcB8',#6,'OPS_Assignments',$,(#325));
#327=IFCRELDEFINESBYPROPERTIES('3rR_7gWEW9DX6ZvgYhqW8M',#6,$,$,(#121),#326);
#328=IFCRELASSIGNSTOCONTROL('2qOCYFN8VbbCwZr8elbhEH',#6,$,$,(#43,#45,#47,#49,#51,#53,#55,#57,#59,#61,#63,#65,#67,#69,#71,#73,#75,#77,#79,#81,#83,#85,#87,#89,#91,#93,#95,#97,#99,#101,#103,#105,#107,#109,#111,#113,#115,#117,#119,#121,#123),$,#40);
#329=IFCPROPERTYSINGLEVALUE('InternalProjectId',$,IFCTEXT('proj-mula82jmvthx2419'),$);
#330=IFCPROPERTYSINGLEVALUE('wbsAutoNumber',$,IFCBOOLEAN(.T.),$);
#331=IFCPROPERTYSINGLEVALUE('DefaultTaskDurationUnit',$,IFCLABEL('days'),$);
#332=IFCPROPERTYSINGLEVALUE('ProjectStartDate',$,IFCDATE('2027-03-01'),$);
#333=IFCPROPERTYSINGLEVALUE('ProjectEndDate',$,$,$);
#334=IFCPROPERTYSINGLEVALUE('CreatedAt',$,IFCTEXT('2026-09-28T13:27:22.594Z'),$);
#335=IFCPROPERTYSINGLEVALUE('ModifiedAt',$,IFCTEXT('2026-09-28T13:27:22.596Z'),$);
#336=IFCPROPERTYSET('0JflGZJdtxaSD4oDZ3Ixjv',#6,'OPS_ProjectSettings',$,(#329,#330,#331,#332,#333,#334,#335));
#337=IFCRELDEFINESBYPROPERTIES('1WuntfoCGge$TVyU2xuZOA',#6,$,$,(#13),#336);
#338=IFCPROPERTYSINGLEVALUE('InternalTaskId',$,IFCTEXT('task-mula82k138222429'),$);
#339=IFCPROPERTYSET('3VVL_kF7Etz2r8sl$xjWk3',#6,'OPS_TaskIdentity',$,(#338));
#340=IFCRELDEFINESBYPROPERTIES('0Wvh5MlF62L57NjZSLYFOg',#6,$,$,(#43),#339);
#341=IFCPROPERTYSINGLEVALUE('InternalTaskId',$,IFCTEXT('task-mula82k2umu02430'),$);
#342=IFCPROPERTYSET('0XsfaMywLzbb2zih4_cP_X',#6,'OPS_TaskIdentity',$,(#341));
#343=IFCRELDEFINESBYPROPERTIES('1rKG5hg69OLI0HXlTfjDDl',#6,$,$,(#45),#342);
#344=IFCPROPERTYSINGLEVALUE('InternalTaskId',$,IFCTEXT('task-mula82k4vd3i2431'),$);
#345=IFCPROPERTYSET('03u$RtAFl$WbffYw$uuzJo',#6,'OPS_TaskIdentity',$,(#344));
#346=IFCRELDEFINESBYPROPERTIES('2mSmcl_qE4DqQft_EFgpkk',#6,$,$,(#47),#345);
#347=IFCPROPERTYSINGLEVALUE('InternalTaskId',$,IFCTEXT('task-mula82k600fg2432'),$);
#348=IFCPROPERTYSET('0h63zjqgSBh6EI3mmUtjTw',#6,'OPS_TaskIdentity',$,(#347));
#349=IFCRELDEFINESBYPROPERTIES('36eabMzd4a$boUhzIbODus',#6,$,$,(#49),#348);
#350=IFCPROPERTYSINGLEVALUE('InternalTaskId',$,IFCTEXT('task-mula82k7op362433'),$);
#351=IFCPROPERTYSET('13RDnL4FEcmysNL5MrY6Rf',#6,'OPS_TaskIdentity',$,(#350));
#352=IFCRELDEFINESBYPROPERTIES('2Xj4Cs3f38HYoGkoHWeBNN',#6,$,$,(#51),#351);
#353=IFCPROPERTYSINGLEVALUE('InternalTaskId',$,IFCTEXT('task-mula82k9wso92434'),$);
#354=IFCPROPERTYSET('0Ot65l9_uduUz5i_h6$NLK',#6,'OPS_TaskIdentity',$,(#353));
#355=IFCRELDEFINESBYPROPERTIES('0jZdUiu9b3w2RWn0tRpYKF',#6,$,$,(#53),#354);
#356=IFCPROPERTYSINGLEVALUE('InternalTaskId',$,IFCTEXT('task-mula82kag0ia2435'),$);
#357=IFCPROPERTYSET('30_Fehxt4s6X3zB5wZr1ti',#6,'OPS_TaskIdentity',$,(#356));
#358=IFCRELDEFINESBYPROPERTIES('14BNqaNSa8E9RiywYyHpLE',#6,$,$,(#55),#357);
#359=IFCPROPERTYSINGLEVALUE('InternalTaskId',$,IFCTEXT('task-mula82kcfjst2436'),$);
#360=IFCPROPERTYSET('32hOMcV6fY3AjNzYnw_aIX',#6,'OPS_TaskIdentity',$,(#359));
#361=IFCRELDEFINESBYPROPERTIES('2VjO4ZAWWAtzVmC0zl3v41',#6,$,$,(#57),#360);
#362=IFCPROPERTYSINGLEVALUE('InternalTaskId',$,IFCTEXT('task-mula82ke0y4o2437'),$);
#363=IFCPROPERTYSET('00lRXLe3XRPnklviKG8p$V',#6,'OPS_TaskIdentity',$,(#362));
#364=IFCRELDEFINESBYPROPERTIES('3xSC3fIelrUeDMq4BG6v3a',#6,$,$,(#59),#363);
#365=IFCPROPERTYSINGLEVALUE('InternalTaskId',$,IFCTEXT('task-mula82kfa3yc2438'),$);
#366=IFCPROPERTYSET('0RWgokb2c6_fmJm29szNfd',#6,'OPS_TaskIdentity',$,(#365));
#367=IFCRELDEFINESBYPROPERTIES('0ahffbsoqsPrlvqQA0pxdv',#6,$,$,(#61),#366);
#368=IFCPROPERTYSINGLEVALUE('InternalTaskId',$,IFCTEXT('task-mula82khwsnc2439'),$);
#369=IFCPROPERTYSET('2hLSj4gEvjHKP6wwbEm9xV',#6,'OPS_TaskIdentity',$,(#368));
#370=IFCRELDEFINESBYPROPERTIES('2I6UcMdEbqfgaOfXEV3agL',#6,$,$,(#63),#369);
#371=IFCPROPERTYSINGLEVALUE('InternalTaskId',$,IFCTEXT('task-mula82kitqhr2440'),$);
#372=IFCPROPERTYSET('3KZW$ksz6_yIMYLQ0JGeyl',#6,'OPS_TaskIdentity',$,(#371));
#373=IFCRELDEFINESBYPROPERTIES('2BzbvFoguPXol2NZLOxqbX',#6,$,$,(#65),#372);
#374=IFCPROPERTYSINGLEVALUE('InternalTaskId',$,IFCTEXT('task-mula82kkppeh2441'),$);
#375=IFCPROPERTYSET('2P3GhOqRjfVKEJFVOv0CBN',#6,'OPS_TaskIdentity',$,(#374));
#376=IFCRELDEFINESBYPROPERTIES('3yLjyjzmrxHipqCK9Dt4dd',#6,$,$,(#67),#375);
#377=IFCPROPERTYSINGLEVALUE('InternalTaskId',$,IFCTEXT('task-mula82km6ycm2442'),$);
#378=IFCPROPERTYSET('3ElfI9v2gwfCDOkUzSEscW',#6,'OPS_TaskIdentity',$,(#377));
#379=IFCRELDEFINESBYPROPERTIES('1pI8nnNs3Ih$dXq$Yt5jYz',#6,$,$,(#69),#378);
#380=IFCPROPERTYSINGLEVALUE('InternalTaskId',$,IFCTEXT('task-mula82knjwrp2443'),$);
#381=IFCPROPERTYSET('1ePXVZHK_Weif2Y1dfM85v',#6,'OPS_TaskIdentity',$,(#380));
#382=IFCRELDEFINESBYPROPERTIES('3zOY_qQQJz2C8P4qva8iyl',#6,$,$,(#71),#381);
#383=IFCPROPERTYSINGLEVALUE('InternalTaskId',$,IFCTEXT('task-mula82kp8wpi2444'),$);
#384=IFCPROPERTYSET('0qdV8Lgxl9T0bXXTpW5vfi',#6,'OPS_TaskIdentity',$,(#383));
#385=IFCRELDEFINESBYPROPERTIES('3wHQQF7nrT2WouOEowx_h7',#6,$,$,(#73),#384);
#386=IFCPROPERTYSINGLEVALUE('InternalTaskId',$,IFCTEXT('task-mula82krx40l2445'),$);
#387=IFCPROPERTYSET('1oAN0J90DyEdCSVAXtkppj',#6,'OPS_TaskIdentity',$,(#386));
#388=IFCRELDEFINESBYPROPERTIES('2_OIoRdADx5$Xb3WtnfpIM',#6,$,$,(#75),#387);
#389=IFCPROPERTYSINGLEVALUE('InternalTaskId',$,IFCTEXT('task-mula82ksusf02446'),$);
#390=IFCPROPERTYSET('3$yb7P5YOKkMAj$V5GiW_7',#6,'OPS_TaskIdentity',$,(#389));
#391=IFCRELDEFINESBYPROPERTIES('3eWqzBOr_K9YyUcm$4Vj2g',#6,$,$,(#77),#390);
#392=IFCPROPERTYSINGLEVALUE('InternalTaskId',$,IFCTEXT('task-mula82ku69yh2447'),$);
#393=IFCPROPERTYSET('2X6DvzPI9qoli4alj6QCZw',#6,'OPS_TaskIdentity',$,(#392));
#394=IFCRELDEFINESBYPROPERTIES('1mR_G_raEkUBudISoLAqZK',#6,$,$,(#79),#393);
#395=IFCPROPERTYSINGLEVALUE('InternalTaskId',$,IFCTEXT('task-mula82kwqtyq2448'),$);
#396=IFCPROPERTYSET('2VZeSMr_e8Av6AZdqj7qSn',#6,'OPS_TaskIdentity',$,(#395));
#397=IFCRELDEFINESBYPROPERTIES('1HCGHgMkp_nVBY60hWGFjE',#6,$,$,(#81),#396);
#398=IFCPROPERTYSINGLEVALUE('InternalTaskId',$,IFCTEXT('task-mula82kx1l9f2449'),$);
#399=IFCPROPERTYSET('3oMJPth3Zp36USSdCMBPBy',#6,'OPS_TaskIdentity',$,(#398));
#400=IFCRELDEFINESBYPROPERTIES('3QetGv_qhk3KvYelJAxcpi',#6,$,$,(#83),#399);
#401=IFCPROPERTYSINGLEVALUE('InternalTaskId',$,IFCTEXT('task-mula82kzqalw2450'),$);
#402=IFCPROPERTYSET('0pjgJ_OBaxKxCRAUAsSd1S',#6,'OPS_TaskIdentity',$,(#401));
#403=IFCRELDEFINESBYPROPERTIES('2yp2WMGc26ENzqP7LKK3pK',#6,$,$,(#85),#402);
#404=IFCPROPERTYSINGLEVALUE('InternalTaskId',$,IFCTEXT('task-mula82l1m5yd2451'),$);
#405=IFCPROPERTYSET('3js2owFl1GbWgL1FdJMjqe',#6,'OPS_TaskIdentity',$,(#404));
#406=IFCRELDEFINESBYPROPERTIES('3LphwwixK47$mm6ioaXXAW',#6,$,$,(#87),#405);
#407=IFCPROPERTYSINGLEVALUE('InternalTaskId',$,IFCTEXT('task-mula82l6rheg2452'),$);
#408=IFCPROPERTYSET('3GXdlipsry0DYIWMxFlaqZ',#6,'OPS_TaskIdentity',$,(#407));
#409=IFCRELDEFINESBYPROPERTIES('06rE84pdpPqkb8XeFQkAdt',#6,$,$,(#89),#408);
#410=IFCPROPERTYSINGLEVALUE('InternalTaskId',$,IFCTEXT('task-mula82l8rfyg2453'),$);
#411=IFCPROPERTYSET('2$3p4Dp7jlhzFnoRJoSSey',#6,'OPS_TaskIdentity',$,(#410));
#412=IFCRELDEFINESBYPROPERTIES('0fFMzLQOvIhhLk67eA3Mih',#6,$,$,(#91),#411);
#413=IFCPROPERTYSINGLEVALUE('InternalTaskId',$,IFCTEXT('task-mula82lbrhq02454'),$);
#414=IFCPROPERTYSET('3o9J72Po4g4mJ2Cx_oYcAX',#6,'OPS_TaskIdentity',$,(#413));
#415=IFCRELDEFINESBYPROPERTIES('2B_jR2zt3GNsuQiQYZR50T',#6,$,$,(#93),#414);
#416=IFCPROPERTYSINGLEVALUE('InternalTaskId',$,IFCTEXT('task-mula82lc4ne12455'),$);
#417=IFCPROPERTYSET('1KVXavPZE2iy5L_PUeLxmf',#6,'OPS_TaskIdentity',$,(#416));
#418=IFCRELDEFINESBYPROPERTIES('2GI7b9hkCA7EXvtE8j4t1M',#6,$,$,(#95),#417);
#419=IFCPROPERTYSINGLEVALUE('InternalTaskId',$,IFCTEXT('task-mula82ler5s52456'),$);
#420=IFCPROPERTYSET('3WWTzC4aqRgWk9gUKUlcPO',#6,'OPS_TaskIdentity',$,(#419));
#421=IFCRELDEFINESBYPROPERTIES('26BpvYoqvLq4naVibblZK4',#6,$,$,(#97),#420);
#422=IFCPROPERTYSINGLEVALUE('InternalTaskId',$,IFCTEXT('task-mula82lgzsl62457'),$);
#423=IFCPROPERTYSET('2PJ0gMB54Z9xe9KNUlWaqi',#6,'OPS_TaskIdentity',$,(#422));
#424=IFCRELDEFINESBYPROPERTIES('2AZdS2oyJoZmHgHCrrZzhu',#6,$,$,(#99),#423);
#425=IFCPROPERTYSINGLEVALUE('InternalTaskId',$,IFCTEXT('task-mula82licyjf2458'),$);
#426=IFCPROPERTYSET('11BGDduTCYwty2jGRPfKcI',#6,'OPS_TaskIdentity',$,(#425));
#427=IFCRELDEFINESBYPROPERTIES('3RKze74$KRxaA8XwOG6EMu',#6,$,$,(#101),#426);
#428=IFCPROPERTYSINGLEVALUE('InternalTaskId',$,IFCTEXT('task-mula82llby3z2459'),$);
#429=IFCPROPERTYSET('0NYiL_Co4VfE2jQM_878RE',#6,'OPS_TaskIdentity',$,(#428));
#430=IFCRELDEFINESBYPROPERTIES('1cFmy1TIMIIlNjDJyuCm54',#6,$,$,(#103),#429);
#431=IFCPROPERTYSINGLEVALUE('InternalTaskId',$,IFCTEXT('task-mula82lnoff12460'),$);
#432=IFCPROPERTYSET('2Mc6eTopPtT2Y21nKqG2Nt',#6,'OPS_TaskIdentity',$,(#431));
#433=IFCRELDEFINESBYPROPERTIES('3kkhy5Up11Md4YdyAFk7hp',#6,$,$,(#105),#432);
#434=IFCPROPERTYSINGLEVALUE('InternalTaskId',$,IFCTEXT('task-mula82lq0erb2461'),$);
#435=IFCPROPERTYSET('06QUYp7RbxptNZV9HA47kA',#6,'OPS_TaskIdentity',$,(#434));
#436=IFCRELDEFINESBYPROPERTIES('0P676oMFIerxsJjcKLrmCE',#6,$,$,(#107),#435);
#437=IFCPROPERTYSINGLEVALUE('InternalTaskId',$,IFCTEXT('task-mula82ltzdbb2462'),$);
#438=IFCPROPERTYSET('0WFthUc0Hw_eJMjgEtWC4K',#6,'OPS_TaskIdentity',$,(#437));
#439=IFCRELDEFINESBYPROPERTIES('0V5y6oB7UxmJxl4TsXiuHb',#6,$,$,(#109),#438);
#440=IFCPROPERTYSINGLEVALUE('InternalTaskId',$,IFCTEXT('task-mula82lwa3372463'),$);
#441=IFCPROPERTYSET('0rJFB2BtiebhwA9w7ssd9T',#6,'OPS_TaskIdentity',$,(#440));
#442=IFCRELDEFINESBYPROPERTIES('22Shk$fHc0vZJQJg0h2qqM',#6,$,$,(#111),#441);
#443=IFCPROPERTYSINGLEVALUE('InternalTaskId',$,IFCTEXT('task-mula82lx2lyq2464'),$);
#444=IFCPROPERTYSET('0o1VOYzemKbw$6Gk356lxi',#6,'OPS_TaskIdentity',$,(#443));
#445=IFCRELDEFINESBYPROPERTIES('2XSZekTZx0SyfQF6N9_YS0',#6,$,$,(#113),#444);
#446=IFCPROPERTYSINGLEVALUE('InternalTaskId',$,IFCTEXT('task-mula82lzc19m2465'),$);
#447=IFCPROPERTYSET('0oNLvoLjomDqR9Rry92HfU',#6,'OPS_TaskIdentity',$,(#446));
#448=IFCRELDEFINESBYPROPERTIES('33VRXA5xXyh5TIEKzTN5vG',#6,$,$,(#115),#447);
#449=IFCPROPERTYSINGLEVALUE('InternalTaskId',$,IFCTEXT('task-mula82m242ru2466'),$);
#450=IFCPROPERTYSET('0vP7H2KFBTGVTaoHe7$9W9',#6,'OPS_TaskIdentity',$,(#449));
#451=IFCRELDEFINESBYPROPERTIES('2CZrlFUBqM73H3BV0OwuAE',#6,$,$,(#117),#450);
#452=IFCPROPERTYSINGLEVALUE('InternalTaskId',$,IFCTEXT('task-mula82m454wp2467'),$);
#453=IFCPROPERTYSET('1X$exwWnpZTYuI8dP4nvE_',#6,'OPS_TaskIdentity',$,(#452));
#454=IFCRELDEFINESBYPROPERTIES('1MRXb24xeIJ42eh2nPwFbK',#6,$,$,(#119),#453);
#455=IFCPROPERTYSINGLEVALUE('InternalTaskId',$,IFCTEXT('task-mula82m6ok0k2468'),$);
#456=IFCPROPERTYSET('3uBIosI5W6OuLpSbJVYp8B',#6,'OPS_TaskIdentity',$,(#455));
#457=IFCRELDEFINESBYPROPERTIES('3cRUFO7g8SIVvBljyoWMr8',#6,$,$,(#121),#456);
#458=IFCPROPERTYSINGLEVALUE('InternalTaskId',$,IFCTEXT('task-mula82m88gbv2469'),$);
#459=IFCPROPERTYSET('0aTgJ1JwNxYAai0V3LbWtU',#6,'OPS_TaskIdentity',$,(#458));
#460=IFCRELDEFINESBYPROPERTIES('1Owyz_XcX2v1T9rdYeLCwv',#6,$,$,(#123),#459);
#461=IFCPROPERTYSINGLEVALUE('MilestoneKind',$,IFCLABEL('START'),$);
#462=IFCPROPERTYSET('1hGMrjXV2SjbK5z_Snhigs',#6,'OPS_Milestone',$,(#461));
#463=IFCRELDEFINESBYPROPERTIES('1fKYycdH2ZqLLUOnF1A7ZF',#6,$,$,(#51),#462);
#464=IFCPROPERTYSINGLEVALUE('MilestoneKind',$,IFCLABEL('FINISH'),$);
#465=IFCPROPERTYSET('311mhV5KFGaPi3j13gD$gi',#6,'OPS_Milestone',$,(#464));
#466=IFCRELDEFINESBYPROPERTIES('03iT_jX3Glhh8tVaVdJ3oe',#6,$,$,(#73),#465);
#467=IFCPROPERTYSINGLEVALUE('MilestoneKind',$,IFCLABEL('FINISH'),$);
#468=IFCPROPERTYSET('07Yu9gLfXiEewToErLTprh',#6,'OPS_Milestone',$,(#467));
#469=IFCRELDEFINESBYPROPERTIES('1MXDHZ4Ju8Bkgf5eq96yGV',#6,$,$,(#83),#468);
#470=IFCPROPERTYSINGLEVALUE('MilestoneKind',$,IFCLABEL('FINISH'),$);
#471=IFCPROPERTYSINGLEVALUE('Mandatory',$,IFCBOOLEAN(.T.),$);
#472=IFCPROPERTYSET('2AmmB2onoNKuFdSZK1ED4n',#6,'OPS_Milestone',$,(#470,#471));
#473=IFCRELDEFINESBYPROPERTIES('3AE4dAxeAn77Q6q7N8qtGL',#6,$,$,(#123),#472);
ENDSEC;
END-ISO-10303-21;
