ply
format ascii 1.0
comment Exported from Pointcloud Workspace
element vertex 64
property float x
property float y
property float z
property uchar red
property uchar green
property uchar blue
property float intensity
property uchar classification
end_header
-3.5 -0.5 3.5 159 100 70 0.4577706456184387 2
-2.5 0.5 3.5 159 100 70 0.4577706456184387 6
-1.5 -0.5 3.5 159 100 70 0.4577706456184387 2
-0.5 0.5 3.5 159 100 70 0.4577706456184387 6
0.5 -0.5 3.5 159 100 70 0.4577706456184387 2
1.5 0.5 3.5 159 100 70 0.4577706456184387 6
2.5 -0.5 3.5 159 100 70 0.4577706456184387 2
3.5 0.5 3.5 159 100 70 0.4577706456184387 6
-3.5 -0.5 2.5 159 100 70 0.4577706456184387 2
-2.5 0.5 2.5 159 100 70 0.4577706456184387 6
-1.5 -0.5 2.5 159 100 70 0.4577706456184387 2
-0.5 0.5 2.5 159 100 70 0.4577706456184387 6
0.5 -0.5 2.5 159 100 70 0.4577706456184387 2
1.5 0.5 2.5 159 100 70 0.4577706456184387 6
2.5 -0.5 2.5 159 100 70 0.4577706456184387 2
3.5 0.5 2.5 159 100 70 0.4577706456184387 6
-3.5 -0.5 1.5 159 100 70 0.4577706456184387 2
-2.5 0.5 1.5 159 100 70 0.4577706456184387 6
-1.5 -0.5 1.5 159 100 70 0.4577706456184387 2
-0.5 0.5 1.5 159 100 70 0.4577706456184387 6
0.5 -0.5 1.5 159 100 70 0.4577706456184387 2
1.5 0.5 1.5 159 100 70 0.4577706456184387 6
2.5 -0.5 1.5 159 100 70 0.4577706456184387 2
3.5 0.5 1.5 159 100 70 0.4577706456184387 6
-3.5 -0.5 0.5 159 100 70 0.4577706456184387 2
-2.5 0.5 0.5 159 100 70 0.4577706456184387 6
-1.5 -0.5 0.5 159 100 70 0.4577706456184387 2
-0.5 0.5 0.5 159 100 70 0.4577706456184387 6
0.5 -0.5 0.5 159 100 70 0.4577706456184387 2
1.5 0.5 0.5 159 100 70 0.4577706456184387 6
2.5 -0.5 0.5 159 100 70 0.4577706456184387 2
3.5 0.5 0.5 159 100 70 0.4577706456184387 6
-3.5 -0.5 -0.5 159 100 70 0.4577706456184387 2
-2.5 0.5 -0.5 159 100 70 0.4577706456184387 6
-1.5 -0.5 -0.5 159 100 70 0.4577706456184387 2
-0.5 0.5 -0.5 159 100 70 0.4577706456184387 6
0.5 -0.5 -0.5 159 100 70 0.4577706456184387 2
1.5 0.5 -0.5 159 100 70 0.4577706456184387 6
2.5 -0.5 -0.5 159 100 70 0.4577706456184387 2
3.5 0.5 -0.5 159 100 70 0.4577706456184387 6
-3.5 -0.5 -1.5 159 100 70 0.4577706456184387 2
-2.5 0.5 -1.5 159 100 70 0.4577706456184387 6
-1.5 -0.5 -1.5 159 100 70 0.4577706456184387 2
-0.5 0.5 -1.5 159 100 70 0.4577706456184387 6
0.5 -0.5 -1.5 159 100 70 0.4577706456184387 2
1.5 0.5 -1.5 159 100 70 0.4577706456184387 6
2.5 -0.5 -1.5 159 100 70 0.4577706456184387 2
3.5 0.5 -1.5 159 100 70 0.4577706456184387 6
-3.5 -0.5 -2.5 159 100 70 0.4577706456184387 2
-2.5 0.5 -2.5 159 100 70 0.4577706456184387 6
-1.5 -0.5 -2.5 159 100 70 0.4577706456184387 2
-0.5 0.5 -2.5 159 100 70 0.4577706456184387 6
0.5 -0.5 -2.5 159 100 70 0.4577706456184387 2
1.5 0.5 -2.5 159 100 70 0.4577706456184387 6
2.5 -0.5 -2.5 159 100 70 0.4577706456184387 2
3.5 0.5 -2.5 159 100 70 0.4577706456184387 6
-3.5 -0.5 -3.5 159 100 70 0.4577706456184387 2
-2.5 0.5 -3.5 159 100 70 0.4577706456184387 6
-1.5 -0.5 -3.5 159 100 70 0.4577706456184387 2
-0.5 0.5 -3.5 159 100 70 0.4577706456184387 6
0.5 -0.5 -3.5 159 100 70 0.4577706456184387 2
1.5 0.5 -3.5 159 100 70 0.4577706456184387 6
2.5 -0.5 -3.5 159 100 70 0.4577706456184387 2
3.5 0.5 -3.5 159 100 70 0.4577706456184387 6
