0
SECTION
2
HEADER
9
$INSUNITS
70
4
0
ENDSEC
0
SECTION
2
ENTITIES
0
LWPOLYLINE
8
0
90
4
70
1
10
0
20
0
10
12000
20
0
10
12000
20
-7600
10
0
20
-7600
0
LWPOLYLINE
8
0
90
4
70
1
10
160
20
-160
10
11840
20
-160
10
11840
20
-7440
10
160
20
-7440
0
LINE
8
0
10
4200
20
-160
11
4200
21
-2800
0
LINE
8
0
10
4360
20
-160
11
4360
21
-2800
0
LINE
8
0
10
4200
20
-3700
11
4200
21
-7440
0
LINE
8
0
10
4360
20
-3700
11
4360
21
-7440
0
LINE
8
0
10
160
20
-4700
11
4200
21
-4700
0
LINE
8
0
10
160
20
-4860
11
4200
21
-4860
0
LINE
8
0
10
4360
20
-4700
11
9600
21
-4700
0
LINE
8
0
10
4360
20
-4860
11
9600
21
-4860
0
LINE
8
0
10
10600
20
-4700
11
11840
21
-4700
0
LINE
8
0
10
8400
20
-160
11
8400
21
-2300
0
LINE
8
0
10
8560
20
-160
11
8560
21
-2300
0
LINE
8
0
10
8400
20
-3200
11
8400
21
-4700
0
LINE
8
0
10
8560
20
-3200
11
8560
21
-4700
0
LWPOLYLINE
8
0
90
4
70
1
10
900
20
-1400
10
3300
20
-1400
10
3300
20
-2500
10
900
20
-2500
0
LWPOLYLINE
8
0
90
4
70
1
10
1300
20
-1080
10
1720
20
-1080
10
1720
20
-1330
10
1300
20
-1330
0
LWPOLYLINE
8
0
90
4
70
1
10
2480
20
-1080
10
2900
20
-1080
10
2900
20
-1330
10
2480
20
-1330
0
LWPOLYLINE
8
0
90
4
70
1
10
1300
20
-2560
10
1720
20
-2560
10
1720
20
-2810
10
1300
20
-2810
0
LWPOLYLINE
8
0
90
4
70
1
10
2480
20
-2560
10
2900
20
-2560
10
2900
20
-2810
10
2480
20
-2810
0
LWPOLYLINE
8
0
90
4
70
1
10
5100
20
-1300
10
6400
20
-1300
10
6400
20
-1900
10
5100
20
-1900
0
LWPOLYLINE
8
0
90
4
70
1
10
6800
20
-1300
10
8100
20
-1300
10
8100
20
-1900
10
6800
20
-1900
0
LWPOLYLINE
8
0
90
4
70
1
10
5100
20
-2300
10
6400
20
-2300
10
6400
20
-2900
10
5100
20
-2900
0
LWPOLYLINE
8
0
90
4
70
1
10
6800
20
-2300
10
8100
20
-2300
10
8100
20
-2900
10
6800
20
-2900
0
LWPOLYLINE
8
0
90
4
70
1
10
9300
20
-1200
10
11050
20
-1200
10
11050
20
-1900
10
9300
20
-1900
0
LWPOLYLINE
8
0
90
4
70
1
10
9500
20
-2200
10
10150
20
-2200
10
10150
20
-2600
10
9500
20
-2600
0
LWPOLYLINE
8
0
90
4
70
1
10
9450
20
-3350
10
11250
20
-3350
10
11250
20
-3700
10
9450
20
-3700
0
LWPOLYLINE
8
0
90
4
70
1
10
850
20
-5700
10
2900
20
-5700
10
2900
20
-6150
10
850
20
-6150
0
LWPOLYLINE
8
0
90
4
70
1
10
1500
20
-6400
10
2100
20
-6400
10
2100
20
-6700
10
1500
20
-6700
0
TEXT
8
0
10
1000
20
-3300
30
0
40
3.5
1
MEETING ROOM
50
0
0
TEXT
8
0
10
5400
20
-3500
30
0
40
3.5
1
DESIGN STUDIO
50
0
0
TEXT
8
0
10
9000
20
-4050
30
0
40
3
1
DIRECTOR
50
0
0
TEXT
8
0
10
900
20
-6800
30
0
40
3
1
RECEPTION
50
0
0
TEXT
8
0
10
6000
20
-6300
30
0
40
3.5
1
COLLABORATION SPACE
50
0
0
LINE
8
0
10
0
20
600
11
12000
21
600
0
LINE
8
0
10
0
20
850
11
0
21
350
0
LINE
8
0
10
12000
20
850
11
12000
21
350
0
TEXT
8
0
10
5400
20
1050
30
0
40
3
1
12 000
50
0
0
TEXT
8
0
10
0
20
-8200
30
0
40
4
1
SPANVISION INFRA / OFFICE WORKSPACE
50
0
0
TEXT
8
0
10
0
20
-8750
30
0
40
2.5
1
GROUND FLOOR     ·     CONCEPT PLAN     ·     1:100
50
0
0
ENDSEC
0
EOF
