  0
SECTION
  2
HEADER
  9
$ACADVER
  1
AC1032
  9
$ACADMAINTVER
 90
     0
  9
$DWGCODEPAGE
  3
ANSI_1252
  9
$HANDSEED
  5
6F
  9
$INSBASE
 10
0.0
 20
0.0
 30
0.0
  9
$EXTMIN
 10
1.0000000000000000e20
 20
1.0000000000000000e20
 30
1.0000000000000000e20
  9
$EXTMAX
 10
-1.0000000000000000e20
 20
-1.0000000000000000e20
 30
-1.0000000000000000e20
  9
$LIMMIN
 10
0.0
 20
0.0
  9
$LIMMAX
 10
0.0
 20
0.0
  9
$ORTHOMODE
 70
     0
  9
$OSMODE
 70
   575
  9
$REGENMODE
 70
     1
  9
$FILLMODE
 70
     1
  9
$QTEXTMODE
 70
     0
  9
$MIRRTEXT
 70
     0
  9
$LTSCALE
 40
1.0
  9
$ATTMODE
 70
     1
  9
$TEXTSIZE
 40
2.5
  9
$TRACEWID
 40
0.05
  9
$SKETCHINC
 40
0.1
  9
$SKPOLY
 70
     0
  9
$TEXTSTYLE
  7
Standard
  9
$CMLSTYLE
  2
Standard
  9
$CLAYER
  8
0
  9
$CELTYPE
  6
ByLayer
  9
$CECOLOR
 62
   256
  9
$CELWEIGHT
370
    -1
  9
$CELTSCALE
 40
1.0
  9
$DISPSILH
 70
     1
  9
$LWDISPLAY
290
     0
  9
$LUNITS
 70
     2
  9
$LUPREC
 70
     4
  9
$AUNITS
 70
     0
  9
$AUPREC
 70
     0
  9
$MEASUREMENT
 70
     1
  9
$INSUNITS
 70
     6
  9
$PDMODE
 70
     0
  9
$PDSIZE
 40
0.0
  9
$PLINEGEN
 70
     0
  9
$PSLTSCALE
 70
     1
  9
$DIMSCALE
 40
1.0
  9
$DIMASZ
 40
0.18
  9
$DIMEXO
 40
0.0625
  9
$DIMDLI
 40
0.38
  9
$DIMRND
 40
0.0
  9
$DIMDLE
 40
0.0
  9
$DIMEXE
 40
0.18
  9
$DIMTP
 40
0.0
  9
$DIMTM
 40
0.0
  9
$DIMTXT
 40
0.18
  9
$DIMCEN
 40
0.09
  9
$DIMTSZ
 40
0.0
  9
$DIMTOL
 70
     0
  9
$DIMLIM
 70
     0
  9
$DIMTIH
 70
     1
  9
$DIMTOH
 70
     1
  9
$DIMSE1
 70
     0
  9
$DIMSE2
 70
     0
  9
$DIMTAD
 70
     0
  9
$DIMZIN
 70
     0
  9
$DIMCLRD
 70
     0
  9
$DIMCLRE
 70
     0
  9
$DIMCLRT
 70
     0
  9
$DIMGAP
 40
0.09
  9
$DIMALT
 70
     0
  9
$DIMALTD
 70
     2
  9
$DIMALTF
 40
25.4
  9
$DIMLFAC
 40
1.0
  9
$DIMTOFL
 70
     0
  9
$DIMTVP
 40
0.0
  9
$DIMTIX
 70
     0
  9
$DIMSOXD
 70
     0
  9
$DIMSAH
 70
     0
  9
$DIMPOST
  1

  9
$DIMAPOST
  1

  9
$DIMSTYLE
  2
ISO-25
  9
$DIMLUNIT
 70
     2
  9
$DIMDEC
 70
     4
  9
$DIMTDEC
 70
     4
  9
$DIMALTU
 70
     2
  9
$DIMALTTD
 70
     4
  9
$DIMAUNIT
 70
     0
  9
$DIMADEC
 70
     0
  9
$DIMJUST
 70
     0
  9
$DIMSD1
 70
     0
  9
$DIMSD2
 70
     0
  9
$DIMTOLJ
 70
     1
  9
$DIMTZIN
 70
     0
  9
$DIMALTZ
 70
     0
  9
$DIMALTTZ
 70
     0
  9
$DIMATFIT
 70
     3
  9
$DIMDSEP
 70
    46
  9
$DIMTMOVE
 70
     0
  9
$DIMFRAC
 70
     0
  9
$DIMLWD
 70
    -2
  9
$DIMLWE
 70
    -2
  9
$DIMTFAC
 40
1.0
  9
$SPLFRAME
 70
     0
  9
$XCLIPFRAME
280
2
  9
$DWFFRAME
280
2
  9
$DGNFRAME
280
0
  9
$SOLIDHIST
280
0
  9
$SHOWHIST
280
1
  9
$SPLINETYPE
 70
     6
  9
$SPLINESEGS
 70
     8
  9
$SURFTAB1
 70
     6
  9
$SURFTAB2
 70
     6
  9
$SURFTYPE
 70
     6
  9
$SURFU
 70
     6
  9
$SURFV
 70
     6
  9
$WORLDVIEW
 70
     1
  9
$PELEVATION
 40
0.0
  9
$PLINEWID
 40
0.0
  9
$MAXACTVP
 70
    64
  9
$TILEMODE
 70
     1
  9
$PLIMCHECK
 70
     0
  9
$VISRETAIN
 70
     1
  9
$PSTYLEMODE
290
     1
  9
$TDCREATE
 40
0.0
  9
$TDUPDATE
 40
0.0
  9
$TDINDWG
 40
0.0
  9
$UCSORG
 10
0.0
 20
0.0
 30
0.0
  9
$UCSXDIR
 10
1.0
 20
0.0
 30
0.0
  9
$UCSYDIR
 10
0.0
 20
1.0
 30
0.0
  0
ENDSEC
  0
SECTION
  2
CLASSES
  0
CLASS
  1
ACDBDICTIONARYWDFLT
  2
AcDbDictionaryWithDefault
  3
ObjectDBX Classes
 90
     0
 91
     0
280
0
281
0
  0
CLASS
  1
DICTIONARYVAR
  2
AcDbDictionaryVar
  3
ObjectDBX Classes
 90
     0
 91
     0
280
0
281
0
  0
CLASS
  1
LAYOUT
  2
AcDbLayout
  3
ObjectDBX Classes
 90
     0
 91
     0
280
0
281
0
  0
CLASS
  1
ACDBPLACEHOLDER
  2
AcDbPlaceHolder
  3
ObjectDBX Classes
 90
     0
 91
     0
280
0
281
0
  0
CLASS
  1
PLOTSETTINGS
  2
AcDbPlotSettings
  3
ObjectDBX Classes
 90
     0
 91
     0
280
0
281
0
  0
CLASS
  1
SCALE
  2
AcDbScale
  3
ObjectDBX Classes
 90
     0
 91
     0
280
0
281
0
  0
CLASS
  1
MESH
  2
AcDbSubDMesh
  3
AcDbSubDMesh|Description: AutoCAD subD mesh
 90
  4095
 91
     0
280
0
281
1
  0
CLASS
  1
ACAD_TABLE
  2
AcDbTable
  3
ObjectDBX Classes
 90
  1025
 91
     0
280
0
281
1
  0
CLASS
  1
WIPEOUT
  2
AcDbWipeout
  3
WipeOut|AutoCAD Express Tool|www.autodesk.com
 90
   127
 91
     0
280
0
281
1
  0
CLASS
  1
IMAGE
  2
AcDbRasterImage
  3
ISM
 90
   127
 91
     0
280
0
281
1
  0
CLASS
  1
PDFREFERENCE
  2
AcDbPdfReference
  3
ObjectDBX Classes
 90
     1
 91
     0
280
0
281
1
  0
CLASS
  1
DWFREFERENCE
  2
AcDbDwfReference
  3
ObjectDBX Classes
 90
     1
 91
     0
280
0
281
1
  0
CLASS
  1
DGNREFERENCE
  2
AcDbDgnReference
  3
ObjectDBX Classes
 90
     1
 91
     0
280
0
281
1
  0
CLASS
  1
PDFUNDERLAY
  2
AcDbPdfReference
  3
ObjectDBX Classes
 90
     1
 91
     0
280
0
281
1
  0
CLASS
  1
DWFUNDERLAY
  2
AcDbDwfReference
  3
ObjectDBX Classes
 90
     1
 91
     0
280
0
281
1
  0
CLASS
  1
DGNUNDERLAY
  2
AcDbDgnReference
  3
ObjectDBX Classes
 90
     1
 91
     0
280
0
281
1
  0
CLASS
  1
HELIX
  2
AcDbHelix
  3
ObjectDBX Classes
 90
     0
 91
     0
280
0
281
1
  0
CLASS
  1
LIGHT
  2
AcDbLight
  3
SCENEOE
 90
  1153
 91
     0
280
0
281
1
  0
CLASS
  1
MULTILEADER
  2
AcDbMLeader
  3
ACDB_MLEADER_CLASS
 90
  1025
 91
     0
280
0
281
1
  0
CLASS
  1
OLE2FRAME
  2
AcDbOle2Frame
  3
ObjectDBX Classes
 90
     1
 91
     0
280
0
281
1
  0
CLASS
  1
MLINE
  2
AcDbMline
  3
ObjectDBX Classes
 90
     1
 91
     0
280
0
281
1
  0
CLASS
  1
ARC_DIMENSION
  2
AcDbArcDimension
  3
ObjectDBX Classes
 90
     0
 91
     0
280
0
281
1
  0
CLASS
  1
LARGE_RADIAL_DIMENSION
  2
AcDbRadialDimensionLarge
  3
ObjectDBX Classes
 90
     0
 91
     0
280
0
281
1
  0
CLASS
  1
CAMERA
  2
AcDbCamera
  3
ObjectDBX Classes
 90
     0
 91
     0
280
0
281
1
  0
CLASS
  1
SECTIONOBJECT
  2
AcDbSection
  3
ObjectDBX Classes
 90
     0
 91
     0
280
0
281
1
  0
CLASS
  1
ARCALIGNEDTEXT
  2
AcDbArcAlignedText
  3
AutoCAD Express Tools
 90
   127
 91
     0
280
0
281
1
  0
CLASS
  1
RTEXT
  2
AcDbRText
  3
AutoCAD Express Tools
 90
   127
 91
     0
280
0
281
1
  0
CLASS
  1
POSITIONMARKER
  2
AcDbGeoPositionMarker
  3
ObjectDBX Classes
 90
     0
 91
     0
280
0
281
1
  0
CLASS
  1
COORDINATION_MODEL
  2
AcDbNavisworksModel
  3
ObjectDBX Classes
 90
     0
 91
     0
280
0
281
1
  0
CLASS
  1
ACDBPOINTCLOUD
  2
AcDbPointCloud
  3
AcDbPointCloudObj
 90
     0
 91
     0
280
0
281
1
  0
CLASS
  1
ACDBPOINTCLOUDEX
  2
AcDbPointCloudEx
  3
AcDbPointCloudObj
 90
     0
 91
     0
280
0
281
1
  0
CLASS
  1
MPOLYGON
  2
AcDbMPolygon
  3
ObjectDBX Classes
 90
   127
 91
     0
280
0
281
1
  0
CLASS
  1
ALIGNMENTPARAMETERENTITY
  2
AcDbBlockAlignmentParameterEntity
  3
ObjectDBX Classes
 90
     0
 91
     0
280
0
281
1
  0
CLASS
  1
BASEPOINTPARAMETERENTITY
  2
AcDbBlockBasepointParameterEntity
  3
ObjectDBX Classes
 90
     0
 91
     0
280
0
281
1
  0
CLASS
  1
FLIPPARAMETERENTITY
  2
AcDbBlockFlipParameterEntity
  3
ObjectDBX Classes
 90
     0
 91
     0
280
0
281
1
  0
CLASS
  1
LINEARPARAMETERENTITY
  2
AcDbBlockLinearParameterEntity
  3
ObjectDBX Classes
 90
     0
 91
     0
280
0
281
1
  0
CLASS
  1
POINTPARAMETERENTITY
  2
AcDbBlockPointParameterEntity
  3
ObjectDBX Classes
 90
     0
 91
     0
280
0
281
1
  0
CLASS
  1
ROTATIONPARAMETERENTITY
  2
AcDbBlockRotationParameterEntity
  3
ObjectDBX Classes
 90
     0
 91
     0
280
0
281
1
  0
CLASS
  1
VISIBILITYPARAMETERENTITY
  2
AcDbBlockVisibilityParameterEntity
  3
ObjectDBX Classes
 90
     0
 91
     0
280
0
281
1
  0
CLASS
  1
FLIPGRIPENTITY
  2
AcDbBlockFlipGripEntity
  3
ObjectDBX Classes
 90
     0
 91
     0
280
0
281
1
  0
CLASS
  1
LINEARGRIPENTITY
  2
AcDbBlockLinearGripEntity
  3
ObjectDBX Classes
 90
     0
 91
     0
280
0
281
1
  0
CLASS
  1
POLARGRIPENTITY
  2
AcDbBlockPolarGripEntity
  3
ObjectDBX Classes
 90
     0
 91
     0
280
0
281
1
  0
CLASS
  1
ROTATIONGRIPENTITY
  2
AcDbBlockRotationGripEntity
  3
ObjectDBX Classes
 90
     0
 91
     0
280
0
281
1
  0
CLASS
  1
VISIBILITYGRIPENTITY
  2
AcDbBlockVisibilityGripEntity
  3
ObjectDBX Classes
 90
     0
 91
     0
280
0
281
1
  0
CLASS
  1
XYGRIPENTITY
  2
AcDbBlockXYGripEntity
  3
ObjectDBX Classes
 90
     0
 91
     0
280
0
281
1
  0
CLASS
  1
XYPARAMETERENTITY
  2
AcDbBlockXYParameterEntity
  3
ObjectDBX Classes
 90
     0
 91
     0
280
0
281
1
  0
CLASS
  1
BLOCKANGULARCONSTRAINTPARAMETERENTITY
  2
AcDbBlockAngularConstraintParameterEntity
  3
ObjectDBX Classes
 90
     0
 91
     0
280
0
281
1
  0
CLASS
  1
LOFTEDSURFACE
  2
AcDbLoftedSurface
  3
ObjectDBX Classes
 90
     0
 91
     0
280
0
281
1
  0
CLASS
  1
ACDBASSOCDEPENDENCY
  2
AcDbAssocDependency
  3
ObjectDBX Classes
 90
     0
 91
     0
280
0
281
0
  0
CLASS
  1
ACDBASSOCVALUEDEPENDENCY
  2
AcDbAssocValueDependency
  3
ObjectDBX Classes
 90
  1025
 91
     0
280
0
281
0
  0
CLASS
  1
ACDBASSOCGEOMDEPENDENCY
  2
AcDbAssocGeomDependency
  3
ObjectDBX Classes
 90
  1025
 91
     0
280
0
281
0
  0
CLASS
  1
ACDBASSOCACTION
  2
AcDbAssocAction
  3
ObjectDBX Classes
 90
     0
 91
     0
280
0
281
0
  0
CLASS
  1
ACDBASSOCNETWORK
  2
AcDbAssocNetwork
  3
ObjectDBX Classes
 90
  1025
 91
     0
280
0
281
0
  0
CLASS
  1
ACDBASSOC2DCONSTRAINTGROUP
  2
AcDbAssoc2dConstraintGroup
  3
ObjectDBX Classes
 90
  1025
 91
     0
280
0
281
0
  0
CLASS
  1
ACDBASSOCVARIABLE
  2
AcDbAssocVariable
  3
ObjectDBX Classes
 90
  1025
 91
     0
280
0
281
0
  0
CLASS
  1
ACDBASSOCPERSSUBENTMANAGER
  2
AcDbAssocPersSubentManager
  3
ObjectDBX Classes
 90
     0
 91
     0
280
0
281
0
  0
CLASS
  1
ACDBASSOCCOMPOUNDACTIONPARAM
  2
AcDbAssocCompoundActionParam
  3
ObjectDBX Classes
 90
     0
 91
     0
280
0
281
0
  0
CLASS
  1
ACDBASSOCOSNAPPOINTREFACTIONPARAM
  2
AcDbAssocOsnapPointRefActionParam
  3
ObjectDBX Classes
 90
     0
 91
     0
280
0
281
0
  0
CLASS
  1
ACDBASSOCOBJECTACTIONPARAM
  2
AcDbAssocObjectActionParam
  3
ObjectDBX Classes
 90
     0
 91
     0
280
0
281
0
  0
CLASS
  1
ACDBASSOCPATHACTIONPARAM
  2
AcDbAssocPathActionParam
  3
ObjectDBX Classes
 90
     0
 91
     0
280
0
281
0
  0
CLASS
  1
ACDBASSOCEDGEACTIONPARAM
  2
AcDbAssocEdgeActionParam
  3
ObjectDBX Classes
 90
     0
 91
     0
280
0
281
0
  0
CLASS
  1
ACDBASSOCFACEACTIONPARAM
  2
AcDbAssocFaceActionParam
  3
ObjectDBX Classes
 90
     0
 91
     0
280
0
281
0
  0
CLASS
  1
ACDBASSOCVERTEXACTIONPARAM
  2
AcDbAssocVertexActionParam
  3
ObjectDBX Classes
 90
     0
 91
     0
280
0
281
0
  0
CLASS
  1
ACDBASSOCASMBODYACTIONPARAM
  2
AcDbAssocAsmbodyActionParam
  3
ObjectDBX Classes
 90
     0
 91
     0
280
0
281
0
  0
CLASS
  1
ACDBASSOCDIMDEPENDENCYBODY
  2
AcDbAssocDimDependencyBody
  3
ObjectDBX Classes
 90
     0
 91
     0
280
0
281
0
  0
CLASS
  1
ACDBASSOCPLANESURFACEACTIONBODY
  2
AcDbAssocPlaneSurfaceActionBody
  3
ObjectDBX Classes
 90
     0
 91
     0
280
0
281
0
  0
CLASS
  1
ACDBASSOCEXTENDSURFACEACTIONBODY
  2
AcDbAssocExtendSurfaceActionBody
  3
ObjectDBX Classes
 90
     0
 91
     0
280
0
281
0
  0
CLASS
  1
ACDBASSOCEXTRUDEDSURFACEACTIONBODY
  2
AcDbAssocExtrudedSurfaceActionBody
  3
ObjectDBX Classes
 90
     0
 91
     0
280
0
281
0
  0
CLASS
  1
ACDBASSOCLOFTEDSURFACEACTIONBODY
  2
AcDbAssocLoftedSurfaceActionBody
  3
ObjectDBX Classes
 90
     0
 91
     0
280
0
281
0
  0
CLASS
  1
ACDBASSOCNETWORKSURFACEACTIONBODY
  2
AcDbAssocNetworkSurfaceActionBody
  3
ObjectDBX Classes
 90
     0
 91
     0
280
0
281
0
  0
CLASS
  1
ACDBASSOCOFFSETSURFACEACTIONBODY
  2
AcDbAssocOffsetSurfaceActionBody
  3
ObjectDBX Classes
 90
     0
 91
     0
280
0
281
0
  0
CLASS
  1
ACDBASSOCREVOLVEDSURFACEACTIONBODY
  2
AcDbAssocRevolvedSurfaceActionBody
  3
ObjectDBX Classes
 90
     0
 91
     0
280
0
281
0
  0
CLASS
  1
ACDBASSOCTRIMSURFACEACTIONBODY
  2
AcDbAssocTrimSurfaceActionBody
  3
ObjectDBX Classes
 90
     0
 91
     0
280
0
281
0
  0
CLASS
  1
ACDBASSOCBLENDSURFACEACTIONBODY
  2
AcDbAssocBlendSurfaceActionBody
  3
ObjectDBX Classes
 90
     0
 91
     0
280
0
281
0
  0
CLASS
  1
ACDBASSOCPATCHSURFACEACTIONBODY
  2
AcDbAssocPatchSurfaceActionBody
  3
ObjectDBX Classes
 90
     0
 91
     0
280
0
281
0
  0
CLASS
  1
ACDBASSOCFILLETSURFACEACTIONBODY
  2
AcDbAssocFilletSurfaceActionBody
  3
ObjectDBX Classes
 90
     0
 91
     0
280
0
281
0
  0
CLASS
  1
ACDBASSOCSWEPTSURFACEACTIONBODY
  2
AcDbAssocSweptSurfaceActionBody
  3
ObjectDBX Classes
 90
     0
 91
     0
280
0
281
0
  0
CLASS
  1
ACDBASSOCEDGECHAMFERACTIONBODY
  2
AcDbAssocEdgeChamferActionBody
  3
ObjectDBX Classes
 90
     0
 91
     0
280
0
281
0
  0
CLASS
  1
ACDBASSOCEDGEFILLETACTIONBODY
  2
AcDbAssocEdgeFilletActionBody
  3
ObjectDBX Classes
 90
     0
 91
     0
280
0
281
0
  0
CLASS
  1
ACDBASSOCRESTOREENTITYSTATEACTIONBODY
  2
AcDbAssocRestoreEntityStateActionBody
  3
ObjectDBX Classes
 90
     0
 91
     0
280
0
281
0
  0
CLASS
  1
ACDBASSOCMLEADERACTIONBODY
  2
AcDbAssocMLeaderActionBody
  3
ObjectDBX Classes
 90
     0
 91
     0
280
0
281
0
  0
CLASS
  1
ACDBASSOCALIGNEDDIMACTIONBODY
  2
AcDbAssocAlignedDimActionBody
  3
ObjectDBX Classes
 90
     0
 91
     0
280
0
281
0
  0
CLASS
  1
ACDBASSOC3POINTANGULARDIMACTIONBODY
  2
AcDbAssoc3PointAngularDimActionBody
  3
ObjectDBX Classes
 90
     0
 91
     0
280
0
281
0
  0
CLASS
  1
ACDBASSOCORDINATEDIMACTIONBODY
  2
AcDbAssocOrdinateDimActionBody
  3
ObjectDBX Classes
 90
     0
 91
     0
280
0
281
0
  0
CLASS
  1
ACDBASSOCROTATEDDIMACTIONBODY
  2
AcDbAssocRotatedDimActionBody
  3
ObjectDBX Classes
 90
     0
 91
     0
280
0
281
0
  0
CLASS
  1
ACDBASSOCARRAYMODIFYPARAMETERS
  2
AcDbAssocArrayModifyParameters
  3
ObjectDBX Classes
 90
     0
 91
     0
280
0
281
0
  0
CLASS
  1
ACDBASSOCARRAYPATHPARAMETERS
  2
AcDbAssocArrayPathParameters
  3
ObjectDBX Classes
 90
     0
 91
     0
280
0
281
0
  0
CLASS
  1
ACDBASSOCARRAYPOLARPARAMETERS
  2
AcDbAssocArrayPolarParameters
  3
ObjectDBX Classes
 90
     0
 91
     0
280
0
281
0
  0
CLASS
  1
ACDBASSOCARRAYRECTANGULARPARAMETERS
  2
AcDbAssocArrayRectangularParameters
  3
ObjectDBX Classes
 90
     0
 91
     0
280
0
281
0
  0
CLASS
  1
ACDBASSOCARRAYACTIONBODY
  2
AcDbAssocArrayActionBody
  3
ObjectDBX Classes
 90
     0
 91
     0
280
0
281
0
  0
CLASS
  1
ACDBASSOCARRAYMODIFYACTIONBODY
  2
AcDbAssocArrayModifyActionBody
  3
ObjectDBX Classes
 90
     0
 91
     0
280
0
281
0
  0
CLASS
  1
PERSUBENTMGR
  2
AcDbPersSubentManager
  3
ObjectDBX Classes
 90
     0
 91
     0
280
0
281
0
  0
CLASS
  1
ACSH_BOOLEAN_CLASS
  2
AcDbShBoolean
  3
ObjectDBX Classes
 90
     0
 91
     0
280
0
281
0
  0
CLASS
  1
ACSH_BOX_CLASS
  2
AcDbShBox
  3
ObjectDBX Classes
 90
     0
 91
     0
280
0
281
0
  0
CLASS
  1
ACSH_BREP_CLASS
  2
AcDbShBrep
  3
ObjectDBX Classes
 90
     0
 91
     0
280
0
281
0
  0
CLASS
  1
ACSH_CHAMFER_CLASS
  2
AcDbShChamfer
  3
ObjectDBX Classes
 90
     0
 91
     0
280
0
281
0
  0
CLASS
  1
ACSH_CONE_CLASS
  2
AcDbShCone
  3
ObjectDBX Classes
 90
     0
 91
     0
280
0
281
0
  0
CLASS
  1
ACSH_CYLINDER_CLASS
  2
AcDbShCylinder
  3
ObjectDBX Classes
 90
     0
 91
     0
280
0
281
0
  0
CLASS
  1
ACSH_EXTRUSION_CLASS
  2
AcDbShExtrusion
  3
ObjectDBX Classes
 90
     0
 91
     0
280
0
281
0
  0
CLASS
  1
ACSH_FILLET_CLASS
  2
AcDbShFillet
  3
ObjectDBX Classes
 90
     0
 91
     0
280
0
281
0
  0
CLASS
  1
ACSH_HISTORY_CLASS
  2
AcDbShHistory
  3
ObjectDBX Classes
 90
     0
 91
     0
280
0
281
0
  0
CLASS
  1
ACSH_LOFT_CLASS
  2
AcDbShLoft
  3
ObjectDBX Classes
 90
     0
 91
     0
280
0
281
0
  0
CLASS
  1
ACSH_PYRAMID_CLASS
  2
AcDbShPyramid
  3
ObjectDBX Classes
 90
     0
 91
     0
280
0
281
0
  0
CLASS
  1
ACSH_REVOLVE_CLASS
  2
AcDbShRevolve
  3
ObjectDBX Classes
 90
     0
 91
     0
280
0
281
0
  0
CLASS
  1
ACSH_SPHERE_CLASS
  2
AcDbShSphere
  3
ObjectDBX Classes
 90
     0
 91
     0
280
0
281
0
  0
CLASS
  1
ACSH_SWEEP_CLASS
  2
AcDbShSweep
  3
ObjectDBX Classes
 90
     0
 91
     0
280
0
281
0
  0
CLASS
  1
ACSH_TORUS_CLASS
  2
AcDbShTorus
  3
ObjectDBX Classes
 90
     0
 91
     0
280
0
281
0
  0
CLASS
  1
ACSH_WEDGE_CLASS
  2
AcDbShWedge
  3
ObjectDBX Classes
 90
     0
 91
     0
280
0
281
0
  0
CLASS
  1
ACDB_BLOCKREPRESENTATION_DATA
  2
AcDbBlockRepresentationData
  3
ObjectDBX Classes
 90
     0
 91
     0
280
0
281
0
  0
CLASS
  1
ACDB_DYNAMICBLOCKPURGEPREVENTER_VERSION
  2
AcDbDynamicBlockPurgePreventer
  3
ObjectDBX Classes
 90
     0
 91
     0
280
0
281
0
  0
CLASS
  1
ACDB_DYNAMICBLOCKPROXYNODE
  2
AcDbDynamicBlockProxyNode
  3
ObjectDBX Classes
 90
     0
 91
     0
280
0
281
0
  0
CLASS
  1
ACAD_EVALUATION_GRAPH
  2
AcDbEvalGraph
  3
ObjectDBX Classes
 90
     0
 91
     0
280
0
281
0
  0
CLASS
  1
BLOCKGRIPLOCATIONCOMPONENT
  2
AcDbBlockGripExpr
  3
ObjectDBX Classes
 90
     0
 91
     0
280
0
281
0
  0
CLASS
  1
BLOCKALIGNMENTPARAMETER
  2
AcDbBlockAlignmentParameter
  3
ObjectDBX Classes
 90
     0
 91
     0
280
0
281
0
  0
CLASS
  1
BLOCKALIGNMENTGRIP
  2
AcDbBlockAlignmentGrip
  3
ObjectDBX Classes
 90
     0
 91
     0
280
0
281
0
  0
CLASS
  1
BLOCKBASEPOINTPARAMETER
  2
AcDbBlockBasepointParameter
  3
ObjectDBX Classes
 90
     0
 91
     0
280
0
281
0
  0
CLASS
  1
BLOCKFLIPACTION
  2
AcDbBlockFlipAction
  3
ObjectDBX Classes
 90
     0
 91
     0
280
0
281
0
  0
CLASS
  1
BLOCKFLIPPARAMETER
  2
AcDbBlockFlipParameter
  3
ObjectDBX Classes
 90
     0
 91
     0
280
0
281
0
  0
CLASS
  1
BLOCKFLIPGRIP
  2
AcDbBlockFlipGrip
  3
ObjectDBX Classes
 90
     0
 91
     0
280
0
281
0
  0
CLASS
  1
BLOCKLINEARGRIP
  2
AcDbBlockLinearGrip
  3
ObjectDBX Classes
 90
     0
 91
     0
280
0
281
0
  0
CLASS
  1
BLOCKLOOKUPGRIP
  2
AcDbBlockLookupGrip
  3
ObjectDBX Classes
 90
     0
 91
     0
280
0
281
0
  0
CLASS
  1
BLOCKROTATIONGRIP
  2
AcDbBlockRotationGrip
  3
ObjectDBX Classes
 90
     0
 91
     0
280
0
281
0
  0
CLASS
  1
BLOCKMOVEACTION
  2
AcDbBlockMoveAction
  3
ObjectDBX Classes
 90
     0
 91
     0
280
0
281
0
  0
CLASS
  1
BLOCKROTATEACTION
  2
AcDbBlockRotationAction
  3
ObjectDBX Classes
 90
     0
 91
     0
280
0
281
0
  0
CLASS
  1
BLOCKSCALEACTION
  2
AcDbBlockScaleAction
  3
ObjectDBX Classes
 90
     0
 91
     0
280
0
281
0
  0
CLASS
  1
BLOCKVISIBILITYGRIP
  2
AcDbBlockVisibilityGrip
  3
ObjectDBX Classes
 90
     0
 91
     0
280
0
281
0
  0
CLASS
  1
BLOCKLINEARPARAMETER
  2
AcDbBlockLinearParameter
  3
ObjectDBX Classes
 90
     0
 91
     0
280
0
281
0
  0
CLASS
  1
BLOCKROTATIONPARAMETER
  2
AcDbBlockRotationParameter
  3
ObjectDBX Classes
 90
     0
 91
     0
280
0
281
0
  0
CLASS
  1
BLOCKXYPARAMETER
  2
AcDbBlockXYParameter
  3
ObjectDBX Classes
 90
     0
 91
     0
280
0
281
0
  0
CLASS
  1
BLOCKVISIBILITYPARAMETER
  2
AcDbBlockVisibilityParameter
  3
ObjectDBX Classes
 90
     0
 91
     0
280
0
281
0
  0
CLASS
  1
BLOCKPOLARPARAMETER
  2
AcDbBlockPolarParameter
  3
ObjectDBX Classes
 90
     0
 91
     0
280
0
281
0
  0
CLASS
  1
BLOCKPOLARGRIP
  2
AcDbBlockPolarGrip
  3
ObjectDBX Classes
 90
     0
 91
     0
280
0
281
0
  0
CLASS
  1
ACDBBLOCKPARAMDEPENDENCYBODY
  2
AcDbBlockParameterDependencyBody
  3
ObjectDBX Classes
 90
     0
 91
     0
280
0
281
0
  0
CLASS
  1
BLOCKPARAMDEPENDENCYBODY
  2
AcDbBlockParameterDependencyBody
  3
ObjectDBX Classes
 90
     0
 91
     0
280
0
281
0
  0
CLASS
  1
ACMECOMMANDHISTORY
  2
AcMeCommandHistory
  3
AcMeServices
 90
     0
 91
     0
280
0
281
0
  0
CLASS
  1
ACMESCOPE
  2
AcMeScope
  3
AcMeServices
 90
     0
 91
     0
280
0
281
0
  0
CLASS
  1
ACMESTATEMGR
  2
AcMeStateMgr
  3
AcMeServices
 90
     0
 91
     0
280
0
281
0
  0
CLASS
  1
CSACDOCUMENTOPTIONS
  2
CDocDataContainer
  3
"DERU003_CSAPP"
 90
  4095
 91
     0
280
0
281
0
  0
CLASS
  1
BLOCKALIGNEDCONSTRAINTPARAMETER
  2
AcDbBlockAlignedConstraintParameter
  3
ObjectDBX Classes
 90
     0
 91
     0
280
0
281
0
  0
CLASS
  1
BLOCKANGULARCONSTRAINTPARAMETER
  2
AcDbBlockAngularConstraintParameter
  3
ObjectDBX Classes
 90
     0
 91
     0
280
0
281
0
  0
CLASS
  1
BLOCKARRAYACTION
  2
AcDbBlockArrayAction
  3
ObjectDBX Classes
 90
     0
 91
     0
280
0
281
0
  0
CLASS
  1
BLOCKDIAMETRICCONSTRAINTPARAMETER
  2
AcDbBlockDiametricConstraintParameter
  3
ObjectDBX Classes
 90
     0
 91
     0
280
0
281
0
  0
CLASS
  1
BLOCKHORIZONTALCONSTRAINTPARAMETER
  2
AcDbBlockHorizontalConstraintParameter
  3
ObjectDBX Classes
 90
     0
 91
     0
280
0
281
0
  0
CLASS
  1
BLOCKLINEARCONSTRAINTPARAMETER
  2
AcDbBlockLinearConstraintParameter
  3
ObjectDBX Classes
 90
     0
 91
     0
280
0
281
0
  0
CLASS
  1
BLOCKRADIALCONSTRAINTPARAMETER
  2
AcDbBlockRadialConstraintParameter
  3
ObjectDBX Classes
 90
     0
 91
     0
280
0
281
0
  0
CLASS
  1
BLOCKVERTICALCONSTRAINTPARAMETER
  2
AcDbBlockVerticalConstraintParameter
  3
ObjectDBX Classes
 90
     0
 91
     0
280
0
281
0
  0
CLASS
  1
BLOCKLOOKUPACTION
  2
AcDbBlockLookupAction
  3
ObjectDBX Classes
 90
     0
 91
     0
280
0
281
0
  0
CLASS
  1
BLOCKLOOKUPPARAMETER
  2
AcDbBlockLookupParameter
  3
ObjectDBX Classes
 90
     0
 91
     0
280
0
281
0
  0
CLASS
  1
BLOCKPOINTPARAMETER
  2
AcDbBlockPointParameter
  3
ObjectDBX Classes
 90
     0
 91
     0
280
0
281
0
  0
CLASS
  1
BLOCKPOLARSTRETCHACTION
  2
AcDbBlockPolarStretchAction
  3
ObjectDBX Classes
 90
     0
 91
     0
280
0
281
0
  0
CLASS
  1
BLOCKSTRETCHACTION
  2
AcDbBlockStretchAction
  3
ObjectDBX Classes
 90
     0
 91
     0
280
0
281
0
  0
CLASS
  1
BLOCKUSERPARAMETER
  2
AcDbBlockUserParameter
  3
ObjectDBX Classes
 90
     0
 91
     0
280
0
281
0
  0
CLASS
  1
BLOCKXYGRIP
  2
AcDbBlockXYGrip
  3
ObjectDBX Classes
 90
     0
 91
     0
280
0
281
0
  0
CLASS
  1
BLOCKPROPERTIESTABLE
  2
AcDbBlockPropertiesTable
  3
ObjectDBX Classes
 90
     0
 91
     0
280
0
281
0
  0
CLASS
  1
BLOCKPROPERTIESTABLEGRIP
  2
AcDbBlockPropertiesTableGrip
  3
ObjectDBX Classes
 90
     0
 91
     0
280
0
281
0
  0
CLASS
  1
SPATIAL_INDEX
  2
AcDbSpatialIndex
  3
ObjectDBX Classes
 90
     0
 91
     0
280
0
281
0
  0
CLASS
  1
LAYERFILTER
  2
AcDbLayerFilter
  3
ObjectDBX Classes
 90
     0
 91
     0
280
0
281
0
  0
CLASS
  1
PARTIAL_VIEWING_INDEX
  2
OdDbPartialViewingIndex
  3
ObjectDBX Classes
 90
     0
 91
     0
280
0
281
0
  0
CLASS
  1
VBA_PROJECT
  2
AcDbVbaProject
  3
ObjectDBX Classes
 90
     0
 91
     0
280
0
281
0
  0
CLASS
  1
SECTION_MANAGER
  2
AcDbSectionManager
  3
ObjectDBX Classes
 90
     0
 91
     0
280
0
281
0
  0
CLASS
  1
SECTION_SETTINGS
  2
AcDbSectionSettings
  3
ObjectDBX Classes
 90
     0
 91
     0
280
0
281
0
  0
CLASS
  1
LIGHTLIST
  2
AcDbLightList
  3
SCENEOE
 90
     0
 91
     0
280
0
281
0
  0
CLASS
  1
SUN
  2
AcDbSun
  3
SCENEOE
 90
     0
 91
     0
280
0
281
0
  0
CLASS
  1
SUNSTUDY
  2
AcDbSunStudy
  3
SCENEOE
 90
     0
 91
     0
280
0
281
0
  0
CLASS
  1
RENDERSETTINGS
  2
AcDbRenderSettings
  3
SCENEOE
 90
     0
 91
     0
280
0
281
0
  0
CLASS
  1
MENTALRAYRENDERSETTINGS
  2
AcDbMentalRayRenderSettings
  3
SCENEOE
 90
     0
 91
     0
280
0
281
0
  0
CLASS
  1
RAPIDRTRENDERSETTINGS
  2
AcDbRapidRTRenderSettings
  3
ObjectDBX Classes
 90
     0
 91
     0
280
0
281
0
  0
CLASS
  1
RENDERENVIRONMENT
  2
AcDbRenderEnvironment
  3
SCENEOE
 90
     0
 91
     0
280
0
281
0
  0
CLASS
  1
RENDERGLOBAL
  2
AcDbRenderGlobal
  3
SCENEOE
 90
     0
 91
     0
280
0
281
0
  0
CLASS
  1
RENDERENTRY
  2
AcDbRenderEntry
  3
SCENEOE
 90
     0
 91
     0
280
0
281
0
  0
CLASS
  1
RAPIDRTRENDERENVIRONMENT
  2
AcDbIBLBackground
  3
SCENEOE
 90
     0
 91
     0
280
0
281
0
  0
CLASS
  1
SKYLIGHT_BACKGROUND
  2
AcDbSkyBackground
  3
SCENEOE
 90
     0
 91
     0
280
0
281
0
  0
CLASS
  1
IMAGE_BACKGROUND
  2
AcDbImageBackground
  3
SCENEOE
 90
     0
 91
     0
280
0
281
0
  0
CLASS
  1
SOLID_BACKGROUND
  2
AcDbSolidBackground
  3
SCENEOE
 90
     0
 91
     0
280
0
281
0
  0
CLASS
  1
GROUND_PLANE_BACKGROUND
  2
AcDbGroundPlaneBackground
  3
SCENEOE
 90
     0
 91
     0
280
0
281
0
  0
CLASS
  1
GRADIENT_BACKGROUND
  2
AcDbGradientBackground
  3
SCENEOE
 90
     0
 91
     0
280
0
281
0
  0
CLASS
  1
ACDBCURVEPATH
  2
AcDbCurvePath
  3
SCENEOE
 90
     0
 91
     0
280
0
281
0
  0
CLASS
  1
ACDBMOTIONPATH
  2
AcDbMotionPath
  3
SCENEOE
 90
     0
 91
     0
280
0
281
0
  0
CLASS
  1
ACDBPOINTPATH
  2
AcDbPointPath
  3
SCENEOE
 90
     0
 91
     0
280
0
281
0
  0
CLASS
  1
TVDEVICEPROPERTIES
  2
AcDbTvDeviceProperties
  3
SCENEOE
 90
     0
 91
     0
280
0
281
0
  0
CLASS
  1
ACDBPOINTCLOUDDEF
  2
AcDbPointCloudDef
  3
AcDbPointCloudObj
 90
     0
 91
     0
280
0
281
0
  0
CLASS
  1
ACDBPOINTCLOUDDEFEX
  2
AcDbPointCloudDefEx
  3
AcDbPointCloudObj
 90
     0
 91
     0
280
0
281
0
  0
CLASS
  1
ACDBPOINTCLOUDDEF_REACTOR
  2
AcDbPointCloudDefReactor
  3
AcDbPointCloudObj
 90
     0
 91
     0
280
0
281
0
  0
CLASS
  1
ACDBPOINTCLOUDDEF_REACTOR_EX
  2
AcDbPointCloudDefReactorEx
  3
AcDbPointCloudObj
 90
     0
 91
     0
280
0
281
0
  0
CLASS
  1
ACDBPOINTCLOUDCOLORMAP
  2
AcDbPointCloudColorMap
  3
AcDbPointCloudObj
 90
     0
 91
     0
280
0
281
0
  0
CLASS
  1
NAVISWORKSMODELDEF
  2
AcDbNavisworksModelDef
  3
ObjectDBX Classes
 90
     0
 91
     0
280
0
281
0
  0
CLASS
  1
CONTEXTDATAMANAGER
  2
AcDbContextDataManager
  3
ObjectDBX Classes
 90
     0
 91
     0
280
0
281
0
  0
CLASS
  1
DATATABLE
  2
AcDbDataTable
  3
ObjectDBX Classes
 90
     0
 91
     0
280
0
281
0
  0
CLASS
  1
DATALINK
  2
AcDbDataLink
  3
ObjectDBX Classes
 90
     0
 91
     0
280
0
281
0
  0
CLASS
  1
ACDBPERSSUBENTMANAGER
  2
AcDbPersSubentManager
  3
ObjectDBX Classes
 90
     0
 91
     0
280
0
281
0
  0
CLASS
  1
GEOMAPIMAGE
  2
AcDbGeomapImage
  3
ObjectDBX Classes
 90
     0
 91
     0
280
0
281
0
  0
CLASS
  1
ACDBDETAILVIEWSTYLE
  2
AcDbDetailViewStyle
  3
ObjectDBX Classes
 90
     0
 91
     0
280
0
281
0
  0
CLASS
  1
ACDBSECTIONVIEWSTYLE
  2
AcDbSectionViewStyle
  3
ObjectDBX Classes
 90
     0
 91
     0
280
0
281
0
  0
CLASS
  1
ACAD_PROXY_ENTITY_WRAPPER
  2
AcDbProxyEntityWrapper
  3
ObjectDBX Classes
 90
     0
 91
     0
280
0
281
1
  0
CLASS
  1
ACAD_PROXY_OBJECT_WRAPPER
  2
AcDbProxyObjectWrapper
  3
ObjectDBX Classes
 90
     0
 91
     0
280
0
281
0
  0
CLASS
  1
AEC_REFEDIT_STATUS_TRACKER
  2
AecDbRefEditStatusTracker
  3
AecArchBase
 90
     0
 91
     0
280
0
281
0
  0
CLASS
  1
EXACXREFPANELOBJECT
  2
ExAcXREFPanelObject
  3
EXAC_ESW
 90
     0
 91
     0
280
0
281
0
  0
CLASS
  1
XREFPANELOBJECT
  2
ExAcXREFPanelObject
  3
EXAC_ESW
 90
     0
 91
     0
280
0
281
0
  0
CLASS
  1
NPOCOLLECTION
  2
AcDbImpNonPersistentObjectsCollection
  3
ObjectDBX Classes
 90
     0
 91
     0
280
0
281
0
  0
CLASS
  1
LSDEFINITION
  2
AcDbLSDefinition
  3
DgnLS
 90
     0
 91
     0
280
0
281
0
  0
CLASS
  1
LSSYMBOLCOMPONENT
  2
AcDbLSSymbolComponent
  3
DgnLS
 90
     0
 91
     0
280
0
281
0
  0
CLASS
  1
LSCOMPOUNDCOMPONENT
  2
AcDbLSCompoundComponent
  3
DgnLS
 90
     0
 91
     0
280
0
281
0
  0
CLASS
  1
LSSTROKEPATTERNCOMPONENT
  2
AcDbLSStrokePatternComponent
  3
DgnLS
 90
     0
 91
     0
280
0
281
0
  0
CLASS
  1
LSPOINTCOMPONENT
  2
AcDbLSPointComponent
  3
DgnLS
 90
     0
 91
     0
280
0
281
0
  0
CLASS
  1
LSINTERNALCOMPONENT
  2
AcDbLSInternalComponent
  3
DgnLS
 90
     0
 91
     0
280
0
281
0
  0
CLASS
  1
McDbContainer2
  2
McDbContainer2
  3
NanoSPDS
 90
     0
 91
     0
280
0
281
0
  0
CLASS
  1
Wall
  2
PtDbWall
  3
NanoSPDS
 90
     0
 91
     0
280
0
281
1
  0
CLASS
  1
mcsDbObject
  2
mcsDbObject
  3
NanoSPDS
 90
     0
 91
     0
280
0
281
1
  0
CLASS
  1
NOTEPOSITION
  2
mcsDbObjectNotePosition
  3
NanoSPDS
 90
     0
 91
     0
280
0
281
1
  0
CLASS
  1
spdsLevelMark
  2
mcsDbObjectLevelMark
  3
NanoSPDS
 90
     0
 91
     0
280
0
281
1
  0
CLASS
  1
spdsRelationMark
  2
mcsDbObjectRelationMark
  3
NanoSPDS
 90
     0
 91
     0
280
0
281
1
  0
CLASS
  1
SECTIONLINE
  2
AcDbSectionSymbol
  3
ObjectDBX Classes
 90
     0
 91
     0
280
0
281
1
  0
CLASS
  1
DRAWINGVIEW
  2
AcDbViewBorder
  3
ObjectDBX Classes
 90
     0
 91
     0
280
0
281
1
  0
CLASS
  1
ACDB_ANNOTSCALEOBJECTCONTEXTDATA_CLASS
  2
AcDbAnnotScaleObjectContextData
  3
ObjectDBX Classes
 90
     0
 91
     0
280
0
281
0
  0
CLASS
  1
ACDB_BLKREFOBJECTCONTEXTDATA_CLASS
  2
AcDbBlkrefObjectContextData
  3
ObjectDBX Classes
 90
     0
 91
     0
280
0
281
0
  0
CLASS
  1
ACDB_TEXTOBJECTCONTEXTDATA_CLASS
  2
AcDbTextObjectContextData
  3
ObjectDBX Classes
 90
     0
 91
     0
280
0
281
0
  0
CLASS
  1
ACDB_MTEXTOBJECTCONTEXTDATA_CLASS
  2
AcDbMTextObjectContextData
  3
ObjectDBX Classes
 90
     0
 91
     0
280
0
281
0
  0
CLASS
  1
ACDB_ALDIMOBJECTCONTEXTDATA_CLASS
  2
AcDbAlignedDimensionObjectContextData
  3
ObjectDBX Classes
 90
     0
 91
     0
280
0
281
0
  0
CLASS
  1
ACDB_ANGDIMOBJECTCONTEXTDATA_CLASS
  2
AcDbAngularDimensionObjectContextData
  3
ObjectDBX Classes
 90
     0
 91
     0
280
0
281
0
  0
CLASS
  1
ACDB_DMDIMOBJECTCONTEXTDATA_CLASS
  2
AcDbDiametricDimensionObjectContextData
  3
ObjectDBX Classes
 90
     0
 91
     0
280
0
281
0
  0
CLASS
  1
ACDB_RADIMOBJECTCONTEXTDATA_CLASS
  2
AcDbRadialDimensionObjectContextData
  3
ObjectDBX Classes
 90
     0
 91
     0
280
0
281
0
  0
CLASS
  1
ACDB_RADIMLGOBJECTCONTEXTDATA_CLASS
  2
AcDbRadialDimensionLargeObjectContextData
  3
ObjectDBX Classes
 90
     0
 91
     0
280
0
281
0
  0
CLASS
  1
ACDB_ORDDIMOBJECTCONTEXTDATA_CLASS
  2
AcDbOrdinateDimensionObjectContextData
  3
ObjectDBX Classes
 90
     0
 91
     0
280
0
281
0
  0
CLASS
  1
ACDB_MLEADEROBJECTCONTEXTDATA_CLASS
  2
AcDbMLeaderObjectContextData
  3
ObjectDBX Classes
 90
     0
 91
     0
280
0
281
0
  0
CLASS
  1
ACDB_MTEXTATTRIBUTEOBJECTCONTEXTDATA_CLASS
  2
AcDbMTextAttributeObjectContextData
  3
ObjectDBX Classes
 90
     0
 91
     0
280
0
281
0
  0
CLASS
  1
ACDB_LEADEROBJECTCONTEXTDATA_CLASS
  2
AcDbLeaderObjectContextData
  3
ObjectDBX Classes
 90
     0
 91
     0
280
0
281
0
  0
CLASS
  1
ACDB_FCFOBJECTCONTEXTDATA_CLASS
  2
AcDbFcfObjectContextData
  3
ObjectDBX Classes
 90
     0
 91
     0
280
0
281
0
  0
CLASS
  1
ACDB_HATCHSCALECONTEXTDATA_CLASS
  2
AcDbHatchScaleContextData
  3
ObjectDBX Classes
 90
     0
 91
     0
280
0
281
0
  0
CLASS
  1
ACDB_HATCHVIEWCONTEXTDATA_CLASS
  2
AcDbHatchViewContextData
  3
ObjectDBX Classes
 90
     0
 91
     0
280
0
281
0
  0
CLASS
  1
TABLESTYLE
  2
AcDbTableStyle
  3
ObjectDBX Classes
 90
  1025
 91
     0
280
0
281
0
  0
CLASS
  1
MATERIAL
  2
AcDbMaterial
  3
ObjectDBX Classes
 90
  1025
 91
     0
280
0
281
0
  0
CLASS
  1
VISUALSTYLE
  2
AcDbVisualStyle
  3
ObjectDBX Classes
 90
  4095
 91
     0
280
0
281
0
  0
CLASS
  1
MLEADERSTYLE
  2
AcDbMLeaderStyle
  3
ACDB_MLEADERSTYLE_CLASS
 90
  4095
 91
     0
280
0
281
0
  0
CLASS
  1
CELLSTYLEMAP
  2
AcDbCellStyleMap
  3
ObjectDBX Classes
 90
  1025
 91
     0
280
0
281
0
  0
CLASS
  1
ACDSRECORD
  2
AcDsRecord
  3
AcDsData
 90
     0
 91
     0
280
0
281
0
  0
CLASS
  1
ACDSSCHEMA
  2
AcDsSchema
  3
AcDsData
 90
     0
 91
     0
280
0
281
0
  0
CLASS
  1
XRECORD
  2
AcDbXrecord
  3
ObjectDBX Classes
 90
     0
 91
     0
280
0
281
0
  0
CLASS
  1
SORTENTSTABLE
  2
AcDbSortentsTable
  3
ObjectDBX Classes
 90
     0
 91
     0
280
0
281
0
  0
CLASS
  1
BREAKDATA
  2
AcDbBreakData
  3
ObjectDBX Classes
 90
     0
 91
     0
280
0
281
0
  0
CLASS
  1
BREAKPOINTREF
  2
AcDbBreakPointRef
  3
ObjectDBX Classes
 90
     0
 91
     0
280
0
281
0
  0
CLASS
  1
IDBUFFER
  2
AcDbIdBuffer
  3
ObjectDBX Classes
 90
     0
 91
     0
280
0
281
0
  0
CLASS
  1
INDEX
  2
AcDbIndex
  3
ObjectDBX Classes
 90
     0
 91
     0
280
0
281
0
  0
CLASS
  1
LAYER_INDEX
  2
AcDbLayerIndex
  3
ObjectDBX Classes
 90
     0
 91
     0
280
0
281
0
  0
CLASS
  1
PARTIAL_VIEWING_FILTER
  2
OdDbPartialViewingFilter
  3
OdDbPartialViewing|https://www.opendesign.com Teigha(R) Core Db
 90
     0
 91
     0
280
0
281
0
  0
CLASS
  1
WIPEOUTVARIABLES
  2
AcDbWipeoutVariables
  3
WipeOut|AutoCAD Express Tool|www.autodesk.com
 90
     0
 91
     0
280
0
281
0
  0
CLASS
  1
DIMASSOC
  2
AcDbDimAssoc
  3
AcDbDimAssoc|Product Desc:     AcDim ARX App For Dimension|Company:          Autodesk|WEB Address:      www.autodesk.com
 90
     0
 91
     0
280
0
281
0
  0
CLASS
  1
TABLECONTENT
  2
AcDbTableContent
  3
ObjectDBX Classes
 90
  1025
 91
     0
280
0
281
0
  0
CLASS
  1
TABLEGEOMETRY
  2
AcDbTableGeometry
  3
ObjectDBX Classes
 90
  1025
 91
     0
280
0
281
0
  0
CLASS
  1
Format
  2
mcsDbObjectFormat
  3
NanoSPDS
 90
     0
 91
     0
280
0
281
1
  0
CLASS
  1
RASTERVARIABLES
  2
AcDbRasterVariables
  3
ISM
 90
     0
 91
     0
280
0
281
0
  0
CLASS
  1
IMAGEDEF
  2
AcDbRasterImageDef
  3
ISM
 90
     0
 91
     0
280
0
281
0
  0
CLASS
  1
IMAGEDEF_REACTOR
  2
AcDbRasterImageDefReactor
  3
ISM
 90
     1
 91
     0
280
0
281
0
  0
CLASS
  1
DBCOLOR
  2
AcDbColor
  3
ObjectDBX Classes
 90
  1025
 91
     0
280
0
281
0
  0
CLASS
  1
GEODATA
  2
AcDbGeoData
  3
ObjectDBX Classes
 90
  1025
 91
     0
280
0
281
0
  0
CLASS
  1
PDFDEFINITION
  2
AcDbPdfDefinition
  3
ObjectDBX Classes
 90
     1
 91
     0
280
0
281
0
  0
CLASS
  1
DWFDEFINITION
  2
AcDbDwfDefinition
  3
ObjectDBX Classes
 90
     1
 91
     0
280
0
281
0
  0
CLASS
  1
DGNDEFINITION
  2
AcDbDgnDefinition
  3
ObjectDBX Classes
 90
     1
 91
     0
280
0
281
0
  0
CLASS
  1
SPATIAL_FILTER
  2
AcDbSpatialFilter
  3
ObjectDBX Classes
 90
     1
 91
     0
280
0
281
0
  0
CLASS
  1
GROUP
  2
AcDbGroup
  3
ObjectDBX Classes
 90
     0
 91
     0
280
0
281
0
  0
CLASS
  1
MLINESTYLE
  2
AcDbMlineStyle
  3
ObjectDBX Classes
 90
     0
 91
     0
280
0
281
0
  0
ENDSEC
  0
SECTION
  2
TABLES
  0
TABLE
  2
VPORT
  5
8
330
0
100
AcDbSymbolTable
 70
     1
  0
VPORT
  5
20
330
8
100
AcDbSymbolTableRecord
100
AcDbViewportTableRecord
  2
*Active
 70
     0
 10
0.0
 20
0.0
 11
1.0
 21
1.0
 12
0.0
 22
0.0
 13
0.0
 23
0.0
 14
0.5
 24
0.5
 15
10.0
 25
10.0
 16
0.0
 26
0.0
 36
1.0
 17
5.0
 27
0.0
 37
0.0
 40
7.662438869476318
 41
1.4355742296918768
 42
28.970561981201172
 43
0.0
 44
0.0
 50
0.0
 51
-0.0
 71
     0
 72
   100
 73
     1
 74
     3
 75
     0
 76
     0
 77
     0
 78
     0
281
     0
 65
     1
110
0.0
120
0.0
130
0.0
111
1.0
121
0.0
131
0.0
112
0.0
122
1.0
132
0.0
 79
     0
146
0.0
 60
     2
 61
     5
292
     1
282
     1
141
0.0
142
0.0
 63
   250
  0
ENDTAB
  0
TABLE
  2
LTYPE
  5
5
330
0
100
AcDbSymbolTable
 70
    53
  0
LTYPE
  5
11
330
5
100
AcDbSymbolTableRecord
100
AcDbLinetypeTableRecord
  2
Continuous
 70
     0
  3
Solid line
 72
    65
 73
     0
 40
0.0
  0
LTYPE
  5
12
330
5
100
AcDbSymbolTableRecord
100
AcDbLinetypeTableRecord
  2
ByLayer
 70
     0
  3

 72
    65
 73
     0
 40
0.0
  0
LTYPE
  5
13
330
5
100
AcDbSymbolTableRecord
100
AcDbLinetypeTableRecord
  2
ByBlock
 70
     0
  3

 72
    65
 73
     0
 40
0.0
  0
LTYPE
  5
31
330
5
100
AcDbSymbolTableRecord
100
AcDbLinetypeTableRecord
  2
BORDER
 70
     0
  3
Border __ __ . __ __ . __ __ . __ __ . __ __ .
 72
    65
 73
     6
 40
44.449999999999996
 49
12.7
 74
     0
 49
-6.35
 74
     0
 49
12.7
 74
     0
 49
-6.35
 74
     0
 49
0.0
 74
     0
 49
-6.35
 74
     0
  0
LTYPE
  5
32
330
5
100
AcDbSymbolTableRecord
100
AcDbLinetypeTableRecord
  2
BORDER2
 70
     0
  3
Border (.5x) __.__.__.__.__.__.__.__.__.__.__.
 72
    65
 73
     6
 40
22.224999999999998
 49
6.35
 74
     0
 49
-3.175
 74
     0
 49
6.35
 74
     0
 49
-3.175
 74
     0
 49
0.0
 74
     0
 49
-3.175
 74
     0
  0
LTYPE
  5
33
330
5
100
AcDbSymbolTableRecord
100
AcDbLinetypeTableRecord
  2
BORDERX2
 70
     0
  3
Border (2x) ____  ____  .  ____  ____  .  ___
 72
    65
 73
     6
 40
88.89999999999999
 49
25.4
 74
     0
 49
-12.7
 74
     0
 49
25.4
 74
     0
 49
-12.7
 74
     0
 49
0.0
 74
     0
 49
-12.7
 74
     0
  0
LTYPE
  5
34
330
5
100
AcDbSymbolTableRecord
100
AcDbLinetypeTableRecord
  2
CENTER
 70
     0
  3
Center ____ _ ____ _ ____ _ ____ _ ____ _ ____
 72
    65
 73
     4
 40
50.800000000000004
 49
31.75
 74
     0
 49
-6.35
 74
     0
 49
6.35
 74
     0
 49
-6.35
 74
     0
  0
LTYPE
  5
35
330
5
100
AcDbSymbolTableRecord
100
AcDbLinetypeTableRecord
  2
CENTER2
 70
     0
  3
Center (.5x) ___ _ ___ _ ___ _ ___ _ ___ _ ___
 72
    65
 73
     4
 40
28.575000000000003
 49
19.05
 74
     0
 49
-3.175
 74
     0
 49
3.175
 74
     0
 49
-3.175
 74
     0
  0
LTYPE
  5
36
330
5
100
AcDbSymbolTableRecord
100
AcDbLinetypeTableRecord
  2
CENTERX2
 70
     0
  3
Center (2x) ________  __  ________  __  _____
 72
    65
 73
     4
 40
101.60000000000001
 49
63.5
 74
     0
 49
-12.7
 74
     0
 49
12.7
 74
     0
 49
-12.7
 74
     0
  0
LTYPE
  5
37
330
5
100
AcDbSymbolTableRecord
100
AcDbLinetypeTableRecord
  2
DASHDOT
 70
     0
  3
Dash dot __ . __ . __ . __ . __ . __ . __ . __
 72
    65
 73
     4
 40
25.4
 49
12.7
 74
     0
 49
-6.35
 74
     0
 49
0.0
 74
     0
 49
-6.35
 74
     0
  0
LTYPE
  5
38
330
5
100
AcDbSymbolTableRecord
100
AcDbLinetypeTableRecord
  2
DASHDOT2
 70
     0
  3
Dash dot (.5x) _._._._._._._._._._._._._._._.
 72
    65
 73
     4
 40
12.7
 49
6.35
 74
     0
 49
-3.175
 74
     0
 49
0.0
 74
     0
 49
-3.175
 74
     0
  0
LTYPE
  5
39
330
5
100
AcDbSymbolTableRecord
100
AcDbLinetypeTableRecord
  2
DASHDOTX2
 70
     0
  3
Dash dot (2x) ____  .  ____  .  ____  .  ___
 72
    65
 73
     4
 40
50.8
 49
25.4
 74
     0
 49
-12.7
 74
     0
 49
0.0
 74
     0
 49
-12.7
 74
     0
  0
LTYPE
  5
3A
330
5
100
AcDbSymbolTableRecord
100
AcDbLinetypeTableRecord
  2
DASHED
 70
     0
  3
Dashed __ __ __ __ __ __ __ __ __ __ __ __ __ _
 72
    65
 73
     2
 40
19.049999999999997
 49
12.7
 74
     0
 49
-6.35
 74
     0
  0
LTYPE
  5
3B
330
5
100
AcDbSymbolTableRecord
100
AcDbLinetypeTableRecord
  2
DASHED2
 70
     0
  3
Dashed (.5x) _ _ _ _ _ _ _ _ _ _ _ _ _ _ _ _ _
 72
    65
 73
     2
 40
9.524999999999999
 49
6.35
 74
     0
 49
-3.175
 74
     0
  0
LTYPE
  5
3C
330
5
100
AcDbSymbolTableRecord
100
AcDbLinetypeTableRecord
  2
DASHEDX2
 70
     0
  3
Dashed (2x) ____  ____  ____  ____  ____  ___
 72
    65
 73
     2
 40
38.099999999999994
 49
25.4
 74
     0
 49
-12.7
 74
     0
  0
LTYPE
  5
3D
330
5
100
AcDbSymbolTableRecord
100
AcDbLinetypeTableRecord
  2
DIVIDE
 70
     0
  3
Divide ____ . . ____ . . ____ . . ____ . . ____
 72
    65
 73
     6
 40
31.75
 49
12.7
 74
     0
 49
-6.35
 74
     0
 49
0.0
 74
     0
 49
-6.35
 74
     0
 49
0.0
 74
     0
 49
-6.35
 74
     0
  0
LTYPE
  5
3E
330
5
100
AcDbSymbolTableRecord
100
AcDbLinetypeTableRecord
  2
DIVIDE2
 70
     0
  3
Divide (.5x) __..__..__..__..__..__..__..__.._
 72
    65
 73
     6
 40
15.875
 49
6.35
 74
     0
 49
-3.175
 74
     0
 49
0.0
 74
     0
 49
-3.175
 74
     0
 49
0.0
 74
     0
 49
-3.175
 74
     0
  0
LTYPE
  5
3F
330
5
100
AcDbSymbolTableRecord
100
AcDbLinetypeTableRecord
  2
DIVIDEX2
 70
     0
  3
Divide (2x) ________  .  .  ________  .  .  _
 72
    65
 73
     6
 40
63.5
 49
25.4
 74
     0
 49
-12.7
 74
     0
 49
0.0
 74
     0
 49
-12.7
 74
     0
 49
0.0
 74
     0
 49
-12.7
 74
     0
  0
LTYPE
  5
40
330
5
100
AcDbSymbolTableRecord
100
AcDbLinetypeTableRecord
  2
DOT
 70
     0
  3
Dot . . . . . . . . . . . . . . . . . . . . . . . .
 72
    65
 73
     2
 40
6.35
 49
0.0
 74
     0
 49
-6.35
 74
     0
  0
LTYPE
  5
41
330
5
100
AcDbSymbolTableRecord
100
AcDbLinetypeTableRecord
  2
DOT2
 70
     0
  3
Dot (.5x) ........................................
 72
    65
 73
     2
 40
3.175
 49
0.0
 74
     0
 49
-3.175
 74
     0
  0
LTYPE
  5
42
330
5
100
AcDbSymbolTableRecord
100
AcDbLinetypeTableRecord
  2
DOTX2
 70
     0
  3
Dot (2x) .  .  .  .  .  .  .  .  .  .  .  .  .  .
 72
    65
 73
     2
 40
12.7
 49
0.0
 74
     0
 49
-12.7
 74
     0
  0
LTYPE
  5
43
330
5
100
AcDbSymbolTableRecord
100
AcDbLinetypeTableRecord
  2
HIDDEN
 70
     0
  3
Hidden __ __ __ __ __ __ __ __ __ __ __ __ __ __
 72
    65
 73
     2
 40
9.524999999999999
 49
6.35
 74
     0
 49
-3.175
 74
     0
  0
LTYPE
  5
44
330
5
100
AcDbSymbolTableRecord
100
AcDbLinetypeTableRecord
  2
HIDDEN2
 70
     0
  3
Hidden (.5x) _ _ _ _ _ _ _ _ _ _ _ _ _ _ _ _ _
 72
    65
 73
     2
 40
4.762499999999999
 49
3.175
 74
     0
 49
-1.5875
 74
     0
  0
LTYPE
  5
45
330
5
100
AcDbSymbolTableRecord
100
AcDbLinetypeTableRecord
  2
HIDDENX2
 70
     0
  3
Hidden (2x) ____ ____ ____ ____ ____ ____ ____
 72
    65
 73
     2
 40
19.049999999999997
 49
12.7
 74
     0
 49
-6.35
 74
     0
  0
LTYPE
  5
46
330
5
100
AcDbSymbolTableRecord
100
AcDbLinetypeTableRecord
  2
PHANTOM
 70
     0
  3
Phantom ______  __  __  ______  __  __  ______
 72
    65
 73
     6
 40
63.50000000000001
 49
31.75
 74
     0
 49
-6.35
 74
     0
 49
6.35
 74
     0
 49
-6.35
 74
     0
 49
6.35
 74
     0
 49
-6.35
 74
     0
  0
LTYPE
  5
47
330
5
100
AcDbSymbolTableRecord
100
AcDbLinetypeTableRecord
  2
PHANTOM2
 70
     0
  3
Phantom (.5x) ___ _ _ ___ _ _ ___ _ _ ___ _ _
 72
    65
 73
     6
 40
31.750000000000004
 49
15.875
 74
     0
 49
-3.175
 74
     0
 49
3.175
 74
     0
 49
-3.175
 74
     0
 49
3.175
 74
     0
 49
-3.175
 74
     0
  0
LTYPE
  5
48
330
5
100
AcDbSymbolTableRecord
100
AcDbLinetypeTableRecord
  2
PHANTOMX2
 70
     0
  3
Phantom (2x) ____________    ____    ____   _
 72
    65
 73
     6
 40
127.00000000000001
 49
63.5
 74
     0
 49
-12.7
 74
     0
 49
12.7
 74
     0
 49
-12.7
 74
     0
 49
12.7
 74
     0
 49
-12.7
 74
     0
  0
LTYPE
  5
49
330
5
100
AcDbSymbolTableRecord
100
AcDbLinetypeTableRecord
  2
ISO02W100
 70
     0
  3
ISO dash __ __ __ __ __ __ __ __ __ __ __ __ __
 72
    65
 73
     2
 40
15.0
 49
12.0
 74
     0
 49
-3.0
 74
     0
  0
LTYPE
  5
4A
330
5
100
AcDbSymbolTableRecord
100
AcDbLinetypeTableRecord
  2
ISO03W100
 70
     0
  3
ISO dash space __    __    __    __    __    __
 72
    65
 73
     2
 40
30.0
 49
12.0
 74
     0
 49
-18.0
 74
     0
  0
LTYPE
  5
4B
330
5
100
AcDbSymbolTableRecord
100
AcDbLinetypeTableRecord
  2
ISO04W100
 70
     0
  3
ISO long-dash dot ____ . ____ . ____ . ____ . _
 72
    65
 73
     4
 40
30.0
 49
24.0
 74
     0
 49
-3.0
 74
     0
 49
0.0
 74
     0
 49
-3.0
 74
     0
  0
LTYPE
  5
4C
330
5
100
AcDbSymbolTableRecord
100
AcDbLinetypeTableRecord
  2
ISO05W100
 70
     0
  3
ISO long-dash double-dot ____ .. ____ .. ____ .
 72
    65
 73
     6
 40
33.0
 49
24.0
 74
     0
 49
-3.0
 74
     0
 49
0.0
 74
     0
 49
-3.0
 74
     0
 49
0.0
 74
     0
 49
-3.0
 74
     0
  0
LTYPE
  5
4D
330
5
100
AcDbSymbolTableRecord
100
AcDbLinetypeTableRecord
  2
ISO06W100
 70
     0
  3
ISO long-dash triple-dot ____ ... ____ ... ____
 72
    65
 73
     8
 40
36.0
 49
24.0
 74
     0
 49
-3.0
 74
     0
 49
0.0
 74
     0
 49
-3.0
 74
     0
 49
0.0
 74
     0
 49
-3.0
 74
     0
 49
0.0
 74
     0
 49
-3.0
 74
     0
  0
LTYPE
  5
4E
330
5
100
AcDbSymbolTableRecord
100
AcDbLinetypeTableRecord
  2
ISO07W100
 70
     0
  3
ISO dot . . . . . . . . . . . . . . . . . . . .
 72
    65
 73
     2
 40
3.0
 49
0.0
 74
     0
 49
-3.0
 74
     0
  0
LTYPE
  5
4F
330
5
100
AcDbSymbolTableRecord
100
AcDbLinetypeTableRecord
  2
ISO08W100
 70
     0
  3
ISO long-dash short-dash ____ __ ____ __ ____ _
 72
    65
 73
     4
 40
36.0
 49
24.0
 74
     0
 49
-3.0
 74
     0
 49
6.0
 74
     0
 49
-3.0
 74
     0
  0
LTYPE
  5
50
330
5
100
AcDbSymbolTableRecord
100
AcDbLinetypeTableRecord
  2
ISO09W100
 70
     0
  3
ISO long-dash double-short-dash ____ __ __ ____
 72
    65
 73
     6
 40
45.0
 49
24.0
 74
     0
 49
-3.0
 74
     0
 49
6.0
 74
     0
 49
-3.0
 74
     0
 49
6.0
 74
     0
 49
-3.0
 74
     0
  0
LTYPE
  5
51
330
5
100
AcDbSymbolTableRecord
100
AcDbLinetypeTableRecord
  2
ISO10W100
 70
     0
  3
ISO dash dot __ . __ . __ . __ . __ . __ . __ .
 72
    65
 73
     4
 40
18.0
 49
12.0
 74
     0
 49
-3.0
 74
     0
 49
0.0
 74
     0
 49
-3.0
 74
     0
  0
LTYPE
  5
52
330
5
100
AcDbSymbolTableRecord
100
AcDbLinetypeTableRecord
  2
ISO11W100
 70
     0
  3
ISO double-dash dot __ __ . __ __ . __ __ . __ _
 72
    65
 73
     6
 40
33.0
 49
12.0
 74
     0
 49
-3.0
 74
     0
 49
12.0
 74
     0
 49
-3.0
 74
     0
 49
0.0
 74
     0
 49
-3.0
 74
     0
  0
LTYPE
  5
53
330
5
100
AcDbSymbolTableRecord
100
AcDbLinetypeTableRecord
  2
ISO12W100
 70
     0
  3
ISO dash double-dot __ . . __ . . __ . . __ . .
 72
    65
 73
     6
 40
21.0
 49
12.0
 74
     0
 49
-3.0
 74
     0
 49
0.0
 74
     0
 49
-3.0
 74
     0
 49
0.0
 74
     0
 49
-3.0
 74
     0
  0
LTYPE
  5
54
330
5
100
AcDbSymbolTableRecord
100
AcDbLinetypeTableRecord
  2
ISO13W100
 70
     0
  3
ISO double-dash double-dot __ __ . . __ __ . . _
 72
    65
 73
     8
 40
36.0
 49
12.0
 74
     0
 49
-3.0
 74
     0
 49
12.0
 74
     0
 49
-3.0
 74
     0
 49
0.0
 74
     0
 49
-3.0
 74
     0
 49
0.0
 74
     0
 49
-3.0
 74
     0
  0
LTYPE
  5
55
330
5
100
AcDbSymbolTableRecord
100
AcDbLinetypeTableRecord
  2
ISO14W100
 70
     0
  3
ISO dash triple-dot __ . . . __ . . . __ . . . _
 72
    65
 73
     8
 40
24.0
 49
12.0
 74
     0
 49
-3.0
 74
     0
 49
0.0
 74
     0
 49
-3.0
 74
     0
 49
0.0
 74
     0
 49
-3.0
 74
     0
 49
0.0
 74
     0
 49
-3.0
 74
     0
  0
LTYPE
  5
56
330
5
100
AcDbSymbolTableRecord
100
AcDbLinetypeTableRecord
  2
ISO15W100
 70
     0
  3
ISO double-dash triple-dot __ __ . . . __ __ . .
 72
    65
 73
    10
 40
39.0
 49
12.0
 74
     0
 49
-3.0
 74
     0
 49
12.0
 74
     0
 49
-3.0
 74
     0
 49
0.0
 74
     0
 49
-3.0
 74
     0
 49
0.0
 74
     0
 49
-3.0
 74
     0
 49
0.0
 74
     0
 49
-3.0
 74
     0
  0
LTYPE
  5
58
330
5
100
AcDbSymbolTableRecord
100
AcDbLinetypeTableRecord
  2
FENCELINE1
 70
     0
  3
Fenceline circle ----0-----0----0-----0----0-----0--
 72
    65
 73
     4
 40
36.83
 49
6.35
 74
     0
 49
-2.54
 74
     4
 75
   133
340
57
 46
2.54
 50
0.0
 44
-2.54
 45
0.0
 49
-2.54
 74
     0
 49
25.4
 74
     0
  0
LTYPE
  5
59
330
5
100
AcDbSymbolTableRecord
100
AcDbLinetypeTableRecord
  2
FENCELINE2
 70
     0
  3
Fenceline square ----[]-----[]----[]-----[]----[]---
 72
    65
 73
     4
 40
36.83
 49
6.35
 74
     0
 49
-2.54
 74
     4
 75
   132
340
57
 46
2.54
 50
0.0
 44
-2.54
 45
0.0
 49
-2.54
 74
     0
 49
25.4
 74
     0
  0
LTYPE
  5
5A
330
5
100
AcDbSymbolTableRecord
100
AcDbLinetypeTableRecord
  2
TRACKS
 70
     0
  3
Tracks -|-|-|-|-|-|-|-|-|-|-|-|-|-|-|-|-|-|-|-|-|-|-|-|-
 72
    65
 73
     2
 40
7.62
 49
3.81
 74
     4
 75
   130
340
57
 46
6.35
 50
0.0
 44
0.0
 45
0.0
 49
3.81
 74
     0
  0
LTYPE
  5
5B
330
5
100
AcDbSymbolTableRecord
100
AcDbLinetypeTableRecord
  2
BATTING
 70
     0
  3
Batting SSSSSSSSSSSSSSSSSSSSSSSSSSSSSSSSSSSSSSSSSSSSSSS
 72
    65
 73
     4
 40
10.16254
 49
0.00254
 74
     0
 49
-2.54
 74
     4
 75
   134
340
57
 46
2.54
 50
0.0
 44
-2.54
 45
0.0
 49
-5.08
 74
     4
 75
   134
340
57
 46
2.54
 50
180.0
 44
2.54
 45
0.0
 49
-2.54
 74
     0
  0
LTYPE
  5
5C
330
5
100
AcDbSymbolTableRecord
100
AcDbLinetypeTableRecord
  2
HOT_WATER_SUPPLY
 70
     0
  3
Hot water supply ---- HW ---- HW ---- HW ----
 72
    65
 73
     3
 40
22.86
 49
12.7
 74
     0
 49
-5.08
 74
     2
 75
     0
340
14
 46
2.54
 50
0.0
 44
-2.54
 45
-1.27
  9
HW
 49
-5.08
 74
     0
  0
LTYPE
  5
5D
330
5
100
AcDbSymbolTableRecord
100
AcDbLinetypeTableRecord
  2
GAS_LINE
 70
     0
  3
Gas line ----GAS----GAS----GAS----GAS----GAS----GAS--
 72
    65
 73
     3
 40
24.130000000000003
 49
12.7
 74
     0
 49
-5.08
 74
     2
 75
     0
340
14
 46
2.54
 50
0.0
 44
-2.54
 45
-1.27
  9
GAS
 49
-6.35
 74
     0
  0
LTYPE
  5
5E
330
5
100
AcDbSymbolTableRecord
100
AcDbLinetypeTableRecord
  2
ZIGZAG
 70
     0
  3
Zig zag /\/\/\/\/\/\/\/\/\/\/\/\/\/\/\/\/\/\/\/\/\/\/\/
 72
    65
 73
     4
 40
20.32254
 49
0.00254
 74
     0
 49
-5.08
 74
     4
 75
   131
340
57
 46
5.08
 50
0.0
 44
-5.08
 45
0.0
 49
-10.16
 74
     4
 75
   131
340
57
 46
5.08
 50
180.0
 44
5.08
 45
0.0
 49
-5.08
 74
     0
  0
LTYPE
  5
5F
330
5
100
AcDbSymbolTableRecord
100
AcDbLinetypeTableRecord
  2
POINT1
 70
     0
  3
----/\-----/\---
 72
    65
 73
     2
 40
31.26232
 49
25.4
 74
     4
 75
   135
340
57
 46
5.08
 50
0.0
 44
0.0
 45
0.0
 49
-5.86232
 74
     0
  0
LTYPE
  5
60
330
5
100
AcDbSymbolTableRecord
100
AcDbLinetypeTableRecord
  2
POINT2
 70
     0
  3
----\/-----\/---
 72
    65
 73
     2
 40
31.26232
 49
25.4
 74
     4
 75
   136
340
57
 46
5.08
 50
0.0
 44
0.0
 45
0.0
 49
-5.86232
 74
     0
  0
LTYPE
  5
61
330
5
100
AcDbSymbolTableRecord
100
AcDbLinetypeTableRecord
  2
PLANT
 70
     0
  3
_/^\_\^\_
 72
    65
 73
     7
 40
21.939999999999998
 49
0.01
 74
     4
 75
   137
340
57
 46
1.0
 50
0.0
 44
0.0
 45
0.0
 49
-3.0
 74
     4
 75
   138
340
57
 46
1.0
 50
0.0
 44
0.0
 45
0.0
 49
-3.15
 74
     4
 75
   139
340
57
 46
1.0
 50
0.0
 44
0.0
 45
0.0
 49
-4.23
 74
     4
 75
   140
340
57
 46
1.0
 50
0.0
 44
0.0
 45
0.0
 49
-4.63
 74
     4
 75
   141
340
57
 46
1.0
 50
0.0
 44
0.0
 45
0.0
 49
-2.5
 74
     4
 75
   142
340
57
 46
1.0
 50
0.0
 44
0.0
 45
0.0
 49
-4.42
 74
     0
  0
LTYPE
  5
63
330
5
100
AcDbSymbolTableRecord
100
AcDbLinetypeTableRecord
  2
DRAINAGE
 70
     0
  3
Drainage ---->---->---->----
 72
    65
 73
     2
 40
10.16
 49
5.08
 74
     4
 75
   130
340
62
 46
2.54
 50
180.0
 44
0.0
 45
0.0
 49
5.08
 74
     0
  0
LTYPE
  5
64
330
5
100
AcDbSymbolTableRecord
100
AcDbLinetypeTableRecord
  2
DRAINAGE2
 70
     0
  3
Drainage reversed----<----<----<----
 72
    65
 73
     2
 40
10.16
 49
5.08
 74
     4
 75
   130
340
62
 46
2.54
 50
0.0
 44
0.0
 45
0.0
 49
5.08
 74
     0
  0
ENDTAB
  0
TABLE
  2
LAYER
  5
2
330
0
100
AcDbSymbolTable
 70
     1
  0
LAYER
  5
10
330
2
100
AcDbSymbolTableRecord
100
AcDbLayerTableRecord
  2
0
 70
     0
 62
     7
  6
Continuous
370
    -3
390
30
290
     1
  0
ENDTAB
  0
TABLE
  2
STYLE
  5
3
330
0
100
AcDbSymbolTable
 70
     3
  0
STYLE
  5
14
330
3
100
AcDbSymbolTableRecord
100
AcDbTextStyleTableRecord
  2
Standard
 70
     0
 40
0.0
 41
1.0
 50
0.0
 71
     0
 42
2.5
  3
txt
  4

  0
STYLE
  5
57
330
3
100
AcDbSymbolTableRecord
100
AcDbTextStyleTableRecord
  2

 70
     1
 40
0.0
 41
1.0
 50
0.0
 71
     0
 42
2.5
  3
ltypeshp.shx
  4

  0
STYLE
  5
62
330
3
100
AcDbSymbolTableRecord
100
AcDbTextStyleTableRecord
  2

 70
     1
 40
0.0
 41
1.0
 50
0.0
 71
     0
 42
2.5
  3
qcadshp.shx
  4

  0
ENDTAB
  0
TABLE
  2
VIEW
  5
6
330
0
100
AcDbSymbolTable
 70
     0
  0
ENDTAB
  0
TABLE
  2
UCS
  5
7
330
0
100
AcDbSymbolTable
 70
     0
  0
ENDTAB
  0
TABLE
  2
APPID
  5
9
330
0
100
AcDbSymbolTable
 70
     4
  0
APPID
  5
1C
330
9
100
AcDbSymbolTableRecord
100
AcDbRegAppTableRecord
  2
ACAD
 70
     0
  0
APPID
  5
1D
330
9
100
AcDbSymbolTableRecord
100
AcDbRegAppTableRecord
  2
AcadAnnotative
 70
     0
  0
APPID
  5
1E
330
9
100
AcDbSymbolTableRecord
100
AcDbRegAppTableRecord
  2
AcCmTransparency
 70
     0
  0
APPID
  5
1F
330
9
100
AcDbSymbolTableRecord
100
AcDbRegAppTableRecord
  2
AcAecLayerStandard
 70
     0
  0
ENDTAB
  0
TABLE
  2
DIMSTYLE
  5
A
330
0
100
AcDbSymbolTable
 70
     2
100
AcDbDimStyleTable
 71
     2
  0
DIMSTYLE
105
1B
330
A
100
AcDbSymbolTableRecord
100
AcDbDimStyleTableRecord
  2
Standard
 70
     0
 40
1.0
 41
0.18
 42
0.625
 43
3.75
 44
1.25
 45
0.0
 46
0.0
 47
0.0
 48
0.0
140
0.18
141
0.09
142
0.0
143
25.4
144
1.0
145
0.0
146
1.0
147
0.625
 71
     0
 72
     0
 73
     0
 74
     0
 75
     0
 76
     0
 77
     1
 78
     8
 79
     0
170
     0
171
     3
172
     0
173
     1
174
     0
175
     0
176
     0
177
     0
178
     0
179
     0
271
     2
272
     2
273
     2
274
     3
275
     0
276
     0
277
     2
278
    46
279
     0
280
     0
281
     0
282
     0
283
     0
284
     8
285
     0
286
     0
288
     0
289
     3
340
14
371
    -2
372
    -2
  0
DIMSTYLE
105
65
330
A
100
AcDbSymbolTableRecord
100
AcDbDimStyleTableRecord
  2
ISO-25
 70
     0
 40
1.0
 41
2.5
 42
0.625
 43
3.75
 44
1.25
 45
0.0
 46
0.0
 47
0.0
 48
0.0
 50
1.5707963267948966
140
2.5
141
2.5
142
0.0
143
0.03937007874016
144
1.0
145
0.0
146
1.0
147
0.625
 71
     0
 72
     0
 73
     0
 74
     0
 75
     0
 76
     0
 77
     1
 78
     8
 79
     0
170
     0
171
     3
172
     1
173
     1
174
     0
175
     0
176
     0
177
     0
178
     0
179
     0
271
     2
272
     2
273
     2
274
     3
275
     0
276
     0
277
     2
278
    44
279
     0
280
     0
281
     0
282
     0
283
     0
284
     8
285
     0
286
     0
288
     0
289
     3
371
    -2
372
    -2
  0
ENDTAB
  0
TABLE
  2
BLOCK_RECORD
  5
1
330
0
100
AcDbSymbolTable
 70
     2
  0
BLOCK_RECORD
  5
15
330
1
100
AcDbSymbolTableRecord
100
AcDbBlockTableRecord
  2
*Model_Space
 70
     0
280
1
281
     0
  0
BLOCK_RECORD
  5
18
330
1
100
AcDbSymbolTableRecord
100
AcDbBlockTableRecord
  2
*Paper_Space
 70
     0
280
1
281
     0
  0
ENDTAB
  0
ENDSEC
  0
SECTION
  2
BLOCKS
  0
BLOCK
  5
16
330
15
100
AcDbEntity
  8
0
100
AcDbBlockBegin
  2
*Model_Space
 70
     0
 10
0.0
 20
0.0
 30
0.0
  3
*Model_Space
  1

  0
ENDBLK
  5
17
330
15
100
AcDbEntity
  8
0
100
AcDbBlockEnd
  0
BLOCK
  5
19
330
18
100
AcDbEntity
 67
     1
  8
0
100
AcDbBlockBegin
  2
*Paper_Space
 70
     0
 10
0.0
 20
0.0
 30
0.0
  3
*Paper_Space
  1

  0
ENDBLK
  5
1A
330
18
100
AcDbEntity
 67
     1
  8
0
100
AcDbBlockEnd
  0
ENDSEC
  0
SECTION
  2
ENTITIES
  0
LINE
  5
66
330
15
100
AcDbEntity
  8
0
100
AcDbLine
 10
0.0
 20
0.0
 30
0.0
 11
10.0
 21
0.0
 31
0.0
  0
ENDSEC
  0
SECTION
  2
OBJECTS
  0
DICTIONARY
  5
C
330
0
100
AcDbDictionary
280
0
281
1
  3
ACAD_GROUP
350
21
  3
ACAD_MLINESTYLE
350
22
  3
ACAD_LAYOUT
350
23
  3
ACAD_PLOTSETTINGS
350
24
  3
ACAD_PLOTSTYLENAME
350
25
  3
ACAD_MATERIAL
350
26
  3
ACAD_COLOR
350
27
  3
ACAD_VISUALSTYLE
350
28
  3
ACAD_MLEADERSTYLE
350
29
  3
ACAD_TABLESTYLE
350
2A
  3
AcDbVariableDictionary
350
67
  0
DICTIONARY
  5
21
330
C
100
AcDbDictionary
280
0
281
1
  0
DICTIONARY
  5
22
330
C
100
AcDbDictionary
280
0
281
1
  3
Standard
350
2B
  0
DICTIONARY
  5
23
330
C
100
AcDbDictionary
280
0
281
1
  3
Model
350
2E
  3
Layout1
350
2F
  0
DICTIONARY
  5
24
330
C
100
AcDbDictionary
280
0
281
1
  0
ACDBDICTIONARYWDFLT
  5
25
330
C
100
AcDbDictionary
281
     1
  3
Normal
350
30
100
AcDbDictionaryWithDefault
340
30
  0
DICTIONARY
  5
26
330
C
100
AcDbDictionary
280
0
281
1
  0
DICTIONARY
  5
27
330
C
100
AcDbDictionary
280
0
281
1
  0
DICTIONARY
  5
28
330
C
100
AcDbDictionary
280
0
281
1
  0
DICTIONARY
  5
29
330
C
100
AcDbDictionary
280
0
281
1
  3
Standard
350
2C
  0
DICTIONARY
  5
2A
330
C
100
AcDbDictionary
280
0
281
1
  3
Standard
350
2D
  0
MLINESTYLE
  5
2B
330
22
100
AcDbMlineStyle
  2
Standard
 70
     0
  3

 62
   256
 51
90.0
 52
90.0
 71
     2
 49
0.5
 62
   256
  6
BYLAYER
 49
-0.5
 62
   256
  6
BYLAYER
  0
MLEADERSTYLE
  5
2C
330
29
100
AcDbMLeaderStyle
170
     2
171
     0
172
     0
 90
     2
 40
0.0
 41
0.0
173
     1
 91
-1056964608
340
12
 92
    -2
290
     1
 42
0.09
291
     1
 43
0.36
  3
Standard
 44
0.18
300

342
14
174
     1
175
     1
176
     0
178
     1
 93
-1056964608
 45
0.18
292
     0
297
     0
 46
0.0
 94
-1056964608
 47
1.0
 49
1.0
140
1.0
293
     0
141
0.0
294
     0
177
     0
142
1.0
295
     0
296
     0
143
0.125
  0
TABLESTYLE
  5
2D
330
2A
100
AcDbTableStyle
  3
Standard
 70
     0
 71
     0
 40
0.06
 41
0.06
280
0
281
0
  7
Standard
140
0.18
170
     5
 62
     0
 63
     7
283
0
 90
   512
 91
     0
  1

274
    -2
284
1
 64
     0
275
    -2
285
1
 65
     0
276
    -2
286
1
 66
     0
277
    -2
287
1
 67
     0
278
    -2
288
1
 68
     0
279
    -2
289
1
 69
     0
  7
Standard
140
0.25
170
     2
 62
     0
 63
     7
283
0
 90
   512
 91
     0
  1

274
    -2
284
1
 64
     0
275
    -2
285
1
 65
     0
276
    -2
286
1
 66
     0
277
    -2
287
1
 67
     0
278
    -2
288
1
 68
     0
279
    -2
289
1
 69
     0
  7
Standard
140
0.25
170
     2
 62
     0
 63
     7
283
0
 90
   512
 91
     0
  1

274
    -2
284
1
 64
     0
275
    -2
285
1
 65
     0
276
    -2
286
1
 66
     0
277
    -2
287
1
 67
     0
278
    -2
288
1
 68
     0
279
    -2
289
1
 69
     0
  0
LAYOUT
  5
2E
330
23
100
AcDbPlotSettings
  1

  2

  4

  6

  7

 40
0.0
 41
0.0
 42
0.0
 43
0.0
 44
0.0
 45
0.0
 46
0.0
 47
0.0
 48
0.0
 49
0.0
140
0.0
141
0.0
142
1.0
143
1.0
147
1.0
148
0.0
149
0.0
 70
  1024
 72
     0
 73
     0
 74
     5
 75
     0
 76
     0
 77
     0
 78
   300
100
AcDbLayout
  1
Model
 70
     1
 71
     0
 10
0.0
 20
0.0
 11
0.0
 21
0.0
 12
0.0
 22
0.0
 32
0.0
 14
0.0
 24
0.0
 34
0.0
 15
12.0
 25
9.0
 35
0.0
146
0.0
 13
0.0
 23
0.0
 33
0.0
 16
1.0
 26
0.0
 36
0.0
 17
0.0
 27
1.0
 37
0.0
 76
     0
330
15
  0
LAYOUT
  5
2F
330
23
100
AcDbPlotSettings
  1

  2
none_device
  4
ISO_A4_(210.00_x_297.00_MM)
  6

  7

 40
0.0
 41
0.0
 42
0.0
 43
0.0
 44
210.0
 45
297.0
 46
0.0
 47
0.0
 48
0.0
 49
0.0
140
0.0
141
0.0
142
1.0
143
1.0
147
1.0
148
0.0
149
0.0
 70
   656
 72
     1
 73
     1
 74
     5
 75
    16
 76
     0
 77
     0
 78
   300
100
AcDbLayout
  1
Layout1
 70
     0
 71
     1
 10
0.0
 20
0.0
 11
297.0
 21
210.0
 12
0.0
 22
0.0
 32
0.0
 14
0.0
 24
0.0
 34
0.0
 15
297.0
 25
210.0
 35
0.0
146
0.0
 13
0.0
 23
0.0
 33
0.0
 16
1.0
 26
0.0
 36
0.0
 17
0.0
 27
1.0
 37
0.0
 76
     0
330
18
  0
ACDBPLACEHOLDER
  5
30
102
{ACAD_REACTORS
330
25
102
}
330
25
  0
DICTIONARY
  5
67
330
C
100
AcDbDictionary
280
0
281
1
  3
CANNOSCALE
350
68
  3
CTABLESTYLE
350
69
  3
CMLEADERSTYLE
350
6A
  3
SKPOLY
350
6B
  3
SKETCHINC
350
6C
  3
SKTOLERANCE
350
6D
  0
DICTIONARYVAR
  5
68
102
{ACAD_REACTORS
330
67
102
}
330
67
100
DictionaryVariables
280
0
  1
1:1000
  0
DICTIONARYVAR
  5
69
102
{ACAD_REACTORS
330
67
102
}
330
67
100
DictionaryVariables
280
0
  1
Standard
  0
DICTIONARYVAR
  5
6A
102
{ACAD_REACTORS
330
67
102
}
330
67
100
DictionaryVariables
280
0
  1
Standard
  0
DICTIONARYVAR
  5
6B
102
{ACAD_REACTORS
330
67
102
}
330
67
100
DictionaryVariables
280
0
  1
0
  0
DICTIONARYVAR
  5
6C
102
{ACAD_REACTORS
330
67
102
}
330
67
100
DictionaryVariables
280
0
  1
0.1
  0
DICTIONARYVAR
  5
6D
102
{ACAD_REACTORS
330
67
102
}
330
67
100
DictionaryVariables
280
0
  1
0.5
  0
ENDSEC
  0
EOF
