ISO-10303-21;
HEADER;
FILE_DESCRIPTION(('ViewDefinition [SchedulingView]'),'2;1');
FILE_NAME('New-Build Canal House, Amsterdam.ifc','2026-09-28T13:27:19',('Jan de Vries'),('Amsterdam Construction BV'),'Open Planner Studio 0.1','Open Planner Studio','');
FILE_SCHEMA(('IFC4X3'));
ENDSEC;
DATA;
#1=IFCPERSON($,'Jan de Vries',$,$,$,$,$,$);
#2=IFCORGANIZATION($,'Amsterdam Construction BV',$,$,$);
#3=IFCPERSONANDORGANIZATION(#1,#2,$);
#4=IFCORGANIZATION($,'OpenAEC Foundation',$,$,$);
#5=IFCAPPLICATION(#4,'0.2','Open Planner Studio','OPS');
#6=IFCOWNERHISTORY(#3,#5,$,.NOCHANGE.,$,$,$,1790602039);
#7=IFCSIUNIT(*,.LENGTHUNIT.,$,.METRE.);
#8=IFCSIUNIT(*,.TIMEUNIT.,$,.SECOND.);
#9=IFCUNITASSIGNMENT((#7,#8));
#10=IFCCARTESIANPOINT((0.,0.,0.));
#11=IFCAXIS2PLACEMENT3D(#10,$,$);
#12=IFCGEOMETRICREPRESENTATIONCONTEXT($,'Plan',3,1.0E-05,#11,$);
#13=IFCPROJECT('3W_07CpppDZpO1U4hDTtJK',#6,'New-Build Canal House, Amsterdam','New three-storey canal house with basement',$,$,$,(#12),#9);
#14=IFCTIMEPERIOD('07:00:00','16:00:00');
#15=IFCRECURRENCEPATTERN(.WEEKLY.,$,(1,2,3,4,5),$,$,$,$,(#14));
#16=IFCWORKTIME('Standard work week',.PREDICTED.,$,#15,$,$);
#17=IFCWORKTIME('New Year''s Day',.PREDICTED.,$,$,'2027-01-01','2027-01-01');
#18=IFCWORKTIME('Good Friday',.PREDICTED.,$,$,'2027-03-26','2027-03-26');
#19=IFCWORKTIME('Easter',.PREDICTED.,$,$,'2027-03-28','2027-03-29');
#20=IFCWORKTIME('King''s Day',.PREDICTED.,$,$,'2027-04-27','2027-04-27');
#21=IFCWORKTIME('Liberation Day',.PREDICTED.,$,$,'2027-05-05','2027-05-05');
#22=IFCWORKTIME('Ascension Day',.PREDICTED.,$,$,'2027-05-06','2027-05-06');
#23=IFCWORKTIME('Whitsun',.PREDICTED.,$,$,'2027-05-16','2027-05-17');
#24=IFCWORKTIME('Christmas',.PREDICTED.,$,$,'2027-12-25','2027-12-26');
#25=IFCWORKTIME('Construction holiday (northern region)',.PREDICTED.,$,$,'2027-07-26','2027-08-15');
#26=IFCWORKTIME('New Year''s Day',.PREDICTED.,$,$,'2028-01-01','2028-01-01');
#27=IFCWORKTIME('Good Friday',.PREDICTED.,$,$,'2028-04-14','2028-04-14');
#28=IFCWORKTIME('Easter',.PREDICTED.,$,$,'2028-04-16','2028-04-17');
#29=IFCWORKTIME('King''s Day',.PREDICTED.,$,$,'2028-04-27','2028-04-27');
#30=IFCWORKTIME('Liberation Day',.PREDICTED.,$,$,'2028-05-05','2028-05-05');
#31=IFCWORKTIME('Ascension Day',.PREDICTED.,$,$,'2028-05-25','2028-05-25');
#32=IFCWORKTIME('Whitsun',.PREDICTED.,$,$,'2028-06-04','2028-06-05');
#33=IFCWORKTIME('Christmas',.PREDICTED.,$,$,'2028-12-25','2028-12-26');
#34=IFCWORKTIME('Construction holiday (northern region)',.PREDICTED.,$,$,'2028-07-24','2028-08-13');
#35=IFCWORKCALENDAR('13xKFjjjtdpcrgnydlN3on',#6,'Construction calendar NL','Standard construction calendar: Mon-Fri 07:00-16:00',$,(#16),(#17,#18,#19,#20,#21,#22,#23,#24,#25,#26,#27,#28,#29,#30,#31,#32,#33,#34),.FIRSTSHIFT.);
#36=IFCPROPERTYSINGLEVALUE('HoursPerDay',$,IFCREAL(8),$);
#37=IFCPROPERTYSET('0jm5UTbnt7vav5Vj4_xeKm',#6,'OPS_Calendar',$,(#36));
#38=IFCRELDEFINESBYPROPERTIES('2mPr5DzJgEh58VeWK7$$25',#6,$,$,(#35),#37);
#39=IFCWORKPLAN('0jE3lXyfR_CazyasRGiTfG',#6,'New-Build Canal House, Amsterdam','New three-storey canal house with basement',$,$,'2026-09-28T13:27:19',$,$,$,$,$,'2027-03-01T07:00:00','2027-03-19T07:00:00',.PLANNED.);
#40=IFCWORKSCHEDULE('1TblNka$4fVlPfO1LvDyTb',#6,'Construction schedule v1.0',$,$,$,'2026-09-28T13:27:19',$,$,$,$,$,'2027-03-01T07:00:00','2027-03-19T07:00:00',.PLANNED.);
#41=IFCRELAGGREGATES('2eW9$cpKIs11J$mh_0vctE',#6,$,$,#39,(#40));
#42=IFCTASKTIME('1. Preparation Time',.PREDICTED.,$,.WORKTIME.,'P0Y0M24D','2027-03-01T07:00:00','2027-03-05T07:00:00','2027-03-01T07:00:00','2027-04-05T07:00:00','2027-03-01T07:00:00','2028-01-12T07:00:00','P0Y0M0D','P0Y0M0D',.T.,$,$,$,$,$,0.00);
#43=IFCTASK('2ZsgeMhUWnneUlWiTQIG5s',#6,'1. Preparation',$,$,'1',$,$,$,.F.,$,#42,.CONSTRUCTION.);
#44=IFCTASKTIME('Set up site Time',.PREDICTED.,$,.WORKTIME.,'P0Y0M5D','2027-03-01T07:00:00','2027-03-05T07:00:00','2027-03-01T07:00:00','2027-03-05T07:00:00','2027-03-01T07:00:00','2027-03-05T07:00:00','P0Y0M0D','P0Y0M0D',.T.,$,$,$,$,$,0.00);
#45=IFCTASK('2pnJdTJxlXVcp3hTr_nrFD',#6,'Set up site',$,$,'1.1',$,$,$,.F.,$,#44,.LOGISTIC.);
#46=IFCTASKTIME('Install sheet piling Time',.PREDICTED.,$,.WORKTIME.,'P0Y0M10D','2027-03-01T07:00:00','2027-03-12T07:00:00','2027-03-08T07:00:00','2027-03-19T07:00:00','2027-12-17T07:00:00','2027-12-30T07:00:00','P0Y0M0D','P0Y0M183D',.F.,$,$,$,$,$,0.00);
#47=IFCTASK('0ig5EU8kfnV8mzE4Ra2lA9',#6,'Install sheet piling',$,$,'1.2',$,$,$,.F.,$,#46,.CONSTRUCTION.);
#48=IFCTASKTIME('Install dewatering Time',.PREDICTED.,$,.WORKTIME.,'P0Y0M5D','2027-03-01T07:00:00','2027-03-05T07:00:00','2027-03-22T07:00:00','2027-03-30T07:00:00','2027-12-31T07:00:00','2028-01-06T07:00:00','P0Y0M0D','P0Y0M183D',.F.,$,$,$,$,$,0.00);
#49=IFCTASK('0s0TkFGOQLMmXf6BHeZf15',#6,'Install dewatering',$,$,'1.3',$,$,$,.F.,$,#48,.INSTALLATION.);
#50=IFCTASKTIME('Carry out soil investigation Time',.PREDICTED.,$,.WORKTIME.,'P0Y0M3D','2027-03-01T07:00:00','2027-03-03T07:00:00','2027-03-31T07:00:00','2027-04-02T07:00:00','2028-01-07T07:00:00','2028-01-11T07:00:00','P0Y0M0D','P0Y0M183D',.F.,$,$,$,$,$,0.00);
#51=IFCTASK('2TDzvMLCZ9BQNxkL0cIAXl',#6,'Carry out soil investigation',$,$,'1.4',$,$,$,.F.,$,#50,.CONSTRUCTION.);
#52=IFCTASKTIME('Start of construction Time',.PREDICTED.,$,.WORKTIME.,'P0Y0M0D','2027-03-01T07:00:00','2027-03-01T07:00:00','2027-04-05T07:00:00','2027-04-05T07:00:00','2028-01-12T07:00:00','2028-01-12T07:00:00','P0Y0M183D','P0Y0M183D',.F.,$,$,$,$,$,0.00);
#53=IFCTASK('1BZaNjFLkFrNl2PAE9Knmd',#6,'Start of construction',$,$,'1.5',$,$,$,.T.,$,#52,.CONSTRUCTION.);
#54=IFCTASKTIME('2. Foundations & basement Time',.PREDICTED.,$,.WORKTIME.,'P0Y0M58D','2027-03-01T07:00:00','2027-03-05T07:00:00','2027-03-17T07:00:00','2027-06-14T07:00:00','2027-03-17T07:00:00','2028-01-12T07:00:00','P0Y0M0D','P0Y0M0D',.T.,$,$,$,$,$,0.00);
#55=IFCTASK('2WNMHAba0qR7p3cS9vVKQK',#6,'2. Foundations & basement',$,$,'2',$,$,$,.F.,$,#54,.CONSTRUCTION.);
#56=IFCTASKTIME('Excavate building pit Time',.PREDICTED.,$,.WORKTIME.,'P0Y0M10D','2027-03-01T07:00:00','2027-03-12T07:00:00','2027-03-17T07:00:00','2027-04-01T07:00:00','2027-03-17T07:00:00','2027-04-01T07:00:00','P0Y0M0D','P0Y0M0D',.T.,$,$,$,$,$,0.00);
#57=IFCTASK('2B2HFXYwdmFwSvv1Tt0UDf',#6,'Excavate building pit',$,$,'2.1',$,$,$,.F.,$,#56,.CONSTRUCTION.);
#58=IFCTASKTIME('Drive foundation piles Time',.PREDICTED.,$,.WORKTIME.,'P0Y0M15D','2027-03-01T07:00:00','2027-03-19T07:00:00','2027-04-02T07:00:00','2027-04-22T07:00:00','2027-11-08T07:00:00','2027-11-26T07:00:00','P0Y0M0D','P0Y0M137D',.F.,$,$,$,$,$,0.00);
#59=IFCTASK('3ljpgDcz$uDCIpKJXQH_OC',#6,'Drive foundation piles',$,$,'2.2',$,$,$,.F.,$,#58,.CONSTRUCTION.);
#60=IFCTASKTIME('Rebar fixing, basement Time',.PREDICTED.,$,.WORKTIME.,'P0Y0M8D','2027-03-01T07:00:00','2027-03-10T07:00:00','2027-04-23T07:00:00','2027-05-07T07:00:00','2027-11-29T07:00:00','2027-12-08T07:00:00','P0Y0M0D','P0Y0M137D',.F.,$,$,$,$,$,0.00);
#61=IFCTASK('3iI4NvGqq$E$C8qvi_2Hvv',#6,'Rebar fixing, basement',$,$,'2.3',$,$,$,.F.,$,#60,.CONSTRUCTION.);
#62=IFCTASKTIME('Pour basement floor Time',.PREDICTED.,$,.WORKTIME.,'P0Y0M5D','2027-03-01T07:00:00','2027-03-05T07:00:00','2027-05-10T07:00:00','2027-05-14T07:00:00','2027-12-09T07:00:00','2027-12-15T07:00:00','P0Y0M0D','P0Y0M137D',.F.,$,$,$,$,$,0.00);
#63=IFCTASK('33MXXyDMaP3pQBA1aPQZGe',#6,'Pour basement floor',$,$,'2.4',$,$,$,.F.,$,#62,.CONSTRUCTION.);
#64=IFCTASKTIME('Pour basement walls Time',.PREDICTED.,$,.WORKTIME.,'P0Y0M10D','2027-03-01T07:00:00','2027-03-12T07:00:00','2027-05-18T07:00:00','2027-05-31T07:00:00','2027-12-16T07:00:00','2027-12-29T07:00:00','P0Y0M0D','P0Y0M137D',.F.,$,$,$,$,$,0.00);
#65=IFCTASK('3ErXUHQElvBN7OeTzNoxPT',#6,'Pour basement walls',$,$,'2.5',$,$,$,.F.,$,#64,.CONSTRUCTION.);
#66=IFCTASKTIME('Basement waterproofing Time',.PREDICTED.,$,.WORKTIME.,'P0Y0M5D','2027-03-01T07:00:00','2027-03-05T07:00:00','2027-06-01T07:00:00','2027-06-07T07:00:00','2027-12-30T07:00:00','2028-01-05T07:00:00','P0Y0M0D','P0Y0M137D',.F.,$,$,$,$,$,0.00);
#67=IFCTASK('3QYI$7aWmmBgNyLXTc4tmD',#6,'Basement waterproofing',$,$,'2.6',$,$,$,.F.,$,#66,.CONSTRUCTION.);
#68=IFCTASKTIME('Backfill building pit Time',.PREDICTED.,$,.WORKTIME.,'P0Y0M5D','2027-03-01T07:00:00','2027-03-05T07:00:00','2027-06-08T07:00:00','2027-06-14T07:00:00','2028-01-06T07:00:00','2028-01-12T07:00:00','P0Y0M137D','P0Y0M137D',.F.,$,$,$,$,$,0.00);
#69=IFCTASK('3aVDEpZloygWftuof09P1v',#6,'Backfill building pit',$,$,'2.7',$,$,$,.F.,$,#68,.LOGISTIC.);
#70=IFCTASKTIME('3. Structural works Time',.PREDICTED.,$,.WORKTIME.,'P0Y0M73D','2027-03-01T07:00:00','2027-03-05T07:00:00','2027-03-23T07:00:00','2027-07-09T07:00:00','2027-03-23T07:00:00','2028-01-12T07:00:00','P0Y0M0D','P0Y0M0D',.T.,$,$,$,$,$,0.00);
#71=IFCTASK('31XLkuVV9Xr6obgdmMknHz',#6,'3. Structural works',$,$,'3',$,$,$,.F.,$,#70,.CONSTRUCTION.);
#72=IFCTASKTIME('Ground floor masonry Time',.PREDICTED.,$,.WORKTIME.,'P0Y0M12D','2027-03-01T07:00:00','2027-03-16T07:00:00','2027-03-23T07:00:00','2027-04-09T07:00:00','2027-03-23T07:00:00','2027-04-09T07:00:00','P0Y0M0D','P0Y0M0D',.T.,$,$,$,$,$,0.00);
#73=IFCTASK('2vFrQeToobHWFELnYgeLpn',#6,'Ground floor masonry',$,$,'3.1',$,$,$,.F.,$,#72,.CONSTRUCTION.);
#74=IFCTASKTIME('First floor slab Time',.PREDICTED.,$,.WORKTIME.,'P0Y0M5D','2027-03-01T07:00:00','2027-03-05T07:00:00','2027-04-12T07:00:00','2027-04-16T07:00:00','2027-04-12T07:00:00','2027-04-16T07:00:00','P0Y0M0D','P0Y0M0D',.T.,$,$,$,$,$,0.00);
#75=IFCTASK('23R6FvYcew7bMyNawlvnkG',#6,'First floor slab',$,$,'3.2',$,$,$,.F.,$,#74,.CONSTRUCTION.);
#76=IFCTASKTIME('First floor masonry Time',.PREDICTED.,$,.WORKTIME.,'P0Y0M10D','2027-03-01T07:00:00','2027-03-12T07:00:00','2027-04-19T07:00:00','2027-05-03T07:00:00','2027-04-19T07:00:00','2027-05-03T07:00:00','P0Y0M0D','P0Y0M0D',.T.,$,$,$,$,$,0.00);
#77=IFCTASK('2vIMEFYmTqhTcqOZNkeCtG',#6,'First floor masonry',$,$,'3.3',$,$,$,.F.,$,#76,.CONSTRUCTION.);
#78=IFCTASKTIME('Second floor slab Time',.PREDICTED.,$,.WORKTIME.,'P0Y0M5D','2027-03-01T07:00:00','2027-03-05T07:00:00','2027-05-04T07:00:00','2027-05-12T07:00:00','2027-05-04T07:00:00','2027-05-12T07:00:00','P0Y0M0D','P0Y0M0D',.T.,$,$,$,$,$,0.00);
#79=IFCTASK('3mUCbvBoSbu1d1Hm6dTAhd',#6,'Second floor slab',$,$,'3.4',$,$,$,.F.,$,#78,.CONSTRUCTION.);
#80=IFCTASKTIME('Second floor masonry Time',.PREDICTED.,$,.WORKTIME.,'P0Y0M10D','2027-03-01T07:00:00','2027-03-12T07:00:00','2027-05-13T07:00:00','2027-05-27T07:00:00','2027-05-13T07:00:00','2027-05-27T07:00:00','P0Y0M0D','P0Y0M0D',.T.,$,$,$,$,$,0.00);
#81=IFCTASK('2Oy9RPq3gwJ5WehE5mfLbh',#6,'Second floor masonry',$,$,'3.5',$,$,$,.F.,$,#80,.CONSTRUCTION.);
#82=IFCTASKTIME('Third floor slab Time',.PREDICTED.,$,.WORKTIME.,'P0Y0M5D','2027-03-01T07:00:00','2027-03-05T07:00:00','2027-05-28T07:00:00','2027-06-03T07:00:00','2027-05-28T07:00:00','2027-06-03T07:00:00','P0Y0M0D','P0Y0M0D',.T.,$,$,$,$,$,0.00);
#83=IFCTASK('05gUzr1uiDrKPO5GZMKu3e',#6,'Third floor slab',$,$,'3.6',$,$,$,.F.,$,#82,.CONSTRUCTION.);
#84=IFCTASKTIME('Third floor masonry Time',.PREDICTED.,$,.WORKTIME.,'P0Y0M8D','2027-03-01T07:00:00','2027-03-10T07:00:00','2027-06-04T07:00:00','2027-06-15T07:00:00','2027-06-04T07:00:00','2027-06-15T07:00:00','P0Y0M0D','P0Y0M0D',.T.,$,$,$,$,$,0.00);
#85=IFCTASK('3ZDD4N44G7gd$4E9i1Z_1Y',#6,'Third floor masonry',$,$,'3.7',$,$,$,.F.,$,#84,.CONSTRUCTION.);
#86=IFCTASKTIME('Timber roof structure Time',.PREDICTED.,$,.WORKTIME.,'P0Y0M10D','2027-03-01T07:00:00','2027-03-12T07:00:00','2027-06-16T07:00:00','2027-06-29T07:00:00','2027-06-16T07:00:00','2027-06-29T07:00:00','P0Y0M0D','P0Y0M0D',.T.,$,$,$,$,$,0.00);
#87=IFCTASK('1M$WCSEHESHCT0j4VWE_ok',#6,'Timber roof structure',$,$,'3.8',$,$,$,.F.,$,#86,.CONSTRUCTION.);
#88=IFCTASKTIME('Roofing Time',.PREDICTED.,$,.WORKTIME.,'P0Y0M8D','2027-03-01T07:00:00','2027-03-10T07:00:00','2027-06-30T07:00:00','2027-07-09T07:00:00','2027-06-30T07:00:00','2027-07-09T07:00:00','P0Y0M0D','P0Y0M0D',.T.,$,$,$,$,$,0.00);
#89=IFCTASK('3qM_dAkaTY33VGZe_SUEXY',#6,'Roofing',$,$,'3.9',$,$,$,.F.,$,#88,.CONSTRUCTION.);
#90=IFCTASKTIME('Topping out Time',.PREDICTED.,$,.WORKTIME.,'P0Y0M0D','2027-03-01T07:00:00','2027-03-01T07:00:00','2027-07-09T07:00:00','2027-07-09T07:00:00','2028-01-12T07:00:00','2028-01-12T07:00:00','P0Y0M118D','P0Y0M118D',.F.,$,$,$,$,$,0.00);
#91=IFCTASK('3XXvMzgxbzPNarEN925GMm',#6,'Topping out',$,$,'3.10',$,$,$,.T.,$,#90,.CONSTRUCTION.);
#92=IFCTASKTIME('4. Facade & roof Time',.PREDICTED.,$,.WORKTIME.,'P0Y0M38D','2027-03-01T07:00:00','2027-03-05T07:00:00','2027-06-21T07:00:00','2027-09-01T07:00:00','2027-06-21T07:00:00','2028-01-12T07:00:00','P0Y0M0D','P0Y0M0D',.T.,$,$,$,$,$,0.00);
#93=IFCTASK('2BM4uSP4Bzf5Zo9kJvWe4y',#6,'4. Facade & roof',$,$,'4',$,$,$,.F.,$,#92,.CONSTRUCTION.);
#94=IFCTASKTIME('Facade insulation Time',.PREDICTED.,$,.WORKTIME.,'P0Y0M8D','2027-03-01T07:00:00','2027-03-10T07:00:00','2027-06-21T07:00:00','2027-06-30T07:00:00','2027-06-21T07:00:00','2027-06-30T07:00:00','P0Y0M0D','P0Y0M0D',.T.,$,$,$,$,$,0.00);
#95=IFCTASK('1rUEamRVMiwuYM4VDjlNxA',#6,'Facade insulation',$,$,'4.1',$,$,$,.F.,$,#94,.INSTALLATION.);
#96=IFCTASKTIME('Natural stone cladding Time',.PREDICTED.,$,.WORKTIME.,'P0Y0M15D','2027-03-01T07:00:00','2027-03-19T07:00:00','2027-07-01T07:00:00','2027-07-21T07:00:00','2027-07-01T07:00:00','2027-07-21T07:00:00','P0Y0M0D','P0Y0M0D',.T.,$,$,$,$,$,0.00);
#97=IFCTASK('2vAommnAQAvwwgSI_G$T9B',#6,'Natural stone cladding',$,$,'4.2',$,$,$,.F.,$,#96,.CONSTRUCTION.);
#98=IFCTASKTIME('Install window frames Time',.PREDICTED.,$,.WORKTIME.,'P0Y0M10D','2027-03-01T07:00:00','2027-03-12T07:00:00','2027-07-22T07:00:00','2027-08-25T07:00:00','2027-07-22T07:00:00','2027-08-25T07:00:00','P0Y0M0D','P0Y0M0D',.T.,$,$,$,$,$,0.00);
#99=IFCTASK('3T8tJBaSU$AyAcnkHyOfpI',#6,'Install window frames',$,$,'4.3',$,$,$,.F.,$,#98,.INSTALLATION.);
#100=IFCTASKTIME('Glazing Time',.PREDICTED.,$,.WORKTIME.,'P0Y0M5D','2027-03-01T07:00:00','2027-03-05T07:00:00','2027-08-26T07:00:00','2027-09-01T07:00:00','2027-08-26T07:00:00','2027-09-01T07:00:00','P0Y0M0D','P0Y0M0D',.T.,$,$,$,$,$,0.00);
#101=IFCTASK('035JdtXLq7LeFj41qLoZj_',#6,'Glazing',$,$,'4.4',$,$,$,.F.,$,#100,.INSTALLATION.);
#102=IFCTASKTIME('Wind and weathertight Time',.PREDICTED.,$,.WORKTIME.,'P0Y0M0D','2027-03-01T07:00:00','2027-03-01T07:00:00','2027-09-01T07:00:00','2027-09-01T07:00:00','2028-01-12T07:00:00','2028-01-12T07:00:00','P0Y0M95D','P0Y0M95D',.F.,$,$,$,$,$,0.00);
#103=IFCTASK('3YGwOa2vFy37utYRl5zkRM',#6,'Wind and weathertight',$,$,'4.5',$,$,$,.T.,$,#102,.CONSTRUCTION.);
#104=IFCTASKTIME('5. Building services Time',.PREDICTED.,$,.WORKTIME.,'P0Y0M36D','2027-03-01T07:00:00','2027-03-05T07:00:00','2027-09-02T07:00:00','2027-10-21T07:00:00','2027-09-02T07:00:00','2028-01-12T07:00:00','P0Y0M0D','P0Y0M0D',.T.,$,$,$,$,$,0.00);
#105=IFCTASK('1iW2Lf9pIOEa_an_tDB0PS',#6,'5. Building services',$,$,'5',$,$,$,.F.,$,#104,.INSTALLATION.);
#106=IFCTASKTIME('Electrical first fix Time',.PREDICTED.,$,.WORKTIME.,'P0Y0M10D','2027-03-01T07:00:00','2027-03-12T07:00:00','2027-09-02T07:00:00','2027-09-15T07:00:00','2027-09-02T07:00:00','2027-09-15T07:00:00','P0Y0M0D','P0Y0M0D',.T.,$,$,$,$,$,0.00);
#107=IFCTASK('0hDmFwhQTDAqLMMlKNpchC',#6,'Electrical first fix',$,$,'5.1',$,$,$,.F.,$,#106,.INSTALLATION.);
#108=IFCTASKTIME('Plumbing first fix Time',.PREDICTED.,$,.WORKTIME.,'P0Y0M8D','2027-03-01T07:00:00','2027-03-10T07:00:00','2027-09-16T07:00:00','2027-09-27T07:00:00','2027-12-08T07:00:00','2027-12-17T07:00:00','P0Y0M0D','P0Y0M59D',.F.,$,$,$,$,$,0.00);
#109=IFCTASK('3Ae99fSWMa$qBNwqwvbdVx',#6,'Plumbing first fix',$,$,'5.2',$,$,$,.F.,$,#108,.INSTALLATION.);
#110=IFCTASKTIME('Heating installation Time',.PREDICTED.,$,.WORKTIME.,'P0Y0M10D','2027-03-01T07:00:00','2027-03-12T07:00:00','2027-09-21T07:00:00','2027-10-04T07:00:00','2027-12-13T07:00:00','2027-12-24T07:00:00','P0Y0M0D','P0Y0M59D',.F.,$,$,$,$,$,0.00);
#111=IFCTASK('2h2qk_xeTqvnOub1yqfb62',#6,'Heating installation',$,$,'5.3',$,$,$,.F.,$,#110,.INSTALLATION.);
#112=IFCTASKTIME('Ventilation system Time',.PREDICTED.,$,.WORKTIME.,'P0Y0M8D','2027-03-01T07:00:00','2027-03-10T07:00:00','2027-10-05T07:00:00','2027-10-14T07:00:00','2027-12-27T07:00:00','2028-01-05T07:00:00','P0Y0M0D','P0Y0M59D',.F.,$,$,$,$,$,0.00);
#113=IFCTASK('13FXnMrFNcUwfrmwXWZVVs',#6,'Ventilation system',$,$,'5.4',$,$,$,.F.,$,#112,.INSTALLATION.);
#114=IFCTASKTIME('Home automation cabling Time',.PREDICTED.,$,.WORKTIME.,'P0Y0M5D','2027-03-01T07:00:00','2027-03-05T07:00:00','2027-10-15T07:00:00','2027-10-21T07:00:00','2028-01-06T07:00:00','2028-01-12T07:00:00','P0Y0M59D','P0Y0M59D',.F.,$,$,$,$,$,0.00);
#115=IFCTASK('125G5_DzYR3GhIpX5ROOHO',#6,'Home automation cabling',$,$,'5.5',$,$,$,.F.,$,#114,.INSTALLATION.);
#116=IFCTASKTIME('6. Fit-out Time',.PREDICTED.,$,.WORKTIME.,'P0Y0M63D','2027-03-01T07:00:00','2027-03-05T07:00:00','2027-10-01T07:00:00','2027-12-28T07:00:00','2027-10-01T07:00:00','2027-12-28T07:00:00','P0Y0M0D','P0Y0M0D',.T.,$,$,$,$,$,0.00);
#117=IFCTASK('2qvutpLJKvl_vxoOPqzf5F',#6,'6. Fit-out',$,$,'6',$,$,$,.F.,$,#116,.CONSTRUCTION.);
#118=IFCTASKTIME('Internal walls Time',.PREDICTED.,$,.WORKTIME.,'P0Y0M10D','2027-03-01T07:00:00','2027-03-12T07:00:00','2027-10-01T07:00:00','2027-10-14T07:00:00','2027-10-01T07:00:00','2027-10-14T07:00:00','P0Y0M0D','P0Y0M0D',.T.,$,$,$,$,$,0.00);
#119=IFCTASK('2t0RcnCqDQWXR8Pqu7Gdbt',#6,'Internal walls',$,$,'6.1',$,$,$,.F.,$,#118,.CONSTRUCTION.);
#120=IFCTASKTIME('Plastering Time',.PREDICTED.,$,.WORKTIME.,'P0Y0M12D','2027-03-01T07:00:00','2027-03-16T07:00:00','2027-10-15T07:00:00','2027-11-01T07:00:00','2027-10-15T07:00:00','2027-11-01T07:00:00','P0Y0M0D','P0Y0M0D',.T.,$,$,$,$,$,0.00);
#121=IFCTASK('3dUGoCPHi0uVJk8UcSMArM',#6,'Plastering',$,$,'6.2',$,$,$,.F.,$,#120,.CONSTRUCTION.);
#122=IFCTASKTIME('Bathroom tiling Time',.PREDICTED.,$,.WORKTIME.,'P0Y0M8D','2027-03-01T07:00:00','2027-03-10T07:00:00','2027-11-02T07:00:00','2027-11-11T07:00:00','2027-11-02T07:00:00','2027-11-11T07:00:00','P0Y0M0D','P0Y0M0D',.T.,$,$,$,$,$,0.00);
#123=IFCTASK('149eIfu9VwndZiNTfWYjXl',#6,'Bathroom tiling',$,$,'6.3',$,$,$,.F.,$,#122,.CONSTRUCTION.);
#124=IFCTASKTIME('Screed floors Time',.PREDICTED.,$,.WORKTIME.,'P0Y0M5D','2027-03-01T07:00:00','2027-03-05T07:00:00','2027-11-12T07:00:00','2027-11-18T07:00:00','2027-11-12T07:00:00','2027-11-18T07:00:00','P0Y0M0D','P0Y0M0D',.T.,$,$,$,$,$,0.00);
#125=IFCTASK('37xb3elQ79z8$vcjm3bY8H',#6,'Screed floors',$,$,'6.4',$,$,$,.F.,$,#124,.CONSTRUCTION.);
#126=IFCTASKTIME('Painting Time',.PREDICTED.,$,.WORKTIME.,'P0Y0M10D','2027-03-01T07:00:00','2027-03-12T07:00:00','2027-11-19T07:00:00','2027-12-02T07:00:00','2027-11-19T07:00:00','2027-12-02T07:00:00','P0Y0M0D','P0Y0M0D',.T.,$,$,$,$,$,0.00);
#127=IFCTASK('07MtrICtbfkdhtn6bEziB7',#6,'Painting',$,$,'6.5',$,$,$,.F.,$,#126,.CONSTRUCTION.);
#128=IFCTASKTIME('Install kitchen Time',.PREDICTED.,$,.WORKTIME.,'P0Y0M5D','2027-03-01T07:00:00','2027-03-05T07:00:00','2027-12-03T07:00:00','2027-12-09T07:00:00','2027-12-03T07:00:00','2027-12-09T07:00:00','P0Y0M0D','P0Y0M0D',.T.,$,$,$,$,$,0.00);
#129=IFCTASK('0AP1IzRxO2nqngma$GgLVc',#6,'Install kitchen',$,$,'6.6',$,$,$,.F.,$,#128,.INSTALLATION.);
#130=IFCTASKTIME('Second-fix sanitary fittings Time',.PREDICTED.,$,.WORKTIME.,'P0Y0M5D','2027-03-01T07:00:00','2027-03-05T07:00:00','2027-12-10T07:00:00','2027-12-16T07:00:00','2027-12-10T07:00:00','2027-12-16T07:00:00','P0Y0M0D','P0Y0M0D',.T.,$,$,$,$,$,0.00);
#131=IFCTASK('0BO77AFpP6aBEFtBXd0D24',#6,'Second-fix sanitary fittings',$,$,'6.7',$,$,$,.F.,$,#130,.INSTALLATION.);
#132=IFCTASKTIME('Floor finishes Time',.PREDICTED.,$,.WORKTIME.,'P0Y0M8D','2027-03-01T07:00:00','2027-03-10T07:00:00','2027-12-17T07:00:00','2027-12-28T07:00:00','2027-12-17T07:00:00','2027-12-28T07:00:00','P0Y0M0D','P0Y0M0D',.T.,$,$,$,$,$,0.00);
#133=IFCTASK('0ywripjpKEKWA1$lZwxyd3',#6,'Floor finishes',$,$,'6.8',$,$,$,.F.,$,#132,.CONSTRUCTION.);
#134=IFCTASKTIME('7. Handover Time',.PREDICTED.,$,.WORKTIME.,'P0Y0M11D','2027-03-01T07:00:00','2027-03-05T07:00:00','2027-12-29T07:00:00','2028-01-12T07:00:00','2027-12-29T07:00:00','2028-01-12T07:00:00','P0Y0M0D','P0Y0M0D',.T.,$,$,$,$,$,0.00);
#135=IFCTASK('12EAEqLIZcfENLF_1qp4Bn',#6,'7. Handover',$,$,'7',$,$,$,.F.,$,#134,.CONSTRUCTION.);
#136=IFCTASKTIME('Construct outdoor areas Time',.PREDICTED.,$,.WORKTIME.,'P0Y0M5D','2027-03-01T07:00:00','2027-03-05T07:00:00','2027-12-29T07:00:00','2028-01-04T07:00:00','2027-12-29T07:00:00','2028-01-04T07:00:00','P0Y0M0D','P0Y0M0D',.T.,$,$,$,$,$,0.00);
#137=IFCTASK('20_PouIyCGBEtVh1lrVQv9',#6,'Construct outdoor areas',$,$,'7.1',$,$,$,.F.,$,#136,.CONSTRUCTION.);
#138=IFCTASKTIME('Cleaning Time',.PREDICTED.,$,.WORKTIME.,'P0Y0M3D','2027-03-01T07:00:00','2027-03-03T07:00:00','2028-01-05T07:00:00','2028-01-07T07:00:00','2028-01-05T07:00:00','2028-01-07T07:00:00','P0Y0M0D','P0Y0M0D',.T.,$,$,$,$,$,0.00);
#139=IFCTASK('29P9qUYU7mWTELzJTOuHB5',#6,'Cleaning',$,$,'7.2',$,$,$,.F.,$,#138,.LOGISTIC.);
#140=IFCTASKTIME('Final inspection of services Time',.PREDICTED.,$,.WORKTIME.,'P0Y0M3D','2027-03-01T07:00:00','2027-03-03T07:00:00','2028-01-10T07:00:00','2028-01-12T07:00:00','2028-01-10T07:00:00','2028-01-12T07:00:00','P0Y0M0D','P0Y0M0D',.T.,$,$,$,$,$,0.00);
#141=IFCTASK('3HceSIEP_voUSvTMPGKGKk',#6,'Final inspection of services',$,$,'7.3',$,$,$,.F.,$,#140,.CONSTRUCTION.);
#142=IFCTASKTIME('Handover Time',.PREDICTED.,$,.WORKTIME.,'P0Y0M0D','2027-03-01T07:00:00','2027-03-01T07:00:00','2028-01-12T07:00:00','2028-01-12T07:00:00','2028-01-12T07:00:00','2028-01-12T07:00:00','P0Y0M0D','P0Y0M0D',.T.,$,$,$,$,$,0.00);
#143=IFCTASK('2l$z8qECu7t9tSbPjtC8aR',#6,'Handover',$,$,'7.4',$,$,$,.T.,$,#142,.CONSTRUCTION.);
#144=IFCRELNESTS('0J_71gRU9$gkda1Wyn0aaG',#6,'WBS 1. Preparation',$,#43,( #45,#47,#49,#51,#53));
#145=IFCRELNESTS('1hUdf$dkcLKT8CMmUtYGfP',#6,'WBS 2. Foundations & basement',$,#55,( #57,#59,#61,#63,#65,#67,#69));
#146=IFCRELNESTS('2yAS7DRvPCizAIBBUp5zG7',#6,'WBS 3. Structural works',$,#71,( #73,#75,#77,#79,#81,#83,#85,#87,#89,#91));
#147=IFCRELNESTS('0xpFDjVwwTWBeH0aroUP2H',#6,'WBS 4. Facade & roof',$,#93,( #95,#97,#99,#101,#103));
#148=IFCRELNESTS('0urmrLZaXcL53zvSZKwC1g',#6,'WBS 5. Building services',$,#105,( #107,#109,#111,#113,#115));
#149=IFCRELNESTS('1ORN2YawrG6BOIiJQaVthN',#6,'WBS 6. Fit-out',$,#117,( #119,#121,#123,#125,#127,#129,#131,#133));
#150=IFCRELNESTS('1O$Me_FcTbAz2Ol9G4sqFd',#6,'WBS 7. Handover',$,#135,( #137,#139,#141,#143));
#151=IFCRELNESTS('2cCCJ160i5p$8Jz$agQGG3',#6,'WBS Hoofd',$,#40,(#43,#55,#71,#93,#105,#117,#135));
#152=IFCRELSEQUENCE('2o52bHSDP_NR$ArynzdISx',#6,$,$,#45,#47,$,.FINISH_START.,$);
#153=IFCRELSEQUENCE('0Xbq7vKPxHkRd4fiJ4a6GQ',#6,$,$,#47,#49,$,.FINISH_START.,$);
#154=IFCRELSEQUENCE('1WH0DmOzFs5Fg6v3VX52BW',#6,$,$,#49,#51,$,.FINISH_START.,$);
#155=IFCRELSEQUENCE('3NiTQxKDRCG_KMx1buyro7',#6,$,$,#51,#53,$,.FINISH_START.,$);
#156=IFCRELSEQUENCE('2JwemFW5OQ7omn8uaQ1O8G',#6,$,$,#57,#59,$,.FINISH_START.,$);
#157=IFCRELSEQUENCE('0NIdb2KZebAWRZ$BRDGQjN',#6,$,$,#59,#61,$,.FINISH_START.,$);
#158=IFCRELSEQUENCE('23RYq0aYOESmfMIkZjptT0',#6,$,$,#61,#63,$,.FINISH_START.,$);
#159=IFCRELSEQUENCE('3K56tQNJIMqAFyZtc$36aZ',#6,$,$,#63,#65,$,.FINISH_START.,$);
#160=IFCRELSEQUENCE('0NjEWVA1ler27dKTN_hf8a',#6,$,$,#65,#67,$,.FINISH_START.,$);
#161=IFCRELSEQUENCE('1cdiv0w7MR$i$EFly694QV',#6,$,$,#67,#69,$,.FINISH_START.,$);
#162=IFCRELSEQUENCE('2XP0iFfN1sTsbUp0Ro$NDn',#6,$,$,#73,#75,$,.FINISH_START.,$);
#163=IFCRELSEQUENCE('12F4TJhomYj9gfh1pAOiPS',#6,$,$,#75,#77,$,.FINISH_START.,$);
#164=IFCRELSEQUENCE('1Zf$8v2gQgjuKhKvJye726',#6,$,$,#77,#79,$,.FINISH_START.,$);
#165=IFCRELSEQUENCE('2D1hNjOqua66yZFFa0zA2$',#6,$,$,#79,#81,$,.FINISH_START.,$);
#166=IFCRELSEQUENCE('2yGdlv38SBhmBc7_ARIWrf',#6,$,$,#81,#83,$,.FINISH_START.,$);
#167=IFCRELSEQUENCE('3_l4ZhVf0QZqOjxVMcfi75',#6,$,$,#83,#85,$,.FINISH_START.,$);
#168=IFCRELSEQUENCE('0Y0jNMvwb90gYHOYlsy5lC',#6,$,$,#85,#87,$,.FINISH_START.,$);
#169=IFCRELSEQUENCE('1HRR9CoI9YHYTscK_jKK_5',#6,$,$,#87,#89,$,.FINISH_START.,$);
#170=IFCRELSEQUENCE('0As8c7NgDh5cw8LKTzTejh',#6,$,$,#89,#91,$,.FINISH_START.,$);
#171=IFCRELSEQUENCE('2rlNuoGfMjtq5s9WPZXrsw',#6,$,$,#95,#97,$,.FINISH_START.,$);
#172=IFCRELSEQUENCE('0msmnFVcYMoy967kH4cLJG',#6,$,$,#97,#99,$,.FINISH_START.,$);
#173=IFCRELSEQUENCE('1onv2ElDyrjjuESKirUbuc',#6,$,$,#99,#101,$,.FINISH_START.,$);
#174=IFCRELSEQUENCE('2wP_7L37gTWuh5YmVh3aLE',#6,$,$,#101,#103,$,.FINISH_START.,$);
#175=IFCRELSEQUENCE('1t2v62SijsuZTZo$RCDE8T',#6,$,$,#107,#109,$,.FINISH_START.,$);
#176=IFCLAGTIME('Lag',.PREDICTED.,$,IFCDURATION('P3D'),.WORKTIME.);
#177=IFCRELSEQUENCE('0MzYWCpGE4NW48yVIUgvyb',#6,$,$,#109,#111,#176,.START_START.,$);
#178=IFCRELSEQUENCE('3AIJhTuoS0EtgPqi6_tq2r',#6,$,$,#111,#113,$,.FINISH_START.,$);
#179=IFCRELSEQUENCE('2ie4_EuU4EMpBfJ6I9m09h',#6,$,$,#113,#115,$,.FINISH_START.,$);
#180=IFCRELSEQUENCE('3Rpsb4Fwpi630zVqm0tFF3',#6,$,$,#119,#121,$,.FINISH_START.,$);
#181=IFCRELSEQUENCE('3y7pfzaqUL7$xZo1Bafii9',#6,$,$,#121,#123,$,.FINISH_START.,$);
#182=IFCRELSEQUENCE('2SfkNGmpy4kI7kyUGv1m$9',#6,$,$,#123,#125,$,.FINISH_START.,$);
#183=IFCRELSEQUENCE('0YUQkebI8fxzuQyTYU8L8T',#6,$,$,#125,#127,$,.FINISH_START.,$);
#184=IFCRELSEQUENCE('3ekurnW6IxKMdYFIeLjT7j',#6,$,$,#127,#129,$,.FINISH_START.,$);
#185=IFCRELSEQUENCE('3d_hRZZIvffiJHZ6J$Iqj3',#6,$,$,#129,#131,$,.FINISH_START.,$);
#186=IFCRELSEQUENCE('2_Wv094a4VPvzYsKbyk8Ak',#6,$,$,#131,#133,$,.FINISH_START.,$);
#187=IFCRELSEQUENCE('2eAl0GmCOwxOSfEVhWaens',#6,$,$,#137,#139,$,.FINISH_START.,$);
#188=IFCRELSEQUENCE('1OI_KliepCcsU3VSwXl2uz',#6,$,$,#139,#141,$,.FINISH_START.,$);
#189=IFCRELSEQUENCE('2e0AnCKkekc0TLKnTukL91',#6,$,$,#141,#143,$,.FINISH_START.,$);
#190=IFCLAGTIME('Lag',.PREDICTED.,$,IFCDURATION('P12D'),.WORKTIME.);
#191=IFCRELSEQUENCE('3eCB5A$OFiFmqNwTSIPN_Y',#6,$,$,#45,#57,#190,.START_START.,$);
#192=IFCLAGTIME('Lag',.PREDICTED.,$,IFCRATIOMEASURE(0.4),.WORKTIME.);
#193=IFCRELSEQUENCE('28IcSNujL8kVFl9E$fVgNQ',#6,$,$,#57,#73,#192,.START_START.,$);
#194=IFCLAGTIME('Lag',.PREDICTED.,$,IFCDURATION('-P15D'),.WORKTIME.);
#195=IFCRELSEQUENCE('0KJKkdJgxN1_w06t45UnWW',#6,$,$,#89,#95,#194,.FINISH_START.,$);
#196=IFCLAGTIME('Lag',.PREDICTED.,$,IFCDURATION('P2D'),.WORKTIME.);
#197=IFCRELSEQUENCE('0QID9YHNpZUKS3lQ7zU7$t',#6,$,$,#89,#101,#196,.FINISH_FINISH.,$);
#198=IFCRELSEQUENCE('108j4Os_PNdIT$55mZgiLU',#6,$,$,#101,#107,$,.FINISH_START.,$);
#199=IFCLAGTIME('Lag',.PREDICTED.,$,IFCDURATION('P21D'),.WORKTIME.);
#200=IFCRELSEQUENCE('1lrlMedhBTRR4g6KZaJTpk',#6,$,$,#107,#119,#199,.START_START.,$);
#201=IFCRELSEQUENCE('2t8qSBc2ub1mKnuCUAFh08',#6,$,$,#133,#137,$,.FINISH_START.,$);
#202=IFCCREWRESOURCE('3R9DFRdFtnQ0bn_jLyaWzB',#6,'Restoration crew','Overarching restoration crew for the shell; small crews because of the narrow canal-side site',$,$,$,$,.USERDEFINED.);
#203=IFCLABORRESOURCE('0E2PThyEmeObrhEboxzasy',#6,'Restoration bricklayers','Bricklayers in restoration work (historic bond and pointing) \X2\2014\X0\ restoration rate',$,$,$,$,.USERDEFINED.);
#204=IFCLABORRESOURCE('2QLk4bc7_XtvZkQinJCLTW',#6,'Carpenters','Roof structure and joinery; peaks at 5 where the roof works overlap the window frames',$,$,$,$,.USERDEFINED.);
#205=IFCLABORRESOURCE('0TdJAAkNmBPxTZa2mppyuj',#6,'Plasterers',$,$,$,$,$,.USERDEFINED.);
#206=IFCCONSTRUCTIONEQUIPMENTRESOURCE('2eBKKsua2xlM9Bvm4Wxd$Y',#6,'Mobile crane','One crane slot on the quay \X2\2014\X0\ the canal street has room for nothing more',$,$,$,$,.USERDEFINED.);
#207=IFCSUBCONTRACTRESOURCE('3sRzNlrRNqxD3PiGHsoMOD',#6,'Piling contractor','Sheet piling and foundation piles, low-vibration technique for the inner city',$,$,$,$,.USERDEFINED.);
#208=IFCCONSTRUCTIONMATERIALRESOURCE('3OTX$49hh2BMxuYzofibRs',#6,'Concrete C20/25',$,$,$,$,$,.USERDEFINED.);
#209=IFCPROPERTYSINGLEVALUE('Color',$,IFCTEXT('#1E293B'),$);
#210=IFCPROPERTYSET('19nzBw_JRizVqIifYgUuVL',#6,'OPS_Resource',$,(#209));
#211=IFCRELDEFINESBYPROPERTIES('383XUYRlIwnpbLU4fGd8nH',#6,$,$,(#202),#210);
#212=IFCPROPERTYSINGLEVALUE('MaxUnits',$,IFCREAL(3),$);
#213=IFCPROPERTYSINGLEVALUE('CostPerHour',$,IFCMONETARYMEASURE(52),$);
#214=IFCPROPERTYSINGLEVALUE('Color',$,IFCTEXT('#B91C1C'),$);
#215=IFCPROPERTYSINGLEVALUE('ParentGuid',$,IFCTEXT('3R9DFRdFtnQ0bn_jLyaWzB'),$);
#216=IFCPROPERTYSET('3PSdogXEkyCpIwHsfxRo_O',#6,'OPS_Resource',$,(#212,#213,#214,#215));
#217=IFCRELDEFINESBYPROPERTIES('3MB5hrrPavu$ot8a9UmiHZ',#6,$,$,(#203),#216);
#218=IFCPROPERTYSINGLEVALUE('MaxUnits',$,IFCREAL(5),$);
#219=IFCPROPERTYSINGLEVALUE('CostPerHour',$,IFCMONETARYMEASURE(45),$);
#220=IFCPROPERTYSINGLEVALUE('Color',$,IFCTEXT('#DB2777'),$);
#221=IFCPROPERTYSINGLEVALUE('ParentGuid',$,IFCTEXT('3R9DFRdFtnQ0bn_jLyaWzB'),$);
#222=IFCPROPERTYSET('2sLcg_zeN$r2GyGOpA_gT2',#6,'OPS_Resource',$,(#218,#219,#220,#221));
#223=IFCRELDEFINESBYPROPERTIES('2gTxMLY1oASuB_1PrgUUUP',#6,$,$,(#204),#222);
#224=IFCPROPERTYSINGLEVALUE('MaxUnits',$,IFCREAL(3),$);
#225=IFCPROPERTYSINGLEVALUE('CostPerHour',$,IFCMONETARYMEASURE(42),$);
#226=IFCPROPERTYSINGLEVALUE('Color',$,IFCTEXT('#C2410C'),$);
#227=IFCPROPERTYSET('0FU9Phqyh5BmPPRJFoVkBr',#6,'OPS_Resource',$,(#224,#225,#226));
#228=IFCRELDEFINESBYPROPERTIES('3P4tfw_gEDJ_xV697KGI3N',#6,$,$,(#205),#227);
#229=IFCPROPERTYSINGLEVALUE('CostPerHour',$,IFCMONETARYMEASURE(95),$);
#230=IFCPROPERTYSINGLEVALUE('Color',$,IFCTEXT('#6366F1'),$);
#231=IFCPROPERTYSET('0Y8KMsxk4HDwu7Q8154A9w',#6,'OPS_Resource',$,(#229,#230));
#232=IFCRELDEFINESBYPROPERTIES('14GkOmxtphWInq4jS$uSa2',#6,$,$,(#206),#231);
#233=IFCPROPERTYSINGLEVALUE('MaxUnits',$,IFCREAL(2),$);
#234=IFCPROPERTYSINGLEVALUE('CostPerHour',$,IFCMONETARYMEASURE(78),$);
#235=IFCPROPERTYSINGLEVALUE('Color',$,IFCTEXT('#0D9488'),$);
#236=IFCPROPERTYSET('0kfyKcaLfTqoMhTge5xF02',#6,'OPS_Resource',$,(#233,#234,#235));
#237=IFCRELDEFINESBYPROPERTIES('3e6NAHIDVOrioSlm2SmvV$',#6,$,$,(#207),#236);
#238=IFCPROPERTYSINGLEVALUE('MaxUnits',$,IFCREAL(999),$);
#239=IFCPROPERTYSINGLEVALUE('UnitOfMeasure',$,IFCLABEL('m\X2\00B3\X0\'),$);
#240=IFCPROPERTYSINGLEVALUE('Color',$,IFCTEXT('#D97706'),$);
#241=IFCPROPERTYSET('1EIx937lESqiVnMegONAVt',#6,'OPS_Resource',$,(#238,#239,#240));
#242=IFCRELDEFINESBYPROPERTIES('37WIVJx2bJRxsxO3zFZhrf',#6,$,$,(#208),#241);
#243=IFCRELNESTS('0r6pbfwYBoNJuH2qgeEb2m',#6,'Ploeg Restoration crew',$,#202,(#203,#204));
#244=IFCRELASSIGNSTOPROCESS('2Jp45hJdOaig4U1M4O3Eo4',#6,$,$,(#207),$,#47,$);
#245=IFCRELASSIGNSTOPROCESS('0I3vLfV7wp8DKHpHA3yPDw',#6,$,$,(#207),$,#59,$);
#246=IFCRELASSIGNSTOPROCESS('29pFSvXyDxzaMdkWn5s4Jh',#6,$,$,(#208),$,#63,$);
#247=IFCRELASSIGNSTOPROCESS('1Twdd0WLrqtmO01Zgb6nb2',#6,$,$,(#208),$,#65,$);
#248=IFCRELASSIGNSTOPROCESS('1ePZgjz4fZjr1D7K6Fsm0U',#6,$,$,(#203),$,#73,$);
#249=IFCRELASSIGNSTOPROCESS('2fSt4xHcxo4K4qhxT80FCW',#6,$,$,(#206),$,#75,$);
#250=IFCRELASSIGNSTOPROCESS('0I_X6Kxe8pEIqbdcMdhGGW',#6,$,$,(#203),$,#77,$);
#251=IFCRELASSIGNSTOPROCESS('2yd4m7RllyIAoh9DEkdQ01',#6,$,$,(#206),$,#79,$);
#252=IFCRELASSIGNSTOPROCESS('2MlH$sqfJ$ktDuHJ81kDEe',#6,$,$,(#203),$,#81,$);
#253=IFCRELASSIGNSTOPROCESS('3A6cQmouoskD9MamBHPyCo',#6,$,$,(#206),$,#83,$);
#254=IFCRELASSIGNSTOPROCESS('2IrGoP47UiUoLakhRyMEAA',#6,$,$,(#203),$,#85,$);
#255=IFCRELASSIGNSTOPROCESS('16WEm$p4BQM3c1QDowRHpa',#6,$,$,(#204,#206),$,#87,$);
#256=IFCRELASSIGNSTOPROCESS('2nzFlLZ5FmpFf_UTYvDhK1',#6,$,$,(#204),$,#89,$);
#257=IFCRELASSIGNSTOPROCESS('1fC$8vGKlbum4nzuiZ1oOF',#6,$,$,(#204),$,#99,$);
#258=IFCRELASSIGNSTOPROCESS('2Lt9KaO49f0c_PWoZbtPpc',#6,$,$,(#205),$,#121,$);
#259=IFCPROPERTYSINGLEVALUE('3sRzNlrRNqxD3PiGHsoMOD#0',$,IFCTEXT('2|UNIFORM'),$);
#260=IFCPROPERTYSET('18VJtiDami13AU5OKwBjCh',#6,'OPS_Assignments',$,(#259));
#261=IFCRELDEFINESBYPROPERTIES('3eIki7s_6gYEwvSS$htda4',#6,$,$,(#47),#260);
#262=IFCPROPERTYSINGLEVALUE('3sRzNlrRNqxD3PiGHsoMOD#0',$,IFCTEXT('2|UNIFORM'),$);
#263=IFCPROPERTYSET('11ZRcWaTdrLPcZgDuO4dWD',#6,'OPS_Assignments',$,(#262));
#264=IFCRELDEFINESBYPROPERTIES('3$nwR0fVN0fM0XE4u_5$Dl',#6,$,$,(#59),#263);
#265=IFCPROPERTYSINGLEVALUE('3OTX$49hh2BMxuYzofibRs#0',$,IFCTEXT('40|FRONT_LOADED'),$);
#266=IFCPROPERTYSET('1hoMADpDqhNuQroHpyUBUC',#6,'OPS_Assignments',$,(#265));
#267=IFCRELDEFINESBYPROPERTIES('3S6oGGvoe_Z4hWXX7Ik$_K',#6,$,$,(#63),#266);
#268=IFCPROPERTYSINGLEVALUE('3OTX$49hh2BMxuYzofibRs#0',$,IFCTEXT('30|FRONT_LOADED'),$);
#269=IFCPROPERTYSET('2HRTw6UWLOG0f_WLrMCbl9',#6,'OPS_Assignments',$,(#268));
#270=IFCRELDEFINESBYPROPERTIES('0dLVlldvcL4J759FZs4P4U',#6,$,$,(#65),#269);
#271=IFCPROPERTYSINGLEVALUE('0E2PThyEmeObrhEboxzasy#0',$,IFCTEXT('3|UNIFORM'),$);
#272=IFCPROPERTYSET('1ebo$$_hROhoSIWBoIvfgl',#6,'OPS_Assignments',$,(#271));
#273=IFCRELDEFINESBYPROPERTIES('3dfpHZQGJFyiXeCzmGHOY0',#6,$,$,(#73),#272);
#274=IFCPROPERTYSINGLEVALUE('2eBKKsua2xlM9Bvm4Wxd$Y#0',$,IFCTEXT('1|UNIFORM'),$);
#275=IFCPROPERTYSET('1c_AXP0ltijCTo3bWWx$0X',#6,'OPS_Assignments',$,(#274));
#276=IFCRELDEFINESBYPROPERTIES('0IkWJ2qsJsisQXPLxS4hg9',#6,$,$,(#75),#275);
#277=IFCPROPERTYSINGLEVALUE('0E2PThyEmeObrhEboxzasy#0',$,IFCTEXT('3|UNIFORM'),$);
#278=IFCPROPERTYSET('2lK4Qy55xJKwEL3KCoZHiy',#6,'OPS_Assignments',$,(#277));
#279=IFCRELDEFINESBYPROPERTIES('2fWXHMvhNypgs8kj0Gl_mA',#6,$,$,(#77),#278);
#280=IFCPROPERTYSINGLEVALUE('2eBKKsua2xlM9Bvm4Wxd$Y#0',$,IFCTEXT('1|UNIFORM'),$);
#281=IFCPROPERTYSET('1UNGU33lKSWilYiCWes82Z',#6,'OPS_Assignments',$,(#280));
#282=IFCRELDEFINESBYPROPERTIES('2ypPgzFwLm6RDMQHadTaa7',#6,$,$,(#79),#281);
#283=IFCPROPERTYSINGLEVALUE('0E2PThyEmeObrhEboxzasy#0',$,IFCTEXT('3|UNIFORM'),$);
#284=IFCPROPERTYSET('3fKIA_MPbTzSgM6Av89VFi',#6,'OPS_Assignments',$,(#283));
#285=IFCRELDEFINESBYPROPERTIES('2UBXLugZKFFO8gcS5GqkFB',#6,$,$,(#81),#284);
#286=IFCPROPERTYSINGLEVALUE('2eBKKsua2xlM9Bvm4Wxd$Y#0',$,IFCTEXT('1|UNIFORM'),$);
#287=IFCPROPERTYSET('0Nt7KsUsBY7SEOEu$SxH_1',#6,'OPS_Assignments',$,(#286));
#288=IFCRELDEFINESBYPROPERTIES('3NdsKfkOiRRDTj8qSKDt14',#6,$,$,(#83),#287);
#289=IFCPROPERTYSINGLEVALUE('0E2PThyEmeObrhEboxzasy#0',$,IFCTEXT('2|UNIFORM'),$);
#290=IFCPROPERTYSET('2qRIJMEPABCGTQDCKTmSoK',#6,'OPS_Assignments',$,(#289));
#291=IFCRELDEFINESBYPROPERTIES('3hI254OnPInj33H3pUySYx',#6,$,$,(#85),#290);
#292=IFCPROPERTYSINGLEVALUE('2QLk4bc7_XtvZkQinJCLTW#0',$,IFCTEXT('3|UNIFORM'),$);
#293=IFCPROPERTYSINGLEVALUE('2eBKKsua2xlM9Bvm4Wxd$Y#1',$,IFCTEXT('1|UNIFORM'),$);
#294=IFCPROPERTYSET('3U6gQJWWfN88xVUhmBgyb$',#6,'OPS_Assignments',$,(#292,#293));
#295=IFCRELDEFINESBYPROPERTIES('3yIRmtmA7igC0ON6O96XWm',#6,$,$,(#87),#294);
#296=IFCPROPERTYSINGLEVALUE('2QLk4bc7_XtvZkQinJCLTW#0',$,IFCTEXT('2|UNIFORM'),$);
#297=IFCPROPERTYSET('09TUj$X$7YXat3Sf0oCFTg',#6,'OPS_Assignments',$,(#296));
#298=IFCRELDEFINESBYPROPERTIES('0iqEZGkMO0xzBhg_0Wc6kQ',#6,$,$,(#89),#297);
#299=IFCPROPERTYSINGLEVALUE('2QLk4bc7_XtvZkQinJCLTW#0',$,IFCTEXT('2|UNIFORM'),$);
#300=IFCPROPERTYSET('2LoqDGVGdJNstDKVgeiAut',#6,'OPS_Assignments',$,(#299));
#301=IFCRELDEFINESBYPROPERTIES('3QCy57npdiubLkeZT4KlUr',#6,$,$,(#99),#300);
#302=IFCPROPERTYSINGLEVALUE('0TdJAAkNmBPxTZa2mppyuj#0',$,IFCTEXT('3|UNIFORM'),$);
#303=IFCPROPERTYSET('1LzE9k66tSo4kAkkgrNG95',#6,'OPS_Assignments',$,(#302));
#304=IFCRELDEFINESBYPROPERTIES('3zdS9FFLECi0jMG1IEys70',#6,$,$,(#121),#303);
#305=IFCRELASSIGNSTOCONTROL('1vKkFf9dIPWEbhL3G_TYI9',#6,$,$,(#43,#45,#47,#49,#51,#53,#55,#57,#59,#61,#63,#65,#67,#69,#71,#73,#75,#77,#79,#81,#83,#85,#87,#89,#91,#93,#95,#97,#99,#101,#103,#105,#107,#109,#111,#113,#115,#117,#119,#121,#123,#125,#127,#129,#131,#133,#135,#137,#139,#141,#143),$,#40);
#306=IFCPROPERTYSINGLEVALUE('InternalProjectId',$,IFCTEXT('proj-mula801n7ie11100'),$);
#307=IFCPROPERTYSINGLEVALUE('wbsAutoNumber',$,IFCBOOLEAN(.T.),$);
#308=IFCPROPERTYSINGLEVALUE('DefaultTaskDurationUnit',$,IFCLABEL('days'),$);
#309=IFCPROPERTYSINGLEVALUE('ProjectStartDate',$,IFCDATE('2027-03-01'),$);
#310=IFCPROPERTYSINGLEVALUE('ProjectEndDate',$,$,$);
#311=IFCPROPERTYSINGLEVALUE('CreatedAt',$,IFCTEXT('2026-09-28T13:27:19.355Z'),$);
#312=IFCPROPERTYSINGLEVALUE('ModifiedAt',$,IFCTEXT('2026-09-28T13:27:19.357Z'),$);
#313=IFCPROPERTYSET('1hZIYDO1COamVoxhHz1PWC',#6,'OPS_ProjectSettings',$,(#306,#307,#308,#309,#310,#311,#312));
#314=IFCRELDEFINESBYPROPERTIES('13_0lFdFl0IBp5BJIM3zeE',#6,$,$,(#13),#313);
#315=IFCPROPERTYSINGLEVALUE('InternalTaskId',$,IFCTEXT('task-mula8022yuri1108'),$);
#316=IFCPROPERTYSET('1FzkyN$H9TdUUxCWqGGB9H',#6,'OPS_TaskIdentity',$,(#315));
#317=IFCRELDEFINESBYPROPERTIES('3moc54TJBKeA5vtNBsYjhH',#6,$,$,(#43),#316);
#318=IFCPROPERTYSINGLEVALUE('InternalTaskId',$,IFCTEXT('task-mula80247nqu1109'),$);
#319=IFCPROPERTYSET('1u3LnNcVfsVCGjcUaYpXDl',#6,'OPS_TaskIdentity',$,(#318));
#320=IFCRELDEFINESBYPROPERTIES('2xG3ZJDS6hIfHjpWohEg0o',#6,$,$,(#45),#319);
#321=IFCPROPERTYSINGLEVALUE('InternalTaskId',$,IFCTEXT('task-mula8025zype1110'),$);
#322=IFCPROPERTYSET('0VJEScaWiZ1741UxziZg_L',#6,'OPS_TaskIdentity',$,(#321));
#323=IFCRELDEFINESBYPROPERTIES('1RBAo9QvTWaoP79_NVNsqm',#6,$,$,(#47),#322);
#324=IFCPROPERTYSINGLEVALUE('InternalTaskId',$,IFCTEXT('task-mula8027otnp1111'),$);
#325=IFCPROPERTYSET('1PQRVfGu37Aa1qubh1Ahn2',#6,'OPS_TaskIdentity',$,(#324));
#326=IFCRELDEFINESBYPROPERTIES('1x_eve828n_zLTpGTLparX',#6,$,$,(#49),#325);
#327=IFCPROPERTYSINGLEVALUE('InternalTaskId',$,IFCTEXT('task-mula8029voh41112'),$);
#328=IFCPROPERTYSET('0BIciBlK3ycvaTLOFqAGed',#6,'OPS_TaskIdentity',$,(#327));
#329=IFCRELDEFINESBYPROPERTIES('0GxDrbk_O5eVqKV78jRToy',#6,$,$,(#51),#328);
#330=IFCPROPERTYSINGLEVALUE('InternalTaskId',$,IFCTEXT('task-mula802bqs141113'),$);
#331=IFCPROPERTYSET('2K_mDFPoXwgu4EXEI0GDW4',#6,'OPS_TaskIdentity',$,(#330));
#332=IFCRELDEFINESBYPROPERTIES('3qKX2jDjU$TErfnTEqaEv4',#6,$,$,(#53),#331);
#333=IFCPROPERTYSINGLEVALUE('InternalTaskId',$,IFCTEXT('task-mula802c85fh1114'),$);
#334=IFCPROPERTYSET('0FLFqXIsQClCvIzI2pAR4K',#6,'OPS_TaskIdentity',$,(#333));
#335=IFCRELDEFINESBYPROPERTIES('3EGQJtf_iGR2ORcq5yi21J',#6,$,$,(#55),#334);
#336=IFCPROPERTYSINGLEVALUE('InternalTaskId',$,IFCTEXT('task-mula802e15jl1115'),$);
#337=IFCPROPERTYSET('3gSgIGwMnjAc7FJ6N0TH8O',#6,'OPS_TaskIdentity',$,(#336));
#338=IFCRELDEFINESBYPROPERTIES('3xf8u5iEejCGO8vvsEgpW0',#6,$,$,(#57),#337);
#339=IFCPROPERTYSINGLEVALUE('InternalTaskId',$,IFCTEXT('task-mula802fcd8d1116'),$);
#340=IFCPROPERTYSET('21GNB3Ipy_W1Wce7kv4LAf',#6,'OPS_TaskIdentity',$,(#339));
#341=IFCRELDEFINESBYPROPERTIES('1YNxpGpTFCXMbIHU27LRHX',#6,$,$,(#59),#340);
#342=IFCPROPERTYSINGLEVALUE('InternalTaskId',$,IFCTEXT('task-mula802h1cpr1117'),$);
#343=IFCPROPERTYSET('1eONuDy$MuyVG$wLE2NdUW',#6,'OPS_TaskIdentity',$,(#342));
#344=IFCRELDEFINESBYPROPERTIES('2wRQ_eCC2_J7TqcRXPFMpf',#6,$,$,(#61),#343);
#345=IFCPROPERTYSINGLEVALUE('InternalTaskId',$,IFCTEXT('task-mula802ji0qb1118'),$);
#346=IFCPROPERTYSET('3kcRUj_970CmS_x6XMnWGR',#6,'OPS_TaskIdentity',$,(#345));
#347=IFCRELDEFINESBYPROPERTIES('1gmKZj59IU3yDuIJY5FkEa',#6,$,$,(#63),#346);
#348=IFCPROPERTYSINGLEVALUE('InternalTaskId',$,IFCTEXT('task-mula802kaxpx1119'),$);
#349=IFCPROPERTYSET('1tmY15mcztPenh59hORsfm',#6,'OPS_TaskIdentity',$,(#348));
#350=IFCRELDEFINESBYPROPERTIES('18ZlLoQ7sWDweiZS3yN8GH',#6,$,$,(#65),#349);
#351=IFCPROPERTYSINGLEVALUE('InternalTaskId',$,IFCTEXT('task-mula802mjo4f1120'),$);
#352=IFCPROPERTYSET('2xLhFdOAbOoYIPtN5jdX_i',#6,'OPS_TaskIdentity',$,(#351));
#353=IFCRELDEFINESBYPROPERTIES('2Iwn3oMtUDjgPRogqUzhF8',#6,$,$,(#67),#352);
#354=IFCPROPERTYSINGLEVALUE('InternalTaskId',$,IFCTEXT('task-mula802nostf1121'),$);
#355=IFCPROPERTYSET('2t$qsTp0XE1Km2HCNe7pyu',#6,'OPS_TaskIdentity',$,(#354));
#356=IFCRELDEFINESBYPROPERTIES('0fdTx1HCP0QQyzkWiaEG5O',#6,$,$,(#69),#355);
#357=IFCPROPERTYSINGLEVALUE('InternalTaskId',$,IFCTEXT('task-mula802q3qil1122'),$);
#358=IFCPROPERTYSET('0GpPdwJkwjoCynjWJyEDQC',#6,'OPS_TaskIdentity',$,(#357));
#359=IFCRELDEFINESBYPROPERTIES('1AgNUH7IjIXeZFxcgySYaR',#6,$,$,(#71),#358);
#360=IFCPROPERTYSINGLEVALUE('InternalTaskId',$,IFCTEXT('task-mula802r2xea1123'),$);
#361=IFCPROPERTYSET('3Wt_c3mzw_jU95P2KGXNKG',#6,'OPS_TaskIdentity',$,(#360));
#362=IFCRELDEFINESBYPROPERTIES('29F9u77zcD5Em14OGVZhr3',#6,$,$,(#73),#361);
#363=IFCPROPERTYSINGLEVALUE('InternalTaskId',$,IFCTEXT('task-mula802t344q1124'),$);
#364=IFCPROPERTYSET('27N3MNP_KCQUNOY5RfmbyH',#6,'OPS_TaskIdentity',$,(#363));
#365=IFCRELDEFINESBYPROPERTIES('08FcIUNzkx3xO1l0rRCP68',#6,$,$,(#75),#364);
#366=IFCPROPERTYSINGLEVALUE('InternalTaskId',$,IFCTEXT('task-mula802we7ym1125'),$);
#367=IFCPROPERTYSET('1Qj4g413PlNo72WwIf0fAn',#6,'OPS_TaskIdentity',$,(#366));
#368=IFCRELDEFINESBYPROPERTIES('1MbzK40GpQPGxCAFQw43vY',#6,$,$,(#77),#367);
#369=IFCPROPERTYSINGLEVALUE('InternalTaskId',$,IFCTEXT('task-mula802x1d4m1126'),$);
#370=IFCPROPERTYSET('2C32vu6emc3eK8kC4ABfwh',#6,'OPS_TaskIdentity',$,(#369));
#371=IFCRELDEFINESBYPROPERTIES('1Cw_I2mSrYCkF5WLsVSt6A',#6,$,$,(#79),#370);
#372=IFCPROPERTYSINGLEVALUE('InternalTaskId',$,IFCTEXT('task-mula802zblen1127'),$);
#373=IFCPROPERTYSET('0Mg7hkfKWLwJaI9BBkalV3',#6,'OPS_TaskIdentity',$,(#372));
#374=IFCRELDEFINESBYPROPERTIES('0nlHEDwZZG7XAyVqykPq1i',#6,$,$,(#81),#373);
#375=IFCPROPERTYSINGLEVALUE('InternalTaskId',$,IFCTEXT('task-mula8032lsir1128'),$);
#376=IFCPROPERTYSET('2mp3CAs16ZpJVsZ$9E4FnG',#6,'OPS_TaskIdentity',$,(#375));
#377=IFCRELDEFINESBYPROPERTIES('2sqIrYVohSei9tndIpYnP1',#6,$,$,(#83),#376);
#378=IFCPROPERTYSINGLEVALUE('InternalTaskId',$,IFCTEXT('task-mula8033k6mn1129'),$);
#379=IFCPROPERTYSET('2Or7Me5IpaoIzBRrXzV3Mp',#6,'OPS_TaskIdentity',$,(#378));
#380=IFCRELDEFINESBYPROPERTIES('3i82VESxOJ4yQqQ1sDneLh',#6,$,$,(#85),#379);
#381=IFCPROPERTYSINGLEVALUE('InternalTaskId',$,IFCTEXT('task-mula8035sgnm1130'),$);
#382=IFCPROPERTYSET('3ljSrmDFDVbMOvmfRoMX6F',#6,'OPS_TaskIdentity',$,(#381));
#383=IFCRELDEFINESBYPROPERTIES('0Zh$spAiqbQg5Aq4h1_nNS',#6,$,$,(#87),#382);
#384=IFCPROPERTYSINGLEVALUE('InternalTaskId',$,IFCTEXT('task-mula8037nldu1131'),$);
#385=IFCPROPERTYSET('2tGkyOXLG4gQ5bCog0aFI1',#6,'OPS_TaskIdentity',$,(#384));
#386=IFCRELDEFINESBYPROPERTIES('10TnOCs88WkcgSPXAmx0LC',#6,$,$,(#89),#385);
#387=IFCPROPERTYSINGLEVALUE('InternalTaskId',$,IFCTEXT('task-mula8039lyqj1132'),$);
#388=IFCPROPERTYSET('1NsudNTPVWz6JQAJgwUNuK',#6,'OPS_TaskIdentity',$,(#387));
#389=IFCRELDEFINESBYPROPERTIES('0nsiSECyHSDoZyLThhSmqN',#6,$,$,(#91),#388);
#390=IFCPROPERTYSINGLEVALUE('InternalTaskId',$,IFCTEXT('task-mula803bh19w1133'),$);
#391=IFCPROPERTYSET('3NiXJXJqFIORzxjxAk8SOd',#6,'OPS_TaskIdentity',$,(#390));
#392=IFCRELDEFINESBYPROPERTIES('3zJgYQVb5w31IbJYV0fFxy',#6,$,$,(#93),#391);
#393=IFCPROPERTYSINGLEVALUE('InternalTaskId',$,IFCTEXT('task-mula803cuv7n1134'),$);
#394=IFCPROPERTYSET('2zcnzKt4RiHm1qPmsSJjRa',#6,'OPS_TaskIdentity',$,(#393));
#395=IFCRELDEFINESBYPROPERTIES('3qpoICLXYm3ZkzKisj4P45',#6,$,$,(#95),#394);
#396=IFCPROPERTYSINGLEVALUE('InternalTaskId',$,IFCTEXT('task-mula803eelp31135'),$);
#397=IFCPROPERTYSET('2wd2mrH55MqbxoOR_EtwBH',#6,'OPS_TaskIdentity',$,(#396));
#398=IFCRELDEFINESBYPROPERTIES('1eG6xF1O9P$wCiTiY58g8O',#6,$,$,(#97),#397);
#399=IFCPROPERTYSINGLEVALUE('InternalTaskId',$,IFCTEXT('task-mula803hiqon1136'),$);
#400=IFCPROPERTYSET('0N_YyCKov9Va$zEFLQfUEr',#6,'OPS_TaskIdentity',$,(#399));
#401=IFCRELDEFINESBYPROPERTIES('0rUv0E7B9TzXxz9zW09mLM',#6,$,$,(#99),#400);
#402=IFCPROPERTYSINGLEVALUE('InternalTaskId',$,IFCTEXT('task-mula803jwni01137'),$);
#403=IFCPROPERTYSET('1dTc0DbhLBN0cpt7_ZfVBP',#6,'OPS_TaskIdentity',$,(#402));
#404=IFCRELDEFINESBYPROPERTIES('3D7YK$xQhrYtChUU$OxrcH',#6,$,$,(#101),#403);
#405=IFCPROPERTYSINGLEVALUE('InternalTaskId',$,IFCTEXT('task-mula803kyr7m1138'),$);
#406=IFCPROPERTYSET('2UlYkArPQvDULDZwLtgzKN',#6,'OPS_TaskIdentity',$,(#405));
#407=IFCRELDEFINESBYPROPERTIES('0l1QVhqSCdX8KgUWaVsT$m',#6,$,$,(#103),#406);
#408=IFCPROPERTYSINGLEVALUE('InternalTaskId',$,IFCTEXT('task-mula803nknr81139'),$);
#409=IFCPROPERTYSET('1s0JmmvjOLWfdmGsdaBCj7',#6,'OPS_TaskIdentity',$,(#408));
#410=IFCRELDEFINESBYPROPERTIES('27opYc_0bTYuGT2ML7rDGq',#6,$,$,(#105),#409);
#411=IFCPROPERTYSINGLEVALUE('InternalTaskId',$,IFCTEXT('task-mula803pw1291140'),$);
#412=IFCPROPERTYSET('1HdR4WDD5KgiL$wKe4kfGp',#6,'OPS_TaskIdentity',$,(#411));
#413=IFCRELDEFINESBYPROPERTIES('0rtvQlnWylDjXkFbWnZirc',#6,$,$,(#107),#412);
#414=IFCPROPERTYSINGLEVALUE('InternalTaskId',$,IFCTEXT('task-mula803r7uhh1141'),$);
#415=IFCPROPERTYSET('2nwtWlXVdYAJinkC_DaZpo',#6,'OPS_TaskIdentity',$,(#414));
#416=IFCRELDEFINESBYPROPERTIES('3hTxt5Sz$hCUGG5mqtrczf',#6,$,$,(#109),#415);
#417=IFCPROPERTYSINGLEVALUE('InternalTaskId',$,IFCTEXT('task-mula803u0lys1142'),$);
#418=IFCPROPERTYSET('1P8vl9ObDQv7Npjozc6I8w',#6,'OPS_TaskIdentity',$,(#417));
#419=IFCRELDEFINESBYPROPERTIES('2bkEnHmDfUpP_LAUzqRPmQ',#6,$,$,(#111),#418);
#420=IFCPROPERTYSINGLEVALUE('InternalTaskId',$,IFCTEXT('task-mula803wv0vx1143'),$);
#421=IFCPROPERTYSET('25eag47dSMEteuRABQKFyI',#6,'OPS_TaskIdentity',$,(#420));
#422=IFCRELDEFINESBYPROPERTIES('26DHjjk33Rdgre8M3wntFX',#6,$,$,(#113),#421);
#423=IFCPROPERTYSINGLEVALUE('InternalTaskId',$,IFCTEXT('task-mula803ynyaa1144'),$);
#424=IFCPROPERTYSET('1KnvBsfVB8xyL2kUP2zE2$',#6,'OPS_TaskIdentity',$,(#423));
#425=IFCRELDEFINESBYPROPERTIES('2AUE9$FoxIMnOtQv0rOQ5z',#6,$,$,(#115),#424);
#426=IFCPROPERTYSINGLEVALUE('InternalTaskId',$,IFCTEXT('task-mula8040qedn1145'),$);
#427=IFCPROPERTYSET('17GZiChDLZlf6xtivtKrLX',#6,'OPS_TaskIdentity',$,(#426));
#428=IFCRELDEFINESBYPROPERTIES('0Jc6SBgCgF2Bt4XIjiWx3G',#6,$,$,(#117),#427);
#429=IFCPROPERTYSINGLEVALUE('InternalTaskId',$,IFCTEXT('task-mula8042z8ab1146'),$);
#430=IFCPROPERTYSET('0fp8RSeo79Ld$TqLUAHGWa',#6,'OPS_TaskIdentity',$,(#429));
#431=IFCRELDEFINESBYPROPERTIES('38JYhT4xcolbGEqMxdt9uD',#6,$,$,(#119),#430);
#432=IFCPROPERTYSINGLEVALUE('InternalTaskId',$,IFCTEXT('task-mula80447rnh1147'),$);
#433=IFCPROPERTYSET('2_2v73ckyG$6SYHGkH8xvl',#6,'OPS_TaskIdentity',$,(#432));
#434=IFCRELDEFINESBYPROPERTIES('1TIGCEbJHZmDw$Tj8uuZps',#6,$,$,(#121),#433);
#435=IFCPROPERTYSINGLEVALUE('InternalTaskId',$,IFCTEXT('task-mula8045pd851148'),$);
#436=IFCPROPERTYSET('1ULyl7ZrLeEb6Vw6vRxNrC',#6,'OPS_TaskIdentity',$,(#435));
#437=IFCRELDEFINESBYPROPERTIES('2rklK5WAmj1ntMROT_eDoI',#6,$,$,(#123),#436);
#438=IFCPROPERTYSINGLEVALUE('InternalTaskId',$,IFCTEXT('task-mula8047c8ei1149'),$);
#439=IFCPROPERTYSET('2Z63x3yO3jlg7u$IDMQI$$',#6,'OPS_TaskIdentity',$,(#438));
#440=IFCRELDEFINESBYPROPERTIES('2LQW3l1Cz_PPyiNI$_wssP',#6,$,$,(#125),#439);
#441=IFCPROPERTYSINGLEVALUE('InternalTaskId',$,IFCTEXT('task-mula80493x781150'),$);
#442=IFCPROPERTYSET('3e7R3Yj8MUSu1yBJLTQlcg',#6,'OPS_TaskIdentity',$,(#441));
#443=IFCRELDEFINESBYPROPERTIES('20cbLBZWhSZzSrAscwZrYa',#6,$,$,(#127),#442);
#444=IFCPROPERTYSINGLEVALUE('InternalTaskId',$,IFCTEXT('task-mula804b2vr91151'),$);
#445=IFCPROPERTYSET('0dj7yhR7ThfAUpPO4DlEIm',#6,'OPS_TaskIdentity',$,(#444));
#446=IFCRELDEFINESBYPROPERTIES('02tNEKIj_vNV51vwryzGpV',#6,$,$,(#129),#445);
#447=IFCPROPERTYSINGLEVALUE('InternalTaskId',$,IFCTEXT('task-mula804d4zsz1152'),$);
#448=IFCPROPERTYSET('0h0hqtpnSTLfIP_Z0GjyD1',#6,'OPS_TaskIdentity',$,(#447));
#449=IFCRELDEFINESBYPROPERTIES('2oKkMjjkDxhEek78CqQs6K',#6,$,$,(#131),#448);
#450=IFCPROPERTYSINGLEVALUE('InternalTaskId',$,IFCTEXT('task-mula804gjavi1153'),$);
#451=IFCPROPERTYSET('1bpaGmWCPpmfAfAmkGaQ3q',#6,'OPS_TaskIdentity',$,(#450));
#452=IFCRELDEFINESBYPROPERTIES('19ChqlW$9U3jK5AB9wfDia',#6,$,$,(#133),#451);
#453=IFCPROPERTYSINGLEVALUE('InternalTaskId',$,IFCTEXT('task-mula804ii7tk1154'),$);
#454=IFCPROPERTYSET('1THhRJsEBA7vVWlO9X1m2H',#6,'OPS_TaskIdentity',$,(#453));
#455=IFCRELDEFINESBYPROPERTIES('3PwsAnJpJK6ZGDjNS19gnn',#6,$,$,(#135),#454);
#456=IFCPROPERTYSINGLEVALUE('InternalTaskId',$,IFCTEXT('task-mula804k7riy1155'),$);
#457=IFCPROPERTYSET('0gG3S_wX2YLrI5OUcs8cA3',#6,'OPS_TaskIdentity',$,(#456));
#458=IFCRELDEFINESBYPROPERTIES('044bURwUVejuTbr$jFHFC4',#6,$,$,(#137),#457);
#459=IFCPROPERTYSINGLEVALUE('InternalTaskId',$,IFCTEXT('task-mula804no0r21156'),$);
#460=IFCPROPERTYSET('2MM1c1rprBJJusVkpvxblH',#6,'OPS_TaskIdentity',$,(#459));
#461=IFCRELDEFINESBYPROPERTIES('2kLsIirFPgoUQ8I4$_JLHS',#6,$,$,(#139),#460);
#462=IFCPROPERTYSINGLEVALUE('InternalTaskId',$,IFCTEXT('task-mula804pr5cm1157'),$);
#463=IFCPROPERTYSET('0MeX_hx3bOBAsceZWjGdwI',#6,'OPS_TaskIdentity',$,(#462));
#464=IFCRELDEFINESBYPROPERTIES('2fUebQvz3EWZheYwR4IJUI',#6,$,$,(#141),#463);
#465=IFCPROPERTYSINGLEVALUE('InternalTaskId',$,IFCTEXT('task-mula804rq0wx1158'),$);
#466=IFCPROPERTYSET('1SPgeHMOrdoU5yBBm6nVtx',#6,'OPS_TaskIdentity',$,(#465));
#467=IFCRELDEFINESBYPROPERTIES('3LawjIgYyBwfTFa6uLpsLI',#6,$,$,(#143),#466);
#468=IFCPROPERTYSINGLEVALUE('MilestoneKind',$,IFCLABEL('START'),$);
#469=IFCPROPERTYSET('3EQnJDO3TJwxzF6A0TGGQJ',#6,'OPS_Milestone',$,(#468));
#470=IFCRELDEFINESBYPROPERTIES('1l3zMDMXaYtyK1A12jbe_n',#6,$,$,(#53),#469);
#471=IFCPROPERTYSINGLEVALUE('MilestoneKind',$,IFCLABEL('FINISH'),$);
#472=IFCPROPERTYSET('0kSraVQTafzPXTaxgbk4AB',#6,'OPS_Milestone',$,(#471));
#473=IFCRELDEFINESBYPROPERTIES('2CPDmhR9TO7WxBS37Iw168',#6,$,$,(#91),#472);
#474=IFCPROPERTYSINGLEVALUE('MilestoneKind',$,IFCLABEL('FINISH'),$);
#475=IFCPROPERTYSET('10esRgQ2EZGZHTTlCjQCIC',#6,'OPS_Milestone',$,(#474));
#476=IFCRELDEFINESBYPROPERTIES('3SRziwEgUHj$ZQYVN0vR0s',#6,$,$,(#103),#475);
#477=IFCPROPERTYSINGLEVALUE('MilestoneKind',$,IFCLABEL('FINISH'),$);
#478=IFCPROPERTYSINGLEVALUE('Mandatory',$,IFCBOOLEAN(.T.),$);
#479=IFCPROPERTYSET('2Acb6hslmGiA1KTmVcxzk4',#6,'OPS_Milestone',$,(#477,#478));
#480=IFCRELDEFINESBYPROPERTIES('3Y_kJu06egRr5$l9DzPZ4H',#6,$,$,(#143),#479);
ENDSEC;
END-ISO-10303-21;
