ISO-10303-21;
HEADER;
FILE_DESCRIPTION(('ViewDefinition [SchedulingView]'),'2;1');
FILE_NAME('Renovation of De Regenboog Primary School.ifc','2026-09-28T13:27:19',('Petra Jansen'),('SchoolBuild Netherlands'),'Open Planner Studio 0.1','Open Planner Studio','');
FILE_SCHEMA(('IFC4X3'));
ENDSEC;
DATA;
#1=IFCPERSON($,'Petra Jansen',$,$,$,$,$,$);
#2=IFCORGANIZATION($,'SchoolBuild Netherlands',$,$,$);
#3=IFCPERSONANDORGANIZATION(#1,#2,$);
#4=IFCORGANIZATION($,'OpenAEC Foundation',$,$,$);
#5=IFCAPPLICATION(#4,'0.2','Open Planner Studio','OPS');
#6=IFCOWNERHISTORY(#3,#5,$,.NOCHANGE.,$,$,$,1790602039);
#7=IFCSIUNIT(*,.LENGTHUNIT.,$,.METRE.);
#8=IFCSIUNIT(*,.TIMEUNIT.,$,.SECOND.);
#9=IFCUNITASSIGNMENT((#7,#8));
#10=IFCCARTESIANPOINT((0.,0.,0.));
#11=IFCAXIS2PLACEMENT3D(#10,$,$);
#12=IFCGEOMETRICREPRESENTATIONCONTEXT($,'Plan',3,1.0E-05,#11,$);
#13=IFCPROJECT('17g_9Udlksb$nJfVtY1lNG',#6,'Renovation of De Regenboog Primary School','Energy-efficiency renovation and extension of a primary school',$,$,$,(#12),#9);
#14=IFCTIMEPERIOD('07:00:00','16:00:00');
#15=IFCRECURRENCEPATTERN(.WEEKLY.,$,(1,2,3,4,5),$,$,$,$,(#14));
#16=IFCWORKTIME('Standard work week',.PREDICTED.,$,#15,$,$);
#17=IFCWORKTIME('New Year''s Day',.PREDICTED.,$,$,'2027-01-01','2027-01-01');
#18=IFCWORKTIME('Good Friday',.PREDICTED.,$,$,'2027-03-26','2027-03-26');
#19=IFCWORKTIME('Easter',.PREDICTED.,$,$,'2027-03-28','2027-03-29');
#20=IFCWORKTIME('King''s Day',.PREDICTED.,$,$,'2027-04-27','2027-04-27');
#21=IFCWORKTIME('Liberation Day',.PREDICTED.,$,$,'2027-05-05','2027-05-05');
#22=IFCWORKTIME('Ascension Day',.PREDICTED.,$,$,'2027-05-06','2027-05-06');
#23=IFCWORKTIME('Whitsun',.PREDICTED.,$,$,'2027-05-16','2027-05-17');
#24=IFCWORKTIME('Christmas',.PREDICTED.,$,$,'2027-12-25','2027-12-26');
#25=IFCWORKTIME('Construction holiday (northern region)',.PREDICTED.,$,$,'2027-07-26','2027-08-15');
#26=IFCWORKTIME('New Year''s Day',.PREDICTED.,$,$,'2028-01-01','2028-01-01');
#27=IFCWORKTIME('Good Friday',.PREDICTED.,$,$,'2028-04-14','2028-04-14');
#28=IFCWORKTIME('Easter',.PREDICTED.,$,$,'2028-04-16','2028-04-17');
#29=IFCWORKTIME('King''s Day',.PREDICTED.,$,$,'2028-04-27','2028-04-27');
#30=IFCWORKTIME('Liberation Day',.PREDICTED.,$,$,'2028-05-05','2028-05-05');
#31=IFCWORKTIME('Ascension Day',.PREDICTED.,$,$,'2028-05-25','2028-05-25');
#32=IFCWORKTIME('Whitsun',.PREDICTED.,$,$,'2028-06-04','2028-06-05');
#33=IFCWORKTIME('Christmas',.PREDICTED.,$,$,'2028-12-25','2028-12-26');
#34=IFCWORKTIME('Construction holiday (northern region)',.PREDICTED.,$,$,'2028-07-24','2028-08-13');
#35=IFCWORKCALENDAR('0_chmb5LKs4nX_zRul1fQ0',#6,'Construction calendar NL','Standard construction calendar: Mon-Fri 07:00-16:00',$,(#16),(#17,#18,#19,#20,#21,#22,#23,#24,#25,#26,#27,#28,#29,#30,#31,#32,#33,#34),.FIRSTSHIFT.);
#36=IFCPROPERTYSINGLEVALUE('HoursPerDay',$,IFCREAL(8),$);
#37=IFCPROPERTYSET('2JkI1loJ1CuzgAKDyR_8m7',#6,'OPS_Calendar',$,(#36));
#38=IFCRELDEFINESBYPROPERTIES('1OVP7fQWKeQaBpuAEN6yQ9',#6,$,$,(#35),#37);
#39=IFCWORKPLAN('2n7RkztOT2pTDJ96P8TzgN',#6,'Renovation of De Regenboog Primary School','Energy-efficiency renovation and extension of a primary school',$,$,'2026-09-28T13:27:19',$,$,$,$,$,'2027-03-01T07:00:00','2027-03-12T07:00:00',.PLANNED.);
#40=IFCWORKSCHEDULE('2KJuJIXulqQGdlCgoOqT3p',#6,'Construction schedule v1.0',$,$,$,'2026-09-28T13:27:19',$,$,$,$,$,'2027-03-01T07:00:00','2027-03-12T07:00:00',.PLANNED.);
#41=IFCRELAGGREGATES('0xa4j3Q9U5EBg87pFwHhMD',#6,$,$,#39,(#40));
#42=IFCTASKTIME('1. Preparation Time',.PREDICTED.,$,.WORKTIME.,'P0Y0M12D','2027-03-01T07:00:00','2027-03-05T07:00:00','2027-03-01T07:00:00','2027-03-16T07:00:00','2027-03-01T07:00:00','2027-09-06T07:00:00','P0Y0M0D','P0Y0M0D',.T.,$,$,$,$,$,0.00);
#43=IFCTASK('3pQxQoqPqpdzX0O2cTk4rT',#6,'1. Preparation',$,$,'1',$,$,$,.F.,$,#42,.CONSTRUCTION.);
#44=IFCTASKTIME('Asbestos survey Time',.PREDICTED.,$,.WORKTIME.,'P0Y0M3D','2027-03-01T07:00:00','2027-03-03T07:00:00','2027-03-01T07:00:00','2027-03-03T07:00:00','2027-03-01T07:00:00','2027-03-03T07:00:00','P0Y0M0D','P0Y0M0D',.T.,$,$,$,$,$,0.00);
#45=IFCTASK('0o1knkuqLc4ignNMGnSAs4',#6,'Asbestos survey',$,$,'1.1',$,$,$,.F.,$,#44,.CONSTRUCTION.);
#46=IFCTASKTIME('Set up temporary accommodation Time',.PREDICTED.,$,.WORKTIME.,'P0Y0M5D','2027-03-01T07:00:00','2027-03-05T07:00:00','2027-03-04T07:00:00','2027-03-10T07:00:00','2027-08-25T07:00:00','2027-08-31T07:00:00','P0Y0M0D','P0Y0M103D',.F.,$,$,$,$,$,0.00);
#47=IFCTASK('0hj95HyVzwWg9Cfkr3ybWB',#6,'Set up temporary accommodation',$,$,'1.2',$,$,$,.F.,$,#46,.LOGISTIC.);
#48=IFCTASKTIME('Set up site Time',.PREDICTED.,$,.WORKTIME.,'P0Y0M3D','2027-03-01T07:00:00','2027-03-03T07:00:00','2027-03-11T07:00:00','2027-03-15T07:00:00','2027-09-01T07:00:00','2027-09-03T07:00:00','P0Y0M0D','P0Y0M103D',.F.,$,$,$,$,$,0.00);
#49=IFCTASK('2vnIfCP9tPgJ1Sc3pAs47k',#6,'Set up site',$,$,'1.3',$,$,$,.F.,$,#48,.LOGISTIC.);
#50=IFCTASKTIME('Start of renovation Time',.PREDICTED.,$,.WORKTIME.,'P0Y0M0D','2027-03-01T07:00:00','2027-03-01T07:00:00','2027-03-16T07:00:00','2027-03-16T07:00:00','2027-09-06T07:00:00','2027-09-06T07:00:00','P0Y0M103D','P0Y0M103D',.F.,$,$,$,$,$,0.00);
#51=IFCTASK('38eqgXT_JKAhcqrwpnGt5r',#6,'Start of renovation',$,$,'1.4',$,$,$,.T.,$,#50,.CONSTRUCTION.);
#52=IFCTASKTIME('2. Demolition & strip-out Time',.PREDICTED.,$,.WORKTIME.,'P0Y0M26D','2027-03-01T07:00:00','2027-03-05T07:00:00','2027-03-09T07:00:00','2027-04-15T07:00:00','2027-03-09T07:00:00','2027-09-06T07:00:00','P0Y0M0D','P0Y0M0D',.T.,$,$,$,$,$,0.00);
#53=IFCTASK('0$2RZY_UmMyF7FIi7xPEJw',#6,'2. Demolition & strip-out',$,$,'2',$,$,$,.F.,$,#52,.DEMOLITION.);
#54=IFCTASKTIME('Asbestos removal Time',.PREDICTED.,$,.WORKTIME.,'P0Y0M5D','2027-03-01T07:00:00','2027-03-05T07:00:00','2027-03-09T07:00:00','2027-03-15T07:00:00','2027-03-09T07:00:00','2027-03-15T07:00:00','P0Y0M0D','P0Y0M0D',.T.,$,$,$,$,$,0.00);
#55=IFCTASK('1$7q4WQypy3lsriyy3CoS2',#6,'Asbestos removal',$,$,'2.1',$,$,$,.F.,$,#54,.DEMOLITION.);
#56=IFCTASKTIME('Strip out interior Time',.PREDICTED.,$,.WORKTIME.,'P0Y0M8D','2027-03-01T07:00:00','2027-03-10T07:00:00','2027-03-16T07:00:00','2027-03-25T07:00:00','2027-07-19T07:00:00','2027-08-18T07:00:00','P0Y0M0D','P0Y0M83D',.F.,$,$,$,$,$,0.00);
#57=IFCTASK('0kTyjOzw0fRXD9Fr9TYlzs',#6,'Strip out interior',$,$,'2.2',$,$,$,.F.,$,#56,.DEMOLITION.);
#58=IFCTASKTIME('Demolish internal walls Time',.PREDICTED.,$,.WORKTIME.,'P0Y0M5D','2027-03-01T07:00:00','2027-03-05T07:00:00','2027-03-30T07:00:00','2027-04-05T07:00:00','2027-08-19T07:00:00','2027-08-25T07:00:00','P0Y0M0D','P0Y0M83D',.F.,$,$,$,$,$,0.00);
#59=IFCTASK('2zvjkyIVfTGW1IF_3IgkI3',#6,'Demolish internal walls',$,$,'2.3',$,$,$,.F.,$,#58,.DEMOLITION.);
#60=IFCTASKTIME('Remove roofing Time',.PREDICTED.,$,.WORKTIME.,'P0Y0M5D','2027-03-01T07:00:00','2027-03-05T07:00:00','2027-04-06T07:00:00','2027-04-12T07:00:00','2027-08-26T07:00:00','2027-09-01T07:00:00','P0Y0M0D','P0Y0M83D',.F.,$,$,$,$,$,0.00);
#61=IFCTASK('3xG0mw4WbDAjLwR5t6IOB5',#6,'Remove roofing',$,$,'2.4',$,$,$,.F.,$,#60,.DEMOLITION.);
#62=IFCTASKTIME('Remove window frames Time',.PREDICTED.,$,.WORKTIME.,'P0Y0M3D','2027-03-01T07:00:00','2027-03-03T07:00:00','2027-04-13T07:00:00','2027-04-15T07:00:00','2027-09-02T07:00:00','2027-09-06T07:00:00','P0Y0M83D','P0Y0M83D',.F.,$,$,$,$,$,0.00);
#63=IFCTASK('2gK5U749C_iqeR5kp0LjAD',#6,'Remove window frames',$,$,'2.5',$,$,$,.F.,$,#62,.DEMOLITION.);
#64=IFCTASKTIME('3. Structural works Time',.PREDICTED.,$,.WORKTIME.,'P0Y0M33D','2027-03-01T07:00:00','2027-03-05T07:00:00','2027-03-11T07:00:00','2027-04-29T07:00:00','2027-03-11T07:00:00','2027-04-29T07:00:00','P0Y0M0D','P0Y0M0D',.T.,$,$,$,$,$,0.00);
#65=IFCTASK('0HP7deEfcHJLdPN$MY2y5P',#6,'3. Structural works',$,$,'3',$,$,$,.F.,$,#64,.CONSTRUCTION.);
#66=IFCTASKTIME('Foundation repair Time',.PREDICTED.,$,.WORKTIME.,'P0Y0M5D','2027-03-01T07:00:00','2027-03-05T07:00:00','2027-03-11T07:00:00','2027-03-17T07:00:00','2027-03-11T07:00:00','2027-03-17T07:00:00','P0Y0M0D','P0Y0M0D',.T.,$,$,$,$,$,0.00);
#67=IFCTASK('3ZT1woHx4G0VXohKaG0Ksc',#6,'Foundation repair',$,$,'3.1',$,$,$,.F.,$,#66,.CONSTRUCTION.);
#68=IFCTASKTIME('Structural steel strengthening Time',.PREDICTED.,$,.WORKTIME.,'P0Y0M8D','2027-03-01T07:00:00','2027-03-10T07:00:00','2027-03-18T07:00:00','2027-03-31T07:00:00','2027-03-18T07:00:00','2027-03-31T07:00:00','P0Y0M0D','P0Y0M0D',.T.,$,$,$,$,$,0.00);
#69=IFCTASK('3Q1U6ZdkxMPuyAUb8N_Nk1',#6,'Structural steel strengthening',$,$,'3.2',$,$,$,.F.,$,#68,.CONSTRUCTION.);
#70=IFCTASKTIME('New roof structure Time',.PREDICTED.,$,.WORKTIME.,'P0Y0M10D','2027-03-01T07:00:00','2027-03-12T07:00:00','2027-04-01T07:00:00','2027-04-14T07:00:00','2027-04-01T07:00:00','2027-04-14T07:00:00','P0Y0M0D','P0Y0M0D',.T.,$,$,$,$,$,0.00);
#71=IFCTASK('3fzZ3AWtT6Y7_uJG_NwCz7',#6,'New roof structure',$,$,'3.3',$,$,$,.F.,$,#70,.CONSTRUCTION.);
#72=IFCTASKTIME('Extension masonry Time',.PREDICTED.,$,.WORKTIME.,'P0Y0M10D','2027-03-01T07:00:00','2027-03-12T07:00:00','2027-04-15T07:00:00','2027-04-29T07:00:00','2027-04-15T07:00:00','2027-04-29T07:00:00','P0Y0M0D','P0Y0M0D',.T.,$,$,$,$,$,0.00);
#73=IFCTASK('2QR5HnY3Einng3p1QWt$2P',#6,'Extension masonry',$,$,'3.4',$,$,$,.F.,$,#72,.CONSTRUCTION.);
#74=IFCTASKTIME('4. Facade & roof Time',.PREDICTED.,$,.WORKTIME.,'P0Y0M26D','2027-03-01T07:00:00','2027-03-05T07:00:00','2027-04-20T07:00:00','2027-05-31T07:00:00','2027-04-20T07:00:00','2027-09-06T07:00:00','P0Y0M0D','P0Y0M0D',.T.,$,$,$,$,$,0.00);
#75=IFCTASK('3INyjLNhPowDFzZ15NBvCO',#6,'4. Facade & roof',$,$,'4',$,$,$,.F.,$,#74,.CONSTRUCTION.);
#76=IFCTASKTIME('External facade insulation Time',.PREDICTED.,$,.WORKTIME.,'P0Y0M10D','2027-03-01T07:00:00','2027-03-12T07:00:00','2027-04-20T07:00:00','2027-05-04T07:00:00','2027-04-20T07:00:00','2027-05-04T07:00:00','P0Y0M0D','P0Y0M0D',.T.,$,$,$,$,$,0.00);
#77=IFCTASK('3DxEDl3uPBBbSDYWotvQw9',#6,'External facade insulation',$,$,'4.1',$,$,$,.F.,$,#76,.INSTALLATION.);
#78=IFCTASKTIME('New HR++ window frames Time',.PREDICTED.,$,.WORKTIME.,'P0Y0M8D','2027-03-01T07:00:00','2027-03-10T07:00:00','2027-05-07T07:00:00','2027-05-19T07:00:00','2027-05-07T07:00:00','2027-05-19T07:00:00','P0Y0M0D','P0Y0M0D',.T.,$,$,$,$,$,0.00);
#79=IFCTASK('1CDKpzHMLdNitH4c4zTpKt',#6,'New HR++ window frames',$,$,'4.2',$,$,$,.F.,$,#78,.INSTALLATION.);
#80=IFCTASKTIME('Roof insulation and roofing Time',.PREDICTED.,$,.WORKTIME.,'P0Y0M8D','2027-03-01T07:00:00','2027-03-10T07:00:00','2027-05-20T07:00:00','2027-05-31T07:00:00','2027-05-20T07:00:00','2027-05-31T07:00:00','P0Y0M0D','P0Y0M0D',.T.,$,$,$,$,$,0.00);
#81=IFCTASK('3reAXldEEvBy0OglYJspjm',#6,'Roof insulation and roofing',$,$,'4.3',$,$,$,.F.,$,#80,.CONSTRUCTION.);
#82=IFCTASKTIME('Wind and weathertight Time',.PREDICTED.,$,.WORKTIME.,'P0Y0M0D','2027-03-01T07:00:00','2027-03-01T07:00:00','2027-05-31T07:00:00','2027-05-31T07:00:00','2027-09-06T07:00:00','2027-09-06T07:00:00','P0Y0M55D','P0Y0M55D',.F.,$,$,$,$,$,0.00);
#83=IFCTASK('0mndReotjUaGEUy8A_$BOt',#6,'Wind and weathertight',$,$,'4.4',$,$,$,.T.,$,#82,.CONSTRUCTION.);
#84=IFCTASKTIME('5. Building services Time',.PREDICTED.,$,.WORKTIME.,'P0Y0M28D','2027-03-01T07:00:00','2027-03-05T07:00:00','2027-06-01T07:00:00','2027-07-08T07:00:00','2027-06-01T07:00:00','2027-09-06T07:00:00','P0Y0M0D','P0Y0M0D',.T.,$,$,$,$,$,0.00);
#85=IFCTASK('2qsTisxKIEbLRXXhriWDZI',#6,'5. Building services',$,$,'5',$,$,$,.F.,$,#84,.INSTALLATION.);
#86=IFCTASKTIME('Renew electrical installation Time',.PREDICTED.,$,.WORKTIME.,'P0Y0M8D','2027-03-01T07:00:00','2027-03-10T07:00:00','2027-06-01T07:00:00','2027-06-10T07:00:00','2027-06-01T07:00:00','2027-06-10T07:00:00','P0Y0M0D','P0Y0M0D',.T.,$,$,$,$,$,0.00);
#87=IFCTASK('0hRIn9XBCcN$q25xn1Tt5F',#6,'Renew electrical installation',$,$,'5.1',$,$,$,.F.,$,#86,.INSTALLATION.);
#88=IFCTASKTIME('Install heat pump Time',.PREDICTED.,$,.WORKTIME.,'P0Y0M5D','2027-03-01T07:00:00','2027-03-05T07:00:00','2027-06-11T07:00:00','2027-06-17T07:00:00','2027-07-20T07:00:00','2027-08-16T07:00:00','P0Y0M0D','P0Y0M27D',.F.,$,$,$,$,$,0.00);
#89=IFCTASK('0gOpLpYVU00Pzj3GS0l2qO',#6,'Install heat pump',$,$,'5.2',$,$,$,.F.,$,#88,.INSTALLATION.);
#90=IFCTASKTIME('Underfloor heating Time',.PREDICTED.,$,.WORKTIME.,'P0Y0M8D','2027-03-01T07:00:00','2027-03-10T07:00:00','2027-06-15T07:00:00','2027-06-24T07:00:00','2027-07-22T07:00:00','2027-08-23T07:00:00','P0Y0M0D','P0Y0M27D',.F.,$,$,$,$,$,0.00);
#91=IFCTASK('3mWdy2Z1TTXx4mt$p_DyU_',#6,'Underfloor heating',$,$,'5.3',$,$,$,.F.,$,#90,.INSTALLATION.);
#92=IFCTASKTIME('Heat recovery ventilation Time',.PREDICTED.,$,.WORKTIME.,'P0Y0M5D','2027-03-01T07:00:00','2027-03-05T07:00:00','2027-06-25T07:00:00','2027-07-01T07:00:00','2027-08-24T07:00:00','2027-08-30T07:00:00','P0Y0M0D','P0Y0M27D',.F.,$,$,$,$,$,0.00);
#93=IFCTASK('2o1p_D5q685nkj97vh_dGL',#6,'Heat recovery ventilation',$,$,'5.4',$,$,$,.F.,$,#92,.INSTALLATION.);
#94=IFCTASKTIME('Solar panels Time',.PREDICTED.,$,.WORKTIME.,'P0Y0M5D','2027-03-01T07:00:00','2027-03-05T07:00:00','2027-07-02T07:00:00','2027-07-08T07:00:00','2027-08-31T07:00:00','2027-09-06T07:00:00','P0Y0M27D','P0Y0M27D',.F.,$,$,$,$,$,0.00);
#95=IFCTASK('3iNZ3gD0sFAE9hD741vcZt',#6,'Solar panels',$,$,'5.5',$,$,$,.F.,$,#94,.INSTALLATION.);
#96=IFCTASKTIME('6. Fit-out Time',.PREDICTED.,$,.WORKTIME.,'P0Y0M29D','2027-03-01T07:00:00','2027-03-05T07:00:00','2027-06-23T07:00:00','2027-08-23T07:00:00','2027-06-23T07:00:00','2027-08-23T07:00:00','P0Y0M0D','P0Y0M0D',.T.,$,$,$,$,$,0.00);
#97=IFCTASK('0eFOGaxBSgxcY3VIz1VkOo',#6,'6. Fit-out',$,$,'6',$,$,$,.F.,$,#96,.CONSTRUCTION.);
#98=IFCTASKTIME('Install internal walls Time',.PREDICTED.,$,.WORKTIME.,'P0Y0M8D','2027-03-01T07:00:00','2027-03-10T07:00:00','2027-06-23T07:00:00','2027-07-02T07:00:00','2027-06-23T07:00:00','2027-07-02T07:00:00','P0Y0M0D','P0Y0M0D',.T.,$,$,$,$,$,0.00);
#99=IFCTASK('2UI3FAkZClEa2w5kuhpGeh',#6,'Install internal walls',$,$,'6.1',$,$,$,.F.,$,#98,.CONSTRUCTION.);
#100=IFCTASKTIME('Ceilings Time',.PREDICTED.,$,.WORKTIME.,'P0Y0M5D','2027-03-01T07:00:00','2027-03-05T07:00:00','2027-07-05T07:00:00','2027-07-09T07:00:00','2027-07-05T07:00:00','2027-07-09T07:00:00','P0Y0M0D','P0Y0M0D',.T.,$,$,$,$,$,0.00);
#101=IFCTASK('0R$VnvjYvVkOYngyZOgH3r',#6,'Ceilings',$,$,'6.2',$,$,$,.F.,$,#100,.CONSTRUCTION.);
#102=IFCTASKTIME('Floor finishes Time',.PREDICTED.,$,.WORKTIME.,'P0Y0M5D','2027-03-01T07:00:00','2027-03-05T07:00:00','2027-07-12T07:00:00','2027-07-16T07:00:00','2027-07-12T07:00:00','2027-07-16T07:00:00','P0Y0M0D','P0Y0M0D',.T.,$,$,$,$,$,0.00);
#103=IFCTASK('1CD62dTn$ddhE9VpPijNl6',#6,'Floor finishes',$,$,'6.3',$,$,$,.F.,$,#102,.CONSTRUCTION.);
#104=IFCTASKTIME('Painting Time',.PREDICTED.,$,.WORKTIME.,'P0Y0M8D','2027-03-01T07:00:00','2027-03-10T07:00:00','2027-07-19T07:00:00','2027-08-18T07:00:00','2027-07-19T07:00:00','2027-08-18T07:00:00','P0Y0M0D','P0Y0M0D',.T.,$,$,$,$,$,0.00);
#105=IFCTASK('2XjLAbijX9oAbezuNksAZb',#6,'Painting',$,$,'6.4',$,$,$,.F.,$,#104,.CONSTRUCTION.);
#106=IFCTASKTIME('Sanitary fittings Time',.PREDICTED.,$,.WORKTIME.,'P0Y0M3D','2027-03-01T07:00:00','2027-03-03T07:00:00','2027-08-19T07:00:00','2027-08-23T07:00:00','2027-08-19T07:00:00','2027-08-23T07:00:00','P0Y0M0D','P0Y0M0D',.T.,$,$,$,$,$,0.00);
#107=IFCTASK('0O_PHPUeMk$1U5latARlxV',#6,'Sanitary fittings',$,$,'6.5',$,$,$,.F.,$,#106,.INSTALLATION.);
#108=IFCTASKTIME('7. Handover Time',.PREDICTED.,$,.WORKTIME.,'P0Y0M10D','2027-03-01T07:00:00','2027-03-05T07:00:00','2027-08-24T07:00:00','2027-09-06T07:00:00','2027-08-24T07:00:00','2027-09-06T07:00:00','P0Y0M0D','P0Y0M0D',.T.,$,$,$,$,$,0.00);
#109=IFCTASK('2pp6ArHWMbKRXNHc0Km1ss',#6,'7. Handover',$,$,'7',$,$,$,.F.,$,#108,.CONSTRUCTION.);
#110=IFCTASKTIME('Classroom furnishing Time',.PREDICTED.,$,.WORKTIME.,'P0Y0M5D','2027-03-01T07:00:00','2027-03-05T07:00:00','2027-08-24T07:00:00','2027-08-30T07:00:00','2027-08-24T07:00:00','2027-08-30T07:00:00','P0Y0M0D','P0Y0M0D',.T.,$,$,$,$,$,0.00);
#111=IFCTASK('32gwP$hLO7SkrFdFxLFaiR',#6,'Classroom furnishing',$,$,'7.1',$,$,$,.F.,$,#110,.LOGISTIC.);
#112=IFCTASKTIME('External areas Time',.PREDICTED.,$,.WORKTIME.,'P0Y0M5D','2027-03-01T07:00:00','2027-03-05T07:00:00','2027-08-31T07:00:00','2027-09-06T07:00:00','2027-08-31T07:00:00','2027-09-06T07:00:00','P0Y0M0D','P0Y0M0D',.T.,$,$,$,$,$,0.00);
#113=IFCTASK('11rWixlljoY4KixEWKE8W5',#6,'External areas',$,$,'7.2',$,$,$,.F.,$,#112,.CONSTRUCTION.);
#114=IFCTASKTIME('Handover Time',.PREDICTED.,$,.WORKTIME.,'P0Y0M0D','2027-03-01T07:00:00','2027-03-01T07:00:00','2027-09-06T07:00:00','2027-09-06T07:00:00','2027-09-06T07:00:00','2027-09-06T07:00:00','P0Y0M0D','P0Y0M0D',.T.,$,$,$,$,$,0.00);
#115=IFCTASK('1yJ$oN8x6CrJ2y4h5hmvww',#6,'Handover',$,$,'7.3',$,$,$,.T.,$,#114,.CONSTRUCTION.);
#116=IFCRELNESTS('0aeQ_Nk66TePhaKTktG5On',#6,'WBS 1. Preparation',$,#43,( #45,#47,#49,#51));
#117=IFCRELNESTS('18DulQ_wEsch9Pe7aSu99$',#6,'WBS 2. Demolition & strip-out',$,#53,( #55,#57,#59,#61,#63));
#118=IFCRELNESTS('0dVcrc4IVsBzcgWUubvdTo',#6,'WBS 3. Structural works',$,#65,( #67,#69,#71,#73));
#119=IFCRELNESTS('2EXgbbjmbseoLNuOeuwlBB',#6,'WBS 4. Facade & roof',$,#75,( #77,#79,#81,#83));
#120=IFCRELNESTS('05ErJjH8qj9f0ZIVRtiKeb',#6,'WBS 5. Building services',$,#85,( #87,#89,#91,#93,#95));
#121=IFCRELNESTS('3iNRBiE$mFwNB3shcXK9wP',#6,'WBS 6. Fit-out',$,#97,( #99,#101,#103,#105,#107));
#122=IFCRELNESTS('3HH_KQARgr5skSKlVspAzf',#6,'WBS 7. Handover',$,#109,( #111,#113,#115));
#123=IFCRELNESTS('3qI_gj9p6$0BwfxXHwNNHz',#6,'WBS Hoofd',$,#40,(#43,#53,#65,#75,#85,#97,#109));
#124=IFCRELSEQUENCE('2yN_toh_jYNU2vbPZwTE1D',#6,$,$,#45,#47,$,.FINISH_START.,$);
#125=IFCRELSEQUENCE('22fDHCiYslUUWoQ0NjnwCZ',#6,$,$,#47,#49,$,.FINISH_START.,$);
#126=IFCRELSEQUENCE('1nUN9LOrctFV3PVJ5USWTV',#6,$,$,#49,#51,$,.FINISH_START.,$);
#127=IFCRELSEQUENCE('1lKGFtwiEkNsOV71LJfD6L',#6,$,$,#55,#57,$,.FINISH_START.,$);
#128=IFCRELSEQUENCE('00CQ7u335Dh0SQDsxgPB4I',#6,$,$,#57,#59,$,.FINISH_START.,$);
#129=IFCRELSEQUENCE('1IomjFzflwFFiAe1mxM0XJ',#6,$,$,#59,#61,$,.FINISH_START.,$);
#130=IFCRELSEQUENCE('3bPKuASYI261o6brHZb3e3',#6,$,$,#61,#63,$,.FINISH_START.,$);
#131=IFCRELSEQUENCE('3LytHqdsybv4QX3LlM25yz',#6,$,$,#67,#69,$,.FINISH_START.,$);
#132=IFCRELSEQUENCE('2IOYNYlO07NxTxZohJ66s0',#6,$,$,#69,#71,$,.FINISH_START.,$);
#133=IFCRELSEQUENCE('3Xdbq6JTxl1Y2rPocUELnR',#6,$,$,#71,#73,$,.FINISH_START.,$);
#134=IFCRELSEQUENCE('3RWLecwLC90tiZdT4zTnN2',#6,$,$,#77,#79,$,.FINISH_START.,$);
#135=IFCRELSEQUENCE('2_yLy6YSiE3O1rBvk8xYN3',#6,$,$,#79,#81,$,.FINISH_START.,$);
#136=IFCRELSEQUENCE('2R4r4CfGXd9xiKTtJLXDyl',#6,$,$,#81,#83,$,.FINISH_START.,$);
#137=IFCRELSEQUENCE('0CZSlOK31Goa3S_f1b99LW',#6,$,$,#87,#89,$,.FINISH_START.,$);
#138=IFCLAGTIME('Lag',.PREDICTED.,$,IFCDURATION('P2D'),.WORKTIME.);
#139=IFCRELSEQUENCE('322Qv0eabJgvRupmPlCYL6',#6,$,$,#89,#91,#138,.START_START.,$);
#140=IFCRELSEQUENCE('0zq6ODE7e8nNS64NupKhYJ',#6,$,$,#91,#93,$,.FINISH_START.,$);
#141=IFCRELSEQUENCE('153RCRVIdDqZfFCLp4tqMn',#6,$,$,#93,#95,$,.FINISH_START.,$);
#142=IFCRELSEQUENCE('2_LZv_yoXym_QE94Qn$x1U',#6,$,$,#99,#101,$,.FINISH_START.,$);
#143=IFCRELSEQUENCE('1Mo9NOyIkyyBoHe8KF9ciK',#6,$,$,#101,#103,$,.FINISH_START.,$);
#144=IFCRELSEQUENCE('2BZQChbTdv4FtBhXVS6LO2',#6,$,$,#103,#105,$,.FINISH_START.,$);
#145=IFCRELSEQUENCE('3Bg$2K4r1iQEyPc1unbd7P',#6,$,$,#105,#107,$,.FINISH_START.,$);
#146=IFCRELSEQUENCE('2SptVjTWZvu9v$Upn$h3ca',#6,$,$,#111,#113,$,.FINISH_START.,$);
#147=IFCRELSEQUENCE('1VN4wYFiwouzLbrjkxmqXZ',#6,$,$,#113,#115,$,.FINISH_START.,$);
#148=IFCLAGTIME('Lag',.PREDICTED.,$,IFCDURATION('P6D'),.WORKTIME.);
#149=IFCRELSEQUENCE('3SHGGQyZRrjWe6H6jxrK76',#6,$,$,#45,#55,#148,.START_START.,$);
#150=IFCLAGTIME('Lag',.PREDICTED.,$,IFCRATIOMEASURE(0.4),.WORKTIME.);
#151=IFCRELSEQUENCE('2J6nFrCtWaDtDeMIRSMHE7',#6,$,$,#55,#67,#150,.START_START.,$);
#152=IFCLAGTIME('Lag',.PREDICTED.,$,IFCDURATION('-P7D'),.WORKTIME.);
#153=IFCRELSEQUENCE('2Z5Ggi44e$q42TOsWHSTKV',#6,$,$,#73,#77,#152,.FINISH_START.,$);
#154=IFCLAGTIME('Lag',.PREDICTED.,$,IFCDURATION('P2D'),.WORKTIME.);
#155=IFCRELSEQUENCE('1jYyFp2czAPUjhsKJuVX3E',#6,$,$,#73,#81,#154,.FINISH_FINISH.,$);
#156=IFCRELSEQUENCE('13Za0Zr3b_hHM$mPYAe25b',#6,$,$,#81,#87,$,.FINISH_START.,$);
#157=IFCLAGTIME('Lag',.PREDICTED.,$,IFCDURATION('P16D'),.WORKTIME.);
#158=IFCRELSEQUENCE('134jxPNBhPA09nepHKenWB',#6,$,$,#87,#99,#157,.START_START.,$);
#159=IFCRELSEQUENCE('01cu30Yhi3UcN6334G_ieU',#6,$,$,#107,#111,$,.FINISH_START.,$);
#160=IFCRELASSIGNSTOCONTROL('22AB3RpSOFoaZdAIA__y6P',#6,$,$,(#43,#45,#47,#49,#51,#53,#55,#57,#59,#61,#63,#65,#67,#69,#71,#73,#75,#77,#79,#81,#83,#85,#87,#89,#91,#93,#95,#97,#99,#101,#103,#105,#107,#109,#111,#113,#115),$,#40);
#161=IFCPROPERTYSINGLEVALUE('InternalProjectId',$,IFCTEXT('proj-mula809alfxp1219'),$);
#162=IFCPROPERTYSINGLEVALUE('wbsAutoNumber',$,IFCBOOLEAN(.T.),$);
#163=IFCPROPERTYSINGLEVALUE('DefaultTaskDurationUnit',$,IFCLABEL('days'),$);
#164=IFCPROPERTYSINGLEVALUE('ProjectStartDate',$,IFCDATE('2027-03-01'),$);
#165=IFCPROPERTYSINGLEVALUE('ProjectEndDate',$,$,$);
#166=IFCPROPERTYSINGLEVALUE('CreatedAt',$,IFCTEXT('2026-09-28T13:27:19.630Z'),$);
#167=IFCPROPERTYSINGLEVALUE('ModifiedAt',$,IFCTEXT('2026-09-28T13:27:19.632Z'),$);
#168=IFCPROPERTYSET('2oVWsFqQs_eRk$wJzUdYst',#6,'OPS_ProjectSettings',$,(#161,#162,#163,#164,#165,#166,#167));
#169=IFCRELDEFINESBYPROPERTIES('15GRYBcIoF8D$ejYhpK5TH',#6,$,$,(#13),#168);
#170=IFCPROPERTYSINGLEVALUE('InternalTaskId',$,IFCTEXT('task-mula809c0vxq1220'),$);
#171=IFCPROPERTYSET('0iAFewjfdMEWVrlV_8mCjm',#6,'OPS_TaskIdentity',$,(#170));
#172=IFCRELDEFINESBYPROPERTIES('35uzIG5yh5lKHKoedCMXUv',#6,$,$,(#43),#171);
#173=IFCPROPERTYSINGLEVALUE('InternalTaskId',$,IFCTEXT('task-mula809ec6pz1221'),$);
#174=IFCPROPERTYSET('31t6C9$sX1bMckdM7ENxMn',#6,'OPS_TaskIdentity',$,(#173));
#175=IFCRELDEFINESBYPROPERTIES('2XCjI10$4wuuGs72WwiHlx',#6,$,$,(#45),#174);
#176=IFCPROPERTYSINGLEVALUE('InternalTaskId',$,IFCTEXT('task-mula809firzr1222'),$);
#177=IFCPROPERTYSET('39kaZSK5wfg7PrY2jSrtX6',#6,'OPS_TaskIdentity',$,(#176));
#178=IFCRELDEFINESBYPROPERTIES('01e69MXjyiUoXlWeEVx1Di',#6,$,$,(#47),#177);
#179=IFCPROPERTYSINGLEVALUE('InternalTaskId',$,IFCTEXT('task-mula809gqm931223'),$);
#180=IFCPROPERTYSET('275aQKSuLY4hh2goybZY$U',#6,'OPS_TaskIdentity',$,(#179));
#181=IFCRELDEFINESBYPROPERTIES('1EINxBRY6e6p4PqUx1BYE1',#6,$,$,(#49),#180);
#182=IFCPROPERTYSINGLEVALUE('InternalTaskId',$,IFCTEXT('task-mula809ikz5m1224'),$);
#183=IFCPROPERTYSET('2hdsbTFJa9qUCF8FsozHZD',#6,'OPS_TaskIdentity',$,(#182));
#184=IFCRELDEFINESBYPROPERTIES('08IABkd3c1HWHm6KaowZbP',#6,$,$,(#51),#183);
#185=IFCPROPERTYSINGLEVALUE('InternalTaskId',$,IFCTEXT('task-mula809jdrui1225'),$);
#186=IFCPROPERTYSET('09nYUBg$RukrBizbngshlz',#6,'OPS_TaskIdentity',$,(#185));
#187=IFCRELDEFINESBYPROPERTIES('2r4evoHq7plM1E65$cGwhL',#6,$,$,(#53),#186);
#188=IFCPROPERTYSINGLEVALUE('InternalTaskId',$,IFCTEXT('task-mula809ky0971226'),$);
#189=IFCPROPERTYSET('3N9YcbNRRXzyxlveFXg0Y0',#6,'OPS_TaskIdentity',$,(#188));
#190=IFCRELDEFINESBYPROPERTIES('2hLctmq4FrH6RofceP04Og',#6,$,$,(#55),#189);
#191=IFCPROPERTYSINGLEVALUE('InternalTaskId',$,IFCTEXT('task-mula809mdy0k1227'),$);
#192=IFCPROPERTYSET('0TiXlR_wg10Ay4LInuPpRg',#6,'OPS_TaskIdentity',$,(#191));
#193=IFCRELDEFINESBYPROPERTIES('2_pv9N4FBcRxfTv_MAkXye',#6,$,$,(#57),#192);
#194=IFCPROPERTYSINGLEVALUE('InternalTaskId',$,IFCTEXT('task-mula809npy2y1228'),$);
#195=IFCPROPERTYSET('1Hh6oicTMSC6qcXO_giXRf',#6,'OPS_TaskIdentity',$,(#194));
#196=IFCRELDEFINESBYPROPERTIES('38umvGXb$lvUerYAFIGTkN',#6,$,$,(#59),#195);
#197=IFCPROPERTYSINGLEVALUE('InternalTaskId',$,IFCTEXT('task-mula809o7eep1229'),$);
#198=IFCPROPERTYSET('0CrlzbL4vMopf4$8xItpFV',#6,'OPS_TaskIdentity',$,(#197));
#199=IFCRELDEFINESBYPROPERTIES('2EjC71iJ4bNkmvsQlaeB0R',#6,$,$,(#61),#198);
#200=IFCPROPERTYSINGLEVALUE('InternalTaskId',$,IFCTEXT('task-mula809qkh3u1230'),$);
#201=IFCPROPERTYSET('3I9ISo4QyhIKJqV7oy3dvP',#6,'OPS_TaskIdentity',$,(#200));
#202=IFCRELDEFINESBYPROPERTIES('3fAFEmVb$llhqWx_b7Qpq_',#6,$,$,(#63),#201);
#203=IFCPROPERTYSINGLEVALUE('InternalTaskId',$,IFCTEXT('task-mula809s2xec1231'),$);
#204=IFCPROPERTYSET('1YeUx$CVbvS8dIbXLRooy9',#6,'OPS_TaskIdentity',$,(#203));
#205=IFCRELDEFINESBYPROPERTIES('0$DXKZmSFwMN77NZ$fH$nn',#6,$,$,(#65),#204);
#206=IFCPROPERTYSINGLEVALUE('InternalTaskId',$,IFCTEXT('task-mula809ty7711232'),$);
#207=IFCPROPERTYSET('1JLOByJ_zxKKxDDsR5Dou6',#6,'OPS_TaskIdentity',$,(#206));
#208=IFCRELDEFINESBYPROPERTIES('00U$TuR5F4zS9FNlN$t3yz',#6,$,$,(#67),#207);
#209=IFCPROPERTYSINGLEVALUE('InternalTaskId',$,IFCTEXT('task-mula809vgepu1233'),$);
#210=IFCPROPERTYSET('341LaurGkmj05FJdTlptUE',#6,'OPS_TaskIdentity',$,(#209));
#211=IFCRELDEFINESBYPROPERTIES('3dI901QU1aw$70$ZNM$K9Y',#6,$,$,(#69),#210);
#212=IFCPROPERTYSINGLEVALUE('InternalTaskId',$,IFCTEXT('task-mula809xgtrm1234'),$);
#213=IFCPROPERTYSET('1_lNocrO8QKqJlLXICjCar',#6,'OPS_TaskIdentity',$,(#212));
#214=IFCRELDEFINESBYPROPERTIES('3IQHZm0BTT$p7hgSO0U4iT',#6,$,$,(#71),#213);
#215=IFCPROPERTYSINGLEVALUE('InternalTaskId',$,IFCTEXT('task-mula809z6bez1235'),$);
#216=IFCPROPERTYSET('183AUe70Qk5Ma63_K6Ou7j',#6,'OPS_TaskIdentity',$,(#215));
#217=IFCRELDEFINESBYPROPERTIES('0YjkaxLOmW$HeTJd3RZUJx',#6,$,$,(#73),#216);
#218=IFCPROPERTYSINGLEVALUE('InternalTaskId',$,IFCTEXT('task-mula80a0ramh1236'),$);
#219=IFCPROPERTYSET('2jlKOAPslo8RnVKbWJi9Az',#6,'OPS_TaskIdentity',$,(#218));
#220=IFCRELDEFINESBYPROPERTIES('1qntY8M9KDweIH$a2nTxMv',#6,$,$,(#75),#219);
#221=IFCPROPERTYSINGLEVALUE('InternalTaskId',$,IFCTEXT('task-mula80a2jawq1237'),$);
#222=IFCPROPERTYSET('3AFqwrydDWI_0aDtRz8oBM',#6,'OPS_TaskIdentity',$,(#221));
#223=IFCRELDEFINESBYPROPERTIES('3Z0oH$6ULZnNxk72trbwN5',#6,$,$,(#77),#222);
#224=IFCPROPERTYSINGLEVALUE('InternalTaskId',$,IFCTEXT('task-mula80a3cfbu1238'),$);
#225=IFCPROPERTYSET('3n$dKIrLx2R3oZEoGHNzXu',#6,'OPS_TaskIdentity',$,(#224));
#226=IFCRELDEFINESBYPROPERTIES('2gUI7s6RaJcj$hH3KqjgDD',#6,$,$,(#79),#225);
#227=IFCPROPERTYSINGLEVALUE('InternalTaskId',$,IFCTEXT('task-mula80a5yg841239'),$);
#228=IFCPROPERTYSET('2JjawWAdwdh$ouxndRwhSg',#6,'OPS_TaskIdentity',$,(#227));
#229=IFCRELDEFINESBYPROPERTIES('3Bztkck52KdYrfEjTZlZQN',#6,$,$,(#81),#228);
#230=IFCPROPERTYSINGLEVALUE('InternalTaskId',$,IFCTEXT('task-mula80a77jw51240'),$);
#231=IFCPROPERTYSET('2GDIEOroV4p3m6oVRiVnk7',#6,'OPS_TaskIdentity',$,(#230));
#232=IFCRELDEFINESBYPROPERTIES('2bDS4tlFy5UldFDfPhghVX',#6,$,$,(#83),#231);
#233=IFCPROPERTYSINGLEVALUE('InternalTaskId',$,IFCTEXT('task-mula80a8i12t1241'),$);
#234=IFCPROPERTYSET('2U7qjYYPdvtgjW3NjDc8Su',#6,'OPS_TaskIdentity',$,(#233));
#235=IFCRELDEFINESBYPROPERTIES('3_mYreeZcHIX5caRIHi0n7',#6,$,$,(#85),#234);
#236=IFCPROPERTYSINGLEVALUE('InternalTaskId',$,IFCTEXT('task-mula80aamu6j1242'),$);
#237=IFCPROPERTYSET('0I4AOKJZ97DcflbdHF6MMj',#6,'OPS_TaskIdentity',$,(#236));
#238=IFCRELDEFINESBYPROPERTIES('3HY7nPaeZSrSJrPjH9RazK',#6,$,$,(#87),#237);
#239=IFCPROPERTYSINGLEVALUE('InternalTaskId',$,IFCTEXT('task-mula80acn0kl1243'),$);
#240=IFCPROPERTYSET('0mQXGIoxKWZAPHpOgm41rq',#6,'OPS_TaskIdentity',$,(#239));
#241=IFCRELDEFINESBYPROPERTIES('3R9i8db0ttupcbmb4bREin',#6,$,$,(#89),#240);
#242=IFCPROPERTYSINGLEVALUE('InternalTaskId',$,IFCTEXT('task-mula80advdj31244'),$);
#243=IFCPROPERTYSET('24Euymbk_gRlAcsAFGKIqi',#6,'OPS_TaskIdentity',$,(#242));
#244=IFCRELDEFINESBYPROPERTIES('3QcfTNvX0SqIBgWF86qUFd',#6,$,$,(#91),#243);
#245=IFCPROPERTYSINGLEVALUE('InternalTaskId',$,IFCTEXT('task-mula80afwz101245'),$);
#246=IFCPROPERTYSET('34nTIDM2n_DOvTaWlskKRq',#6,'OPS_TaskIdentity',$,(#245));
#247=IFCRELDEFINESBYPROPERTIES('3IYTrfJQmAtgNW$GezR36f',#6,$,$,(#93),#246);
#248=IFCPROPERTYSINGLEVALUE('InternalTaskId',$,IFCTEXT('task-mula80ahjcm41246'),$);
#249=IFCPROPERTYSET('3V544jSUxJ8VM5jfsW69UR',#6,'OPS_TaskIdentity',$,(#248));
#250=IFCRELDEFINESBYPROPERTIES('1xBJPCUskDRdk8SMwUpZKt',#6,$,$,(#95),#249);
#251=IFCPROPERTYSINGLEVALUE('InternalTaskId',$,IFCTEXT('task-mula80aj0wlg1247'),$);
#252=IFCPROPERTYSET('3UZu2SVFFj_1yDJQ3$DXis',#6,'OPS_TaskIdentity',$,(#251));
#253=IFCRELDEFINESBYPROPERTIES('2KOzKRP6riJXmlmTnFwTxE',#6,$,$,(#97),#252);
#254=IFCPROPERTYSINGLEVALUE('InternalTaskId',$,IFCTEXT('task-mula80alh6mc1248'),$);
#255=IFCPROPERTYSET('0NrcGwOvyls0A9_rIP224W',#6,'OPS_TaskIdentity',$,(#254));
#256=IFCRELDEFINESBYPROPERTIES('2vrJ5l83xcmxsTdfFbQYzc',#6,$,$,(#99),#255);
#257=IFCPROPERTYSINGLEVALUE('InternalTaskId',$,IFCTEXT('task-mula80anv6yz1249'),$);
#258=IFCPROPERTYSET('0bCx75XahHUqs8UXX6lE42',#6,'OPS_TaskIdentity',$,(#257));
#259=IFCRELDEFINESBYPROPERTIES('1pxARHpreXMHwx_Ztxyi$E',#6,$,$,(#101),#258);
#260=IFCPROPERTYSINGLEVALUE('InternalTaskId',$,IFCTEXT('task-mula80ap5c711250'),$);
#261=IFCPROPERTYSET('2dqObRlPwKb4l_53yFL6pb',#6,'OPS_TaskIdentity',$,(#260));
#262=IFCRELDEFINESBYPROPERTIES('0mOrwK$tkc9INquYXXLigi',#6,$,$,(#103),#261);
#263=IFCPROPERTYSINGLEVALUE('InternalTaskId',$,IFCTEXT('task-mula80ard9z71251'),$);
#264=IFCPROPERTYSET('3U2vXei5oZt1vkoKHDJDcR',#6,'OPS_TaskIdentity',$,(#263));
#265=IFCRELDEFINESBYPROPERTIES('33aEPkkAOTjgwx5Hq8rm8b',#6,$,$,(#105),#264);
#266=IFCPROPERTYSINGLEVALUE('InternalTaskId',$,IFCTEXT('task-mula80aul5px1252'),$);
#267=IFCPROPERTYSET('0xvnrFbdvcYhycqSWBffwB',#6,'OPS_TaskIdentity',$,(#266));
#268=IFCRELDEFINESBYPROPERTIES('1i0rhyk7jIzQB7aTXGRqhg',#6,$,$,(#107),#267);
#269=IFCPROPERTYSINGLEVALUE('InternalTaskId',$,IFCTEXT('task-mula80awu7vv1253'),$);
#270=IFCPROPERTYSET('2vf4i2pNxkBJ0r2i8rxlJl',#6,'OPS_TaskIdentity',$,(#269));
#271=IFCRELDEFINESBYPROPERTIES('1xQxQb2rJvAWj2xU2tXzt_',#6,$,$,(#109),#270);
#272=IFCPROPERTYSINGLEVALUE('InternalTaskId',$,IFCTEXT('task-mula80ayp2di1254'),$);
#273=IFCPROPERTYSET('2sb2yPZ1LnfveaxRxYGRBB',#6,'OPS_TaskIdentity',$,(#272));
#274=IFCRELDEFINESBYPROPERTIES('3n9gdUgBBjgrL82yn973rR',#6,$,$,(#111),#273);
#275=IFCPROPERTYSINGLEVALUE('InternalTaskId',$,IFCTEXT('task-mula80b0cxse1255'),$);
#276=IFCPROPERTYSET('1l0hVsCddX0P_SWqG3zx7c',#6,'OPS_TaskIdentity',$,(#275));
#277=IFCRELDEFINESBYPROPERTIES('0YWJeh$NKgyMgXiLTQSbia',#6,$,$,(#113),#276);
#278=IFCPROPERTYSINGLEVALUE('InternalTaskId',$,IFCTEXT('task-mula80b287ku1256'),$);
#279=IFCPROPERTYSET('3$4n0VoOLHNJpkMgaG3Cfc',#6,'OPS_TaskIdentity',$,(#278));
#280=IFCRELDEFINESBYPROPERTIES('3jOX0O6F6T679rHwMMJdgc',#6,$,$,(#115),#279);
#281=IFCPROPERTYSINGLEVALUE('MilestoneKind',$,IFCLABEL('START'),$);
#282=IFCPROPERTYSET('2NzGqXfqyRxiqwvSBQV0bM',#6,'OPS_Milestone',$,(#281));
#283=IFCRELDEFINESBYPROPERTIES('3aw$CY31K5MfwLmpdlP5Ac',#6,$,$,(#51),#282);
#284=IFCPROPERTYSINGLEVALUE('MilestoneKind',$,IFCLABEL('FINISH'),$);
#285=IFCPROPERTYSET('0C7UUxvBINrLx_P84QHdnv',#6,'OPS_Milestone',$,(#284));
#286=IFCRELDEFINESBYPROPERTIES('1y4$iFs0iwBd5B8h4kx2M8',#6,$,$,(#83),#285);
#287=IFCPROPERTYSINGLEVALUE('MilestoneKind',$,IFCLABEL('FINISH'),$);
#288=IFCPROPERTYSINGLEVALUE('Mandatory',$,IFCBOOLEAN(.T.),$);
#289=IFCPROPERTYSET('3NfcRAzPze0bP6Kk0luMSs',#6,'OPS_Milestone',$,(#287,#288));
#290=IFCRELDEFINESBYPROPERTIES('1oFNvKefQDAL9oe0gXnA36',#6,$,$,(#115),#289);
ENDSEC;
END-ISO-10303-21;
