ISO-10303-21;
HEADER;
FILE_DESCRIPTION(('ViewDefinition [SchedulingView]'),'2;1');
FILE_NAME('24 Apartments, Eindhoven.ifc','2026-09-28T13:27:20',('Sophie van Dijk'),('Housing South BV'),'Open Planner Studio 0.1','Open Planner Studio','');
FILE_SCHEMA(('IFC4X3'));
ENDSEC;
DATA;
#1=IFCPERSON($,'Sophie van Dijk',$,$,$,$,$,$);
#2=IFCORGANIZATION($,'Housing South BV',$,$,$);
#3=IFCPERSONANDORGANIZATION(#1,#2,$);
#4=IFCORGANIZATION($,'OpenAEC Foundation',$,$,$);
#5=IFCAPPLICATION(#4,'0.2','Open Planner Studio','OPS');
#6=IFCOWNERHISTORY(#3,#5,$,.NOCHANGE.,$,$,$,1790602040);
#7=IFCSIUNIT(*,.LENGTHUNIT.,$,.METRE.);
#8=IFCSIUNIT(*,.TIMEUNIT.,$,.SECOND.);
#9=IFCUNITASSIGNMENT((#7,#8));
#10=IFCCARTESIANPOINT((0.,0.,0.));
#11=IFCAXIS2PLACEMENT3D(#10,$,$);
#12=IFCGEOMETRICREPRESENTATIONCONTEXT($,'Plan',3,1.0E-05,#11,$);
#13=IFCPROJECT('02Hgp3uIFQSTpp7WExStQr',#6,'24 Apartments, Eindhoven','24 apartments over four storeys with basement car park',$,$,$,(#12),#9);
#14=IFCTIMEPERIOD('07:00:00','16:00:00');
#15=IFCRECURRENCEPATTERN(.WEEKLY.,$,(1,2,3,4,5),$,$,$,$,(#14));
#16=IFCWORKTIME('Standard work week',.PREDICTED.,$,#15,$,$);
#17=IFCWORKTIME('New Year''s Day',.PREDICTED.,$,$,'2027-01-01','2027-01-01');
#18=IFCWORKTIME('Good Friday',.PREDICTED.,$,$,'2027-03-26','2027-03-26');
#19=IFCWORKTIME('Easter',.PREDICTED.,$,$,'2027-03-28','2027-03-29');
#20=IFCWORKTIME('King''s Day',.PREDICTED.,$,$,'2027-04-27','2027-04-27');
#21=IFCWORKTIME('Liberation Day',.PREDICTED.,$,$,'2027-05-05','2027-05-05');
#22=IFCWORKTIME('Ascension Day',.PREDICTED.,$,$,'2027-05-06','2027-05-06');
#23=IFCWORKTIME('Whitsun',.PREDICTED.,$,$,'2027-05-16','2027-05-17');
#24=IFCWORKTIME('Christmas',.PREDICTED.,$,$,'2027-12-25','2027-12-26');
#25=IFCWORKTIME('Construction holiday (northern region)',.PREDICTED.,$,$,'2027-07-26','2027-08-15');
#26=IFCWORKTIME('New Year''s Day',.PREDICTED.,$,$,'2028-01-01','2028-01-01');
#27=IFCWORKTIME('Good Friday',.PREDICTED.,$,$,'2028-04-14','2028-04-14');
#28=IFCWORKTIME('Easter',.PREDICTED.,$,$,'2028-04-16','2028-04-17');
#29=IFCWORKTIME('King''s Day',.PREDICTED.,$,$,'2028-04-27','2028-04-27');
#30=IFCWORKTIME('Liberation Day',.PREDICTED.,$,$,'2028-05-05','2028-05-05');
#31=IFCWORKTIME('Ascension Day',.PREDICTED.,$,$,'2028-05-25','2028-05-25');
#32=IFCWORKTIME('Whitsun',.PREDICTED.,$,$,'2028-06-04','2028-06-05');
#33=IFCWORKTIME('Christmas',.PREDICTED.,$,$,'2028-12-25','2028-12-26');
#34=IFCWORKTIME('Construction holiday (northern region)',.PREDICTED.,$,$,'2028-07-24','2028-08-13');
#35=IFCWORKCALENDAR('1_Wsm$K$g5wVVFveb2Sqhr',#6,'Construction calendar NL','Standard construction calendar: Mon-Fri 07:00-16:00',$,(#16),(#17,#18,#19,#20,#21,#22,#23,#24,#25,#26,#27,#28,#29,#30,#31,#32,#33,#34),.FIRSTSHIFT.);
#36=IFCPROPERTYSINGLEVALUE('HoursPerDay',$,IFCREAL(8),$);
#37=IFCPROPERTYSET('3Y7kUHH6exRTBx5OtkFgHG',#6,'OPS_Calendar',$,(#36));
#38=IFCRELDEFINESBYPROPERTIES('3VClcc_JR5mSfy7cFaLr5Z',#6,$,$,(#35),#37);
#39=IFCWORKPLAN('00PEAWf8MWQ_wYbyEZDUAX',#6,'24 Apartments, Eindhoven','24 apartments over four storeys with basement car park',$,$,'2026-09-28T13:27:20',$,$,$,$,$,'2027-03-01T07:00:00','2027-03-26T07:00:00',.PLANNED.);
#40=IFCWORKSCHEDULE('2RTeFsckK8iWqxBpHJ9JYX',#6,'Construction schedule v1.0',$,$,$,'2026-09-28T13:27:20',$,$,$,$,$,'2027-03-01T07:00:00','2027-03-26T07:00:00',.PLANNED.);
#41=IFCRELAGGREGATES('2KQXsDLYy0teutqRb1UHZo',#6,$,$,#39,(#40));
#42=IFCTASKTIME('1. Preparation Time',.PREDICTED.,$,.WORKTIME.,'P0Y0M17D','2027-03-01T07:00:00','2027-03-05T07:00:00','2027-03-01T07:00:00','2027-03-23T07:00:00','2027-03-01T07:00:00','2028-03-15T07:00:00','P0Y0M0D','P0Y0M0D',.T.,$,$,$,$,$,0.00);
#43=IFCTASK('3EsTku7E81cc1oq7hbMix4',#6,'1. Preparation',$,$,'1',$,$,$,.F.,$,#42,.CONSTRUCTION.);
#44=IFCTASKTIME('Set up site Time',.PREDICTED.,$,.WORKTIME.,'P0Y0M5D','2027-03-01T07:00:00','2027-03-05T07:00:00','2027-03-01T07:00:00','2027-03-05T07:00:00','2027-03-01T07:00:00','2027-03-05T07:00:00','P0Y0M0D','P0Y0M0D',.T.,$,$,$,$,$,0.00);
#45=IFCTASK('3YN9d5$zOGuBQ5qvF2lJrF',#6,'Set up site',$,$,'1.1',$,$,$,.F.,$,#44,.LOGISTIC.);
#46=IFCTASKTIME('Pile load test Time',.PREDICTED.,$,.WORKTIME.,'P0Y0M3D','2027-03-01T07:00:00','2027-03-03T07:00:00','2027-03-08T07:00:00','2027-03-10T07:00:00','2028-02-29T07:00:00','2028-03-02T07:00:00','P0Y0M0D','P0Y0M235D',.F.,$,$,$,$,$,0.00);
#47=IFCTASK('2QQQaOpWgvqv7U5nCUrvx3',#6,'Pile load test',$,$,'1.2',$,$,$,.F.,$,#46,.CONSTRUCTION.);
#48=IFCTASKTIME('Divert utilities Time',.PREDICTED.,$,.WORKTIME.,'P0Y0M8D','2027-03-01T07:00:00','2027-03-10T07:00:00','2027-03-11T07:00:00','2027-03-22T07:00:00','2028-03-03T07:00:00','2028-03-14T07:00:00','P0Y0M0D','P0Y0M235D',.F.,$,$,$,$,$,0.00);
#49=IFCTASK('3TrBkzF3HOLHXtpH_hxMXN',#6,'Divert utilities',$,$,'1.3',$,$,$,.F.,$,#48,.INSTALLATION.);
#50=IFCTASKTIME('Start of construction Time',.PREDICTED.,$,.WORKTIME.,'P0Y0M0D','2027-03-01T07:00:00','2027-03-01T07:00:00','2027-03-23T07:00:00','2027-03-23T07:00:00','2028-03-15T07:00:00','2028-03-15T07:00:00','P0Y0M235D','P0Y0M235D',.F.,$,$,$,$,$,0.00);
#51=IFCTASK('1bm8pWr9VN7_e7VmrS1MSd',#6,'Start of construction',$,$,'1.4',$,$,$,.T.,$,#50,.CONSTRUCTION.);
#52=IFCTASKTIME('2. Foundations Time',.PREDICTED.,$,.WORKTIME.,'P0Y0M51D','2027-03-01T07:00:00','2027-03-05T07:00:00','2027-03-11T07:00:00','2027-05-28T07:00:00','2027-03-11T07:00:00','2028-03-15T07:00:00','P0Y0M0D','P0Y0M0D',.T.,$,$,$,$,$,0.00);
#53=IFCTASK('12h21NoFd0i7kGEMQoAVS2',#6,'2. Foundations',$,$,'2',$,$,$,.F.,$,#52,.CONSTRUCTION.);
#54=IFCTASKTIME('Pile driving, foundation piles Time',.PREDICTED.,$,.WORKTIME.,'P0Y0M15D','2027-03-01T07:00:00','2027-03-19T07:00:00','2027-03-11T07:00:00','2027-04-02T07:00:00','2027-03-11T07:00:00','2027-04-02T07:00:00','P0Y0M0D','P0Y0M0D',.T.,$,$,$,$,$,0.00);
#55=IFCTASK('2Jt8QD21obhjmkd7nIMIPr',#6,'Pile driving, foundation piles',$,$,'2.1',$,$,$,.F.,$,#54,.CONSTRUCTION.);
#56=IFCTASKTIME('Earthworks, basement car park Time',.PREDICTED.,$,.WORKTIME.,'P0Y0M10D','2027-03-01T07:00:00','2027-03-12T07:00:00','2027-04-05T07:00:00','2027-04-16T07:00:00','2028-01-26T07:00:00','2028-02-08T07:00:00','P0Y0M0D','P0Y0M193D',.F.,$,$,$,$,$,0.00);
#57=IFCTASK('0dT3IMZEgyTm_OAs9IHXvj',#6,'Earthworks, basement car park',$,$,'2.2',$,$,$,.F.,$,#56,.CONSTRUCTION.);
#58=IFCTASKTIME('Foundation beams and pile caps Time',.PREDICTED.,$,.WORKTIME.,'P0Y0M8D','2027-03-01T07:00:00','2027-03-10T07:00:00','2027-04-19T07:00:00','2027-04-29T07:00:00','2028-02-09T07:00:00','2028-02-18T07:00:00','P0Y0M0D','P0Y0M193D',.F.,$,$,$,$,$,0.00);
#59=IFCTASK('27BvlYGMTSWcDwe5QoFjXB',#6,'Foundation beams and pile caps',$,$,'2.3',$,$,$,.F.,$,#58,.CONSTRUCTION.);
#60=IFCTASKTIME('Pour basement floor Time',.PREDICTED.,$,.WORKTIME.,'P0Y0M5D','2027-03-01T07:00:00','2027-03-05T07:00:00','2027-04-30T07:00:00','2027-05-10T07:00:00','2028-02-21T07:00:00','2028-02-25T07:00:00','P0Y0M0D','P0Y0M193D',.F.,$,$,$,$,$,0.00);
#61=IFCTASK('2_Q4lkIqA4yhc8CTjqkxeC',#6,'Pour basement floor',$,$,'2.4',$,$,$,.F.,$,#60,.CONSTRUCTION.);
#62=IFCTASKTIME('Basement walls Time',.PREDICTED.,$,.WORKTIME.,'P0Y0M8D','2027-03-01T07:00:00','2027-03-10T07:00:00','2027-05-11T07:00:00','2027-05-21T07:00:00','2028-02-28T07:00:00','2028-03-08T07:00:00','P0Y0M0D','P0Y0M193D',.F.,$,$,$,$,$,0.00);
#63=IFCTASK('3feT_8j6DneaK48yqLy$_e',#6,'Basement walls',$,$,'2.5',$,$,$,.F.,$,#62,.CONSTRUCTION.);
#64=IFCTASKTIME('Waterproofing Time',.PREDICTED.,$,.WORKTIME.,'P0Y0M5D','2027-03-01T07:00:00','2027-03-05T07:00:00','2027-05-24T07:00:00','2027-05-28T07:00:00','2028-03-09T07:00:00','2028-03-15T07:00:00','P0Y0M193D','P0Y0M193D',.F.,$,$,$,$,$,0.00);
#65=IFCTASK('3X4v3AG_$EImIDb0Q7egDi',#6,'Waterproofing',$,$,'2.6',$,$,$,.F.,$,#64,.CONSTRUCTION.);
#66=IFCTASKTIME('3. Structural works Time',.PREDICTED.,$,.WORKTIME.,'P0Y0M100D','2027-03-01T07:00:00','2027-03-05T07:00:00','2027-03-19T07:00:00','2027-09-03T07:00:00','2027-03-19T07:00:00','2028-03-15T07:00:00','P0Y0M0D','P0Y0M0D',.T.,$,$,$,$,$,0.00);
#67=IFCTASK('03T6m8HaM4rb4H2qdaYuQg',#6,'3. Structural works',$,$,'3',$,$,$,.F.,$,#66,.CONSTRUCTION.);
#68=IFCTASKTIME('Ground floor walls and slab Time',.PREDICTED.,$,.WORKTIME.,'P0Y0M12D','2027-03-01T07:00:00','2027-03-16T07:00:00','2027-03-19T07:00:00','2027-04-07T07:00:00','2027-03-19T07:00:00','2027-04-07T07:00:00','P0Y0M0D','P0Y0M0D',.T.,$,$,$,$,$,0.00);
#69=IFCTASK('0j4moAERdlj4GccZ$kkld0',#6,'Ground floor walls and slab',$,$,'3.1',$,$,$,.F.,$,#68,.CONSTRUCTION.);
#70=IFCTASKTIME('First floor concrete Time',.PREDICTED.,$,.WORKTIME.,'P0Y0M10D','2027-03-01T07:00:00','2027-03-12T07:00:00','2027-04-08T07:00:00','2027-04-21T07:00:00','2027-04-08T07:00:00','2027-04-21T07:00:00','P0Y0M0D','P0Y0M0D',.T.,$,$,$,$,$,0.00);
#71=IFCTASK('2HOYVZAzXxTiLxgpTOKsrd',#6,'First floor concrete',$,$,'3.2',$,$,$,.F.,$,#70,.CONSTRUCTION.);
#72=IFCTASKTIME('Second floor concrete Time',.PREDICTED.,$,.WORKTIME.,'P0Y0M10D','2027-03-01T07:00:00','2027-03-12T07:00:00','2027-04-22T07:00:00','2027-05-10T07:00:00','2027-04-22T07:00:00','2027-05-10T07:00:00','P0Y0M0D','P0Y0M0D',.T.,$,$,$,$,$,0.00);
#73=IFCTASK('35rc8hdlFEMGI_8LDjrv38',#6,'Second floor concrete',$,$,'3.3',$,$,$,.F.,$,#72,.CONSTRUCTION.);
#74=IFCTASKTIME('Third floor concrete Time',.PREDICTED.,$,.WORKTIME.,'P0Y0M10D','2027-03-01T07:00:00','2027-03-12T07:00:00','2027-05-11T07:00:00','2027-05-25T07:00:00','2027-05-11T07:00:00','2027-05-25T07:00:00','P0Y0M0D','P0Y0M0D',.T.,$,$,$,$,$,0.00);
#75=IFCTASK('14HnVsaFMXlLPVmnPDq9pi',#6,'Third floor concrete',$,$,'3.4',$,$,$,.F.,$,#74,.CONSTRUCTION.);
#76=IFCTASKTIME('Fourth floor concrete Time',.PREDICTED.,$,.WORKTIME.,'P0Y0M10D','2027-03-01T07:00:00','2027-03-12T07:00:00','2027-05-26T07:00:00','2027-06-08T07:00:00','2027-05-26T07:00:00','2027-06-08T07:00:00','P0Y0M0D','P0Y0M0D',.T.,$,$,$,$,$,0.00);
#77=IFCTASK('2p7ahCJk2H5zPaEyTIJ5CZ',#6,'Fourth floor concrete',$,$,'3.5',$,$,$,.F.,$,#76,.CONSTRUCTION.);
#78=IFCTASKTIME('Concrete stair core Time',.PREDICTED.,$,.WORKTIME.,'P0Y0M15D','2027-03-01T07:00:00','2027-03-19T07:00:00','2027-06-02T07:00:00','2027-06-22T07:00:00','2027-06-02T07:00:00','2027-06-22T07:00:00','P0Y0M0D','P0Y0M0D',.T.,$,$,$,$,$,0.00);
#79=IFCTASK('1zTVOav81YL5db1XOezCcW',#6,'Concrete stair core',$,$,'3.6',$,$,$,.F.,$,#78,.CONSTRUCTION.);
#80=IFCTASKTIME('Roof build-up Time',.PREDICTED.,$,.WORKTIME.,'P0Y0M8D','2027-03-01T07:00:00','2027-03-10T07:00:00','2027-06-23T07:00:00','2027-07-02T07:00:00','2027-06-23T07:00:00','2027-07-02T07:00:00','P0Y0M0D','P0Y0M0D',.T.,$,$,$,$,$,0.00);
#81=IFCTASK('2$o0c$Oy7L8yUM6kqCkg1p',#6,'Roof build-up',$,$,'3.7',$,$,$,.F.,$,#80,.CONSTRUCTION.);
#82=IFCTASKTIME('Balcony structures Time',.PREDICTED.,$,.WORKTIME.,'P0Y0M10D','2027-03-01T07:00:00','2027-03-12T07:00:00','2027-07-05T07:00:00','2027-07-16T07:00:00','2027-07-05T07:00:00','2027-07-16T07:00:00','P0Y0M0D','P0Y0M0D',.T.,$,$,$,$,$,0.00);
#83=IFCTASK('08OgIqGxs2j3vvsDYYT$lA',#6,'Balcony structures',$,$,'3.8',$,$,$,.F.,$,#82,.CONSTRUCTION.);
#84=IFCTASKTIME('Facade masonry Time',.PREDICTED.,$,.WORKTIME.,'P0Y0M20D','2027-03-01T07:00:00','2027-03-26T07:00:00','2027-07-19T07:00:00','2027-09-03T07:00:00','2027-07-19T07:00:00','2027-09-03T07:00:00','P0Y0M0D','P0Y0M0D',.T.,$,$,$,$,$,0.00);
#85=IFCTASK('1tenBE8FDjqDp2TQf5aRwX',#6,'Facade masonry',$,$,'3.9',$,$,$,.F.,$,#84,.CONSTRUCTION.);
#86=IFCTASKTIME('Topping out Time',.PREDICTED.,$,.WORKTIME.,'P0Y0M0D','2027-03-01T07:00:00','2027-03-01T07:00:00','2027-09-03T07:00:00','2027-09-03T07:00:00','2028-03-15T07:00:00','2028-03-15T07:00:00','P0Y0M138D','P0Y0M138D',.F.,$,$,$,$,$,0.00);
#87=IFCTASK('0orlsgNp0ef_EQ3hHxzEFg',#6,'Topping out',$,$,'3.10',$,$,$,.T.,$,#86,.CONSTRUCTION.);
#88=IFCTASKTIME('4. Facade & roof Time',.PREDICTED.,$,.WORKTIME.,'P0Y0M35D','2027-03-01T07:00:00','2027-03-05T07:00:00','2027-07-16T07:00:00','2027-09-23T07:00:00','2027-07-16T07:00:00','2028-03-15T07:00:00','P0Y0M0D','P0Y0M0D',.T.,$,$,$,$,$,0.00);
#89=IFCTASK('3lIC_d37N6z0sBaUNE7VOM',#6,'4. Facade & roof',$,$,'4',$,$,$,.F.,$,#88,.CONSTRUCTION.);
#90=IFCTASKTIME('Facade insulation Time',.PREDICTED.,$,.WORKTIME.,'P0Y0M12D','2027-03-01T07:00:00','2027-03-16T07:00:00','2027-07-16T07:00:00','2027-08-23T07:00:00','2027-07-16T07:00:00','2027-08-23T07:00:00','P0Y0M0D','P0Y0M0D',.T.,$,$,$,$,$,0.00);
#91=IFCTASK('2Dn2wv5dnf2oTYxkvNrvnO',#6,'Facade insulation',$,$,'4.1',$,$,$,.F.,$,#90,.INSTALLATION.);
#92=IFCTASKTIME('Window frames and glazing Time',.PREDICTED.,$,.WORKTIME.,'P0Y0M10D','2027-03-01T07:00:00','2027-03-12T07:00:00','2027-08-24T07:00:00','2027-09-06T07:00:00','2027-08-24T07:00:00','2027-09-06T07:00:00','P0Y0M0D','P0Y0M0D',.T.,$,$,$,$,$,0.00);
#93=IFCTASK('3BNBrt8MJezOFlYbg8gc8E',#6,'Window frames and glazing',$,$,'4.2',$,$,$,.F.,$,#92,.INSTALLATION.);
#94=IFCTASKTIME('Roofing and insulation Time',.PREDICTED.,$,.WORKTIME.,'P0Y0M8D','2027-03-01T07:00:00','2027-03-10T07:00:00','2027-09-07T07:00:00','2027-09-16T07:00:00','2027-09-07T07:00:00','2027-09-16T07:00:00','P0Y0M0D','P0Y0M0D',.T.,$,$,$,$,$,0.00);
#95=IFCTASK('3RI1B$FEMMbOVudVDOoWmH',#6,'Roofing and insulation',$,$,'4.3',$,$,$,.F.,$,#94,.CONSTRUCTION.);
#96=IFCTASKTIME('Balcony balustrades Time',.PREDICTED.,$,.WORKTIME.,'P0Y0M5D','2027-03-01T07:00:00','2027-03-05T07:00:00','2027-09-17T07:00:00','2027-09-23T07:00:00','2027-09-17T07:00:00','2027-09-23T07:00:00','P0Y0M0D','P0Y0M0D',.T.,$,$,$,$,$,0.00);
#97=IFCTASK('3CzEysHdD_d4acIAGppXNt',#6,'Balcony balustrades',$,$,'4.4',$,$,$,.F.,$,#96,.INSTALLATION.);
#98=IFCTASKTIME('Wind and weathertight Time',.PREDICTED.,$,.WORKTIME.,'P0Y0M0D','2027-03-01T07:00:00','2027-03-01T07:00:00','2027-09-23T07:00:00','2027-09-23T07:00:00','2028-03-15T07:00:00','2028-03-15T07:00:00','P0Y0M124D','P0Y0M124D',.F.,$,$,$,$,$,0.00);
#99=IFCTASK('058tdQH9TmIJJ5PB7$9ZKy',#6,'Wind and weathertight',$,$,'4.5',$,$,$,.T.,$,#98,.CONSTRUCTION.);
#100=IFCTASKTIME('5. Building services Time',.PREDICTED.,$,.WORKTIME.,'P0Y0M53D','2027-03-01T07:00:00','2027-03-05T07:00:00','2027-09-24T07:00:00','2027-12-07T07:00:00','2027-09-24T07:00:00','2028-03-15T07:00:00','P0Y0M0D','P0Y0M0D',.T.,$,$,$,$,$,0.00);
#101=IFCTASK('1WLvdX7bP$upRu8NupJFAo',#6,'5. Building services',$,$,'5',$,$,$,.F.,$,#100,.INSTALLATION.);
#102=IFCTASKTIME('Electrical risers Time',.PREDICTED.,$,.WORKTIME.,'P0Y0M10D','2027-03-01T07:00:00','2027-03-12T07:00:00','2027-09-24T07:00:00','2027-10-07T07:00:00','2027-09-24T07:00:00','2027-10-07T07:00:00','P0Y0M0D','P0Y0M0D',.T.,$,$,$,$,$,0.00);
#103=IFCTASK('1xpytk$tEWRjokvf_RKowX',#6,'Electrical risers',$,$,'5.1',$,$,$,.F.,$,#102,.INSTALLATION.);
#104=IFCTASKTIME('Plumbing risers Time',.PREDICTED.,$,.WORKTIME.,'P0Y0M10D','2027-03-01T07:00:00','2027-03-12T07:00:00','2027-09-29T07:00:00','2027-10-12T07:00:00','2028-01-06T07:00:00','2028-01-19T07:00:00','P0Y0M0D','P0Y0M71D',.F.,$,$,$,$,$,0.00);
#105=IFCTASK('1bGFbivDnzocbtVb4KRhH5',#6,'Plumbing risers',$,$,'5.2',$,$,$,.F.,$,#104,.INSTALLATION.);
#106=IFCTASKTIME('Heating pipework per dwelling Time',.PREDICTED.,$,.WORKTIME.,'P0Y0M12D','2027-03-01T07:00:00','2027-03-16T07:00:00','2027-10-13T07:00:00','2027-10-28T07:00:00','2028-01-20T07:00:00','2028-02-04T07:00:00','P0Y0M0D','P0Y0M71D',.F.,$,$,$,$,$,0.00);
#107=IFCTASK('0Q8UlAMSEasBs89dOzNiLM',#6,'Heating pipework per dwelling',$,$,'5.3',$,$,$,.F.,$,#106,.INSTALLATION.);
#108=IFCTASKTIME('Heat recovery ventilation units Time',.PREDICTED.,$,.WORKTIME.,'P0Y0M8D','2027-03-01T07:00:00','2027-03-10T07:00:00','2027-10-29T07:00:00','2027-11-09T07:00:00','2028-02-07T07:00:00','2028-02-16T07:00:00','P0Y0M0D','P0Y0M71D',.F.,$,$,$,$,$,0.00);
#109=IFCTASK('0dpX1fQvaqBP7rCbyZIndb',#6,'Heat recovery ventilation units',$,$,'5.4',$,$,$,.F.,$,#108,.INSTALLATION.);
#110=IFCTASKTIME('Lift installation Time',.PREDICTED.,$,.WORKTIME.,'P0Y0M15D','2027-03-01T07:00:00','2027-03-19T07:00:00','2027-11-10T07:00:00','2027-11-30T07:00:00','2028-02-17T07:00:00','2028-03-08T07:00:00','P0Y0M0D','P0Y0M71D',.F.,$,$,$,$,$,0.00);
#111=IFCTASK('235p8oSA4sek8C2zkPEjsV',#6,'Lift installation',$,$,'5.5',$,$,$,.F.,$,#110,.INSTALLATION.);
#112=IFCTASKTIME('Intercom and access control Time',.PREDICTED.,$,.WORKTIME.,'P0Y0M5D','2027-03-01T07:00:00','2027-03-05T07:00:00','2027-12-01T07:00:00','2027-12-07T07:00:00','2028-03-09T07:00:00','2028-03-15T07:00:00','P0Y0M71D','P0Y0M71D',.F.,$,$,$,$,$,0.00);
#113=IFCTASK('1fq4zppbdRBtzbolYfRx1c',#6,'Intercom and access control',$,$,'5.6',$,$,$,.F.,$,#112,.INSTALLATION.);
#114=IFCTASKTIME('6. Fit-out Time',.PREDICTED.,$,.WORKTIME.,'P0Y0M71D','2027-03-01T07:00:00','2027-03-05T07:00:00','2027-11-05T07:00:00','2028-02-11T07:00:00','2027-11-05T07:00:00','2028-02-11T07:00:00','P0Y0M0D','P0Y0M0D',.T.,$,$,$,$,$,0.00);
#115=IFCTASK('1Kztgv6y_kyDStTKP6Zlr7',#6,'6. Fit-out',$,$,'6',$,$,$,.F.,$,#114,.CONSTRUCTION.);
#116=IFCTASKTIME('Set out internal walls Time',.PREDICTED.,$,.WORKTIME.,'P0Y0M10D','2027-03-01T07:00:00','2027-03-12T07:00:00','2027-11-05T07:00:00','2027-11-18T07:00:00','2027-11-05T07:00:00','2027-11-18T07:00:00','P0Y0M0D','P0Y0M0D',.T.,$,$,$,$,$,0.00);
#117=IFCTASK('3fjNGBIbdU79ex_DPe7mAf',#6,'Set out internal walls',$,$,'6.1',$,$,$,.F.,$,#116,.CONSTRUCTION.);
#118=IFCTASKTIME('Plastering Time',.PREDICTED.,$,.WORKTIME.,'P0Y0M12D','2027-03-01T07:00:00','2027-03-16T07:00:00','2027-11-19T07:00:00','2027-12-06T07:00:00','2027-11-19T07:00:00','2027-12-06T07:00:00','P0Y0M0D','P0Y0M0D',.T.,$,$,$,$,$,0.00);
#119=IFCTASK('28eAA6lTzfD4mxqr0eAFDg',#6,'Plastering',$,$,'6.2',$,$,$,.F.,$,#118,.CONSTRUCTION.);
#120=IFCTASKTIME('Tiling Time',.PREDICTED.,$,.WORKTIME.,'P0Y0M10D','2027-03-01T07:00:00','2027-03-12T07:00:00','2027-12-07T07:00:00','2027-12-20T07:00:00','2027-12-07T07:00:00','2027-12-20T07:00:00','P0Y0M0D','P0Y0M0D',.T.,$,$,$,$,$,0.00);
#121=IFCTASK('37_P6UBJ9X06YA8afHxAjy',#6,'Tiling',$,$,'6.3',$,$,$,.F.,$,#120,.CONSTRUCTION.);
#122=IFCTASKTIME('Screed floors Time',.PREDICTED.,$,.WORKTIME.,'P0Y0M8D','2027-03-01T07:00:00','2027-03-10T07:00:00','2027-12-21T07:00:00','2027-12-30T07:00:00','2027-12-21T07:00:00','2027-12-30T07:00:00','P0Y0M0D','P0Y0M0D',.T.,$,$,$,$,$,0.00);
#123=IFCTASK('3uR_aKFNNHfRuU0Gp_vioe',#6,'Screed floors',$,$,'6.4',$,$,$,.F.,$,#122,.CONSTRUCTION.);
#124=IFCTASKTIME('Internal doors Time',.PREDICTED.,$,.WORKTIME.,'P0Y0M5D','2027-03-01T07:00:00','2027-03-05T07:00:00','2027-12-31T07:00:00','2028-01-06T07:00:00','2027-12-31T07:00:00','2028-01-06T07:00:00','P0Y0M0D','P0Y0M0D',.T.,$,$,$,$,$,0.00);
#125=IFCTASK('3n_A1sq$14i4dQZb51lJ_0',#6,'Internal doors',$,$,'6.5',$,$,$,.F.,$,#124,.INSTALLATION.);
#126=IFCTASKTIME('Kitchen units installation Time',.PREDICTED.,$,.WORKTIME.,'P0Y0M8D','2027-03-01T07:00:00','2027-03-10T07:00:00','2028-01-07T07:00:00','2028-01-18T07:00:00','2028-01-07T07:00:00','2028-01-18T07:00:00','P0Y0M0D','P0Y0M0D',.T.,$,$,$,$,$,0.00);
#127=IFCTASK('0PGFKzsj3l0$szfpi5rd2y',#6,'Kitchen units installation',$,$,'6.6',$,$,$,.F.,$,#126,.INSTALLATION.);
#128=IFCTASKTIME('Painting Time',.PREDICTED.,$,.WORKTIME.,'P0Y0M10D','2027-03-01T07:00:00','2027-03-12T07:00:00','2028-01-19T07:00:00','2028-02-01T07:00:00','2028-01-19T07:00:00','2028-02-01T07:00:00','P0Y0M0D','P0Y0M0D',.T.,$,$,$,$,$,0.00);
#129=IFCTASK('0hIcHvXVqWDwj0W7jGy0Rf',#6,'Painting',$,$,'6.7',$,$,$,.F.,$,#128,.CONSTRUCTION.);
#130=IFCTASKTIME('Floor finishes Time',.PREDICTED.,$,.WORKTIME.,'P0Y0M8D','2027-03-01T07:00:00','2027-03-10T07:00:00','2028-02-02T07:00:00','2028-02-11T07:00:00','2028-02-02T07:00:00','2028-02-11T07:00:00','P0Y0M0D','P0Y0M0D',.T.,$,$,$,$,$,0.00);
#131=IFCTASK('1HJI0N4z1dfFhtxa9JudRl',#6,'Floor finishes',$,$,'6.8',$,$,$,.F.,$,#130,.CONSTRUCTION.);
#132=IFCTASKTIME('7. Handover Time',.PREDICTED.,$,.WORKTIME.,'P0Y0M23D','2027-03-01T07:00:00','2027-03-05T07:00:00','2028-02-14T07:00:00','2028-03-15T07:00:00','2028-02-14T07:00:00','2028-03-15T07:00:00','P0Y0M0D','P0Y0M0D',.T.,$,$,$,$,$,0.00);
#133=IFCTASK('3yvHtzE3R36pdDjzVYWh$g',#6,'7. Handover',$,$,'7',$,$,$,.F.,$,#132,.CONSTRUCTION.);
#134=IFCTASKTIME('Site paving Time',.PREDICTED.,$,.WORKTIME.,'P0Y0M8D','2027-03-01T07:00:00','2027-03-10T07:00:00','2028-02-14T07:00:00','2028-02-23T07:00:00','2028-02-14T07:00:00','2028-02-23T07:00:00','P0Y0M0D','P0Y0M0D',.T.,$,$,$,$,$,0.00);
#135=IFCTASK('12tpreglfq6kYATjmc8PV5',#6,'Site paving',$,$,'7.1',$,$,$,.F.,$,#134,.CONSTRUCTION.);
#136=IFCTASKTIME('Landscaping Time',.PREDICTED.,$,.WORKTIME.,'P0Y0M5D','2027-03-01T07:00:00','2027-03-05T07:00:00','2028-02-24T07:00:00','2028-03-01T07:00:00','2028-02-24T07:00:00','2028-03-01T07:00:00','P0Y0M0D','P0Y0M0D',.T.,$,$,$,$,$,0.00);
#137=IFCTASK('3gkhLiZikWd23dOlK73OEf',#6,'Landscaping',$,$,'7.2',$,$,$,.F.,$,#136,.CONSTRUCTION.);
#138=IFCTASKTIME('Cleaning Time',.PREDICTED.,$,.WORKTIME.,'P0Y0M5D','2027-03-01T07:00:00','2027-03-05T07:00:00','2028-03-02T07:00:00','2028-03-08T07:00:00','2028-03-02T07:00:00','2028-03-08T07:00:00','P0Y0M0D','P0Y0M0D',.T.,$,$,$,$,$,0.00);
#139=IFCTASK('0WUJ4_wCIGUmHRDyE8MlxG',#6,'Cleaning',$,$,'7.3',$,$,$,.F.,$,#138,.LOGISTIC.);
#140=IFCTASKTIME('Pre-handover inspection, dwellings Time',.PREDICTED.,$,.WORKTIME.,'P0Y0M5D','2027-03-01T07:00:00','2027-03-05T07:00:00','2028-03-09T07:00:00','2028-03-15T07:00:00','2028-03-09T07:00:00','2028-03-15T07:00:00','P0Y0M0D','P0Y0M0D',.T.,$,$,$,$,$,0.00);
#141=IFCTASK('0T3yc5xzMwEFujnYurL$ZB',#6,'Pre-handover inspection, dwellings',$,$,'7.4',$,$,$,.F.,$,#140,.ATTENDANCE.);
#142=IFCTASKTIME('Handover Time',.PREDICTED.,$,.WORKTIME.,'P0Y0M0D','2027-03-01T07:00:00','2027-03-01T07:00:00','2028-03-15T07:00:00','2028-03-15T07:00:00','2028-03-15T07:00:00','2028-03-15T07:00:00','P0Y0M0D','P0Y0M0D',.T.,$,$,$,$,$,0.00);
#143=IFCTASK('1Bjslyr2SBZ3sLdLQ1oPNh',#6,'Handover',$,$,'7.5',$,$,$,.T.,$,#142,.CONSTRUCTION.);
#144=IFCRELNESTS('1iBaDfelGAta5NqX7Gs4Tz',#6,'WBS 1. Preparation',$,#43,( #45,#47,#49,#51));
#145=IFCRELNESTS('31lQo10HkaAS250ZdR0krk',#6,'WBS 2. Foundations',$,#53,( #55,#57,#59,#61,#63,#65));
#146=IFCRELNESTS('3tJ4mLT3Hifc_7_qojCtY8',#6,'WBS 3. Structural works',$,#67,( #69,#71,#73,#75,#77,#79,#81,#83,#85,#87));
#147=IFCRELNESTS('2ODUl9sAJtfy38Zf$3tOWz',#6,'WBS 4. Facade & roof',$,#89,( #91,#93,#95,#97,#99));
#148=IFCRELNESTS('2l9CCWbQIRZrsN64NjvMm7',#6,'WBS 5. Building services',$,#101,( #103,#105,#107,#109,#111,#113));
#149=IFCRELNESTS('0pFBnpow8dlDRKLtu9mfL_',#6,'WBS 6. Fit-out',$,#115,( #117,#119,#121,#123,#125,#127,#129,#131));
#150=IFCRELNESTS('1UVEMRQoFGcick3vZxiYf0',#6,'WBS 7. Handover',$,#133,( #135,#137,#139,#141,#143));
#151=IFCRELNESTS('1rE2Xt9_Dfvoow4Gvt7jNI',#6,'WBS Hoofd',$,#40,(#43,#53,#67,#89,#101,#115,#133));
#152=IFCRELSEQUENCE('01kL$hxz7KDCjAMr5DOGOE',#6,$,$,#45,#47,$,.FINISH_START.,$);
#153=IFCRELSEQUENCE('0KEVaHSuMIzoJw1QWXc4jt',#6,$,$,#47,#49,$,.FINISH_START.,$);
#154=IFCRELSEQUENCE('3b5JXjTCTw_PryH86peRw$',#6,$,$,#49,#51,$,.FINISH_START.,$);
#155=IFCRELSEQUENCE('0N2Xqgb7Ldj9If38bhm$WN',#6,$,$,#55,#57,$,.FINISH_START.,$);
#156=IFCRELSEQUENCE('0plcvm6upFLFHqTpGKNOT2',#6,$,$,#57,#59,$,.FINISH_START.,$);
#157=IFCRELSEQUENCE('2n8vr9$jysswLZyvLAYWkO',#6,$,$,#59,#61,$,.FINISH_START.,$);
#158=IFCRELSEQUENCE('0912YxvUvvnWDG6jzSejgs',#6,$,$,#61,#63,$,.FINISH_START.,$);
#159=IFCRELSEQUENCE('3$UCtndSjZvS5EXISWzeCi',#6,$,$,#63,#65,$,.FINISH_START.,$);
#160=IFCRELSEQUENCE('3BiXPEWlS_k$5ueZuej3sr',#6,$,$,#69,#71,$,.FINISH_START.,$);
#161=IFCRELSEQUENCE('3jmlh2E$ThCmSM82YqRJNR',#6,$,$,#71,#73,$,.FINISH_START.,$);
#162=IFCRELSEQUENCE('1xZqpiAaEcOGavdnJFtL8V',#6,$,$,#73,#75,$,.FINISH_START.,$);
#163=IFCRELSEQUENCE('1v3GsFZuxHV2O57LhHIjqL',#6,$,$,#75,#77,$,.FINISH_START.,$);
#164=IFCLAGTIME('Lag',.PREDICTED.,$,IFCDURATION('P5D'),.WORKTIME.);
#165=IFCRELSEQUENCE('1Hgbpy9ZnerIXd4VXACD2P',#6,$,$,#77,#79,#164,.START_START.,$);
#166=IFCRELSEQUENCE('0zLwwPKnGFlEy2YRkjrj8X',#6,$,$,#79,#81,$,.FINISH_START.,$);
#167=IFCRELSEQUENCE('36CqMNm6$K3nGeFKXeUvoZ',#6,$,$,#81,#83,$,.FINISH_START.,$);
#168=IFCRELSEQUENCE('2CQDASZTA8tL5wyrom7A9u',#6,$,$,#83,#85,$,.FINISH_START.,$);
#169=IFCRELSEQUENCE('0UtCt072dIHRFeLwScrwMM',#6,$,$,#85,#87,$,.FINISH_START.,$);
#170=IFCRELSEQUENCE('0PJRAoARynovaeP4SH$kVE',#6,$,$,#91,#93,$,.FINISH_START.,$);
#171=IFCRELSEQUENCE('2smPUQCZBvw07Dpu9ecUht',#6,$,$,#93,#95,$,.FINISH_START.,$);
#172=IFCRELSEQUENCE('00z7qL56UVbcEUpXb82oJX',#6,$,$,#95,#97,$,.FINISH_START.,$);
#173=IFCRELSEQUENCE('1FstKEpgYa7ZAmPEu5x_aW',#6,$,$,#97,#99,$,.FINISH_START.,$);
#174=IFCLAGTIME('Lag',.PREDICTED.,$,IFCDURATION('P3D'),.WORKTIME.);
#175=IFCRELSEQUENCE('2UnbyF3f2eKxsccREN$S_X',#6,$,$,#103,#105,#174,.START_START.,$);
#176=IFCRELSEQUENCE('3nUhL2VEBpBLVvhRf0DXZp',#6,$,$,#105,#107,$,.FINISH_START.,$);
#177=IFCRELSEQUENCE('3qdpzBfsZsqB3o5iCjBo4J',#6,$,$,#107,#109,$,.FINISH_START.,$);
#178=IFCRELSEQUENCE('0rvdyKsJO8aSoKUU79i4Ju',#6,$,$,#109,#111,$,.FINISH_START.,$);
#179=IFCRELSEQUENCE('1XQiB$alH4s5FidXvoSfCb',#6,$,$,#111,#113,$,.FINISH_START.,$);
#180=IFCRELSEQUENCE('35MtqoL3xGlpYHg5xvjRJo',#6,$,$,#117,#119,$,.FINISH_START.,$);
#181=IFCRELSEQUENCE('3CmmlNad5I3Oxw8Zci0x38',#6,$,$,#119,#121,$,.FINISH_START.,$);
#182=IFCRELSEQUENCE('2Tyt2KYk4QqCZWIzKRzSMd',#6,$,$,#121,#123,$,.FINISH_START.,$);
#183=IFCRELSEQUENCE('0lY62q8AjyRnqUpx1ZwX9p',#6,$,$,#123,#125,$,.FINISH_START.,$);
#184=IFCRELSEQUENCE('3gbJm0ysAtMXsf3WLAyyXq',#6,$,$,#125,#127,$,.FINISH_START.,$);
#185=IFCRELSEQUENCE('0T36zNersvyVQHc0UIffmN',#6,$,$,#127,#129,$,.FINISH_START.,$);
#186=IFCRELSEQUENCE('0LGwvx57xJN5WKulJuGjdT',#6,$,$,#129,#131,$,.FINISH_START.,$);
#187=IFCRELSEQUENCE('167t7LP8CRrr1ckK33kYVo',#6,$,$,#135,#137,$,.FINISH_START.,$);
#188=IFCRELSEQUENCE('0w7nLwIiIvl04t0fNgl5IK',#6,$,$,#137,#139,$,.FINISH_START.,$);
#189=IFCRELSEQUENCE('2_8NLNuCgOSoatwLTkMrVN',#6,$,$,#139,#141,$,.FINISH_START.,$);
#190=IFCRELSEQUENCE('3o4XNgxYeyzuzRE_mgNFsC',#6,$,$,#141,#143,$,.FINISH_START.,$);
#191=IFCLAGTIME('Lag',.PREDICTED.,$,IFCDURATION('P8D'),.WORKTIME.);
#192=IFCRELSEQUENCE('2yPH8o2OC5mJpBRSNZ6GqI',#6,$,$,#45,#55,#191,.START_START.,$);
#193=IFCLAGTIME('Lag',.PREDICTED.,$,IFCRATIOMEASURE(0.4),.WORKTIME.);
#194=IFCRELSEQUENCE('2FpUsjvnZrrkaj_f9vriWY',#6,$,$,#55,#69,#193,.START_START.,$);
#195=IFCLAGTIME('Lag',.PREDICTED.,$,IFCDURATION('-P21D'),.WORKTIME.);
#196=IFCRELSEQUENCE('35DZugYDMm36EYESjiyF0F',#6,$,$,#85,#91,#195,.FINISH_START.,$);
#197=IFCLAGTIME('Lag',.PREDICTED.,$,IFCDURATION('P2D'),.WORKTIME.);
#198=IFCRELSEQUENCE('1YPSuXdqjLZ_w18ejxyY_M',#6,$,$,#85,#97,#197,.FINISH_FINISH.,$);
#199=IFCRELSEQUENCE('0iG00sO$$gsvXD4pWCHm_T',#6,$,$,#97,#103,$,.FINISH_START.,$);
#200=IFCLAGTIME('Lag',.PREDICTED.,$,IFCDURATION('P30D'),.WORKTIME.);
#201=IFCRELSEQUENCE('1S4QI1QGn63YRD1lwaFdPL',#6,$,$,#103,#117,#200,.START_START.,$);
#202=IFCRELSEQUENCE('2dbxFKZ2kNaylBxIpL$k6d',#6,$,$,#131,#135,$,.FINISH_START.,$);
#203=IFCRELASSIGNSTOCONTROL('0of9KZWfj7u3nHYJtDT6S3',#6,$,$,(#43,#45,#47,#49,#51,#53,#55,#57,#59,#61,#63,#65,#67,#69,#71,#73,#75,#77,#79,#81,#83,#85,#87,#89,#91,#93,#95,#97,#99,#101,#103,#105,#107,#109,#111,#113,#115,#117,#119,#121,#123,#125,#127,#129,#131,#133,#135,#137,#139,#141,#143),$,#40);
#204=IFCPROPERTYSINGLEVALUE('InternalProjectId',$,IFCTEXT('proj-mula80uki6i31490'),$);
#205=IFCPROPERTYSINGLEVALUE('wbsAutoNumber',$,IFCBOOLEAN(.T.),$);
#206=IFCPROPERTYSINGLEVALUE('DefaultTaskDurationUnit',$,IFCLABEL('days'),$);
#207=IFCPROPERTYSINGLEVALUE('ProjectStartDate',$,IFCDATE('2027-03-01'),$);
#208=IFCPROPERTYSINGLEVALUE('ProjectEndDate',$,$,$);
#209=IFCPROPERTYSINGLEVALUE('CreatedAt',$,IFCTEXT('2026-09-28T13:27:20.396Z'),$);
#210=IFCPROPERTYSINGLEVALUE('ModifiedAt',$,IFCTEXT('2026-09-28T13:27:20.398Z'),$);
#211=IFCPROPERTYSET('1LMSglXyRpQFNYHjWl2ZWd',#6,'OPS_ProjectSettings',$,(#204,#205,#206,#207,#208,#209,#210));
#212=IFCRELDEFINESBYPROPERTIES('3dCk2C9$aP38dBXWpi4Zrl',#6,$,$,(#13),#211);
#213=IFCPROPERTYSINGLEVALUE('InternalTaskId',$,IFCTEXT('task-mula80unsdcg1491'),$);
#214=IFCPROPERTYSET('2$$rsnBGv4BljjhSQ9lUV7',#6,'OPS_TaskIdentity',$,(#213));
#215=IFCRELDEFINESBYPROPERTIES('29YtRL5DVoJw7EV59a8_M4',#6,$,$,(#43),#214);
#216=IFCPROPERTYSINGLEVALUE('InternalTaskId',$,IFCTEXT('task-mula80uodrtr1492'),$);
#217=IFCPROPERTYSET('09tja_8XKHg_j7GY0gz1tA',#6,'OPS_TaskIdentity',$,(#216));
#218=IFCRELDEFINESBYPROPERTIES('3ow9TZzn_sJE1EUmBxB19g',#6,$,$,(#45),#217);
#219=IFCPROPERTYSINGLEVALUE('InternalTaskId',$,IFCTEXT('task-mula80uqcjm51493'),$);
#220=IFCPROPERTYSET('1T_kHPLdabBCrjNeFBEmTt',#6,'OPS_TaskIdentity',$,(#219));
#221=IFCRELDEFINESBYPROPERTIES('3gwYrBJljhzXery9WTtU_8',#6,$,$,(#47),#220);
#222=IFCPROPERTYSINGLEVALUE('InternalTaskId',$,IFCTEXT('task-mula80urxb7q1494'),$);
#223=IFCPROPERTYSET('0jR_mF2BCOhftRmseP97uS',#6,'OPS_TaskIdentity',$,(#222));
#224=IFCRELDEFINESBYPROPERTIES('1eVwNJRYaKbtqnVzkkBgxB',#6,$,$,(#49),#223);
#225=IFCPROPERTYSINGLEVALUE('InternalTaskId',$,IFCTEXT('task-mula80utih9x1495'),$);
#226=IFCPROPERTYSET('226N3AeyslG7GLhEr3hkjp',#6,'OPS_TaskIdentity',$,(#225));
#227=IFCRELDEFINESBYPROPERTIES('0F2RJSo3uEHaWdzGjZrlcP',#6,$,$,(#51),#226);
#228=IFCPROPERTYSINGLEVALUE('InternalTaskId',$,IFCTEXT('task-mula80uuxqj71496'),$);
#229=IFCPROPERTYSET('1iOMu3euAbBXLfNCgar3N_',#6,'OPS_TaskIdentity',$,(#228));
#230=IFCRELDEFINESBYPROPERTIES('1lr1z8E1Gld1ow9VueU0sl',#6,$,$,(#53),#229);
#231=IFCPROPERTYSINGLEVALUE('InternalTaskId',$,IFCTEXT('task-mula80uwa5061497'),$);
#232=IFCPROPERTYSET('2ThFbljKKzZWnMnn7gkz1O',#6,'OPS_TaskIdentity',$,(#231));
#233=IFCRELDEFINESBYPROPERTIES('262xoUl6GZZryBXqU_jx9u',#6,$,$,(#55),#232);
#234=IFCPROPERTYSINGLEVALUE('InternalTaskId',$,IFCTEXT('task-mula80uxemna1498'),$);
#235=IFCPROPERTYSET('1P00Az52Sg99Hxzz4g2KVx',#6,'OPS_TaskIdentity',$,(#234));
#236=IFCRELDEFINESBYPROPERTIES('2oSpGrfmBTFnsJIdAQvRay',#6,$,$,(#57),#235);
#237=IFCPROPERTYSINGLEVALUE('InternalTaskId',$,IFCTEXT('task-mula80uz8n771499'),$);
#238=IFCPROPERTYSET('0CMSyAKm1DpHEzCCMbIqJs',#6,'OPS_TaskIdentity',$,(#237));
#239=IFCRELDEFINESBYPROPERTIES('1gGg27myASPjpz24O3llNI',#6,$,$,(#59),#238);
#240=IFCPROPERTYSINGLEVALUE('InternalTaskId',$,IFCTEXT('task-mula80v1ojv51500'),$);
#241=IFCPROPERTYSET('280kwHH3q$OcJwep_HwqFK',#6,'OPS_TaskIdentity',$,(#240));
#242=IFCRELDEFINESBYPROPERTIES('37GTya08YzpjRhdTz$Zt$T',#6,$,$,(#61),#241);
#243=IFCPROPERTYSINGLEVALUE('InternalTaskId',$,IFCTEXT('task-mula80v3mso01501'),$);
#244=IFCPROPERTYSET('0udji_6TRkBrW4akQzYGYm',#6,'OPS_TaskIdentity',$,(#243));
#245=IFCRELDEFINESBYPROPERTIES('2Z3jEVf6A4gmrA3FiJ3xbK',#6,$,$,(#63),#244);
#246=IFCPROPERTYSINGLEVALUE('InternalTaskId',$,IFCTEXT('task-mula80v5jy2l1502'),$);
#247=IFCPROPERTYSET('36$_QiYtIhYVhWdJ6zcvmF',#6,'OPS_TaskIdentity',$,(#246));
#248=IFCRELDEFINESBYPROPERTIES('3F6_OHaGwMW7t4BClFpAIb',#6,$,$,(#65),#247);
#249=IFCPROPERTYSINGLEVALUE('InternalTaskId',$,IFCTEXT('task-mula80v7xa471503'),$);
#250=IFCPROPERTYSET('0bPiOCLJ0fiJDIOmtaFKYr',#6,'OPS_TaskIdentity',$,(#249));
#251=IFCRELDEFINESBYPROPERTIES('2S3KZ8_HvfsDkfRn2Lpegs',#6,$,$,(#67),#250);
#252=IFCPROPERTYSINGLEVALUE('InternalTaskId',$,IFCTEXT('task-mula80v8oq2i1504'),$);
#253=IFCPROPERTYSET('3VQX67aTjfnKnhLBmPvQae',#6,'OPS_TaskIdentity',$,(#252));
#254=IFCRELDEFINESBYPROPERTIES('3grWphUUrPS4fN30uQftom',#6,$,$,(#69),#253);
#255=IFCPROPERTYSINGLEVALUE('InternalTaskId',$,IFCTEXT('task-mula80va5dml1505'),$);
#256=IFCPROPERTYSET('25KxHle$YQDPNK4Doygoag',#6,'OPS_TaskIdentity',$,(#255));
#257=IFCRELDEFINESBYPROPERTIES('22e2h2dqz0uhQSJekvLx5G',#6,$,$,(#71),#256);
#258=IFCPROPERTYSINGLEVALUE('InternalTaskId',$,IFCTEXT('task-mula80vcsacx1506'),$);
#259=IFCPROPERTYSET('2h0JsB2IWfdJZctLF7CpLA',#6,'OPS_TaskIdentity',$,(#258));
#260=IFCRELDEFINESBYPROPERTIES('22WoZBOKJYVhbes7$ttjw0',#6,$,$,(#73),#259);
#261=IFCPROPERTYSINGLEVALUE('InternalTaskId',$,IFCTEXT('task-mula80ve7ob11507'),$);
#262=IFCPROPERTYSET('24uS3P2rIhQUkruJsONSBw',#6,'OPS_TaskIdentity',$,(#261));
#263=IFCRELDEFINESBYPROPERTIES('2Hdzh13WpfnYr02olK36kN',#6,$,$,(#75),#262);
#264=IFCPROPERTYSINGLEVALUE('InternalTaskId',$,IFCTEXT('task-mula80vgn9c11508'),$);
#265=IFCPROPERTYSET('1tGCMLoiOXXLV$1_1vzhDf',#6,'OPS_TaskIdentity',$,(#264));
#266=IFCRELDEFINESBYPROPERTIES('2E9XWkiWkUtDAEkGl3e0y1',#6,$,$,(#77),#265);
#267=IFCPROPERTYSINGLEVALUE('InternalTaskId',$,IFCTEXT('task-mula80vh0zxz1509'),$);
#268=IFCPROPERTYSET('1Bvh3jB7wWzrp0YIHA14Of',#6,'OPS_TaskIdentity',$,(#267));
#269=IFCRELDEFINESBYPROPERTIES('3zv3itgBB$X2D9eSdGvgCR',#6,$,$,(#79),#268);
#270=IFCPROPERTYSINGLEVALUE('InternalTaskId',$,IFCTEXT('task-mula80vjuegv1510'),$);
#271=IFCPROPERTYSET('3_NmeA7QIq4B$meE4BOtXD',#6,'OPS_TaskIdentity',$,(#270));
#272=IFCRELDEFINESBYPROPERTIES('3T2mAeZWChO0bq1I_AjDGG',#6,$,$,(#81),#271);
#273=IFCPROPERTYSINGLEVALUE('InternalTaskId',$,IFCTEXT('task-mula80vkdyc31511'),$);
#274=IFCPROPERTYSET('2pthUNx8HI5MnSG$dvXbBD',#6,'OPS_TaskIdentity',$,(#273));
#275=IFCRELDEFINESBYPROPERTIES('3nrBYeojD4ZBnf626IW3hH',#6,$,$,(#83),#274);
#276=IFCPROPERTYSINGLEVALUE('InternalTaskId',$,IFCTEXT('task-mula80vmabbv1512'),$);
#277=IFCPROPERTYSET('3eoS1RsL1eSnYsai2Pm0Tn',#6,'OPS_TaskIdentity',$,(#276));
#278=IFCRELDEFINESBYPROPERTIES('20VBrIAEbBqqU03IzGVcHs',#6,$,$,(#85),#277);
#279=IFCPROPERTYSINGLEVALUE('InternalTaskId',$,IFCTEXT('task-mula80voqoab1513'),$);
#280=IFCPROPERTYSET('2CWVQtl3BIFAckE3BPDThU',#6,'OPS_TaskIdentity',$,(#279));
#281=IFCRELDEFINESBYPROPERTIES('1bMMbtX36rF3qUCKMm43AI',#6,$,$,(#87),#280);
#282=IFCPROPERTYSINGLEVALUE('InternalTaskId',$,IFCTEXT('task-mula80vq3ik91514'),$);
#283=IFCPROPERTYSET('1O5TLBXm5FEazQCzWKVxav',#6,'OPS_TaskIdentity',$,(#282));
#284=IFCRELDEFINESBYPROPERTIES('2mDehgoZG7UtS_ADZzZok4',#6,$,$,(#89),#283);
#285=IFCPROPERTYSINGLEVALUE('InternalTaskId',$,IFCTEXT('task-mula80vsuhlb1515'),$);
#286=IFCPROPERTYSET('1qwtZGeU_NQinWxrYTSd$$',#6,'OPS_TaskIdentity',$,(#285));
#287=IFCRELDEFINESBYPROPERTIES('2zTs2F52rrHlkRNHa1Ba7I',#6,$,$,(#91),#286);
#288=IFCPROPERTYSINGLEVALUE('InternalTaskId',$,IFCTEXT('task-mula80vu6upm1516'),$);
#289=IFCPROPERTYSET('1N2sgToud0NY1rqQFgxNrn',#6,'OPS_TaskIdentity',$,(#288));
#290=IFCRELDEFINESBYPROPERTIES('3hLATG0Rkh6BgnJbcUJDLW',#6,$,$,(#93),#289);
#291=IFCPROPERTYSINGLEVALUE('InternalTaskId',$,IFCTEXT('task-mula80vwyemj1517'),$);
#292=IFCPROPERTYSET('2_bAUNzdeMUg6eBbwLq8lY',#6,'OPS_TaskIdentity',$,(#291));
#293=IFCRELDEFINESBYPROPERTIES('3P3LP9agCtveBkew$1iKR5',#6,$,$,(#95),#292);
#294=IFCPROPERTYSINGLEVALUE('InternalTaskId',$,IFCTEXT('task-mula80vzx2zb1518'),$);
#295=IFCPROPERTYSET('2Vz7H0NSABO5y995rM3Vsc',#6,'OPS_TaskIdentity',$,(#294));
#296=IFCRELDEFINESBYPROPERTIES('2wIzkK7gn$jBGi3rpPrBM1',#6,$,$,(#97),#295);
#297=IFCPROPERTYSINGLEVALUE('InternalTaskId',$,IFCTEXT('task-mula80w1gzfv1519'),$);
#298=IFCPROPERTYSET('2vkMfknYR_HGgLwIwynmb6',#6,'OPS_TaskIdentity',$,(#297));
#299=IFCRELDEFINESBYPROPERTIES('1Us_69ExyTASgZNKLgiBN6',#6,$,$,(#99),#298);
#300=IFCPROPERTYSINGLEVALUE('InternalTaskId',$,IFCTEXT('task-mula80w3avp81520'),$);
#301=IFCPROPERTYSET('3nqBPRy7NBqXxYIw6Y2KDS',#6,'OPS_TaskIdentity',$,(#300));
#302=IFCRELDEFINESBYPROPERTIES('1MgBJlk4RE79rhVKscJ6V$',#6,$,$,(#101),#301);
#303=IFCPROPERTYSINGLEVALUE('InternalTaskId',$,IFCTEXT('task-mula80w6jcyh1521'),$);
#304=IFCPROPERTYSET('1pCDk1g$$vgImx5jBQgWrf',#6,'OPS_TaskIdentity',$,(#303));
#305=IFCRELDEFINESBYPROPERTIES('2eEnt_ID14PdFeXkLFrXYk',#6,$,$,(#103),#304);
#306=IFCPROPERTYSINGLEVALUE('InternalTaskId',$,IFCTEXT('task-mula80w8hn1w1522'),$);
#307=IFCPROPERTYSET('3_lyPxv695XxMq3pZXYjbl',#6,'OPS_TaskIdentity',$,(#306));
#308=IFCRELDEFINESBYPROPERTIES('15RZz6s_1EjXkrSsOpVB5R',#6,$,$,(#105),#307);
#309=IFCPROPERTYSINGLEVALUE('InternalTaskId',$,IFCTEXT('task-mula80wao9311523'),$);
#310=IFCPROPERTYSET('0GuomIbigcQwHzs26MFCR3',#6,'OPS_TaskIdentity',$,(#309));
#311=IFCRELDEFINESBYPROPERTIES('3O27JKHY$hd7NRaxyo66FE',#6,$,$,(#107),#310);
#312=IFCPROPERTYSINGLEVALUE('InternalTaskId',$,IFCTEXT('task-mula80wd0zku1524'),$);
#313=IFCPROPERTYSET('1cYU8mmN4QOX0gMaKiNULm',#6,'OPS_TaskIdentity',$,(#312));
#314=IFCRELDEFINESBYPROPERTIES('0$5ZK6JYDOVyYIB6k0haMt',#6,$,$,(#109),#313);
#315=IFCPROPERTYSINGLEVALUE('InternalTaskId',$,IFCTEXT('task-mula80wf4k2j1525'),$);
#316=IFCPROPERTYSET('0j3mAD4ElcKzg5zu3LvVxx',#6,'OPS_TaskIdentity',$,(#315));
#317=IFCRELDEFINESBYPROPERTIES('0trTcK_WQ2oTB$Ss6CC_QV',#6,$,$,(#111),#316);
#318=IFCPROPERTYSINGLEVALUE('InternalTaskId',$,IFCTEXT('task-mula80wiy99i1526'),$);
#319=IFCPROPERTYSET('3N8KRUmew3WqI8GIWTtb6l',#6,'OPS_TaskIdentity',$,(#318));
#320=IFCRELDEFINESBYPROPERTIES('1_fSyW8EUGnrxjqzWC4wja',#6,$,$,(#113),#319);
#321=IFCPROPERTYSINGLEVALUE('InternalTaskId',$,IFCTEXT('task-mula80wkno8a1527'),$);
#322=IFCPROPERTYSET('2hL69OMKrVGStZwQztvym4',#6,'OPS_TaskIdentity',$,(#321));
#323=IFCRELDEFINESBYPROPERTIES('2wp2R9kfDS8pY1UHLTOUJH',#6,$,$,(#115),#322);
#324=IFCPROPERTYSINGLEVALUE('InternalTaskId',$,IFCTEXT('task-mula80wm3azv1528'),$);
#325=IFCPROPERTYSET('22FYeKqKJF78GjGaCtsMCx',#6,'OPS_TaskIdentity',$,(#324));
#326=IFCRELDEFINESBYPROPERTIES('158LPaL28YBxNnb0xaimKM',#6,$,$,(#117),#325);
#327=IFCPROPERTYSINGLEVALUE('InternalTaskId',$,IFCTEXT('task-mula80wo3cj71529'),$);
#328=IFCPROPERTYSET('2gtiLJf3tHPBywV8Pel2Y9',#6,'OPS_TaskIdentity',$,(#327));
#329=IFCRELDEFINESBYPROPERTIES('2j8RbcG3O1cmUzsUcPJ$tI',#6,$,$,(#119),#328);
#330=IFCPROPERTYSINGLEVALUE('InternalTaskId',$,IFCTEXT('task-mula80wq4ru81530'),$);
#331=IFCPROPERTYSET('0RJfzdwpn6NnPDhWD6pA8S',#6,'OPS_TaskIdentity',$,(#330));
#332=IFCRELDEFINESBYPROPERTIES('2Mm1R7PkJk7D3egjn2R6IC',#6,$,$,(#121),#331);
#333=IFCPROPERTYSINGLEVALUE('InternalTaskId',$,IFCTEXT('task-mula80ws4za31531'),$);
#334=IFCPROPERTYSET('3Xm2C7bmTbuy7r1CwoMlc0',#6,'OPS_TaskIdentity',$,(#333));
#335=IFCRELDEFINESBYPROPERTIES('0inFRV9$1yPy81$6Y9lJX5',#6,$,$,(#123),#334);
#336=IFCPROPERTYSINGLEVALUE('InternalTaskId',$,IFCTEXT('task-mula80wuosp91532'),$);
#337=IFCPROPERTYSET('2KF7DPSGNDwwNcPWVhm5xY',#6,'OPS_TaskIdentity',$,(#336));
#338=IFCRELDEFINESBYPROPERTIES('3ThDC60K5TqCbr1SQJrI91',#6,$,$,(#125),#337);
#339=IFCPROPERTYSINGLEVALUE('InternalTaskId',$,IFCTEXT('task-mula80wwbtte1533'),$);
#340=IFCPROPERTYSET('1s$sOa_CHmAQDifDwiD$ec',#6,'OPS_TaskIdentity',$,(#339));
#341=IFCRELDEFINESBYPROPERTIES('2n1vhtdLjU$4wl0fVrdOQC',#6,$,$,(#127),#340);
#342=IFCPROPERTYSINGLEVALUE('InternalTaskId',$,IFCTEXT('task-mula80wz8e5l1534'),$);
#343=IFCPROPERTYSET('2wVw1hy57OERagAuJmjuja',#6,'OPS_TaskIdentity',$,(#342));
#344=IFCRELDEFINESBYPROPERTIES('2OIPCvyxYBix536_pi0To9',#6,$,$,(#129),#343);
#345=IFCPROPERTYSINGLEVALUE('InternalTaskId',$,IFCTEXT('task-mula80x1zgoe1535'),$);
#346=IFCPROPERTYSET('2KtE0FsS_GSe1EvfO4xxRP',#6,'OPS_TaskIdentity',$,(#345));
#347=IFCRELDEFINESBYPROPERTIES('0HqZ_6sf1fd0k6jfJqFMB_',#6,$,$,(#131),#346);
#348=IFCPROPERTYSINGLEVALUE('InternalTaskId',$,IFCTEXT('task-mula80x4poxk1536'),$);
#349=IFCPROPERTYSET('0Zx5KlnzUXF$hNZUITZLzU',#6,'OPS_TaskIdentity',$,(#348));
#350=IFCRELDEFINESBYPROPERTIES('0TFNld_l5sDFRIKK4yhIXw',#6,$,$,(#133),#349);
#351=IFCPROPERTYSINGLEVALUE('InternalTaskId',$,IFCTEXT('task-mula80x6bz3k1537'),$);
#352=IFCPROPERTYSET('2U7pfnbx5kfVM5PQzScQ1S',#6,'OPS_TaskIdentity',$,(#351));
#353=IFCRELDEFINESBYPROPERTIES('1SW3E_NPSRU8welq2Nh2LN',#6,$,$,(#135),#352);
#354=IFCPROPERTYSINGLEVALUE('InternalTaskId',$,IFCTEXT('task-mula80x96fly1538'),$);
#355=IFCPROPERTYSET('3go5i14S$qj7BG9w5wVtFp',#6,'OPS_TaskIdentity',$,(#354));
#356=IFCRELDEFINESBYPROPERTIES('0s2xOtuIcdi7nHhYIg$u6B',#6,$,$,(#137),#355);
#357=IFCPROPERTYSINGLEVALUE('InternalTaskId',$,IFCTEXT('task-mula80xb7hz11539'),$);
#358=IFCPROPERTYSET('2NcHclBBOp7RBgDYIMeaUz',#6,'OPS_TaskIdentity',$,(#357));
#359=IFCRELDEFINESBYPROPERTIES('1Em51N4LlL5$iQbVHns3hW',#6,$,$,(#139),#358);
#360=IFCPROPERTYSINGLEVALUE('InternalTaskId',$,IFCTEXT('task-mula80xe2r0b1540'),$);
#361=IFCPROPERTYSET('2kBO7ImlmyB3fYK60t1NQU',#6,'OPS_TaskIdentity',$,(#360));
#362=IFCRELDEFINESBYPROPERTIES('1f2BrsFCMGT6oRI$gVeWWC',#6,$,$,(#141),#361);
#363=IFCPROPERTYSINGLEVALUE('InternalTaskId',$,IFCTEXT('task-mula80xg3lks1541'),$);
#364=IFCPROPERTYSET('3sLVVC91wPhGmyKTGeWLqE',#6,'OPS_TaskIdentity',$,(#363));
#365=IFCRELDEFINESBYPROPERTIES('2DLsXJA1MoNpEG4mcDa7lB',#6,$,$,(#143),#364);
#366=IFCPROPERTYSINGLEVALUE('MilestoneKind',$,IFCLABEL('START'),$);
#367=IFCPROPERTYSET('2GmCusB2hgWcv3DWyHWs1a',#6,'OPS_Milestone',$,(#366));
#368=IFCRELDEFINESBYPROPERTIES('2_blBe6bn$BBWE0uoyZV9B',#6,$,$,(#51),#367);
#369=IFCPROPERTYSINGLEVALUE('MilestoneKind',$,IFCLABEL('FINISH'),$);
#370=IFCPROPERTYSET('2ZufVnHEsIecg6nSsx42EV',#6,'OPS_Milestone',$,(#369));
#371=IFCRELDEFINESBYPROPERTIES('2JM3MWbEC3_nA$OvUXh$01',#6,$,$,(#87),#370);
#372=IFCPROPERTYSINGLEVALUE('MilestoneKind',$,IFCLABEL('FINISH'),$);
#373=IFCPROPERTYSET('2ZjQ0w9x3GNkB6$EGa7yJh',#6,'OPS_Milestone',$,(#372));
#374=IFCRELDEFINESBYPROPERTIES('0ZrZzdkJwLWSvh3WLbg_eo',#6,$,$,(#99),#373);
#375=IFCPROPERTYSINGLEVALUE('MilestoneKind',$,IFCLABEL('FINISH'),$);
#376=IFCPROPERTYSINGLEVALUE('Mandatory',$,IFCBOOLEAN(.T.),$);
#377=IFCPROPERTYSET('0hXKqT$Duq4nc$nIlSnN9V',#6,'OPS_Milestone',$,(#375,#376));
#378=IFCRELDEFINESBYPROPERTIES('36pLxWHNWWpu8HwgxUWJhQ',#6,$,$,(#143),#377);
ENDSEC;
END-ISO-10303-21;
