ISO-10303-21;
HEADER;
FILE_DESCRIPTION(('ViewDefinition [SchedulingView]'),'2;1');
FILE_NAME('Stationsplein Car Park, Utrecht.ifc','2026-09-28T13:27:21',('Robert Visser'),('Underground Construction BV'),'Open Planner Studio 0.1','Open Planner Studio','');
FILE_SCHEMA(('IFC4X3'));
ENDSEC;
DATA;
#1=IFCPERSON($,'Robert Visser',$,$,$,$,$,$);
#2=IFCORGANIZATION($,'Underground Construction BV',$,$,$);
#3=IFCPERSONANDORGANIZATION(#1,#2,$);
#4=IFCORGANIZATION($,'OpenAEC Foundation',$,$,$);
#5=IFCAPPLICATION(#4,'0.2','Open Planner Studio','OPS');
#6=IFCOWNERHISTORY(#3,#5,$,.NOCHANGE.,$,$,$,1790602041);
#7=IFCSIUNIT(*,.LENGTHUNIT.,$,.METRE.);
#8=IFCSIUNIT(*,.TIMEUNIT.,$,.SECOND.);
#9=IFCUNITASSIGNMENT((#7,#8));
#10=IFCCARTESIANPOINT((0.,0.,0.));
#11=IFCAXIS2PLACEMENT3D(#10,$,$);
#12=IFCGEOMETRICREPRESENTATIONCONTEXT($,'Plan',3,1.0E-05,#11,$);
#13=IFCPROJECT('0wsBU7SmAFPN8zfkxep5lN',#6,'Stationsplein Car Park, Utrecht','Three-level underground car park, 400 spaces',$,$,$,(#12),#9);
#14=IFCTIMEPERIOD('07:00:00','16:00:00');
#15=IFCRECURRENCEPATTERN(.WEEKLY.,$,(1,2,3,4,5),$,$,$,$,(#14));
#16=IFCWORKTIME('Standard work week',.PREDICTED.,$,#15,$,$);
#17=IFCWORKTIME('New Year''s Day',.PREDICTED.,$,$,'2027-01-01','2027-01-01');
#18=IFCWORKTIME('Good Friday',.PREDICTED.,$,$,'2027-03-26','2027-03-26');
#19=IFCWORKTIME('Easter',.PREDICTED.,$,$,'2027-03-28','2027-03-29');
#20=IFCWORKTIME('King''s Day',.PREDICTED.,$,$,'2027-04-27','2027-04-27');
#21=IFCWORKTIME('Liberation Day',.PREDICTED.,$,$,'2027-05-05','2027-05-05');
#22=IFCWORKTIME('Ascension Day',.PREDICTED.,$,$,'2027-05-06','2027-05-06');
#23=IFCWORKTIME('Whitsun',.PREDICTED.,$,$,'2027-05-16','2027-05-17');
#24=IFCWORKTIME('Christmas',.PREDICTED.,$,$,'2027-12-25','2027-12-26');
#25=IFCWORKTIME('Construction holiday (northern region)',.PREDICTED.,$,$,'2027-07-26','2027-08-15');
#26=IFCWORKTIME('New Year''s Day',.PREDICTED.,$,$,'2028-01-01','2028-01-01');
#27=IFCWORKTIME('Good Friday',.PREDICTED.,$,$,'2028-04-14','2028-04-14');
#28=IFCWORKTIME('Easter',.PREDICTED.,$,$,'2028-04-16','2028-04-17');
#29=IFCWORKTIME('King''s Day',.PREDICTED.,$,$,'2028-04-27','2028-04-27');
#30=IFCWORKTIME('Liberation Day',.PREDICTED.,$,$,'2028-05-05','2028-05-05');
#31=IFCWORKTIME('Ascension Day',.PREDICTED.,$,$,'2028-05-25','2028-05-25');
#32=IFCWORKTIME('Whitsun',.PREDICTED.,$,$,'2028-06-04','2028-06-05');
#33=IFCWORKTIME('Christmas',.PREDICTED.,$,$,'2028-12-25','2028-12-26');
#34=IFCWORKTIME('Construction holiday (northern region)',.PREDICTED.,$,$,'2028-07-24','2028-08-13');
#35=IFCWORKCALENDAR('0BrPJ4N84RN8_HUbwaHvm9',#6,'Construction calendar NL','Standard construction calendar: Mon-Fri 07:00-16:00',$,(#16),(#17,#18,#19,#20,#21,#22,#23,#24,#25,#26,#27,#28,#29,#30,#31,#32,#33,#34),.FIRSTSHIFT.);
#36=IFCPROPERTYSINGLEVALUE('HoursPerDay',$,IFCREAL(8),$);
#37=IFCPROPERTYSET('3gF4HpkBHcznK2j1kRkh71',#6,'OPS_Calendar',$,(#36));
#38=IFCRELDEFINESBYPROPERTIES('1kDRrbySHOG17PAIFNXJlW',#6,$,$,(#35),#37);
#39=IFCWORKPLAN('3VfycMZQ0M4GWf98yuH57O',#6,'Stationsplein Car Park, Utrecht','Three-level underground car park, 400 spaces',$,$,'2026-09-28T13:27:21',$,$,$,$,$,'2027-03-01T07:00:00','2027-03-26T07:00:00',.PLANNED.);
#40=IFCWORKSCHEDULE('2zxwNTvuBuTPAWEwz1xyAS',#6,'Construction schedule v1.0',$,$,$,'2026-09-28T13:27:21',$,$,$,$,$,'2027-03-01T07:00:00','2027-03-26T07:00:00',.PLANNED.);
#41=IFCRELAGGREGATES('3hQqSupm6s6iK_8vsCqi8V',#6,$,$,#39,(#40));
#42=IFCTASKTIME('1. Preparation Time',.PREDICTED.,$,.WORKTIME.,'P0Y0M24D','2027-03-01T07:00:00','2027-03-05T07:00:00','2027-03-01T07:00:00','2027-04-05T07:00:00','2027-03-01T07:00:00','2027-12-17T07:00:00','P0Y0M0D','P0Y0M0D',.T.,$,$,$,$,$,0.00);
#43=IFCTASK('1TvPJy$Sr9ZVrnUDH$kTaV',#6,'1. Preparation',$,$,'1',$,$,$,.F.,$,#42,.CONSTRUCTION.);
#44=IFCTASKTIME('Divert cables and pipes Time',.PREDICTED.,$,.WORKTIME.,'P0Y0M10D','2027-03-01T07:00:00','2027-03-12T07:00:00','2027-03-01T07:00:00','2027-03-12T07:00:00','2027-03-01T07:00:00','2027-03-12T07:00:00','P0Y0M0D','P0Y0M0D',.T.,$,$,$,$,$,0.00);
#45=IFCTASK('3HjthMT_lOsgWBEfNWgRwu',#6,'Divert cables and pipes',$,$,'1.1',$,$,$,.F.,$,#44,.INSTALLATION.);
#46=IFCTASKTIME('Set up site Time',.PREDICTED.,$,.WORKTIME.,'P0Y0M5D','2027-03-01T07:00:00','2027-03-05T07:00:00','2027-03-15T07:00:00','2027-03-19T07:00:00','2027-11-30T07:00:00','2027-12-06T07:00:00','P0Y0M0D','P0Y0M165D',.F.,$,$,$,$,$,0.00);
#47=IFCTASK('13tDjcakoGD1WJLQRNCpC5',#6,'Set up site',$,$,'1.2',$,$,$,.F.,$,#46,.LOGISTIC.);
#48=IFCTASKTIME('Environmental monitoring Time',.PREDICTED.,$,.WORKTIME.,'P0Y0M3D','2027-03-01T07:00:00','2027-03-03T07:00:00','2027-03-22T07:00:00','2027-03-24T07:00:00','2027-12-07T07:00:00','2027-12-09T07:00:00','P0Y0M0D','P0Y0M165D',.F.,$,$,$,$,$,0.00);
#49=IFCTASK('0MTc4VFiCxJ8fH6$PgGzSA',#6,'Environmental monitoring',$,$,'1.3',$,$,$,.F.,$,#48,.ATTENDANCE.);
#50=IFCTASKTIME('Traffic management Time',.PREDICTED.,$,.WORKTIME.,'P0Y0M5D','2027-03-01T07:00:00','2027-03-05T07:00:00','2027-03-25T07:00:00','2027-04-02T07:00:00','2027-12-10T07:00:00','2027-12-16T07:00:00','P0Y0M0D','P0Y0M165D',.F.,$,$,$,$,$,0.00);
#51=IFCTASK('29$dPA4SAjDIKvXQfbWuyS',#6,'Traffic management',$,$,'1.4',$,$,$,.F.,$,#50,.LOGISTIC.);
#52=IFCTASKTIME('Start of construction Time',.PREDICTED.,$,.WORKTIME.,'P0Y0M0D','2027-03-01T07:00:00','2027-03-01T07:00:00','2027-04-05T07:00:00','2027-04-05T07:00:00','2027-12-17T07:00:00','2027-12-17T07:00:00','P0Y0M165D','P0Y0M165D',.F.,$,$,$,$,$,0.00);
#53=IFCTASK('3TQduHSDhxfe57CAgW88VA',#6,'Start of construction',$,$,'1.5',$,$,$,.T.,$,#52,.CONSTRUCTION.);
#54=IFCTASKTIME('2. Excavation pit Time',.PREDICTED.,$,.WORKTIME.,'P0Y0M88D','2027-03-01T07:00:00','2027-03-05T07:00:00','2027-03-17T07:00:00','2027-08-16T07:00:00','2027-03-17T07:00:00','2027-12-17T07:00:00','P0Y0M0D','P0Y0M0D',.T.,$,$,$,$,$,0.00);
#55=IFCTASK('39XkZNTUXWKvnsgRL$_l2t',#6,'2. Excavation pit',$,$,'2',$,$,$,.F.,$,#54,.CONSTRUCTION.);
#56=IFCTASKTIME('Construct diaphragm walls Time',.PREDICTED.,$,.WORKTIME.,'P0Y0M20D','2027-03-01T07:00:00','2027-03-26T07:00:00','2027-03-17T07:00:00','2027-04-15T07:00:00','2027-03-17T07:00:00','2027-04-15T07:00:00','P0Y0M0D','P0Y0M0D',.T.,$,$,$,$,$,0.00);
#57=IFCTASK('3g3QcnwP8macJs1ETYpWpF',#6,'Construct diaphragm walls',$,$,'2.1',$,$,$,.F.,$,#56,.CONSTRUCTION.);
#58=IFCTASKTIME('Struts, level 1 Time',.PREDICTED.,$,.WORKTIME.,'P0Y0M8D','2027-03-01T07:00:00','2027-03-10T07:00:00','2027-04-16T07:00:00','2027-04-28T07:00:00','2027-09-15T07:00:00','2027-09-24T07:00:00','P0Y0M0D','P0Y0M89D',.F.,$,$,$,$,$,0.00);
#59=IFCTASK('3SsVWAZt3McvjkdMJfCocJ',#6,'Struts, level 1',$,$,'2.2',$,$,$,.F.,$,#58,.CONSTRUCTION.);
#60=IFCTASKTIME('Excavate layer 1 Time',.PREDICTED.,$,.WORKTIME.,'P0Y0M10D','2027-03-01T07:00:00','2027-03-12T07:00:00','2027-04-29T07:00:00','2027-05-14T07:00:00','2027-09-27T07:00:00','2027-10-08T07:00:00','P0Y0M0D','P0Y0M89D',.F.,$,$,$,$,$,0.00);
#61=IFCTASK('0ocvyYhuVHNs85AJUF_7fb',#6,'Excavate layer 1',$,$,'2.3',$,$,$,.F.,$,#60,.CONSTRUCTION.);
#62=IFCTASKTIME('Struts, level 2 Time',.PREDICTED.,$,.WORKTIME.,'P0Y0M8D','2027-03-01T07:00:00','2027-03-10T07:00:00','2027-05-18T07:00:00','2027-05-27T07:00:00','2027-10-11T07:00:00','2027-10-20T07:00:00','P0Y0M0D','P0Y0M89D',.F.,$,$,$,$,$,0.00);
#63=IFCTASK('3GuNJqIRpm9mORJXrEobND',#6,'Struts, level 2',$,$,'2.4',$,$,$,.F.,$,#62,.CONSTRUCTION.);
#64=IFCTASKTIME('Excavate layer 2 Time',.PREDICTED.,$,.WORKTIME.,'P0Y0M10D','2027-03-01T07:00:00','2027-03-12T07:00:00','2027-05-28T07:00:00','2027-06-10T07:00:00','2027-10-21T07:00:00','2027-11-03T07:00:00','P0Y0M0D','P0Y0M89D',.F.,$,$,$,$,$,0.00);
#65=IFCTASK('0TE0NP$paJ2xtV8ZOrjqlg',#6,'Excavate layer 2',$,$,'2.5',$,$,$,.F.,$,#64,.CONSTRUCTION.);
#66=IFCTASKTIME('Struts, level 3 Time',.PREDICTED.,$,.WORKTIME.,'P0Y0M8D','2027-03-01T07:00:00','2027-03-10T07:00:00','2027-06-11T07:00:00','2027-06-22T07:00:00','2027-11-04T07:00:00','2027-11-15T07:00:00','P0Y0M0D','P0Y0M89D',.F.,$,$,$,$,$,0.00);
#67=IFCTASK('1k785eA2$rIRLxnqddk9do',#6,'Struts, level 3',$,$,'2.6',$,$,$,.F.,$,#66,.CONSTRUCTION.);
#68=IFCTASKTIME('Excavate layer 3 Time',.PREDICTED.,$,.WORKTIME.,'P0Y0M10D','2027-03-01T07:00:00','2027-03-12T07:00:00','2027-06-23T07:00:00','2027-07-06T07:00:00','2027-11-16T07:00:00','2027-11-29T07:00:00','P0Y0M0D','P0Y0M89D',.F.,$,$,$,$,$,0.00);
#69=IFCTASK('33xj1TFftjB3StDIHrutu_',#6,'Excavate layer 3',$,$,'2.7',$,$,$,.F.,$,#68,.CONSTRUCTION.);
#70=IFCTASKTIME('Underwater concrete slab Time',.PREDICTED.,$,.WORKTIME.,'P0Y0M8D','2027-03-01T07:00:00','2027-03-10T07:00:00','2027-07-07T07:00:00','2027-07-16T07:00:00','2027-11-30T07:00:00','2027-12-09T07:00:00','P0Y0M0D','P0Y0M89D',.F.,$,$,$,$,$,0.00);
#71=IFCTASK('01OuJsUK$zo2QM1$Ft4x6P',#6,'Underwater concrete slab',$,$,'2.8',$,$,$,.F.,$,#70,.CONSTRUCTION.);
#72=IFCTASKTIME('Pump dry Time',.PREDICTED.,$,.WORKTIME.,'P0Y0M5D','2027-03-01T07:00:00','2027-03-05T07:00:00','2027-07-19T07:00:00','2027-07-23T07:00:00','2027-12-10T07:00:00','2027-12-16T07:00:00','P0Y0M0D','P0Y0M89D',.F.,$,$,$,$,$,0.00);
#73=IFCTASK('0bOFU4HxEqVDUIjf2ehioN',#6,'Pump dry',$,$,'2.9',$,$,$,.F.,$,#72,.CONSTRUCTION.);
#74=IFCTASKTIME('Excavation pit dry Time',.PREDICTED.,$,.WORKTIME.,'P0Y0M0D','2027-03-01T07:00:00','2027-03-01T07:00:00','2027-08-16T07:00:00','2027-08-16T07:00:00','2027-12-17T07:00:00','2027-12-17T07:00:00','P0Y0M89D','P0Y0M89D',.F.,$,$,$,$,$,0.00);
#75=IFCTASK('0214HBj2aoln4T4jcxFL1A',#6,'Excavation pit dry',$,$,'2.10',$,$,$,.T.,$,#74,.CONSTRUCTION.);
#76=IFCTASKTIME('3. Concrete structure Time',.PREDICTED.,$,.WORKTIME.,'P0Y0M84D','2027-03-01T07:00:00','2027-03-05T07:00:00','2027-03-31T07:00:00','2027-08-20T07:00:00','2027-03-31T07:00:00','2027-08-20T07:00:00','P0Y0M0D','P0Y0M0D',.T.,$,$,$,$,$,0.00);
#77=IFCTASK('1kjLPLfmJ5HAPvW6Jhv1wA',#6,'3. Concrete structure',$,$,'3',$,$,$,.F.,$,#76,.CONSTRUCTION.);
#78=IFCTASKTIME('Slab at level -3 Time',.PREDICTED.,$,.WORKTIME.,'P0Y0M10D','2027-03-01T07:00:00','2027-03-12T07:00:00','2027-03-31T07:00:00','2027-04-13T07:00:00','2027-03-31T07:00:00','2027-04-13T07:00:00','P0Y0M0D','P0Y0M0D',.T.,$,$,$,$,$,0.00);
#79=IFCTASK('1zAZBX5PB03$iyxQd0o5ec',#6,'Slab at level -3',$,$,'3.1',$,$,$,.F.,$,#78,.CONSTRUCTION.);
#80=IFCTASKTIME('Columns and walls, level -3 Time',.PREDICTED.,$,.WORKTIME.,'P0Y0M8D','2027-03-01T07:00:00','2027-03-10T07:00:00','2027-04-14T07:00:00','2027-04-23T07:00:00','2027-04-14T07:00:00','2027-04-23T07:00:00','P0Y0M0D','P0Y0M0D',.T.,$,$,$,$,$,0.00);
#81=IFCTASK('1tl847V1AVhkrI06R4Z7$$',#6,'Columns and walls, level -3',$,$,'3.2',$,$,$,.F.,$,#80,.CONSTRUCTION.);
#82=IFCTASKTIME('Slab at level -2 Time',.PREDICTED.,$,.WORKTIME.,'P0Y0M10D','2027-03-01T07:00:00','2027-03-12T07:00:00','2027-04-26T07:00:00','2027-05-12T07:00:00','2027-04-26T07:00:00','2027-05-12T07:00:00','P0Y0M0D','P0Y0M0D',.T.,$,$,$,$,$,0.00);
#83=IFCTASK('12bjHRmHKOv1JlozLRF5dV',#6,'Slab at level -2',$,$,'3.3',$,$,$,.F.,$,#82,.CONSTRUCTION.);
#84=IFCTASKTIME('Columns and walls, level -2 Time',.PREDICTED.,$,.WORKTIME.,'P0Y0M8D','2027-03-01T07:00:00','2027-03-10T07:00:00','2027-05-13T07:00:00','2027-05-25T07:00:00','2027-05-13T07:00:00','2027-05-25T07:00:00','P0Y0M0D','P0Y0M0D',.T.,$,$,$,$,$,0.00);
#85=IFCTASK('0nCc98WGB8EXBf_bkqW5nC',#6,'Columns and walls, level -2',$,$,'3.4',$,$,$,.F.,$,#84,.CONSTRUCTION.);
#86=IFCTASKTIME('Slab at level -1 Time',.PREDICTED.,$,.WORKTIME.,'P0Y0M10D','2027-03-01T07:00:00','2027-03-12T07:00:00','2027-05-26T07:00:00','2027-06-08T07:00:00','2027-05-26T07:00:00','2027-06-08T07:00:00','P0Y0M0D','P0Y0M0D',.T.,$,$,$,$,$,0.00);
#87=IFCTASK('04uMtlw44cJmL7J8B3jl2E',#6,'Slab at level -1',$,$,'3.5',$,$,$,.F.,$,#86,.CONSTRUCTION.);
#88=IFCTASKTIME('Columns and walls, level -1 Time',.PREDICTED.,$,.WORKTIME.,'P0Y0M8D','2027-03-01T07:00:00','2027-03-10T07:00:00','2027-06-09T07:00:00','2027-06-18T07:00:00','2027-06-09T07:00:00','2027-06-18T07:00:00','P0Y0M0D','P0Y0M0D',.T.,$,$,$,$,$,0.00);
#89=IFCTASK('3lozCidfD5B9TDp_56cRK9',#6,'Columns and walls, level -1',$,$,'3.6',$,$,$,.F.,$,#88,.CONSTRUCTION.);
#90=IFCTASKTIME('Car park deck Time',.PREDICTED.,$,.WORKTIME.,'P0Y0M12D','2027-03-01T07:00:00','2027-03-16T07:00:00','2027-06-21T07:00:00','2027-07-06T07:00:00','2027-06-21T07:00:00','2027-07-06T07:00:00','P0Y0M0D','P0Y0M0D',.T.,$,$,$,$,$,0.00);
#91=IFCTASK('1FMkm9fp68D6U1cpAsoRDZ',#6,'Car park deck',$,$,'3.7',$,$,$,.F.,$,#90,.CONSTRUCTION.);
#92=IFCTASKTIME('Remove struts Time',.PREDICTED.,$,.WORKTIME.,'P0Y0M8D','2027-03-01T07:00:00','2027-03-10T07:00:00','2027-07-07T07:00:00','2027-07-16T07:00:00','2027-07-07T07:00:00','2027-07-16T07:00:00','P0Y0M0D','P0Y0M0D',.T.,$,$,$,$,$,0.00);
#93=IFCTASK('17uqnPTDcf3ASR$iIBzoyH',#6,'Remove struts',$,$,'3.8',$,$,$,.F.,$,#92,.DEMOLITION.);
#94=IFCTASKTIME('Waterproofing Time',.PREDICTED.,$,.WORKTIME.,'P0Y0M10D','2027-03-01T07:00:00','2027-03-12T07:00:00','2027-07-19T07:00:00','2027-08-20T07:00:00','2027-07-19T07:00:00','2027-08-20T07:00:00','P0Y0M0D','P0Y0M0D',.T.,$,$,$,$,$,0.00);
#95=IFCTASK('3P0HNT0nmDpBEjywfMeqsx',#6,'Waterproofing',$,$,'3.9',$,$,$,.F.,$,#94,.CONSTRUCTION.);
#96=IFCTASKTIME('4. Building services Time',.PREDICTED.,$,.WORKTIME.,'P0Y0M58D','2027-03-01T07:00:00','2027-03-05T07:00:00','2027-07-08T07:00:00','2027-10-18T07:00:00','2027-07-08T07:00:00','2027-10-18T07:00:00','P0Y0M0D','P0Y0M0D',.T.,$,$,$,$,$,0.00);
#97=IFCTASK('2BLP7OqoHRQK0bX5Z1$oWL',#6,'4. Building services',$,$,'4',$,$,$,.F.,$,#96,.INSTALLATION.);
#98=IFCTASKTIME('Main electrical distribution Time',.PREDICTED.,$,.WORKTIME.,'P0Y0M8D','2027-03-01T07:00:00','2027-03-10T07:00:00','2027-07-08T07:00:00','2027-07-19T07:00:00','2027-07-08T07:00:00','2027-07-19T07:00:00','P0Y0M0D','P0Y0M0D',.T.,$,$,$,$,$,0.00);
#99=IFCTASK('3wUBfurDI9fhtdfjUSOvhA',#6,'Main electrical distribution',$,$,'4.1',$,$,$,.F.,$,#98,.INSTALLATION.);
#100=IFCTASKTIME('Lighting, parking levels Time',.PREDICTED.,$,.WORKTIME.,'P0Y0M10D','2027-03-01T07:00:00','2027-03-12T07:00:00','2027-07-20T07:00:00','2027-08-23T07:00:00','2027-07-20T07:00:00','2027-08-23T07:00:00','P0Y0M0D','P0Y0M0D',.T.,$,$,$,$,$,0.00);
#101=IFCTASK('331ielnrBOHPLxJJtASnnL',#6,'Lighting, parking levels',$,$,'4.2',$,$,$,.F.,$,#100,.INSTALLATION.);
#102=IFCTASKTIME('Ventilation and CO detection Time',.PREDICTED.,$,.WORKTIME.,'P0Y0M10D','2027-03-01T07:00:00','2027-03-12T07:00:00','2027-08-24T07:00:00','2027-09-06T07:00:00','2027-08-24T07:00:00','2027-09-06T07:00:00','P0Y0M0D','P0Y0M0D',.T.,$,$,$,$,$,0.00);
#103=IFCTASK('07ePiuPfN5iRhyhDXpsKay',#6,'Ventilation and CO detection',$,$,'4.3',$,$,$,.F.,$,#102,.INSTALLATION.);
#104=IFCTASKTIME('Sprinkler installation Time',.PREDICTED.,$,.WORKTIME.,'P0Y0M8D','2027-03-01T07:00:00','2027-03-10T07:00:00','2027-09-07T07:00:00','2027-09-16T07:00:00','2027-09-07T07:00:00','2027-09-16T07:00:00','P0Y0M0D','P0Y0M0D',.T.,$,$,$,$,$,0.00);
#105=IFCTASK('3oS90HJf4AstHEd8ml0a4E',#6,'Sprinkler installation',$,$,'4.4',$,$,$,.F.,$,#104,.INSTALLATION.);
#106=IFCTASKTIME('Parking guidance system Time',.PREDICTED.,$,.WORKTIME.,'P0Y0M5D','2027-03-01T07:00:00','2027-03-05T07:00:00','2027-09-17T07:00:00','2027-09-23T07:00:00','2027-09-17T07:00:00','2027-09-23T07:00:00','P0Y0M0D','P0Y0M0D',.T.,$,$,$,$,$,0.00);
#107=IFCTASK('2nzBI0_RilU26YfLDHS94Y',#6,'Parking guidance system',$,$,'4.5',$,$,$,.F.,$,#106,.INSTALLATION.);
#108=IFCTASKTIME('Lift installation Time',.PREDICTED.,$,.WORKTIME.,'P0Y0M12D','2027-03-01T07:00:00','2027-03-16T07:00:00','2027-09-24T07:00:00','2027-10-11T07:00:00','2027-09-24T07:00:00','2027-10-11T07:00:00','P0Y0M0D','P0Y0M0D',.T.,$,$,$,$,$,0.00);
#109=IFCTASK('2r_x37w5RqorJSnOucB$lb',#6,'Lift installation',$,$,'4.6',$,$,$,.F.,$,#108,.INSTALLATION.);
#110=IFCTASKTIME('Fire alarm system Time',.PREDICTED.,$,.WORKTIME.,'P0Y0M5D','2027-03-01T07:00:00','2027-03-05T07:00:00','2027-10-12T07:00:00','2027-10-18T07:00:00','2027-10-12T07:00:00','2027-10-18T07:00:00','P0Y0M0D','P0Y0M0D',.T.,$,$,$,$,$,0.00);
#111=IFCTASK('23w_zhv1dYmgNC$TAZsXNs',#6,'Fire alarm system',$,$,'4.7',$,$,$,.F.,$,#110,.INSTALLATION.);
#112=IFCTASKTIME('5. Finishing Time',.PREDICTED.,$,.WORKTIME.,'P0Y0M23D','2027-03-01T07:00:00','2027-03-05T07:00:00','2027-10-19T07:00:00','2027-11-18T07:00:00','2027-10-19T07:00:00','2027-11-18T07:00:00','P0Y0M0D','P0Y0M0D',.T.,$,$,$,$,$,0.00);
#113=IFCTASK('0RfCgdX_5_jD9dH82XEuwY',#6,'5. Finishing',$,$,'5',$,$,$,.F.,$,#112,.CONSTRUCTION.);
#114=IFCTASKTIME('Apply floor coating Time',.PREDICTED.,$,.WORKTIME.,'P0Y0M8D','2027-03-01T07:00:00','2027-03-10T07:00:00','2027-10-19T07:00:00','2027-10-28T07:00:00','2027-10-19T07:00:00','2027-10-28T07:00:00','P0Y0M0D','P0Y0M0D',.T.,$,$,$,$,$,0.00);
#115=IFCTASK('2TI3tkwkZkbr4yTyUOaCtz',#6,'Apply floor coating',$,$,'5.1',$,$,$,.F.,$,#114,.CONSTRUCTION.);
#116=IFCTASKTIME('Road marking and signage Time',.PREDICTED.,$,.WORKTIME.,'P0Y0M5D','2027-03-01T07:00:00','2027-03-05T07:00:00','2027-10-29T07:00:00','2027-11-04T07:00:00','2027-10-29T07:00:00','2027-11-04T07:00:00','P0Y0M0D','P0Y0M0D',.T.,$,$,$,$,$,0.00);
#117=IFCTASK('3ByFVghMNHSrctt33q3orf',#6,'Road marking and signage',$,$,'5.2',$,$,$,.F.,$,#116,.CONSTRUCTION.);
#118=IFCTASKTIME('Access control barriers Time',.PREDICTED.,$,.WORKTIME.,'P0Y0M5D','2027-03-01T07:00:00','2027-03-05T07:00:00','2027-11-05T07:00:00','2027-11-11T07:00:00','2027-11-05T07:00:00','2027-11-11T07:00:00','P0Y0M0D','P0Y0M0D',.T.,$,$,$,$,$,0.00);
#119=IFCTASK('1BFIvNrXIhe67JMYhoDdfH',#6,'Access control barriers',$,$,'5.3',$,$,$,.F.,$,#118,.INSTALLATION.);
#120=IFCTASKTIME('Finish emergency exits Time',.PREDICTED.,$,.WORKTIME.,'P0Y0M5D','2027-03-01T07:00:00','2027-03-05T07:00:00','2027-11-12T07:00:00','2027-11-18T07:00:00','2027-11-12T07:00:00','2027-11-18T07:00:00','P0Y0M0D','P0Y0M0D',.T.,$,$,$,$,$,0.00);
#121=IFCTASK('3edkkPftvkm1Y6ty_rEUFU',#6,'Finish emergency exits',$,$,'5.4',$,$,$,.F.,$,#120,.CONSTRUCTION.);
#122=IFCTASKTIME('6. Surface reinstatement Time',.PREDICTED.,$,.WORKTIME.,'P0Y0M21D','2027-03-01T07:00:00','2027-03-05T07:00:00','2027-11-19T07:00:00','2027-12-17T07:00:00','2027-11-19T07:00:00','2027-12-17T07:00:00','P0Y0M0D','P0Y0M0D',.T.,$,$,$,$,$,0.00);
#123=IFCTASK('1HbUfARiz_i$yNNh9TK70h',#6,'6. Surface reinstatement',$,$,'6',$,$,$,.F.,$,#122,.CONSTRUCTION.);
#124=IFCTASKTIME('Redevelop the square Time',.PREDICTED.,$,.WORKTIME.,'P0Y0M10D','2027-03-01T07:00:00','2027-03-12T07:00:00','2027-11-19T07:00:00','2027-12-02T07:00:00','2027-11-19T07:00:00','2027-12-02T07:00:00','P0Y0M0D','P0Y0M0D',.T.,$,$,$,$,$,0.00);
#125=IFCTASK('3gqeXk7Jru5Hv5A_uZWGca',#6,'Redevelop the square',$,$,'6.1',$,$,$,.F.,$,#124,.CONSTRUCTION.);
#126=IFCTASKTIME('Paving and landscaping Time',.PREDICTED.,$,.WORKTIME.,'P0Y0M8D','2027-03-01T07:00:00','2027-03-10T07:00:00','2027-12-03T07:00:00','2027-12-14T07:00:00','2027-12-03T07:00:00','2027-12-14T07:00:00','P0Y0M0D','P0Y0M0D',.T.,$,$,$,$,$,0.00);
#127=IFCTASK('2uWz8LQetInbHUArP8W97_',#6,'Paving and landscaping',$,$,'6.2',$,$,$,.F.,$,#126,.CONSTRUCTION.);
#128=IFCTASKTIME('Remove traffic management Time',.PREDICTED.,$,.WORKTIME.,'P0Y0M3D','2027-03-01T07:00:00','2027-03-03T07:00:00','2027-12-15T07:00:00','2027-12-17T07:00:00','2027-12-15T07:00:00','2027-12-17T07:00:00','P0Y0M0D','P0Y0M0D',.T.,$,$,$,$,$,0.00);
#129=IFCTASK('1bWrYmxN22Yw_04GwofhUE',#6,'Remove traffic management',$,$,'6.3',$,$,$,.F.,$,#128,.LOGISTIC.);
#130=IFCTASKTIME('Handover Time',.PREDICTED.,$,.WORKTIME.,'P0Y0M0D','2027-03-01T07:00:00','2027-03-01T07:00:00','2027-12-17T07:00:00','2027-12-17T07:00:00','2027-12-17T07:00:00','2027-12-17T07:00:00','P0Y0M0D','P0Y0M0D',.T.,$,$,$,$,$,0.00);
#131=IFCTASK('2Uieuw9ztOyoXnmD_vzud4',#6,'Handover',$,$,'6.4',$,$,$,.T.,$,#130,.CONSTRUCTION.);
#132=IFCRELNESTS('2O5J6gdQi$pA8JPJbQdCIw',#6,'WBS 1. Preparation',$,#43,( #45,#47,#49,#51,#53));
#133=IFCRELNESTS('1LT_AuxGNDmitiUHJYhpQr',#6,'WBS 2. Excavation pit',$,#55,( #57,#59,#61,#63,#65,#67,#69,#71,#73,#75));
#134=IFCRELNESTS('0nLp4MOWR1k9mKX8b$h1dp',#6,'WBS 3. Concrete structure',$,#77,( #79,#81,#83,#85,#87,#89,#91,#93,#95));
#135=IFCRELNESTS('1FfzCI4rCC_1nVDNxtJjIQ',#6,'WBS 4. Building services',$,#97,( #99,#101,#103,#105,#107,#109,#111));
#136=IFCRELNESTS('3$7TUfvkFUiL4_IUCZd7_m',#6,'WBS 5. Finishing',$,#113,( #115,#117,#119,#121));
#137=IFCRELNESTS('1bxQaTqHMbRZom55lYgEV9',#6,'WBS 6. Surface reinstatement',$,#123,( #125,#127,#129,#131));
#138=IFCRELNESTS('21Ker5TdsntZBpbBt0svHQ',#6,'WBS Hoofd',$,#40,(#43,#55,#77,#97,#113,#123));
#139=IFCRELSEQUENCE('15G_xTnXrNWSN6$eAW9np_',#6,$,$,#45,#47,$,.FINISH_START.,$);
#140=IFCRELSEQUENCE('0pZ6Iw81OQzMYf$YIHhs4S',#6,$,$,#47,#49,$,.FINISH_START.,$);
#141=IFCRELSEQUENCE('1bqU8UWKbX1d7TUknBCcav',#6,$,$,#49,#51,$,.FINISH_START.,$);
#142=IFCRELSEQUENCE('2GcWWN6fZEi6ZLV4a2PsKg',#6,$,$,#51,#53,$,.FINISH_START.,$);
#143=IFCRELSEQUENCE('2mMfJPGHomKvWyuiTF0lLC',#6,$,$,#57,#59,$,.FINISH_START.,$);
#144=IFCRELSEQUENCE('3le3l6dJbKGQN2UwqVFPSE',#6,$,$,#59,#61,$,.FINISH_START.,$);
#145=IFCRELSEQUENCE('3$IPmdFLD9vBZEnbicZv_H',#6,$,$,#61,#63,$,.FINISH_START.,$);
#146=IFCRELSEQUENCE('0SBfranXZVfzL4N22kx7NF',#6,$,$,#63,#65,$,.FINISH_START.,$);
#147=IFCRELSEQUENCE('3H6Ey78Sp$VJxELmwBSKlJ',#6,$,$,#65,#67,$,.FINISH_START.,$);
#148=IFCRELSEQUENCE('3RPGCwYBOhM1mD_tGJS11w',#6,$,$,#67,#69,$,.FINISH_START.,$);
#149=IFCRELSEQUENCE('2MLkjlAOCWtST0TBZzAI0a',#6,$,$,#69,#71,$,.FINISH_START.,$);
#150=IFCRELSEQUENCE('1RMp5GrFP8xUDG09YMZUT4',#6,$,$,#71,#73,$,.FINISH_START.,$);
#151=IFCRELSEQUENCE('1Bv0QN1x2cvBahA2caMFom',#6,$,$,#73,#75,$,.FINISH_START.,$);
#152=IFCRELSEQUENCE('3xeSaal47I6p9woq4KECKm',#6,$,$,#79,#81,$,.FINISH_START.,$);
#153=IFCRELSEQUENCE('3UpYnpd4ShqO3m3E3qKsJt',#6,$,$,#81,#83,$,.FINISH_START.,$);
#154=IFCRELSEQUENCE('2kbi2d5b_rQJfvBFzFyRJh',#6,$,$,#83,#85,$,.FINISH_START.,$);
#155=IFCRELSEQUENCE('2dGqi7AlorEV4QuIv0k1O5',#6,$,$,#85,#87,$,.FINISH_START.,$);
#156=IFCRELSEQUENCE('2Zwp3VsWaz27t3g8xe5f9m',#6,$,$,#87,#89,$,.FINISH_START.,$);
#157=IFCRELSEQUENCE('0XKX4_qU7$vziALHYzTWnp',#6,$,$,#89,#91,$,.FINISH_START.,$);
#158=IFCRELSEQUENCE('2rcH4nc4Ug44z2BxdDhKEU',#6,$,$,#91,#93,$,.FINISH_START.,$);
#159=IFCRELSEQUENCE('1GAEhp8JPQpbflkPJjP1Zc',#6,$,$,#93,#95,$,.FINISH_START.,$);
#160=IFCRELSEQUENCE('36e0rUBTXLUTtKkOHMUXee',#6,$,$,#99,#101,$,.FINISH_START.,$);
#161=IFCRELSEQUENCE('2ZxPkMgZZMrUQhEmty5OWz',#6,$,$,#101,#103,$,.FINISH_START.,$);
#162=IFCRELSEQUENCE('2QD7p8iTrRaL8ZPAshxWvo',#6,$,$,#103,#105,$,.FINISH_START.,$);
#163=IFCRELSEQUENCE('3WBJFb1reBqEYMN08PQHxL',#6,$,$,#105,#107,$,.FINISH_START.,$);
#164=IFCRELSEQUENCE('06LpOoZ8Bgbt1UpO11r1g8',#6,$,$,#107,#109,$,.FINISH_START.,$);
#165=IFCRELSEQUENCE('00xgbo__YHkXsjNsSVimhW',#6,$,$,#109,#111,$,.FINISH_START.,$);
#166=IFCRELSEQUENCE('391UWA73Qcjgny3770lIm8',#6,$,$,#115,#117,$,.FINISH_START.,$);
#167=IFCRELSEQUENCE('0jT0o6XpVonCcyo$x4zyfo',#6,$,$,#117,#119,$,.FINISH_START.,$);
#168=IFCRELSEQUENCE('3nrSHVF6MgHALZuLWt4lqk',#6,$,$,#119,#121,$,.FINISH_START.,$);
#169=IFCRELSEQUENCE('3hgW104ubiTwlW7SqQR6Ci',#6,$,$,#125,#127,$,.FINISH_START.,$);
#170=IFCRELSEQUENCE('0wCmpQGWJal6vRAXkDvdBJ',#6,$,$,#127,#129,$,.FINISH_START.,$);
#171=IFCRELSEQUENCE('1kElKTGfxnl2iBd3nTuVS$',#6,$,$,#129,#131,$,.FINISH_START.,$);
#172=IFCLAGTIME('Lag',.PREDICTED.,$,IFCDURATION('P12D'),.WORKTIME.);
#173=IFCRELSEQUENCE('0iGDNR7hk2ZBi3DnQVU$i$',#6,$,$,#45,#57,#172,.START_START.,$);
#174=IFCLAGTIME('Lag',.PREDICTED.,$,IFCRATIOMEASURE(0.4),.WORKTIME.);
#175=IFCRELSEQUENCE('0R2rkN2gs97HThTouD9jvE',#6,$,$,#57,#79,#174,.START_START.,$);
#176=IFCLAGTIME('Lag',.PREDICTED.,$,IFCDURATION('-P17D'),.WORKTIME.);
#177=IFCRELSEQUENCE('2_7T50Z117lVbPLvUZdZJo',#6,$,$,#95,#99,#176,.FINISH_START.,$);
#178=IFCLAGTIME('Lag',.PREDICTED.,$,IFCDURATION('P2D'),.WORKTIME.);
#179=IFCRELSEQUENCE('1bcVs2mNmrCn58F8wFWZA_',#6,$,$,#95,#111,#178,.FINISH_FINISH.,$);
#180=IFCRELSEQUENCE('16WMtyLj1cLI$J4$TVnUp6',#6,$,$,#111,#115,$,.FINISH_START.,$);
#181=IFCRELSEQUENCE('1jJKqbndLYbyK53Hv8KXl8',#6,$,$,#121,#125,$,.FINISH_START.,$);
#182=IFCRELASSIGNSTOCONTROL('3Y0zZ76TpUw6Gqyh1EyzpN',#6,$,$,(#43,#45,#47,#49,#51,#53,#55,#57,#59,#61,#63,#65,#67,#69,#71,#73,#75,#77,#79,#81,#83,#85,#87,#89,#91,#93,#95,#97,#99,#101,#103,#105,#107,#109,#111,#113,#115,#117,#119,#121,#123,#125,#127,#129,#131),$,#40);
#183=IFCPROPERTYSINGLEVALUE('InternalProjectId',$,IFCTEXT('proj-mula81axo1b91694'),$);
#184=IFCPROPERTYSINGLEVALUE('wbsAutoNumber',$,IFCBOOLEAN(.T.),$);
#185=IFCPROPERTYSINGLEVALUE('DefaultTaskDurationUnit',$,IFCLABEL('days'),$);
#186=IFCPROPERTYSINGLEVALUE('ProjectStartDate',$,IFCDATE('2027-03-01'),$);
#187=IFCPROPERTYSINGLEVALUE('ProjectEndDate',$,$,$);
#188=IFCPROPERTYSINGLEVALUE('CreatedAt',$,IFCTEXT('2026-09-28T13:27:20.985Z'),$);
#189=IFCPROPERTYSINGLEVALUE('ModifiedAt',$,IFCTEXT('2026-09-28T13:27:20.988Z'),$);
#190=IFCPROPERTYSET('3pg287Hn1Gy2lS4bjL$ynP',#6,'OPS_ProjectSettings',$,(#183,#184,#185,#186,#187,#188,#189));
#191=IFCRELDEFINESBYPROPERTIES('3z3En9j705XgsNWbRJSmrF',#6,$,$,(#13),#190);
#192=IFCPROPERTYSINGLEVALUE('InternalTaskId',$,IFCTEXT('task-mula81b1u7eb1695'),$);
#193=IFCPROPERTYSET('2w04ptY$wh$Fsd7fptnR9D',#6,'OPS_TaskIdentity',$,(#192));
#194=IFCRELDEFINESBYPROPERTIES('1PrimeQJVzr2$0csY0ucWp',#6,$,$,(#43),#193);
#195=IFCPROPERTYSINGLEVALUE('InternalTaskId',$,IFCTEXT('task-mula81b3h9hy1696'),$);
#196=IFCPROPERTYSET('1TtdbX3kPQbflFWeKssiP5',#6,'OPS_TaskIdentity',$,(#195));
#197=IFCRELDEFINESBYPROPERTIES('3n4MrN$KaY0_fbyvXRvjx$',#6,$,$,(#45),#196);
#198=IFCPROPERTYSINGLEVALUE('InternalTaskId',$,IFCTEXT('task-mula81b5l54x1697'),$);
#199=IFCPROPERTYSET('3z6x97Bc5Y$CHQHVVtM8b9',#6,'OPS_TaskIdentity',$,(#198));
#200=IFCRELDEFINESBYPROPERTIES('1w5c3mcU$ZQUDfaNinbvYs',#6,$,$,(#47),#199);
#201=IFCPROPERTYSINGLEVALUE('InternalTaskId',$,IFCTEXT('task-mula81b6fis91698'),$);
#202=IFCPROPERTYSET('306VF_uDC7tXbPU$YsAWhw',#6,'OPS_TaskIdentity',$,(#201));
#203=IFCRELDEFINESBYPROPERTIES('0H0YnID4jVKsYVxLoDL__F',#6,$,$,(#49),#202);
#204=IFCPROPERTYSINGLEVALUE('InternalTaskId',$,IFCTEXT('task-mula81b70ipl1699'),$);
#205=IFCPROPERTYSET('01VjdcPxcyifDq_rT$R8Zx',#6,'OPS_TaskIdentity',$,(#204));
#206=IFCRELDEFINESBYPROPERTIES('1yoXzN9vmfWsKf57PENeHO',#6,$,$,(#51),#205);
#207=IFCPROPERTYSINGLEVALUE('InternalTaskId',$,IFCTEXT('task-mula81b98j8i1700'),$);
#208=IFCPROPERTYSET('0ofaSq5tiM6ad_OgEdGxz1',#6,'OPS_TaskIdentity',$,(#207));
#209=IFCRELDEFINESBYPROPERTIES('3VeSksDlBIBF0bPJIxHDd4',#6,$,$,(#53),#208);
#210=IFCPROPERTYSINGLEVALUE('InternalTaskId',$,IFCTEXT('task-mula81bam2i31701'),$);
#211=IFCPROPERTYSET('3PPMvDTh2tqiRjXhqxDfmb',#6,'OPS_TaskIdentity',$,(#210));
#212=IFCRELDEFINESBYPROPERTIES('0QweoGan9NnE8NfkII1Ibo',#6,$,$,(#55),#211);
#213=IFCPROPERTYSINGLEVALUE('InternalTaskId',$,IFCTEXT('task-mula81bcov451702'),$);
#214=IFCPROPERTYSET('3MiIxY5W8oq8IuPL8khcsE',#6,'OPS_TaskIdentity',$,(#213));
#215=IFCRELDEFINESBYPROPERTIES('0E5Q1cnUw2kH$xn8ryQ6uL',#6,$,$,(#57),#214);
#216=IFCPROPERTYSINGLEVALUE('InternalTaskId',$,IFCTEXT('task-mula81beld1r1703'),$);
#217=IFCPROPERTYSET('19VZ7TEAl03xs0BWhr47lm',#6,'OPS_TaskIdentity',$,(#216));
#218=IFCRELDEFINESBYPROPERTIES('2oksF3sqB3CRHjHKAWMEsM',#6,$,$,(#59),#217);
#219=IFCPROPERTYSINGLEVALUE('InternalTaskId',$,IFCTEXT('task-mula81bgaikx1704'),$);
#220=IFCPROPERTYSET('2oUT35GpBfGKBWsqGjNI8I',#6,'OPS_TaskIdentity',$,(#219));
#221=IFCRELDEFINESBYPROPERTIES('1NH0DfkcMGaFLHi342oiaG',#6,$,$,(#61),#220);
#222=IFCPROPERTYSINGLEVALUE('InternalTaskId',$,IFCTEXT('task-mula81bhs49a1705'),$);
#223=IFCPROPERTYSET('2TK$YGuCgMkcz06HQe1vdk',#6,'OPS_TaskIdentity',$,(#222));
#224=IFCRELDEFINESBYPROPERTIES('0PF3RLF9bkbgVIbix$bmSB',#6,$,$,(#63),#223);
#225=IFCPROPERTYSINGLEVALUE('InternalTaskId',$,IFCTEXT('task-mula81bjgq5a1706'),$);
#226=IFCPROPERTYSET('2Oke9o_RhBDr_meI7sscGl',#6,'OPS_TaskIdentity',$,(#225));
#227=IFCRELDEFINESBYPROPERTIES('3lZmimTwVZ08rMzbWbO74E',#6,$,$,(#65),#226);
#228=IFCPROPERTYSINGLEVALUE('InternalTaskId',$,IFCTEXT('task-mula81bkjk0h1707'),$);
#229=IFCPROPERTYSET('2Nqva68mgPNHicdl7BWF0j',#6,'OPS_TaskIdentity',$,(#228));
#230=IFCRELDEFINESBYPROPERTIES('02hBrvdLiVlAcdSZXDGRq7',#6,$,$,(#67),#229);
#231=IFCPROPERTYSINGLEVALUE('InternalTaskId',$,IFCTEXT('task-mula81bmweo21708'),$);
#232=IFCPROPERTYSET('0DWmVygUXWVp0nRPsbXFle',#6,'OPS_TaskIdentity',$,(#231));
#233=IFCRELDEFINESBYPROPERTIES('2oY6b6I1C8uhtzOJNRalv1',#6,$,$,(#69),#232);
#234=IFCPROPERTYSINGLEVALUE('InternalTaskId',$,IFCTEXT('task-mula81bon9si1709'),$);
#235=IFCPROPERTYSET('2kVII9N1wfzcHtJH5V9aJT',#6,'OPS_TaskIdentity',$,(#234));
#236=IFCRELDEFINESBYPROPERTIES('3MGs3uTBfYedNDW0KsY9HU',#6,$,$,(#71),#235);
#237=IFCPROPERTYSINGLEVALUE('InternalTaskId',$,IFCTEXT('task-mula81bqdyvd1710'),$);
#238=IFCPROPERTYSET('0g4tEcPiyGQsZM$OmJ6Gbl',#6,'OPS_TaskIdentity',$,(#237));
#239=IFCRELDEFINESBYPROPERTIES('0Wi3A7JpX3ePPcFzJ9SdF8',#6,$,$,(#73),#238);
#240=IFCPROPERTYSINGLEVALUE('InternalTaskId',$,IFCTEXT('task-mula81br67v11711'),$);
#241=IFCPROPERTYSET('33mdK7GSk_iU9sDc8okeCq',#6,'OPS_TaskIdentity',$,(#240));
#242=IFCRELDEFINESBYPROPERTIES('0RZ1D2$lEaohFWUjKQWaIT',#6,$,$,(#75),#241);
#243=IFCPROPERTYSINGLEVALUE('InternalTaskId',$,IFCTEXT('task-mula81btedar1712'),$);
#244=IFCPROPERTYSET('3zlilpfQIld_XUVVKSV00f',#6,'OPS_TaskIdentity',$,(#243));
#245=IFCRELDEFINESBYPROPERTIES('1RX2N$bVHn_L6MNaaVgZu$',#6,$,$,(#77),#244);
#246=IFCPROPERTYSINGLEVALUE('InternalTaskId',$,IFCTEXT('task-mula81butqcq1713'),$);
#247=IFCPROPERTYSET('0j5zKMzK7vXrrlO7xLtn5i',#6,'OPS_TaskIdentity',$,(#246));
#248=IFCRELDEFINESBYPROPERTIES('0makM7jiHANe_c_i5XQtpH',#6,$,$,(#79),#247);
#249=IFCPROPERTYSINGLEVALUE('InternalTaskId',$,IFCTEXT('task-mula81bwkj3m1714'),$);
#250=IFCPROPERTYSET('3bNchmG0ZTuRuobzIhb6qj',#6,'OPS_TaskIdentity',$,(#249));
#251=IFCRELDEFINESBYPROPERTIES('1EvfaXNPTPSeOpETLiPqfy',#6,$,$,(#81),#250);
#252=IFCPROPERTYSINGLEVALUE('InternalTaskId',$,IFCTEXT('task-mula81bynpt71715'),$);
#253=IFCPROPERTYSET('2nXNeoyUtfCQG3FI2P6Yk9',#6,'OPS_TaskIdentity',$,(#252));
#254=IFCRELDEFINESBYPROPERTIES('1GGn1zY$HoqRNLwP3TgyKc',#6,$,$,(#83),#253);
#255=IFCPROPERTYSINGLEVALUE('InternalTaskId',$,IFCTEXT('task-mula81bzx3sp1716'),$);
#256=IFCPROPERTYSET('0H2rfIb2ad9ZXCMy3besKw',#6,'OPS_TaskIdentity',$,(#255));
#257=IFCRELDEFINESBYPROPERTIES('1hWmtTbNBJH9Xf1XvAZbDK',#6,$,$,(#85),#256);
#258=IFCPROPERTYSINGLEVALUE('InternalTaskId',$,IFCTEXT('task-mula81c1l2uv1717'),$);
#259=IFCPROPERTYSET('01bchLVt9CJ9tMoFBsbR4S',#6,'OPS_TaskIdentity',$,(#258));
#260=IFCRELDEFINESBYPROPERTIES('2wpRkrBlkJSyCARZh9EFvv',#6,$,$,(#87),#259);
#261=IFCPROPERTYSINGLEVALUE('InternalTaskId',$,IFCTEXT('task-mula81c3blgq1718'),$);
#262=IFCPROPERTYSET('2PF4O3KSpMOGUq1BNyXvSb',#6,'OPS_TaskIdentity',$,(#261));
#263=IFCRELDEFINESBYPROPERTIES('0y81NjEz7q0412Ey_$xWq3',#6,$,$,(#89),#262);
#264=IFCPROPERTYSINGLEVALUE('InternalTaskId',$,IFCTEXT('task-mula81c5goog1719'),$);
#265=IFCPROPERTYSET('1Q_EY4hAyt0lisbk87n$Hj',#6,'OPS_TaskIdentity',$,(#264));
#266=IFCRELDEFINESBYPROPERTIES('3IX9tzM5wsC2pCKs6b34_2',#6,$,$,(#91),#265);
#267=IFCPROPERTYSINGLEVALUE('InternalTaskId',$,IFCTEXT('task-mula81c787wt1720'),$);
#268=IFCPROPERTYSET('2mK8n$e1CCS$ms$NVH$Z$a',#6,'OPS_TaskIdentity',$,(#267));
#269=IFCRELDEFINESBYPROPERTIES('38zY3PsXkqj$HjULZI_zLQ',#6,$,$,(#93),#268);
#270=IFCPROPERTYSINGLEVALUE('InternalTaskId',$,IFCTEXT('task-mula81cably11721'),$);
#271=IFCPROPERTYSET('3cKDsZIGDFcgnn6u_6im$z',#6,'OPS_TaskIdentity',$,(#270));
#272=IFCRELDEFINESBYPROPERTIES('3S3N0epNkMEfqdon229fgm',#6,$,$,(#95),#271);
#273=IFCPROPERTYSINGLEVALUE('InternalTaskId',$,IFCTEXT('task-mula81cchqcr1722'),$);
#274=IFCPROPERTYSET('2rOXjHuPzqzVykIEc0HBlQ',#6,'OPS_TaskIdentity',$,(#273));
#275=IFCRELDEFINESBYPROPERTIES('046_wEUFuZIC7yFNywks3S',#6,$,$,(#97),#274);
#276=IFCPROPERTYSINGLEVALUE('InternalTaskId',$,IFCTEXT('task-mula81ce8gav1723'),$);
#277=IFCPROPERTYSET('0eGPgCPxUe8RItBwVwwE4h',#6,'OPS_TaskIdentity',$,(#276));
#278=IFCRELDEFINESBYPROPERTIES('3Hh_oUOHwzRj8X_pHyTSuv',#6,$,$,(#99),#277);
#279=IFCPROPERTYSINGLEVALUE('InternalTaskId',$,IFCTEXT('task-mula81chg2ga1724'),$);
#280=IFCPROPERTYSET('2igcirlhkqmFK0he1O6s2F',#6,'OPS_TaskIdentity',$,(#279));
#281=IFCRELDEFINESBYPROPERTIES('179JkhKf5OJmpkfGIIDq5Y',#6,$,$,(#101),#280);
#282=IFCPROPERTYSINGLEVALUE('InternalTaskId',$,IFCTEXT('task-mula81ckhgjk1725'),$);
#283=IFCPROPERTYSET('3wHscdNIZup9T$WkH1VXhc',#6,'OPS_TaskIdentity',$,(#282));
#284=IFCRELDEFINESBYPROPERTIES('0uM4Act6mE_a_3qIvVRY2v',#6,$,$,(#103),#283);
#285=IFCPROPERTYSINGLEVALUE('InternalTaskId',$,IFCTEXT('task-mula81cmh4xj1726'),$);
#286=IFCPROPERTYSET('3yNNwDGrgy7m9yUzRcO2iz',#6,'OPS_TaskIdentity',$,(#285));
#287=IFCRELDEFINESBYPROPERTIES('3ydwvNGBe70b9AM598Qh_p',#6,$,$,(#105),#286);
#288=IFCPROPERTYSINGLEVALUE('InternalTaskId',$,IFCTEXT('task-mula81cn9q3u1727'),$);
#289=IFCPROPERTYSET('1PTX7amakhQD85g9wm7GTQ',#6,'OPS_TaskIdentity',$,(#288));
#290=IFCRELDEFINESBYPROPERTIES('1c8H2RXZHisB8pB8Bxd44b',#6,$,$,(#107),#289);
#291=IFCPROPERTYSINGLEVALUE('InternalTaskId',$,IFCTEXT('task-mula81cqqzgt1728'),$);
#292=IFCPROPERTYSET('0MIF9$pUyXP2Mj032RwP_C',#6,'OPS_TaskIdentity',$,(#291));
#293=IFCRELDEFINESBYPROPERTIES('2TSCnoEXGhBlVeacWgkOq2',#6,$,$,(#109),#292);
#294=IFCPROPERTYSINGLEVALUE('InternalTaskId',$,IFCTEXT('task-mula81crccri1729'),$);
#295=IFCPROPERTYSET('1QcqijKLfLxpEwRZ$ki1HF',#6,'OPS_TaskIdentity',$,(#294));
#296=IFCRELDEFINESBYPROPERTIES('2CR2EHRp7lmBkaEuk5FT9R',#6,$,$,(#111),#295);
#297=IFCPROPERTYSINGLEVALUE('InternalTaskId',$,IFCTEXT('task-mula81cu8rsp1730'),$);
#298=IFCPROPERTYSET('150D4fDTNiG3hPBMnSj6zw',#6,'OPS_TaskIdentity',$,(#297));
#299=IFCRELDEFINESBYPROPERTIES('0yyRE501yjiyva1o2RR2WA',#6,$,$,(#113),#298);
#300=IFCPROPERTYSINGLEVALUE('InternalTaskId',$,IFCTEXT('task-mula81cwq1qx1731'),$);
#301=IFCPROPERTYSET('1xEJi$fR5DqIUcD_9FrBbg',#6,'OPS_TaskIdentity',$,(#300));
#302=IFCRELDEFINESBYPROPERTIES('3js3ub8BoaJDu0BND0V36m',#6,$,$,(#115),#301);
#303=IFCPROPERTYSINGLEVALUE('InternalTaskId',$,IFCTEXT('task-mula81cyiow71732'),$);
#304=IFCPROPERTYSET('0UgVYtCBP_J0UQ15kDlp_H',#6,'OPS_TaskIdentity',$,(#303));
#305=IFCRELDEFINESBYPROPERTIES('3XSx$xnIK9xATonGvb7qzy',#6,$,$,(#117),#304);
#306=IFCPROPERTYSINGLEVALUE('InternalTaskId',$,IFCTEXT('task-mula81czcoyl1733'),$);
#307=IFCPROPERTYSET('2d1v8yCw8sEDencYgr$cEI',#6,'OPS_TaskIdentity',$,(#306));
#308=IFCRELDEFINESBYPROPERTIES('3elyua2vXBh0yEhokry6sc',#6,$,$,(#119),#307);
#309=IFCPROPERTYSINGLEVALUE('InternalTaskId',$,IFCTEXT('task-mula81d20z7e1734'),$);
#310=IFCPROPERTYSET('3LLVT8duLvl2YyBFwxrNde',#6,'OPS_TaskIdentity',$,(#309));
#311=IFCRELDEFINESBYPROPERTIES('1OuqI1eXr2ActJo0tgaJVC',#6,$,$,(#121),#310);
#312=IFCPROPERTYSINGLEVALUE('InternalTaskId',$,IFCTEXT('task-mula81d44v9o1735'),$);
#313=IFCPROPERTYSET('010fTtAdxV7L1HAFG1R$5j',#6,'OPS_TaskIdentity',$,(#312));
#314=IFCRELDEFINESBYPROPERTIES('3$jU8PnByq7p$okHa1gDI2',#6,$,$,(#123),#313);
#315=IFCPROPERTYSINGLEVALUE('InternalTaskId',$,IFCTEXT('task-mula81d6mnrp1736'),$);
#316=IFCPROPERTYSET('1cc8E4yOgNmV33e$yBFGm0',#6,'OPS_TaskIdentity',$,(#315));
#317=IFCRELDEFINESBYPROPERTIES('1kM2EUZST2PG7z68K1Ubb4',#6,$,$,(#125),#316);
#318=IFCPROPERTYSINGLEVALUE('InternalTaskId',$,IFCTEXT('task-mula81d954yb1737'),$);
#319=IFCPROPERTYSET('1$Fnrrz4OeOGU1PGuRs_k4',#6,'OPS_TaskIdentity',$,(#318));
#320=IFCRELDEFINESBYPROPERTIES('1FyLj4X8qQPEegPakA_1Zn',#6,$,$,(#127),#319);
#321=IFCPROPERTYSINGLEVALUE('InternalTaskId',$,IFCTEXT('task-mula81db28fu1738'),$);
#322=IFCPROPERTYSET('0voP89Ri3BBUhZNofXhAwU',#6,'OPS_TaskIdentity',$,(#321));
#323=IFCRELDEFINESBYPROPERTIES('1vtP3X4XFwRgFYbfI6MC5L',#6,$,$,(#129),#322);
#324=IFCPROPERTYSINGLEVALUE('InternalTaskId',$,IFCTEXT('task-mula81ddv5oj1739'),$);
#325=IFCPROPERTYSET('1VC8G_SOJL93S$KdMJOUq3',#6,'OPS_TaskIdentity',$,(#324));
#326=IFCRELDEFINESBYPROPERTIES('1jAhy0CSWzt8PtkVJZbsnx',#6,$,$,(#131),#325);
#327=IFCPROPERTYSINGLEVALUE('MilestoneKind',$,IFCLABEL('START'),$);
#328=IFCPROPERTYSET('1iPqcJe6s4Aala1d3C11cp',#6,'OPS_Milestone',$,(#327));
#329=IFCRELDEFINESBYPROPERTIES('3yt4vRMVsbLc87JnNWAlM_',#6,$,$,(#53),#328);
#330=IFCPROPERTYSINGLEVALUE('MilestoneKind',$,IFCLABEL('FINISH'),$);
#331=IFCPROPERTYSINGLEVALUE('Mandatory',$,IFCBOOLEAN(.T.),$);
#332=IFCPROPERTYSET('1_wRDj2cdkqwukFoez$_QU',#6,'OPS_Milestone',$,(#330,#331));
#333=IFCRELDEFINESBYPROPERTIES('1tZHx9SntPl2MxDaWUkb30',#6,$,$,(#131),#332);
ENDSEC;
END-ISO-10303-21;
