ISO-10303-21;
HEADER;
FILE_DESCRIPTION(('ViewDefinition [SchedulingView]'),'2;1');
FILE_NAME('Logistics Warehouse, Venlo.ifc','2026-09-28T13:27:21',('Kees van der Berg'),('Limburg Hall Construction BV'),'Open Planner Studio 0.1','Open Planner Studio','');
FILE_SCHEMA(('IFC4X3'));
ENDSEC;
DATA;
#1=IFCPERSON($,'Kees van der Berg',$,$,$,$,$,$);
#2=IFCORGANIZATION($,'Limburg Hall Construction BV',$,$,$);
#3=IFCPERSONANDORGANIZATION(#1,#2,$);
#4=IFCORGANIZATION($,'OpenAEC Foundation',$,$,$);
#5=IFCAPPLICATION(#4,'0.2','Open Planner Studio','OPS');
#6=IFCOWNERHISTORY(#3,#5,$,.NOCHANGE.,$,$,$,1790602041);
#7=IFCSIUNIT(*,.LENGTHUNIT.,$,.METRE.);
#8=IFCSIUNIT(*,.TIMEUNIT.,$,.SECOND.);
#9=IFCUNITASSIGNMENT((#7,#8));
#10=IFCCARTESIANPOINT((0.,0.,0.));
#11=IFCAXIS2PLACEMENT3D(#10,$,$);
#12=IFCGEOMETRICREPRESENTATIONCONTEXT($,'Plan',3,1.0E-05,#11,$);
#13=IFCPROJECT('2ySFLIRmbkD6EQSTwewM2Q',#6,'Logistics Warehouse, Venlo','10,000 m2 logistics warehouse with office space',$,$,$,(#12),#9);
#14=IFCTIMEPERIOD('07:00:00','16:00:00');
#15=IFCRECURRENCEPATTERN(.WEEKLY.,$,(1,2,3,4,5),$,$,$,$,(#14));
#16=IFCWORKTIME('Standard work week',.PREDICTED.,$,#15,$,$);
#17=IFCWORKTIME('New Year''s Day',.PREDICTED.,$,$,'2027-01-01','2027-01-01');
#18=IFCWORKTIME('Good Friday',.PREDICTED.,$,$,'2027-03-26','2027-03-26');
#19=IFCWORKTIME('Easter',.PREDICTED.,$,$,'2027-03-28','2027-03-29');
#20=IFCWORKTIME('King''s Day',.PREDICTED.,$,$,'2027-04-27','2027-04-27');
#21=IFCWORKTIME('Liberation Day',.PREDICTED.,$,$,'2027-05-05','2027-05-05');
#22=IFCWORKTIME('Ascension Day',.PREDICTED.,$,$,'2027-05-06','2027-05-06');
#23=IFCWORKTIME('Whitsun',.PREDICTED.,$,$,'2027-05-16','2027-05-17');
#24=IFCWORKTIME('Christmas',.PREDICTED.,$,$,'2027-12-25','2027-12-26');
#25=IFCWORKTIME('Construction holiday (northern region)',.PREDICTED.,$,$,'2027-07-26','2027-08-15');
#26=IFCWORKTIME('New Year''s Day',.PREDICTED.,$,$,'2028-01-01','2028-01-01');
#27=IFCWORKTIME('Good Friday',.PREDICTED.,$,$,'2028-04-14','2028-04-14');
#28=IFCWORKTIME('Easter',.PREDICTED.,$,$,'2028-04-16','2028-04-17');
#29=IFCWORKTIME('King''s Day',.PREDICTED.,$,$,'2028-04-27','2028-04-27');
#30=IFCWORKTIME('Liberation Day',.PREDICTED.,$,$,'2028-05-05','2028-05-05');
#31=IFCWORKTIME('Ascension Day',.PREDICTED.,$,$,'2028-05-25','2028-05-25');
#32=IFCWORKTIME('Whitsun',.PREDICTED.,$,$,'2028-06-04','2028-06-05');
#33=IFCWORKTIME('Christmas',.PREDICTED.,$,$,'2028-12-25','2028-12-26');
#34=IFCWORKTIME('Construction holiday (northern region)',.PREDICTED.,$,$,'2028-07-24','2028-08-13');
#35=IFCWORKCALENDAR('28e6awK9RI2da7mvXYwwUR',#6,'Construction calendar NL','Standard construction calendar: Mon-Fri 07:00-16:00',$,(#16),(#17,#18,#19,#20,#21,#22,#23,#24,#25,#26,#27,#28,#29,#30,#31,#32,#33,#34),.FIRSTSHIFT.);
#36=IFCPROPERTYSINGLEVALUE('HoursPerDay',$,IFCREAL(8),$);
#37=IFCPROPERTYSET('2E0z7MZi1d8kfnB8AsV_V9',#6,'OPS_Calendar',$,(#36));
#38=IFCRELDEFINESBYPROPERTIES('06ircXhTl5qooRAHvfOOto',#6,$,$,(#35),#37);
#39=IFCWORKPLAN('38Ibh0ErokL7kvPugui_4U',#6,'Logistics Warehouse, Venlo','10,000 m2 logistics warehouse with office space',$,$,'2026-09-28T13:27:21',$,$,$,$,$,'2027-03-01T07:00:00','2027-03-16T07:00:00',.PLANNED.);
#40=IFCWORKSCHEDULE('0wvSgSvmOHG1ssTCfT15we',#6,'Construction schedule v1.0',$,$,$,'2026-09-28T13:27:21',$,$,$,$,$,'2027-03-01T07:00:00','2027-03-16T07:00:00',.PLANNED.);
#41=IFCRELAGGREGATES('0Tba$0mb1lltRnVFwvcG89',#6,$,$,#39,(#40));
#42=IFCTASKTIME('1. Preparation Time',.PREDICTED.,$,.WORKTIME.,'P0Y0M14D','2027-03-01T07:00:00','2027-03-05T07:00:00','2027-03-01T07:00:00','2027-03-18T07:00:00','2027-03-01T07:00:00','2027-09-03T07:00:00','P0Y0M0D','P0Y0M0D',.T.,$,$,$,$,$,0.00);
#43=IFCTASK('0CBGY$$MLBOr3CIQaSQhF3',#6,'1. Preparation',$,$,'1',$,$,$,.F.,$,#42,.CONSTRUCTION.);
#44=IFCTASKTIME('Site ready for construction Time',.PREDICTED.,$,.WORKTIME.,'P0Y0M5D','2027-03-01T07:00:00','2027-03-05T07:00:00','2027-03-01T07:00:00','2027-03-05T07:00:00','2027-03-01T07:00:00','2027-03-05T07:00:00','P0Y0M0D','P0Y0M0D',.T.,$,$,$,$,$,0.00);
#45=IFCTASK('3nUSRXlbN3oJ_rxxj4vkJA',#6,'Site ready for construction',$,$,'1.1',$,$,$,.F.,$,#44,.CONSTRUCTION.);
#46=IFCTASKTIME('Sewerage and utility connections Time',.PREDICTED.,$,.WORKTIME.,'P0Y0M8D','2027-03-01T07:00:00','2027-03-10T07:00:00','2027-03-08T07:00:00','2027-03-17T07:00:00','2027-08-24T07:00:00','2027-09-02T07:00:00','P0Y0M0D','P0Y0M100D',.F.,$,$,$,$,$,0.00);
#47=IFCTASK('0QDg2FGaPeFFT1YJoeDxB_',#6,'Sewerage and utility connections',$,$,'1.2',$,$,$,.F.,$,#46,.INSTALLATION.);
#48=IFCTASKTIME('Start of construction Time',.PREDICTED.,$,.WORKTIME.,'P0Y0M0D','2027-03-01T07:00:00','2027-03-01T07:00:00','2027-03-18T07:00:00','2027-03-18T07:00:00','2027-09-03T07:00:00','2027-09-03T07:00:00','P0Y0M100D','P0Y0M100D',.F.,$,$,$,$,$,0.00);
#49=IFCTASK('0ZJLkvIcyzR9QSwfUYTqpj',#6,'Start of construction',$,$,'1.3',$,$,$,.T.,$,#48,.CONSTRUCTION.);
#50=IFCTASKTIME('2. Foundations Time',.PREDICTED.,$,.WORKTIME.,'P0Y0M23D','2027-03-01T07:00:00','2027-03-05T07:00:00','2027-03-10T07:00:00','2027-04-13T07:00:00','2027-03-10T07:00:00','2027-09-03T07:00:00','P0Y0M0D','P0Y0M0D',.T.,$,$,$,$,$,0.00);
#51=IFCTASK('0DYguZB0nAH421$AvJe9hV',#6,'2. Foundations',$,$,'2',$,$,$,.F.,$,#50,.CONSTRUCTION.);
#52=IFCTASKTIME('Ground improvement Time',.PREDICTED.,$,.WORKTIME.,'P0Y0M5D','2027-03-01T07:00:00','2027-03-05T07:00:00','2027-03-10T07:00:00','2027-03-16T07:00:00','2027-03-10T07:00:00','2027-03-16T07:00:00','P0Y0M0D','P0Y0M0D',.T.,$,$,$,$,$,0.00);
#53=IFCTASK('2t5pDd$esGJQyYY$ym2IPE',#6,'Ground improvement',$,$,'2.1',$,$,$,.F.,$,#52,.CONSTRUCTION.);
#54=IFCTASKTIME('Pour strip foundations Time',.PREDICTED.,$,.WORKTIME.,'P0Y0M10D','2027-03-01T07:00:00','2027-03-12T07:00:00','2027-03-17T07:00:00','2027-04-01T07:00:00','2027-07-21T07:00:00','2027-08-24T07:00:00','P0Y0M0D','P0Y0M84D',.F.,$,$,$,$,$,0.00);
#55=IFCTASK('3XvfQ_$Jv0QXrpFrhqElJz',#6,'Pour strip foundations',$,$,'2.2',$,$,$,.F.,$,#54,.CONSTRUCTION.);
#56=IFCTASKTIME('Prepare shallow-founded slab Time',.PREDICTED.,$,.WORKTIME.,'P0Y0M8D','2027-03-01T07:00:00','2027-03-10T07:00:00','2027-04-02T07:00:00','2027-04-13T07:00:00','2027-08-25T07:00:00','2027-09-03T07:00:00','P0Y0M84D','P0Y0M84D',.F.,$,$,$,$,$,0.00);
#57=IFCTASK('39fBN9JmP$X0rDbKc43_Nf',#6,'Prepare shallow-founded slab',$,$,'2.3',$,$,$,.F.,$,#56,.CONSTRUCTION.);
#58=IFCTASKTIME('3. Steel structure Time',.PREDICTED.,$,.WORKTIME.,'P0Y0M28D','2027-03-01T07:00:00','2027-03-05T07:00:00','2027-03-12T07:00:00','2027-04-22T07:00:00','2027-03-12T07:00:00','2027-09-03T07:00:00','P0Y0M0D','P0Y0M0D',.T.,$,$,$,$,$,0.00);
#59=IFCTASK('1_905aFvjc581EmEKmjHaV',#6,'3. Steel structure',$,$,'3',$,$,$,.F.,$,#58,.CONSTRUCTION.);
#60=IFCTASKTIME('Erect steel columns Time',.PREDICTED.,$,.WORKTIME.,'P0Y0M8D','2027-03-01T07:00:00','2027-03-10T07:00:00','2027-03-12T07:00:00','2027-03-23T07:00:00','2027-03-12T07:00:00','2027-03-23T07:00:00','P0Y0M0D','P0Y0M0D',.T.,$,$,$,$,$,0.00);
#61=IFCTASK('1xX2nL$HmxgjJ21PaEIjwq',#6,'Erect steel columns',$,$,'3.1',$,$,$,.F.,$,#60,.CONSTRUCTION.);
#62=IFCTASKTIME('Erect steel trusses Time',.PREDICTED.,$,.WORKTIME.,'P0Y0M10D','2027-03-01T07:00:00','2027-03-12T07:00:00','2027-03-24T07:00:00','2027-04-08T07:00:00','2027-03-24T07:00:00','2027-04-08T07:00:00','P0Y0M0D','P0Y0M0D',.T.,$,$,$,$,$,0.00);
#63=IFCTASK('0woE_ApTk$5ruHeQxkFL5j',#6,'Erect steel trusses',$,$,'3.2',$,$,$,.F.,$,#62,.CONSTRUCTION.);
#64=IFCTASKTIME('Purlins and wind bracing Time',.PREDICTED.,$,.WORKTIME.,'P0Y0M5D','2027-03-01T07:00:00','2027-03-05T07:00:00','2027-04-09T07:00:00','2027-04-15T07:00:00','2027-04-09T07:00:00','2027-04-15T07:00:00','P0Y0M0D','P0Y0M0D',.T.,$,$,$,$,$,0.00);
#65=IFCTASK('0gh2tV45omoIVnVGqLQShm',#6,'Purlins and wind bracing',$,$,'3.3',$,$,$,.F.,$,#64,.CONSTRUCTION.);
#66=IFCTASKTIME('Install crane runway Time',.PREDICTED.,$,.WORKTIME.,'P0Y0M5D','2027-03-01T07:00:00','2027-03-05T07:00:00','2027-04-16T07:00:00','2027-04-22T07:00:00','2027-04-16T07:00:00','2027-04-22T07:00:00','P0Y0M0D','P0Y0M0D',.T.,$,$,$,$,$,0.00);
#67=IFCTASK('1Ai$8D7UC04tKX7bP8vU0D',#6,'Install crane runway',$,$,'3.4',$,$,$,.F.,$,#66,.INSTALLATION.);
#68=IFCTASKTIME('Topping out Time',.PREDICTED.,$,.WORKTIME.,'P0Y0M0D','2027-03-01T07:00:00','2027-03-01T07:00:00','2027-04-22T07:00:00','2027-04-22T07:00:00','2027-09-03T07:00:00','2027-09-03T07:00:00','P0Y0M77D','P0Y0M77D',.F.,$,$,$,$,$,0.00);
#69=IFCTASK('2Bh26pVOvIxQ47SpcIRNXI',#6,'Topping out',$,$,'3.5',$,$,$,.T.,$,#68,.CONSTRUCTION.);
#70=IFCTASKTIME('4. Facade & roof Time',.PREDICTED.,$,.WORKTIME.,'P0Y0M32D','2027-03-01T07:00:00','2027-03-05T07:00:00','2027-04-15T07:00:00','2027-06-03T07:00:00','2027-04-15T07:00:00','2027-09-03T07:00:00','P0Y0M0D','P0Y0M0D',.T.,$,$,$,$,$,0.00);
#71=IFCTASK('2ESzsCrsdgkujx9VIikKAk',#6,'4. Facade & roof',$,$,'4',$,$,$,.F.,$,#70,.CONSTRUCTION.);
#72=IFCTASKTIME('Sandwich roof decking Time',.PREDICTED.,$,.WORKTIME.,'P0Y0M10D','2027-03-01T07:00:00','2027-03-12T07:00:00','2027-04-15T07:00:00','2027-04-29T07:00:00','2027-04-15T07:00:00','2027-04-29T07:00:00','P0Y0M0D','P0Y0M0D',.T.,$,$,$,$,$,0.00);
#73=IFCTASK('1x8YfA79dmfP_zGfn98MSP',#6,'Sandwich roof decking',$,$,'4.1',$,$,$,.F.,$,#72,.INSTALLATION.);
#74=IFCTASKTIME('Facade cladding Time',.PREDICTED.,$,.WORKTIME.,'P0Y0M12D','2027-03-01T07:00:00','2027-03-16T07:00:00','2027-04-30T07:00:00','2027-05-20T07:00:00','2027-04-30T07:00:00','2027-05-20T07:00:00','P0Y0M0D','P0Y0M0D',.T.,$,$,$,$,$,0.00);
#75=IFCTASK('357XbACG9apD6luv7zsF6q',#6,'Facade cladding',$,$,'4.2',$,$,$,.F.,$,#74,.INSTALLATION.);
#76=IFCTASKTIME('Overhead doors Time',.PREDICTED.,$,.WORKTIME.,'P0Y0M5D','2027-03-01T07:00:00','2027-03-05T07:00:00','2027-05-21T07:00:00','2027-05-27T07:00:00','2027-05-21T07:00:00','2027-05-27T07:00:00','P0Y0M0D','P0Y0M0D',.T.,$,$,$,$,$,0.00);
#77=IFCTASK('3o_eTXvZWOSfDBDxrx9yim',#6,'Overhead doors',$,$,'4.3',$,$,$,.F.,$,#76,.INSTALLATION.);
#78=IFCTASKTIME('Roof lights Time',.PREDICTED.,$,.WORKTIME.,'P0Y0M5D','2027-03-01T07:00:00','2027-03-05T07:00:00','2027-05-28T07:00:00','2027-06-03T07:00:00','2027-05-28T07:00:00','2027-06-03T07:00:00','P0Y0M0D','P0Y0M0D',.T.,$,$,$,$,$,0.00);
#79=IFCTASK('0tae_X6XLZZUJavJidRcOo',#6,'Roof lights',$,$,'4.4',$,$,$,.F.,$,#78,.INSTALLATION.);
#80=IFCTASKTIME('Wind and weathertight Time',.PREDICTED.,$,.WORKTIME.,'P0Y0M0D','2027-03-01T07:00:00','2027-03-01T07:00:00','2027-06-03T07:00:00','2027-06-03T07:00:00','2027-09-03T07:00:00','2027-09-03T07:00:00','P0Y0M51D','P0Y0M51D',.F.,$,$,$,$,$,0.00);
#81=IFCTASK('3QgwElZNL2UaslE53_NWdv',#6,'Wind and weathertight',$,$,'4.5',$,$,$,.T.,$,#80,.CONSTRUCTION.);
#82=IFCTASKTIME('5. Floor & services Time',.PREDICTED.,$,.WORKTIME.,'P0Y0M31D','2027-03-01T07:00:00','2027-03-05T07:00:00','2027-06-04T07:00:00','2027-07-16T07:00:00','2027-06-04T07:00:00','2027-09-03T07:00:00','P0Y0M0D','P0Y0M0D',.T.,$,$,$,$,$,0.00);
#83=IFCTASK('3xaQ35xr_SLBqNUujT54BJ',#6,'5. Floor & services',$,$,'5',$,$,$,.F.,$,#82,.CONSTRUCTION.);
#84=IFCTASKTIME('Pour concrete hall floor Time',.PREDICTED.,$,.WORKTIME.,'P0Y0M10D','2027-03-01T07:00:00','2027-03-12T07:00:00','2027-06-04T07:00:00','2027-06-17T07:00:00','2027-06-04T07:00:00','2027-06-17T07:00:00','P0Y0M0D','P0Y0M0D',.T.,$,$,$,$,$,0.00);
#85=IFCTASK('1OMCjdaB6$NZ6kjMuyjJLt',#6,'Pour concrete hall floor',$,$,'5.1',$,$,$,.F.,$,#84,.CONSTRUCTION.);
#86=IFCTASKTIME('Floor coating Time',.PREDICTED.,$,.WORKTIME.,'P0Y0M5D','2027-03-01T07:00:00','2027-03-05T07:00:00','2027-06-18T07:00:00','2027-06-24T07:00:00','2027-07-16T07:00:00','2027-07-22T07:00:00','P0Y0M0D','P0Y0M20D',.F.,$,$,$,$,$,0.00);
#87=IFCTASK('3K5q30vAl4GZFl0tnje5lI',#6,'Floor coating',$,$,'5.2',$,$,$,.F.,$,#86,.CONSTRUCTION.);
#88=IFCTASKTIME('Electrical installation, hall Time',.PREDICTED.,$,.WORKTIME.,'P0Y0M8D','2027-03-01T07:00:00','2027-03-10T07:00:00','2027-06-25T07:00:00','2027-07-06T07:00:00','2027-07-23T07:00:00','2027-08-24T07:00:00','P0Y0M0D','P0Y0M20D',.F.,$,$,$,$,$,0.00);
#89=IFCTASK('3w4z21QliJXfLPru5PbEIm',#6,'Electrical installation, hall',$,$,'5.3',$,$,$,.F.,$,#88,.INSTALLATION.);
#90=IFCTASKTIME('Lighting, hall Time',.PREDICTED.,$,.WORKTIME.,'P0Y0M5D','2027-03-01T07:00:00','2027-03-05T07:00:00','2027-07-07T07:00:00','2027-07-13T07:00:00','2027-08-25T07:00:00','2027-08-31T07:00:00','P0Y0M0D','P0Y0M20D',.F.,$,$,$,$,$,0.00);
#91=IFCTASK('0KjOH6Css1lNuLkhqTPa9z',#6,'Lighting, hall',$,$,'5.4',$,$,$,.F.,$,#90,.INSTALLATION.);
#92=IFCTASKTIME('Fire alarm system Time',.PREDICTED.,$,.WORKTIME.,'P0Y0M3D','2027-03-01T07:00:00','2027-03-03T07:00:00','2027-07-14T07:00:00','2027-07-16T07:00:00','2027-09-01T07:00:00','2027-09-03T07:00:00','P0Y0M20D','P0Y0M20D',.F.,$,$,$,$,$,0.00);
#93=IFCTASK('16IJKWzOrRnDQx_ig19F6E',#6,'Fire alarm system',$,$,'5.5',$,$,$,.F.,$,#92,.INSTALLATION.);
#94=IFCTASKTIME('6. Office section Time',.PREDICTED.,$,.WORKTIME.,'P0Y0M21D','2027-03-01T07:00:00','2027-03-05T07:00:00','2027-06-28T07:00:00','2027-08-16T07:00:00','2027-06-28T07:00:00','2027-08-16T07:00:00','P0Y0M0D','P0Y0M0D',.T.,$,$,$,$,$,0.00);
#95=IFCTASK('0etRYWomIYMnGKVPHRkUhC',#6,'6. Office section',$,$,'6',$,$,$,.F.,$,#94,.CONSTRUCTION.);
#96=IFCTASKTIME('Office internal walls Time',.PREDICTED.,$,.WORKTIME.,'P0Y0M5D','2027-03-01T07:00:00','2027-03-05T07:00:00','2027-06-28T07:00:00','2027-07-02T07:00:00','2027-06-28T07:00:00','2027-07-02T07:00:00','P0Y0M0D','P0Y0M0D',.T.,$,$,$,$,$,0.00);
#97=IFCTASK('1eS3mVBVWpbjWy0qflQNbc',#6,'Office internal walls',$,$,'6.1',$,$,$,.F.,$,#96,.CONSTRUCTION.);
#98=IFCTASKTIME('Office building services Time',.PREDICTED.,$,.WORKTIME.,'P0Y0M8D','2027-03-01T07:00:00','2027-03-10T07:00:00','2027-07-05T07:00:00','2027-07-14T07:00:00','2027-07-05T07:00:00','2027-07-14T07:00:00','P0Y0M0D','P0Y0M0D',.T.,$,$,$,$,$,0.00);
#99=IFCTASK('2DWQ_JDoFInA04QzZE1DbJ',#6,'Office building services',$,$,'6.2',$,$,$,.F.,$,#98,.INSTALLATION.);
#100=IFCTASKTIME('Office finishes Time',.PREDICTED.,$,.WORKTIME.,'P0Y0M5D','2027-03-01T07:00:00','2027-03-05T07:00:00','2027-07-15T07:00:00','2027-07-21T07:00:00','2027-07-15T07:00:00','2027-07-21T07:00:00','P0Y0M0D','P0Y0M0D',.T.,$,$,$,$,$,0.00);
#101=IFCTASK('12WRQtwM9M_DYNGY2oNovL',#6,'Office finishes',$,$,'6.3',$,$,$,.F.,$,#100,.CONSTRUCTION.);
#102=IFCTASKTIME('Sanitary facilities Time',.PREDICTED.,$,.WORKTIME.,'P0Y0M3D','2027-03-01T07:00:00','2027-03-03T07:00:00','2027-07-22T07:00:00','2027-08-16T07:00:00','2027-07-22T07:00:00','2027-08-16T07:00:00','P0Y0M0D','P0Y0M0D',.T.,$,$,$,$,$,0.00);
#103=IFCTASK('0yBlmQzkxYTLHN5p0ABN6I',#6,'Sanitary facilities',$,$,'6.4',$,$,$,.F.,$,#102,.INSTALLATION.);
#104=IFCTASKTIME('7. Site works & handover Time',.PREDICTED.,$,.WORKTIME.,'P0Y0M14D','2027-03-01T07:00:00','2027-03-05T07:00:00','2027-08-17T07:00:00','2027-09-03T07:00:00','2027-08-17T07:00:00','2027-09-03T07:00:00','P0Y0M0D','P0Y0M0D',.T.,$,$,$,$,$,0.00);
#105=IFCTASK('0EDznovdn65hQeYnpkMAsk',#6,'7. Site works & handover',$,$,'7',$,$,$,.F.,$,#104,.CONSTRUCTION.);
#106=IFCTASKTIME('Site paving Time',.PREDICTED.,$,.WORKTIME.,'P0Y0M8D','2027-03-01T07:00:00','2027-03-10T07:00:00','2027-08-17T07:00:00','2027-08-26T07:00:00','2027-08-17T07:00:00','2027-08-26T07:00:00','P0Y0M0D','P0Y0M0D',.T.,$,$,$,$,$,0.00);
#107=IFCTASK('161SxBJ65NqULhjn1RddZb',#6,'Site paving',$,$,'7.1',$,$,$,.F.,$,#106,.CONSTRUCTION.);
#108=IFCTASKTIME('Site lighting Time',.PREDICTED.,$,.WORKTIME.,'P0Y0M3D','2027-03-01T07:00:00','2027-03-03T07:00:00','2027-08-27T07:00:00','2027-08-31T07:00:00','2027-08-27T07:00:00','2027-08-31T07:00:00','P0Y0M0D','P0Y0M0D',.T.,$,$,$,$,$,0.00);
#109=IFCTASK('2droqTs9InSa2kKEMXo0KS',#6,'Site lighting',$,$,'7.2',$,$,$,.F.,$,#108,.INSTALLATION.);
#110=IFCTASKTIME('Fencing and gate Time',.PREDICTED.,$,.WORKTIME.,'P0Y0M3D','2027-03-01T07:00:00','2027-03-03T07:00:00','2027-09-01T07:00:00','2027-09-03T07:00:00','2027-09-01T07:00:00','2027-09-03T07:00:00','P0Y0M0D','P0Y0M0D',.T.,$,$,$,$,$,0.00);
#111=IFCTASK('2RiPpkt7p_smnZYzv8mDS8',#6,'Fencing and gate',$,$,'7.3',$,$,$,.F.,$,#110,.INSTALLATION.);
#112=IFCTASKTIME('Handover Time',.PREDICTED.,$,.WORKTIME.,'P0Y0M0D','2027-03-01T07:00:00','2027-03-01T07:00:00','2027-09-03T07:00:00','2027-09-03T07:00:00','2027-09-03T07:00:00','2027-09-03T07:00:00','P0Y0M0D','P0Y0M0D',.T.,$,$,$,$,$,0.00);
#113=IFCTASK('0MpnQSnijG9ZX_0spoOaiQ',#6,'Handover',$,$,'7.4',$,$,$,.T.,$,#112,.CONSTRUCTION.);
#114=IFCRELNESTS('2IC7vmH6_6Gyn1FRajA7Zl',#6,'WBS 1. Preparation',$,#43,( #45,#47,#49));
#115=IFCRELNESTS('3fxFy5pCk0Gq2$SuSFPWUr',#6,'WBS 2. Foundations',$,#51,( #53,#55,#57));
#116=IFCRELNESTS('0kkQCiy_RPrRYYeAUumKg1',#6,'WBS 3. Steel structure',$,#59,( #61,#63,#65,#67,#69));
#117=IFCRELNESTS('0cDm2wdaseGx$XuJmyk2Bi',#6,'WBS 4. Facade & roof',$,#71,( #73,#75,#77,#79,#81));
#118=IFCRELNESTS('3xifjyD13Rgy3PyJNpa4aX',#6,'WBS 5. Floor & services',$,#83,( #85,#87,#89,#91,#93));
#119=IFCRELNESTS('0w7mcXAp__E3$lrcoL4xgf',#6,'WBS 6. Office section',$,#95,( #97,#99,#101,#103));
#120=IFCRELNESTS('2Wwb4pqer_yHqigin6bm_3',#6,'WBS 7. Site works & handover',$,#105,( #107,#109,#111,#113));
#121=IFCRELNESTS('2GitDNr4RESrcej5DdA9MY',#6,'WBS Hoofd',$,#40,(#43,#51,#59,#71,#83,#95,#105));
#122=IFCRELSEQUENCE('0xXVN2PH8K7p1J37_ZTiHr',#6,$,$,#45,#47,$,.FINISH_START.,$);
#123=IFCRELSEQUENCE('1P57tENiaq1sxFTjriwAiu',#6,$,$,#47,#49,$,.FINISH_START.,$);
#124=IFCRELSEQUENCE('1a0lpQgGxP765L$pUqV39F',#6,$,$,#53,#55,$,.FINISH_START.,$);
#125=IFCRELSEQUENCE('3TV1IPpQZkF$Y33Fz9UqQH',#6,$,$,#55,#57,$,.FINISH_START.,$);
#126=IFCRELSEQUENCE('1MW7E9CqWawyxoK9Foy7dX',#6,$,$,#61,#63,$,.FINISH_START.,$);
#127=IFCRELSEQUENCE('2di2YpTEjd4TNd99hLUTLu',#6,$,$,#63,#65,$,.FINISH_START.,$);
#128=IFCRELSEQUENCE('0U_yMf$Il6IbWc0IYq3R6K',#6,$,$,#65,#67,$,.FINISH_START.,$);
#129=IFCRELSEQUENCE('0aye1zuF4hwlf1PvfnB0Wj',#6,$,$,#67,#69,$,.FINISH_START.,$);
#130=IFCRELSEQUENCE('2C$EIlmUu4cgJnkWesx7Go',#6,$,$,#73,#75,$,.FINISH_START.,$);
#131=IFCRELSEQUENCE('1dp3e9aD2jSJUvG7n74lzm',#6,$,$,#75,#77,$,.FINISH_START.,$);
#132=IFCRELSEQUENCE('1nyEuDxzrqeFa2XLX$X2aI',#6,$,$,#77,#79,$,.FINISH_START.,$);
#133=IFCRELSEQUENCE('2yRCuIt4yQaDBDmSAoAz6t',#6,$,$,#79,#81,$,.FINISH_START.,$);
#134=IFCRELSEQUENCE('2AgbyAOK18WBYBjG9XTmVU',#6,$,$,#85,#87,$,.FINISH_START.,$);
#135=IFCRELSEQUENCE('0XQv1CL5nyfzsHXEBnCbvl',#6,$,$,#87,#89,$,.FINISH_START.,$);
#136=IFCRELSEQUENCE('2Fyqi0K6C6FPiMbr6QRYiq',#6,$,$,#89,#91,$,.FINISH_START.,$);
#137=IFCRELSEQUENCE('298Vm$imzKTmL4G3KkaP2$',#6,$,$,#91,#93,$,.FINISH_START.,$);
#138=IFCRELSEQUENCE('0OEblhD1e9CFolby5wCxb6',#6,$,$,#97,#99,$,.FINISH_START.,$);
#139=IFCRELSEQUENCE('2tBGM6U9BEs66GqDSoNKpU',#6,$,$,#99,#101,$,.FINISH_START.,$);
#140=IFCRELSEQUENCE('1Vr2emiaF2iJpT347dkIx9',#6,$,$,#101,#103,$,.FINISH_START.,$);
#141=IFCRELSEQUENCE('1eNROIcM2KCd6nIxeea8db',#6,$,$,#107,#109,$,.FINISH_START.,$);
#142=IFCRELSEQUENCE('18RNiz9eJITRca7TOq8l3F',#6,$,$,#109,#111,$,.FINISH_START.,$);
#143=IFCRELSEQUENCE('3XzVEP_l3V0CLmafOMAjrX',#6,$,$,#111,#113,$,.FINISH_START.,$);
#144=IFCLAGTIME('Lag',.PREDICTED.,$,IFCDURATION('P7D'),.WORKTIME.);
#145=IFCRELSEQUENCE('0lPCNc$YxOTjQCaWoZqhHN',#6,$,$,#45,#53,#144,.START_START.,$);
#146=IFCLAGTIME('Lag',.PREDICTED.,$,IFCRATIOMEASURE(0.4),.WORKTIME.);
#147=IFCRELSEQUENCE('0Pojg6EiS$xXayQkFan8hr',#6,$,$,#53,#61,#146,.START_START.,$);
#148=IFCLAGTIME('Lag',.PREDICTED.,$,IFCDURATION('-P6D'),.WORKTIME.);
#149=IFCRELSEQUENCE('1IDa54OhyE$3Gg$AWfPSNf',#6,$,$,#67,#73,#148,.FINISH_START.,$);
#150=IFCLAGTIME('Lag',.PREDICTED.,$,IFCDURATION('P2D'),.WORKTIME.);
#151=IFCRELSEQUENCE('12XXrslETKp2JUxsqTbzzC',#6,$,$,#67,#79,#150,.FINISH_FINISH.,$);
#152=IFCRELSEQUENCE('3s7$QavIg42F2EUi5ASICV',#6,$,$,#79,#85,$,.FINISH_START.,$);
#153=IFCLAGTIME('Lag',.PREDICTED.,$,IFCDURATION('P16D'),.WORKTIME.);
#154=IFCRELSEQUENCE('3lDQ7ShoorSwdzokLHdZm4',#6,$,$,#85,#97,#153,.START_START.,$);
#155=IFCRELSEQUENCE('16hijFzYTe22cU05orQ54v',#6,$,$,#103,#107,$,.FINISH_START.,$);
#156=IFCRELASSIGNSTOCONTROL('0dcrTjmuniYXSwq1YAYzu_',#6,$,$,(#43,#45,#47,#49,#51,#53,#55,#57,#59,#61,#63,#65,#67,#69,#71,#73,#75,#77,#79,#81,#83,#85,#87,#89,#91,#93,#95,#97,#99,#101,#103,#105,#107,#109,#111,#113),$,#40);
#157=IFCPROPERTYSINGLEVALUE('InternalProjectId',$,IFCTEXT('proj-mula81fyrmuk1779'),$);
#158=IFCPROPERTYSINGLEVALUE('wbsAutoNumber',$,IFCBOOLEAN(.T.),$);
#159=IFCPROPERTYSINGLEVALUE('DefaultTaskDurationUnit',$,IFCLABEL('days'),$);
#160=IFCPROPERTYSINGLEVALUE('ProjectStartDate',$,IFCDATE('2027-03-01'),$);
#161=IFCPROPERTYSINGLEVALUE('ProjectEndDate',$,$,$);
#162=IFCPROPERTYSINGLEVALUE('CreatedAt',$,IFCTEXT('2026-09-28T13:27:21.166Z'),$);
#163=IFCPROPERTYSINGLEVALUE('ModifiedAt',$,IFCTEXT('2026-09-28T13:27:21.168Z'),$);
#164=IFCPROPERTYSET('0468i4OMFGkzIrOLiOb9SB',#6,'OPS_ProjectSettings',$,(#157,#158,#159,#160,#161,#162,#163));
#165=IFCRELDEFINESBYPROPERTIES('3T$dBhTgOIG5yXmLSLW8zR',#6,$,$,(#13),#164);
#166=IFCPROPERTYSINGLEVALUE('InternalTaskId',$,IFCTEXT('task-mula81g06p441780'),$);
#167=IFCPROPERTYSET('3bZugcvX3W745N1a9w3Zpr',#6,'OPS_TaskIdentity',$,(#166));
#168=IFCRELDEFINESBYPROPERTIES('05gBUEY5OfsBBl4Og6UpVx',#6,$,$,(#43),#167);
#169=IFCPROPERTYSINGLEVALUE('InternalTaskId',$,IFCTEXT('task-mula81g2kb471781'),$);
#170=IFCPROPERTYSET('2SVSYYznJh6u74ihhMOmVc',#6,'OPS_TaskIdentity',$,(#169));
#171=IFCRELDEFINESBYPROPERTIES('2PX6AMvmZP_bIbm0Q8SuqW',#6,$,$,(#45),#170);
#172=IFCPROPERTYSINGLEVALUE('InternalTaskId',$,IFCTEXT('task-mula81g3z6sx1782'),$);
#173=IFCPROPERTYSET('1LpAd5R_1J$7A33L$CZLUv',#6,'OPS_TaskIdentity',$,(#172));
#174=IFCRELDEFINESBYPROPERTIES('3kzGIsngvpXYBJLPtMpkfv',#6,$,$,(#47),#173);
#175=IFCPROPERTYSINGLEVALUE('InternalTaskId',$,IFCTEXT('task-mula81g5kmsf1783'),$);
#176=IFCPROPERTYSET('1Rw6PmQs9sW8yU47is$oEG',#6,'OPS_TaskIdentity',$,(#175));
#177=IFCRELDEFINESBYPROPERTIES('1Bzy9nv8tveFVBPPifMRud',#6,$,$,(#49),#176);
#178=IFCPROPERTYSINGLEVALUE('InternalTaskId',$,IFCTEXT('task-mula81g7kchh1784'),$);
#179=IFCPROPERTYSET('1n$SmDm1reJuVjZK5MMqGo',#6,'OPS_TaskIdentity',$,(#178));
#180=IFCRELDEFINESBYPROPERTIES('0taI2zaeh_u94v_YSjWbbS',#6,$,$,(#51),#179);
#181=IFCPROPERTYSINGLEVALUE('InternalTaskId',$,IFCTEXT('task-mula81g8ygse1785'),$);
#182=IFCPROPERTYSET('1C6Q87YpK573hz97gAR10b',#6,'OPS_TaskIdentity',$,(#181));
#183=IFCRELDEFINESBYPROPERTIES('2EJNj$6Fslm4$ta6MpCOqx',#6,$,$,(#53),#182);
#184=IFCPROPERTYSINGLEVALUE('InternalTaskId',$,IFCTEXT('task-mula81gac4tw1786'),$);
#185=IFCPROPERTYSET('2i4Mt20k45j65HYRG8Q2SI',#6,'OPS_TaskIdentity',$,(#184));
#186=IFCRELDEFINESBYPROPERTIES('3CcFjau8LjMe2LYQOXGJfC',#6,$,$,(#55),#185);
#187=IFCPROPERTYSINGLEVALUE('InternalTaskId',$,IFCTEXT('task-mula81gb01n51787'),$);
#188=IFCPROPERTYSET('17_azbVokgb_VIRZP4AHOg',#6,'OPS_TaskIdentity',$,(#187));
#189=IFCRELDEFINESBYPROPERTIES('3ulImNVY7GSeWbIOOLwrP1',#6,$,$,(#57),#188);
#190=IFCPROPERTYSINGLEVALUE('InternalTaskId',$,IFCTEXT('task-mula81gegp1e1788'),$);
#191=IFCPROPERTYSET('28VVeRQN2LHofj2nYOHu43',#6,'OPS_TaskIdentity',$,(#190));
#192=IFCRELDEFINESBYPROPERTIES('175OGA_N3a79n3TJwT096S',#6,$,$,(#59),#191);
#193=IFCPROPERTYSINGLEVALUE('InternalTaskId',$,IFCTEXT('task-mula81gfbhrw1789'),$);
#194=IFCPROPERTYSET('1hbeZFGrQPTosTkqr1pMsW',#6,'OPS_TaskIdentity',$,(#193));
#195=IFCRELDEFINESBYPROPERTIES('01ll07RXjXgPJzlUKdwNXT',#6,$,$,(#61),#194);
#196=IFCPROPERTYSINGLEVALUE('InternalTaskId',$,IFCTEXT('task-mula81ghc8g21790'),$);
#197=IFCPROPERTYSET('3pVtCW2RWpLLzmrABZHNh9',#6,'OPS_TaskIdentity',$,(#196));
#198=IFCRELDEFINESBYPROPERTIES('1CUGZUzi4w5OxMcG6c$gan',#6,$,$,(#63),#197);
#199=IFCPROPERTYSINGLEVALUE('InternalTaskId',$,IFCTEXT('task-mula81gjrw2p1791'),$);
#200=IFCPROPERTYSET('1socFLR$Jsnb1MkIFP_jYB',#6,'OPS_TaskIdentity',$,(#199));
#201=IFCRELDEFINESBYPROPERTIES('1kJ83LXVHkyzOJ_N1Lgs$U',#6,$,$,(#65),#200);
#202=IFCPROPERTYSINGLEVALUE('InternalTaskId',$,IFCTEXT('task-mula81glxq6k1792'),$);
#203=IFCPROPERTYSET('0weBAoG4rFdgFlD_3bjTTF',#6,'OPS_TaskIdentity',$,(#202));
#204=IFCRELDEFINESBYPROPERTIES('05_NIUX9ouf4fn0E1U4Ry$',#6,$,$,(#67),#203);
#205=IFCPROPERTYSINGLEVALUE('InternalTaskId',$,IFCTEXT('task-mula81gmp1cq1793'),$);
#206=IFCPROPERTYSET('3jjgvjDCfz9KFGd9xb78AS',#6,'OPS_TaskIdentity',$,(#205));
#207=IFCRELDEFINESBYPROPERTIES('1ejMOU4UDlxcS4clcKE2yj',#6,$,$,(#69),#206);
#208=IFCPROPERTYSINGLEVALUE('InternalTaskId',$,IFCTEXT('task-mula81gopqu01794'),$);
#209=IFCPROPERTYSET('2j5EE$FnQPQLNr3dZjbFfH',#6,'OPS_TaskIdentity',$,(#208));
#210=IFCRELDEFINESBYPROPERTIES('31KmwQkU3M1l8p5m_GIHRA',#6,$,$,(#71),#209);
#211=IFCPROPERTYSINGLEVALUE('InternalTaskId',$,IFCTEXT('task-mula81gqu3nh1795'),$);
#212=IFCPROPERTYSET('3IWLLRDg9N$vCbRVap8GTk',#6,'OPS_TaskIdentity',$,(#211));
#213=IFCRELDEFINESBYPROPERTIES('38T9oEYDK86w5HeXK7dj3V',#6,$,$,(#73),#212);
#214=IFCPROPERTYSINGLEVALUE('InternalTaskId',$,IFCTEXT('task-mula81gstvbs1796'),$);
#215=IFCPROPERTYSET('0$GzIoXEh7hW7366Be3EYT',#6,'OPS_TaskIdentity',$,(#214));
#216=IFCRELDEFINESBYPROPERTIES('3C$tHxBGVv09VoIYhzu1H7',#6,$,$,(#75),#215);
#217=IFCPROPERTYSINGLEVALUE('InternalTaskId',$,IFCTEXT('task-mula81gutbnk1797'),$);
#218=IFCPROPERTYSET('3nbyfX0B0ZfOxcmVDOqtTo',#6,'OPS_TaskIdentity',$,(#217));
#219=IFCRELDEFINESBYPROPERTIES('16nDKum2LDy8bC$4Q5QKEb',#6,$,$,(#77),#218);
#220=IFCPROPERTYSINGLEVALUE('InternalTaskId',$,IFCTEXT('task-mula81gvwzjc1798'),$);
#221=IFCPROPERTYSET('2Fo9DDN8AxXywgKbj2Zx5T',#6,'OPS_TaskIdentity',$,(#220));
#222=IFCRELDEFINESBYPROPERTIES('0Yrq0LQEBYU$qJVDnFs92W',#6,$,$,(#79),#221);
#223=IFCPROPERTYSINGLEVALUE('InternalTaskId',$,IFCTEXT('task-mula81gx3jfm1799'),$);
#224=IFCPROPERTYSET('37lYExrE2Bi57K2D0_9OI9',#6,'OPS_TaskIdentity',$,(#223));
#225=IFCRELDEFINESBYPROPERTIES('3lGPZDsNnnEblqvtWbIYgf',#6,$,$,(#81),#224);
#226=IFCPROPERTYSINGLEVALUE('InternalTaskId',$,IFCTEXT('task-mula81gzy6eb1800'),$);
#227=IFCPROPERTYSET('0ZgcHVSgcczTpyAKaeubkm',#6,'OPS_TaskIdentity',$,(#226));
#228=IFCRELDEFINESBYPROPERTIES('0jWLAmFwEd5TnQOBcwjMMH',#6,$,$,(#83),#227);
#229=IFCPROPERTYSINGLEVALUE('InternalTaskId',$,IFCTEXT('task-mula81h2k8dj1801'),$);
#230=IFCPROPERTYSET('11_2qXeTIPTPkLXEq0Ptkf',#6,'OPS_TaskIdentity',$,(#229));
#231=IFCRELDEFINESBYPROPERTIES('0WDQOA9rk_1G90fLJujMGQ',#6,$,$,(#85),#230);
#232=IFCPROPERTYSINGLEVALUE('InternalTaskId',$,IFCTEXT('task-mula81h6dzuu1802'),$);
#233=IFCPROPERTYSET('0ogHC0ysqU91tfpbhpVRZo',#6,'OPS_TaskIdentity',$,(#232));
#234=IFCRELDEFINESBYPROPERTIES('3gzf04nH4MeheHCXufhpqV',#6,$,$,(#87),#233);
#235=IFCPROPERTYSINGLEVALUE('InternalTaskId',$,IFCTEXT('task-mula81h981631803'),$);
#236=IFCPROPERTYSET('2iIWNjAvQjFaQfUCtSlirb',#6,'OPS_TaskIdentity',$,(#235));
#237=IFCRELDEFINESBYPROPERTIES('0Iogb7__Q5jzRMc9hn_DUb',#6,$,$,(#89),#236);
#238=IFCPROPERTYSINGLEVALUE('InternalTaskId',$,IFCTEXT('task-mula81hc1mky1804'),$);
#239=IFCPROPERTYSET('2mueIgD4OrxZFZARDZBUT_',#6,'OPS_TaskIdentity',$,(#238));
#240=IFCRELDEFINESBYPROPERTIES('0$jyTlOuW6yG_7ggvXNe4P',#6,$,$,(#91),#239);
#241=IFCPROPERTYSINGLEVALUE('InternalTaskId',$,IFCTEXT('task-mula81hexzwl1805'),$);
#242=IFCPROPERTYSET('16$VO6JSEOBX_4YiuckcoN',#6,'OPS_TaskIdentity',$,(#241));
#243=IFCRELDEFINESBYPROPERTIES('3NYeynMFuZccZcq$mcwDDE',#6,$,$,(#93),#242);
#244=IFCPROPERTYSINGLEVALUE('InternalTaskId',$,IFCTEXT('task-mula81hgqnu41806'),$);
#245=IFCPROPERTYSET('26fgiX37p_BT2gbmu6i_7J',#6,'OPS_TaskIdentity',$,(#244));
#246=IFCRELDEFINESBYPROPERTIES('0zrhgf_IVXTfTbg3yjT_V9',#6,$,$,(#95),#245);
#247=IFCPROPERTYSINGLEVALUE('InternalTaskId',$,IFCTEXT('task-mula81hkzygm1807'),$);
#248=IFCPROPERTYSET('2alX4InDoDE9E$LsI$5Eo7',#6,'OPS_TaskIdentity',$,(#247));
#249=IFCRELDEFINESBYPROPERTIES('1N3tNYCJadnTXz4tYH6w7B',#6,$,$,(#97),#248);
#250=IFCPROPERTYSINGLEVALUE('InternalTaskId',$,IFCTEXT('task-mula81hm9yrc1808'),$);
#251=IFCPROPERTYSET('10UPf1Tvjc7gXMHOIldgmu',#6,'OPS_TaskIdentity',$,(#250));
#252=IFCRELDEFINESBYPROPERTIES('2w1vz5bl8cWYTu1ZE_kWOm',#6,$,$,(#99),#251);
#253=IFCPROPERTYSINGLEVALUE('InternalTaskId',$,IFCTEXT('task-mula81horcc01809'),$);
#254=IFCPROPERTYSET('1wmrylEzSqk6HXZjf0GimB',#6,'OPS_TaskIdentity',$,(#253));
#255=IFCRELDEFINESBYPROPERTIES('0Kyzu5U91WIMeIY7bXMa$T',#6,$,$,(#101),#254);
#256=IFCPROPERTYSINGLEVALUE('InternalTaskId',$,IFCTEXT('task-mula81hrt9tw1810'),$);
#257=IFCPROPERTYSET('1z6$WezMkqo9KhTGJ7tNSb',#6,'OPS_TaskIdentity',$,(#256));
#258=IFCRELDEFINESBYPROPERTIES('0h0jLg4i3vVAnFWM63P42j',#6,$,$,(#103),#257);
#259=IFCPROPERTYSINGLEVALUE('InternalTaskId',$,IFCTEXT('task-mula81htvgkk1811'),$);
#260=IFCPROPERTYSET('23dO67_6EzAHb$HGNP1HGN',#6,'OPS_TaskIdentity',$,(#259));
#261=IFCRELDEFINESBYPROPERTIES('3LDkqMPMh4PXXnLXVWRKmv',#6,$,$,(#105),#260);
#262=IFCPROPERTYSINGLEVALUE('InternalTaskId',$,IFCTEXT('task-mula81hviuey1812'),$);
#263=IFCPROPERTYSET('2tQS_BKJ_zNyMsuaB6rGzA',#6,'OPS_TaskIdentity',$,(#262));
#264=IFCRELDEFINESBYPROPERTIES('0utgPgu0s5c92KAQZIPioC',#6,$,$,(#107),#263);
#265=IFCPROPERTYSINGLEVALUE('InternalTaskId',$,IFCTEXT('task-mula81hx5had1813'),$);
#266=IFCPROPERTYSET('26MaeLjtEhCfraLYPv97lj',#6,'OPS_TaskIdentity',$,(#265));
#267=IFCRELDEFINESBYPROPERTIES('1SkF1vmnw7lhmbF$ltGse5',#6,$,$,(#109),#266);
#268=IFCPROPERTYSINGLEVALUE('InternalTaskId',$,IFCTEXT('task-mula81hzwpfa1814'),$);
#269=IFCPROPERTYSET('2_qhtGGtg7GztWZCQO2zD2',#6,'OPS_TaskIdentity',$,(#268));
#270=IFCRELDEFINESBYPROPERTIES('00kyBU2uGxgfVqj6OQCxv$',#6,$,$,(#111),#269);
#271=IFCPROPERTYSINGLEVALUE('InternalTaskId',$,IFCTEXT('task-mula81i1wiuf1815'),$);
#272=IFCPROPERTYSET('04ww6UX3JE1ETvUmPUhndm',#6,'OPS_TaskIdentity',$,(#271));
#273=IFCRELDEFINESBYPROPERTIES('3C4zXut57AS0vsT_UHmQi_',#6,$,$,(#113),#272);
#274=IFCPROPERTYSINGLEVALUE('MilestoneKind',$,IFCLABEL('START'),$);
#275=IFCPROPERTYSET('1DorOeVm3XRt2QNFjsYGHT',#6,'OPS_Milestone',$,(#274));
#276=IFCRELDEFINESBYPROPERTIES('0oVzJ9M$zimmZTPQjDL$_v',#6,$,$,(#49),#275);
#277=IFCPROPERTYSINGLEVALUE('MilestoneKind',$,IFCLABEL('FINISH'),$);
#278=IFCPROPERTYSET('1LDGnXLk1kuFEmd14Q8JGD',#6,'OPS_Milestone',$,(#277));
#279=IFCRELDEFINESBYPROPERTIES('2v7j8Q87bU3qpgFHS5pm6c',#6,$,$,(#69),#278);
#280=IFCPROPERTYSINGLEVALUE('MilestoneKind',$,IFCLABEL('FINISH'),$);
#281=IFCPROPERTYSET('29ihx9_WXt3FRcIjENgPag',#6,'OPS_Milestone',$,(#280));
#282=IFCRELDEFINESBYPROPERTIES('1db89QQP79tWHM4ghgsu4E',#6,$,$,(#81),#281);
#283=IFCPROPERTYSINGLEVALUE('MilestoneKind',$,IFCLABEL('FINISH'),$);
#284=IFCPROPERTYSINGLEVALUE('Mandatory',$,IFCBOOLEAN(.T.),$);
#285=IFCPROPERTYSET('3GZXmCeYBLbJ$thKau2APM',#6,'OPS_Milestone',$,(#283,#284));
#286=IFCRELDEFINESBYPROPERTIES('3Bm$dmhw25$U2jYd3kUfSh',#6,$,$,(#113),#285);
ENDSEC;
END-ISO-10303-21;
