ISO-10303-21;
HEADER;
FILE_DESCRIPTION(('ViewDefinition [SchedulingView]'),'2;1');
FILE_NAME('Sewer Replacement, Delft City Centre.ifc','2026-09-28T13:27:21',('Bas Hendriks'),('Delft Infra BV'),'Open Planner Studio 0.1','Open Planner Studio','');
FILE_SCHEMA(('IFC4X3'));
ENDSEC;
DATA;
#1=IFCPERSON($,'Bas Hendriks',$,$,$,$,$,$);
#2=IFCORGANIZATION($,'Delft Infra BV',$,$,$);
#3=IFCPERSONANDORGANIZATION(#1,#2,$);
#4=IFCORGANIZATION($,'OpenAEC Foundation',$,$,$);
#5=IFCAPPLICATION(#4,'0.2','Open Planner Studio','OPS');
#6=IFCOWNERHISTORY(#3,#5,$,.NOCHANGE.,$,$,$,1790602041);
#7=IFCSIUNIT(*,.LENGTHUNIT.,$,.METRE.);
#8=IFCSIUNIT(*,.TIMEUNIT.,$,.SECOND.);
#9=IFCUNITASSIGNMENT((#7,#8));
#10=IFCCARTESIANPOINT((0.,0.,0.));
#11=IFCAXIS2PLACEMENT3D(#10,$,$);
#12=IFCGEOMETRICREPRESENTATIONCONTEXT($,'Plan',3,1.0E-05,#11,$);
#13=IFCPROJECT('0kmehklvHxxLUAPaLtMe92',#6,'Sewer Replacement, Delft City Centre','Replacement of the city-centre main sewer including street reinstatement',$,$,$,(#12),#9);
#14=IFCTIMEPERIOD('07:00:00','16:00:00');
#15=IFCRECURRENCEPATTERN(.WEEKLY.,$,(1,2,3,4,5,6),$,$,$,$,(#14));
#16=IFCWORKTIME('Standard work week',.PREDICTED.,$,#15,$,$);
#17=IFCWORKTIME('New Year''s Day',.PREDICTED.,$,$,'2027-01-01','2027-01-01');
#18=IFCWORKTIME('Good Friday',.PREDICTED.,$,$,'2027-03-26','2027-03-26');
#19=IFCWORKTIME('Easter',.PREDICTED.,$,$,'2027-03-28','2027-03-29');
#20=IFCWORKTIME('King''s Day',.PREDICTED.,$,$,'2027-04-27','2027-04-27');
#21=IFCWORKTIME('Liberation Day',.PREDICTED.,$,$,'2027-05-05','2027-05-05');
#22=IFCWORKTIME('Ascension Day',.PREDICTED.,$,$,'2027-05-06','2027-05-06');
#23=IFCWORKTIME('Whitsun',.PREDICTED.,$,$,'2027-05-16','2027-05-17');
#24=IFCWORKTIME('Christmas',.PREDICTED.,$,$,'2027-12-25','2027-12-26');
#25=IFCWORKTIME('Construction holiday (northern region)',.PREDICTED.,$,$,'2027-07-26','2027-08-15');
#26=IFCWORKTIME('New Year''s Day',.PREDICTED.,$,$,'2028-01-01','2028-01-01');
#27=IFCWORKTIME('Good Friday',.PREDICTED.,$,$,'2028-04-14','2028-04-14');
#28=IFCWORKTIME('Easter',.PREDICTED.,$,$,'2028-04-16','2028-04-17');
#29=IFCWORKTIME('King''s Day',.PREDICTED.,$,$,'2028-04-27','2028-04-27');
#30=IFCWORKTIME('Liberation Day',.PREDICTED.,$,$,'2028-05-05','2028-05-05');
#31=IFCWORKTIME('Ascension Day',.PREDICTED.,$,$,'2028-05-25','2028-05-25');
#32=IFCWORKTIME('Whitsun',.PREDICTED.,$,$,'2028-06-04','2028-06-05');
#33=IFCWORKTIME('Christmas',.PREDICTED.,$,$,'2028-12-25','2028-12-26');
#34=IFCWORKTIME('Construction holiday (northern region)',.PREDICTED.,$,$,'2028-07-24','2028-08-13');
#35=IFCWORKCALENDAR('106yUbmeULj3INLKSENgD0',#6,'Infrastructure calendar Mon-Sat','Infrastructure/hydraulic works: Mon-Sat',$,(#16),(#17,#18,#19,#20,#21,#22,#23,#24,#25,#26,#27,#28,#29,#30,#31,#32,#33,#34),.FIRSTSHIFT.);
#36=IFCPROPERTYSINGLEVALUE('HoursPerDay',$,IFCREAL(8),$);
#37=IFCPROPERTYSET('0lo6nmhRAjiJ5q_wxo3VhV',#6,'OPS_Calendar',$,(#36));
#38=IFCRELDEFINESBYPROPERTIES('0nzpyY1gZ3sQZwWv4jZccn',#6,$,$,(#35),#37);
#39=IFCWORKPLAN('1gWZyhKUWyNqgSHHZHafCm',#6,'Sewer Replacement, Delft City Centre','Replacement of the city-centre main sewer including street reinstatement',$,$,'2026-09-28T13:27:21',$,$,$,$,$,'2027-03-01T07:00:00','2027-03-10T07:00:00',.PLANNED.);
#40=IFCWORKSCHEDULE('1xti2$iRsWOt55EXVduxV9',#6,'Construction schedule v1.0',$,$,$,'2026-09-28T13:27:21',$,$,$,$,$,'2027-03-01T07:00:00','2027-03-10T07:00:00',.PLANNED.);
#41=IFCRELAGGREGATES('0aPV6Srs38Lj8MnrrdOV89',#6,$,$,#39,(#40));
#42=IFCTASKTIME('1. Preparation Time',.PREDICTED.,$,.WORKTIME.,'P0Y0M10D','2027-03-01T07:00:00','2027-03-05T07:00:00','2027-03-01T07:00:00','2027-03-11T07:00:00','2027-03-01T07:00:00','2027-05-10T07:00:00','P0Y0M0D','P0Y0M0D',.T.,$,$,$,$,$,0.00);
#43=IFCTASK('2GBjuZ1iH8oydiHu2tIBks',#6,'1. Preparation',$,$,'1',$,$,$,.F.,$,#42,.LOGISTIC.);
#44=IFCTASKTIME('Resident letter and communication Time',.PREDICTED.,$,.WORKTIME.,'P0Y0M3D','2027-03-01T07:00:00','2027-03-03T07:00:00','2027-03-01T07:00:00','2027-03-03T07:00:00','2027-03-01T07:00:00','2027-03-03T07:00:00','P0Y0M0D','P0Y0M0D',.T.,$,$,$,$,$,0.00);
#45=IFCTASK('1sLiw3l41G8wRXvn7XIj7t',#6,'Resident letter and communication',$,$,'1.1',$,$,$,.F.,$,#44,.ATTENDANCE.);
#46=IFCTASKTIME('Traffic management Time',.PREDICTED.,$,.WORKTIME.,'P0Y0M3D','2027-03-01T07:00:00','2027-03-03T07:00:00','2027-03-04T07:00:00','2027-03-06T07:00:00','2027-04-30T07:00:00','2027-05-03T07:00:00','P0Y0M0D','P0Y0M46D',.F.,$,$,$,$,$,0.00);
#47=IFCTASK('1ujDEB8fOiqzogKqytL1tO',#6,'Traffic management',$,$,'1.2',$,$,$,.F.,$,#46,.LOGISTIC.);
#48=IFCTASKTIME('Locate cables and pipes Time',.PREDICTED.,$,.WORKTIME.,'P0Y0M3D','2027-03-01T07:00:00','2027-03-03T07:00:00','2027-03-08T07:00:00','2027-03-10T07:00:00','2027-05-04T07:00:00','2027-05-08T07:00:00','P0Y0M0D','P0Y0M46D',.F.,$,$,$,$,$,0.00);
#49=IFCTASK('2qHcEZJubDAVO43WfvFtUj',#6,'Locate cables and pipes',$,$,'1.3',$,$,$,.F.,$,#48,.LOGISTIC.);
#50=IFCTASKTIME('Start of works Time',.PREDICTED.,$,.WORKTIME.,'P0Y0M0D','2027-03-01T07:00:00','2027-03-01T07:00:00','2027-03-11T07:00:00','2027-03-11T07:00:00','2027-05-10T07:00:00','2027-05-10T07:00:00','P0Y0M46D','P0Y0M46D',.F.,$,$,$,$,$,0.00);
#51=IFCTASK('0PLA8lo_AIRsuj5ojv5ygS',#6,'Start of works',$,$,'1.4',$,$,$,.T.,$,#50,.LOGISTIC.);
#52=IFCTASKTIME('2. Phase 1 - north side Time',.PREDICTED.,$,.WORKTIME.,'P0Y0M31D','2027-03-01T07:00:00','2027-03-05T07:00:00','2027-03-06T07:00:00','2027-04-13T07:00:00','2027-03-06T07:00:00','2027-04-13T07:00:00','P0Y0M0D','P0Y0M0D',.T.,$,$,$,$,$,0.00);
#53=IFCTASK('0yzwYb4olCMbGZ6sAi31qE',#6,'2. Phase 1 - north side',$,$,'2',$,$,$,.F.,$,#52,.CONSTRUCTION.);
#54=IFCTASKTIME('Break up paving, phase 1 Time',.PREDICTED.,$,.WORKTIME.,'P0Y0M5D','2027-03-01T07:00:00','2027-03-05T07:00:00','2027-03-06T07:00:00','2027-03-11T07:00:00','2027-03-06T07:00:00','2027-03-11T07:00:00','P0Y0M0D','P0Y0M0D',.T.,$,$,$,$,$,0.00);
#55=IFCTASK('21pPodhiBog3ha2H3UiMiL',#6,'Break up paving, phase 1',$,$,'2.1',$,$,$,.F.,$,#54,.DEMOLITION.);
#56=IFCTASKTIME('Excavate trench, phase 1 Time',.PREDICTED.,$,.WORKTIME.,'P0Y0M8D','2027-03-01T07:00:00','2027-03-10T07:00:00','2027-03-12T07:00:00','2027-03-20T07:00:00','2027-03-12T07:00:00','2027-03-20T07:00:00','P0Y0M0D','P0Y0M0D',.T.,$,$,$,$,$,0.00);
#57=IFCTASK('2_sriGyVmCkSe_shOgA6zp',#6,'Excavate trench, phase 1',$,$,'2.2',$,$,$,.F.,$,#56,.CONSTRUCTION.);
#58=IFCTASKTIME('Lay sewer pipes, phase 1 Time',.PREDICTED.,$,.WORKTIME.,'P0Y0M8D','2027-03-01T07:00:00','2027-03-10T07:00:00','2027-03-22T07:00:00','2027-04-01T07:00:00','2027-03-22T07:00:00','2027-04-01T07:00:00','P0Y0M0D','P0Y0M0D',.T.,$,$,$,$,$,0.00);
#59=IFCTASK('325Zbd4GTQLO5X9u5IZOsh',#6,'Lay sewer pipes, phase 1',$,$,'2.3',$,$,$,.F.,$,#58,.INSTALLATION.);
#60=IFCTASKTIME('House connections, phase 1 Time',.PREDICTED.,$,.WORKTIME.,'P0Y0M5D','2027-03-01T07:00:00','2027-03-05T07:00:00','2027-04-02T07:00:00','2027-04-07T07:00:00','2027-04-02T07:00:00','2027-04-07T07:00:00','P0Y0M0D','P0Y0M0D',.T.,$,$,$,$,$,0.00);
#61=IFCTASK('2j5ByZXQb$1iXXH7Xgqhv8',#6,'House connections, phase 1',$,$,'2.4',$,$,$,.F.,$,#60,.INSTALLATION.);
#62=IFCTASKTIME('Backfill and compact, phase 1 Time',.PREDICTED.,$,.WORKTIME.,'P0Y0M5D','2027-03-01T07:00:00','2027-03-05T07:00:00','2027-04-08T07:00:00','2027-04-13T07:00:00','2027-04-08T07:00:00','2027-04-13T07:00:00','P0Y0M0D','P0Y0M0D',.T.,$,$,$,$,$,0.00);
#63=IFCTASK('2R4OSiDCZopgNc3GpS9VYd',#6,'Backfill and compact, phase 1',$,$,'2.5',$,$,$,.F.,$,#62,.CONSTRUCTION.);
#64=IFCTASKTIME('3. Phase 2 - south side Time',.PREDICTED.,$,.WORKTIME.,'P0Y0M31D','2027-03-01T07:00:00','2027-03-05T07:00:00','2027-03-09T07:00:00','2027-04-15T07:00:00','2027-03-09T07:00:00','2027-04-15T07:00:00','P0Y0M0D','P0Y0M0D',.T.,$,$,$,$,$,0.00);
#65=IFCTASK('3wMcc_x79k9LTxTd$tGse_',#6,'3. Phase 2 - south side',$,$,'3',$,$,$,.F.,$,#64,.CONSTRUCTION.);
#66=IFCTASKTIME('Break up paving, phase 2 Time',.PREDICTED.,$,.WORKTIME.,'P0Y0M5D','2027-03-01T07:00:00','2027-03-05T07:00:00','2027-03-09T07:00:00','2027-03-13T07:00:00','2027-03-09T07:00:00','2027-03-13T07:00:00','P0Y0M0D','P0Y0M0D',.T.,$,$,$,$,$,0.00);
#67=IFCTASK('0MBsWRGtZRL$5kLJSVPggv',#6,'Break up paving, phase 2',$,$,'3.1',$,$,$,.F.,$,#66,.DEMOLITION.);
#68=IFCTASKTIME('Excavate trench, phase 2 Time',.PREDICTED.,$,.WORKTIME.,'P0Y0M8D','2027-03-01T07:00:00','2027-03-10T07:00:00','2027-03-15T07:00:00','2027-03-23T07:00:00','2027-03-15T07:00:00','2027-03-23T07:00:00','P0Y0M0D','P0Y0M0D',.T.,$,$,$,$,$,0.00);
#69=IFCTASK('1ChkMQcqZ6u7iRVkT$RK5p',#6,'Excavate trench, phase 2',$,$,'3.2',$,$,$,.F.,$,#68,.CONSTRUCTION.);
#70=IFCTASKTIME('Lay sewer pipes, phase 2 Time',.PREDICTED.,$,.WORKTIME.,'P0Y0M8D','2027-03-01T07:00:00','2027-03-10T07:00:00','2027-03-24T07:00:00','2027-04-03T07:00:00','2027-03-24T07:00:00','2027-04-03T07:00:00','P0Y0M0D','P0Y0M0D',.T.,$,$,$,$,$,0.00);
#71=IFCTASK('2MvrDCvgHUa49EmzeiJfmx',#6,'Lay sewer pipes, phase 2',$,$,'3.3',$,$,$,.F.,$,#70,.INSTALLATION.);
#72=IFCTASKTIME('House connections, phase 2 Time',.PREDICTED.,$,.WORKTIME.,'P0Y0M5D','2027-03-01T07:00:00','2027-03-05T07:00:00','2027-04-05T07:00:00','2027-04-09T07:00:00','2027-04-05T07:00:00','2027-04-09T07:00:00','P0Y0M0D','P0Y0M0D',.T.,$,$,$,$,$,0.00);
#73=IFCTASK('1yAiVjQJU0cZWrUFV5kHzS',#6,'House connections, phase 2',$,$,'3.4',$,$,$,.F.,$,#72,.INSTALLATION.);
#74=IFCTASKTIME('Backfill and compact, phase 2 Time',.PREDICTED.,$,.WORKTIME.,'P0Y0M5D','2027-03-01T07:00:00','2027-03-05T07:00:00','2027-04-10T07:00:00','2027-04-15T07:00:00','2027-04-10T07:00:00','2027-04-15T07:00:00','P0Y0M0D','P0Y0M0D',.T.,$,$,$,$,$,0.00);
#75=IFCTASK('1dqPy1sIX_u_$811EJOGxT',#6,'Backfill and compact, phase 2',$,$,'3.5',$,$,$,.F.,$,#74,.CONSTRUCTION.);
#76=IFCTASKTIME('4. Reinstatement Time',.PREDICTED.,$,.WORKTIME.,'P0Y0M19D','2027-03-01T07:00:00','2027-03-05T07:00:00','2027-04-09T07:00:00','2027-05-01T07:00:00','2027-04-09T07:00:00','2027-05-01T07:00:00','P0Y0M0D','P0Y0M0D',.T.,$,$,$,$,$,0.00);
#77=IFCTASK('0GYVPQMspVJ3VZ1V32TLIX',#6,'4. Reinstatement',$,$,'4',$,$,$,.F.,$,#76,.CONSTRUCTION.);
#78=IFCTASKTIME('Paving sub-base Time',.PREDICTED.,$,.WORKTIME.,'P0Y0M5D','2027-03-01T07:00:00','2027-03-05T07:00:00','2027-04-09T07:00:00','2027-04-14T07:00:00','2027-04-09T07:00:00','2027-04-14T07:00:00','P0Y0M0D','P0Y0M0D',.T.,$,$,$,$,$,0.00);
#79=IFCTASK('3URor$BQgdRRtBHClSRHsD',#6,'Paving sub-base',$,$,'4.1',$,$,$,.F.,$,#78,.CONSTRUCTION.);
#80=IFCTASKTIME('Relay paving Time',.PREDICTED.,$,.WORKTIME.,'P0Y0M8D','2027-03-01T07:00:00','2027-03-10T07:00:00','2027-04-15T07:00:00','2027-04-23T07:00:00','2027-04-15T07:00:00','2027-04-23T07:00:00','P0Y0M0D','P0Y0M0D',.T.,$,$,$,$,$,0.00);
#81=IFCTASK('3F389y5ORBj1YpcVPO4cJA',#6,'Relay paving',$,$,'4.2',$,$,$,.F.,$,#80,.CONSTRUCTION.);
#82=IFCTASKTIME('Install street furniture Time',.PREDICTED.,$,.WORKTIME.,'P0Y0M3D','2027-03-01T07:00:00','2027-03-03T07:00:00','2027-04-24T07:00:00','2027-04-28T07:00:00','2027-04-24T07:00:00','2027-04-28T07:00:00','P0Y0M0D','P0Y0M0D',.T.,$,$,$,$,$,0.00);
#83=IFCTASK('2qH9bII4sxga_p4Bty$ehj',#6,'Install street furniture',$,$,'4.3',$,$,$,.F.,$,#82,.INSTALLATION.);
#84=IFCTASKTIME('Landscaping Time',.PREDICTED.,$,.WORKTIME.,'P0Y0M3D','2027-03-01T07:00:00','2027-03-03T07:00:00','2027-04-29T07:00:00','2027-05-01T07:00:00','2027-04-29T07:00:00','2027-05-01T07:00:00','P0Y0M0D','P0Y0M0D',.T.,$,$,$,$,$,0.00);
#85=IFCTASK('0utijFnMW0f_b7wIV6dsog',#6,'Landscaping',$,$,'4.4',$,$,$,.F.,$,#84,.CONSTRUCTION.);
#86=IFCTASKTIME('5. Handover Time',.PREDICTED.,$,.WORKTIME.,'P0Y0M5D','2027-03-01T07:00:00','2027-03-05T07:00:00','2027-05-03T07:00:00','2027-05-10T07:00:00','2027-05-03T07:00:00','2027-05-10T07:00:00','P0Y0M0D','P0Y0M0D',.T.,$,$,$,$,$,0.00);
#87=IFCTASK('1YCq78PwKvVyCwxNN2CjcM',#6,'5. Handover',$,$,'5',$,$,$,.F.,$,#86,.CONSTRUCTION.);
#88=IFCTASKTIME('CCTV sewer inspection Time',.PREDICTED.,$,.WORKTIME.,'P0Y0M3D','2027-03-01T07:00:00','2027-03-03T07:00:00','2027-05-03T07:00:00','2027-05-07T07:00:00','2027-05-03T07:00:00','2027-05-07T07:00:00','P0Y0M0D','P0Y0M0D',.T.,$,$,$,$,$,0.00);
#89=IFCTASK('3y1Ga$zBgYSSDW6MoKRKW_',#6,'CCTV sewer inspection',$,$,'5.1',$,$,$,.F.,$,#88,.ATTENDANCE.);
#90=IFCTASKTIME('Remove traffic management Time',.PREDICTED.,$,.WORKTIME.,'P0Y0M2D','2027-03-01T07:00:00','2027-03-02T07:00:00','2027-05-08T07:00:00','2027-05-10T07:00:00','2027-05-08T07:00:00','2027-05-10T07:00:00','P0Y0M0D','P0Y0M0D',.T.,$,$,$,$,$,0.00);
#91=IFCTASK('0to_xqxbFnKYe0ZPK_dG9l',#6,'Remove traffic management',$,$,'5.2',$,$,$,.F.,$,#90,.LOGISTIC.);
#92=IFCTASKTIME('Handover Time',.PREDICTED.,$,.WORKTIME.,'P0Y0M0D','2027-03-01T07:00:00','2027-03-01T07:00:00','2027-05-10T07:00:00','2027-05-10T07:00:00','2027-05-10T07:00:00','2027-05-10T07:00:00','P0Y0M0D','P0Y0M0D',.T.,$,$,$,$,$,0.00);
#93=IFCTASK('248zms4Er$IoDHQEJhPUxI',#6,'Handover',$,$,'5.3',$,$,$,.T.,$,#92,.CONSTRUCTION.);
#94=IFCRELNESTS('2DrqYA6xWS4qKgdK$fljsM',#6,'WBS 1. Preparation',$,#43,( #45,#47,#49,#51));
#95=IFCRELNESTS('1ZEZLmuhcgGRDxqTv1sMgT',#6,'WBS 2. Phase 1 - north side',$,#53,( #55,#57,#59,#61,#63));
#96=IFCRELNESTS('3HxnB2vZaezCaongdHtK$W',#6,'WBS 3. Phase 2 - south side',$,#65,( #67,#69,#71,#73,#75));
#97=IFCRELNESTS('1ZATzzluGcTvIZ3Guws_v5',#6,'WBS 4. Reinstatement',$,#77,( #79,#81,#83,#85));
#98=IFCRELNESTS('3re_zzL7Dw6aVbBnLYSUHV',#6,'WBS 5. Handover',$,#87,( #89,#91,#93));
#99=IFCRELNESTS('1b_ywTUr$2DU5ZV6VvBPMd',#6,'WBS Hoofd',$,#40,(#43,#53,#65,#77,#87));
#100=IFCRELSEQUENCE('3pqEOhvyTEK4nPMtxxIER4',#6,$,$,#45,#47,$,.FINISH_START.,$);
#101=IFCRELSEQUENCE('1KRCY1iFCHmlQZhpAHpHaP',#6,$,$,#47,#49,$,.FINISH_START.,$);
#102=IFCRELSEQUENCE('2SVQ$B0kJvvm3ltPBp6fUa',#6,$,$,#49,#51,$,.FINISH_START.,$);
#103=IFCRELSEQUENCE('3se1zZ7eS7rq5mWwmAnyNz',#6,$,$,#55,#57,$,.FINISH_START.,$);
#104=IFCRELSEQUENCE('1tovY$aPvqIRXN0y2_m$9o',#6,$,$,#57,#59,$,.FINISH_START.,$);
#105=IFCRELSEQUENCE('1wJ3bIOjyWrMkYMbJt5Amn',#6,$,$,#59,#61,$,.FINISH_START.,$);
#106=IFCRELSEQUENCE('0NA6RD0w5xjJr_y0GanIdy',#6,$,$,#61,#63,$,.FINISH_START.,$);
#107=IFCRELSEQUENCE('2c4JEGjkiZqNnrw7vnld0K',#6,$,$,#67,#69,$,.FINISH_START.,$);
#108=IFCRELSEQUENCE('2ehQYY6RHk8D8itryN_acG',#6,$,$,#69,#71,$,.FINISH_START.,$);
#109=IFCRELSEQUENCE('0dF5h$a3Gzc4wFWfURhE7x',#6,$,$,#71,#73,$,.FINISH_START.,$);
#110=IFCRELSEQUENCE('34o5V$CEGL1K1qQipD2cwB',#6,$,$,#73,#75,$,.FINISH_START.,$);
#111=IFCRELSEQUENCE('3d9jmt3gT28ZfCU940UeGT',#6,$,$,#79,#81,$,.FINISH_START.,$);
#112=IFCRELSEQUENCE('2PbcL8sissjeMeKEhTQdNj',#6,$,$,#81,#83,$,.FINISH_START.,$);
#113=IFCRELSEQUENCE('0ym7GTJLKNrrvX_oeb65KO',#6,$,$,#83,#85,$,.FINISH_START.,$);
#114=IFCRELSEQUENCE('2PhmJdgGMyhOOq$TUeUrrR',#6,$,$,#89,#91,$,.FINISH_START.,$);
#115=IFCRELSEQUENCE('15Mhc1F634SilP$SFXBbQk',#6,$,$,#91,#93,$,.FINISH_START.,$);
#116=IFCLAGTIME('Lag',.PREDICTED.,$,IFCDURATION('P5D'),.WORKTIME.);
#117=IFCRELSEQUENCE('3vMlVn60k_Nj2uC77JudAa',#6,$,$,#45,#55,#116,.START_START.,$);
#118=IFCLAGTIME('Lag',.PREDICTED.,$,IFCRATIOMEASURE(0.4),.WORKTIME.);
#119=IFCRELSEQUENCE('118hC3cCeTGR42BrKZaSyJ',#6,$,$,#55,#67,#118,.START_START.,$);
#120=IFCLAGTIME('Lag',.PREDICTED.,$,IFCDURATION('P2D'),.WORKTIME.);
#121=IFCRELSEQUENCE('3_rmTZv4bfdqcRPUtNq$8V',#6,$,$,#63,#75,#120,.FINISH_FINISH.,$);
#122=IFCLAGTIME('Lag',.PREDICTED.,$,IFCDURATION('-P6D'),.WORKTIME.);
#123=IFCRELSEQUENCE('2jJyjLp1IuurWOJ0zA12h4',#6,$,$,#75,#79,#122,.FINISH_START.,$);
#124=IFCRELSEQUENCE('130hK6ignN5lysSIxFAeIn',#6,$,$,#85,#89,$,.FINISH_START.,$);
#125=IFCRELASSIGNSTOCONTROL('0p6Ny4cNwl5dzvz3brGGax',#6,$,$,(#43,#45,#47,#49,#51,#53,#55,#57,#59,#61,#63,#65,#67,#69,#71,#73,#75,#77,#79,#81,#83,#85,#87,#89,#91,#93),$,#40);
#126=IFCPROPERTYSINGLEVALUE('InternalProjectId',$,IFCTEXT('proj-mula81vf4ek41996'),$);
#127=IFCPROPERTYSINGLEVALUE('wbsAutoNumber',$,IFCBOOLEAN(.T.),$);
#128=IFCPROPERTYSINGLEVALUE('DefaultTaskDurationUnit',$,IFCLABEL('days'),$);
#129=IFCPROPERTYSINGLEVALUE('ProjectStartDate',$,IFCDATE('2027-03-01'),$);
#130=IFCPROPERTYSINGLEVALUE('ProjectEndDate',$,$,$);
#131=IFCPROPERTYSINGLEVALUE('CreatedAt',$,IFCTEXT('2026-09-28T13:27:21.723Z'),$);
#132=IFCPROPERTYSINGLEVALUE('ModifiedAt',$,IFCTEXT('2026-09-28T13:27:21.724Z'),$);
#133=IFCPROPERTYSET('1nSL2TJKhHCyH9FE7Xu2mt',#6,'OPS_ProjectSettings',$,(#126,#127,#128,#129,#130,#131,#132));
#134=IFCRELDEFINESBYPROPERTIES('3$eykSBniC4rs8LRN_jbzs',#6,$,$,(#13),#133);
#135=IFCPROPERTYSINGLEVALUE('InternalTaskId',$,IFCTEXT('task-mula81viq5831997'),$);
#136=IFCPROPERTYSET('05eEjcQgQBimIJ$O5zROj$',#6,'OPS_TaskIdentity',$,(#135));
#137=IFCRELDEFINESBYPROPERTIES('0uYU3_D7wQQq2kMmKujz$i',#6,$,$,(#43),#136);
#138=IFCPROPERTYSINGLEVALUE('InternalTaskId',$,IFCTEXT('task-mula81vj30cl1998'),$);
#139=IFCPROPERTYSET('0zmnISws9FX84iPI_HLATr',#6,'OPS_TaskIdentity',$,(#138));
#140=IFCRELDEFINESBYPROPERTIES('1RCoDuZhTGPvk3hWWJ8o4w',#6,$,$,(#45),#139);
#141=IFCPROPERTYSINGLEVALUE('InternalTaskId',$,IFCTEXT('task-mula81vktl771999'),$);
#142=IFCPROPERTYSET('1GE3ZTg26rvkZimHKQH9zM',#6,'OPS_TaskIdentity',$,(#141));
#143=IFCRELDEFINESBYPROPERTIES('0SYglhi3tPcCqzuJTbUDU3',#6,$,$,(#47),#142);
#144=IFCPROPERTYSINGLEVALUE('InternalTaskId',$,IFCTEXT('task-mula81vmx16t2000'),$);
#145=IFCPROPERTYSET('2CmSxnMxglB$numMus57YY',#6,'OPS_TaskIdentity',$,(#144));
#146=IFCRELDEFINESBYPROPERTIES('2xHzLxStgo$n_rd6QnBOm1',#6,$,$,(#49),#145);
#147=IFCPROPERTYSINGLEVALUE('InternalTaskId',$,IFCTEXT('task-mula81vn7l0n2001'),$);
#148=IFCPROPERTYSET('3dMPrH89r$$qk8o4n2xGnb',#6,'OPS_TaskIdentity',$,(#147));
#149=IFCRELDEFINESBYPROPERTIES('3XgVjVdEwrvBBY$ByeTYxe',#6,$,$,(#51),#148);
#150=IFCPROPERTYSINGLEVALUE('InternalTaskId',$,IFCTEXT('task-mula81vocuf32002'),$);
#151=IFCPROPERTYSET('0Qg21ur9Ch8stRkhUD6JRM',#6,'OPS_TaskIdentity',$,(#150));
#152=IFCRELDEFINESBYPROPERTIES('0$hQjc8LU93VcSO6CYus8z',#6,$,$,(#53),#151);
#153=IFCPROPERTYSINGLEVALUE('InternalTaskId',$,IFCTEXT('task-mula81vq4vgw2003'),$);
#154=IFCPROPERTYSET('23yfGisoW2JL9NPyFBStZx',#6,'OPS_TaskIdentity',$,(#153));
#155=IFCRELDEFINESBYPROPERTIES('0tuSWPA6EXT6Q1kUiTkanJ',#6,$,$,(#55),#154);
#156=IFCPROPERTYSINGLEVALUE('InternalTaskId',$,IFCTEXT('task-mula81vr1xik2004'),$);
#157=IFCPROPERTYSET('0cZt2xPKyKMs32l1MYV8$4',#6,'OPS_TaskIdentity',$,(#156));
#158=IFCRELDEFINESBYPROPERTIES('14wYcLKoseRVBhhZD2xaXV',#6,$,$,(#57),#157);
#159=IFCPROPERTYSINGLEVALUE('InternalTaskId',$,IFCTEXT('task-mula81vs0o3j2005'),$);
#160=IFCPROPERTYSET('2rLl6apyywxAWDcj1yvb7b',#6,'OPS_TaskIdentity',$,(#159));
#161=IFCRELDEFINESBYPROPERTIES('2K_3Z0VyFNDNLKIxILhjso',#6,$,$,(#59),#160);
#162=IFCPROPERTYSINGLEVALUE('InternalTaskId',$,IFCTEXT('task-mula81vurd2p2006'),$);
#163=IFCPROPERTYSET('20nQVWBXl1eO$XLDp$YC6$',#6,'OPS_TaskIdentity',$,(#162));
#164=IFCRELDEFINESBYPROPERTIES('1Ra5hnPQFEdUM1SwRKN0mY',#6,$,$,(#61),#163);
#165=IFCPROPERTYSINGLEVALUE('InternalTaskId',$,IFCTEXT('task-mula81vvenaq2007'),$);
#166=IFCPROPERTYSET('2O0YCxIbq32BwsKUyuY2UL',#6,'OPS_TaskIdentity',$,(#165));
#167=IFCRELDEFINESBYPROPERTIES('0ryACYAAwf3avLa9tbioc_',#6,$,$,(#63),#166);
#168=IFCPROPERTYSINGLEVALUE('InternalTaskId',$,IFCTEXT('task-mula81vw0vjt2008'),$);
#169=IFCPROPERTYSET('1HU1U8R_zd9MgDlxK83e5n',#6,'OPS_TaskIdentity',$,(#168));
#170=IFCRELDEFINESBYPROPERTIES('22tPs_wclG2xgK3Y10Jxos',#6,$,$,(#65),#169);
#171=IFCPROPERTYSINGLEVALUE('InternalTaskId',$,IFCTEXT('task-mula81vysndt2009'),$);
#172=IFCPROPERTYSET('15xZSd3$LFhPUcTuODIXAg',#6,'OPS_TaskIdentity',$,(#171));
#173=IFCRELDEFINESBYPROPERTIES('2eW3rBx_zZEPrkExuWNpK8',#6,$,$,(#67),#172);
#174=IFCPROPERTYSINGLEVALUE('InternalTaskId',$,IFCTEXT('task-mula81vz5pw92010'),$);
#175=IFCPROPERTYSET('2VOgxSGDYnBWr0XRRoQEp0',#6,'OPS_TaskIdentity',$,(#174));
#176=IFCRELDEFINESBYPROPERTIES('008qemsmEqwGXz0MJa$sjF',#6,$,$,(#69),#175);
#177=IFCPROPERTYSINGLEVALUE('InternalTaskId',$,IFCTEXT('task-mula81w18z6q2011'),$);
#178=IFCPROPERTYSET('0OHIbFMuTHvcwwO1rVvKrR',#6,'OPS_TaskIdentity',$,(#177));
#179=IFCRELDEFINESBYPROPERTIES('2H_shkZw$SWxW27MBY_jz2',#6,$,$,(#71),#178);
#180=IFCPROPERTYSINGLEVALUE('InternalTaskId',$,IFCTEXT('task-mula81w2c0p72012'),$);
#181=IFCPROPERTYSET('17jJYuEF64Ge99v8YtMXWW',#6,'OPS_TaskIdentity',$,(#180));
#182=IFCRELDEFINESBYPROPERTIES('0cUHlixZYdXw$2SQ35A6pb',#6,$,$,(#73),#181);
#183=IFCPROPERTYSINGLEVALUE('InternalTaskId',$,IFCTEXT('task-mula81w4ztyw2013'),$);
#184=IFCPROPERTYSET('0ch0F4Ih9kgmLH85AGgc4F',#6,'OPS_TaskIdentity',$,(#183));
#185=IFCRELDEFINESBYPROPERTIES('13GtWOrn_hRArXYcTqoKai',#6,$,$,(#75),#184);
#186=IFCPROPERTYSINGLEVALUE('InternalTaskId',$,IFCTEXT('task-mula81w60n4u2014'),$);
#187=IFCPROPERTYSET('24S0LIgaGXddumjfKmT0Cm',#6,'OPS_TaskIdentity',$,(#186));
#188=IFCRELDEFINESBYPROPERTIES('0V2Z5brVjscsNj_2Xpgbvh',#6,$,$,(#77),#187);
#189=IFCPROPERTYSINGLEVALUE('InternalTaskId',$,IFCTEXT('task-mula81w8v0u42015'),$);
#190=IFCPROPERTYSET('1YFPTiDV9m0noO8DvQHqFT',#6,'OPS_TaskIdentity',$,(#189));
#191=IFCRELDEFINESBYPROPERTIES('0eIJI5TxQZYu76ywugyPTF',#6,$,$,(#79),#190);
#192=IFCPROPERTYSINGLEVALUE('InternalTaskId',$,IFCTEXT('task-mula81wbo1u72016'),$);
#193=IFCPROPERTYSET('1pliRKZ6z5kRn48N_SDDwS',#6,'OPS_TaskIdentity',$,(#192));
#194=IFCRELDEFINESBYPROPERTIES('3oOH4sYZjR4gy31giJIOat',#6,$,$,(#81),#193);
#195=IFCPROPERTYSINGLEVALUE('InternalTaskId',$,IFCTEXT('task-mula81werucv2017'),$);
#196=IFCPROPERTYSET('0W79DGo7$qW8gcJIt46Wcw',#6,'OPS_TaskIdentity',$,(#195));
#197=IFCRELDEFINESBYPROPERTIES('1gG0UpMjU40VGCAUVJU8aP',#6,$,$,(#83),#196);
#198=IFCPROPERTYSINGLEVALUE('InternalTaskId',$,IFCTEXT('task-mula81wgyhu92018'),$);
#199=IFCPROPERTYSET('3kWTVWCc4SGEjQAsyBPEdA',#6,'OPS_TaskIdentity',$,(#198));
#200=IFCRELDEFINESBYPROPERTIES('3K1CLrfkdpJFtomH4_ItqB',#6,$,$,(#85),#199);
#201=IFCPROPERTYSINGLEVALUE('InternalTaskId',$,IFCTEXT('task-mula81wieyff2019'),$);
#202=IFCPROPERTYSET('2mKP_WcUR3Skw1S3xQNvoL',#6,'OPS_TaskIdentity',$,(#201));
#203=IFCRELDEFINESBYPROPERTIES('0Gu6CdBXEfWmVmya4uBFkC',#6,$,$,(#87),#202);
#204=IFCPROPERTYSINGLEVALUE('InternalTaskId',$,IFCTEXT('task-mula81wj0wyi2020'),$);
#205=IFCPROPERTYSET('3GzleyCR$FC_oVgsRrzCxA',#6,'OPS_TaskIdentity',$,(#204));
#206=IFCRELDEFINESBYPROPERTIES('23rjyECEkQrs3Qn$D_Qi4Z',#6,$,$,(#89),#205);
#207=IFCPROPERTYSINGLEVALUE('InternalTaskId',$,IFCTEXT('task-mula81wlo1ev2021'),$);
#208=IFCPROPERTYSET('1efBp$vWof2$H_zRXP6KnR',#6,'OPS_TaskIdentity',$,(#207));
#209=IFCRELDEFINESBYPROPERTIES('2$7i6uPzaaFgCCc7ZHZJeG',#6,$,$,(#91),#208);
#210=IFCPROPERTYSINGLEVALUE('InternalTaskId',$,IFCTEXT('task-mula81wnpds22022'),$);
#211=IFCPROPERTYSET('22piIK58nw_2TSwPiRI_Sl',#6,'OPS_TaskIdentity',$,(#210));
#212=IFCRELDEFINESBYPROPERTIES('3fYmA7KQaDnbUhLouPyvqi',#6,$,$,(#93),#211);
#213=IFCPROPERTYSINGLEVALUE('MilestoneKind',$,IFCLABEL('START'),$);
#214=IFCPROPERTYSET('2fJSX3HIvBHT0uJgqI4mBX',#6,'OPS_Milestone',$,(#213));
#215=IFCRELDEFINESBYPROPERTIES('3ehKilkZEd9tCm_CK4Z1nM',#6,$,$,(#51),#214);
#216=IFCPROPERTYSINGLEVALUE('MilestoneKind',$,IFCLABEL('FINISH'),$);
#217=IFCPROPERTYSINGLEVALUE('Mandatory',$,IFCBOOLEAN(.T.),$);
#218=IFCPROPERTYSET('270Ou3M9UMA5$pBuXe_ZhV',#6,'OPS_Milestone',$,(#216,#217));
#219=IFCRELDEFINESBYPROPERTIES('2EmTN9AsLEaXceaAbCpY8E',#6,$,$,(#93),#218);
ENDSEC;
END-ISO-10303-21;
