ISO-10303-21;
HEADER;
FILE_DESCRIPTION(('ViewDefinition [SchedulingView]'),'2;1');
FILE_NAME('New-Build Villa, Wassenaar.ifc','2026-09-28T13:27:22',('Thomas van Leeuwen'),('Exclusive Living BV'),'Open Planner Studio 0.1','Open Planner Studio','');
FILE_SCHEMA(('IFC4X3'));
ENDSEC;
DATA;
#1=IFCPERSON($,'Thomas van Leeuwen',$,$,$,$,$,$);
#2=IFCORGANIZATION($,'Exclusive Living BV',$,$,$);
#3=IFCPERSONANDORGANIZATION(#1,#2,$);
#4=IFCORGANIZATION($,'OpenAEC Foundation',$,$,$);
#5=IFCAPPLICATION(#4,'0.2','Open Planner Studio','OPS');
#6=IFCOWNERHISTORY(#3,#5,$,.NOCHANGE.,$,$,$,1790602042);
#7=IFCSIUNIT(*,.LENGTHUNIT.,$,.METRE.);
#8=IFCSIUNIT(*,.TIMEUNIT.,$,.SECOND.);
#9=IFCUNITASSIGNMENT((#7,#8));
#10=IFCCARTESIANPOINT((0.,0.,0.));
#11=IFCAXIS2PLACEMENT3D(#10,$,$);
#12=IFCGEOMETRICREPRESENTATIONCONTEXT($,'Plan',3,1.0E-05,#11,$);
#13=IFCPROJECT('0LZXVrv$tnb4yob09Q7OWb',#6,'New-Build Villa, Wassenaar','Detached luxury villa with swimming pool and guest house',$,$,$,(#12),#9);
#14=IFCTIMEPERIOD('07:00:00','16:00:00');
#15=IFCRECURRENCEPATTERN(.WEEKLY.,$,(1,2,3,4,5),$,$,$,$,(#14));
#16=IFCWORKTIME('Standard work week',.PREDICTED.,$,#15,$,$);
#17=IFCWORKTIME('New Year''s Day',.PREDICTED.,$,$,'2027-01-01','2027-01-01');
#18=IFCWORKTIME('Good Friday',.PREDICTED.,$,$,'2027-03-26','2027-03-26');
#19=IFCWORKTIME('Easter',.PREDICTED.,$,$,'2027-03-28','2027-03-29');
#20=IFCWORKTIME('King''s Day',.PREDICTED.,$,$,'2027-04-27','2027-04-27');
#21=IFCWORKTIME('Liberation Day',.PREDICTED.,$,$,'2027-05-05','2027-05-05');
#22=IFCWORKTIME('Ascension Day',.PREDICTED.,$,$,'2027-05-06','2027-05-06');
#23=IFCWORKTIME('Whitsun',.PREDICTED.,$,$,'2027-05-16','2027-05-17');
#24=IFCWORKTIME('Christmas',.PREDICTED.,$,$,'2027-12-25','2027-12-26');
#25=IFCWORKTIME('Construction holiday (northern region)',.PREDICTED.,$,$,'2027-07-26','2027-08-15');
#26=IFCWORKTIME('New Year''s Day',.PREDICTED.,$,$,'2028-01-01','2028-01-01');
#27=IFCWORKTIME('Good Friday',.PREDICTED.,$,$,'2028-04-14','2028-04-14');
#28=IFCWORKTIME('Easter',.PREDICTED.,$,$,'2028-04-16','2028-04-17');
#29=IFCWORKTIME('King''s Day',.PREDICTED.,$,$,'2028-04-27','2028-04-27');
#30=IFCWORKTIME('Liberation Day',.PREDICTED.,$,$,'2028-05-05','2028-05-05');
#31=IFCWORKTIME('Ascension Day',.PREDICTED.,$,$,'2028-05-25','2028-05-25');
#32=IFCWORKTIME('Whitsun',.PREDICTED.,$,$,'2028-06-04','2028-06-05');
#33=IFCWORKTIME('Christmas',.PREDICTED.,$,$,'2028-12-25','2028-12-26');
#34=IFCWORKTIME('Construction holiday (northern region)',.PREDICTED.,$,$,'2028-07-24','2028-08-13');
#35=IFCWORKCALENDAR('0PvYKioGjWhYSKjAqae$H1',#6,'Construction calendar NL','Standard construction calendar: Mon-Fri 07:00-16:00',$,(#16),(#17,#18,#19,#20,#21,#22,#23,#24,#25,#26,#27,#28,#29,#30,#31,#32,#33,#34),.FIRSTSHIFT.);
#36=IFCPROPERTYSINGLEVALUE('HoursPerDay',$,IFCREAL(8),$);
#37=IFCPROPERTYSET('2D$CzxMIZAIgmseNX6yhqq',#6,'OPS_Calendar',$,(#36));
#38=IFCRELDEFINESBYPROPERTIES('1w5heW__Adm8h4xWXuYGBF',#6,$,$,(#35),#37);
#39=IFCWORKPLAN('0tVEQXuGaLVfPjJyzKeT60',#6,'New-Build Villa, Wassenaar','Detached luxury villa with swimming pool and guest house',$,$,'2026-09-28T13:27:22',$,$,$,$,$,'2027-03-01T07:00:00','2027-03-16T07:00:00',.PLANNED.);
#40=IFCWORKSCHEDULE('04UAxVGI2s2BJIOvBbFHb7',#6,'Construction schedule v1.0',$,$,$,'2026-09-28T13:27:22',$,$,$,$,$,'2027-03-01T07:00:00','2027-03-16T07:00:00',.PLANNED.);
#41=IFCRELAGGREGATES('0599lf$uTc7VKJxMU3tvBb',#6,$,$,#39,(#40));
#42=IFCTASKTIME('1. Preparation Time',.PREDICTED.,$,.WORKTIME.,'P0Y0M6D','2027-03-01T07:00:00','2027-03-05T07:00:00','2027-03-01T07:00:00','2027-03-08T07:00:00','2027-03-01T07:00:00','2027-12-01T07:00:00','P0Y0M0D','P0Y0M0D',.T.,$,$,$,$,$,0.00);
#43=IFCTASK('1gj9WucpG4eturK5_Y9DyP',#6,'1. Preparation',$,$,'1',$,$,$,.F.,$,#42,.CONSTRUCTION.);
#44=IFCTASKTIME('Set up site Time',.PREDICTED.,$,.WORKTIME.,'P0Y0M3D','2027-03-01T07:00:00','2027-03-03T07:00:00','2027-03-01T07:00:00','2027-03-03T07:00:00','2027-03-01T07:00:00','2027-03-03T07:00:00','P0Y0M0D','P0Y0M0D',.T.,$,$,$,$,$,0.00);
#45=IFCTASK('25Y46kkWAloYY_GzkWTVOZ',#6,'Set up site',$,$,'1.1',$,$,$,.F.,$,#44,.LOGISTIC.);
#46=IFCTASKTIME('Protect trees Time',.PREDICTED.,$,.WORKTIME.,'P0Y0M2D','2027-03-01T07:00:00','2027-03-02T07:00:00','2027-03-04T07:00:00','2027-03-05T07:00:00','2027-11-29T07:00:00','2027-11-30T07:00:00','P0Y0M0D','P0Y0M171D',.F.,$,$,$,$,$,0.00);
#47=IFCTASK('3HBPVz707mFKVp0wiwsfxz',#6,'Protect trees',$,$,'1.2',$,$,$,.F.,$,#46,.ATTENDANCE.);
#48=IFCTASKTIME('Start of construction Time',.PREDICTED.,$,.WORKTIME.,'P0Y0M0D','2027-03-01T07:00:00','2027-03-01T07:00:00','2027-03-08T07:00:00','2027-03-08T07:00:00','2027-12-01T07:00:00','2027-12-01T07:00:00','P0Y0M171D','P0Y0M171D',.F.,$,$,$,$,$,0.00);
#49=IFCTASK('1Q0DjEf0DXCn9D_aOdWXK6',#6,'Start of construction',$,$,'1.3',$,$,$,.T.,$,#48,.CONSTRUCTION.);
#50=IFCTASKTIME('2. Earthworks & foundations Time',.PREDICTED.,$,.WORKTIME.,'P0Y0M34D','2027-03-01T07:00:00','2027-03-05T07:00:00','2027-03-04T07:00:00','2027-04-22T07:00:00','2027-03-04T07:00:00','2027-12-01T07:00:00','P0Y0M0D','P0Y0M0D',.T.,$,$,$,$,$,0.00);
#51=IFCTASK('37Er3ySBoy_cyZMgr3inH0',#6,'2. Earthworks & foundations',$,$,'2',$,$,$,.F.,$,#50,.CONSTRUCTION.);
#52=IFCTASKTIME('Excavate swimming pool Time',.PREDICTED.,$,.WORKTIME.,'P0Y0M8D','2027-03-01T07:00:00','2027-03-10T07:00:00','2027-03-04T07:00:00','2027-03-15T07:00:00','2027-03-04T07:00:00','2027-03-15T07:00:00','P0Y0M0D','P0Y0M0D',.T.,$,$,$,$,$,0.00);
#53=IFCTASK('3NGwfH5J1Wy$SYf9_81trm',#6,'Excavate swimming pool',$,$,'2.1',$,$,$,.F.,$,#52,.CONSTRUCTION.);
#54=IFCTASKTIME('Excavate foundation trenches Time',.PREDICTED.,$,.WORKTIME.,'P0Y0M5D','2027-03-01T07:00:00','2027-03-05T07:00:00','2027-03-16T07:00:00','2027-03-22T07:00:00','2027-10-27T07:00:00','2027-11-02T07:00:00','P0Y0M0D','P0Y0M140D',.F.,$,$,$,$,$,0.00);
#55=IFCTASK('3okDEmHf3mJZvl$ZquGWfS',#6,'Excavate foundation trenches',$,$,'2.2',$,$,$,.F.,$,#54,.CONSTRUCTION.);
#56=IFCTASKTIME('Pour foundations Time',.PREDICTED.,$,.WORKTIME.,'P0Y0M8D','2027-03-01T07:00:00','2027-03-10T07:00:00','2027-03-23T07:00:00','2027-04-05T07:00:00','2027-11-03T07:00:00','2027-11-12T07:00:00','P0Y0M0D','P0Y0M140D',.F.,$,$,$,$,$,0.00);
#57=IFCTASK('2tLO0eYBo9MI0c5Vne9Zt0',#6,'Pour foundations',$,$,'2.3',$,$,$,.F.,$,#56,.CONSTRUCTION.);
#58=IFCTASKTIME('Sewerage and drainage Time',.PREDICTED.,$,.WORKTIME.,'P0Y0M5D','2027-03-01T07:00:00','2027-03-05T07:00:00','2027-04-06T07:00:00','2027-04-12T07:00:00','2027-11-15T07:00:00','2027-11-19T07:00:00','P0Y0M0D','P0Y0M140D',.F.,$,$,$,$,$,0.00);
#59=IFCTASK('3_IKH$OcQy1njzUIFQuPzO',#6,'Sewerage and drainage',$,$,'2.4',$,$,$,.F.,$,#58,.INSTALLATION.);
#60=IFCTASKTIME('Fill crawl space Time',.PREDICTED.,$,.WORKTIME.,'P0Y0M3D','2027-03-01T07:00:00','2027-03-03T07:00:00','2027-04-13T07:00:00','2027-04-15T07:00:00','2027-11-22T07:00:00','2027-11-24T07:00:00','P0Y0M0D','P0Y0M140D',.F.,$,$,$,$,$,0.00);
#61=IFCTASK('0Gfbarmx7WBc0y_2MJmbUS',#6,'Fill crawl space',$,$,'2.5',$,$,$,.F.,$,#60,.CONSTRUCTION.);
#62=IFCTASKTIME('Ground floor slab Time',.PREDICTED.,$,.WORKTIME.,'P0Y0M5D','2027-03-01T07:00:00','2027-03-05T07:00:00','2027-04-16T07:00:00','2027-04-22T07:00:00','2027-11-25T07:00:00','2027-12-01T07:00:00','P0Y0M140D','P0Y0M140D',.F.,$,$,$,$,$,0.00);
#63=IFCTASK('0xPSjWcB75881jUsSnQNP8',#6,'Ground floor slab',$,$,'2.6',$,$,$,.F.,$,#62,.CONSTRUCTION.);
#64=IFCTASKTIME('3. Structural works Time',.PREDICTED.,$,.WORKTIME.,'P0Y0M45D','2027-03-01T07:00:00','2027-03-05T07:00:00','2027-03-09T07:00:00','2027-05-18T07:00:00','2027-03-09T07:00:00','2027-12-01T07:00:00','P0Y0M0D','P0Y0M0D',.T.,$,$,$,$,$,0.00);
#65=IFCTASK('1kNGK_x6bNHqifwSHgPvUk',#6,'3. Structural works',$,$,'3',$,$,$,.F.,$,#64,.CONSTRUCTION.);
#66=IFCTASKTIME('Ground floor masonry Time',.PREDICTED.,$,.WORKTIME.,'P0Y0M12D','2027-03-01T07:00:00','2027-03-16T07:00:00','2027-03-09T07:00:00','2027-03-24T07:00:00','2027-03-09T07:00:00','2027-03-24T07:00:00','P0Y0M0D','P0Y0M0D',.T.,$,$,$,$,$,0.00);
#67=IFCTASK('3DeZG17l9$6rlBU3lKuCH0',#6,'Ground floor masonry',$,$,'3.1',$,$,$,.F.,$,#66,.CONSTRUCTION.);
#68=IFCTASKTIME('Pour upper floor slab Time',.PREDICTED.,$,.WORKTIME.,'P0Y0M5D','2027-03-01T07:00:00','2027-03-05T07:00:00','2027-03-25T07:00:00','2027-04-02T07:00:00','2027-03-25T07:00:00','2027-04-02T07:00:00','P0Y0M0D','P0Y0M0D',.T.,$,$,$,$,$,0.00);
#69=IFCTASK('1PlEfTQkN2rksyNxwFwDKI',#6,'Pour upper floor slab',$,$,'3.2',$,$,$,.F.,$,#68,.CONSTRUCTION.);
#70=IFCTASKTIME('Upper floor masonry Time',.PREDICTED.,$,.WORKTIME.,'P0Y0M10D','2027-03-01T07:00:00','2027-03-12T07:00:00','2027-04-05T07:00:00','2027-04-16T07:00:00','2027-04-05T07:00:00','2027-04-16T07:00:00','P0Y0M0D','P0Y0M0D',.T.,$,$,$,$,$,0.00);
#71=IFCTASK('2lJe44wMgyuMVObdb0EvkH',#6,'Upper floor masonry',$,$,'3.3',$,$,$,.F.,$,#70,.CONSTRUCTION.);
#72=IFCTASKTIME('Timber roof structure Time',.PREDICTED.,$,.WORKTIME.,'P0Y0M10D','2027-03-01T07:00:00','2027-03-12T07:00:00','2027-04-19T07:00:00','2027-05-03T07:00:00','2027-04-19T07:00:00','2027-05-03T07:00:00','P0Y0M0D','P0Y0M0D',.T.,$,$,$,$,$,0.00);
#73=IFCTASK('2XOBel2uPsYiUNmE989iP9',#6,'Timber roof structure',$,$,'3.4',$,$,$,.F.,$,#72,.CONSTRUCTION.);
#74=IFCTASKTIME('Roof tiles Time',.PREDICTED.,$,.WORKTIME.,'P0Y0M5D','2027-03-01T07:00:00','2027-03-05T07:00:00','2027-05-04T07:00:00','2027-05-12T07:00:00','2027-05-04T07:00:00','2027-05-12T07:00:00','P0Y0M0D','P0Y0M0D',.T.,$,$,$,$,$,0.00);
#75=IFCTASK('30vTfjHhjnF7WRkWpxV95L',#6,'Roof tiles',$,$,'3.5',$,$,$,.F.,$,#74,.CONSTRUCTION.);
#76=IFCTASKTIME('Build chimneys Time',.PREDICTED.,$,.WORKTIME.,'P0Y0M3D','2027-03-01T07:00:00','2027-03-03T07:00:00','2027-05-13T07:00:00','2027-05-18T07:00:00','2027-05-13T07:00:00','2027-05-18T07:00:00','P0Y0M0D','P0Y0M0D',.T.,$,$,$,$,$,0.00);
#77=IFCTASK('2Py6Gx7zQqDGsZs7e0Un_x',#6,'Build chimneys',$,$,'3.6',$,$,$,.F.,$,#76,.CONSTRUCTION.);
#78=IFCTASKTIME('Topping out Time',.PREDICTED.,$,.WORKTIME.,'P0Y0M0D','2027-03-01T07:00:00','2027-03-01T07:00:00','2027-05-18T07:00:00','2027-05-18T07:00:00','2027-12-01T07:00:00','2027-12-01T07:00:00','P0Y0M126D','P0Y0M126D',.F.,$,$,$,$,$,0.00);
#79=IFCTASK('1eF$ZqK4r3Ch46tJxOHAgQ',#6,'Topping out',$,$,'3.7',$,$,$,.T.,$,#78,.CONSTRUCTION.);
#80=IFCTASKTIME('4. Facade & roof Time',.PREDICTED.,$,.WORKTIME.,'P0Y0M26D','2027-03-01T07:00:00','2027-03-05T07:00:00','2027-05-03T07:00:00','2027-06-10T07:00:00','2027-05-03T07:00:00','2027-12-01T07:00:00','P0Y0M0D','P0Y0M0D',.T.,$,$,$,$,$,0.00);
#81=IFCTASK('2qnNFfDcRcbD6XaCFcooGn',#6,'4. Facade & roof',$,$,'4',$,$,$,.F.,$,#80,.CONSTRUCTION.);
#82=IFCTASKTIME('Facade insulation Time',.PREDICTED.,$,.WORKTIME.,'P0Y0M8D','2027-03-01T07:00:00','2027-03-10T07:00:00','2027-05-03T07:00:00','2027-05-14T07:00:00','2027-05-03T07:00:00','2027-05-14T07:00:00','P0Y0M0D','P0Y0M0D',.T.,$,$,$,$,$,0.00);
#83=IFCTASK('3j5oiRUuEIS$NGz4TP_4WT',#6,'Facade insulation',$,$,'4.1',$,$,$,.F.,$,#82,.INSTALLATION.);
#84=IFCTASKTIME('Hardwood window frames Time',.PREDICTED.,$,.WORKTIME.,'P0Y0M8D','2027-03-01T07:00:00','2027-03-10T07:00:00','2027-05-18T07:00:00','2027-05-27T07:00:00','2027-05-18T07:00:00','2027-05-27T07:00:00','P0Y0M0D','P0Y0M0D',.T.,$,$,$,$,$,0.00);
#85=IFCTASK('0r0wnqi1VU65CUvTbFO2vZ',#6,'Hardwood window frames',$,$,'4.2',$,$,$,.F.,$,#84,.INSTALLATION.);
#86=IFCTASKTIME('Triple glazing HR+++ Time',.PREDICTED.,$,.WORKTIME.,'P0Y0M5D','2027-03-01T07:00:00','2027-03-05T07:00:00','2027-05-28T07:00:00','2027-06-03T07:00:00','2027-05-28T07:00:00','2027-06-03T07:00:00','P0Y0M0D','P0Y0M0D',.T.,$,$,$,$,$,0.00);
#87=IFCTASK('3FW_kMyYwy$gkevf9vCArc',#6,'Triple glazing HR+++',$,$,'4.3',$,$,$,.F.,$,#86,.INSTALLATION.);
#88=IFCTASKTIME('Zinc gutters and downpipes Time',.PREDICTED.,$,.WORKTIME.,'P0Y0M5D','2027-03-01T07:00:00','2027-03-05T07:00:00','2027-06-04T07:00:00','2027-06-10T07:00:00','2027-06-04T07:00:00','2027-06-10T07:00:00','P0Y0M0D','P0Y0M0D',.T.,$,$,$,$,$,0.00);
#89=IFCTASK('3WTCUEQ2APjZeRA20Mo3QJ',#6,'Zinc gutters and downpipes',$,$,'4.4',$,$,$,.F.,$,#88,.CONSTRUCTION.);
#90=IFCTASKTIME('Wind and weathertight Time',.PREDICTED.,$,.WORKTIME.,'P0Y0M0D','2027-03-01T07:00:00','2027-03-01T07:00:00','2027-06-10T07:00:00','2027-06-10T07:00:00','2027-12-01T07:00:00','2027-12-01T07:00:00','P0Y0M109D','P0Y0M109D',.F.,$,$,$,$,$,0.00);
#91=IFCTASK('3aK4tfVgZbIcZ3uNXIrK9m',#6,'Wind and weathertight',$,$,'4.5',$,$,$,.T.,$,#90,.CONSTRUCTION.);
#92=IFCTASKTIME('5. Building services Time',.PREDICTED.,$,.WORKTIME.,'P0Y0M44D','2027-03-01T07:00:00','2027-03-05T07:00:00','2027-06-11T07:00:00','2027-09-01T07:00:00','2027-06-11T07:00:00','2027-12-01T07:00:00','P0Y0M0D','P0Y0M0D',.T.,$,$,$,$,$,0.00);
#93=IFCTASK('1FvG92edhuG5_NrHTPUhzV',#6,'5. Building services',$,$,'5',$,$,$,.F.,$,#92,.INSTALLATION.);
#94=IFCTASKTIME('Electrical first fix Time',.PREDICTED.,$,.WORKTIME.,'P0Y0M8D','2027-03-01T07:00:00','2027-03-10T07:00:00','2027-06-11T07:00:00','2027-06-22T07:00:00','2027-06-11T07:00:00','2027-06-22T07:00:00','P0Y0M0D','P0Y0M0D',.T.,$,$,$,$,$,0.00);
#95=IFCTASK('0vn$6khN6QqK0M3uBIChLl',#6,'Electrical first fix',$,$,'5.1',$,$,$,.F.,$,#94,.INSTALLATION.);
#96=IFCTASKTIME('Plumbing first fix Time',.PREDICTED.,$,.WORKTIME.,'P0Y0M8D','2027-03-01T07:00:00','2027-03-10T07:00:00','2027-06-15T07:00:00','2027-06-24T07:00:00','2027-10-05T07:00:00','2027-10-14T07:00:00','P0Y0M0D','P0Y0M65D',.F.,$,$,$,$,$,0.00);
#97=IFCTASK('2g9sTBitxb2Qlwa$FGxQaN',#6,'Plumbing first fix',$,$,'5.2',$,$,$,.F.,$,#96,.INSTALLATION.);
#98=IFCTASKTIME('Underfloor heating Time',.PREDICTED.,$,.WORKTIME.,'P0Y0M8D','2027-03-01T07:00:00','2027-03-10T07:00:00','2027-06-25T07:00:00','2027-07-06T07:00:00','2027-10-15T07:00:00','2027-10-26T07:00:00','P0Y0M0D','P0Y0M65D',.F.,$,$,$,$,$,0.00);
#99=IFCTASK('0NezMWoLhgUpOcUrN3w3c0',#6,'Underfloor heating',$,$,'5.3',$,$,$,.F.,$,#98,.INSTALLATION.);
#100=IFCTASKTIME('Home automation system Time',.PREDICTED.,$,.WORKTIME.,'P0Y0M5D','2027-03-01T07:00:00','2027-03-05T07:00:00','2027-07-07T07:00:00','2027-07-13T07:00:00','2027-10-27T07:00:00','2027-11-02T07:00:00','P0Y0M0D','P0Y0M65D',.F.,$,$,$,$,$,0.00);
#101=IFCTASK('0hipb8oGGyTxNKIayhncW0',#6,'Home automation system',$,$,'5.4',$,$,$,.F.,$,#100,.INSTALLATION.);
#102=IFCTASKTIME('Pool plant Time',.PREDICTED.,$,.WORKTIME.,'P0Y0M10D','2027-03-01T07:00:00','2027-03-12T07:00:00','2027-07-14T07:00:00','2027-08-17T07:00:00','2027-11-03T07:00:00','2027-11-16T07:00:00','P0Y0M0D','P0Y0M65D',.F.,$,$,$,$,$,0.00);
#103=IFCTASK('3U$P_2NbMZa5ZQCKjZKdR_',#6,'Pool plant',$,$,'5.5',$,$,$,.F.,$,#102,.INSTALLATION.);
#104=IFCTASKTIME('Heat pump and ground loop Time',.PREDICTED.,$,.WORKTIME.,'P0Y0M8D','2027-03-01T07:00:00','2027-03-10T07:00:00','2027-08-18T07:00:00','2027-08-27T07:00:00','2027-11-17T07:00:00','2027-11-26T07:00:00','P0Y0M0D','P0Y0M65D',.F.,$,$,$,$,$,0.00);
#105=IFCTASK('00MOgZon3ZlTNCSb5WIABv',#6,'Heat pump and ground loop',$,$,'5.6',$,$,$,.F.,$,#104,.INSTALLATION.);
#106=IFCTASKTIME('Solar panels Time',.PREDICTED.,$,.WORKTIME.,'P0Y0M3D','2027-03-01T07:00:00','2027-03-03T07:00:00','2027-08-30T07:00:00','2027-09-01T07:00:00','2027-11-29T07:00:00','2027-12-01T07:00:00','P0Y0M65D','P0Y0M65D',.F.,$,$,$,$,$,0.00);
#107=IFCTASK('1dAfxctabZ1dVMQOmx29YE',#6,'Solar panels',$,$,'5.7',$,$,$,.F.,$,#106,.INSTALLATION.);
#108=IFCTASKTIME('6. Fit-out Time',.PREDICTED.,$,.WORKTIME.,'P0Y0M58D','2027-03-01T07:00:00','2027-03-05T07:00:00','2027-07-16T07:00:00','2027-10-26T07:00:00','2027-07-16T07:00:00','2027-10-26T07:00:00','P0Y0M0D','P0Y0M0D',.T.,$,$,$,$,$,0.00);
#109=IFCTASK('0CaouGSorPffuPYo8uFCFG',#6,'6. Fit-out',$,$,'6',$,$,$,.F.,$,#108,.CONSTRUCTION.);
#110=IFCTASKTIME('Plastering, walls and ceilings Time',.PREDICTED.,$,.WORKTIME.,'P0Y0M12D','2027-03-01T07:00:00','2027-03-16T07:00:00','2027-07-16T07:00:00','2027-08-23T07:00:00','2027-07-16T07:00:00','2027-08-23T07:00:00','P0Y0M0D','P0Y0M0D',.T.,$,$,$,$,$,0.00);
#111=IFCTASK('3ZTnWo0g5GPV2NRPwUJiyV',#6,'Plastering, walls and ceilings',$,$,'6.1',$,$,$,.F.,$,#110,.CONSTRUCTION.);
#112=IFCTASKTIME('Luxury bathroom tiling Time',.PREDICTED.,$,.WORKTIME.,'P0Y0M10D','2027-03-01T07:00:00','2027-03-12T07:00:00','2027-08-24T07:00:00','2027-09-06T07:00:00','2027-08-24T07:00:00','2027-09-06T07:00:00','P0Y0M0D','P0Y0M0D',.T.,$,$,$,$,$,0.00);
#113=IFCTASK('1ua4JHrPIOnhTQMx05LEmy',#6,'Luxury bathroom tiling',$,$,'6.2',$,$,$,.F.,$,#112,.CONSTRUCTION.);
#114=IFCTASKTIME('Natural stone floors Time',.PREDICTED.,$,.WORKTIME.,'P0Y0M8D','2027-03-01T07:00:00','2027-03-10T07:00:00','2027-09-07T07:00:00','2027-09-16T07:00:00','2027-09-07T07:00:00','2027-09-16T07:00:00','P0Y0M0D','P0Y0M0D',.T.,$,$,$,$,$,0.00);
#115=IFCTASK('2lEKsVSbud_8zCya5Lbq3i',#6,'Natural stone floors',$,$,'6.3',$,$,$,.F.,$,#114,.CONSTRUCTION.);
#116=IFCTASKTIME('Oak staircases Time',.PREDICTED.,$,.WORKTIME.,'P0Y0M5D','2027-03-01T07:00:00','2027-03-05T07:00:00','2027-09-17T07:00:00','2027-09-23T07:00:00','2027-09-17T07:00:00','2027-09-23T07:00:00','P0Y0M0D','P0Y0M0D',.T.,$,$,$,$,$,0.00);
#117=IFCTASK('3$zGo7rFUxET7tuV5xxM00',#6,'Oak staircases',$,$,'6.4',$,$,$,.F.,$,#116,.INSTALLATION.);
#118=IFCTASKTIME('Bespoke kitchen Time',.PREDICTED.,$,.WORKTIME.,'P0Y0M8D','2027-03-01T07:00:00','2027-03-10T07:00:00','2027-09-24T07:00:00','2027-10-05T07:00:00','2027-09-24T07:00:00','2027-10-05T07:00:00','P0Y0M0D','P0Y0M0D',.T.,$,$,$,$,$,0.00);
#119=IFCTASK('3goN8NgoG6kElQNpGQZanq',#6,'Bespoke kitchen',$,$,'6.5',$,$,$,.F.,$,#118,.INSTALLATION.);
#120=IFCTASKTIME('Painting Time',.PREDICTED.,$,.WORKTIME.,'P0Y0M10D','2027-03-01T07:00:00','2027-03-12T07:00:00','2027-10-06T07:00:00','2027-10-19T07:00:00','2027-10-06T07:00:00','2027-10-19T07:00:00','P0Y0M0D','P0Y0M0D',.T.,$,$,$,$,$,0.00);
#121=IFCTASK('0gzUHTw$fZGAACSk9GkwSY',#6,'Painting',$,$,'6.6',$,$,$,.F.,$,#120,.CONSTRUCTION.);
#122=IFCTASKTIME('Second-fix sanitary fittings Time',.PREDICTED.,$,.WORKTIME.,'P0Y0M5D','2027-03-01T07:00:00','2027-03-05T07:00:00','2027-10-20T07:00:00','2027-10-26T07:00:00','2027-10-20T07:00:00','2027-10-26T07:00:00','P0Y0M0D','P0Y0M0D',.T.,$,$,$,$,$,0.00);
#123=IFCTASK('3qUTEjft6HcvHLG9TNz5gI',#6,'Second-fix sanitary fittings',$,$,'6.7',$,$,$,.F.,$,#122,.INSTALLATION.);
#124=IFCTASKTIME('7. External works & handover Time',.PREDICTED.,$,.WORKTIME.,'P0Y0M26D','2027-03-01T07:00:00','2027-03-05T07:00:00','2027-10-27T07:00:00','2027-12-01T07:00:00','2027-10-27T07:00:00','2027-12-01T07:00:00','P0Y0M0D','P0Y0M0D',.T.,$,$,$,$,$,0.00);
#125=IFCTASK('0oTP2c0G0YF0hsb7LJ_itG',#6,'7. External works & handover',$,$,'7',$,$,$,.F.,$,#124,.CONSTRUCTION.);
#126=IFCTASKTIME('Complete swimming pool Time',.PREDICTED.,$,.WORKTIME.,'P0Y0M8D','2027-03-01T07:00:00','2027-03-10T07:00:00','2027-10-27T07:00:00','2027-11-05T07:00:00','2027-10-27T07:00:00','2027-11-05T07:00:00','P0Y0M0D','P0Y0M0D',.T.,$,$,$,$,$,0.00);
#127=IFCTASK('2Ssyk8s8PhWqcA$9kH8Shi',#6,'Complete swimming pool',$,$,'7.1',$,$,$,.F.,$,#126,.CONSTRUCTION.);
#128=IFCTASKTIME('Garden landscaping Time',.PREDICTED.,$,.WORKTIME.,'P0Y0M10D','2027-03-01T07:00:00','2027-03-12T07:00:00','2027-11-08T07:00:00','2027-11-19T07:00:00','2027-11-08T07:00:00','2027-11-19T07:00:00','P0Y0M0D','P0Y0M0D',.T.,$,$,$,$,$,0.00);
#129=IFCTASK('2CYsNIwx5uqq2M$MLcWvak',#6,'Garden landscaping',$,$,'7.2',$,$,$,.F.,$,#128,.CONSTRUCTION.);
#130=IFCTASKTIME('Driveway and paving Time',.PREDICTED.,$,.WORKTIME.,'P0Y0M5D','2027-03-01T07:00:00','2027-03-05T07:00:00','2027-11-22T07:00:00','2027-11-26T07:00:00','2027-11-22T07:00:00','2027-11-26T07:00:00','P0Y0M0D','P0Y0M0D',.T.,$,$,$,$,$,0.00);
#131=IFCTASK('0FQyU7s2sxatkK3vM8Qe8H',#6,'Driveway and paving',$,$,'7.3',$,$,$,.F.,$,#130,.CONSTRUCTION.);
#132=IFCTASKTIME('Cleaning Time',.PREDICTED.,$,.WORKTIME.,'P0Y0M3D','2027-03-01T07:00:00','2027-03-03T07:00:00','2027-11-29T07:00:00','2027-12-01T07:00:00','2027-11-29T07:00:00','2027-12-01T07:00:00','P0Y0M0D','P0Y0M0D',.T.,$,$,$,$,$,0.00);
#133=IFCTASK('07qAiTm1cAtjlFU8p3kgk$',#6,'Cleaning',$,$,'7.4',$,$,$,.F.,$,#132,.LOGISTIC.);
#134=IFCTASKTIME('Handover Time',.PREDICTED.,$,.WORKTIME.,'P0Y0M0D','2027-03-01T07:00:00','2027-03-01T07:00:00','2027-12-01T07:00:00','2027-12-01T07:00:00','2027-12-01T07:00:00','2027-12-01T07:00:00','P0Y0M0D','P0Y0M0D',.T.,$,$,$,$,$,0.00);
#135=IFCTASK('2FESgN4Jf5Dqqk1kkAU$Ry',#6,'Handover',$,$,'7.5',$,$,$,.T.,$,#134,.CONSTRUCTION.);
#136=IFCRELNESTS('07Y0NKUqROZBIEw2HYo5aW',#6,'WBS 1. Preparation',$,#43,( #45,#47,#49));
#137=IFCRELNESTS('3UE1wiYSiRbnz1OnynzOtw',#6,'WBS 2. Earthworks & foundations',$,#51,( #53,#55,#57,#59,#61,#63));
#138=IFCRELNESTS('06V7ILGXnKXVX0PSQjURAo',#6,'WBS 3. Structural works',$,#65,( #67,#69,#71,#73,#75,#77,#79));
#139=IFCRELNESTS('1CmygBcUFyX$gwXHnwrpHM',#6,'WBS 4. Facade & roof',$,#81,( #83,#85,#87,#89,#91));
#140=IFCRELNESTS('3QBQZWXnKS4KregCqaTu6h',#6,'WBS 5. Building services',$,#93,( #95,#97,#99,#101,#103,#105,#107));
#141=IFCRELNESTS('3pnYuwGPXEQDgymJb0afyZ',#6,'WBS 6. Fit-out',$,#109,( #111,#113,#115,#117,#119,#121,#123));
#142=IFCRELNESTS('1K956Nr_l6NApm9r3mQPbI',#6,'WBS 7. External works & handover',$,#125,( #127,#129,#131,#133,#135));
#143=IFCRELNESTS('3wvgRJSEfhyxcVUCdAVOdz',#6,'WBS Hoofd',$,#40,(#43,#51,#65,#81,#93,#109,#125));
#144=IFCRELSEQUENCE('14FMTL33LgVFjLJ1qAePcK',#6,$,$,#45,#47,$,.FINISH_START.,$);
#145=IFCRELSEQUENCE('1ViFHpBLZxIER60cniVqYX',#6,$,$,#47,#49,$,.FINISH_START.,$);
#146=IFCRELSEQUENCE('3m61LkZA3C$DVO4mcW_VV6',#6,$,$,#53,#55,$,.FINISH_START.,$);
#147=IFCRELSEQUENCE('0feLD2ue0t$v2q18vfoa2Q',#6,$,$,#55,#57,$,.FINISH_START.,$);
#148=IFCRELSEQUENCE('3UTeYBQWmdAEEtj3BcPxxp',#6,$,$,#57,#59,$,.FINISH_START.,$);
#149=IFCRELSEQUENCE('19KvIyE7sL7YJDZCu2c5BN',#6,$,$,#59,#61,$,.FINISH_START.,$);
#150=IFCRELSEQUENCE('2r3mcIeTlyfqbXyQnAQQp4',#6,$,$,#61,#63,$,.FINISH_START.,$);
#151=IFCRELSEQUENCE('0qSwWXhdjchaOG4zvNlxp4',#6,$,$,#67,#69,$,.FINISH_START.,$);
#152=IFCRELSEQUENCE('2P2MIt63mF_tU78KoravAg',#6,$,$,#69,#71,$,.FINISH_START.,$);
#153=IFCRELSEQUENCE('1gba8T74KPqqCB5CDEj530',#6,$,$,#71,#73,$,.FINISH_START.,$);
#154=IFCRELSEQUENCE('1UKRocdEIOU$dLu6H6pITJ',#6,$,$,#73,#75,$,.FINISH_START.,$);
#155=IFCRELSEQUENCE('3QHPm26fFrOSxuy05WTLB4',#6,$,$,#75,#77,$,.FINISH_START.,$);
#156=IFCRELSEQUENCE('1wsvc1rlBBJNpi0DT8PHYr',#6,$,$,#77,#79,$,.FINISH_START.,$);
#157=IFCRELSEQUENCE('1YOwtoQhvKWAYW37My91QK',#6,$,$,#83,#85,$,.FINISH_START.,$);
#158=IFCRELSEQUENCE('33A8riInQw_V7y5Th4VRRm',#6,$,$,#85,#87,$,.FINISH_START.,$);
#159=IFCRELSEQUENCE('19aumQ_0AvC2fVmjrXo0w6',#6,$,$,#87,#89,$,.FINISH_START.,$);
#160=IFCRELSEQUENCE('23UhfKTcowSjYWpknku3yN',#6,$,$,#89,#91,$,.FINISH_START.,$);
#161=IFCLAGTIME('Lag',.PREDICTED.,$,IFCDURATION('P2D'),.WORKTIME.);
#162=IFCRELSEQUENCE('3F2HyrT6uRnuFlGvjTpqom',#6,$,$,#95,#97,#161,.START_START.,$);
#163=IFCRELSEQUENCE('1WPp6Opba2rtfmd8j1FKEi',#6,$,$,#97,#99,$,.FINISH_START.,$);
#164=IFCRELSEQUENCE('0B9MjjiH0D7SF14_C_wDgD',#6,$,$,#99,#101,$,.FINISH_START.,$);
#165=IFCRELSEQUENCE('2YVRIbQUXrkFDAcpv6MhC5',#6,$,$,#101,#103,$,.FINISH_START.,$);
#166=IFCRELSEQUENCE('2U4KkET8$6NwBoRYE9iurG',#6,$,$,#103,#105,$,.FINISH_START.,$);
#167=IFCRELSEQUENCE('12vWs7bFu5R5mRnVT4oDW1',#6,$,$,#105,#107,$,.FINISH_START.,$);
#168=IFCRELSEQUENCE('1DhCUCXPV_Elj1M8bXukxa',#6,$,$,#111,#113,$,.FINISH_START.,$);
#169=IFCRELSEQUENCE('1wCfC4eLDX20JG4yLUy1Ld',#6,$,$,#113,#115,$,.FINISH_START.,$);
#170=IFCRELSEQUENCE('3YlsURkSt$uKisXDXJz7rF',#6,$,$,#115,#117,$,.FINISH_START.,$);
#171=IFCRELSEQUENCE('3cgpOUBM68Vllf$G9RFlRD',#6,$,$,#117,#119,$,.FINISH_START.,$);
#172=IFCRELSEQUENCE('3KBokSYn5utpPzC4yc$he$',#6,$,$,#119,#121,$,.FINISH_START.,$);
#173=IFCRELSEQUENCE('2vvILnwl3gDBBDq4aDDoIe',#6,$,$,#121,#123,$,.FINISH_START.,$);
#174=IFCRELSEQUENCE('0_22O_dcS$WmSMb6zorzP0',#6,$,$,#127,#129,$,.FINISH_START.,$);
#175=IFCRELSEQUENCE('1KfeK07mT2uUUVId3ozT7m',#6,$,$,#129,#131,$,.FINISH_START.,$);
#176=IFCRELSEQUENCE('0ORAs9G7iRVl82rrIyaPmX',#6,$,$,#131,#133,$,.FINISH_START.,$);
#177=IFCRELSEQUENCE('13tGnwkp6kfs16w1_ZRb8l',#6,$,$,#133,#135,$,.FINISH_START.,$);
#178=IFCLAGTIME('Lag',.PREDICTED.,$,IFCDURATION('P3D'),.WORKTIME.);
#179=IFCRELSEQUENCE('39BlBYsBShaMPPGo5DgXM2',#6,$,$,#45,#53,#178,.START_START.,$);
#180=IFCLAGTIME('Lag',.PREDICTED.,$,IFCRATIOMEASURE(0.4),.WORKTIME.);
#181=IFCRELSEQUENCE('1Z9RSS4z3ADEwKrj4jX09s',#6,$,$,#53,#67,#180,.START_START.,$);
#182=IFCLAGTIME('Lag',.PREDICTED.,$,IFCDURATION('-P9D'),.WORKTIME.);
#183=IFCRELSEQUENCE('1SMpi_btmNXUjGqN8rTU83',#6,$,$,#77,#83,#182,.FINISH_START.,$);
#184=IFCLAGTIME('Lag',.PREDICTED.,$,IFCDURATION('P2D'),.WORKTIME.);
#185=IFCRELSEQUENCE('2E0EwAKX4zMNCcLXHmed3$',#6,$,$,#77,#89,#184,.FINISH_FINISH.,$);
#186=IFCRELSEQUENCE('1AIwKYCjYW0ArRH0Xh0Nkx',#6,$,$,#89,#95,$,.FINISH_START.,$);
#187=IFCLAGTIME('Lag',.PREDICTED.,$,IFCDURATION('P25D'),.WORKTIME.);
#188=IFCRELSEQUENCE('2tvwv8LyQ9IHu30gAXK5U4',#6,$,$,#95,#111,#187,.START_START.,$);
#189=IFCRELSEQUENCE('0S3ZAE5TOIaLK3WYJsA2e6',#6,$,$,#123,#127,$,.FINISH_START.,$);
#190=IFCLABORRESOURCE('3ucznckrJu2tSKPsxrAOXf',#6,'Bricklayers',$,$,$,$,$,.USERDEFINED.);
#191=IFCLABORRESOURCE('0RIpU1b5qVXUncWkEwYxWm',#6,'Carpenters','Roof structure, frames and joinery; the roof works and the window frames overlap briefly',$,$,$,$,.USERDEFINED.);
#192=IFCLABORRESOURCE('3m3swSEFinnf$2b3yJCiPp',#6,'MEP fitters','Electrical and plumbing; two pairs, briefly working alongside each other',$,$,$,$,.USERDEFINED.);
#193=IFCLABORRESOURCE('0MvfI6qV9VMWDuklfPrYTY',#6,'Plasterers',$,$,$,$,$,.USERDEFINED.);
#194=IFCLABORRESOURCE('0pXGtERIEbOOxzX0N3eMhF',#6,'Tilers',$,$,$,$,$,.USERDEFINED.);
#195=IFCLABORRESOURCE('2alZ4G$YdG9RPpLS32Pp1$',#6,'Painters',$,$,$,$,$,.USERDEFINED.);
#196=IFCPROPERTYSINGLEVALUE('MaxUnits',$,IFCREAL(3),$);
#197=IFCPROPERTYSINGLEVALUE('CostPerHour',$,IFCMONETARYMEASURE(46),$);
#198=IFCPROPERTYSINGLEVALUE('Color',$,IFCTEXT('#1E293B'),$);
#199=IFCPROPERTYSET('06YvkFAHtm3B50yqjf5ZQH',#6,'OPS_Resource',$,(#196,#197,#198));
#200=IFCRELDEFINESBYPROPERTIES('3J2GV_$mpBDqe8i85hMGaU',#6,$,$,(#190),#199);
#201=IFCPROPERTYSINGLEVALUE('MaxUnits',$,IFCREAL(5),$);
#202=IFCPROPERTYSINGLEVALUE('CostPerHour',$,IFCMONETARYMEASURE(45),$);
#203=IFCPROPERTYSINGLEVALUE('Color',$,IFCTEXT('#B91C1C'),$);
#204=IFCPROPERTYSET('3i_jTkMdpWd6Y9T4gUb6ku',#6,'OPS_Resource',$,(#201,#202,#203));
#205=IFCRELDEFINESBYPROPERTIES('0VvoniDJ6t0T1tdN$Cur9a',#6,$,$,(#191),#204);
#206=IFCPROPERTYSINGLEVALUE('MaxUnits',$,IFCREAL(4),$);
#207=IFCPROPERTYSINGLEVALUE('CostPerHour',$,IFCMONETARYMEASURE(48),$);
#208=IFCPROPERTYSINGLEVALUE('Color',$,IFCTEXT('#DB2777'),$);
#209=IFCPROPERTYSET('2uAPWwFU5Tddb2DTeEdE9e',#6,'OPS_Resource',$,(#206,#207,#208));
#210=IFCRELDEFINESBYPROPERTIES('3yNVF$eQnIWJtNiVQ_1GNQ',#6,$,$,(#192),#209);
#211=IFCPROPERTYSINGLEVALUE('MaxUnits',$,IFCREAL(3),$);
#212=IFCPROPERTYSINGLEVALUE('CostPerHour',$,IFCMONETARYMEASURE(42),$);
#213=IFCPROPERTYSINGLEVALUE('Color',$,IFCTEXT('#C2410C'),$);
#214=IFCPROPERTYSET('23fhbM_tN5EGT2TDqFdfiA',#6,'OPS_Resource',$,(#211,#212,#213));
#215=IFCRELDEFINESBYPROPERTIES('3PjDVtVcEV7NGI1dMsuWh2',#6,$,$,(#193),#214);
#216=IFCPROPERTYSINGLEVALUE('MaxUnits',$,IFCREAL(2),$);
#217=IFCPROPERTYSINGLEVALUE('CostPerHour',$,IFCMONETARYMEASURE(43),$);
#218=IFCPROPERTYSINGLEVALUE('Color',$,IFCTEXT('#6366F1'),$);
#219=IFCPROPERTYSET('3zjgOIoXYZn__6_VdeDg6v',#6,'OPS_Resource',$,(#216,#217,#218));
#220=IFCRELDEFINESBYPROPERTIES('3IChJcvn17cVatFDhWGK_6',#6,$,$,(#194),#219);
#221=IFCPROPERTYSINGLEVALUE('MaxUnits',$,IFCREAL(3),$);
#222=IFCPROPERTYSINGLEVALUE('CostPerHour',$,IFCMONETARYMEASURE(38),$);
#223=IFCPROPERTYSINGLEVALUE('Color',$,IFCTEXT('#0D9488'),$);
#224=IFCPROPERTYSET('0qFclDPjI$GGTw1qaqR0k3',#6,'OPS_Resource',$,(#221,#222,#223));
#225=IFCRELDEFINESBYPROPERTIES('10hfrvtHGVzvcF$kByANQP',#6,$,$,(#195),#224);
#226=IFCRELASSIGNSTOPROCESS('2qyXLWpI8MgGXUPVhxaqTb',#6,$,$,(#190),$,#67,$);
#227=IFCRELASSIGNSTOPROCESS('1a1Tjah5FzpxfYAMpIaxDl',#6,$,$,(#190),$,#71,$);
#228=IFCRELASSIGNSTOPROCESS('28uqcKwO2$fox5sTEbSuH0',#6,$,$,(#191),$,#73,$);
#229=IFCRELASSIGNSTOPROCESS('2VhAdOMSsWUy3XOn0fISr4',#6,$,$,(#191),$,#75,$);
#230=IFCRELASSIGNSTOPROCESS('1ckvLECPypRZK2Ap5nz86K',#6,$,$,(#190),$,#77,$);
#231=IFCRELASSIGNSTOPROCESS('0XcHB9V2H8IZVjmXBl2860',#6,$,$,(#191),$,#85,$);
#232=IFCRELASSIGNSTOPROCESS('2W5Qe3FlS6KfRxN7kLs5TX',#6,$,$,(#191),$,#87,$);
#233=IFCRELASSIGNSTOPROCESS('0tmDM0xDyBnU9oWRqqGhTa',#6,$,$,(#192),$,#95,$);
#234=IFCRELASSIGNSTOPROCESS('3rDJP2QWoA$BaQuTOb9ski',#6,$,$,(#192),$,#97,$);
#235=IFCRELASSIGNSTOPROCESS('3i5W8ltf3FBaExas4Kz28Q',#6,$,$,(#192),$,#99,$);
#236=IFCRELASSIGNSTOPROCESS('2ppotW$YC6_PV5rrLp7SeV',#6,$,$,(#192),$,#101,$);
#237=IFCRELASSIGNSTOPROCESS('0OOhiuhyzDKj2Z$DONP0z9',#6,$,$,(#192),$,#103,$);
#238=IFCRELASSIGNSTOPROCESS('3HDfeqLjftps81nWTRg33q',#6,$,$,(#192),$,#105,$);
#239=IFCRELASSIGNSTOPROCESS('3ldX2c5Z8W2FheE3XGsWPi',#6,$,$,(#192),$,#107,$);
#240=IFCRELASSIGNSTOPROCESS('0BOTxo$$$Xz3dTkkeds_Y1',#6,$,$,(#193),$,#111,$);
#241=IFCRELASSIGNSTOPROCESS('3BSqgfSQNx$tF1cMxXZ7Ng',#6,$,$,(#194),$,#113,$);
#242=IFCRELASSIGNSTOPROCESS('3_TuUoeB0_8OC2httFhFIV',#6,$,$,(#194),$,#115,$);
#243=IFCRELASSIGNSTOPROCESS('2c7ZVEI0d474WL2DL$9G3X',#6,$,$,(#191),$,#117,$);
#244=IFCRELASSIGNSTOPROCESS('0BO8$mTgHB5lyssTkeWAKr',#6,$,$,(#191),$,#119,$);
#245=IFCRELASSIGNSTOPROCESS('17iPXEc5XqcE3tsDuyxnQm',#6,$,$,(#195),$,#121,$);
#246=IFCPROPERTYSINGLEVALUE('3ucznckrJu2tSKPsxrAOXf#0',$,IFCTEXT('3|UNIFORM'),$);
#247=IFCPROPERTYSET('24HE29M0cecHw9XKT7C3LK',#6,'OPS_Assignments',$,(#246));
#248=IFCRELDEFINESBYPROPERTIES('28RUxx7PlZ0ltbObIpCvKJ',#6,$,$,(#67),#247);
#249=IFCPROPERTYSINGLEVALUE('3ucznckrJu2tSKPsxrAOXf#0',$,IFCTEXT('3|UNIFORM'),$);
#250=IFCPROPERTYSET('1v79mZ7rZTGCD2a5sWyvwF',#6,'OPS_Assignments',$,(#249));
#251=IFCRELDEFINESBYPROPERTIES('34XKaCK7tk8firqW48kfNd',#6,$,$,(#71),#250);
#252=IFCPROPERTYSINGLEVALUE('0RIpU1b5qVXUncWkEwYxWm#0',$,IFCTEXT('3|UNIFORM'),$);
#253=IFCPROPERTYSET('2tlrLpjT4f5ZNeoxHF5_hW',#6,'OPS_Assignments',$,(#252));
#254=IFCRELDEFINESBYPROPERTIES('1Nf_iCWiTL4$i$9FCjM2se',#6,$,$,(#73),#253);
#255=IFCPROPERTYSINGLEVALUE('0RIpU1b5qVXUncWkEwYxWm#0',$,IFCTEXT('2|UNIFORM'),$);
#256=IFCPROPERTYSET('0IrcBzNkhH5RolqzprgjPo',#6,'OPS_Assignments',$,(#255));
#257=IFCRELDEFINESBYPROPERTIES('2Gu5eveVzSnNfAcv0YsWFz',#6,$,$,(#75),#256);
#258=IFCPROPERTYSINGLEVALUE('3ucznckrJu2tSKPsxrAOXf#0',$,IFCTEXT('2|UNIFORM'),$);
#259=IFCPROPERTYSET('0YQ5f5hKZcPTzWsQ1ed$Ax',#6,'OPS_Assignments',$,(#258));
#260=IFCRELDEFINESBYPROPERTIES('22KWP$oA9mHU5w8UD5hbCE',#6,$,$,(#77),#259);
#261=IFCPROPERTYSINGLEVALUE('0RIpU1b5qVXUncWkEwYxWm#0',$,IFCTEXT('2|UNIFORM'),$);
#262=IFCPROPERTYSET('30q67gbb5fbvcTwXM89kAC',#6,'OPS_Assignments',$,(#261));
#263=IFCRELDEFINESBYPROPERTIES('0wPWSHIZmz2_PCS6Qif3Ku',#6,$,$,(#85),#262);
#264=IFCPROPERTYSINGLEVALUE('0RIpU1b5qVXUncWkEwYxWm#0',$,IFCTEXT('2|UNIFORM'),$);
#265=IFCPROPERTYSET('0RfV$zaSn3rhZnxBxkeBse',#6,'OPS_Assignments',$,(#264));
#266=IFCRELDEFINESBYPROPERTIES('38P45qm6ERdZ$fqHpFdD2A',#6,$,$,(#87),#265);
#267=IFCPROPERTYSINGLEVALUE('3m3swSEFinnf$2b3yJCiPp#0',$,IFCTEXT('2|UNIFORM'),$);
#268=IFCPROPERTYSET('3$JmKIdjnyTjDg4BGZsEs2',#6,'OPS_Assignments',$,(#267));
#269=IFCRELDEFINESBYPROPERTIES('03PYlX5yOYbRYDbhEnR1Y5',#6,$,$,(#95),#268);
#270=IFCPROPERTYSINGLEVALUE('3m3swSEFinnf$2b3yJCiPp#0',$,IFCTEXT('2|UNIFORM'),$);
#271=IFCPROPERTYSET('1IOahbLFlcAi4FXVShgQrP',#6,'OPS_Assignments',$,(#270));
#272=IFCRELDEFINESBYPROPERTIES('2xJTazHGnuiOf8LpTGS4eL',#6,$,$,(#97),#271);
#273=IFCPROPERTYSINGLEVALUE('3m3swSEFinnf$2b3yJCiPp#0',$,IFCTEXT('2|UNIFORM'),$);
#274=IFCPROPERTYSET('3m7T8gYuZpztWr$p4yeqBj',#6,'OPS_Assignments',$,(#273));
#275=IFCRELDEFINESBYPROPERTIES('0UpJyU9lG$eiUaBpBYHF$5',#6,$,$,(#99),#274);
#276=IFCPROPERTYSINGLEVALUE('3m3swSEFinnf$2b3yJCiPp#0',$,IFCTEXT('1|UNIFORM'),$);
#277=IFCPROPERTYSET('343PApeGjUQFAJqBdnubK3',#6,'OPS_Assignments',$,(#276));
#278=IFCRELDEFINESBYPROPERTIES('0EBIskCHkeD_pMNXhikDt6',#6,$,$,(#101),#277);
#279=IFCPROPERTYSINGLEVALUE('3m3swSEFinnf$2b3yJCiPp#0',$,IFCTEXT('2|UNIFORM'),$);
#280=IFCPROPERTYSET('3zfBdp5vJhL0LXNnqxs13q',#6,'OPS_Assignments',$,(#279));
#281=IFCRELDEFINESBYPROPERTIES('2FIL1mnpjRP62AsTZUoNrS',#6,$,$,(#103),#280);
#282=IFCPROPERTYSINGLEVALUE('3m3swSEFinnf$2b3yJCiPp#0',$,IFCTEXT('2|UNIFORM'),$);
#283=IFCPROPERTYSET('0ZNGVR49VAgLGWWsGrEdkL',#6,'OPS_Assignments',$,(#282));
#284=IFCRELDEFINESBYPROPERTIES('26dsyEuD7n2P2JbIg2vtu6',#6,$,$,(#105),#283);
#285=IFCPROPERTYSINGLEVALUE('3m3swSEFinnf$2b3yJCiPp#0',$,IFCTEXT('1|UNIFORM'),$);
#286=IFCPROPERTYSET('2wk$trkACT1BFRhZibgfX9',#6,'OPS_Assignments',$,(#285));
#287=IFCRELDEFINESBYPROPERTIES('2fx6NzIz$JKn0FiuTww7ql',#6,$,$,(#107),#286);
#288=IFCPROPERTYSINGLEVALUE('0MvfI6qV9VMWDuklfPrYTY#0',$,IFCTEXT('3|UNIFORM'),$);
#289=IFCPROPERTYSET('1B1LJ1xbem8MPLoPIRk_T7',#6,'OPS_Assignments',$,(#288));
#290=IFCRELDEFINESBYPROPERTIES('0P7jUF$JpMQKO9fpwp_cki',#6,$,$,(#111),#289);
#291=IFCPROPERTYSINGLEVALUE('0pXGtERIEbOOxzX0N3eMhF#0',$,IFCTEXT('2|UNIFORM'),$);
#292=IFCPROPERTYSET('0n3Mw4qfxv9iYe1AucGPb3',#6,'OPS_Assignments',$,(#291));
#293=IFCRELDEFINESBYPROPERTIES('3B5MytvAAgeQ3nWhHp5sga',#6,$,$,(#113),#292);
#294=IFCPROPERTYSINGLEVALUE('0pXGtERIEbOOxzX0N3eMhF#0',$,IFCTEXT('2|UNIFORM'),$);
#295=IFCPROPERTYSET('0IAq$5Id2OGTm$HP165R3h',#6,'OPS_Assignments',$,(#294));
#296=IFCRELDEFINESBYPROPERTIES('1RxFmR3zYPpCaJtZXRPphw',#6,$,$,(#115),#295);
#297=IFCPROPERTYSINGLEVALUE('0RIpU1b5qVXUncWkEwYxWm#0',$,IFCTEXT('2|UNIFORM'),$);
#298=IFCPROPERTYSET('3fmHqgBdKKHvwKa61C6wyh',#6,'OPS_Assignments',$,(#297));
#299=IFCRELDEFINESBYPROPERTIES('3S_GxhHluEVVEXIa3_TWDe',#6,$,$,(#117),#298);
#300=IFCPROPERTYSINGLEVALUE('0RIpU1b5qVXUncWkEwYxWm#0',$,IFCTEXT('2|UNIFORM'),$);
#301=IFCPROPERTYSET('1Iov_0qCsWCw1ns8NZHu1k',#6,'OPS_Assignments',$,(#300));
#302=IFCRELDEFINESBYPROPERTIES('3_ViR7zkx47O5T20LBZowb',#6,$,$,(#119),#301);
#303=IFCPROPERTYSINGLEVALUE('2alZ4G$YdG9RPpLS32Pp1$#0',$,IFCTEXT('3|UNIFORM'),$);
#304=IFCPROPERTYSET('3BwTg3eFnKP8ZL1Dx4E251',#6,'OPS_Assignments',$,(#303));
#305=IFCRELDEFINESBYPROPERTIES('0l5AQIRIkv9APYt986A$2b',#6,$,$,(#121),#304);
#306=IFCRELASSIGNSTOCONTROL('3VRZ1i9sOAGY3YsSUCYth1',#6,$,$,(#43,#45,#47,#49,#51,#53,#55,#57,#59,#61,#63,#65,#67,#69,#71,#73,#75,#77,#79,#81,#83,#85,#87,#89,#91,#93,#95,#97,#99,#101,#103,#105,#107,#109,#111,#113,#115,#117,#119,#121,#123,#125,#127,#129,#131,#133,#135),$,#40);
#307=IFCPROPERTYSINGLEVALUE('InternalProjectId',$,IFCTEXT('proj-mula81xqhq2m2044'),$);
#308=IFCPROPERTYSINGLEVALUE('wbsAutoNumber',$,IFCBOOLEAN(.T.),$);
#309=IFCPROPERTYSINGLEVALUE('DefaultTaskDurationUnit',$,IFCLABEL('days'),$);
#310=IFCPROPERTYSINGLEVALUE('ProjectStartDate',$,IFCDATE('2027-03-01'),$);
#311=IFCPROPERTYSINGLEVALUE('ProjectEndDate',$,$,$);
#312=IFCPROPERTYSINGLEVALUE('CreatedAt',$,IFCTEXT('2026-09-28T13:27:21.806Z'),$);
#313=IFCPROPERTYSINGLEVALUE('ModifiedAt',$,IFCTEXT('2026-09-28T13:27:21.808Z'),$);
#314=IFCPROPERTYSET('3Uy8Ax2_8tCv67s9N5yOo0',#6,'OPS_ProjectSettings',$,(#307,#308,#309,#310,#311,#312,#313));
#315=IFCRELDEFINESBYPROPERTIES('1nmW4ziDwIHGVQAnVNDzhi',#6,$,$,(#13),#314);
#316=IFCPROPERTYSINGLEVALUE('InternalTaskId',$,IFCTEXT('task-mula81y1qjg42051'),$);
#317=IFCPROPERTYSET('38S3mteTNubV3BmATnATx7',#6,'OPS_TaskIdentity',$,(#316));
#318=IFCRELDEFINESBYPROPERTIES('3EPyH1CG7vRHjDpm00$muO',#6,$,$,(#43),#317);
#319=IFCPROPERTYSINGLEVALUE('InternalTaskId',$,IFCTEXT('task-mula81y2emcr2052'),$);
#320=IFCPROPERTYSET('36vYoyuHaZNi1NPS_xQJre',#6,'OPS_TaskIdentity',$,(#319));
#321=IFCRELDEFINESBYPROPERTIES('2M8Zmd5pXFGqqbvUU3lOyA',#6,$,$,(#45),#320);
#322=IFCPROPERTYSINGLEVALUE('InternalTaskId',$,IFCTEXT('task-mula81y30sh72053'),$);
#323=IFCPROPERTYSET('0dK26ukigw_$r2V7jznTsd',#6,'OPS_TaskIdentity',$,(#322));
#324=IFCRELDEFINESBYPROPERTIES('31xvaOVX_CPCfGSvq_XFpO',#6,$,$,(#47),#323);
#325=IFCPROPERTYSINGLEVALUE('InternalTaskId',$,IFCTEXT('task-mula81y5foyv2054'),$);
#326=IFCPROPERTYSET('2qYHkcJbWiW1ZSi4G7Y2dq',#6,'OPS_TaskIdentity',$,(#325));
#327=IFCRELDEFINESBYPROPERTIES('2qznMQKP62w1I8w1LvZmvm',#6,$,$,(#49),#326);
#328=IFCPROPERTYSINGLEVALUE('InternalTaskId',$,IFCTEXT('task-mula81y7xq1m2055'),$);
#329=IFCPROPERTYSET('02HXjPmsD2k1XbEZZbmtNF',#6,'OPS_TaskIdentity',$,(#328));
#330=IFCRELDEFINESBYPROPERTIES('2g6D_P43C15QKZ9Mll5$zL',#6,$,$,(#51),#329);
#331=IFCPROPERTYSINGLEVALUE('InternalTaskId',$,IFCTEXT('task-mula81y80q022056'),$);
#332=IFCPROPERTYSET('0fIW6cqKFhwqoCBhwK3sBd',#6,'OPS_TaskIdentity',$,(#331));
#333=IFCRELDEFINESBYPROPERTIES('0hGOL5WC7mTG0nCwPpDEtE',#6,$,$,(#53),#332);
#334=IFCPROPERTYSINGLEVALUE('InternalTaskId',$,IFCTEXT('task-mula81y9sctn2057'),$);
#335=IFCPROPERTYSET('1MJNWfIx_5xsJSeRlbeqYG',#6,'OPS_TaskIdentity',$,(#334));
#336=IFCRELDEFINESBYPROPERTIES('1p4CkJO5Q1qLZVERuhsSVz',#6,$,$,(#55),#335);
#337=IFCPROPERTYSINGLEVALUE('InternalTaskId',$,IFCTEXT('task-mula81ybo7zq2058'),$);
#338=IFCPROPERTYSET('1wMzkljFjfAyxVqv9JtXJP',#6,'OPS_TaskIdentity',$,(#337));
#339=IFCRELDEFINESBYPROPERTIES('0Mtgrial7BqUHg9EXbF0WV',#6,$,$,(#57),#338);
#340=IFCPROPERTYSINGLEVALUE('InternalTaskId',$,IFCTEXT('task-mula81yc9cis2059'),$);
#341=IFCPROPERTYSET('3$KO8q41PkGnn4fE9pa6Aq',#6,'OPS_TaskIdentity',$,(#340));
#342=IFCRELDEFINESBYPROPERTIES('0WbAD57KudMf4aIdzPAXtc',#6,$,$,(#59),#341);
#343=IFCPROPERTYSINGLEVALUE('InternalTaskId',$,IFCTEXT('task-mula81ye055q2060'),$);
#344=IFCPROPERTYSET('2YuZQTDhMA_FwOoaNVoz84',#6,'OPS_TaskIdentity',$,(#343));
#345=IFCRELDEFINESBYPROPERTIES('0O1ti0uPFYr7nwcIE8Qhs$',#6,$,$,(#61),#344);
#346=IFCPROPERTYSINGLEVALUE('InternalTaskId',$,IFCTEXT('task-mula81ygxvyg2061'),$);
#347=IFCPROPERTYSET('3WFwOT8q5nQLW0_3a_qd4o',#6,'OPS_TaskIdentity',$,(#346));
#348=IFCRELDEFINESBYPROPERTIES('1tTbrvCQ3vf2jiXBK95zXz',#6,$,$,(#63),#347);
#349=IFCPROPERTYSINGLEVALUE('InternalTaskId',$,IFCTEXT('task-mula81yilqyv2062'),$);
#350=IFCPROPERTYSET('1lq7ZRg4WKbXxwxCFgxkQ7',#6,'OPS_TaskIdentity',$,(#349));
#351=IFCRELDEFINESBYPROPERTIES('2pIS7XBnlxer1YosNvnWFN',#6,$,$,(#65),#350);
#352=IFCPROPERTYSINGLEVALUE('InternalTaskId',$,IFCTEXT('task-mula81yjgahx2063'),$);
#353=IFCPROPERTYSET('2gZCxrOwzTWo7zOrx2ip3G',#6,'OPS_TaskIdentity',$,(#352));
#354=IFCRELDEFINESBYPROPERTIES('3zKVmgZnhCtD0CM750LKbG',#6,$,$,(#67),#353);
#355=IFCPROPERTYSINGLEVALUE('InternalTaskId',$,IFCTEXT('task-mula81yl3pvr2064'),$);
#356=IFCPROPERTYSET('25bz7LD_qteye5jq2oJhFS',#6,'OPS_TaskIdentity',$,(#355));
#357=IFCRELDEFINESBYPROPERTIES('3irtg2GGWaJQyGZ2JCGaMX',#6,$,$,(#69),#356);
#358=IFCPROPERTYSINGLEVALUE('InternalTaskId',$,IFCTEXT('task-mula81ynt3ij2065'),$);
#359=IFCPROPERTYSET('3RByf7l2iFZu$GItjtsDTs',#6,'OPS_TaskIdentity',$,(#358));
#360=IFCRELDEFINESBYPROPERTIES('0o3iGygUE0qrrd01cZt1si',#6,$,$,(#71),#359);
#361=IFCPROPERTYSINGLEVALUE('InternalTaskId',$,IFCTEXT('task-mula81yptz982066'),$);
#362=IFCPROPERTYSET('33Zqnz5X4V$ehG8_bFiQbI',#6,'OPS_TaskIdentity',$,(#361));
#363=IFCRELDEFINESBYPROPERTIES('1Cj5sTXcF5d5bdABWBzpjn',#6,$,$,(#73),#362);
#364=IFCPROPERTYSINGLEVALUE('InternalTaskId',$,IFCTEXT('task-mula81yrzn7g2067'),$);
#365=IFCPROPERTYSET('2mitfEb4FJM8D0suR5E7gp',#6,'OPS_TaskIdentity',$,(#364));
#366=IFCRELDEFINESBYPROPERTIES('0R6$qsIBSu3bC3xF0QKiyb',#6,$,$,(#75),#365);
#367=IFCPROPERTYSINGLEVALUE('InternalTaskId',$,IFCTEXT('task-mula81ysz7wj2068'),$);
#368=IFCPROPERTYSET('2tXysUaGjkdkb26w4A_bWz',#6,'OPS_TaskIdentity',$,(#367));
#369=IFCRELDEFINESBYPROPERTIES('35fd3n99ZH3RTOuac3s6vZ',#6,$,$,(#77),#368);
#370=IFCPROPERTYSINGLEVALUE('InternalTaskId',$,IFCTEXT('task-mula81yula352069'),$);
#371=IFCPROPERTYSET('0ofpzhrXbRcs$UhnXTUKxy',#6,'OPS_TaskIdentity',$,(#370));
#372=IFCRELDEFINESBYPROPERTIES('3Mmb4RlGe1EvldBRDomVvB',#6,$,$,(#79),#371);
#373=IFCPROPERTYSINGLEVALUE('InternalTaskId',$,IFCTEXT('task-mula81yw9ii02070'),$);
#374=IFCPROPERTYSET('2x9rRBET9T2kmGVNyyx3gB',#6,'OPS_TaskIdentity',$,(#373));
#375=IFCRELDEFINESBYPROPERTIES('2_ddj9AcEpQQC_JmQR0oGB',#6,$,$,(#81),#374);
#376=IFCPROPERTYSINGLEVALUE('InternalTaskId',$,IFCTEXT('task-mula81yyu7x92071'),$);
#377=IFCPROPERTYSET('0m5jszINe_K9RBEie6OzEJ',#6,'OPS_TaskIdentity',$,(#376));
#378=IFCRELDEFINESBYPROPERTIES('2NiwiboHzwhBWStJOqY16_',#6,$,$,(#83),#377);
#379=IFCPROPERTYSINGLEVALUE('InternalTaskId',$,IFCTEXT('task-mula81z0iaed2072'),$);
#380=IFCPROPERTYSET('1XlezJbcbB3$nm4W5yw1Kw',#6,'OPS_TaskIdentity',$,(#379));
#381=IFCRELDEFINESBYPROPERTIES('1SMWM5KVAwVxiLZ8l7JYLh',#6,$,$,(#85),#380);
#382=IFCPROPERTYSINGLEVALUE('InternalTaskId',$,IFCTEXT('task-mula81z1nw2a2073'),$);
#383=IFCPROPERTYSET('1Nq$qoVgRLL34c1zXkzcqg',#6,'OPS_TaskIdentity',$,(#382));
#384=IFCRELDEFINESBYPROPERTIES('2jPbmIUwgqpCsXn6A3gSV7',#6,$,$,(#87),#383);
#385=IFCPROPERTYSINGLEVALUE('InternalTaskId',$,IFCTEXT('task-mula81z4cfbx2074'),$);
#386=IFCPROPERTYSET('2NOcJQB_PXrPCm2x1iSRbu',#6,'OPS_TaskIdentity',$,(#385));
#387=IFCRELDEFINESBYPROPERTIES('3u_i5lbU$14NBR2ak_s6Ao',#6,$,$,(#89),#386);
#388=IFCPROPERTYSINGLEVALUE('InternalTaskId',$,IFCTEXT('task-mula81z6lv9g2075'),$);
#389=IFCPROPERTYSET('3rYHmCLdmaCy_14CA$5wY$',#6,'OPS_TaskIdentity',$,(#388));
#390=IFCRELDEFINESBYPROPERTIES('3qjRYbBrt_pgSS1hQhaUAe',#6,$,$,(#91),#389);
#391=IFCPROPERTYSINGLEVALUE('InternalTaskId',$,IFCTEXT('task-mula81z87ric2076'),$);
#392=IFCPROPERTYSET('25jWUM6PzCF$2mMtFyvAkj',#6,'OPS_TaskIdentity',$,(#391));
#393=IFCRELDEFINESBYPROPERTIES('13iQlTc6WFsKz5haDrCZLo',#6,$,$,(#93),#392);
#394=IFCPROPERTYSINGLEVALUE('InternalTaskId',$,IFCTEXT('task-mula81zawlmn2077'),$);
#395=IFCPROPERTYSET('2vu9YgDwCphasQfkLOD3K5',#6,'OPS_TaskIdentity',$,(#394));
#396=IFCRELDEFINESBYPROPERTIES('3h3hRwClqezR$$BIqN7w2u',#6,$,$,(#95),#395);
#397=IFCPROPERTYSINGLEVALUE('InternalTaskId',$,IFCTEXT('task-mula81zcbsst2078'),$);
#398=IFCPROPERTYSET('0Jw6iyDXbOCbgQNQPxKBY2',#6,'OPS_TaskIdentity',$,(#397));
#399=IFCRELDEFINESBYPROPERTIES('3rwMQNcxv9HLyeTroK8pgh',#6,$,$,(#97),#398);
#400=IFCPROPERTYSINGLEVALUE('InternalTaskId',$,IFCTEXT('task-mula81zew5ik2079'),$);
#401=IFCPROPERTYSET('3hrFs_g2PDDb9YR3x$yzwQ',#6,'OPS_TaskIdentity',$,(#400));
#402=IFCRELDEFINESBYPROPERTIES('1VIO45tZ15YKCiIFFvm36T',#6,$,$,(#99),#401);
#403=IFCPROPERTYSINGLEVALUE('InternalTaskId',$,IFCTEXT('task-mula81zg9us22080'),$);
#404=IFCPROPERTYSET('2v7TOWRtYnIfYobrrh8nG9',#6,'OPS_TaskIdentity',$,(#403));
#405=IFCRELDEFINESBYPROPERTIES('2YU79$U_rJyWGN_LZHAaQ2',#6,$,$,(#101),#404);
#406=IFCPROPERTYSINGLEVALUE('InternalTaskId',$,IFCTEXT('task-mula81ziumyb2081'),$);
#407=IFCPROPERTYSET('1olcyAw0z2STI_U06yli8N',#6,'OPS_TaskIdentity',$,(#406));
#408=IFCRELDEFINESBYPROPERTIES('0qchD6sjHoiy7XpZ3Bdwi$',#6,$,$,(#103),#407);
#409=IFCPROPERTYSINGLEVALUE('InternalTaskId',$,IFCTEXT('task-mula81zk90ca2082'),$);
#410=IFCPROPERTYSET('2NtOsQ5kfP7_d6Y1qbHG5t',#6,'OPS_TaskIdentity',$,(#409));
#411=IFCRELDEFINESBYPROPERTIES('3JO8_o25jVjCRVf2w$IS$t',#6,$,$,(#105),#410);
#412=IFCPROPERTYSINGLEVALUE('InternalTaskId',$,IFCTEXT('task-mula81zn0f4s2083'),$);
#413=IFCPROPERTYSET('0naxO7V6Rke_j3NDyLjTED',#6,'OPS_TaskIdentity',$,(#412));
#414=IFCRELDEFINESBYPROPERTIES('30Ut0wuzyrPMkiura75ADm',#6,$,$,(#107),#413);
#415=IFCPROPERTYSINGLEVALUE('InternalTaskId',$,IFCTEXT('task-mula81zpd8ue2084'),$);
#416=IFCPROPERTYSET('1I_CZoz9d5G9TkGHBDqhOn',#6,'OPS_TaskIdentity',$,(#415));
#417=IFCRELDEFINESBYPROPERTIES('0s9qC4iNbNdgWgKTN05JAr',#6,$,$,(#109),#416);
#418=IFCPROPERTYSINGLEVALUE('InternalTaskId',$,IFCTEXT('task-mula81zr6a0i2085'),$);
#419=IFCPROPERTYSET('3Se7rr49zju2jjAcIpb4$v',#6,'OPS_TaskIdentity',$,(#418));
#420=IFCRELDEFINESBYPROPERTIES('3nIt85qBC8PoQLvCJR6ROp',#6,$,$,(#111),#419);
#421=IFCPROPERTYSINGLEVALUE('InternalTaskId',$,IFCTEXT('task-mula81ztgslv2086'),$);
#422=IFCPROPERTYSET('0EuCKKXH4$_h2JhqFnr0jc',#6,'OPS_TaskIdentity',$,(#421));
#423=IFCRELDEFINESBYPROPERTIES('3P$VoZs6xY6YxiXERv3EMf',#6,$,$,(#113),#422);
#424=IFCPROPERTYSINGLEVALUE('InternalTaskId',$,IFCTEXT('task-mula81zvdsua2087'),$);
#425=IFCPROPERTYSET('0W_hDT17lHNC9uWd53_Ief',#6,'OPS_TaskIdentity',$,(#424));
#426=IFCRELDEFINESBYPROPERTIES('1uPM3OOxpYf6onam3qin7S',#6,$,$,(#115),#425);
#427=IFCPROPERTYSINGLEVALUE('InternalTaskId',$,IFCTEXT('task-mula81zx0rw12088'),$);
#428=IFCPROPERTYSET('1l2U0tcCsE90rta8DlANVQ',#6,'OPS_TaskIdentity',$,(#427));
#429=IFCRELDEFINESBYPROPERTIES('3JpNntDqUV7BlfXk6CrmQ3',#6,$,$,(#117),#428);
#430=IFCPROPERTYSINGLEVALUE('InternalTaskId',$,IFCTEXT('task-mula81zznitf2089'),$);
#431=IFCPROPERTYSET('0uIsMmey$qHsiO9druzP4C',#6,'OPS_TaskIdentity',$,(#430));
#432=IFCRELDEFINESBYPROPERTIES('2cWiMGgjS_Wf$9tZqT9c8i',#6,$,$,(#119),#431);
#433=IFCPROPERTYSINGLEVALUE('InternalTaskId',$,IFCTEXT('task-mula8202fym42090'),$);
#434=IFCPROPERTYSET('3Bn7RIOR2$egY05DohMFHt',#6,'OPS_TaskIdentity',$,(#433));
#435=IFCRELDEFINESBYPROPERTIES('3GzV86hsj3LHFS9v60yVV0',#6,$,$,(#121),#434);
#436=IFCPROPERTYSINGLEVALUE('InternalTaskId',$,IFCTEXT('task-mula8204etpj2091'),$);
#437=IFCPROPERTYSET('2wXLr8A0Xr2PQ4CdvTklO8',#6,'OPS_TaskIdentity',$,(#436));
#438=IFCRELDEFINESBYPROPERTIES('0diDAwXfToe0lsuvjQ8wgA',#6,$,$,(#123),#437);
#439=IFCPROPERTYSINGLEVALUE('InternalTaskId',$,IFCTEXT('task-mula8206npww2092'),$);
#440=IFCPROPERTYSET('12qURA7u6DeQr5jtC4b0J8',#6,'OPS_TaskIdentity',$,(#439));
#441=IFCRELDEFINESBYPROPERTIES('2DkR4yD52yJhi9UL2_Mttl',#6,$,$,(#125),#440);
#442=IFCPROPERTYSINGLEVALUE('InternalTaskId',$,IFCTEXT('task-mula820842p92093'),$);
#443=IFCPROPERTYSET('1hWJuBwEbRLIwtp2lTqAbh',#6,'OPS_TaskIdentity',$,(#442));
#444=IFCRELDEFINESBYPROPERTIES('0AzgfBsx7YYaFodnR4g5Ig',#6,$,$,(#127),#443);
#445=IFCPROPERTYSINGLEVALUE('InternalTaskId',$,IFCTEXT('task-mula820a89c12094'),$);
#446=IFCPROPERTYSET('13cz_vkpvT0M14PuG0Hk9M',#6,'OPS_TaskIdentity',$,(#445));
#447=IFCRELDEFINESBYPROPERTIES('2LQdfCs2dx56iiju5jQ6vm',#6,$,$,(#129),#446);
#448=IFCPROPERTYSINGLEVALUE('InternalTaskId',$,IFCTEXT('task-mula820ck5kv2095'),$);
#449=IFCPROPERTYSET('2qblPad52X2vxVrVfjvmH8',#6,'OPS_TaskIdentity',$,(#448));
#450=IFCRELDEFINESBYPROPERTIES('02oDjrJXPpA3Kg7jhvcY6I',#6,$,$,(#131),#449);
#451=IFCPROPERTYSINGLEVALUE('InternalTaskId',$,IFCTEXT('task-mula820ehhpq2096'),$);
#452=IFCPROPERTYSET('2RBXj1BzNHYA3DEA2bPBpq',#6,'OPS_TaskIdentity',$,(#451));
#453=IFCRELDEFINESBYPROPERTIES('35I27xg3lTj$$pS2oAJ_qt',#6,$,$,(#133),#452);
#454=IFCPROPERTYSINGLEVALUE('InternalTaskId',$,IFCTEXT('task-mula820gwhlm2097'),$);
#455=IFCPROPERTYSET('3HgfDgf90EDXvIujkPlOiL',#6,'OPS_TaskIdentity',$,(#454));
#456=IFCRELDEFINESBYPROPERTIES('2aM568D6FLfxNZVOm2WTiW',#6,$,$,(#135),#455);
#457=IFCPROPERTYSINGLEVALUE('MilestoneKind',$,IFCLABEL('START'),$);
#458=IFCPROPERTYSET('1qexyVycdC_ogPSbiU5A5T',#6,'OPS_Milestone',$,(#457));
#459=IFCRELDEFINESBYPROPERTIES('0ynaI7zIp5sNDUrAgMzA_j',#6,$,$,(#49),#458);
#460=IFCPROPERTYSINGLEVALUE('MilestoneKind',$,IFCLABEL('FINISH'),$);
#461=IFCPROPERTYSET('0RcWBVXGG_QkdISNfkPYNT',#6,'OPS_Milestone',$,(#460));
#462=IFCRELDEFINESBYPROPERTIES('2JtGTijEkM4w7qIDkVbN8p',#6,$,$,(#79),#461);
#463=IFCPROPERTYSINGLEVALUE('MilestoneKind',$,IFCLABEL('FINISH'),$);
#464=IFCPROPERTYSET('1QtGNJYdrRCDh1DtslhR89',#6,'OPS_Milestone',$,(#463));
#465=IFCRELDEFINESBYPROPERTIES('18XtWNJ7rF41zXW$mCSump',#6,$,$,(#91),#464);
#466=IFCPROPERTYSINGLEVALUE('MilestoneKind',$,IFCLABEL('FINISH'),$);
#467=IFCPROPERTYSINGLEVALUE('Mandatory',$,IFCBOOLEAN(.T.),$);
#468=IFCPROPERTYSET('3xRUjUjX2agaqkbsE9dnsH',#6,'OPS_Milestone',$,(#466,#467));
#469=IFCRELDEFINESBYPROPERTIES('3poucqOVOcG2QbYyJV5C9J',#6,$,$,(#135),#468);
ENDSEC;
END-ISO-10303-21;
