ISO-10303-21;
HEADER;
FILE_DESCRIPTION(('ViewDefinition [SchedulingView]'),'2;1');
FILE_NAME('Amstelveen Municipal Sports Hall.ifc','2026-09-28T13:27:22',('Erik Smit'),('Sports Facilities Holland BV'),'Open Planner Studio 0.1','Open Planner Studio','');
FILE_SCHEMA(('IFC4X3'));
ENDSEC;
DATA;
#1=IFCPERSON($,'Erik Smit',$,$,$,$,$,$);
#2=IFCORGANIZATION($,'Sports Facilities Holland BV',$,$,$);
#3=IFCPERSONANDORGANIZATION(#1,#2,$);
#4=IFCORGANIZATION($,'OpenAEC Foundation',$,$,$);
#5=IFCAPPLICATION(#4,'0.2','Open Planner Studio','OPS');
#6=IFCOWNERHISTORY(#3,#5,$,.NOCHANGE.,$,$,$,1790602042);
#7=IFCSIUNIT(*,.LENGTHUNIT.,$,.METRE.);
#8=IFCSIUNIT(*,.TIMEUNIT.,$,.SECOND.);
#9=IFCUNITASSIGNMENT((#7,#8));
#10=IFCCARTESIANPOINT((0.,0.,0.));
#11=IFCAXIS2PLACEMENT3D(#10,$,$);
#12=IFCGEOMETRICREPRESENTATIONCONTEXT($,'Plan',3,1.0E-05,#11,$);
#13=IFCPROJECT('3Jgm15Y2bL9btkjCW_USLQ',#6,'Amstelveen Municipal Sports Hall','Multifunctional sports hall with three courts and a grandstand',$,$,$,(#12),#9);
#14=IFCTIMEPERIOD('07:00:00','16:00:00');
#15=IFCRECURRENCEPATTERN(.WEEKLY.,$,(1,2,3,4,5),$,$,$,$,(#14));
#16=IFCWORKTIME('Standard work week',.PREDICTED.,$,#15,$,$);
#17=IFCWORKTIME('New Year''s Day',.PREDICTED.,$,$,'2027-01-01','2027-01-01');
#18=IFCWORKTIME('Good Friday',.PREDICTED.,$,$,'2027-03-26','2027-03-26');
#19=IFCWORKTIME('Easter',.PREDICTED.,$,$,'2027-03-28','2027-03-29');
#20=IFCWORKTIME('King''s Day',.PREDICTED.,$,$,'2027-04-27','2027-04-27');
#21=IFCWORKTIME('Liberation Day',.PREDICTED.,$,$,'2027-05-05','2027-05-05');
#22=IFCWORKTIME('Ascension Day',.PREDICTED.,$,$,'2027-05-06','2027-05-06');
#23=IFCWORKTIME('Whitsun',.PREDICTED.,$,$,'2027-05-16','2027-05-17');
#24=IFCWORKTIME('Christmas',.PREDICTED.,$,$,'2027-12-25','2027-12-26');
#25=IFCWORKTIME('Construction holiday (northern region)',.PREDICTED.,$,$,'2027-07-26','2027-08-15');
#26=IFCWORKTIME('New Year''s Day',.PREDICTED.,$,$,'2028-01-01','2028-01-01');
#27=IFCWORKTIME('Good Friday',.PREDICTED.,$,$,'2028-04-14','2028-04-14');
#28=IFCWORKTIME('Easter',.PREDICTED.,$,$,'2028-04-16','2028-04-17');
#29=IFCWORKTIME('King''s Day',.PREDICTED.,$,$,'2028-04-27','2028-04-27');
#30=IFCWORKTIME('Liberation Day',.PREDICTED.,$,$,'2028-05-05','2028-05-05');
#31=IFCWORKTIME('Ascension Day',.PREDICTED.,$,$,'2028-05-25','2028-05-25');
#32=IFCWORKTIME('Whitsun',.PREDICTED.,$,$,'2028-06-04','2028-06-05');
#33=IFCWORKTIME('Christmas',.PREDICTED.,$,$,'2028-12-25','2028-12-26');
#34=IFCWORKTIME('Construction holiday (northern region)',.PREDICTED.,$,$,'2028-07-24','2028-08-13');
#35=IFCWORKCALENDAR('3wz5HjKJBtTfcCNfyRV4nn',#6,'Construction calendar NL','Standard construction calendar: Mon-Fri 07:00-16:00',$,(#16),(#17,#18,#19,#20,#21,#22,#23,#24,#25,#26,#27,#28,#29,#30,#31,#32,#33,#34),.FIRSTSHIFT.);
#36=IFCPROPERTYSINGLEVALUE('HoursPerDay',$,IFCREAL(8),$);
#37=IFCPROPERTYSET('0mn_rrBg8ZL3xXIZSaWm4D',#6,'OPS_Calendar',$,(#36));
#38=IFCRELDEFINESBYPROPERTIES('2sA5QP2YzSGCbv6cEPlO$P',#6,$,$,(#35),#37);
#39=IFCWORKPLAN('1iLWKWY4Cdu_bSD616LMxL',#6,'Amstelveen Municipal Sports Hall','Multifunctional sports hall with three courts and a grandstand',$,$,'2026-09-28T13:27:22',$,$,$,$,$,'2027-03-01T07:00:00','2027-03-19T07:00:00',.PLANNED.);
#40=IFCWORKSCHEDULE('0HV5f6GL8p9FLEimHBGRTs',#6,'Construction schedule v1.0',$,$,$,'2026-09-28T13:27:22',$,$,$,$,$,'2027-03-01T07:00:00','2027-03-19T07:00:00',.PLANNED.);
#41=IFCRELAGGREGATES('3helkhhTq$ZNr5tvHf$4Q5',#6,$,$,#39,(#40));
#42=IFCTASKTIME('1. Preparation Time',.PREDICTED.,$,.WORKTIME.,'P0Y0M11D','2027-03-01T07:00:00','2027-03-05T07:00:00','2027-03-01T07:00:00','2027-03-15T07:00:00','2027-03-01T07:00:00','2027-09-13T07:00:00','P0Y0M0D','P0Y0M0D',.T.,$,$,$,$,$,0.00);
#43=IFCTASK('3pJlhikvrIW2lUQUheinYd',#6,'1. Preparation',$,$,'1',$,$,$,.F.,$,#42,.CONSTRUCTION.);
#44=IFCTASKTIME('Set up site Time',.PREDICTED.,$,.WORKTIME.,'P0Y0M5D','2027-03-01T07:00:00','2027-03-05T07:00:00','2027-03-01T07:00:00','2027-03-05T07:00:00','2027-03-01T07:00:00','2027-03-05T07:00:00','P0Y0M0D','P0Y0M0D',.T.,$,$,$,$,$,0.00);
#45=IFCTASK('008Kr3hnO41yO_tob3txCl',#6,'Set up site',$,$,'1.1',$,$,$,.F.,$,#44,.LOGISTIC.);
#46=IFCTASKTIME('Earthworks, site preparation Time',.PREDICTED.,$,.WORKTIME.,'P0Y0M5D','2027-03-01T07:00:00','2027-03-05T07:00:00','2027-03-08T07:00:00','2027-03-12T07:00:00','2027-09-06T07:00:00','2027-09-10T07:00:00','P0Y0M0D','P0Y0M109D',.F.,$,$,$,$,$,0.00);
#47=IFCTASK('02TDfVeyfTtjrOcMnN2M93',#6,'Earthworks, site preparation',$,$,'1.2',$,$,$,.F.,$,#46,.CONSTRUCTION.);
#48=IFCTASKTIME('Start of construction Time',.PREDICTED.,$,.WORKTIME.,'P0Y0M0D','2027-03-01T07:00:00','2027-03-01T07:00:00','2027-03-15T07:00:00','2027-03-15T07:00:00','2027-09-13T07:00:00','2027-09-13T07:00:00','P0Y0M109D','P0Y0M109D',.F.,$,$,$,$,$,0.00);
#49=IFCTASK('3153EqBvsxlcxkAuRcI3WS',#6,'Start of construction',$,$,'1.3',$,$,$,.T.,$,#48,.CONSTRUCTION.);
#50=IFCTASKTIME('2. Foundations Time',.PREDICTED.,$,.WORKTIME.,'P0Y0M26D','2027-03-01T07:00:00','2027-03-05T07:00:00','2027-03-08T07:00:00','2027-04-14T07:00:00','2027-03-08T07:00:00','2027-09-13T07:00:00','P0Y0M0D','P0Y0M0D',.T.,$,$,$,$,$,0.00);
#51=IFCTASK('1SLp8ZS8mUvw99k8Nxx0kR',#6,'2. Foundations',$,$,'2',$,$,$,.F.,$,#50,.CONSTRUCTION.);
#52=IFCTASKTIME('Drive piles Time',.PREDICTED.,$,.WORKTIME.,'P0Y0M10D','2027-03-01T07:00:00','2027-03-12T07:00:00','2027-03-08T07:00:00','2027-03-19T07:00:00','2027-03-08T07:00:00','2027-03-19T07:00:00','P0Y0M0D','P0Y0M0D',.T.,$,$,$,$,$,0.00);
#53=IFCTASK('1gdKout3JfaqBaUvOADt$R',#6,'Drive piles',$,$,'2.1',$,$,$,.F.,$,#52,.CONSTRUCTION.);
#54=IFCTASKTIME('Foundation beams Time',.PREDICTED.,$,.WORKTIME.,'P0Y0M8D','2027-03-01T07:00:00','2027-03-10T07:00:00','2027-03-22T07:00:00','2027-04-02T07:00:00','2027-08-23T07:00:00','2027-09-01T07:00:00','P0Y0M0D','P0Y0M89D',.F.,$,$,$,$,$,0.00);
#55=IFCTASK('2uzAaaaFZ1KcT3QG99m9rb',#6,'Foundation beams',$,$,'2.2',$,$,$,.F.,$,#54,.CONSTRUCTION.);
#56=IFCTASKTIME('Ground floor slab on piles Time',.PREDICTED.,$,.WORKTIME.,'P0Y0M8D','2027-03-01T07:00:00','2027-03-10T07:00:00','2027-04-05T07:00:00','2027-04-14T07:00:00','2027-09-02T07:00:00','2027-09-13T07:00:00','P0Y0M89D','P0Y0M89D',.F.,$,$,$,$,$,0.00);
#57=IFCTASK('3ryhzofopCcg7zJdQmD3nK',#6,'Ground floor slab on piles',$,$,'2.3',$,$,$,.F.,$,#56,.CONSTRUCTION.);
#58=IFCTASKTIME('3. Structure Time',.PREDICTED.,$,.WORKTIME.,'P0Y0M41D','2027-03-01T07:00:00','2027-03-05T07:00:00','2027-03-12T07:00:00','2027-05-14T07:00:00','2027-03-12T07:00:00','2027-09-13T07:00:00','P0Y0M0D','P0Y0M0D',.T.,$,$,$,$,$,0.00);
#59=IFCTASK('2zZtyIGZo$FBZhBKGFOiUE',#6,'3. Structure',$,$,'3',$,$,$,.F.,$,#58,.CONSTRUCTION.);
#60=IFCTASKTIME('Structural steel trusses Time',.PREDICTED.,$,.WORKTIME.,'P0Y0M15D','2027-03-01T07:00:00','2027-03-19T07:00:00','2027-03-12T07:00:00','2027-04-05T07:00:00','2027-03-12T07:00:00','2027-04-05T07:00:00','P0Y0M0D','P0Y0M0D',.T.,$,$,$,$,$,0.00);
#61=IFCTASK('2VC9ojpQVfKNDCWZSi91Jm',#6,'Structural steel trusses',$,$,'3.1',$,$,$,.F.,$,#60,.CONSTRUCTION.);
#62=IFCTASKTIME('Steel columns Time',.PREDICTED.,$,.WORKTIME.,'P0Y0M8D','2027-03-01T07:00:00','2027-03-10T07:00:00','2027-04-06T07:00:00','2027-04-15T07:00:00','2027-04-06T07:00:00','2027-04-15T07:00:00','P0Y0M0D','P0Y0M0D',.T.,$,$,$,$,$,0.00);
#63=IFCTASK('2y3QdRhWPRkpWx6GJSuaDR',#6,'Steel columns',$,$,'3.2',$,$,$,.F.,$,#62,.CONSTRUCTION.);
#64=IFCTASKTIME('Concrete grandstand structure Time',.PREDICTED.,$,.WORKTIME.,'P0Y0M10D','2027-03-01T07:00:00','2027-03-12T07:00:00','2027-04-16T07:00:00','2027-04-30T07:00:00','2027-04-16T07:00:00','2027-04-30T07:00:00','P0Y0M0D','P0Y0M0D',.T.,$,$,$,$,$,0.00);
#65=IFCTASK('1p0_s33EndzelB9Id1HQOv',#6,'Concrete grandstand structure',$,$,'3.3',$,$,$,.F.,$,#64,.CONSTRUCTION.);
#66=IFCTASKTIME('Install roof beams Time',.PREDICTED.,$,.WORKTIME.,'P0Y0M8D','2027-03-01T07:00:00','2027-03-10T07:00:00','2027-05-03T07:00:00','2027-05-14T07:00:00','2027-05-03T07:00:00','2027-05-14T07:00:00','P0Y0M0D','P0Y0M0D',.T.,$,$,$,$,$,0.00);
#67=IFCTASK('3A_obBnGEySsJSoL7pEsMv',#6,'Install roof beams',$,$,'3.4',$,$,$,.F.,$,#66,.CONSTRUCTION.);
#68=IFCTASKTIME('Topping out Time',.PREDICTED.,$,.WORKTIME.,'P0Y0M0D','2027-03-01T07:00:00','2027-03-01T07:00:00','2027-05-14T07:00:00','2027-05-14T07:00:00','2027-09-13T07:00:00','2027-09-13T07:00:00','P0Y0M70D','P0Y0M70D',.F.,$,$,$,$,$,0.00);
#69=IFCTASK('2YmyX6_wBv5vrfcGwxGTSx',#6,'Topping out',$,$,'3.5',$,$,$,.T.,$,#68,.CONSTRUCTION.);
#70=IFCTASKTIME('4. Facade & roof Time',.PREDICTED.,$,.WORKTIME.,'P0Y0M28D','2027-03-01T07:00:00','2027-03-05T07:00:00','2027-05-03T07:00:00','2027-06-14T07:00:00','2027-05-03T07:00:00','2027-09-13T07:00:00','P0Y0M0D','P0Y0M0D',.T.,$,$,$,$,$,0.00);
#71=IFCTASK('0xZ4OmOLx3N5B6EFxqYiTs',#6,'4. Facade & roof',$,$,'4',$,$,$,.F.,$,#70,.CONSTRUCTION.);
#72=IFCTASKTIME('Roof deck insulation Time',.PREDICTED.,$,.WORKTIME.,'P0Y0M8D','2027-03-01T07:00:00','2027-03-10T07:00:00','2027-05-03T07:00:00','2027-05-14T07:00:00','2027-05-03T07:00:00','2027-05-14T07:00:00','P0Y0M0D','P0Y0M0D',.T.,$,$,$,$,$,0.00);
#73=IFCTASK('0DITB$RylFumDpAGLA_1Y1',#6,'Roof deck insulation',$,$,'4.1',$,$,$,.F.,$,#72,.INSTALLATION.);
#74=IFCTASKTIME('Bituminous roofing Time',.PREDICTED.,$,.WORKTIME.,'P0Y0M5D','2027-03-01T07:00:00','2027-03-05T07:00:00','2027-05-18T07:00:00','2027-05-24T07:00:00','2027-05-18T07:00:00','2027-05-24T07:00:00','P0Y0M0D','P0Y0M0D',.T.,$,$,$,$,$,0.00);
#75=IFCTASK('3e9CTzjxuYLUliamaBU3QY',#6,'Bituminous roofing',$,$,'4.2',$,$,$,.F.,$,#74,.CONSTRUCTION.);
#76=IFCTASKTIME('Facade panels Time',.PREDICTED.,$,.WORKTIME.,'P0Y0M10D','2027-03-01T07:00:00','2027-03-12T07:00:00','2027-05-25T07:00:00','2027-06-07T07:00:00','2027-05-25T07:00:00','2027-06-07T07:00:00','P0Y0M0D','P0Y0M0D',.T.,$,$,$,$,$,0.00);
#77=IFCTASK('0P9v4KpzYyn38OmqvKbVWr',#6,'Facade panels',$,$,'4.3',$,$,$,.F.,$,#76,.INSTALLATION.);
#78=IFCTASKTIME('Entrance screens Time',.PREDICTED.,$,.WORKTIME.,'P0Y0M5D','2027-03-01T07:00:00','2027-03-05T07:00:00','2027-06-08T07:00:00','2027-06-14T07:00:00','2027-06-08T07:00:00','2027-06-14T07:00:00','P0Y0M0D','P0Y0M0D',.T.,$,$,$,$,$,0.00);
#79=IFCTASK('13gbyn91iVli2tD9nc8BQf',#6,'Entrance screens',$,$,'4.4',$,$,$,.F.,$,#78,.INSTALLATION.);
#80=IFCTASKTIME('Wind and weathertight Time',.PREDICTED.,$,.WORKTIME.,'P0Y0M0D','2027-03-01T07:00:00','2027-03-01T07:00:00','2027-06-14T07:00:00','2027-06-14T07:00:00','2027-09-13T07:00:00','2027-09-13T07:00:00','P0Y0M50D','P0Y0M50D',.F.,$,$,$,$,$,0.00);
#81=IFCTASK('2Xlzp9bds0aGyne$ltGBpo',#6,'Wind and weathertight',$,$,'4.5',$,$,$,.T.,$,#80,.CONSTRUCTION.);
#82=IFCTASKTIME('5. Sports floor & services Time',.PREDICTED.,$,.WORKTIME.,'P0Y0M36D','2027-03-01T07:00:00','2027-03-05T07:00:00','2027-06-15T07:00:00','2027-08-24T07:00:00','2027-06-15T07:00:00','2027-09-13T07:00:00','P0Y0M0D','P0Y0M0D',.T.,$,$,$,$,$,0.00);
#83=IFCTASK('3jKmqikYqrTW0tgsYtgKbJ',#6,'5. Sports floor & services',$,$,'5',$,$,$,.F.,$,#82,.CONSTRUCTION.);
#84=IFCTASKTIME('Sports floor sub-base Time',.PREDICTED.,$,.WORKTIME.,'P0Y0M10D','2027-03-01T07:00:00','2027-03-12T07:00:00','2027-06-15T07:00:00','2027-06-28T07:00:00','2027-06-15T07:00:00','2027-06-28T07:00:00','P0Y0M0D','P0Y0M0D',.T.,$,$,$,$,$,0.00);
#85=IFCTASK('2mEL$Cul4e8Uxcp3eovxSx',#6,'Sports floor sub-base',$,$,'5.1',$,$,$,.F.,$,#84,.CONSTRUCTION.);
#86=IFCTASKTIME('Sports floor top layer Time',.PREDICTED.,$,.WORKTIME.,'P0Y0M8D','2027-03-01T07:00:00','2027-03-10T07:00:00','2027-06-29T07:00:00','2027-07-08T07:00:00','2027-07-19T07:00:00','2027-08-18T07:00:00','P0Y0M0D','P0Y0M14D',.F.,$,$,$,$,$,0.00);
#87=IFCTASK('19je5WLwSYJ0xLJA3dMgYZ',#6,'Sports floor top layer',$,$,'5.2',$,$,$,.F.,$,#86,.INSTALLATION.);
#88=IFCTASKTIME('Sports lighting Time',.PREDICTED.,$,.WORKTIME.,'P0Y0M5D','2027-03-01T07:00:00','2027-03-05T07:00:00','2027-07-09T07:00:00','2027-07-15T07:00:00','2027-08-19T07:00:00','2027-08-25T07:00:00','P0Y0M0D','P0Y0M14D',.F.,$,$,$,$,$,0.00);
#89=IFCTASK('2$nw4QBc5ZLPJ4lMgjuSjg',#6,'Sports lighting',$,$,'5.3',$,$,$,.F.,$,#88,.INSTALLATION.);
#90=IFCTASKTIME('HVAC installation Time',.PREDICTED.,$,.WORKTIME.,'P0Y0M10D','2027-03-01T07:00:00','2027-03-12T07:00:00','2027-07-16T07:00:00','2027-08-19T07:00:00','2027-08-26T07:00:00','2027-09-08T07:00:00','P0Y0M0D','P0Y0M14D',.F.,$,$,$,$,$,0.00);
#91=IFCTASK('0$3Z4TpfCSgYbA3gvIe1iR',#6,'HVAC installation',$,$,'5.4',$,$,$,.F.,$,#90,.INSTALLATION.);
#92=IFCTASKTIME('Scoreboards and AV Time',.PREDICTED.,$,.WORKTIME.,'P0Y0M3D','2027-03-01T07:00:00','2027-03-03T07:00:00','2027-08-20T07:00:00','2027-08-24T07:00:00','2027-09-09T07:00:00','2027-09-13T07:00:00','P0Y0M14D','P0Y0M14D',.F.,$,$,$,$,$,0.00);
#93=IFCTASK('38f$EJBTu739Iv6fqD0cuH',#6,'Scoreboards and AV',$,$,'5.5',$,$,$,.F.,$,#92,.INSTALLATION.);
#94=IFCTASKTIME('6. Fit-out Time',.PREDICTED.,$,.WORKTIME.,'P0Y0M21D','2027-03-01T07:00:00','2027-03-05T07:00:00','2027-07-09T07:00:00','2027-08-27T07:00:00','2027-07-09T07:00:00','2027-08-27T07:00:00','P0Y0M0D','P0Y0M0D',.T.,$,$,$,$,$,0.00);
#95=IFCTASK('3OKupNhH_i0gK3cDFKi7Pb',#6,'6. Fit-out',$,$,'6',$,$,$,.F.,$,#94,.CONSTRUCTION.);
#96=IFCTASKTIME('Changing room fit-out Time',.PREDICTED.,$,.WORKTIME.,'P0Y0M8D','2027-03-01T07:00:00','2027-03-10T07:00:00','2027-07-09T07:00:00','2027-07-20T07:00:00','2027-07-09T07:00:00','2027-07-20T07:00:00','P0Y0M0D','P0Y0M0D',.T.,$,$,$,$,$,0.00);
#97=IFCTASK('27G$WmgRh9GleGHMKBSWkV',#6,'Changing room fit-out',$,$,'6.1',$,$,$,.F.,$,#96,.CONSTRUCTION.);
#98=IFCTASKTIME('Sanitary fittings and showers Time',.PREDICTED.,$,.WORKTIME.,'P0Y0M5D','2027-03-01T07:00:00','2027-03-05T07:00:00','2027-07-21T07:00:00','2027-08-17T07:00:00','2027-07-21T07:00:00','2027-08-17T07:00:00','P0Y0M0D','P0Y0M0D',.T.,$,$,$,$,$,0.00);
#99=IFCTASK('1_SSScNtQlLrfP3Y0CgU0h',#6,'Sanitary fittings and showers',$,$,'6.2',$,$,$,.F.,$,#98,.INSTALLATION.);
#100=IFCTASKTIME('Entrance hall finishes Time',.PREDICTED.,$,.WORKTIME.,'P0Y0M5D','2027-03-01T07:00:00','2027-03-05T07:00:00','2027-08-18T07:00:00','2027-08-24T07:00:00','2027-08-18T07:00:00','2027-08-24T07:00:00','P0Y0M0D','P0Y0M0D',.T.,$,$,$,$,$,0.00);
#101=IFCTASK('0PiYAPEgCiMFc2sv5hIZKa',#6,'Entrance hall finishes',$,$,'6.3',$,$,$,.F.,$,#100,.CONSTRUCTION.);
#102=IFCTASKTIME('Sports pitch line marking Time',.PREDICTED.,$,.WORKTIME.,'P0Y0M3D','2027-03-01T07:00:00','2027-03-03T07:00:00','2027-08-25T07:00:00','2027-08-27T07:00:00','2027-08-25T07:00:00','2027-08-27T07:00:00','P0Y0M0D','P0Y0M0D',.T.,$,$,$,$,$,0.00);
#103=IFCTASK('11I15ks_KnyYsSEqkBd7B7',#6,'Sports pitch line marking',$,$,'6.4',$,$,$,.F.,$,#102,.INSTALLATION.);
#104=IFCTASKTIME('7. Handover Time',.PREDICTED.,$,.WORKTIME.,'P0Y0M11D','2027-03-01T07:00:00','2027-03-05T07:00:00','2027-08-30T07:00:00','2027-09-13T07:00:00','2027-08-30T07:00:00','2027-09-13T07:00:00','P0Y0M0D','P0Y0M0D',.T.,$,$,$,$,$,0.00);
#105=IFCTASK('3AasNyvZ3d5Mbc6sEa4V3I',#6,'7. Handover',$,$,'7',$,$,$,.F.,$,#104,.CONSTRUCTION.);
#106=IFCTASKTIME('External areas and parking Time',.PREDICTED.,$,.WORKTIME.,'P0Y0M8D','2027-03-01T07:00:00','2027-03-10T07:00:00','2027-08-30T07:00:00','2027-09-08T07:00:00','2027-08-30T07:00:00','2027-09-08T07:00:00','P0Y0M0D','P0Y0M0D',.T.,$,$,$,$,$,0.00);
#107=IFCTASK('3HrYezmCseZn6SsLBFoh3o',#6,'External areas and parking',$,$,'7.1',$,$,$,.F.,$,#106,.CONSTRUCTION.);
#108=IFCTASKTIME('Test building services Time',.PREDICTED.,$,.WORKTIME.,'P0Y0M3D','2027-03-01T07:00:00','2027-03-03T07:00:00','2027-09-09T07:00:00','2027-09-13T07:00:00','2027-09-09T07:00:00','2027-09-13T07:00:00','P0Y0M0D','P0Y0M0D',.T.,$,$,$,$,$,0.00);
#109=IFCTASK('20n6iJcEtl3U1HO$DOuZX3',#6,'Test building services',$,$,'7.2',$,$,$,.F.,$,#108,.ATTENDANCE.);
#110=IFCTASKTIME('Handover Time',.PREDICTED.,$,.WORKTIME.,'P0Y0M0D','2027-03-01T07:00:00','2027-03-01T07:00:00','2027-09-13T07:00:00','2027-09-13T07:00:00','2027-09-13T07:00:00','2027-09-13T07:00:00','P0Y0M0D','P0Y0M0D',.T.,$,$,$,$,$,0.00);
#111=IFCTASK('30noEWI8rvZLl_OgiBV1IN',#6,'Handover',$,$,'7.3',$,$,$,.T.,$,#110,.CONSTRUCTION.);
#112=IFCRELNESTS('1IUxltn6EqY_zwW7W2uS7K',#6,'WBS 1. Preparation',$,#43,( #45,#47,#49));
#113=IFCRELNESTS('1VCm_phMh4TTO_cPft4wTG',#6,'WBS 2. Foundations',$,#51,( #53,#55,#57));
#114=IFCRELNESTS('0usq2_dvvi9WJ0NeBvauiq',#6,'WBS 3. Structure',$,#59,( #61,#63,#65,#67,#69));
#115=IFCRELNESTS('0UxDFsD0kmDWwaIeV4HFFn',#6,'WBS 4. Facade & roof',$,#71,( #73,#75,#77,#79,#81));
#116=IFCRELNESTS('3UXm5EQZJykpSbH2eTkt3j',#6,'WBS 5. Sports floor & services',$,#83,( #85,#87,#89,#91,#93));
#117=IFCRELNESTS('0jF0BGsZ5AIF3orrFTN0B9',#6,'WBS 6. Fit-out',$,#95,( #97,#99,#101,#103));
#118=IFCRELNESTS('2AIV$PhIQgsRair9jg8ZP0',#6,'WBS 7. Handover',$,#105,( #107,#109,#111));
#119=IFCRELNESTS('1VMdEpM1xoGlX6YTWBWCsW',#6,'WBS Hoofd',$,#40,(#43,#51,#59,#71,#83,#95,#105));
#120=IFCRELSEQUENCE('38GYaRRPvK9uT3etG1hW2Z',#6,$,$,#45,#47,$,.FINISH_START.,$);
#121=IFCRELSEQUENCE('2hC7p5B1BlpYsIGlwcBeD6',#6,$,$,#47,#49,$,.FINISH_START.,$);
#122=IFCRELSEQUENCE('0y12sKEIyxgQaEYnmkVPPd',#6,$,$,#53,#55,$,.FINISH_START.,$);
#123=IFCRELSEQUENCE('0yqgdvEy4Q1g7fFV7ukmBK',#6,$,$,#55,#57,$,.FINISH_START.,$);
#124=IFCRELSEQUENCE('3MDLFqUKkgzT0TS12Qa3ef',#6,$,$,#61,#63,$,.FINISH_START.,$);
#125=IFCRELSEQUENCE('1FfvoxsiX$FUgLXBMBU7$8',#6,$,$,#63,#65,$,.FINISH_START.,$);
#126=IFCRELSEQUENCE('3zYvmdeVdxuiN_LSkM$wp9',#6,$,$,#65,#67,$,.FINISH_START.,$);
#127=IFCRELSEQUENCE('3it8qt7zzvmsJpAz6_$UZw',#6,$,$,#67,#69,$,.FINISH_START.,$);
#128=IFCRELSEQUENCE('041YFkl76ezX$y$Hd3xwmk',#6,$,$,#73,#75,$,.FINISH_START.,$);
#129=IFCRELSEQUENCE('1Ia3HlSS_tLoDzW4jgLuxc',#6,$,$,#75,#77,$,.FINISH_START.,$);
#130=IFCRELSEQUENCE('01pcGx9XyXp0gj_NZiPerQ',#6,$,$,#77,#79,$,.FINISH_START.,$);
#131=IFCRELSEQUENCE('2KAEbF9mgOUqGOPMRwmzzH',#6,$,$,#79,#81,$,.FINISH_START.,$);
#132=IFCRELSEQUENCE('0EmU2s$MBiLzI8WUL1ykZ4',#6,$,$,#85,#87,$,.FINISH_START.,$);
#133=IFCRELSEQUENCE('3RS_Hj16hJuSrC84cBsEf5',#6,$,$,#87,#89,$,.FINISH_START.,$);
#134=IFCRELSEQUENCE('1UH8K88XSejNVhvhXZz0jk',#6,$,$,#89,#91,$,.FINISH_START.,$);
#135=IFCRELSEQUENCE('02ccdK$F4_MA9h9AjW3Iar',#6,$,$,#91,#93,$,.FINISH_START.,$);
#136=IFCRELSEQUENCE('2FE9tPdQeh8tGLouFFYArX',#6,$,$,#97,#99,$,.FINISH_START.,$);
#137=IFCRELSEQUENCE('1xMXUTzyY7tv2s$MAehLSX',#6,$,$,#99,#101,$,.FINISH_START.,$);
#138=IFCRELSEQUENCE('13OvGXdOmlQkQj1fnw8q4$',#6,$,$,#101,#103,$,.FINISH_START.,$);
#139=IFCRELSEQUENCE('0NqJKFUP2M4eSMWadZMoKu',#6,$,$,#107,#109,$,.FINISH_START.,$);
#140=IFCRELSEQUENCE('0rRRJI_hx8vgs$2jzsyoIp',#6,$,$,#109,#111,$,.FINISH_START.,$);
#141=IFCLAGTIME('Lag',.PREDICTED.,$,IFCDURATION('P5D'),.WORKTIME.);
#142=IFCRELSEQUENCE('01BwZJo0Od0LkqKxKxnlBK',#6,$,$,#45,#53,#141,.START_START.,$);
#143=IFCLAGTIME('Lag',.PREDICTED.,$,IFCRATIOMEASURE(0.4),.WORKTIME.);
#144=IFCRELSEQUENCE('21rSOU2265Q3AVmvakKlsc',#6,$,$,#53,#61,#143,.START_START.,$);
#145=IFCLAGTIME('Lag',.PREDICTED.,$,IFCDURATION('-P8D'),.WORKTIME.);
#146=IFCRELSEQUENCE('0RAPG$FemZ02dFCYQDbaSy',#6,$,$,#67,#73,#145,.FINISH_START.,$);
#147=IFCLAGTIME('Lag',.PREDICTED.,$,IFCDURATION('P2D'),.WORKTIME.);
#148=IFCRELSEQUENCE('0h4hZX5lF$WF9wEW1nsk_c',#6,$,$,#67,#79,#147,.FINISH_FINISH.,$);
#149=IFCRELSEQUENCE('1B0MiPH$_4cTXFBLe_T6gN',#6,$,$,#79,#85,$,.FINISH_START.,$);
#150=IFCLAGTIME('Lag',.PREDICTED.,$,IFCDURATION('P18D'),.WORKTIME.);
#151=IFCRELSEQUENCE('0pbtoFssxW78eJiobqF93N',#6,$,$,#85,#97,#150,.START_START.,$);
#152=IFCRELSEQUENCE('2IU0hB$nScLY8PJLRW7s3x',#6,$,$,#103,#107,$,.FINISH_START.,$);
#153=IFCRELASSIGNSTOCONTROL('1ZJCPdFCUcL_QOk0QrpNDK',#6,$,$,(#43,#45,#47,#49,#51,#53,#55,#57,#59,#61,#63,#65,#67,#69,#71,#73,#75,#77,#79,#81,#83,#85,#87,#89,#91,#93,#95,#97,#99,#101,#103,#105,#107,#109,#111),$,#40);
#154=IFCPROPERTYSINGLEVALUE('InternalProjectId',$,IFCTEXT('proj-mula8258l2re2158'),$);
#155=IFCPROPERTYSINGLEVALUE('wbsAutoNumber',$,IFCBOOLEAN(.T.),$);
#156=IFCPROPERTYSINGLEVALUE('DefaultTaskDurationUnit',$,IFCLABEL('days'),$);
#157=IFCPROPERTYSINGLEVALUE('ProjectStartDate',$,IFCDATE('2027-03-01'),$);
#158=IFCPROPERTYSINGLEVALUE('ProjectEndDate',$,$,$);
#159=IFCPROPERTYSINGLEVALUE('CreatedAt',$,IFCTEXT('2026-09-28T13:27:22.076Z'),$);
#160=IFCPROPERTYSINGLEVALUE('ModifiedAt',$,IFCTEXT('2026-09-28T13:27:22.078Z'),$);
#161=IFCPROPERTYSET('1MBT7uPqsQ8HBo05JVfoN1',#6,'OPS_ProjectSettings',$,(#154,#155,#156,#157,#158,#159,#160));
#162=IFCRELDEFINESBYPROPERTIES('0jybnnkWocX8R$Z7mpTUmX',#6,$,$,(#13),#161);
#163=IFCPROPERTYSINGLEVALUE('InternalTaskId',$,IFCTEXT('task-mula825bhaie2159'),$);
#164=IFCPROPERTYSET('2nPZyd3WQntkunPtgZV_y6',#6,'OPS_TaskIdentity',$,(#163));
#165=IFCRELDEFINESBYPROPERTIES('1s_AohX__JoUwNXsuVVBi2',#6,$,$,(#43),#164);
#166=IFCPROPERTYSINGLEVALUE('InternalTaskId',$,IFCTEXT('task-mula825cd40w2160'),$);
#167=IFCPROPERTYSET('1uiOEriC$vncV9Y9TXKnvm',#6,'OPS_TaskIdentity',$,(#166));
#168=IFCRELDEFINESBYPROPERTIES('15KxmmHoc438cw8qI$8Amr',#6,$,$,(#45),#167);
#169=IFCPROPERTYSINGLEVALUE('InternalTaskId',$,IFCTEXT('task-mula825eyc1e2161'),$);
#170=IFCPROPERTYSET('2LgX6e0epKzmFYjOf9Qkka',#6,'OPS_TaskIdentity',$,(#169));
#171=IFCRELDEFINESBYPROPERTIES('3Lg5YummBK93R$iz7uHXFS',#6,$,$,(#47),#170);
#172=IFCPROPERTYSINGLEVALUE('InternalTaskId',$,IFCTEXT('task-mula825for9l2162'),$);
#173=IFCPROPERTYSET('1lCbz$M1VBZe87Dth8YzcA',#6,'OPS_TaskIdentity',$,(#172));
#174=IFCRELDEFINESBYPROPERTIES('1VobQVeB8a06Bn$s00b66h',#6,$,$,(#49),#173);
#175=IFCPROPERTYSINGLEVALUE('InternalTaskId',$,IFCTEXT('task-mula825g44qw2163'),$);
#176=IFCPROPERTYSET('3dUUAcCTYxJE4X4CtRjDW4',#6,'OPS_TaskIdentity',$,(#175));
#177=IFCRELDEFINESBYPROPERTIES('0KO3TfPo$UafbqFYNiu0tp',#6,$,$,(#51),#176);
#178=IFCPROPERTYSINGLEVALUE('InternalTaskId',$,IFCTEXT('task-mula825i0c7q2164'),$);
#179=IFCPROPERTYSET('0oeKWJ9hl$kvRng3V5ntfb',#6,'OPS_TaskIdentity',$,(#178));
#180=IFCRELDEFINESBYPROPERTIES('0X7UV$rCXaw4NOk3NP1RUf',#6,$,$,(#53),#179);
#181=IFCPROPERTYSINGLEVALUE('InternalTaskId',$,IFCTEXT('task-mula825j4i4j2165'),$);
#182=IFCPROPERTYSET('2_eIl1PABLPE4D4nUPBL2j',#6,'OPS_TaskIdentity',$,(#181));
#183=IFCRELDEFINESBYPROPERTIES('0Su83Wu$2xM2r9lvJSuq_a',#6,$,$,(#55),#182);
#184=IFCPROPERTYSINGLEVALUE('InternalTaskId',$,IFCTEXT('task-mula825la5zr2166'),$);
#185=IFCPROPERTYSET('0xO1nebZmdJzMAZwTJVkDb',#6,'OPS_TaskIdentity',$,(#184));
#186=IFCRELDEFINESBYPROPERTIES('3N1GQtIiNW0yrURRsTq1eV',#6,$,$,(#57),#185);
#187=IFCPROPERTYSINGLEVALUE('InternalTaskId',$,IFCTEXT('task-mula825nxxnf2167'),$);
#188=IFCPROPERTYSET('31b9x47RMe66f8uVsDSET6',#6,'OPS_TaskIdentity',$,(#187));
#189=IFCRELDEFINESBYPROPERTIES('27tXwUoilavmBcCoVH5hJc',#6,$,$,(#59),#188);
#190=IFCPROPERTYSINGLEVALUE('InternalTaskId',$,IFCTEXT('task-mula825ok89c2168'),$);
#191=IFCPROPERTYSET('2fn$rAJAhD0_YldEDwE2M$',#6,'OPS_TaskIdentity',$,(#190));
#192=IFCRELDEFINESBYPROPERTIES('3ydNUTEhMPLgOvZdlokKKw',#6,$,$,(#61),#191);
#193=IFCPROPERTYSINGLEVALUE('InternalTaskId',$,IFCTEXT('task-mula825q16fi2169'),$);
#194=IFCPROPERTYSET('0IefwZmkfEDmn6QCPD3lm$',#6,'OPS_TaskIdentity',$,(#193));
#195=IFCRELDEFINESBYPROPERTIES('19UEbkg6NF63BD$aliShlV',#6,$,$,(#63),#194);
#196=IFCPROPERTYSINGLEVALUE('InternalTaskId',$,IFCTEXT('task-mula825sfn092170'),$);
#197=IFCPROPERTYSET('10VZZbH9xMS2jbJl8Tag3M',#6,'OPS_TaskIdentity',$,(#196));
#198=IFCRELDEFINESBYPROPERTIES('0eaqndC1LsL27E5SpwF1nm',#6,$,$,(#65),#197);
#199=IFCPROPERTYSINGLEVALUE('InternalTaskId',$,IFCTEXT('task-mula825usamj2171'),$);
#200=IFCPROPERTYSET('0JtOknwtpWPHqbQ$aIMjjs',#6,'OPS_TaskIdentity',$,(#199));
#201=IFCRELDEFINESBYPROPERTIES('2ELdnY6L0NMcEokyLfO0tr',#6,$,$,(#67),#200);
#202=IFCPROPERTYSINGLEVALUE('InternalTaskId',$,IFCTEXT('task-mula825vewac2172'),$);
#203=IFCPROPERTYSET('3VRkKIg8PMgK46RL_QYxTo',#6,'OPS_TaskIdentity',$,(#202));
#204=IFCRELDEFINESBYPROPERTIES('0HsPqgaVARe4NbKqiWqz2U',#6,$,$,(#69),#203);
#205=IFCPROPERTYSINGLEVALUE('InternalTaskId',$,IFCTEXT('task-mula825xi6ur2173'),$);
#206=IFCPROPERTYSET('0p9Dy1wbqrGBBxBRb5s313',#6,'OPS_TaskIdentity',$,(#205));
#207=IFCRELDEFINESBYPROPERTIES('10KimBoBhipGusmLJsohGO',#6,$,$,(#71),#206);
#208=IFCPROPERTYSINGLEVALUE('InternalTaskId',$,IFCTEXT('task-mula8261j0tw2174'),$);
#209=IFCPROPERTYSET('3elCFcOE4fElqIVl0CX2MX',#6,'OPS_TaskIdentity',$,(#208));
#210=IFCRELDEFINESBYPROPERTIES('1DVoRPzwoMxiezXTUyFL2A',#6,$,$,(#73),#209);
#211=IFCPROPERTYSINGLEVALUE('InternalTaskId',$,IFCTEXT('task-mula8263mder2175'),$);
#212=IFCPROPERTYSET('0Tvl7C0pe3fSeEZXlomXc1',#6,'OPS_TaskIdentity',$,(#211));
#213=IFCRELDEFINESBYPROPERTIES('0W94dfYwwJvOwEQIO4Dsa2',#6,$,$,(#75),#212);
#214=IFCPROPERTYSINGLEVALUE('InternalTaskId',$,IFCTEXT('task-mula8264chjo2176'),$);
#215=IFCPROPERTYSET('3PkbHynJ$MLRQ0om6ZLFJR',#6,'OPS_TaskIdentity',$,(#214));
#216=IFCRELDEFINESBYPROPERTIES('1$Y$ab_wzhk9E1glGVisJ$',#6,$,$,(#77),#215);
#217=IFCPROPERTYSINGLEVALUE('InternalTaskId',$,IFCTEXT('task-mula8266m13y2177'),$);
#218=IFCPROPERTYSET('0u$texRnpCKwIoaIOg5Qdx',#6,'OPS_TaskIdentity',$,(#217));
#219=IFCRELDEFINESBYPROPERTIES('0NCCZIisCoxsVdV_KD6xx1',#6,$,$,(#79),#218);
#220=IFCPROPERTYSINGLEVALUE('InternalTaskId',$,IFCTEXT('task-mula8267htgi2178'),$);
#221=IFCPROPERTYSET('0HePb$jtj6XX14y8hbzKN0',#6,'OPS_TaskIdentity',$,(#220));
#222=IFCRELDEFINESBYPROPERTIES('0gc$9ELSalOLKIghjTrerz',#6,$,$,(#81),#221);
#223=IFCPROPERTYSINGLEVALUE('InternalTaskId',$,IFCTEXT('task-mula8269v7s12179'),$);
#224=IFCPROPERTYSET('2sMGBCtWxZ$yXQolYIq5pC',#6,'OPS_TaskIdentity',$,(#223));
#225=IFCRELDEFINESBYPROPERTIES('1wQsfrF5GPO3hMthndZv9i',#6,$,$,(#83),#224);
#226=IFCPROPERTYSINGLEVALUE('InternalTaskId',$,IFCTEXT('task-mula826b2byv2180'),$);
#227=IFCPROPERTYSET('1L4$JelKXD4p$89SAbmifp',#6,'OPS_TaskIdentity',$,(#226));
#228=IFCRELDEFINESBYPROPERTIES('1lI26t_YGgtXfEDSAb9vt5',#6,$,$,(#85),#227);
#229=IFCPROPERTYSINGLEVALUE('InternalTaskId',$,IFCTEXT('task-mula826das6t2181'),$);
#230=IFCPROPERTYSET('0g8gfg71AxZwaobpQrXWZZ',#6,'OPS_TaskIdentity',$,(#229));
#231=IFCRELDEFINESBYPROPERTIES('0uQw2hWfWeuO1Cdq$7VwWU',#6,$,$,(#87),#230);
#232=IFCPROPERTYSINGLEVALUE('InternalTaskId',$,IFCTEXT('task-mula826gp9pd2182'),$);
#233=IFCPROPERTYSET('0AyQ0yv51uQzAgnlcCjnjC',#6,'OPS_TaskIdentity',$,(#232));
#234=IFCRELDEFINESBYPROPERTIES('3CamuHHQoVIlTiLlzXmE1i',#6,$,$,(#89),#233);
#235=IFCPROPERTYSINGLEVALUE('InternalTaskId',$,IFCTEXT('task-mula826iyw312183'),$);
#236=IFCPROPERTYSET('1nSU8tUSawiaVefpdGnUUJ',#6,'OPS_TaskIdentity',$,(#235));
#237=IFCRELDEFINESBYPROPERTIES('1pQCKkWXjVKZTjax4VrCrW',#6,$,$,(#91),#236);
#238=IFCPROPERTYSINGLEVALUE('InternalTaskId',$,IFCTEXT('task-mula826n2hpg2184'),$);
#239=IFCPROPERTYSET('10clPcBQwvVs5riaiNQ0AK',#6,'OPS_TaskIdentity',$,(#238));
#240=IFCRELDEFINESBYPROPERTIES('2tBriU$ervNfZMsxp7SQx5',#6,$,$,(#93),#239);
#241=IFCPROPERTYSINGLEVALUE('InternalTaskId',$,IFCTEXT('task-mula826s3fce2185'),$);
#242=IFCPROPERTYSET('0fgfshyrK2EVmEiOmFS1EA',#6,'OPS_TaskIdentity',$,(#241));
#243=IFCRELDEFINESBYPROPERTIES('17enLZ0dK1N7iW3$p5JQsp',#6,$,$,(#95),#242);
#244=IFCPROPERTYSINGLEVALUE('InternalTaskId',$,IFCTEXT('task-mula826vaz2m2186'),$);
#245=IFCPROPERTYSET('3dVm0rsuJh3sV$_2dl_swo',#6,'OPS_TaskIdentity',$,(#244));
#246=IFCRELDEFINESBYPROPERTIES('3vioDBM82D0ISNZ4Pa1amu',#6,$,$,(#97),#245);
#247=IFCPROPERTYSINGLEVALUE('InternalTaskId',$,IFCTEXT('task-mula826xndcz2187'),$);
#248=IFCPROPERTYSET('0hppwsvKd4jYwT0AbOf_sa',#6,'OPS_TaskIdentity',$,(#247));
#249=IFCRELDEFINESBYPROPERTIES('2FnDm1TSS3dsktFwHBjjVJ',#6,$,$,(#99),#248);
#250=IFCPROPERTYSINGLEVALUE('InternalTaskId',$,IFCTEXT('task-mula8270zsjl2188'),$);
#251=IFCPROPERTYSET('3pcq3T8pd4I3LgqU19X$jg',#6,'OPS_TaskIdentity',$,(#250));
#252=IFCRELDEFINESBYPROPERTIES('2S8Rto_HupBTnKdYk0gTiG',#6,$,$,(#101),#251);
#253=IFCPROPERTYSINGLEVALUE('InternalTaskId',$,IFCTEXT('task-mula827345n42189'),$);
#254=IFCPROPERTYSET('3SWYbyLfV7N8K5TGSQpHTv',#6,'OPS_TaskIdentity',$,(#253));
#255=IFCRELDEFINESBYPROPERTIES('1lEw74MrW2ueoXFaAn$_Xd',#6,$,$,(#103),#254);
#256=IFCPROPERTYSINGLEVALUE('InternalTaskId',$,IFCTEXT('task-mula8274a1li2190'),$);
#257=IFCPROPERTYSET('1JgTjxarsAHIz6amw20PDi',#6,'OPS_TaskIdentity',$,(#256));
#258=IFCRELDEFINESBYPROPERTIES('0eSE9UdogemGDIQ64T5ff$',#6,$,$,(#105),#257);
#259=IFCPROPERTYSINGLEVALUE('InternalTaskId',$,IFCTEXT('task-mula82762vjr2191'),$);
#260=IFCPROPERTYSET('3GA7qiHniGGGByYUA8YeUo',#6,'OPS_TaskIdentity',$,(#259));
#261=IFCRELDEFINESBYPROPERTIES('0OCgToDT9tFPBGuwL5dfe9',#6,$,$,(#107),#260);
#262=IFCPROPERTYSINGLEVALUE('InternalTaskId',$,IFCTEXT('task-mula82786vpw2192'),$);
#263=IFCPROPERTYSET('2fL$aQ6FDhKz_2ZTYQJjOy',#6,'OPS_TaskIdentity',$,(#262));
#264=IFCRELDEFINESBYPROPERTIES('3288NVE2Erkt483gTh1iJY',#6,$,$,(#109),#263);
#265=IFCPROPERTYSINGLEVALUE('InternalTaskId',$,IFCTEXT('task-mula827admir2193'),$);
#266=IFCPROPERTYSET('13ZjbGXh8Z1Qk2Lq1KiTlb',#6,'OPS_TaskIdentity',$,(#265));
#267=IFCRELDEFINESBYPROPERTIES('2zXEwqwQZnf8Z0A5wBwGqC',#6,$,$,(#111),#266);
#268=IFCPROPERTYSINGLEVALUE('MilestoneKind',$,IFCLABEL('START'),$);
#269=IFCPROPERTYSET('0a$Gab4BAOvmyqeKFySRT_',#6,'OPS_Milestone',$,(#268));
#270=IFCRELDEFINESBYPROPERTIES('3EXc70Mxo$wIk5HzaO3a0w',#6,$,$,(#49),#269);
#271=IFCPROPERTYSINGLEVALUE('MilestoneKind',$,IFCLABEL('FINISH'),$);
#272=IFCPROPERTYSET('3sjKgRkjlCT2zYPi24RsSh',#6,'OPS_Milestone',$,(#271));
#273=IFCRELDEFINESBYPROPERTIES('3b7nDdei0ZjtdLzxUF_86p',#6,$,$,(#69),#272);
#274=IFCPROPERTYSINGLEVALUE('MilestoneKind',$,IFCLABEL('FINISH'),$);
#275=IFCPROPERTYSET('3tt3rtQ8f$gTkctMZXEPgK',#6,'OPS_Milestone',$,(#274));
#276=IFCRELDEFINESBYPROPERTIES('2Jbd6xvzksDwqFelFBtbql',#6,$,$,(#81),#275);
#277=IFCPROPERTYSINGLEVALUE('MilestoneKind',$,IFCLABEL('FINISH'),$);
#278=IFCPROPERTYSINGLEVALUE('Mandatory',$,IFCBOOLEAN(.T.),$);
#279=IFCPROPERTYSET('2TSb5FtfVb38EmNXr4qaQK',#6,'OPS_Milestone',$,(#277,#278));
#280=IFCRELDEFINESBYPROPERTIES('0dWUp0P370a8OycCpwV1kV',#6,$,$,(#111),#279);
ENDSEC;
END-ISO-10303-21;
