ISO-10303-21;
HEADER;
FILE_DESCRIPTION(('ViewDefinition [SchedulingView]'),'2;1');
FILE_NAME('Offshore Wind Turbine Foundation.ifc','2026-09-28T13:27:22',('Freek de Wind'),('North Sea Energy BV'),'Open Planner Studio 0.1','Open Planner Studio','');
FILE_SCHEMA(('IFC4X3'));
ENDSEC;
DATA;
#1=IFCPERSON($,'Freek de Wind',$,$,$,$,$,$);
#2=IFCORGANIZATION($,'North Sea Energy BV',$,$,$);
#3=IFCPERSONANDORGANIZATION(#1,#2,$);
#4=IFCORGANIZATION($,'OpenAEC Foundation',$,$,$);
#5=IFCAPPLICATION(#4,'0.2','Open Planner Studio','OPS');
#6=IFCOWNERHISTORY(#3,#5,$,.NOCHANGE.,$,$,$,1790602042);
#7=IFCSIUNIT(*,.LENGTHUNIT.,$,.METRE.);
#8=IFCSIUNIT(*,.TIMEUNIT.,$,.SECOND.);
#9=IFCUNITASSIGNMENT((#7,#8));
#10=IFCCARTESIANPOINT((0.,0.,0.));
#11=IFCAXIS2PLACEMENT3D(#10,$,$);
#12=IFCGEOMETRICREPRESENTATIONCONTEXT($,'Plan',3,1.0E-05,#11,$);
#13=IFCPROJECT('3NIeNMAZmNFrAx8ik4p$Sz',#6,'Offshore Wind Turbine Foundation','Monopile foundation for a 15 MW offshore wind turbine',$,$,$,(#12),#9);
#14=IFCTIMEPERIOD('07:00:00','16:00:00');
#15=IFCRECURRENCEPATTERN(.WEEKLY.,$,(1,2,3,4,5,6),$,$,$,$,(#14));
#16=IFCWORKTIME('Standard work week',.PREDICTED.,$,#15,$,$);
#17=IFCWORKTIME('New Year''s Day',.PREDICTED.,$,$,'2027-01-01','2027-01-01');
#18=IFCWORKTIME('Good Friday',.PREDICTED.,$,$,'2027-03-26','2027-03-26');
#19=IFCWORKTIME('Easter',.PREDICTED.,$,$,'2027-03-28','2027-03-29');
#20=IFCWORKTIME('King''s Day',.PREDICTED.,$,$,'2027-04-27','2027-04-27');
#21=IFCWORKTIME('Liberation Day',.PREDICTED.,$,$,'2027-05-05','2027-05-05');
#22=IFCWORKTIME('Ascension Day',.PREDICTED.,$,$,'2027-05-06','2027-05-06');
#23=IFCWORKTIME('Whitsun',.PREDICTED.,$,$,'2027-05-16','2027-05-17');
#24=IFCWORKTIME('Christmas',.PREDICTED.,$,$,'2027-12-25','2027-12-26');
#25=IFCWORKTIME('Construction holiday (northern region)',.PREDICTED.,$,$,'2027-07-26','2027-08-15');
#26=IFCWORKTIME('New Year''s Day',.PREDICTED.,$,$,'2028-01-01','2028-01-01');
#27=IFCWORKTIME('Good Friday',.PREDICTED.,$,$,'2028-04-14','2028-04-14');
#28=IFCWORKTIME('Easter',.PREDICTED.,$,$,'2028-04-16','2028-04-17');
#29=IFCWORKTIME('King''s Day',.PREDICTED.,$,$,'2028-04-27','2028-04-27');
#30=IFCWORKTIME('Liberation Day',.PREDICTED.,$,$,'2028-05-05','2028-05-05');
#31=IFCWORKTIME('Ascension Day',.PREDICTED.,$,$,'2028-05-25','2028-05-25');
#32=IFCWORKTIME('Whitsun',.PREDICTED.,$,$,'2028-06-04','2028-06-05');
#33=IFCWORKTIME('Christmas',.PREDICTED.,$,$,'2028-12-25','2028-12-26');
#34=IFCWORKTIME('Construction holiday (northern region)',.PREDICTED.,$,$,'2028-07-24','2028-08-13');
#35=IFCWORKCALENDAR('1lwdKwNl3F9l6IF$SPTHzm',#6,'Infrastructure calendar Mon-Sat','Infrastructure/hydraulic works: Mon-Sat',$,(#16),(#17,#18,#19,#20,#21,#22,#23,#24,#25,#26,#27,#28,#29,#30,#31,#32,#33,#34),.FIRSTSHIFT.);
#36=IFCPROPERTYSINGLEVALUE('HoursPerDay',$,IFCREAL(8),$);
#37=IFCPROPERTYSET('1pJfZJG2DinOg2JvqxFaTx',#6,'OPS_Calendar',$,(#36));
#38=IFCRELDEFINESBYPROPERTIES('3i8VWyTUx0yJRSaNynV4MX',#6,$,$,(#35),#37);
#39=IFCWORKPLAN('1Qyh9qqyW6XBbCvYicZDO8',#6,'Offshore Wind Turbine Foundation','Monopile foundation for a 15 MW offshore wind turbine',$,$,'2026-09-28T13:27:22',$,$,$,$,$,'2027-03-01T07:00:00','2027-03-12T07:00:00',.PLANNED.);
#40=IFCWORKSCHEDULE('3AY4SOLeXoE0aHPPrvoghF',#6,'Construction schedule v1.0',$,$,$,'2026-09-28T13:27:22',$,$,$,$,$,'2027-03-01T07:00:00','2027-03-12T07:00:00',.PLANNED.);
#41=IFCRELAGGREGATES('2NSk8zh4OSwtBpCy$YIshI',#6,$,$,#39,(#40));
#42=IFCTASKTIME('1. Fabrication & preparation Time',.PREDICTED.,$,.WORKTIME.,'P0Y0M34D','2027-03-01T07:00:00','2027-03-05T07:00:00','2027-03-01T07:00:00','2027-04-10T07:00:00','2027-03-01T07:00:00','2027-05-19T07:00:00','P0Y0M0D','P0Y0M0D',.T.,$,$,$,$,$,0.00);
#43=IFCTASK('07R99zDNlmGBYbeT4sSgJn',#6,'1. Fabrication & preparation',$,$,'1',$,$,$,.F.,$,#42,.CONSTRUCTION.);
#44=IFCTASKTIME('Monopile fabrication inspection Time',.PREDICTED.,$,.WORKTIME.,'P0Y0M5D','2027-03-01T07:00:00','2027-03-05T07:00:00','2027-03-01T07:00:00','2027-03-05T07:00:00','2027-03-01T07:00:00','2027-03-05T07:00:00','P0Y0M0D','P0Y0M0D',.T.,$,$,$,$,$,0.00);
#45=IFCTASK('3HKVmXLAWYPpuAeSoM05hW',#6,'Monopile fabrication inspection',$,$,'1.1',$,$,$,.F.,$,#44,.ATTENDANCE.);
#46=IFCTASKTIME('Transition piece fabrication Time',.PREDICTED.,$,.WORKTIME.,'P0Y0M10D','2027-03-01T07:00:00','2027-03-12T07:00:00','2027-03-06T07:00:00','2027-03-17T07:00:00','2027-04-12T07:00:00','2027-04-22T07:00:00','P0Y0M0D','P0Y0M29D',.F.,$,$,$,$,$,0.00);
#47=IFCTASK('2j5OIhl_Vp9S145EFGtUpE',#6,'Transition piece fabrication',$,$,'1.2',$,$,$,.F.,$,#46,.CONSTRUCTION.);
#48=IFCTASKTIME('Mobilise installation vessel Time',.PREDICTED.,$,.WORKTIME.,'P0Y0M8D','2027-03-01T07:00:00','2027-03-10T07:00:00','2027-03-18T07:00:00','2027-03-27T07:00:00','2027-04-23T07:00:00','2027-05-03T07:00:00','P0Y0M0D','P0Y0M29D',.F.,$,$,$,$,$,0.00);
#49=IFCTASK('13zjJiKwAH5laT6Kl9yBDb',#6,'Mobilise installation vessel',$,$,'1.3',$,$,$,.F.,$,#48,.LOGISTIC.);
#50=IFCTASKTIME('Seabed survey Time',.PREDICTED.,$,.WORKTIME.,'P0Y0M5D','2027-03-01T07:00:00','2027-03-05T07:00:00','2027-03-30T07:00:00','2027-04-03T07:00:00','2027-05-04T07:00:00','2027-05-11T07:00:00','P0Y0M0D','P0Y0M29D',.F.,$,$,$,$,$,0.00);
#51=IFCTASK('2fpYBrH5C9BJtYvM8r5Hhz',#6,'Seabed survey',$,$,'1.4',$,$,$,.F.,$,#50,.ATTENDANCE.);
#52=IFCTASKTIME('Transport monopile Time',.PREDICTED.,$,.WORKTIME.,'P0Y0M5D','2027-03-01T07:00:00','2027-03-05T07:00:00','2027-04-05T07:00:00','2027-04-09T07:00:00','2027-05-12T07:00:00','2027-05-18T07:00:00','P0Y0M0D','P0Y0M29D',.F.,$,$,$,$,$,0.00);
#53=IFCTASK('1HBMycON6pHMZjorlzT6rF',#6,'Transport monopile',$,$,'1.5',$,$,$,.F.,$,#52,.LOGISTIC.);
#54=IFCTASKTIME('Start of offshore works Time',.PREDICTED.,$,.WORKTIME.,'P0Y0M0D','2027-03-01T07:00:00','2027-03-01T07:00:00','2027-04-10T07:00:00','2027-04-10T07:00:00','2027-05-19T07:00:00','2027-05-19T07:00:00','P0Y0M29D','P0Y0M29D',.F.,$,$,$,$,$,0.00);
#55=IFCTASK('3Ubfca2yR7cgw_Vze4KLw8',#6,'Start of offshore works',$,$,'1.6',$,$,$,.T.,$,#54,.CONSTRUCTION.);
#56=IFCTASKTIME('2. Seabed preparation Time',.PREDICTED.,$,.WORKTIME.,'P0Y0M11D','2027-03-01T07:00:00','2027-03-05T07:00:00','2027-03-20T07:00:00','2027-04-03T07:00:00','2027-03-20T07:00:00','2027-04-09T07:00:00','P0Y0M0D','P0Y0M0D',.T.,$,$,$,$,$,0.00);
#57=IFCTASK('00xAFgOzvOI8it8fW$tLde',#6,'2. Seabed preparation',$,$,'2',$,$,$,.F.,$,#56,.CONSTRUCTION.);
#58=IFCTASKTIME('Level seabed Time',.PREDICTED.,$,.WORKTIME.,'P0Y0M5D','2027-03-01T07:00:00','2027-03-05T07:00:00','2027-03-20T07:00:00','2027-03-25T07:00:00','2027-03-20T07:00:00','2027-03-25T07:00:00','P0Y0M0D','P0Y0M0D',.T.,$,$,$,$,$,0.00);
#59=IFCTASK('3cmHn1vH2q3GcoOhZHdIua',#6,'Level seabed',$,$,'2.1',$,$,$,.F.,$,#58,.CONSTRUCTION.);
#60=IFCTASKTIME('Scour protection, layer 1 Time',.PREDICTED.,$,.WORKTIME.,'P0Y0M3D','2027-03-01T07:00:00','2027-03-03T07:00:00','2027-03-27T07:00:00','2027-03-31T07:00:00','2027-04-03T07:00:00','2027-04-06T07:00:00','P0Y0M0D','P0Y0M5D',.F.,$,$,$,$,$,0.00);
#61=IFCTASK('0zLMp_bncCDtmLt6x4zjzT',#6,'Scour protection, layer 1',$,$,'2.2',$,$,$,.F.,$,#60,.CONSTRUCTION.);
#62=IFCTASKTIME('Weather window monitoring Time',.PREDICTED.,$,.WORKTIME.,'P0Y0M3D','2027-03-01T07:00:00','2027-03-03T07:00:00','2027-04-01T07:00:00','2027-04-03T07:00:00','2027-04-07T07:00:00','2027-04-09T07:00:00','P0Y0M5D','P0Y0M5D',.F.,$,$,$,$,$,0.00);
#63=IFCTASK('0Ne_0feJFvHTlpBxTwcdwk',#6,'Weather window monitoring',$,$,'2.3',$,$,$,.F.,$,#62,.ATTENDANCE.);
#64=IFCTASKTIME('3. Monopile installation Time',.PREDICTED.,$,.WORKTIME.,'P0Y0M16D','2027-03-01T07:00:00','2027-03-05T07:00:00','2027-03-23T07:00:00','2027-04-12T07:00:00','2027-03-23T07:00:00','2027-04-12T07:00:00','P0Y0M0D','P0Y0M0D',.T.,$,$,$,$,$,0.00);
#65=IFCTASK('1e6mn2mkIjh4yinYHCEI$G',#6,'3. Monopile installation',$,$,'3',$,$,$,.F.,$,#64,.INSTALLATION.);
#66=IFCTASKTIME('Upend monopile Time',.PREDICTED.,$,.WORKTIME.,'P0Y0M2D','2027-03-01T07:00:00','2027-03-02T07:00:00','2027-03-23T07:00:00','2027-03-24T07:00:00','2027-03-23T07:00:00','2027-03-24T07:00:00','P0Y0M0D','P0Y0M0D',.T.,$,$,$,$,$,0.00);
#67=IFCTASK('2aGvNRaNgAAFJvS6wSJaHu',#6,'Upend monopile',$,$,'3.1',$,$,$,.F.,$,#66,.INSTALLATION.);
#68=IFCTASKTIME('Position monopile Time',.PREDICTED.,$,.WORKTIME.,'P0Y0M2D','2027-03-01T07:00:00','2027-03-02T07:00:00','2027-03-25T07:00:00','2027-03-27T07:00:00','2027-03-25T07:00:00','2027-03-27T07:00:00','P0Y0M0D','P0Y0M0D',.T.,$,$,$,$,$,0.00);
#69=IFCTASK('1aqKeZf2CBnHzn44C8NYN0',#6,'Position monopile',$,$,'3.2',$,$,$,.F.,$,#68,.INSTALLATION.);
#70=IFCTASKTIME('Drive monopile Time',.PREDICTED.,$,.WORKTIME.,'P0Y0M5D','2027-03-01T07:00:00','2027-03-05T07:00:00','2027-03-30T07:00:00','2027-04-03T07:00:00','2027-03-30T07:00:00','2027-04-03T07:00:00','P0Y0M0D','P0Y0M0D',.T.,$,$,$,$,$,0.00);
#71=IFCTASK('1LsSIHrTZ$xrA8TS90EW0o',#6,'Drive monopile',$,$,'3.3',$,$,$,.F.,$,#70,.INSTALLATION.);
#72=IFCTASKTIME('Verticality check Time',.PREDICTED.,$,.WORKTIME.,'P0Y0M1D','2027-03-01T07:00:00','2027-03-01T07:00:00','2027-04-05T07:00:00','2027-04-05T07:00:00','2027-04-05T07:00:00','2027-04-05T07:00:00','P0Y0M0D','P0Y0M0D',.T.,$,$,$,$,$,0.00);
#73=IFCTASK('1bAgEK3eUSilIJaTf0KN1$',#6,'Verticality check',$,$,'3.4',$,$,$,.F.,$,#72,.ATTENDANCE.);
#74=IFCTASKTIME('Install transition piece Time',.PREDICTED.,$,.WORKTIME.,'P0Y0M3D','2027-03-01T07:00:00','2027-03-03T07:00:00','2027-04-06T07:00:00','2027-04-08T07:00:00','2027-04-06T07:00:00','2027-04-08T07:00:00','P0Y0M0D','P0Y0M0D',.T.,$,$,$,$,$,0.00);
#75=IFCTASK('3SRk6t57qZww9AUqgZvt46',#6,'Install transition piece',$,$,'3.5',$,$,$,.F.,$,#74,.INSTALLATION.);
#76=IFCTASKTIME('Grouting Time',.PREDICTED.,$,.WORKTIME.,'P0Y0M3D','2027-03-01T07:00:00','2027-03-03T07:00:00','2027-04-09T07:00:00','2027-04-12T07:00:00','2027-04-09T07:00:00','2027-04-12T07:00:00','P0Y0M0D','P0Y0M0D',.T.,$,$,$,$,$,0.00);
#77=IFCTASK('1yYXhnT7YmD0lzOLNaLwgi',#6,'Grouting',$,$,'3.6',$,$,$,.F.,$,#76,.INSTALLATION.);
#78=IFCTASKTIME('4. Finishing Time',.PREDICTED.,$,.WORKTIME.,'P0Y0M17D','2027-03-01T07:00:00','2027-03-05T07:00:00','2027-04-09T07:00:00','2027-04-29T07:00:00','2027-04-09T07:00:00','2027-04-29T07:00:00','P0Y0M0D','P0Y0M0D',.T.,$,$,$,$,$,0.00);
#79=IFCTASK('2m$QUq2F2u4ZCbKMlPC1qX',#6,'4. Finishing',$,$,'4',$,$,$,.F.,$,#78,.CONSTRUCTION.);
#80=IFCTASKTIME('Scour protection, layer 2 Time',.PREDICTED.,$,.WORKTIME.,'P0Y0M3D','2027-03-01T07:00:00','2027-03-03T07:00:00','2027-04-09T07:00:00','2027-04-12T07:00:00','2027-04-09T07:00:00','2027-04-12T07:00:00','P0Y0M0D','P0Y0M0D',.T.,$,$,$,$,$,0.00);
#81=IFCTASK('3jNtTWrAxt2otdXSZlbVPi',#6,'Scour protection, layer 2',$,$,'4.1',$,$,$,.F.,$,#80,.CONSTRUCTION.);
#82=IFCTASKTIME('J-tube installation Time',.PREDICTED.,$,.WORKTIME.,'P0Y0M3D','2027-03-01T07:00:00','2027-03-03T07:00:00','2027-04-13T07:00:00','2027-04-15T07:00:00','2027-04-13T07:00:00','2027-04-15T07:00:00','P0Y0M0D','P0Y0M0D',.T.,$,$,$,$,$,0.00);
#83=IFCTASK('0WSsZRCLh2L7Z2sKYo__XH',#6,'J-tube installation',$,$,'4.2',$,$,$,.F.,$,#82,.INSTALLATION.);
#84=IFCTASKTIME('Platform and railing Time',.PREDICTED.,$,.WORKTIME.,'P0Y0M5D','2027-03-01T07:00:00','2027-03-05T07:00:00','2027-04-16T07:00:00','2027-04-21T07:00:00','2027-04-16T07:00:00','2027-04-21T07:00:00','P0Y0M0D','P0Y0M0D',.T.,$,$,$,$,$,0.00);
#85=IFCTASK('3ULG7BjyHGEgtRLKEi$mgC',#6,'Platform and railing',$,$,'4.3',$,$,$,.F.,$,#84,.INSTALLATION.);
#86=IFCTASKTIME('Cathodic protection Time',.PREDICTED.,$,.WORKTIME.,'P0Y0M3D','2027-03-01T07:00:00','2027-03-03T07:00:00','2027-04-22T07:00:00','2027-04-24T07:00:00','2027-04-22T07:00:00','2027-04-24T07:00:00','P0Y0M0D','P0Y0M0D',.T.,$,$,$,$,$,0.00);
#87=IFCTASK('362T9o3_MEBm4Ednm_7TCj',#6,'Cathodic protection',$,$,'4.4',$,$,$,.F.,$,#86,.INSTALLATION.);
#88=IFCTASKTIME('Install boat landing Time',.PREDICTED.,$,.WORKTIME.,'P0Y0M3D','2027-03-01T07:00:00','2027-03-03T07:00:00','2027-04-26T07:00:00','2027-04-29T07:00:00','2027-04-26T07:00:00','2027-04-29T07:00:00','P0Y0M0D','P0Y0M0D',.T.,$,$,$,$,$,0.00);
#89=IFCTASK('2veWeEvc53tDEHBxvbjqbH',#6,'Install boat landing',$,$,'4.5',$,$,$,.F.,$,#88,.INSTALLATION.);
#90=IFCTASKTIME('5. Cable & handover Time',.PREDICTED.,$,.WORKTIME.,'P0Y0M14D','2027-03-01T07:00:00','2027-03-05T07:00:00','2027-04-30T07:00:00','2027-05-19T07:00:00','2027-04-30T07:00:00','2027-05-19T07:00:00','P0Y0M0D','P0Y0M0D',.T.,$,$,$,$,$,0.00);
#91=IFCTASK('2umhNsJE_NJ966GbLHP7Ec',#6,'5. Cable & handover',$,$,'5',$,$,$,.F.,$,#90,.CONSTRUCTION.);
#92=IFCTASKTIME('Export cable pull-in Time',.PREDICTED.,$,.WORKTIME.,'P0Y0M5D','2027-03-01T07:00:00','2027-03-05T07:00:00','2027-04-30T07:00:00','2027-05-07T07:00:00','2027-04-30T07:00:00','2027-05-07T07:00:00','P0Y0M0D','P0Y0M0D',.T.,$,$,$,$,$,0.00);
#93=IFCTASK('3zopoWoLeR$j6kxVOqGM4w',#6,'Export cable pull-in',$,$,'5.1',$,$,$,.F.,$,#92,.INSTALLATION.);
#94=IFCTASKTIME('Cable termination Time',.PREDICTED.,$,.WORKTIME.,'P0Y0M3D','2027-03-01T07:00:00','2027-03-03T07:00:00','2027-05-08T07:00:00','2027-05-11T07:00:00','2027-05-08T07:00:00','2027-05-11T07:00:00','P0Y0M0D','P0Y0M0D',.T.,$,$,$,$,$,0.00);
#95=IFCTASK('2nvFJucws_jZOmgyNvDDe4',#6,'Cable termination',$,$,'5.2',$,$,$,.F.,$,#94,.INSTALLATION.);
#96=IFCTASKTIME('Inspection and survey Time',.PREDICTED.,$,.WORKTIME.,'P0Y0M3D','2027-03-01T07:00:00','2027-03-03T07:00:00','2027-05-12T07:00:00','2027-05-14T07:00:00','2027-05-12T07:00:00','2027-05-14T07:00:00','P0Y0M0D','P0Y0M0D',.T.,$,$,$,$,$,0.00);
#97=IFCTASK('3O$Dqh89YgsmBCHptk7u1s',#6,'Inspection and survey',$,$,'5.3',$,$,$,.F.,$,#96,.ATTENDANCE.);
#98=IFCTASKTIME('Demobilisation Time',.PREDICTED.,$,.WORKTIME.,'P0Y0M3D','2027-03-01T07:00:00','2027-03-03T07:00:00','2027-05-15T07:00:00','2027-05-19T07:00:00','2027-05-15T07:00:00','2027-05-19T07:00:00','P0Y0M0D','P0Y0M0D',.T.,$,$,$,$,$,0.00);
#99=IFCTASK('0oiwpBLmjXUIbNa0fUMfdz',#6,'Demobilisation',$,$,'5.4',$,$,$,.F.,$,#98,.LOGISTIC.);
#100=IFCTASKTIME('Foundation complete Time',.PREDICTED.,$,.WORKTIME.,'P0Y0M0D','2027-03-01T07:00:00','2027-03-01T07:00:00','2027-05-19T07:00:00','2027-05-19T07:00:00','2027-05-19T07:00:00','2027-05-19T07:00:00','P0Y0M0D','P0Y0M0D',.T.,$,$,$,$,$,0.00);
#101=IFCTASK('2jSZxaV$HbZpWsGFLpOHpw',#6,'Foundation complete',$,$,'5.5',$,$,$,.T.,$,#100,.CONSTRUCTION.);
#102=IFCRELNESTS('2iANf90pBltSw3pqKpIIMS',#6,'WBS 1. Fabrication & preparation',$,#43,( #45,#47,#49,#51,#53,#55));
#103=IFCRELNESTS('2W4fYIZQufQ36pRayJ5pDu',#6,'WBS 2. Seabed preparation',$,#57,( #59,#61,#63));
#104=IFCRELNESTS('2NRnfvZ4z_VfVk4ROef3b8',#6,'WBS 3. Monopile installation',$,#65,( #67,#69,#71,#73,#75,#77));
#105=IFCRELNESTS('1oTKKKYR29M_iaXhY4hT$4',#6,'WBS 4. Finishing',$,#79,( #81,#83,#85,#87,#89));
#106=IFCRELNESTS('2XcZR_FVxY5cqZNoQljb1p',#6,'WBS 5. Cable & handover',$,#91,( #93,#95,#97,#99,#101));
#107=IFCRELNESTS('2WjzcTeIBkbVOYod2Zl5rY',#6,'WBS Hoofd',$,#40,(#43,#57,#65,#79,#91));
#108=IFCRELSEQUENCE('19H$EBQ2lbPEBQWdf9gVGl',#6,$,$,#45,#47,$,.FINISH_START.,$);
#109=IFCRELSEQUENCE('3DzaQAFksmZ3wsr2xtaVPr',#6,$,$,#47,#49,$,.FINISH_START.,$);
#110=IFCRELSEQUENCE('0CTU$SAZRzzEYpVg3p8zaZ',#6,$,$,#49,#51,$,.FINISH_START.,$);
#111=IFCRELSEQUENCE('0f2XBdVP$2hYM_TeukY9is',#6,$,$,#51,#53,$,.FINISH_START.,$);
#112=IFCRELSEQUENCE('3$2Hrg1Hd$bBHGKCDTrb6Q',#6,$,$,#53,#55,$,.FINISH_START.,$);
#113=IFCRELSEQUENCE('19$dpQgbjaXtjnzXvCo9gU',#6,$,$,#59,#61,$,.FINISH_START.,$);
#114=IFCRELSEQUENCE('0Y_Ohh0ja8Lm27NMHMf69M',#6,$,$,#61,#63,$,.FINISH_START.,$);
#115=IFCRELSEQUENCE('0kr4dTGAU61ToxIftg651p',#6,$,$,#67,#69,$,.FINISH_START.,$);
#116=IFCRELSEQUENCE('06QpJgfjzbawG1U3l15oSW',#6,$,$,#69,#71,$,.FINISH_START.,$);
#117=IFCRELSEQUENCE('0TN8Bz2J56KnX7f1nT2xGU',#6,$,$,#71,#73,$,.FINISH_START.,$);
#118=IFCRELSEQUENCE('0BCSGiXAISB4fmkVQFAkmv',#6,$,$,#73,#75,$,.FINISH_START.,$);
#119=IFCRELSEQUENCE('1P75hm7lpwQ3ZiwQL2HAOi',#6,$,$,#75,#77,$,.FINISH_START.,$);
#120=IFCRELSEQUENCE('05RyXRM97S8K4F6RUj0002',#6,$,$,#81,#83,$,.FINISH_START.,$);
#121=IFCRELSEQUENCE('04cIOkzjYgdQUXl3S7PL$c',#6,$,$,#83,#85,$,.FINISH_START.,$);
#122=IFCRELSEQUENCE('0AeQ1aQwJHK5AtAQSa4Vfr',#6,$,$,#85,#87,$,.FINISH_START.,$);
#123=IFCRELSEQUENCE('03lz3fqxcYOYQjJKY$7qWD',#6,$,$,#87,#89,$,.FINISH_START.,$);
#124=IFCRELSEQUENCE('395gEwcpRCsg2rypCUlGV6',#6,$,$,#93,#95,$,.FINISH_START.,$);
#125=IFCRELSEQUENCE('3F0237xT1vgy6vSggsNcQU',#6,$,$,#95,#97,$,.FINISH_START.,$);
#126=IFCRELSEQUENCE('1ZZphpkO5EH5BRBhp0$pwT',#6,$,$,#97,#99,$,.FINISH_START.,$);
#127=IFCRELSEQUENCE('3uCAtP2qX$MsKgiolq5UdE',#6,$,$,#99,#101,$,.FINISH_START.,$);
#128=IFCLAGTIME('Lag',.PREDICTED.,$,IFCDURATION('P17D'),.WORKTIME.);
#129=IFCRELSEQUENCE('3h199WCYAWK$ZR4ssTaEGr',#6,$,$,#45,#59,#128,.START_START.,$);
#130=IFCLAGTIME('Lag',.PREDICTED.,$,IFCRATIOMEASURE(0.4),.WORKTIME.);
#131=IFCRELSEQUENCE('0sKBpWn3C$a13z41XhZXQd',#6,$,$,#59,#67,#130,.START_START.,$);
#132=IFCLAGTIME('Lag',.PREDICTED.,$,IFCDURATION('P2D'),.WORKTIME.);
#133=IFCRELSEQUENCE('0UAwO6FNXueEwH1u87bGtv',#6,$,$,#63,#77,#132,.FINISH_FINISH.,$);
#134=IFCLAGTIME('Lag',.PREDICTED.,$,IFCDURATION('-P3D'),.WORKTIME.);
#135=IFCRELSEQUENCE('2QYh1fVw94s8OadN9Ygh9V',#6,$,$,#77,#81,#134,.FINISH_START.,$);
#136=IFCRELSEQUENCE('2NyN8U2G$hwZ3ws9hZ1WNI',#6,$,$,#89,#93,$,.FINISH_START.,$);
#137=IFCCONSTRUCTIONEQUIPMENTRESOURCE('2A2Rt90ubQm9gm56lZ_rzi',#6,'Jack-up installation vessel','Jack-up installation vessel, chartered by the day (order of EUR 120,000/day over an 8-hour shift)',$,$,$,$,.USERDEFINED.);
#138=IFCCONSTRUCTIONEQUIPMENTRESOURCE('3dCYeE3WLApmMzXpl$aK4X',#6,'Cable-lay vessel','Cable-lay vessel for the export cable pull-in (order of EUR 80,000/day)',$,$,$,$,.USERDEFINED.);
#139=IFCCONSTRUCTIONEQUIPMENTRESOURCE('2qY2lTiyQ2_mLQnM71LlMy',#6,'Fall-pipe vessel','Fall-pipe vessel for seabed levelling and scour protection (order of EUR 60,000/day)',$,$,$,$,.USERDEFINED.);
#140=IFCCONSTRUCTIONEQUIPMENTRESOURCE('0VkvjUbF$CG1x0Qm_XYvP8',#6,'Transport barge','Feeder barge with tugs, bringing the monopile out from the fabrication yard',$,$,$,$,.USERDEFINED.);
#141=IFCLABORRESOURCE('1l6xwsDFUCzp3BdjJoFogT',#6,'Offshore installation crew','Offshore crew including offshore allowance; certified for work at sea',$,$,$,$,.USERDEFINED.);
#142=IFCSUBCONTRACTRESOURCE('1DVS5g_GpBkPnW2838ut8T',#6,'Survey contractor','Geophysical survey and as-built inspection',$,$,$,$,.USERDEFINED.);
#143=IFCCONSTRUCTIONMATERIALRESOURCE('0XpN3Nlga8Kl4MdicDRJPo',#6,'Grout',$,$,$,$,$,.USERDEFINED.);
#144=IFCPROPERTYSINGLEVALUE('CostPerHour',$,IFCMONETARYMEASURE(15000),$);
#145=IFCPROPERTYSINGLEVALUE('Color',$,IFCTEXT('#1E293B'),$);
#146=IFCPROPERTYSET('2BSyxD_FmivtvpHZPn6U1X',#6,'OPS_Resource',$,(#144,#145));
#147=IFCRELDEFINESBYPROPERTIES('1hMLOVD8ZlDxz5tvwuIzdh',#6,$,$,(#137),#146);
#148=IFCPROPERTYSINGLEVALUE('CostPerHour',$,IFCMONETARYMEASURE(10000),$);
#149=IFCPROPERTYSINGLEVALUE('Color',$,IFCTEXT('#B91C1C'),$);
#150=IFCPROPERTYSET('3AqCqG$VQloNdZBeRkRD1p',#6,'OPS_Resource',$,(#148,#149));
#151=IFCRELDEFINESBYPROPERTIES('3PLXteqDp7XkiD0FQ6Nh6e',#6,$,$,(#138),#150);
#152=IFCPROPERTYSINGLEVALUE('CostPerHour',$,IFCMONETARYMEASURE(7500),$);
#153=IFCPROPERTYSINGLEVALUE('Color',$,IFCTEXT('#DB2777'),$);
#154=IFCPROPERTYSET('1EQwDptN1z1gIM_esfwMjj',#6,'OPS_Resource',$,(#152,#153));
#155=IFCRELDEFINESBYPROPERTIES('30e7S5hBPDCBHywIeE7loL',#6,$,$,(#139),#154);
#156=IFCPROPERTYSINGLEVALUE('CostPerHour',$,IFCMONETARYMEASURE(3000),$);
#157=IFCPROPERTYSINGLEVALUE('Color',$,IFCTEXT('#C2410C'),$);
#158=IFCPROPERTYSET('3ifo4AWfdc2i9fozHxU6Il',#6,'OPS_Resource',$,(#156,#157));
#159=IFCRELDEFINESBYPROPERTIES('1GbfXRruozuERx48ajJyH8',#6,$,$,(#140),#158);
#160=IFCPROPERTYSINGLEVALUE('MaxUnits',$,IFCREAL(12),$);
#161=IFCPROPERTYSINGLEVALUE('CostPerHour',$,IFCMONETARYMEASURE(95),$);
#162=IFCPROPERTYSINGLEVALUE('Color',$,IFCTEXT('#6366F1'),$);
#163=IFCPROPERTYSET('3V7WR0jB2aMNnzyjcEVymr',#6,'OPS_Resource',$,(#160,#161,#162));
#164=IFCRELDEFINESBYPROPERTIES('0S7WbgTiF16pPcNVvNWtdi',#6,$,$,(#141),#163);
#165=IFCPROPERTYSINGLEVALUE('MaxUnits',$,IFCREAL(2),$);
#166=IFCPROPERTYSINGLEVALUE('CostPerHour',$,IFCMONETARYMEASURE(130),$);
#167=IFCPROPERTYSINGLEVALUE('Color',$,IFCTEXT('#0D9488'),$);
#168=IFCPROPERTYSET('0RCC4lBGT8xMj_I6wLplzF',#6,'OPS_Resource',$,(#165,#166,#167));
#169=IFCRELDEFINESBYPROPERTIES('3qdnLkt_r5tYqnQyeDEbtu',#6,$,$,(#142),#168);
#170=IFCPROPERTYSINGLEVALUE('MaxUnits',$,IFCREAL(999),$);
#171=IFCPROPERTYSINGLEVALUE('UnitOfMeasure',$,IFCLABEL('m\X2\00B3\X0\'),$);
#172=IFCPROPERTYSINGLEVALUE('Color',$,IFCTEXT('#D97706'),$);
#173=IFCPROPERTYSET('24egZku6dQhUAan4Tk3dF2',#6,'OPS_Resource',$,(#170,#171,#172));
#174=IFCRELDEFINESBYPROPERTIES('1ee20K8$KHLpd4Ds8xnOtO',#6,$,$,(#143),#173);
#175=IFCRELASSIGNSTOPROCESS('2KhcCmZJFwUYwhYU8MLl86',#6,$,$,(#142),$,#45,$);
#176=IFCRELASSIGNSTOPROCESS('3HSaOjDgzp1ZruhzoRToc2',#6,$,$,(#141),$,#49,$);
#177=IFCRELASSIGNSTOPROCESS('055aQQD4S4CFX0V$9VYu2L',#6,$,$,(#142),$,#51,$);
#178=IFCRELASSIGNSTOPROCESS('3pT5Lq3BEX8UQMnk_1pf04',#6,$,$,(#140),$,#53,$);
#179=IFCRELASSIGNSTOPROCESS('05UvloxxV$03LqMtYKEPoE',#6,$,$,(#139),$,#59,$);
#180=IFCRELASSIGNSTOPROCESS('1qvk$$l9WXca7x3TYsvZBd',#6,$,$,(#139),$,#61,$);
#181=IFCRELASSIGNSTOPROCESS('0SfVwLPV5fhj3tb6mO$k8C',#6,$,$,(#137,#141),$,#67,$);
#182=IFCRELASSIGNSTOPROCESS('2bzqdNvEF3jNxHb8WESon2',#6,$,$,(#137,#141),$,#69,$);
#183=IFCRELASSIGNSTOPROCESS('0Du2Auxa$_Ld0cyVr48mx4',#6,$,$,(#137,#141),$,#71,$);
#184=IFCRELASSIGNSTOPROCESS('1PNyGeWTuzzwihiDRJN6gf',#6,$,$,(#142),$,#73,$);
#185=IFCRELASSIGNSTOPROCESS('3MRATlXIRVxTIP$Wscz28s',#6,$,$,(#137,#141),$,#75,$);
#186=IFCRELASSIGNSTOPROCESS('3zNUHPm4wuvI4evwASvA2j',#6,$,$,(#141,#143),$,#77,$);
#187=IFCRELASSIGNSTOPROCESS('1eNOmimcKW7eQ5W0EGLPfy',#6,$,$,(#139),$,#81,$);
#188=IFCRELASSIGNSTOPROCESS('3hFPen2b56S85SOls6d4UX',#6,$,$,(#141),$,#83,$);
#189=IFCRELASSIGNSTOPROCESS('38QStHSF1ffYfpCn8rR_0r',#6,$,$,(#141),$,#85,$);
#190=IFCRELASSIGNSTOPROCESS('38wOQC$FV_BG1dShtiMdub',#6,$,$,(#141),$,#87,$);
#191=IFCRELASSIGNSTOPROCESS('0hFhRM3l$wREu5QAPewHDI',#6,$,$,(#141),$,#89,$);
#192=IFCRELASSIGNSTOPROCESS('3NU31vuIy89NxBCr6ZIpuV',#6,$,$,(#138,#141),$,#93,$);
#193=IFCRELASSIGNSTOPROCESS('1XxQVkW45OMDEn3nsrhM_y',#6,$,$,(#141),$,#95,$);
#194=IFCRELASSIGNSTOPROCESS('0We27yMfGy6H3i1cefW7Nu',#6,$,$,(#142),$,#97,$);
#195=IFCRELASSIGNSTOPROCESS('1eDlaGQT0ZP0JtZn1ZOUSu',#6,$,$,(#141),$,#99,$);
#196=IFCPROPERTYSINGLEVALUE('1DVS5g_GpBkPnW2838ut8T#0',$,IFCTEXT('1|UNIFORM'),$);
#197=IFCPROPERTYSET('0ODiY1ozKcwxbJNcZIZ_ow',#6,'OPS_Assignments',$,(#196));
#198=IFCRELDEFINESBYPROPERTIES('25zn0QldmCG8R9Bqhww46S',#6,$,$,(#45),#197);
#199=IFCPROPERTYSINGLEVALUE('1l6xwsDFUCzp3BdjJoFogT#0',$,IFCTEXT('4|UNIFORM'),$);
#200=IFCPROPERTYSET('2$U2DbTaiX3r4QW2j$DEEc',#6,'OPS_Assignments',$,(#199));
#201=IFCRELDEFINESBYPROPERTIES('20rqp$3vpVN0FDLjlYMZUH',#6,$,$,(#49),#200);
#202=IFCPROPERTYSINGLEVALUE('1DVS5g_GpBkPnW2838ut8T#0',$,IFCTEXT('2|UNIFORM'),$);
#203=IFCPROPERTYSET('0iNjcgJC8kul2hu27ON9CP',#6,'OPS_Assignments',$,(#202));
#204=IFCRELDEFINESBYPROPERTIES('1j7WzF$RBZzaExLlmTMrTO',#6,$,$,(#51),#203);
#205=IFCPROPERTYSINGLEVALUE('0VkvjUbF$CG1x0Qm_XYvP8#0',$,IFCTEXT('1|UNIFORM'),$);
#206=IFCPROPERTYSET('1_Wlk7bhXy2rSEZCpYQw3w',#6,'OPS_Assignments',$,(#205));
#207=IFCRELDEFINESBYPROPERTIES('1rjYHgdKcwuHxN8cV4fJFD',#6,$,$,(#53),#206);
#208=IFCPROPERTYSINGLEVALUE('2qY2lTiyQ2_mLQnM71LlMy#0',$,IFCTEXT('1|UNIFORM'),$);
#209=IFCPROPERTYSET('2AOdDyGdoDPegZI1uXKDCR',#6,'OPS_Assignments',$,(#208));
#210=IFCRELDEFINESBYPROPERTIES('0YbT0uuDkoz6b_PEVHNYdc',#6,$,$,(#59),#209);
#211=IFCPROPERTYSINGLEVALUE('2qY2lTiyQ2_mLQnM71LlMy#0',$,IFCTEXT('1|UNIFORM'),$);
#212=IFCPROPERTYSET('19OGiSMlj3o3$kHzkYGpnA',#6,'OPS_Assignments',$,(#211));
#213=IFCRELDEFINESBYPROPERTIES('21q3bLFgmMFASyVcmhAQcY',#6,$,$,(#61),#212);
#214=IFCPROPERTYSINGLEVALUE('2A2Rt90ubQm9gm56lZ_rzi#0',$,IFCTEXT('1|UNIFORM'),$);
#215=IFCPROPERTYSINGLEVALUE('1l6xwsDFUCzp3BdjJoFogT#1',$,IFCTEXT('8|UNIFORM'),$);
#216=IFCPROPERTYSET('2I808itGFSDcUuOLOduopp',#6,'OPS_Assignments',$,(#214,#215));
#217=IFCRELDEFINESBYPROPERTIES('0KHkZIWXxvo$S3LaOA_xVk',#6,$,$,(#67),#216);
#218=IFCPROPERTYSINGLEVALUE('2A2Rt90ubQm9gm56lZ_rzi#0',$,IFCTEXT('1|UNIFORM'),$);
#219=IFCPROPERTYSINGLEVALUE('1l6xwsDFUCzp3BdjJoFogT#1',$,IFCTEXT('8|UNIFORM'),$);
#220=IFCPROPERTYSET('2D5AZpDvPizssOEMvDTfxl',#6,'OPS_Assignments',$,(#218,#219));
#221=IFCRELDEFINESBYPROPERTIES('3IP1kzR3BmKu2ZQfuCoekx',#6,$,$,(#69),#220);
#222=IFCPROPERTYSINGLEVALUE('2A2Rt90ubQm9gm56lZ_rzi#0',$,IFCTEXT('1|UNIFORM'),$);
#223=IFCPROPERTYSINGLEVALUE('1l6xwsDFUCzp3BdjJoFogT#1',$,IFCTEXT('8|UNIFORM'),$);
#224=IFCPROPERTYSET('38fwavOE2I_gH2MMEDip$6',#6,'OPS_Assignments',$,(#222,#223));
#225=IFCRELDEFINESBYPROPERTIES('04T6HxQB6sXbFVV0BE5HxK',#6,$,$,(#71),#224);
#226=IFCPROPERTYSINGLEVALUE('1DVS5g_GpBkPnW2838ut8T#0',$,IFCTEXT('1|UNIFORM'),$);
#227=IFCPROPERTYSET('1uoUG81DUUsSSWZGPOAjRp',#6,'OPS_Assignments',$,(#226));
#228=IFCRELDEFINESBYPROPERTIES('3TEauMibqPBp1izDwOkhbI',#6,$,$,(#73),#227);
#229=IFCPROPERTYSINGLEVALUE('2A2Rt90ubQm9gm56lZ_rzi#0',$,IFCTEXT('1|UNIFORM'),$);
#230=IFCPROPERTYSINGLEVALUE('1l6xwsDFUCzp3BdjJoFogT#1',$,IFCTEXT('8|UNIFORM'),$);
#231=IFCPROPERTYSET('2FKy40CP5P8RfPllMLHFBN',#6,'OPS_Assignments',$,(#229,#230));
#232=IFCRELDEFINESBYPROPERTIES('2ZOjktq_60tupsnmqXMkH3',#6,$,$,(#75),#231);
#233=IFCPROPERTYSINGLEVALUE('1l6xwsDFUCzp3BdjJoFogT#0',$,IFCTEXT('6|UNIFORM'),$);
#234=IFCPROPERTYSINGLEVALUE('0XpN3Nlga8Kl4MdicDRJPo#1',$,IFCTEXT('40|FRONT_LOADED'),$);
#235=IFCPROPERTYSET('2NS2d9TXwtlTTqC8$78ii$',#6,'OPS_Assignments',$,(#233,#234));
#236=IFCRELDEFINESBYPROPERTIES('1lg4bOTD0AfY3t5SmcFWCR',#6,$,$,(#77),#235);
#237=IFCPROPERTYSINGLEVALUE('2qY2lTiyQ2_mLQnM71LlMy#0',$,IFCTEXT('1|UNIFORM'),$);
#238=IFCPROPERTYSET('2zUICIzroQZvw_AF6fs1B$',#6,'OPS_Assignments',$,(#237));
#239=IFCRELDEFINESBYPROPERTIES('0NUoxaIGF6ladzS1OSq6P2',#6,$,$,(#81),#238);
#240=IFCPROPERTYSINGLEVALUE('1l6xwsDFUCzp3BdjJoFogT#0',$,IFCTEXT('4|UNIFORM'),$);
#241=IFCPROPERTYSET('0KDrgl7zxJdA62QiqLR_5v',#6,'OPS_Assignments',$,(#240));
#242=IFCRELDEFINESBYPROPERTIES('0_qsASiPBez7jhDJiLXjL8',#6,$,$,(#83),#241);
#243=IFCPROPERTYSINGLEVALUE('1l6xwsDFUCzp3BdjJoFogT#0',$,IFCTEXT('6|UNIFORM'),$);
#244=IFCPROPERTYSET('2EKNaXWn1ip5q1x98Sm9oq',#6,'OPS_Assignments',$,(#243));
#245=IFCRELDEFINESBYPROPERTIES('1JwrisXGEKAtUF_wb$eQFe',#6,$,$,(#85),#244);
#246=IFCPROPERTYSINGLEVALUE('1l6xwsDFUCzp3BdjJoFogT#0',$,IFCTEXT('4|UNIFORM'),$);
#247=IFCPROPERTYSET('321Tev2gys9$afA5lmqvRe',#6,'OPS_Assignments',$,(#246));
#248=IFCRELDEFINESBYPROPERTIES('2DXxZa6nVjwVWvxdViR3hq',#6,$,$,(#87),#247);
#249=IFCPROPERTYSINGLEVALUE('1l6xwsDFUCzp3BdjJoFogT#0',$,IFCTEXT('4|UNIFORM'),$);
#250=IFCPROPERTYSET('2kQh49v3imI_gXkiXkQtuo',#6,'OPS_Assignments',$,(#249));
#251=IFCRELDEFINESBYPROPERTIES('3CKyIAu0D3EJ5MTW_Fe1bt',#6,$,$,(#89),#250);
#252=IFCPROPERTYSINGLEVALUE('3dCYeE3WLApmMzXpl$aK4X#0',$,IFCTEXT('1|UNIFORM'),$);
#253=IFCPROPERTYSINGLEVALUE('1l6xwsDFUCzp3BdjJoFogT#1',$,IFCTEXT('6|UNIFORM'),$);
#254=IFCPROPERTYSET('1ME3In85F8CyqPBj1sV5Sc',#6,'OPS_Assignments',$,(#252,#253));
#255=IFCRELDEFINESBYPROPERTIES('37hFaWO1RCYsqKB1H26RfN',#6,$,$,(#93),#254);
#256=IFCPROPERTYSINGLEVALUE('1l6xwsDFUCzp3BdjJoFogT#0',$,IFCTEXT('4|UNIFORM'),$);
#257=IFCPROPERTYSET('0eb6DOcZGRPJQjDmme8aBr',#6,'OPS_Assignments',$,(#256));
#258=IFCRELDEFINESBYPROPERTIES('313HYXh4SaKgI2DjSSOZa8',#6,$,$,(#95),#257);
#259=IFCPROPERTYSINGLEVALUE('1DVS5g_GpBkPnW2838ut8T#0',$,IFCTEXT('2|UNIFORM'),$);
#260=IFCPROPERTYSET('18P8qNst55aRKfX60tuQXX',#6,'OPS_Assignments',$,(#259));
#261=IFCRELDEFINESBYPROPERTIES('2wV0XfX$9tNDunGtAxDTf3',#6,$,$,(#97),#260);
#262=IFCPROPERTYSINGLEVALUE('1l6xwsDFUCzp3BdjJoFogT#0',$,IFCTEXT('6|UNIFORM'),$);
#263=IFCPROPERTYSET('1zEM7$gE9LmPEcrYH3ewe0',#6,'OPS_Assignments',$,(#262));
#264=IFCRELDEFINESBYPROPERTIES('2AIz9J85dZ3Odq2TKWsc0$',#6,$,$,(#99),#263);
#265=IFCRELASSIGNSTOCONTROL('2OC0zqlQ8Y1i3i7gzWT0WK',#6,$,$,(#43,#45,#47,#49,#51,#53,#55,#57,#59,#61,#63,#65,#67,#69,#71,#73,#75,#77,#79,#81,#83,#85,#87,#89,#91,#93,#95,#97,#99,#101),$,#40);
#266=IFCPROPERTYSINGLEVALUE('InternalProjectId',$,IFCTEXT('proj-mula828x0sfx2222'),$);
#267=IFCPROPERTYSINGLEVALUE('wbsAutoNumber',$,IFCBOOLEAN(.T.),$);
#268=IFCPROPERTYSINGLEVALUE('DefaultTaskDurationUnit',$,IFCLABEL('days'),$);
#269=IFCPROPERTYSINGLEVALUE('ProjectStartDate',$,IFCDATE('2027-03-01'),$);
#270=IFCPROPERTYSINGLEVALUE('ProjectEndDate',$,$,$);
#271=IFCPROPERTYSINGLEVALUE('CreatedAt',$,IFCTEXT('2026-09-28T13:27:22.209Z'),$);
#272=IFCPROPERTYSINGLEVALUE('ModifiedAt',$,IFCTEXT('2026-09-28T13:27:22.210Z'),$);
#273=IFCPROPERTYSET('3FK8wMQw1wO5OuX7p2jraB',#6,'OPS_ProjectSettings',$,(#266,#267,#268,#269,#270,#271,#272));
#274=IFCRELDEFINESBYPROPERTIES('0LV3ZjvHqX$qu8Don5vs97',#6,$,$,(#13),#273);
#275=IFCPROPERTYSINGLEVALUE('InternalTaskId',$,IFCTEXT('task-mula829bk1z32230'),$);
#276=IFCPROPERTYSET('2oDdoecLy0hdhnMykCTHVm',#6,'OPS_TaskIdentity',$,(#275));
#277=IFCRELDEFINESBYPROPERTIES('0H_fN49aVJK2OcZ1rg0Qw4',#6,$,$,(#43),#276);
#278=IFCPROPERTYSINGLEVALUE('InternalTaskId',$,IFCTEXT('task-mula829cx4to2231'),$);
#279=IFCPROPERTYSET('2bdPRUV9qAwbnh5MbHdQfK',#6,'OPS_TaskIdentity',$,(#278));
#280=IFCRELDEFINESBYPROPERTIES('3UnuIaMKZvt24zgsbrTvU6',#6,$,$,(#45),#279);
#281=IFCPROPERTYSINGLEVALUE('InternalTaskId',$,IFCTEXT('task-mula829e70402232'),$);
#282=IFCPROPERTYSET('3y_IEGpv7rkNrWQ8keetzh',#6,'OPS_TaskIdentity',$,(#281));
#283=IFCRELDEFINESBYPROPERTIES('0FJytpas9MedVcnyRJkW4U',#6,$,$,(#47),#282);
#284=IFCPROPERTYSINGLEVALUE('InternalTaskId',$,IFCTEXT('task-mula829gmowx2233'),$);
#285=IFCPROPERTYSET('23RTLW3CeHSCLw94CxKOXS',#6,'OPS_TaskIdentity',$,(#284));
#286=IFCRELDEFINESBYPROPERTIES('36dg8X4cdgyUSOlVGaGZg8',#6,$,$,(#49),#285);
#287=IFCPROPERTYSINGLEVALUE('InternalTaskId',$,IFCTEXT('task-mula829hqqx32234'),$);
#288=IFCPROPERTYSET('2X_hKhDJKHGta1Edf3ZFDx',#6,'OPS_TaskIdentity',$,(#287));
#289=IFCRELDEFINESBYPROPERTIES('1aA09NdqH1gweiNK75gdCS',#6,$,$,(#51),#288);
#290=IFCPROPERTYSINGLEVALUE('InternalTaskId',$,IFCTEXT('task-mula829ioyw72235'),$);
#291=IFCPROPERTYSET('2RjKQbNsaw5udDubqhisH_',#6,'OPS_TaskIdentity',$,(#290));
#292=IFCRELDEFINESBYPROPERTIES('2n1fNaG6CRJ14HSq2OEHeZ',#6,$,$,(#53),#291);
#293=IFCPROPERTYSINGLEVALUE('InternalTaskId',$,IFCTEXT('task-mula829k5krb2236'),$);
#294=IFCPROPERTYSET('2Um7FQmbOsWnj4kVq6YBHe',#6,'OPS_TaskIdentity',$,(#293));
#295=IFCRELDEFINESBYPROPERTIES('2ksZIlcjZJYFu7eTRnp8g6',#6,$,$,(#55),#294);
#296=IFCPROPERTYSINGLEVALUE('InternalTaskId',$,IFCTEXT('task-mula829lpnjd2237'),$);
#297=IFCPROPERTYSET('37SZGsT$GBJ4nLpLuHcWp7',#6,'OPS_TaskIdentity',$,(#296));
#298=IFCRELDEFINESBYPROPERTIES('23GGCA1PCjMLknsvExkS2v',#6,$,$,(#57),#297);
#299=IFCPROPERTYSINGLEVALUE('InternalTaskId',$,IFCTEXT('task-mula829nsc912238'),$);
#300=IFCPROPERTYSET('0MFzKbMqaUZHSWP4yHcDaN',#6,'OPS_TaskIdentity',$,(#299));
#301=IFCRELDEFINESBYPROPERTIES('37V2UqOMVOK_KMHs_yHcoG',#6,$,$,(#59),#300);
#302=IFCPROPERTYSINGLEVALUE('InternalTaskId',$,IFCTEXT('task-mula829opsjh2239'),$);
#303=IFCPROPERTYSET('31UTsdG6o1RC7S1M1UVIMS',#6,'OPS_TaskIdentity',$,(#302));
#304=IFCRELDEFINESBYPROPERTIES('3THUyDbuM_3GO3oQtaFN3w',#6,$,$,(#61),#303);
#305=IFCPROPERTYSINGLEVALUE('InternalTaskId',$,IFCTEXT('task-mula829qo8ro2240'),$);
#306=IFCPROPERTYSET('2Tihw3LOXMAgoE_vz5PY6A',#6,'OPS_TaskIdentity',$,(#305));
#307=IFCRELDEFINESBYPROPERTIES('1JHBQvRXEWEEkiI5BUpYOx',#6,$,$,(#63),#306);
#308=IFCPROPERTYSINGLEVALUE('InternalTaskId',$,IFCTEXT('task-mula829snvde2241'),$);
#309=IFCPROPERTYSET('1f2MVUuUYhKllg_BRYWclY',#6,'OPS_TaskIdentity',$,(#308));
#310=IFCRELDEFINESBYPROPERTIES('2dGZGacGh5KMfjCA0HHaPs',#6,$,$,(#65),#309);
#311=IFCPROPERTYSINGLEVALUE('InternalTaskId',$,IFCTEXT('task-mula829ufhxr2242'),$);
#312=IFCPROPERTYSET('21WE45Fj$iSIQmtArUR1Xg',#6,'OPS_TaskIdentity',$,(#311));
#313=IFCRELDEFINESBYPROPERTIES('2lY00qHIVhOrfKcFSORt8l',#6,$,$,(#67),#312);
#314=IFCPROPERTYSINGLEVALUE('InternalTaskId',$,IFCTEXT('task-mula829vhpq12243'),$);
#315=IFCPROPERTYSET('0hZsioAIXFwG_ACpmbbROS',#6,'OPS_TaskIdentity',$,(#314));
#316=IFCRELDEFINESBYPROPERTIES('3eUYe5zuBWUrVfGO3KaDHD',#6,$,$,(#69),#315);
#317=IFCPROPERTYSINGLEVALUE('InternalTaskId',$,IFCTEXT('task-mula829xvhbm2244'),$);
#318=IFCPROPERTYSET('1hF2NkdvN6$2Nor34Wqdje',#6,'OPS_TaskIdentity',$,(#317));
#319=IFCRELDEFINESBYPROPERTIES('0j$YBB$8soFPyRolhF9E8h',#6,$,$,(#71),#318);
#320=IFCPROPERTYSINGLEVALUE('InternalTaskId',$,IFCTEXT('task-mula829zm1rj2245'),$);
#321=IFCPROPERTYSET('3pnB9tO8VXoUFzEWWGSJBB',#6,'OPS_TaskIdentity',$,(#320));
#322=IFCRELDEFINESBYPROPERTIES('37hCnJioTmaRatgMZeLU$F',#6,$,$,(#73),#321);
#323=IFCPROPERTYSINGLEVALUE('InternalTaskId',$,IFCTEXT('task-mula82a0riz12246'),$);
#324=IFCPROPERTYSET('3uQR_UaqpcxdHxMy93FtpS',#6,'OPS_TaskIdentity',$,(#323));
#325=IFCRELDEFINESBYPROPERTIES('31JIwJp$IUL2Xu4vjawX5Q',#6,$,$,(#75),#324);
#326=IFCPROPERTYSINGLEVALUE('InternalTaskId',$,IFCTEXT('task-mula82a2ifzm2247'),$);
#327=IFCPROPERTYSET('03d3RntMog8Y6IDmdJ1dYX',#6,'OPS_TaskIdentity',$,(#326));
#328=IFCRELDEFINESBYPROPERTIES('1IbVXIUNhxqxnjqsnSIi7u',#6,$,$,(#77),#327);
#329=IFCPROPERTYSINGLEVALUE('InternalTaskId',$,IFCTEXT('task-mula82a4etry2248'),$);
#330=IFCPROPERTYSET('3Vj61vqixQcXFYJzUQjddu',#6,'OPS_TaskIdentity',$,(#329));
#331=IFCRELDEFINESBYPROPERTIES('3UAoFufw_ekc9ZYK$Nf45f',#6,$,$,(#79),#330);
#332=IFCPROPERTYSINGLEVALUE('InternalTaskId',$,IFCTEXT('task-mula82a5p2x12249'),$);
#333=IFCPROPERTYSET('2_beUfNUST1Czz7zgh_dow',#6,'OPS_TaskIdentity',$,(#332));
#334=IFCRELDEFINESBYPROPERTIES('1snUQpgUwsE5u5VShTPzVY',#6,$,$,(#81),#333);
#335=IFCPROPERTYSINGLEVALUE('InternalTaskId',$,IFCTEXT('task-mula82a72q312250'),$);
#336=IFCPROPERTYSET('1Tr3uSj$SxdWgSOhpH62IY',#6,'OPS_TaskIdentity',$,(#335));
#337=IFCRELDEFINESBYPROPERTIES('0AM4gvMJW_YT1K1UpEz_lW',#6,$,$,(#83),#336);
#338=IFCPROPERTYSINGLEVALUE('InternalTaskId',$,IFCTEXT('task-mula82a9xmd52251'),$);
#339=IFCPROPERTYSET('0RwfyDh9gce18C3M$A_Q8d',#6,'OPS_TaskIdentity',$,(#338));
#340=IFCRELDEFINESBYPROPERTIES('00m79vkq2PDnTVqKexDCLb',#6,$,$,(#85),#339);
#341=IFCPROPERTYSINGLEVALUE('InternalTaskId',$,IFCTEXT('task-mula82aaj3s02252'),$);
#342=IFCPROPERTYSET('2dJHGPLDKuloE40YkFIUJQ',#6,'OPS_TaskIdentity',$,(#341));
#343=IFCRELDEFINESBYPROPERTIES('2zSLOZ4gODhjDcJ6QM2V6f',#6,$,$,(#87),#342);
#344=IFCPROPERTYSINGLEVALUE('InternalTaskId',$,IFCTEXT('task-mula82ac22ig2253'),$);
#345=IFCPROPERTYSET('3fKOoJ8uEI5ceH6uLFOC5u',#6,'OPS_TaskIdentity',$,(#344));
#346=IFCRELDEFINESBYPROPERTIES('08$jEp1aiSPVPfBxuRQqvr',#6,$,$,(#89),#345);
#347=IFCPROPERTYSINGLEVALUE('InternalTaskId',$,IFCTEXT('task-mula82aeijbl2254'),$);
#348=IFCPROPERTYSET('0psWsKUybH9OfCm24DjZMX',#6,'OPS_TaskIdentity',$,(#347));
#349=IFCRELDEFINESBYPROPERTIES('34a5eh$PJS3XYSV536gWRX',#6,$,$,(#91),#348);
#350=IFCPROPERTYSINGLEVALUE('InternalTaskId',$,IFCTEXT('task-mula82agbgbz2255'),$);
#351=IFCPROPERTYSET('2Ea0hgKRzQaLbO4EveyfpE',#6,'OPS_TaskIdentity',$,(#350));
#352=IFCRELDEFINESBYPROPERTIES('2YrSasT1uZNYz$Sxe$UG6A',#6,$,$,(#93),#351);
#353=IFCPROPERTYSINGLEVALUE('InternalTaskId',$,IFCTEXT('task-mula82ai720t2256'),$);
#354=IFCPROPERTYSET('2gnz5FoDUPx3YdQiseDRIq',#6,'OPS_TaskIdentity',$,(#353));
#355=IFCRELDEFINESBYPROPERTIES('1UxnHpAuMz$w4$$WZvRdXo',#6,$,$,(#95),#354);
#356=IFCPROPERTYSINGLEVALUE('InternalTaskId',$,IFCTEXT('task-mula82ak6vlg2257'),$);
#357=IFCPROPERTYSET('1X2v5Vq_Gw15jI$UQ3blJy',#6,'OPS_TaskIdentity',$,(#356));
#358=IFCRELDEFINESBYPROPERTIES('1O4hZVJvPM_JJA6niyVFH_',#6,$,$,(#97),#357);
#359=IFCPROPERTYSINGLEVALUE('InternalTaskId',$,IFCTEXT('task-mula82andemw2258'),$);
#360=IFCPROPERTYSET('1ZlG5Ts6Wrt9W0gPDXhETU',#6,'OPS_TaskIdentity',$,(#359));
#361=IFCRELDEFINESBYPROPERTIES('0D7valF0q51EfEHv2bsorb',#6,$,$,(#99),#360);
#362=IFCPROPERTYSINGLEVALUE('InternalTaskId',$,IFCTEXT('task-mula82apmqw62259'),$);
#363=IFCPROPERTYSET('3YAkvAesvu$YN$eKrcapUf',#6,'OPS_TaskIdentity',$,(#362));
#364=IFCRELDEFINESBYPROPERTIES('0WLRbnTkSR$lIs0lTXFFO5',#6,$,$,(#101),#363);
#365=IFCPROPERTYSINGLEVALUE('MilestoneKind',$,IFCLABEL('START'),$);
#366=IFCPROPERTYSET('3q5H8tuTsFnYacGvA$u0t4',#6,'OPS_Milestone',$,(#365));
#367=IFCRELDEFINESBYPROPERTIES('2TT728XvIXcBoFgkvCZoLU',#6,$,$,(#55),#366);
#368=IFCPROPERTYSINGLEVALUE('MilestoneKind',$,IFCLABEL('FINISH'),$);
#369=IFCPROPERTYSET('1OP0fd5fbSwWwQh447AREO',#6,'OPS_Milestone',$,(#368));
#370=IFCRELDEFINESBYPROPERTIES('0opg6uZcTBDrhqsm0JpTc0',#6,$,$,(#101),#369);
ENDSEC;
END-ISO-10303-21;
