ISO-10303-21;
HEADER;
FILE_DESCRIPTION(('ViewDefinition [SchedulingView]'),'2;1');
FILE_NAME('Albert Heijn Supermarket Refurbishment.ifc','2026-09-28T13:27:22',('Anne Willems'),('Retail Build Express BV'),'Open Planner Studio 0.1','Open Planner Studio','');
FILE_SCHEMA(('IFC4X3'));
ENDSEC;
DATA;
#1=IFCPERSON($,'Anne Willems',$,$,$,$,$,$);
#2=IFCORGANIZATION($,'Retail Build Express BV',$,$,$);
#3=IFCPERSONANDORGANIZATION(#1,#2,$);
#4=IFCORGANIZATION($,'OpenAEC Foundation',$,$,$);
#5=IFCAPPLICATION(#4,'0.2','Open Planner Studio','OPS');
#6=IFCOWNERHISTORY(#3,#5,$,.NOCHANGE.,$,$,$,1790602042);
#7=IFCSIUNIT(*,.LENGTHUNIT.,$,.METRE.);
#8=IFCSIUNIT(*,.TIMEUNIT.,$,.SECOND.);
#9=IFCUNITASSIGNMENT((#7,#8));
#10=IFCCARTESIANPOINT((0.,0.,0.));
#11=IFCAXIS2PLACEMENT3D(#10,$,$);
#12=IFCGEOMETRICREPRESENTATIONCONTEXT($,'Plan',3,1.0E-05,#11,$);
#13=IFCPROJECT('0Q6UQO89XOM51RCi528zFI',#6,'Albert Heijn Supermarket Refurbishment','Internal refurbishment and extension of a supermarket',$,$,$,(#12),#9);
#14=IFCTIMEPERIOD('07:00:00','16:00:00');
#15=IFCRECURRENCEPATTERN(.WEEKLY.,$,(1,2,3,4,5),$,$,$,$,(#14));
#16=IFCWORKTIME('Standard work week',.PREDICTED.,$,#15,$,$);
#17=IFCWORKTIME('New Year''s Day',.PREDICTED.,$,$,'2027-01-01','2027-01-01');
#18=IFCWORKTIME('Good Friday',.PREDICTED.,$,$,'2027-03-26','2027-03-26');
#19=IFCWORKTIME('Easter',.PREDICTED.,$,$,'2027-03-28','2027-03-29');
#20=IFCWORKTIME('King''s Day',.PREDICTED.,$,$,'2027-04-27','2027-04-27');
#21=IFCWORKTIME('Liberation Day',.PREDICTED.,$,$,'2027-05-05','2027-05-05');
#22=IFCWORKTIME('Ascension Day',.PREDICTED.,$,$,'2027-05-06','2027-05-06');
#23=IFCWORKTIME('Whitsun',.PREDICTED.,$,$,'2027-05-16','2027-05-17');
#24=IFCWORKTIME('Christmas',.PREDICTED.,$,$,'2027-12-25','2027-12-26');
#25=IFCWORKTIME('Construction holiday (northern region)',.PREDICTED.,$,$,'2027-07-26','2027-08-15');
#26=IFCWORKTIME('New Year''s Day',.PREDICTED.,$,$,'2028-01-01','2028-01-01');
#27=IFCWORKTIME('Good Friday',.PREDICTED.,$,$,'2028-04-14','2028-04-14');
#28=IFCWORKTIME('Easter',.PREDICTED.,$,$,'2028-04-16','2028-04-17');
#29=IFCWORKTIME('King''s Day',.PREDICTED.,$,$,'2028-04-27','2028-04-27');
#30=IFCWORKTIME('Liberation Day',.PREDICTED.,$,$,'2028-05-05','2028-05-05');
#31=IFCWORKTIME('Ascension Day',.PREDICTED.,$,$,'2028-05-25','2028-05-25');
#32=IFCWORKTIME('Whitsun',.PREDICTED.,$,$,'2028-06-04','2028-06-05');
#33=IFCWORKTIME('Christmas',.PREDICTED.,$,$,'2028-12-25','2028-12-26');
#34=IFCWORKTIME('Construction holiday (northern region)',.PREDICTED.,$,$,'2028-07-24','2028-08-13');
#35=IFCWORKCALENDAR('0_r4dLiQNx7dnMV5gVvzla',#6,'Construction calendar NL','Standard construction calendar: Mon-Fri 07:00-16:00',$,(#16),(#17,#18,#19,#20,#21,#22,#23,#24,#25,#26,#27,#28,#29,#30,#31,#32,#33,#34),.FIRSTSHIFT.);
#36=IFCPROPERTYSINGLEVALUE('HoursPerDay',$,IFCREAL(8),$);
#37=IFCPROPERTYSET('01OjFrl97SvDnoq4R1njq7',#6,'OPS_Calendar',$,(#36));
#38=IFCRELDEFINESBYPROPERTIES('3FCYnUsf84Ea4yEX9GdU8Z',#6,$,$,(#35),#37);
#39=IFCWORKPLAN('0nzwxN_MuZX9ayZJSucN$F',#6,'Albert Heijn Supermarket Refurbishment','Internal refurbishment and extension of a supermarket',$,$,'2026-09-28T13:27:22',$,$,$,$,$,'2027-03-01T07:00:00','2027-03-10T07:00:00',.PLANNED.);
#40=IFCWORKSCHEDULE('2tMceNDyDn37IQEKnanq8Q',#6,'Construction schedule v1.0',$,$,$,'2026-09-28T13:27:22',$,$,$,$,$,'2027-03-01T07:00:00','2027-03-10T07:00:00',.PLANNED.);
#41=IFCRELAGGREGATES('2aBiEZf8bIhQjP8vN8ps3d',#6,$,$,#39,(#40));
#42=IFCTASKTIME('1. Preparation Time',.PREDICTED.,$,.WORKTIME.,'P0Y0M6D','2027-03-01T07:00:00','2027-03-05T07:00:00','2027-03-01T07:00:00','2027-03-08T07:00:00','2027-03-01T07:00:00','2027-06-02T07:00:00','P0Y0M0D','P0Y0M0D',.T.,$,$,$,$,$,0.00);
#43=IFCTASK('2TmsG2wIh9kR_0dMjj2Zis',#6,'1. Preparation',$,$,'1',$,$,$,.F.,$,#42,.CONSTRUCTION.);
#44=IFCTASKTIME('Clear out store Time',.PREDICTED.,$,.WORKTIME.,'P0Y0M3D','2027-03-01T07:00:00','2027-03-03T07:00:00','2027-03-01T07:00:00','2027-03-03T07:00:00','2027-03-01T07:00:00','2027-03-03T07:00:00','P0Y0M0D','P0Y0M0D',.T.,$,$,$,$,$,0.00);
#45=IFCTASK('1wWU5YCSe7gFs7iLgfW7VE',#6,'Clear out store',$,$,'1.1',$,$,$,.F.,$,#44,.LOGISTIC.);
#46=IFCTASKTIME('Temporary facilities Time',.PREDICTED.,$,.WORKTIME.,'P0Y0M2D','2027-03-01T07:00:00','2027-03-02T07:00:00','2027-03-04T07:00:00','2027-03-05T07:00:00','2027-05-31T07:00:00','2027-06-01T07:00:00','P0Y0M0D','P0Y0M56D',.F.,$,$,$,$,$,0.00);
#47=IFCTASK('37tEWy00j19bkWyc0ti2Do',#6,'Temporary facilities',$,$,'1.2',$,$,$,.F.,$,#46,.INSTALLATION.);
#48=IFCTASKTIME('Start of refurbishment Time',.PREDICTED.,$,.WORKTIME.,'P0Y0M0D','2027-03-01T07:00:00','2027-03-01T07:00:00','2027-03-08T07:00:00','2027-03-08T07:00:00','2027-06-02T07:00:00','2027-06-02T07:00:00','P0Y0M56D','P0Y0M56D',.F.,$,$,$,$,$,0.00);
#49=IFCTASK('2eBRjZZV8Z3pTsEJQHy540',#6,'Start of refurbishment',$,$,'1.3',$,$,$,.T.,$,#48,.CONSTRUCTION.);
#50=IFCTASKTIME('2. Demolition works Time',.PREDICTED.,$,.WORKTIME.,'P0Y0M13D','2027-03-01T07:00:00','2027-03-05T07:00:00','2027-03-04T07:00:00','2027-03-22T07:00:00','2027-03-04T07:00:00','2027-03-31T07:00:00','P0Y0M0D','P0Y0M0D',.T.,$,$,$,$,$,0.00);
#51=IFCTASK('00VDiWSN3uyspJeTbPunbD',#6,'2. Demolition works',$,$,'2',$,$,$,.F.,$,#50,.DEMOLITION.);
#52=IFCTASKTIME('Demolish existing fit-out Time',.PREDICTED.,$,.WORKTIME.,'P0Y0M5D','2027-03-01T07:00:00','2027-03-05T07:00:00','2027-03-04T07:00:00','2027-03-10T07:00:00','2027-03-04T07:00:00','2027-03-10T07:00:00','P0Y0M0D','P0Y0M0D',.T.,$,$,$,$,$,0.00);
#53=IFCTASK('16Hp7jA4X1MTGooSAUEcxU',#6,'Demolish existing fit-out',$,$,'2.1',$,$,$,.F.,$,#52,.DEMOLITION.);
#54=IFCTASKTIME('Partially break out floor Time',.PREDICTED.,$,.WORKTIME.,'P0Y0M3D','2027-03-01T07:00:00','2027-03-03T07:00:00','2027-03-11T07:00:00','2027-03-15T07:00:00','2027-03-18T07:00:00','2027-03-22T07:00:00','P0Y0M0D','P0Y0M5D',.F.,$,$,$,$,$,0.00);
#55=IFCTASK('2YXR4LLeDznBR$G2cgDXrA',#6,'Partially break out floor',$,$,'2.2',$,$,$,.F.,$,#54,.DEMOLITION.);
#56=IFCTASKTIME('Open up rear facade for extension Time',.PREDICTED.,$,.WORKTIME.,'P0Y0M5D','2027-03-01T07:00:00','2027-03-05T07:00:00','2027-03-16T07:00:00','2027-03-22T07:00:00','2027-03-23T07:00:00','2027-03-31T07:00:00','P0Y0M5D','P0Y0M5D',.F.,$,$,$,$,$,0.00);
#57=IFCTASK('1ndeZFJp36ntPiEOrx9TfP',#6,'Open up rear facade for extension',$,$,'2.3',$,$,$,.F.,$,#56,.DEMOLITION.);
#58=IFCTASKTIME('3. Extension Time',.PREDICTED.,$,.WORKTIME.,'P0Y0M18D','2027-03-01T07:00:00','2027-03-05T07:00:00','2027-03-08T07:00:00','2027-04-02T07:00:00','2027-03-08T07:00:00','2027-04-02T07:00:00','P0Y0M0D','P0Y0M0D',.T.,$,$,$,$,$,0.00);
#59=IFCTASK('0Jilkm9l5Khdwv9S8qtFle',#6,'3. Extension',$,$,'3',$,$,$,.F.,$,#58,.CONSTRUCTION.);
#60=IFCTASKTIME('Foundations, extension Time',.PREDICTED.,$,.WORKTIME.,'P0Y0M5D','2027-03-01T07:00:00','2027-03-05T07:00:00','2027-03-08T07:00:00','2027-03-12T07:00:00','2027-03-08T07:00:00','2027-03-12T07:00:00','P0Y0M0D','P0Y0M0D',.T.,$,$,$,$,$,0.00);
#61=IFCTASK('24i8Cm_8IkjtVRbH4ZInvZ',#6,'Foundations, extension',$,$,'3.1',$,$,$,.F.,$,#60,.CONSTRUCTION.);
#62=IFCTASKTIME('Structural steel, extension Time',.PREDICTED.,$,.WORKTIME.,'P0Y0M5D','2027-03-01T07:00:00','2027-03-05T07:00:00','2027-03-15T07:00:00','2027-03-19T07:00:00','2027-03-15T07:00:00','2027-03-19T07:00:00','P0Y0M0D','P0Y0M0D',.T.,$,$,$,$,$,0.00);
#63=IFCTASK('0aFZNoRRLo_xLsVd4s$Ljl',#6,'Structural steel, extension',$,$,'3.2',$,$,$,.F.,$,#62,.CONSTRUCTION.);
#64=IFCTASKTIME('Roof and facade, extension Time',.PREDICTED.,$,.WORKTIME.,'P0Y0M5D','2027-03-01T07:00:00','2027-03-05T07:00:00','2027-03-22T07:00:00','2027-03-30T07:00:00','2027-03-22T07:00:00','2027-03-30T07:00:00','P0Y0M0D','P0Y0M0D',.T.,$,$,$,$,$,0.00);
#65=IFCTASK('1TwzQ86m8QabIWTsahrhA9',#6,'Roof and facade, extension',$,$,'3.3',$,$,$,.F.,$,#64,.INSTALLATION.);
#66=IFCTASKTIME('Floor, extension Time',.PREDICTED.,$,.WORKTIME.,'P0Y0M3D','2027-03-01T07:00:00','2027-03-03T07:00:00','2027-03-31T07:00:00','2027-04-02T07:00:00','2027-03-31T07:00:00','2027-04-02T07:00:00','P0Y0M0D','P0Y0M0D',.T.,$,$,$,$,$,0.00);
#67=IFCTASK('1fbhYSsVOyEhkKSbH9b3eu',#6,'Floor, extension',$,$,'3.4',$,$,$,.F.,$,#66,.CONSTRUCTION.);
#68=IFCTASKTIME('4. Building services Time',.PREDICTED.,$,.WORKTIME.,'P0Y0M21D','2027-03-01T07:00:00','2027-03-05T07:00:00','2027-03-30T07:00:00','2027-04-28T07:00:00','2027-03-30T07:00:00','2027-04-28T07:00:00','P0Y0M0D','P0Y0M0D',.T.,$,$,$,$,$,0.00);
#69=IFCTASK('0jUV7oNSpY0ywbtaI10kWZ',#6,'4. Building services',$,$,'4',$,$,$,.F.,$,#68,.INSTALLATION.);
#70=IFCTASKTIME('Renew cooling installation Time',.PREDICTED.,$,.WORKTIME.,'P0Y0M8D','2027-03-01T07:00:00','2027-03-10T07:00:00','2027-03-30T07:00:00','2027-04-08T07:00:00','2027-03-30T07:00:00','2027-04-08T07:00:00','P0Y0M0D','P0Y0M0D',.T.,$,$,$,$,$,0.00);
#71=IFCTASK('0yx1irgdGlcUsy87mR_ASz',#6,'Renew cooling installation',$,$,'4.1',$,$,$,.F.,$,#70,.INSTALLATION.);
#72=IFCTASKTIME('Electrical, extension Time',.PREDICTED.,$,.WORKTIME.,'P0Y0M5D','2027-03-01T07:00:00','2027-03-05T07:00:00','2027-04-09T07:00:00','2027-04-15T07:00:00','2027-04-09T07:00:00','2027-04-15T07:00:00','P0Y0M0D','P0Y0M0D',.T.,$,$,$,$,$,0.00);
#73=IFCTASK('1aKO8atUt6E$jguwSGCda3',#6,'Electrical, extension',$,$,'4.2',$,$,$,.F.,$,#72,.INSTALLATION.);
#74=IFCTASKTIME('Ventilation and air conditioning Time',.PREDICTED.,$,.WORKTIME.,'P0Y0M5D','2027-03-01T07:00:00','2027-03-05T07:00:00','2027-04-16T07:00:00','2027-04-22T07:00:00','2027-04-16T07:00:00','2027-04-22T07:00:00','P0Y0M0D','P0Y0M0D',.T.,$,$,$,$,$,0.00);
#75=IFCTASK('1lhNpJSwOPWCBrdXQZ8hTv',#6,'Ventilation and air conditioning',$,$,'4.3',$,$,$,.F.,$,#74,.INSTALLATION.);
#76=IFCTASKTIME('Fire alarm system Time',.PREDICTED.,$,.WORKTIME.,'P0Y0M3D','2027-03-01T07:00:00','2027-03-03T07:00:00','2027-04-23T07:00:00','2027-04-28T07:00:00','2027-04-23T07:00:00','2027-04-28T07:00:00','P0Y0M0D','P0Y0M0D',.T.,$,$,$,$,$,0.00);
#77=IFCTASK('0d4G50MtfRUieo5ARYvI4W',#6,'Fire alarm system',$,$,'4.4',$,$,$,.F.,$,#76,.INSTALLATION.);
#78=IFCTASKTIME('5. Fit-out & furnishing Time',.PREDICTED.,$,.WORKTIME.,'P0Y0M22D','2027-03-01T07:00:00','2027-03-05T07:00:00','2027-04-29T07:00:00','2027-06-02T07:00:00','2027-04-29T07:00:00','2027-06-02T07:00:00','P0Y0M0D','P0Y0M0D',.T.,$,$,$,$,$,0.00);
#79=IFCTASK('0rsoKa7$pG7cBu0eogVi7y',#6,'5. Fit-out & furnishing',$,$,'5',$,$,$,.F.,$,#78,.CONSTRUCTION.);
#80=IFCTASKTIME('Lay floor tiles Time',.PREDICTED.,$,.WORKTIME.,'P0Y0M5D','2027-03-01T07:00:00','2027-03-05T07:00:00','2027-04-29T07:00:00','2027-05-07T07:00:00','2027-04-29T07:00:00','2027-05-07T07:00:00','P0Y0M0D','P0Y0M0D',.T.,$,$,$,$,$,0.00);
#81=IFCTASK('3L_pYtSNP7VM6jtiNsmLEW',#6,'Lay floor tiles',$,$,'5.1',$,$,$,.F.,$,#80,.CONSTRUCTION.);
#82=IFCTASKTIME('Ceilings and lighting Time',.PREDICTED.,$,.WORKTIME.,'P0Y0M5D','2027-03-01T07:00:00','2027-03-05T07:00:00','2027-05-10T07:00:00','2027-05-14T07:00:00','2027-05-10T07:00:00','2027-05-14T07:00:00','P0Y0M0D','P0Y0M0D',.T.,$,$,$,$,$,0.00);
#83=IFCTASK('1x82Xjz6tNZUGeLk4ign80',#6,'Ceilings and lighting',$,$,'5.2',$,$,$,.F.,$,#82,.INSTALLATION.);
#84=IFCTASKTIME('Shelving and refrigeration Time',.PREDICTED.,$,.WORKTIME.,'P0Y0M5D','2027-03-01T07:00:00','2027-03-05T07:00:00','2027-05-18T07:00:00','2027-05-24T07:00:00','2027-05-18T07:00:00','2027-05-24T07:00:00','P0Y0M0D','P0Y0M0D',.T.,$,$,$,$,$,0.00);
#85=IFCTASK('0YukO6Otx6LjLSibr81Amc',#6,'Shelving and refrigeration',$,$,'5.3',$,$,$,.F.,$,#84,.INSTALLATION.);
#86=IFCTASKTIME('Checkout island Time',.PREDICTED.,$,.WORKTIME.,'P0Y0M3D','2027-03-01T07:00:00','2027-03-03T07:00:00','2027-05-25T07:00:00','2027-05-27T07:00:00','2027-05-25T07:00:00','2027-05-27T07:00:00','P0Y0M0D','P0Y0M0D',.T.,$,$,$,$,$,0.00);
#87=IFCTASK('3WA8dFfHBRV$jtmvsEVZzg',#6,'Checkout island',$,$,'5.4',$,$,$,.F.,$,#86,.INSTALLATION.);
#88=IFCTASKTIME('Stocking and fit-out Time',.PREDICTED.,$,.WORKTIME.,'P0Y0M3D','2027-03-01T07:00:00','2027-03-03T07:00:00','2027-05-28T07:00:00','2027-06-01T07:00:00','2027-05-28T07:00:00','2027-06-01T07:00:00','P0Y0M0D','P0Y0M0D',.T.,$,$,$,$,$,0.00);
#89=IFCTASK('2ivlMoahQsBiJk05HiPIVE',#6,'Stocking and fit-out',$,$,'5.5',$,$,$,.F.,$,#88,.LOGISTIC.);
#90=IFCTASKTIME('Reopening Time',.PREDICTED.,$,.WORKTIME.,'P0Y0M0D','2027-03-01T07:00:00','2027-03-01T07:00:00','2027-06-02T07:00:00','2027-06-02T07:00:00','2027-06-02T07:00:00','2027-06-02T07:00:00','P0Y0M0D','P0Y0M0D',.T.,$,$,$,$,$,0.00);
#91=IFCTASK('3VxYVFuTsywwqRTwiO1ttn',#6,'Reopening',$,$,'5.6',$,$,$,.T.,$,#90,.CONSTRUCTION.);
#92=IFCRELNESTS('3Hje6IBKtzd7ObyRUohBE$',#6,'WBS 1. Preparation',$,#43,( #45,#47,#49));
#93=IFCRELNESTS('2lDYP3cIS6BObD_Jgmc9Ml',#6,'WBS 2. Demolition works',$,#51,( #53,#55,#57));
#94=IFCRELNESTS('0I6Pcy07pT6MPqNn26HYTS',#6,'WBS 3. Extension',$,#59,( #61,#63,#65,#67));
#95=IFCRELNESTS('3D0Wev7CtrLN77u25F7E36',#6,'WBS 4. Building services',$,#69,( #71,#73,#75,#77));
#96=IFCRELNESTS('2Z7iRu66j3abT89ug33oS0',#6,'WBS 5. Fit-out & furnishing',$,#79,( #81,#83,#85,#87,#89,#91));
#97=IFCRELNESTS('2S$7W38KQ8iwaFvow_s9MD',#6,'WBS Hoofd',$,#40,(#43,#51,#59,#69,#79));
#98=IFCRELSEQUENCE('0RA3m3cNGOdk5FeHRPtOtD',#6,$,$,#45,#47,$,.FINISH_START.,$);
#99=IFCRELSEQUENCE('3yEvzZjDj0TQN$J7wSXFtN',#6,$,$,#47,#49,$,.FINISH_START.,$);
#100=IFCRELSEQUENCE('1hsBFJtYgXFYxCS1BjHxv7',#6,$,$,#53,#55,$,.FINISH_START.,$);
#101=IFCRELSEQUENCE('0R1ehpnRuxtjh3vNAlaZGr',#6,$,$,#55,#57,$,.FINISH_START.,$);
#102=IFCRELSEQUENCE('2xCxmREkXyAtbkSYzHePm$',#6,$,$,#61,#63,$,.FINISH_START.,$);
#103=IFCRELSEQUENCE('1hGCoZP$$5pxUQkOOK2xmP',#6,$,$,#63,#65,$,.FINISH_START.,$);
#104=IFCRELSEQUENCE('118xoAUTKBcz6WXUHXVTmJ',#6,$,$,#65,#67,$,.FINISH_START.,$);
#105=IFCRELSEQUENCE('1Vy34BNbMMSZOrO2n3PSVD',#6,$,$,#71,#73,$,.FINISH_START.,$);
#106=IFCRELSEQUENCE('0NMjrHvXoYq6MIrzPn3o5R',#6,$,$,#73,#75,$,.FINISH_START.,$);
#107=IFCRELSEQUENCE('3eVZFe7FdEhPAHLKfsjDWk',#6,$,$,#75,#77,$,.FINISH_START.,$);
#108=IFCRELSEQUENCE('2Ii6Ohwbig4Y4fexir3$bU',#6,$,$,#81,#83,$,.FINISH_START.,$);
#109=IFCRELSEQUENCE('3bEgQAuWSsy3zIKlRtjD4M',#6,$,$,#83,#85,$,.FINISH_START.,$);
#110=IFCRELSEQUENCE('0GSrqOWI$mZP16P_BkOfa7',#6,$,$,#85,#87,$,.FINISH_START.,$);
#111=IFCRELSEQUENCE('3VosPI_anUkCHlXe9f41Gs',#6,$,$,#87,#89,$,.FINISH_START.,$);
#112=IFCRELSEQUENCE('0Q4OIWFN1hDeXseiinNK3Y',#6,$,$,#89,#91,$,.FINISH_START.,$);
#113=IFCLAGTIME('Lag',.PREDICTED.,$,IFCDURATION('P3D'),.WORKTIME.);
#114=IFCRELSEQUENCE('0nmvaJdIDVKqb62fWFAStJ',#6,$,$,#45,#53,#113,.START_START.,$);
#115=IFCLAGTIME('Lag',.PREDICTED.,$,IFCRATIOMEASURE(0.4),.WORKTIME.);
#116=IFCRELSEQUENCE('1$VudRVrXGQmKYuMFwgjdZ',#6,$,$,#53,#61,#115,.START_START.,$);
#117=IFCLAGTIME('Lag',.PREDICTED.,$,IFCDURATION('P2D'),.WORKTIME.);
#118=IFCRELSEQUENCE('3DwjAQXRXVEtIC$4Kt9WEa',#6,$,$,#57,#67,#117,.FINISH_FINISH.,$);
#119=IFCLAGTIME('Lag',.PREDICTED.,$,IFCDURATION('-P4D'),.WORKTIME.);
#120=IFCRELSEQUENCE('0LZDKLnBXSUebzGiJeUkWz',#6,$,$,#67,#71,#119,.FINISH_START.,$);
#121=IFCRELSEQUENCE('1I_mkmKbA2oRVFRDlItqph',#6,$,$,#77,#81,$,.FINISH_START.,$);
#122=IFCRELASSIGNSTOCONTROL('2RH2TAR21tGl1SPh0$clgu',#6,$,$,(#43,#45,#47,#49,#51,#53,#55,#57,#59,#61,#63,#65,#67,#69,#71,#73,#75,#77,#79,#81,#83,#85,#87,#89,#91),$,#40);
#123=IFCPROPERTYSINGLEVALUE('InternalProjectId',$,IFCTEXT('proj-mula82ehzfvw2312'),$);
#124=IFCPROPERTYSINGLEVALUE('wbsAutoNumber',$,IFCBOOLEAN(.T.),$);
#125=IFCPROPERTYSINGLEVALUE('DefaultTaskDurationUnit',$,IFCLABEL('days'),$);
#126=IFCPROPERTYSINGLEVALUE('ProjectStartDate',$,IFCDATE('2027-03-01'),$);
#127=IFCPROPERTYSINGLEVALUE('ProjectEndDate',$,$,$);
#128=IFCPROPERTYSINGLEVALUE('CreatedAt',$,IFCTEXT('2026-09-28T13:27:22.409Z'),$);
#129=IFCPROPERTYSINGLEVALUE('ModifiedAt',$,IFCTEXT('2026-09-28T13:27:22.410Z'),$);
#130=IFCPROPERTYSET('1rL$ICeybsl6_7dOlE8qOv',#6,'OPS_ProjectSettings',$,(#123,#124,#125,#126,#127,#128,#129));
#131=IFCRELDEFINESBYPROPERTIES('0rXt9sSisBz6g$pAbzK7CX',#6,$,$,(#13),#130);
#132=IFCPROPERTYSINGLEVALUE('InternalTaskId',$,IFCTEXT('task-mula82ejfi802313'),$);
#133=IFCPROPERTYSET('2sh4y2hm1cfAJpZxQ5EStm',#6,'OPS_TaskIdentity',$,(#132));
#134=IFCRELDEFINESBYPROPERTIES('1KUnBAsVpGpmQh0HtKLI8l',#6,$,$,(#43),#133);
#135=IFCPROPERTYSINGLEVALUE('InternalTaskId',$,IFCTEXT('task-mula82eluays2314'),$);
#136=IFCPROPERTYSET('1IPKQXH4PO1mEWkt7$4s1V',#6,'OPS_TaskIdentity',$,(#135));
#137=IFCRELDEFINESBYPROPERTIES('2nDTn3u$3ixi1pAYGMpcgq',#6,$,$,(#45),#136);
#138=IFCPROPERTYSINGLEVALUE('InternalTaskId',$,IFCTEXT('task-mula82emi63g2315'),$);
#139=IFCPROPERTYSET('1WNskIISxcP94zE1k0obmY',#6,'OPS_TaskIdentity',$,(#138));
#140=IFCRELDEFINESBYPROPERTIES('0StQUNmMwa3$5Vd9vCKnwn',#6,$,$,(#47),#139);
#141=IFCPROPERTYSINGLEVALUE('InternalTaskId',$,IFCTEXT('task-mula82enillm2316'),$);
#142=IFCPROPERTYSET('3WBeXhpRTDncor8XTyWZya',#6,'OPS_TaskIdentity',$,(#141));
#143=IFCRELDEFINESBYPROPERTIES('1gFI1Zsv5ek55w4DC_u5_7',#6,$,$,(#49),#142);
#144=IFCPROPERTYSINGLEVALUE('InternalTaskId',$,IFCTEXT('task-mula82eov97r2317'),$);
#145=IFCPROPERTYSET('0uoJA1_cH33gAdGGkfw8z$',#6,'OPS_TaskIdentity',$,(#144));
#146=IFCRELDEFINESBYPROPERTIES('2hKRsCm4Q25gd0b9_cWcA8',#6,$,$,(#51),#145);
#147=IFCPROPERTYSINGLEVALUE('InternalTaskId',$,IFCTEXT('task-mula82eqisu82318'),$);
#148=IFCPROPERTYSET('2FbG6IVjtSdGbbkSeh512k',#6,'OPS_TaskIdentity',$,(#147));
#149=IFCRELDEFINESBYPROPERTIES('0FWcSUH4rMQ_6KxHeeIkDS',#6,$,$,(#53),#148);
#150=IFCPROPERTYSINGLEVALUE('InternalTaskId',$,IFCTEXT('task-mula82erodvy2319'),$);
#151=IFCPROPERTYSET('0d24r_Fanzm$HuJIApn_5O',#6,'OPS_TaskIdentity',$,(#150));
#152=IFCRELDEFINESBYPROPERTIES('3Nb7tAk8vAc00k5X8wllKZ',#6,$,$,(#55),#151);
#153=IFCPROPERTYSINGLEVALUE('InternalTaskId',$,IFCTEXT('task-mula82etrwc92320'),$);
#154=IFCPROPERTYSET('1ph1Zg2IsltZE6FUyT8_aF',#6,'OPS_TaskIdentity',$,(#153));
#155=IFCRELDEFINESBYPROPERTIES('1TxFwTPyf9oR2m7nyzEfBK',#6,$,$,(#57),#154);
#156=IFCPROPERTYSINGLEVALUE('InternalTaskId',$,IFCTEXT('task-mula82evk6rq2321'),$);
#157=IFCPROPERTYSET('3ngkKlZ9EOc6BgVwmv9DEQ',#6,'OPS_TaskIdentity',$,(#156));
#158=IFCRELDEFINESBYPROPERTIES('18_4Luh7yRKX8vsSoPt3c0',#6,$,$,(#59),#157);
#159=IFCPROPERTYSINGLEVALUE('InternalTaskId',$,IFCTEXT('task-mula82ew4znf2322'),$);
#160=IFCPROPERTYSET('0BvRPhYXjZhhyg9hRG1BWr',#6,'OPS_TaskIdentity',$,(#159));
#161=IFCRELDEFINESBYPROPERTIES('09x1uuCunncNzpvrKIKb2Q',#6,$,$,(#61),#160);
#162=IFCPROPERTYSINGLEVALUE('InternalTaskId',$,IFCTEXT('task-mula82eyurm42323'),$);
#163=IFCPROPERTYSET('1e6x96gw1lIBNu2bUAPvXG',#6,'OPS_TaskIdentity',$,(#162));
#164=IFCRELDEFINESBYPROPERTIES('2Whk5jcrWzsJFezLMjRlV7',#6,$,$,(#63),#163);
#165=IFCPROPERTYSINGLEVALUE('InternalTaskId',$,IFCTEXT('task-mula82ezukgw2324'),$);
#166=IFCPROPERTYSET('1vPB8hNsObz3Wb0dBgIJqp',#6,'OPS_TaskIdentity',$,(#165));
#167=IFCRELDEFINESBYPROPERTIES('0k5B79eeg4V6zJexOMiRpG',#6,$,$,(#65),#166);
#168=IFCPROPERTYSINGLEVALUE('InternalTaskId',$,IFCTEXT('task-mula82f0vn2a2325'),$);
#169=IFCPROPERTYSET('0$6aa5aVFWi2QtxRp_p3Q0',#6,'OPS_TaskIdentity',$,(#168));
#170=IFCRELDEFINESBYPROPERTIES('38rJL6759$bPYh$3$NmLV$',#6,$,$,(#67),#169);
#171=IFCPROPERTYSINGLEVALUE('InternalTaskId',$,IFCTEXT('task-mula82f2v0642326'),$);
#172=IFCPROPERTYSET('06xiYi24s8_lcqsUuk53Ho',#6,'OPS_TaskIdentity',$,(#171));
#173=IFCRELDEFINESBYPROPERTIES('0tGJljfMFtDfcDk0V7QwgL',#6,$,$,(#69),#172);
#174=IFCPROPERTYSINGLEVALUE('InternalTaskId',$,IFCTEXT('task-mula82f3ocv32327'),$);
#175=IFCPROPERTYSET('1Y4jR6$8l4Cji82kPoeV4Y',#6,'OPS_TaskIdentity',$,(#174));
#176=IFCRELDEFINESBYPROPERTIES('3uGg4lU9DMAFcBOsajxuy2',#6,$,$,(#71),#175);
#177=IFCPROPERTYSINGLEVALUE('InternalTaskId',$,IFCTEXT('task-mula82f5am8t2328'),$);
#178=IFCPROPERTYSET('24MkOdXlxSawyDH6Yak3Lp',#6,'OPS_TaskIdentity',$,(#177));
#179=IFCRELDEFINESBYPROPERTIES('3_VejC9bWCTVoxnX8kjGiv',#6,$,$,(#73),#178);
#180=IFCPROPERTYSINGLEVALUE('InternalTaskId',$,IFCTEXT('task-mula82f6j4ls2329'),$);
#181=IFCPROPERTYSET('1z0j3p3gWZl802Hz$EeEl8',#6,'OPS_TaskIdentity',$,(#180));
#182=IFCRELDEFINESBYPROPERTIES('2d1dgBODBMK2NkbOY7i1IU',#6,$,$,(#75),#181);
#183=IFCPROPERTYSINGLEVALUE('InternalTaskId',$,IFCTEXT('task-mula82f7ctra2330'),$);
#184=IFCPROPERTYSET('1GwOek8ooS0vDfdidDdeMO',#6,'OPS_TaskIdentity',$,(#183));
#185=IFCRELDEFINESBYPROPERTIES('1oFKrhYlLexDjg4fcBaLke',#6,$,$,(#77),#184);
#186=IFCPROPERTYSINGLEVALUE('InternalTaskId',$,IFCTEXT('task-mula82f9nb462331'),$);
#187=IFCPROPERTYSET('3ejz5lG3Zw2neYbL0Rmczh',#6,'OPS_TaskIdentity',$,(#186));
#188=IFCRELDEFINESBYPROPERTIES('0iTOEETWIEzcPbq9KHz5mu',#6,$,$,(#79),#187);
#189=IFCPROPERTYSINGLEVALUE('InternalTaskId',$,IFCTEXT('task-mula82fbbl0s2332'),$);
#190=IFCPROPERTYSET('0RxiKl17sETgdQguLPC8ox',#6,'OPS_TaskIdentity',$,(#189));
#191=IFCRELDEFINESBYPROPERTIES('2LWIB02POcDYjZUUkqQPCf',#6,$,$,(#81),#190);
#192=IFCPROPERTYSINGLEVALUE('InternalTaskId',$,IFCTEXT('task-mula82fd06up2333'),$);
#193=IFCPROPERTYSET('3ugCtNElWiqW1FB3olvs35',#6,'OPS_TaskIdentity',$,(#192));
#194=IFCRELDEFINESBYPROPERTIES('1Jn0g7uJ1WmThAfeZ8WPjn',#6,$,$,(#83),#193);
#195=IFCPROPERTYSINGLEVALUE('InternalTaskId',$,IFCTEXT('task-mula82felkun2334'),$);
#196=IFCPROPERTYSET('2$UFY530xaJPiOynRjLhFr',#6,'OPS_TaskIdentity',$,(#195));
#197=IFCRELDEFINESBYPROPERTIES('11362ONTAJXAKtjmGDzIjH',#6,$,$,(#85),#196);
#198=IFCPROPERTYSINGLEVALUE('InternalTaskId',$,IFCTEXT('task-mula82fgn2o12335'),$);
#199=IFCPROPERTYSET('10c589SrKtZU5gf7ICtUaz',#6,'OPS_TaskIdentity',$,(#198));
#200=IFCRELDEFINESBYPROPERTIES('0vaKdhiYT8YBpHChJYWfQC',#6,$,$,(#87),#199);
#201=IFCPROPERTYSINGLEVALUE('InternalTaskId',$,IFCTEXT('task-mula82fibpgj2336'),$);
#202=IFCPROPERTYSET('0hSgds1PZxqRaqY9Jj26F6',#6,'OPS_TaskIdentity',$,(#201));
#203=IFCRELDEFINESBYPROPERTIES('1UpaKRXNdvrn96p4OngzSg',#6,$,$,(#89),#202);
#204=IFCPROPERTYSINGLEVALUE('InternalTaskId',$,IFCTEXT('task-mula82fkpqh02337'),$);
#205=IFCPROPERTYSET('2nYK5tZ082Oo3tDWnrZBSW',#6,'OPS_TaskIdentity',$,(#204));
#206=IFCRELDEFINESBYPROPERTIES('3wskhwe4ZswasUPGjxNKzX',#6,$,$,(#91),#205);
#207=IFCPROPERTYSINGLEVALUE('MilestoneKind',$,IFCLABEL('START'),$);
#208=IFCPROPERTYSET('2aZFJC_Os96gPdWnDBWmu8',#6,'OPS_Milestone',$,(#207));
#209=IFCRELDEFINESBYPROPERTIES('2mz_BJBFf05_K15PbR1WT4',#6,$,$,(#49),#208);
ENDSEC;
END-ISO-10303-21;
