ISO-10303-21;
HEADER;
FILE_DESCRIPTION(('ViewDefinition [SchedulingView]'),'2;1');
FILE_NAME('Cycle Tunnel, Arnhem Station.ifc','2026-09-28T13:27:22',('Marian Bos'),('Tunnel Construction East BV'),'Open Planner Studio 0.1','Open Planner Studio','');
FILE_SCHEMA(('IFC4X3'));
ENDSEC;
DATA;
#1=IFCPERSON($,'Marian Bos',$,$,$,$,$,$);
#2=IFCORGANIZATION($,'Tunnel Construction East BV',$,$,$);
#3=IFCPERSONANDORGANIZATION(#1,#2,$);
#4=IFCORGANIZATION($,'OpenAEC Foundation',$,$,$);
#5=IFCAPPLICATION(#4,'0.2','Open Planner Studio','OPS');
#6=IFCOWNERHISTORY(#3,#5,$,.NOCHANGE.,$,$,$,1790602042);
#7=IFCSIUNIT(*,.LENGTHUNIT.,$,.METRE.);
#8=IFCSIUNIT(*,.TIMEUNIT.,$,.SECOND.);
#9=IFCUNITASSIGNMENT((#7,#8));
#10=IFCCARTESIANPOINT((0.,0.,0.));
#11=IFCAXIS2PLACEMENT3D(#10,$,$);
#12=IFCGEOMETRICREPRESENTATIONCONTEXT($,'Plan',3,1.0E-05,#11,$);
#13=IFCPROJECT('3bSpX8CQ8ShCNaM0FARgRQ',#6,'Cycle Tunnel, Arnhem Station','Underground cycle tunnel beneath a railway yard',$,$,$,(#12),#9);
#14=IFCTIMEPERIOD('07:00:00','16:00:00');
#15=IFCRECURRENCEPATTERN(.WEEKLY.,$,(1,2,3,4,5,6),$,$,$,$,(#14));
#16=IFCWORKTIME('Standard work week',.PREDICTED.,$,#15,$,$);
#17=IFCWORKTIME('New Year''s Day',.PREDICTED.,$,$,'2027-01-01','2027-01-01');
#18=IFCWORKTIME('Good Friday',.PREDICTED.,$,$,'2027-03-26','2027-03-26');
#19=IFCWORKTIME('Easter',.PREDICTED.,$,$,'2027-03-28','2027-03-29');
#20=IFCWORKTIME('King''s Day',.PREDICTED.,$,$,'2027-04-27','2027-04-27');
#21=IFCWORKTIME('Liberation Day',.PREDICTED.,$,$,'2027-05-05','2027-05-05');
#22=IFCWORKTIME('Ascension Day',.PREDICTED.,$,$,'2027-05-06','2027-05-06');
#23=IFCWORKTIME('Whitsun',.PREDICTED.,$,$,'2027-05-16','2027-05-17');
#24=IFCWORKTIME('Christmas',.PREDICTED.,$,$,'2027-12-25','2027-12-26');
#25=IFCWORKTIME('Construction holiday (northern region)',.PREDICTED.,$,$,'2027-07-26','2027-08-15');
#26=IFCWORKTIME('New Year''s Day',.PREDICTED.,$,$,'2028-01-01','2028-01-01');
#27=IFCWORKTIME('Good Friday',.PREDICTED.,$,$,'2028-04-14','2028-04-14');
#28=IFCWORKTIME('Easter',.PREDICTED.,$,$,'2028-04-16','2028-04-17');
#29=IFCWORKTIME('King''s Day',.PREDICTED.,$,$,'2028-04-27','2028-04-27');
#30=IFCWORKTIME('Liberation Day',.PREDICTED.,$,$,'2028-05-05','2028-05-05');
#31=IFCWORKTIME('Ascension Day',.PREDICTED.,$,$,'2028-05-25','2028-05-25');
#32=IFCWORKTIME('Whitsun',.PREDICTED.,$,$,'2028-06-04','2028-06-05');
#33=IFCWORKTIME('Christmas',.PREDICTED.,$,$,'2028-12-25','2028-12-26');
#34=IFCWORKTIME('Construction holiday (northern region)',.PREDICTED.,$,$,'2028-07-24','2028-08-13');
#35=IFCWORKCALENDAR('2d$TeJrZXItg1V79jd5hWA',#6,'Infrastructure calendar Mon-Sat','Infrastructure/hydraulic works: Mon-Sat',$,(#16),(#17,#18,#19,#20,#21,#22,#23,#24,#25,#26,#27,#28,#29,#30,#31,#32,#33,#34),.FIRSTSHIFT.);
#36=IFCPROPERTYSINGLEVALUE('HoursPerDay',$,IFCREAL(8),$);
#37=IFCPROPERTYSET('3$3O$zpNEm9IA1S$3nwArT',#6,'OPS_Calendar',$,(#36));
#38=IFCRELDEFINESBYPROPERTIES('0DGFTgszm0KpvcKWjwD2J_',#6,$,$,(#35),#37);
#39=IFCWORKPLAN('0$Xb8$w3hzAulVJl6Fymj4',#6,'Cycle Tunnel, Arnhem Station','Underground cycle tunnel beneath a railway yard',$,$,'2026-09-28T13:27:22',$,$,$,$,$,'2027-03-01T07:00:00','2027-03-12T07:00:00',.PLANNED.);
#40=IFCWORKSCHEDULE('2AqFd_ZaJQ2f9L2tGlcvSk',#6,'Construction schedule v1.0',$,$,$,'2026-09-28T13:27:22',$,$,$,$,$,'2027-03-01T07:00:00','2027-03-12T07:00:00',.PLANNED.);
#41=IFCRELAGGREGATES('3f4XHIs3V9gp5B4X53HAI0',#6,$,$,#39,(#40));
#42=IFCTASKTIME('1. Preparation Time',.PREDICTED.,$,.WORKTIME.,'P0Y0M27D','2027-03-01T07:00:00','2027-03-05T07:00:00','2027-03-01T07:00:00','2027-04-02T07:00:00','2027-03-01T07:00:00','2027-06-25T07:00:00','P0Y0M0D','P0Y0M0D',.T.,$,$,$,$,$,0.00);
#43=IFCTASK('14UshYUSXOLPGEMJAE4E96',#6,'1. Preparation',$,$,'1',$,$,$,.F.,$,#42,.CONSTRUCTION.);
#44=IFCTASKTIME('Divert cables and pipes Time',.PREDICTED.,$,.WORKTIME.,'P0Y0M8D','2027-03-01T07:00:00','2027-03-10T07:00:00','2027-03-01T07:00:00','2027-03-09T07:00:00','2027-03-01T07:00:00','2027-03-09T07:00:00','P0Y0M0D','P0Y0M0D',.T.,$,$,$,$,$,0.00);
#45=IFCTASK('2KZA6SjwB0CGTKGyaoi8dz',#6,'Divert cables and pipes',$,$,'1.1',$,$,$,.F.,$,#44,.INSTALLATION.);
#46=IFCTASKTIME('Plan track possessions Time',.PREDICTED.,$,.WORKTIME.,'P0Y0M3D','2027-03-01T07:00:00','2027-03-03T07:00:00','2027-03-10T07:00:00','2027-03-12T07:00:00','2027-06-04T07:00:00','2027-06-07T07:00:00','P0Y0M0D','P0Y0M68D',.F.,$,$,$,$,$,0.00);
#47=IFCTASK('12qYEBEZ973$SfUojnXM8L',#6,'Plan track possessions',$,$,'1.2',$,$,$,.F.,$,#46,.ATTENDANCE.);
#48=IFCTASKTIME('Install sheet piling Time',.PREDICTED.,$,.WORKTIME.,'P0Y0M10D','2027-03-01T07:00:00','2027-03-12T07:00:00','2027-03-13T07:00:00','2027-03-24T07:00:00','2027-06-08T07:00:00','2027-06-18T07:00:00','P0Y0M0D','P0Y0M68D',.F.,$,$,$,$,$,0.00);
#49=IFCTASK('2A2fVRhUE0K8JLUWa9$nM5',#6,'Install sheet piling',$,$,'1.3',$,$,$,.F.,$,#48,.CONSTRUCTION.);
#50=IFCTASKTIME('Set up site Time',.PREDICTED.,$,.WORKTIME.,'P0Y0M5D','2027-03-01T07:00:00','2027-03-05T07:00:00','2027-03-25T07:00:00','2027-04-01T07:00:00','2027-06-19T07:00:00','2027-06-24T07:00:00','P0Y0M0D','P0Y0M68D',.F.,$,$,$,$,$,0.00);
#51=IFCTASK('22FZMQ566JUlEA3Eudt3_x',#6,'Set up site',$,$,'1.4',$,$,$,.F.,$,#50,.LOGISTIC.);
#52=IFCTASKTIME('Start of construction Time',.PREDICTED.,$,.WORKTIME.,'P0Y0M0D','2027-03-01T07:00:00','2027-03-01T07:00:00','2027-04-02T07:00:00','2027-04-02T07:00:00','2027-06-25T07:00:00','2027-06-25T07:00:00','P0Y0M68D','P0Y0M68D',.F.,$,$,$,$,$,0.00);
#53=IFCTASK('1umlm$c29nXSb4nTE3QGjV',#6,'Start of construction',$,$,'1.5',$,$,$,.T.,$,#52,.CONSTRUCTION.);
#54=IFCTASKTIME('2. Excavation pit Time',.PREDICTED.,$,.WORKTIME.,'P0Y0M33D','2027-03-01T07:00:00','2027-03-05T07:00:00','2027-03-16T07:00:00','2027-04-24T07:00:00','2027-03-16T07:00:00','2027-06-25T07:00:00','P0Y0M0D','P0Y0M0D',.T.,$,$,$,$,$,0.00);
#55=IFCTASK('2MRraT629jL$JYZOQ1cSgN',#6,'2. Excavation pit',$,$,'2',$,$,$,.F.,$,#54,.CONSTRUCTION.);
#56=IFCTASKTIME('Install struts Time',.PREDICTED.,$,.WORKTIME.,'P0Y0M5D','2027-03-01T07:00:00','2027-03-05T07:00:00','2027-03-16T07:00:00','2027-03-20T07:00:00','2027-03-16T07:00:00','2027-03-20T07:00:00','P0Y0M0D','P0Y0M0D',.T.,$,$,$,$,$,0.00);
#57=IFCTASK('2JCnwZJW8olfve3Z9XzxTP',#6,'Install struts',$,$,'2.1',$,$,$,.F.,$,#56,.CONSTRUCTION.);
#58=IFCTASKTIME('Excavation, phase 1 Time',.PREDICTED.,$,.WORKTIME.,'P0Y0M10D','2027-03-01T07:00:00','2027-03-12T07:00:00','2027-03-22T07:00:00','2027-04-03T07:00:00','2027-05-25T07:00:00','2027-06-04T07:00:00','P0Y0M0D','P0Y0M49D',.F.,$,$,$,$,$,0.00);
#59=IFCTASK('1bi7Pk6gVC5fg9XHNLhI5U',#6,'Excavation, phase 1',$,$,'2.2',$,$,$,.F.,$,#58,.CONSTRUCTION.);
#60=IFCTASKTIME('Excavation, phase 2 Time',.PREDICTED.,$,.WORKTIME.,'P0Y0M8D','2027-03-01T07:00:00','2027-03-10T07:00:00','2027-04-05T07:00:00','2027-04-13T07:00:00','2027-06-05T07:00:00','2027-06-14T07:00:00','P0Y0M0D','P0Y0M49D',.F.,$,$,$,$,$,0.00);
#61=IFCTASK('01$uSy6gr7uA$2GtvkKCht',#6,'Excavation, phase 2',$,$,'2.3',$,$,$,.F.,$,#60,.CONSTRUCTION.);
#62=IFCTASKTIME('Groundwater dewatering Time',.PREDICTED.,$,.WORKTIME.,'P0Y0M5D','2027-03-01T07:00:00','2027-03-05T07:00:00','2027-04-14T07:00:00','2027-04-19T07:00:00','2027-06-15T07:00:00','2027-06-19T07:00:00','P0Y0M0D','P0Y0M49D',.F.,$,$,$,$,$,0.00);
#63=IFCTASK('3wFwdvj727gA6Pny0O59ZI',#6,'Groundwater dewatering',$,$,'2.4',$,$,$,.F.,$,#62,.INSTALLATION.);
#64=IFCTASKTIME('Underwater concrete Time',.PREDICTED.,$,.WORKTIME.,'P0Y0M5D','2027-03-01T07:00:00','2027-03-05T07:00:00','2027-04-20T07:00:00','2027-04-24T07:00:00','2027-06-21T07:00:00','2027-06-25T07:00:00','P0Y0M49D','P0Y0M49D',.F.,$,$,$,$,$,0.00);
#65=IFCTASK('1aDP7S3OJe3v$6yx5XLTzl',#6,'Underwater concrete',$,$,'2.5',$,$,$,.F.,$,#64,.CONSTRUCTION.);
#66=IFCTASKTIME('3. Tunnel structure Time',.PREDICTED.,$,.WORKTIME.,'P0Y0M36D','2027-03-01T07:00:00','2027-03-05T07:00:00','2027-03-18T07:00:00','2027-05-01T07:00:00','2027-03-18T07:00:00','2027-05-01T07:00:00','P0Y0M0D','P0Y0M0D',.T.,$,$,$,$,$,0.00);
#67=IFCTASK('2$bvKiFQy06oTyz3WaeIy5',#6,'3. Tunnel structure',$,$,'3',$,$,$,.F.,$,#66,.CONSTRUCTION.);
#68=IFCTASKTIME('Tunnel box floor Time',.PREDICTED.,$,.WORKTIME.,'P0Y0M8D','2027-03-01T07:00:00','2027-03-10T07:00:00','2027-03-18T07:00:00','2027-03-27T07:00:00','2027-03-18T07:00:00','2027-03-27T07:00:00','P0Y0M0D','P0Y0M0D',.T.,$,$,$,$,$,0.00);
#69=IFCTASK('3TDEazAQN_tzRdraso6Cdm',#6,'Tunnel box floor',$,$,'3.1',$,$,$,.F.,$,#68,.CONSTRUCTION.);
#70=IFCTASKTIME('Tunnel box walls Time',.PREDICTED.,$,.WORKTIME.,'P0Y0M10D','2027-03-01T07:00:00','2027-03-12T07:00:00','2027-03-30T07:00:00','2027-04-09T07:00:00','2027-03-30T07:00:00','2027-04-09T07:00:00','P0Y0M0D','P0Y0M0D',.T.,$,$,$,$,$,0.00);
#71=IFCTASK('0vfs2Mq5IRrJ6gPhy6NF9l',#6,'Tunnel box walls',$,$,'3.2',$,$,$,.F.,$,#70,.CONSTRUCTION.);
#72=IFCTASKTIME('Tunnel box roof Time',.PREDICTED.,$,.WORKTIME.,'P0Y0M8D','2027-03-01T07:00:00','2027-03-10T07:00:00','2027-04-10T07:00:00','2027-04-19T07:00:00','2027-04-10T07:00:00','2027-04-19T07:00:00','P0Y0M0D','P0Y0M0D',.T.,$,$,$,$,$,0.00);
#73=IFCTASK('3TVXkdJd8kF064x6yZ1oCE',#6,'Tunnel box roof',$,$,'3.3',$,$,$,.F.,$,#72,.CONSTRUCTION.);
#74=IFCTASKTIME('Waterproofing Time',.PREDICTED.,$,.WORKTIME.,'P0Y0M5D','2027-03-01T07:00:00','2027-03-05T07:00:00','2027-04-20T07:00:00','2027-04-24T07:00:00','2027-04-20T07:00:00','2027-04-24T07:00:00','P0Y0M0D','P0Y0M0D',.T.,$,$,$,$,$,0.00);
#75=IFCTASK('1X3ynsqj1TiMtNsCuDFYNS',#6,'Waterproofing',$,$,'3.4',$,$,$,.F.,$,#74,.CONSTRUCTION.);
#76=IFCTASKTIME('Backfill and compact Time',.PREDICTED.,$,.WORKTIME.,'P0Y0M5D','2027-03-01T07:00:00','2027-03-05T07:00:00','2027-04-26T07:00:00','2027-05-01T07:00:00','2027-04-26T07:00:00','2027-05-01T07:00:00','P0Y0M0D','P0Y0M0D',.T.,$,$,$,$,$,0.00);
#77=IFCTASK('1gVuaTO2E$fe6$RNMeNwMi',#6,'Backfill and compact',$,$,'3.5',$,$,$,.F.,$,#76,.LOGISTIC.);
#78=IFCTASKTIME('4. Approach ramps Time',.PREDICTED.,$,.WORKTIME.,'P0Y0M16D','2027-03-01T07:00:00','2027-03-05T07:00:00','2027-04-23T07:00:00','2027-05-14T07:00:00','2027-04-23T07:00:00','2027-05-14T07:00:00','P0Y0M0D','P0Y0M0D',.T.,$,$,$,$,$,0.00);
#79=IFCTASK('3uqAOGWOTL8ANXrQyc_TMN',#6,'4. Approach ramps',$,$,'4',$,$,$,.F.,$,#78,.CONSTRUCTION.);
#80=IFCTASKTIME('North approach ramp, concrete works Time',.PREDICTED.,$,.WORKTIME.,'P0Y0M8D','2027-03-01T07:00:00','2027-03-10T07:00:00','2027-04-23T07:00:00','2027-05-03T07:00:00','2027-04-23T07:00:00','2027-05-03T07:00:00','P0Y0M0D','P0Y0M0D',.T.,$,$,$,$,$,0.00);
#81=IFCTASK('26l$uLCsAlWFdgEmMTtnSK',#6,'North approach ramp, concrete works',$,$,'4.1',$,$,$,.F.,$,#80,.CONSTRUCTION.);
#82=IFCTASKTIME('South approach ramp, concrete works Time',.PREDICTED.,$,.WORKTIME.,'P0Y0M8D','2027-03-01T07:00:00','2027-03-10T07:00:00','2027-04-28T07:00:00','2027-05-08T07:00:00','2027-04-28T07:00:00','2027-05-08T07:00:00','P0Y0M0D','P0Y0M0D',.T.,$,$,$,$,$,0.00);
#83=IFCTASK('3zwMavDayWIL_unk9SRXoK',#6,'South approach ramp, concrete works',$,$,'4.2',$,$,$,.F.,$,#82,.CONSTRUCTION.);
#84=IFCTASKTIME('Cycle path ramp Time',.PREDICTED.,$,.WORKTIME.,'P0Y0M5D','2027-03-01T07:00:00','2027-03-05T07:00:00','2027-05-10T07:00:00','2027-05-14T07:00:00','2027-05-10T07:00:00','2027-05-14T07:00:00','P0Y0M0D','P0Y0M0D',.T.,$,$,$,$,$,0.00);
#85=IFCTASK('0J9VPUnnmKfPmBmBCwy5oU',#6,'Cycle path ramp',$,$,'4.3',$,$,$,.F.,$,#84,.CONSTRUCTION.);
#86=IFCTASKTIME('5. Building services & finishing Time',.PREDICTED.,$,.WORKTIME.,'P0Y0M26D','2027-03-01T07:00:00','2027-03-05T07:00:00','2027-05-15T07:00:00','2027-06-15T07:00:00','2027-05-15T07:00:00','2027-06-15T07:00:00','P0Y0M0D','P0Y0M0D',.T.,$,$,$,$,$,0.00);
#87=IFCTASK('14KShSlnshOC1tgH0_D7oL',#6,'5. Building services & finishing',$,$,'5',$,$,$,.F.,$,#86,.CONSTRUCTION.);
#88=IFCTASKTIME('Tunnel lighting Time',.PREDICTED.,$,.WORKTIME.,'P0Y0M5D','2027-03-01T07:00:00','2027-03-05T07:00:00','2027-05-15T07:00:00','2027-05-21T07:00:00','2027-05-15T07:00:00','2027-05-21T07:00:00','P0Y0M0D','P0Y0M0D',.T.,$,$,$,$,$,0.00);
#89=IFCTASK('1$8KviWCW7JZM2BgBfbG5$',#6,'Tunnel lighting',$,$,'5.1',$,$,$,.F.,$,#88,.INSTALLATION.);
#90=IFCTASKTIME('Pump installation Time',.PREDICTED.,$,.WORKTIME.,'P0Y0M5D','2027-03-01T07:00:00','2027-03-05T07:00:00','2027-05-22T07:00:00','2027-05-27T07:00:00','2027-05-22T07:00:00','2027-05-27T07:00:00','P0Y0M0D','P0Y0M0D',.T.,$,$,$,$,$,0.00);
#91=IFCTASK('1amZY2aBD5qvdfe1IPJsXr',#6,'Pump installation',$,$,'5.2',$,$,$,.F.,$,#90,.INSTALLATION.);
#92=IFCTASKTIME('Ventilation Time',.PREDICTED.,$,.WORKTIME.,'P0Y0M3D','2027-03-01T07:00:00','2027-03-03T07:00:00','2027-05-28T07:00:00','2027-05-31T07:00:00','2027-05-28T07:00:00','2027-05-31T07:00:00','P0Y0M0D','P0Y0M0D',.T.,$,$,$,$,$,0.00);
#93=IFCTASK('10$ztAIpiy0KQ2vnnpV9_j',#6,'Ventilation',$,$,'5.3',$,$,$,.F.,$,#92,.INSTALLATION.);
#94=IFCTASKTIME('Tiling and wall finishes Time',.PREDICTED.,$,.WORKTIME.,'P0Y0M8D','2027-03-01T07:00:00','2027-03-10T07:00:00','2027-06-01T07:00:00','2027-06-09T07:00:00','2027-06-01T07:00:00','2027-06-09T07:00:00','P0Y0M0D','P0Y0M0D',.T.,$,$,$,$,$,0.00);
#95=IFCTASK('2oYkFjT6LiKg2ipaQQCY_3',#6,'Tiling and wall finishes',$,$,'5.4',$,$,$,.F.,$,#94,.CONSTRUCTION.);
#96=IFCTASKTIME('Cycle path asphalt Time',.PREDICTED.,$,.WORKTIME.,'P0Y0M3D','2027-03-01T07:00:00','2027-03-03T07:00:00','2027-06-10T07:00:00','2027-06-12T07:00:00','2027-06-10T07:00:00','2027-06-12T07:00:00','P0Y0M0D','P0Y0M0D',.T.,$,$,$,$,$,0.00);
#97=IFCTASK('1CR72rTlNiAQhF0D1LbqBT',#6,'Cycle path asphalt',$,$,'5.5',$,$,$,.F.,$,#96,.CONSTRUCTION.);
#98=IFCTASKTIME('Signage Time',.PREDICTED.,$,.WORKTIME.,'P0Y0M2D','2027-03-01T07:00:00','2027-03-02T07:00:00','2027-06-14T07:00:00','2027-06-15T07:00:00','2027-06-14T07:00:00','2027-06-15T07:00:00','P0Y0M0D','P0Y0M0D',.T.,$,$,$,$,$,0.00);
#99=IFCTASK('0CXlSjpEBNUVRlbJ8FgkmW',#6,'Signage',$,$,'5.6',$,$,$,.F.,$,#98,.INSTALLATION.);
#100=IFCTASKTIME('6. Handover Time',.PREDICTED.,$,.WORKTIME.,'P0Y0M9D','2027-03-01T07:00:00','2027-03-05T07:00:00','2027-06-16T07:00:00','2027-06-25T07:00:00','2027-06-16T07:00:00','2027-06-25T07:00:00','P0Y0M0D','P0Y0M0D',.T.,$,$,$,$,$,0.00);
#101=IFCTASK('340vcAgW4on6EDUg43wiFk',#6,'6. Handover',$,$,'6',$,$,$,.F.,$,#100,.CONSTRUCTION.);
#102=IFCTASKTIME('Reinstate track Time',.PREDICTED.,$,.WORKTIME.,'P0Y0M5D','2027-03-01T07:00:00','2027-03-05T07:00:00','2027-06-16T07:00:00','2027-06-21T07:00:00','2027-06-16T07:00:00','2027-06-21T07:00:00','P0Y0M0D','P0Y0M0D',.T.,$,$,$,$,$,0.00);
#103=IFCTASK('3B305DxbYdkWZ_mPwoqrqK',#6,'Reinstate track',$,$,'6.1',$,$,$,.F.,$,#102,.CONSTRUCTION.);
#104=IFCTASKTIME('Testing and inspection Time',.PREDICTED.,$,.WORKTIME.,'P0Y0M3D','2027-03-01T07:00:00','2027-03-03T07:00:00','2027-06-22T07:00:00','2027-06-24T07:00:00','2027-06-22T07:00:00','2027-06-24T07:00:00','P0Y0M0D','P0Y0M0D',.T.,$,$,$,$,$,0.00);
#105=IFCTASK('0aTyLx$sPDwMKnxiXuppEi',#6,'Testing and inspection',$,$,'6.2',$,$,$,.F.,$,#104,.ATTENDANCE.);
#106=IFCTASKTIME('Tunnel open to traffic Time',.PREDICTED.,$,.WORKTIME.,'P0Y0M0D','2027-03-01T07:00:00','2027-03-01T07:00:00','2027-06-25T07:00:00','2027-06-25T07:00:00','2027-06-25T07:00:00','2027-06-25T07:00:00','P0Y0M0D','P0Y0M0D',.T.,$,$,$,$,$,0.00);
#107=IFCTASK('30HbxFl5ngC$$cIhJ725VO',#6,'Tunnel open to traffic',$,$,'6.3',$,$,$,.T.,$,#106,.CONSTRUCTION.);
#108=IFCRELNESTS('2p58Z5p_9Lf$bdoJYe2s6B',#6,'WBS 1. Preparation',$,#43,( #45,#47,#49,#51,#53));
#109=IFCRELNESTS('0i_qF65T4__p1gSzCn4f0B',#6,'WBS 2. Excavation pit',$,#55,( #57,#59,#61,#63,#65));
#110=IFCRELNESTS('2q2mCcjuY9ENIg4b9$2Mo0',#6,'WBS 3. Tunnel structure',$,#67,( #69,#71,#73,#75,#77));
#111=IFCRELNESTS('1oKADZw$cdZneAGkZgKPh0',#6,'WBS 4. Approach ramps',$,#79,( #81,#83,#85));
#112=IFCRELNESTS('3Xk1PRsxjMBDt2jHjmVXZ8',#6,'WBS 5. Building services & finishing',$,#87,( #89,#91,#93,#95,#97,#99));
#113=IFCRELNESTS('3CX$dY8xJExdY06OyTUBLX',#6,'WBS 6. Handover',$,#101,( #103,#105,#107));
#114=IFCRELNESTS('1yV4maX_cLuhWd2wG2BeIA',#6,'WBS Hoofd',$,#40,(#43,#55,#67,#79,#87,#101));
#115=IFCRELSEQUENCE('0YT9gG5ZW9FshYcriEROh9',#6,$,$,#45,#47,$,.FINISH_START.,$);
#116=IFCRELSEQUENCE('2tVFu_dLxsMSQRPAwBqDnz',#6,$,$,#47,#49,$,.FINISH_START.,$);
#117=IFCRELSEQUENCE('2lRjoPdAv7oe43rK2tmlso',#6,$,$,#49,#51,$,.FINISH_START.,$);
#118=IFCRELSEQUENCE('10O_Ueb8FNX9UekY6EPnUh',#6,$,$,#51,#53,$,.FINISH_START.,$);
#119=IFCRELSEQUENCE('2NNHMYDepaepbfaG3wiQQu',#6,$,$,#57,#59,$,.FINISH_START.,$);
#120=IFCRELSEQUENCE('1yHOBCu$oi4Lmb9BJUhQO0',#6,$,$,#59,#61,$,.FINISH_START.,$);
#121=IFCRELSEQUENCE('3qfLQogKfbEUmsxd2L49AE',#6,$,$,#61,#63,$,.FINISH_START.,$);
#122=IFCRELSEQUENCE('2cF2sO_OSMZwxRcOmzZU58',#6,$,$,#63,#65,$,.FINISH_START.,$);
#123=IFCRELSEQUENCE('3EGT43r9cYFZAszBKKel5j',#6,$,$,#69,#71,$,.FINISH_START.,$);
#124=IFCRELSEQUENCE('3XG4YA2QcoLvYJ7N3L_hSB',#6,$,$,#71,#73,$,.FINISH_START.,$);
#125=IFCRELSEQUENCE('2QR0CSpx2LCUQsyQEK8TpL',#6,$,$,#73,#75,$,.FINISH_START.,$);
#126=IFCRELSEQUENCE('3PSUDuotZa7oyLELaEEoxN',#6,$,$,#75,#77,$,.FINISH_START.,$);
#127=IFCLAGTIME('Lag',.PREDICTED.,$,IFCDURATION('P3D'),.WORKTIME.);
#128=IFCRELSEQUENCE('3AE9bbqruWMeOZT3CAUCa$',#6,$,$,#81,#83,#127,.START_START.,$);
#129=IFCRELSEQUENCE('1i$I4IFsBNQhDAhnPF14it',#6,$,$,#83,#85,$,.FINISH_START.,$);
#130=IFCRELSEQUENCE('2Cf2hHyCz3WmhKB9YaJie5',#6,$,$,#89,#91,$,.FINISH_START.,$);
#131=IFCRELSEQUENCE('2zEBIhIPdbOTsVLutcDswQ',#6,$,$,#91,#93,$,.FINISH_START.,$);
#132=IFCRELSEQUENCE('1nu9Ab5ZxqirCe1en6jWSq',#6,$,$,#93,#95,$,.FINISH_START.,$);
#133=IFCRELSEQUENCE('0qP0xhMszxR4IWK7vq5$3x',#6,$,$,#95,#97,$,.FINISH_START.,$);
#134=IFCRELSEQUENCE('1MHpQIG$fy80wKuFND5ZaY',#6,$,$,#97,#99,$,.FINISH_START.,$);
#135=IFCRELSEQUENCE('1mYWhBKAdNYGcGT4DeZhqc',#6,$,$,#103,#105,$,.FINISH_START.,$);
#136=IFCRELSEQUENCE('0KQ_fjM7zX3dzMB6cezCws',#6,$,$,#105,#107,$,.FINISH_START.,$);
#137=IFCLAGTIME('Lag',.PREDICTED.,$,IFCDURATION('P13D'),.WORKTIME.);
#138=IFCRELSEQUENCE('1bD2BfIHN3UDNAXozOsWcm',#6,$,$,#45,#57,#137,.START_START.,$);
#139=IFCLAGTIME('Lag',.PREDICTED.,$,IFCRATIOMEASURE(0.4),.WORKTIME.);
#140=IFCRELSEQUENCE('04DBUEXYDKWK4mwxEtumEi',#6,$,$,#57,#69,#139,.START_START.,$);
#141=IFCLAGTIME('Lag',.PREDICTED.,$,IFCDURATION('-P7D'),.WORKTIME.);
#142=IFCRELSEQUENCE('3lDR4WI5My5dWXtn$PqbHM',#6,$,$,#77,#81,#141,.FINISH_START.,$);
#143=IFCLAGTIME('Lag',.PREDICTED.,$,IFCDURATION('P2D'),.WORKTIME.);
#144=IFCRELSEQUENCE('0q7S$9eX938_YGSqtLm03G',#6,$,$,#77,#85,#143,.FINISH_FINISH.,$);
#145=IFCRELSEQUENCE('1ivlSFshauzizFW5pxZxEE',#6,$,$,#85,#89,$,.FINISH_START.,$);
#146=IFCRELSEQUENCE('1NmeichN$ifJ2q_ucW6Zgt',#6,$,$,#99,#103,$,.FINISH_START.,$);
#147=IFCRELASSIGNSTOCONTROL('1cc_AIKwWg_10Fa_6dPEib',#6,$,$,(#43,#45,#47,#49,#51,#53,#55,#57,#59,#61,#63,#65,#67,#69,#71,#73,#75,#77,#79,#81,#83,#85,#87,#89,#91,#93,#95,#97,#99,#101,#103,#105,#107),$,#40);
#148=IFCPROPERTYSINGLEVALUE('InternalProjectId',$,IFCTEXT('proj-mula82ghswq62358'),$);
#149=IFCPROPERTYSINGLEVALUE('wbsAutoNumber',$,IFCBOOLEAN(.T.),$);
#150=IFCPROPERTYSINGLEVALUE('DefaultTaskDurationUnit',$,IFCLABEL('days'),$);
#151=IFCPROPERTYSINGLEVALUE('ProjectStartDate',$,IFCDATE('2027-03-01'),$);
#152=IFCPROPERTYSINGLEVALUE('ProjectEndDate',$,$,$);
#153=IFCPROPERTYSINGLEVALUE('CreatedAt',$,IFCTEXT('2026-09-28T13:27:22.481Z'),$);
#154=IFCPROPERTYSINGLEVALUE('ModifiedAt',$,IFCTEXT('2026-09-28T13:27:22.484Z'),$);
#155=IFCPROPERTYSET('1VA6pVIgYXZkTYYgjo9Ov_',#6,'OPS_ProjectSettings',$,(#148,#149,#150,#151,#152,#153,#154));
#156=IFCRELDEFINESBYPROPERTIES('1v5YFhXYfmdUf2jw6ygLvQ',#6,$,$,(#13),#155);
#157=IFCPROPERTYSINGLEVALUE('InternalTaskId',$,IFCTEXT('task-mula82glgd4v2359'),$);
#158=IFCPROPERTYSET('0OpIHrChrj4t_hUMoi2UQs',#6,'OPS_TaskIdentity',$,(#157));
#159=IFCRELDEFINESBYPROPERTIES('0LUzcImWodooK5BB6amPnK',#6,$,$,(#43),#158);
#160=IFCPROPERTYSINGLEVALUE('InternalTaskId',$,IFCTEXT('task-mula82gmoj0s2360'),$);
#161=IFCPROPERTYSET('0QLrkdhGYSJOO$qgbC_LG9',#6,'OPS_TaskIdentity',$,(#160));
#162=IFCRELDEFINESBYPROPERTIES('0yLUmcCYhI$CXeQeJKBItU',#6,$,$,(#45),#161);
#163=IFCPROPERTYSINGLEVALUE('InternalTaskId',$,IFCTEXT('task-mula82goxj312361'),$);
#164=IFCPROPERTYSET('33e7_EkVgeI3IZ4_EvdBT8',#6,'OPS_TaskIdentity',$,(#163));
#165=IFCRELDEFINESBYPROPERTIES('2lQ_LpQFsgF7pyEE_3Z5gS',#6,$,$,(#47),#164);
#166=IFCPROPERTYSINGLEVALUE('InternalTaskId',$,IFCTEXT('task-mula82gpi5fb2362'),$);
#167=IFCPROPERTYSET('2YT1fs2Al5YnPpnEEMZaSQ',#6,'OPS_TaskIdentity',$,(#166));
#168=IFCRELDEFINESBYPROPERTIES('2raAU85CTbjqTQFG6BRB43',#6,$,$,(#49),#167);
#169=IFCPROPERTYSINGLEVALUE('InternalTaskId',$,IFCTEXT('task-mula82grgiqb2363'),$);
#170=IFCPROPERTYSET('0SBxB1szRVH$APuG4bb5Ku',#6,'OPS_TaskIdentity',$,(#169));
#171=IFCRELDEFINESBYPROPERTIES('1ogOhDcycNaW6ExmnCeWuv',#6,$,$,(#51),#170);
#172=IFCPROPERTYSINGLEVALUE('InternalTaskId',$,IFCTEXT('task-mula82gsoo382364'),$);
#173=IFCPROPERTYSET('1QI_z6vHk43iLYXXCt_0M0',#6,'OPS_TaskIdentity',$,(#172));
#174=IFCRELDEFINESBYPROPERTIES('00jLXptMstN0cCG4qEqkrC',#6,$,$,(#53),#173);
#175=IFCPROPERTYSINGLEVALUE('InternalTaskId',$,IFCTEXT('task-mula82gv94n82365'),$);
#176=IFCPROPERTYSET('2oYZcC6lTzK2nhISb_crRH',#6,'OPS_TaskIdentity',$,(#175));
#177=IFCRELDEFINESBYPROPERTIES('1WLK9A7oN4smmSKWqM7lud',#6,$,$,(#55),#176);
#178=IFCPROPERTYSINGLEVALUE('InternalTaskId',$,IFCTEXT('task-mula82gwgnu22366'),$);
#179=IFCPROPERTYSET('1zsf$ZfHe4blK9tFe2xr2v',#6,'OPS_TaskIdentity',$,(#178));
#180=IFCRELDEFINESBYPROPERTIES('1e9cA36p6tPO3DL2dFeW5O',#6,$,$,(#57),#179);
#181=IFCPROPERTYSINGLEVALUE('InternalTaskId',$,IFCTEXT('task-mula82gy67cb2367'),$);
#182=IFCPROPERTYSET('0OHp16hVfmxMZXp6yxJDqQ',#6,'OPS_TaskIdentity',$,(#181));
#183=IFCRELDEFINESBYPROPERTIES('26NXCd7bIH7_cYIdgvcek_',#6,$,$,(#59),#182);
#184=IFCPROPERTYSINGLEVALUE('InternalTaskId',$,IFCTEXT('task-mula82gzn0ts2368'),$);
#185=IFCPROPERTYSET('091iOVyPtxu0bCUbvhQ8SY',#6,'OPS_TaskIdentity',$,(#184));
#186=IFCRELDEFINESBYPROPERTIES('09Fe1rZYPm8qYpPlH5Xh$m',#6,$,$,(#61),#185);
#187=IFCPROPERTYSINGLEVALUE('InternalTaskId',$,IFCTEXT('task-mula82h10ldu2369'),$);
#188=IFCPROPERTYSET('2wwBSJgcrTBkSjtFuJRLCf',#6,'OPS_TaskIdentity',$,(#187));
#189=IFCRELDEFINESBYPROPERTIES('2ln6rontUDRuKan5wj36dH',#6,$,$,(#63),#188);
#190=IFCPROPERTYSINGLEVALUE('InternalTaskId',$,IFCTEXT('task-mula82h38kcm2370'),$);
#191=IFCPROPERTYSET('2gSEco6YYGpv1woLtIKSu0',#6,'OPS_TaskIdentity',$,(#190));
#192=IFCRELDEFINESBYPROPERTIES('3RdZPFsqKMVKDg9eodwL8N',#6,$,$,(#65),#191);
#193=IFCPROPERTYSINGLEVALUE('InternalTaskId',$,IFCTEXT('task-mula82h4dxhr2371'),$);
#194=IFCPROPERTYSET('1ffpx2TnAp2soleriokqJq',#6,'OPS_TaskIdentity',$,(#193));
#195=IFCRELDEFINESBYPROPERTIES('3h1ItqSLYjdoVgZseUc7UQ',#6,$,$,(#67),#194);
#196=IFCPROPERTYSINGLEVALUE('InternalTaskId',$,IFCTEXT('task-mula82h5pr3t2372'),$);
#197=IFCPROPERTYSET('08b0XO2xzsKgNiPnXtHdb0',#6,'OPS_TaskIdentity',$,(#196));
#198=IFCRELDEFINESBYPROPERTIES('0FmPFEwIkLoPFv_Ftl$jnL',#6,$,$,(#69),#197);
#199=IFCPROPERTYSINGLEVALUE('InternalTaskId',$,IFCTEXT('task-mula82h7btsn2373'),$);
#200=IFCPROPERTYSET('3eVsXSq3RTLSkVTzqWhJbL',#6,'OPS_TaskIdentity',$,(#199));
#201=IFCRELDEFINESBYPROPERTIES('2pj7GwFSUUfJpGnMiV1dIp',#6,$,$,(#71),#200);
#202=IFCPROPERTYSINGLEVALUE('InternalTaskId',$,IFCTEXT('task-mula82h8rrcb2374'),$);
#203=IFCPROPERTYSET('3niFPs2EumHHSbEGCBEBy6',#6,'OPS_TaskIdentity',$,(#202));
#204=IFCRELDEFINESBYPROPERTIES('2xxTu18I7GwUWWW8l507H4',#6,$,$,(#73),#203);
#205=IFCPROPERTYSINGLEVALUE('InternalTaskId',$,IFCTEXT('task-mula82hapq2n2375'),$);
#206=IFCPROPERTYSET('2Nycm3FTuyPxROH9RgRg3v',#6,'OPS_TaskIdentity',$,(#205));
#207=IFCRELDEFINESBYPROPERTIES('19QbJso8RoI$KlKa9HSOnU',#6,$,$,(#75),#206);
#208=IFCPROPERTYSINGLEVALUE('InternalTaskId',$,IFCTEXT('task-mula82hbcnw92376'),$);
#209=IFCPROPERTYSET('3ShC$cjIBjhNKrVPt$Kklx',#6,'OPS_TaskIdentity',$,(#208));
#210=IFCRELDEFINESBYPROPERTIES('1SUY3PMIU2mrTN4EnCKHY5',#6,$,$,(#77),#209);
#211=IFCPROPERTYSINGLEVALUE('InternalTaskId',$,IFCTEXT('task-mula82hd8q8f2377'),$);
#212=IFCPROPERTYSET('1manSNoal_6FZDeIaq1603',#6,'OPS_TaskIdentity',$,(#211));
#213=IFCRELDEFINESBYPROPERTIES('2YZD4HU_SzrkjA36JG58fo',#6,$,$,(#79),#212);
#214=IFCPROPERTYSINGLEVALUE('InternalTaskId',$,IFCTEXT('task-mula82hhmn7b2378'),$);
#215=IFCPROPERTYSET('1yvkMdxzFnSwWwPI4tpxEE',#6,'OPS_TaskIdentity',$,(#214));
#216=IFCRELDEFINESBYPROPERTIES('1L9HBfbys2wqme5mAqdwBf',#6,$,$,(#81),#215);
#217=IFCPROPERTYSINGLEVALUE('InternalTaskId',$,IFCTEXT('task-mula82hju0xd2379'),$);
#218=IFCPROPERTYSET('3IML2GwpnPWht_tJzkeQ9x',#6,'OPS_TaskIdentity',$,(#217));
#219=IFCRELDEFINESBYPROPERTIES('3m5QtSE44JCeptBX6qzWb3',#6,$,$,(#83),#218);
#220=IFCPROPERTYSINGLEVALUE('InternalTaskId',$,IFCTEXT('task-mula82hlitua2380'),$);
#221=IFCPROPERTYSET('1ZuMS5GMtf3_AMupNnHAAT',#6,'OPS_TaskIdentity',$,(#220));
#222=IFCRELDEFINESBYPROPERTIES('3Eu3ae$HnD505$8c$ePX59',#6,$,$,(#85),#221);
#223=IFCPROPERTYSINGLEVALUE('InternalTaskId',$,IFCTEXT('task-mula82hn1du82381'),$);
#224=IFCPROPERTYSET('1iT$khgv9UT86sLx8LmUkS',#6,'OPS_TaskIdentity',$,(#223));
#225=IFCRELDEFINESBYPROPERTIES('1BDubse3Cfw$pTnSXQjrr9',#6,$,$,(#87),#224);
#226=IFCPROPERTYSINGLEVALUE('InternalTaskId',$,IFCTEXT('task-mula82houn312382'),$);
#227=IFCPROPERTYSET('2eIQWLiubswQyyb_MUC_df',#6,'OPS_TaskIdentity',$,(#226));
#228=IFCRELDEFINESBYPROPERTIES('0BPSkflF3ErUklr5Z$3ig7',#6,$,$,(#89),#227);
#229=IFCPROPERTYSINGLEVALUE('InternalTaskId',$,IFCTEXT('task-mula82hq55lf2383'),$);
#230=IFCPROPERTYSET('0aBcgBm2U0UNRs9WD9cory',#6,'OPS_TaskIdentity',$,(#229));
#231=IFCRELDEFINESBYPROPERTIES('1DtIA3DFsRDI_k4p4gIBcN',#6,$,$,(#91),#230);
#232=IFCPROPERTYSINGLEVALUE('InternalTaskId',$,IFCTEXT('task-mula82hs4ycb2384'),$);
#233=IFCPROPERTYSET('0RtEfizhnrRtFoXc578O4m',#6,'OPS_TaskIdentity',$,(#232));
#234=IFCRELDEFINESBYPROPERTIES('0PByVYVsvWi6prhoB2ruz7',#6,$,$,(#93),#233);
#235=IFCPROPERTYSINGLEVALUE('InternalTaskId',$,IFCTEXT('task-mula82hue3at2385'),$);
#236=IFCPROPERTYSET('2z$wN0Xgcbht2RWWwBjzl6',#6,'OPS_TaskIdentity',$,(#235));
#237=IFCRELDEFINESBYPROPERTIES('3jrSQmckMFyeSJuq6j6N5H',#6,$,$,(#95),#236);
#238=IFCPROPERTYSINGLEVALUE('InternalTaskId',$,IFCTEXT('task-mula82hvusze2386'),$);
#239=IFCPROPERTYSET('2x3NDylAPndZh2SX9ef5Rg',#6,'OPS_TaskIdentity',$,(#238));
#240=IFCRELDEFINESBYPROPERTIES('1Acogd67H3LwN6ysHB5UkU',#6,$,$,(#97),#239);
#241=IFCPROPERTYSINGLEVALUE('InternalTaskId',$,IFCTEXT('task-mula82hx1jy62387'),$);
#242=IFCPROPERTYSET('0LdJhZCnpHJG8tGKJ$MR8B',#6,'OPS_TaskIdentity',$,(#241));
#243=IFCRELDEFINESBYPROPERTIES('1Wd9Ivbgx6Cc5gRvbZ33rE',#6,$,$,(#99),#242);
#244=IFCPROPERTYSINGLEVALUE('InternalTaskId',$,IFCTEXT('task-mula82hzyu8z2388'),$);
#245=IFCPROPERTYSET('2$Um7XWraibqsjTXTJFGBP',#6,'OPS_TaskIdentity',$,(#244));
#246=IFCRELDEFINESBYPROPERTIES('0vB4KhzwA7gyLjPIj4HIlW',#6,$,$,(#101),#245);
#247=IFCPROPERTYSINGLEVALUE('InternalTaskId',$,IFCTEXT('task-mula82i1ezj72389'),$);
#248=IFCPROPERTYSET('2_9tUhXON6zSsAA1hD5CRm',#6,'OPS_TaskIdentity',$,(#247));
#249=IFCRELDEFINESBYPROPERTIES('3nZdtTfwQDaLYkSPrgKtdO',#6,$,$,(#103),#248);
#250=IFCPROPERTYSINGLEVALUE('InternalTaskId',$,IFCTEXT('task-mula82i3f69d2390'),$);
#251=IFCPROPERTYSET('0EDFIMbCx2fxji$uozK1sY',#6,'OPS_TaskIdentity',$,(#250));
#252=IFCRELDEFINESBYPROPERTIES('0fSUw0d1Pm7_c_1b8NefxS',#6,$,$,(#105),#251);
#253=IFCPROPERTYSINGLEVALUE('InternalTaskId',$,IFCTEXT('task-mula82i5qshd2391'),$);
#254=IFCPROPERTYSET('0z8A6ThAtvjfWbC9ewUpct',#6,'OPS_TaskIdentity',$,(#253));
#255=IFCRELDEFINESBYPROPERTIES('1baanzSdMXCy366xd_FUDY',#6,$,$,(#107),#254);
#256=IFCPROPERTYSINGLEVALUE('MilestoneKind',$,IFCLABEL('START'),$);
#257=IFCPROPERTYSET('08Zpj0QEDjNHylSQ$VqBjR',#6,'OPS_Milestone',$,(#256));
#258=IFCRELDEFINESBYPROPERTIES('1GLi$7UktqClP4J7YlijPG',#6,$,$,(#53),#257);
ENDSEC;
END-ISO-10303-21;
