ISO-10303-21;
HEADER;
FILE_DESCRIPTION(('ViewDefinition [SchedulingView]'),'2;1');
FILE_NAME('Markermeerdijk Dike Reinforcement.ifc','2026-09-28T13:27:23',('Dirk Waterschap'),('Hydraulic Engineering Holland BV'),'Open Planner Studio 0.1','Open Planner Studio','');
FILE_SCHEMA(('IFC4X3'));
ENDSEC;
DATA;
#1=IFCPERSON($,'Dirk Waterschap',$,$,$,$,$,$);
#2=IFCORGANIZATION($,'Hydraulic Engineering Holland BV',$,$,$);
#3=IFCPERSONANDORGANIZATION(#1,#2,$);
#4=IFCORGANIZATION($,'OpenAEC Foundation',$,$,$);
#5=IFCAPPLICATION(#4,'0.2','Open Planner Studio','OPS');
#6=IFCOWNERHISTORY(#3,#5,$,.NOCHANGE.,$,$,$,1790602043);
#7=IFCSIUNIT(*,.LENGTHUNIT.,$,.METRE.);
#8=IFCSIUNIT(*,.TIMEUNIT.,$,.SECOND.);
#9=IFCUNITASSIGNMENT((#7,#8));
#10=IFCCARTESIANPOINT((0.,0.,0.));
#11=IFCAXIS2PLACEMENT3D(#10,$,$);
#12=IFCGEOMETRICREPRESENTATIONCONTEXT($,'Plan',3,1.0E-05,#11,$);
#13=IFCPROJECT('3YKCsfH7S4X4sX4NFESe4q',#6,'Markermeerdijk Dike Reinforcement','Dike reinforcement over a 5 km stretch, Hoorn-Amsterdam',$,$,$,(#12),#9);
#14=IFCTIMEPERIOD('07:00:00','16:00:00');
#15=IFCRECURRENCEPATTERN(.WEEKLY.,$,(1,2,3,4,5,6),$,$,$,$,(#14));
#16=IFCWORKTIME('Standard work week',.PREDICTED.,$,#15,$,$);
#17=IFCWORKTIME('New Year''s Day',.PREDICTED.,$,$,'2027-01-01','2027-01-01');
#18=IFCWORKTIME('Good Friday',.PREDICTED.,$,$,'2027-03-26','2027-03-26');
#19=IFCWORKTIME('Easter',.PREDICTED.,$,$,'2027-03-28','2027-03-29');
#20=IFCWORKTIME('King''s Day',.PREDICTED.,$,$,'2027-04-27','2027-04-27');
#21=IFCWORKTIME('Liberation Day',.PREDICTED.,$,$,'2027-05-05','2027-05-05');
#22=IFCWORKTIME('Ascension Day',.PREDICTED.,$,$,'2027-05-06','2027-05-06');
#23=IFCWORKTIME('Whitsun',.PREDICTED.,$,$,'2027-05-16','2027-05-17');
#24=IFCWORKTIME('Christmas',.PREDICTED.,$,$,'2027-12-25','2027-12-26');
#25=IFCWORKTIME('Construction holiday (northern region)',.PREDICTED.,$,$,'2027-07-26','2027-08-15');
#26=IFCWORKTIME('New Year''s Day',.PREDICTED.,$,$,'2028-01-01','2028-01-01');
#27=IFCWORKTIME('Good Friday',.PREDICTED.,$,$,'2028-04-14','2028-04-14');
#28=IFCWORKTIME('Easter',.PREDICTED.,$,$,'2028-04-16','2028-04-17');
#29=IFCWORKTIME('King''s Day',.PREDICTED.,$,$,'2028-04-27','2028-04-27');
#30=IFCWORKTIME('Liberation Day',.PREDICTED.,$,$,'2028-05-05','2028-05-05');
#31=IFCWORKTIME('Ascension Day',.PREDICTED.,$,$,'2028-05-25','2028-05-25');
#32=IFCWORKTIME('Whitsun',.PREDICTED.,$,$,'2028-06-04','2028-06-05');
#33=IFCWORKTIME('Christmas',.PREDICTED.,$,$,'2028-12-25','2028-12-26');
#34=IFCWORKTIME('Construction holiday (northern region)',.PREDICTED.,$,$,'2028-07-24','2028-08-13');
#35=IFCWORKCALENDAR('3Bf8FTf2g0wMa2HF$XkPzk',#6,'Infrastructure calendar Mon-Sat','Infrastructure/hydraulic works: Mon-Sat',$,(#16),(#17,#18,#19,#20,#21,#22,#23,#24,#25,#26,#27,#28,#29,#30,#31,#32,#33,#34),.FIRSTSHIFT.);
#36=IFCPROPERTYSINGLEVALUE('HoursPerDay',$,IFCREAL(8),$);
#37=IFCPROPERTYSET('09rleKDehMeKuFeB3zJf3Q',#6,'OPS_Calendar',$,(#36));
#38=IFCRELDEFINESBYPROPERTIES('2kREWrfZo3uQI8j3r6q3fC',#6,$,$,(#35),#37);
#39=IFCWORKPLAN('1Rr8cPZhBcltxt68AmP6Gu',#6,'Markermeerdijk Dike Reinforcement','Dike reinforcement over a 5 km stretch, Hoorn-Amsterdam',$,$,'2026-09-28T13:27:23',$,$,$,$,$,'2027-03-01T07:00:00','2027-03-26T07:00:00',.PLANNED.);
#40=IFCWORKSCHEDULE('3WqoyxCXP6kTOeaHzIXdGR',#6,'Construction schedule v1.0',$,$,$,'2026-09-28T13:27:23',$,$,$,$,$,'2027-03-01T07:00:00','2027-03-26T07:00:00',.PLANNED.);
#41=IFCRELAGGREGATES('09scAWi4xbtRWc2mGpba57',#6,$,$,#39,(#40));
#42=IFCTASKTIME('1. Preparation Time',.PREDICTED.,$,.WORKTIME.,'P0Y0M36D','2027-03-01T07:00:00','2027-03-05T07:00:00','2027-03-01T07:00:00','2027-04-13T07:00:00','2027-03-01T07:00:00','2027-10-23T07:00:00','P0Y0M0D','P0Y0M0D',.T.,$,$,$,$,$,0.00);
#43=IFCTASK('28p_MZqI_GAz6knirYZ9Yk',#6,'1. Preparation',$,$,'1',$,$,$,.F.,$,#42,.CONSTRUCTION.);
#44=IFCTASKTIME('Ecological survey Time',.PREDICTED.,$,.WORKTIME.,'P0Y0M10D','2027-03-01T07:00:00','2027-03-12T07:00:00','2027-03-01T07:00:00','2027-03-11T07:00:00','2027-03-01T07:00:00','2027-03-11T07:00:00','P0Y0M0D','P0Y0M0D',.T.,$,$,$,$,$,0.00);
#45=IFCTASK('0_lW0tQ$5H8DFk2$fxg7Oi',#6,'Ecological survey',$,$,'1.1',$,$,$,.F.,$,#44,.ATTENDANCE.);
#46=IFCTASKTIME('Water management permits Time',.PREDICTED.,$,.WORKTIME.,'P0Y0M5D','2027-03-01T07:00:00','2027-03-05T07:00:00','2027-03-12T07:00:00','2027-03-17T07:00:00','2027-09-24T07:00:00','2027-09-29T07:00:00','P0Y0M0D','P0Y0M144D',.F.,$,$,$,$,$,0.00);
#47=IFCTASK('0PKURJosuoHV0VKKIXdjEj',#6,'Water management permits',$,$,'1.2',$,$,$,.F.,$,#46,.ATTENDANCE.);
#48=IFCTASKTIME('Complete land acquisition Time',.PREDICTED.,$,.WORKTIME.,'P0Y0M5D','2027-03-01T07:00:00','2027-03-05T07:00:00','2027-03-18T07:00:00','2027-03-23T07:00:00','2027-09-30T07:00:00','2027-10-05T07:00:00','P0Y0M0D','P0Y0M144D',.F.,$,$,$,$,$,0.00);
#49=IFCTASK('08Q41cCPwvNjfC3qRZDJbs',#6,'Complete land acquisition',$,$,'1.3',$,$,$,.F.,$,#48,.ATTENDANCE.);
#50=IFCTASKTIME('Construct site roads Time',.PREDICTED.,$,.WORKTIME.,'P0Y0M10D','2027-03-01T07:00:00','2027-03-12T07:00:00','2027-03-24T07:00:00','2027-04-06T07:00:00','2027-10-06T07:00:00','2027-10-16T07:00:00','P0Y0M0D','P0Y0M144D',.F.,$,$,$,$,$,0.00);
#51=IFCTASK('0UqRWQX6ElGD$nRj3FmgSm',#6,'Construct site roads',$,$,'1.4',$,$,$,.F.,$,#50,.CONSTRUCTION.);
#52=IFCTASKTIME('Set up depots Time',.PREDICTED.,$,.WORKTIME.,'P0Y0M5D','2027-03-01T07:00:00','2027-03-05T07:00:00','2027-04-07T07:00:00','2027-04-12T07:00:00','2027-10-18T07:00:00','2027-10-22T07:00:00','P0Y0M0D','P0Y0M144D',.F.,$,$,$,$,$,0.00);
#53=IFCTASK('2dUg294VKNNlShD9l0Uj3D',#6,'Set up depots',$,$,'1.5',$,$,$,.F.,$,#52,.LOGISTIC.);
#54=IFCTASKTIME('Start of works Time',.PREDICTED.,$,.WORKTIME.,'P0Y0M0D','2027-03-01T07:00:00','2027-03-01T07:00:00','2027-04-13T07:00:00','2027-04-13T07:00:00','2027-10-23T07:00:00','2027-10-23T07:00:00','P0Y0M144D','P0Y0M144D',.F.,$,$,$,$,$,0.00);
#55=IFCTASK('2ADKEg_mXFtS3$Zel0IK3J',#6,'Start of works',$,$,'1.6',$,$,$,.T.,$,#54,.CONSTRUCTION.);
#56=IFCTASKTIME('2. Preloading Time',.PREDICTED.,$,.WORKTIME.,'P0Y0M60D','2027-03-01T07:00:00','2027-03-05T07:00:00','2027-03-22T07:00:00','2027-06-05T07:00:00','2027-03-22T07:00:00','2027-10-23T07:00:00','P0Y0M0D','P0Y0M0D',.T.,$,$,$,$,$,0.00);
#57=IFCTASK('3Q3It$7Pd63IY_xUuEm1gu',#6,'2. Preloading',$,$,'2',$,$,$,.F.,$,#56,.CONSTRUCTION.);
#58=IFCTASKTIME('Deliver soil to depot Time',.PREDICTED.,$,.WORKTIME.,'P0Y0M15D','2027-03-01T07:00:00','2027-03-19T07:00:00','2027-03-22T07:00:00','2027-04-09T07:00:00','2027-03-22T07:00:00','2027-04-09T07:00:00','P0Y0M0D','P0Y0M0D',.T.,$,$,$,$,$,0.00);
#59=IFCTASK('0NngcfMqnzd9$xDg2Sakg3',#6,'Deliver soil to depot',$,$,'2.1',$,$,$,.F.,$,#58,.LOGISTIC.);
#60=IFCTASKTIME('Preloading, km 0-1 Time',.PREDICTED.,$,.WORKTIME.,'P0Y0M10D','2027-03-01T07:00:00','2027-03-12T07:00:00','2027-04-10T07:00:00','2027-04-21T07:00:00','2027-09-02T07:00:00','2027-09-13T07:00:00','P0Y0M0D','P0Y0M102D',.F.,$,$,$,$,$,0.00);
#61=IFCTASK('1S_Q174Aa33Iss6op$g3ip',#6,'Preloading, km 0-1',$,$,'2.2',$,$,$,.F.,$,#60,.CONSTRUCTION.);
#62=IFCTASKTIME('Preloading, km 1-2 Time',.PREDICTED.,$,.WORKTIME.,'P0Y0M10D','2027-03-01T07:00:00','2027-03-12T07:00:00','2027-04-16T07:00:00','2027-04-28T07:00:00','2027-09-08T07:00:00','2027-09-18T07:00:00','P0Y0M0D','P0Y0M102D',.F.,$,$,$,$,$,0.00);
#63=IFCTASK('3HfBj0HcL5DecbXcMG9Gqt',#6,'Preloading, km 1-2',$,$,'2.3',$,$,$,.F.,$,#62,.CONSTRUCTION.);
#64=IFCTASKTIME('Preloading, km 2-3 Time',.PREDICTED.,$,.WORKTIME.,'P0Y0M10D','2027-03-01T07:00:00','2027-03-12T07:00:00','2027-04-29T07:00:00','2027-05-12T07:00:00','2027-09-20T07:00:00','2027-09-30T07:00:00','P0Y0M0D','P0Y0M102D',.F.,$,$,$,$,$,0.00);
#65=IFCTASK('0r3tSqXlR8rKD_XuqrqiQe',#6,'Preloading, km 2-3',$,$,'2.4',$,$,$,.F.,$,#64,.CONSTRUCTION.);
#66=IFCTASKTIME('Await settlement period Time',.PREDICTED.,$,.WORKTIME.,'P0Y0M20D','2027-03-01T07:00:00','2027-03-26T07:00:00','2027-05-13T07:00:00','2027-06-05T07:00:00','2027-10-01T07:00:00','2027-10-23T07:00:00','P0Y0M0D','P0Y0M102D',.F.,$,$,$,$,$,0.00);
#67=IFCTASK('0aNp1$6WliJXDYwzXzorCS',#6,'Await settlement period',$,$,'2.5',$,$,$,.F.,$,#66,.CONSTRUCTION.);
#68=IFCTASKTIME('Settlement monitoring Time',.PREDICTED.,$,.WORKTIME.,'P0Y0M20D','2027-03-01T07:00:00','2027-03-26T07:00:00','2027-05-13T07:00:00','2027-06-05T07:00:00','2027-10-01T07:00:00','2027-10-23T07:00:00','P0Y0M102D','P0Y0M102D',.F.,$,$,$,$,$,0.00);
#69=IFCTASK('04jKU04qiWaJbpEs0VjoFI',#6,'Settlement monitoring',$,$,'2.6',$,$,$,.F.,$,#68,.ATTENDANCE.);
#70=IFCTASKTIME('3. Embankment Time',.PREDICTED.,$,.WORKTIME.,'P0Y0M65D','2027-03-01T07:00:00','2027-03-05T07:00:00','2027-03-31T07:00:00','2027-06-18T07:00:00','2027-03-31T07:00:00','2027-06-18T07:00:00','P0Y0M0D','P0Y0M0D',.T.,$,$,$,$,$,0.00);
#71=IFCTASK('10Ka5V2SXJbs99AzCOIZlL',#6,'3. Embankment',$,$,'3',$,$,$,.F.,$,#70,.CONSTRUCTION.);
#72=IFCTASKTIME('Remove preloading Time',.PREDICTED.,$,.WORKTIME.,'P0Y0M10D','2027-03-01T07:00:00','2027-03-12T07:00:00','2027-03-31T07:00:00','2027-04-10T07:00:00','2027-03-31T07:00:00','2027-04-10T07:00:00','P0Y0M0D','P0Y0M0D',.T.,$,$,$,$,$,0.00);
#73=IFCTASK('1AlSi1H2jnitCDJqzWXaxw',#6,'Remove preloading',$,$,'3.1',$,$,$,.F.,$,#72,.CONSTRUCTION.);
#74=IFCTASKTIME('Install geotextile Time',.PREDICTED.,$,.WORKTIME.,'P0Y0M8D','2027-03-01T07:00:00','2027-03-10T07:00:00','2027-04-12T07:00:00','2027-04-20T07:00:00','2027-04-12T07:00:00','2027-04-20T07:00:00','P0Y0M0D','P0Y0M0D',.T.,$,$,$,$,$,0.00);
#75=IFCTASK('2OoSKRNM5RWJQlx23BoYgN',#6,'Install geotextile',$,$,'3.2',$,$,$,.F.,$,#74,.CONSTRUCTION.);
#76=IFCTASKTIME('Build up clay core, km 0-2 Time',.PREDICTED.,$,.WORKTIME.,'P0Y0M15D','2027-03-01T07:00:00','2027-03-19T07:00:00','2027-04-21T07:00:00','2027-05-11T07:00:00','2027-04-21T07:00:00','2027-05-11T07:00:00','P0Y0M0D','P0Y0M0D',.T.,$,$,$,$,$,0.00);
#77=IFCTASK('3BTBx_lRi6M9TKGgLR8tCy',#6,'Build up clay core, km 0-2',$,$,'3.3',$,$,$,.F.,$,#76,.CONSTRUCTION.);
#78=IFCTASKTIME('Build up clay core, km 2-5 Time',.PREDICTED.,$,.WORKTIME.,'P0Y0M15D','2027-03-01T07:00:00','2027-03-19T07:00:00','2027-05-12T07:00:00','2027-05-29T07:00:00','2027-05-12T07:00:00','2027-05-29T07:00:00','P0Y0M0D','P0Y0M0D',.T.,$,$,$,$,$,0.00);
#79=IFCTASK('2xj04QjRDQj$NKEJleRxd2',#6,'Build up clay core, km 2-5',$,$,'3.4',$,$,$,.F.,$,#78,.CONSTRUCTION.);
#80=IFCTASKTIME('Place sand core Time',.PREDICTED.,$,.WORKTIME.,'P0Y0M12D','2027-03-01T07:00:00','2027-03-16T07:00:00','2027-05-31T07:00:00','2027-06-12T07:00:00','2027-05-31T07:00:00','2027-06-12T07:00:00','P0Y0M0D','P0Y0M0D',.T.,$,$,$,$,$,0.00);
#81=IFCTASK('1rZowrLro5MH4zOfNlLJNb',#6,'Place sand core',$,$,'3.5',$,$,$,.F.,$,#80,.CONSTRUCTION.);
#82=IFCTASKTIME('Survey profile check Time',.PREDICTED.,$,.WORKTIME.,'P0Y0M5D','2027-03-01T07:00:00','2027-03-05T07:00:00','2027-06-14T07:00:00','2027-06-18T07:00:00','2027-06-14T07:00:00','2027-06-18T07:00:00','P0Y0M0D','P0Y0M0D',.T.,$,$,$,$,$,0.00);
#83=IFCTASK('2r_QuEDYOlE13q3w21mGFY',#6,'Survey profile check',$,$,'3.6',$,$,$,.F.,$,#82,.ATTENDANCE.);
#84=IFCTASKTIME('4. Revetment & erosion protection Time',.PREDICTED.,$,.WORKTIME.,'P0Y0M40D','2027-03-01T07:00:00','2027-03-05T07:00:00','2027-06-04T07:00:00','2027-07-20T07:00:00','2027-06-04T07:00:00','2027-07-20T07:00:00','P0Y0M0D','P0Y0M0D',.T.,$,$,$,$,$,0.00);
#85=IFCTASK('0V9q1r8cGVUgbbgXSKdJSb',#6,'4. Revetment & erosion protection',$,$,'4',$,$,$,.F.,$,#84,.CONSTRUCTION.);
#86=IFCTASKTIME('Stone revetment, inner slope Time',.PREDICTED.,$,.WORKTIME.,'P0Y0M12D','2027-03-01T07:00:00','2027-03-16T07:00:00','2027-06-04T07:00:00','2027-06-17T07:00:00','2027-06-04T07:00:00','2027-06-17T07:00:00','P0Y0M0D','P0Y0M0D',.T.,$,$,$,$,$,0.00);
#87=IFCTASK('3uig0RrPSVCELHyG8uynSv',#6,'Stone revetment, inner slope',$,$,'4.1',$,$,$,.F.,$,#86,.CONSTRUCTION.);
#88=IFCTASKTIME('Grass cover, outer slope Time',.PREDICTED.,$,.WORKTIME.,'P0Y0M10D','2027-03-01T07:00:00','2027-03-12T07:00:00','2027-06-18T07:00:00','2027-06-29T07:00:00','2027-06-18T07:00:00','2027-06-29T07:00:00','P0Y0M0D','P0Y0M0D',.T.,$,$,$,$,$,0.00);
#89=IFCTASK('0nwy1klLq_NkLqZLce_6BS',#6,'Grass cover, outer slope',$,$,'4.2',$,$,$,.F.,$,#88,.CONSTRUCTION.);
#90=IFCTASKTIME('Toe structure, waterside Time',.PREDICTED.,$,.WORKTIME.,'P0Y0M10D','2027-03-01T07:00:00','2027-03-12T07:00:00','2027-06-30T07:00:00','2027-07-10T07:00:00','2027-06-30T07:00:00','2027-07-10T07:00:00','P0Y0M0D','P0Y0M0D',.T.,$,$,$,$,$,0.00);
#91=IFCTASK('0LbT_yeVK$DOZNt5_Z89kP',#6,'Toe structure, waterside',$,$,'4.3',$,$,$,.F.,$,#90,.CONSTRUCTION.);
#92=IFCTASKTIME('Place toe protection berm Time',.PREDICTED.,$,.WORKTIME.,'P0Y0M8D','2027-03-01T07:00:00','2027-03-10T07:00:00','2027-07-12T07:00:00','2027-07-20T07:00:00','2027-07-12T07:00:00','2027-07-20T07:00:00','P0Y0M0D','P0Y0M0D',.T.,$,$,$,$,$,0.00);
#93=IFCTASK('3dDCCTSSDDlizEP4F78uVp',#6,'Place toe protection berm',$,$,'4.4',$,$,$,.F.,$,#92,.CONSTRUCTION.);
#94=IFCTASKTIME('5. Civil structures Time',.PREDICTED.,$,.WORKTIME.,'P0Y0M31D','2027-03-01T07:00:00','2027-03-05T07:00:00','2027-07-21T07:00:00','2027-09-15T07:00:00','2027-07-21T07:00:00','2027-09-15T07:00:00','P0Y0M0D','P0Y0M0D',.T.,$,$,$,$,$,0.00);
#95=IFCTASK('2X5me5mfb14eGvv3A$opkS',#6,'5. Civil structures',$,$,'5',$,$,$,.F.,$,#94,.CONSTRUCTION.);
#96=IFCTASKTIME('Culvert renovation Time',.PREDICTED.,$,.WORKTIME.,'P0Y0M10D','2027-03-01T07:00:00','2027-03-12T07:00:00','2027-07-21T07:00:00','2027-08-21T07:00:00','2027-07-21T07:00:00','2027-08-21T07:00:00','P0Y0M0D','P0Y0M0D',.T.,$,$,$,$,$,0.00);
#97=IFCTASK('03AsXMcRcL5fhqDWuCPSXO',#6,'Culvert renovation',$,$,'5.1',$,$,$,.F.,$,#96,.CONSTRUCTION.);
#98=IFCTASKTIME('Modify pumping station Time',.PREDICTED.,$,.WORKTIME.,'P0Y0M8D','2027-03-01T07:00:00','2027-03-10T07:00:00','2027-08-23T07:00:00','2027-08-31T07:00:00','2027-08-23T07:00:00','2027-08-31T07:00:00','P0Y0M0D','P0Y0M0D',.T.,$,$,$,$,$,0.00);
#99=IFCTASK('1IERRdE1yxv7WtRun52Xqf',#6,'Modify pumping station',$,$,'5.2',$,$,$,.F.,$,#98,.RENOVATION.);
#100=IFCTASKTIME('Barrier lock maintenance Time',.PREDICTED.,$,.WORKTIME.,'P0Y0M5D','2027-03-01T07:00:00','2027-03-05T07:00:00','2027-09-01T07:00:00','2027-09-06T07:00:00','2027-09-01T07:00:00','2027-09-06T07:00:00','P0Y0M0D','P0Y0M0D',.T.,$,$,$,$,$,0.00);
#101=IFCTASK('37KhKuEIOmWxeIcK$A0WXD',#6,'Barrier lock maintenance',$,$,'5.3',$,$,$,.F.,$,#100,.MAINTENANCE.);
#102=IFCTASKTIME('Stairs and transitions Time',.PREDICTED.,$,.WORKTIME.,'P0Y0M8D','2027-03-01T07:00:00','2027-03-10T07:00:00','2027-09-07T07:00:00','2027-09-15T07:00:00','2027-09-07T07:00:00','2027-09-15T07:00:00','P0Y0M0D','P0Y0M0D',.T.,$,$,$,$,$,0.00);
#103=IFCTASK('328M2OXaA4ZvZfSeLT54Fi',#6,'Stairs and transitions',$,$,'5.4',$,$,$,.F.,$,#102,.CONSTRUCTION.);
#104=IFCTASKTIME('6. Finishing & reinstatement Time',.PREDICTED.,$,.WORKTIME.,'P0Y0M33D','2027-03-01T07:00:00','2027-03-05T07:00:00','2027-09-16T07:00:00','2027-10-23T07:00:00','2027-09-16T07:00:00','2027-10-23T07:00:00','P0Y0M0D','P0Y0M0D',.T.,$,$,$,$,$,0.00);
#105=IFCTASK('1BmRbf4zFtx$cnxjdaSDcY',#6,'6. Finishing & reinstatement',$,$,'6',$,$,$,.F.,$,#104,.CONSTRUCTION.);
#106=IFCTASKTIME('Reinstate dike road Time',.PREDICTED.,$,.WORKTIME.,'P0Y0M10D','2027-03-01T07:00:00','2027-03-12T07:00:00','2027-09-16T07:00:00','2027-09-27T07:00:00','2027-09-16T07:00:00','2027-09-27T07:00:00','P0Y0M0D','P0Y0M0D',.T.,$,$,$,$,$,0.00);
#107=IFCTASK('1Y3KOqTozrHnezyjzPav$t',#6,'Reinstate dike road',$,$,'6.1',$,$,$,.F.,$,#106,.CONSTRUCTION.);
#108=IFCTASKTIME('Construct cycle path Time',.PREDICTED.,$,.WORKTIME.,'P0Y0M8D','2027-03-01T07:00:00','2027-03-10T07:00:00','2027-09-28T07:00:00','2027-10-06T07:00:00','2027-09-28T07:00:00','2027-10-06T07:00:00','P0Y0M0D','P0Y0M0D',.T.,$,$,$,$,$,0.00);
#109=IFCTASK('1_8d8jm47NUfKqpZnXTuF8',#6,'Construct cycle path',$,$,'6.2',$,$,$,.F.,$,#108,.CONSTRUCTION.);
#110=IFCTASKTIME('Ecological restoration Time',.PREDICTED.,$,.WORKTIME.,'P0Y0M10D','2027-03-01T07:00:00','2027-03-12T07:00:00','2027-10-07T07:00:00','2027-10-18T07:00:00','2027-10-07T07:00:00','2027-10-18T07:00:00','P0Y0M0D','P0Y0M0D',.T.,$,$,$,$,$,0.00);
#111=IFCTASK('2ECDsrx1OTfzuurNLsvnqD',#6,'Ecological restoration',$,$,'6.3',$,$,$,.F.,$,#110,.CONSTRUCTION.);
#112=IFCTASKTIME('Fencing and signage Time',.PREDICTED.,$,.WORKTIME.,'P0Y0M5D','2027-03-01T07:00:00','2027-03-05T07:00:00','2027-10-19T07:00:00','2027-10-23T07:00:00','2027-10-19T07:00:00','2027-10-23T07:00:00','P0Y0M0D','P0Y0M0D',.T.,$,$,$,$,$,0.00);
#113=IFCTASK('3rdxWdMszLddAQv9SM1$0_',#6,'Fencing and signage',$,$,'6.4',$,$,$,.F.,$,#112,.INSTALLATION.);
#114=IFCTASKTIME('Handover Time',.PREDICTED.,$,.WORKTIME.,'P0Y0M0D','2027-03-01T07:00:00','2027-03-01T07:00:00','2027-10-23T07:00:00','2027-10-23T07:00:00','2027-10-23T07:00:00','2027-10-23T07:00:00','P0Y0M0D','P0Y0M0D',.T.,$,$,$,$,$,0.00);
#115=IFCTASK('25uFxdBcI4ie7FjbttPhK1',#6,'Handover',$,$,'6.5',$,$,$,.T.,$,#114,.CONSTRUCTION.);
#116=IFCRELNESTS('0N9dRr85Ql9zJZoBZzjwhy',#6,'WBS 1. Preparation',$,#43,( #45,#47,#49,#51,#53,#55));
#117=IFCRELNESTS('03D6JqwLXlbiGVhDZ7ZkXp',#6,'WBS 2. Preloading',$,#57,( #59,#61,#63,#65,#67,#69));
#118=IFCRELNESTS('1Y$FRKsTYau8c_uN$z0IIH',#6,'WBS 3. Embankment',$,#71,( #73,#75,#77,#79,#81,#83));
#119=IFCRELNESTS('0u_FYrCMM$J5irXoTkr8Iq',#6,'WBS 4. Revetment & erosion protection',$,#85,( #87,#89,#91,#93));
#120=IFCRELNESTS('0Kz7fP4lU$ndTBSBudxJws',#6,'WBS 5. Civil structures',$,#95,( #97,#99,#101,#103));
#121=IFCRELNESTS('2TH9Uk900eqiPkymODwUWR',#6,'WBS 6. Finishing & reinstatement',$,#105,( #107,#109,#111,#113,#115));
#122=IFCRELNESTS('3BDE0aY42mKzDzUfBza2vU',#6,'WBS Hoofd',$,#40,(#43,#57,#71,#85,#95,#105));
#123=IFCRELSEQUENCE('30jsmr$1ZKQDg6yj1OXUxJ',#6,$,$,#45,#47,$,.FINISH_START.,$);
#124=IFCRELSEQUENCE('38z6nwLEX$pJLpln2sninn',#6,$,$,#47,#49,$,.FINISH_START.,$);
#125=IFCRELSEQUENCE('0u$dVVSlzUYVc2JTrCMr84',#6,$,$,#49,#51,$,.FINISH_START.,$);
#126=IFCRELSEQUENCE('1mYRMym_6rktvn6iDZOT9A',#6,$,$,#51,#53,$,.FINISH_START.,$);
#127=IFCRELSEQUENCE('1JyFSkuBn54tQqtwQXLNP$',#6,$,$,#53,#55,$,.FINISH_START.,$);
#128=IFCRELSEQUENCE('07AoZu_QzM1z_MOU$jnZay',#6,$,$,#59,#61,$,.FINISH_START.,$);
#129=IFCLAGTIME('Lag',.PREDICTED.,$,IFCDURATION('P5D'),.WORKTIME.);
#130=IFCRELSEQUENCE('2De1dDGnTQgwsxwg6P0oLT',#6,$,$,#61,#63,#129,.START_START.,$);
#131=IFCRELSEQUENCE('34KL0lCR5xHv9jNf5tadyn',#6,$,$,#63,#65,$,.FINISH_START.,$);
#132=IFCRELSEQUENCE('2v$$7QdaRidypDpxF25D74',#6,$,$,#65,#67,$,.FINISH_START.,$);
#133=IFCRELSEQUENCE('3sHJikwN_Sw6lj9D3bPXBa',#6,$,$,#67,#69,$,.START_START.,$);
#134=IFCRELSEQUENCE('3pwAu12Dw8Ilw8Lqz0a6cN',#6,$,$,#73,#75,$,.FINISH_START.,$);
#135=IFCRELSEQUENCE('3oVdQjVElA1ZV9munomrRw',#6,$,$,#75,#77,$,.FINISH_START.,$);
#136=IFCRELSEQUENCE('2YgkKr7jAbuPVWPwYmeODs',#6,$,$,#77,#79,$,.FINISH_START.,$);
#137=IFCRELSEQUENCE('0rebMff5TiNEg6Ia2$CUqi',#6,$,$,#79,#81,$,.FINISH_START.,$);
#138=IFCRELSEQUENCE('0Mdv1aeb2ffaiQuMoinB8r',#6,$,$,#81,#83,$,.FINISH_START.,$);
#139=IFCRELSEQUENCE('0wjqOW1wIe2FgbUB2TLf6i',#6,$,$,#87,#89,$,.FINISH_START.,$);
#140=IFCRELSEQUENCE('2YD6SQBob4FkdKosdq5WWg',#6,$,$,#89,#91,$,.FINISH_START.,$);
#141=IFCRELSEQUENCE('2QkTbyUcAHIrEEugdL3Toq',#6,$,$,#91,#93,$,.FINISH_START.,$);
#142=IFCRELSEQUENCE('3K$z7TLm$uyDOWQAxPAs$M',#6,$,$,#97,#99,$,.FINISH_START.,$);
#143=IFCRELSEQUENCE('2X6hWeo0FwaEqf6s96AgmZ',#6,$,$,#99,#101,$,.FINISH_START.,$);
#144=IFCRELSEQUENCE('2C1lGO_X11hZjRM6_WpNqF',#6,$,$,#101,#103,$,.FINISH_START.,$);
#145=IFCRELSEQUENCE('0wRfoH2MP0TRFXM_kNBrCQ',#6,$,$,#107,#109,$,.FINISH_START.,$);
#146=IFCRELSEQUENCE('1aETSWKaUsOPQ17Pnk2IyA',#6,$,$,#109,#111,$,.FINISH_START.,$);
#147=IFCRELSEQUENCE('0HllxpNohxW3C_TbVkEOmD',#6,$,$,#111,#113,$,.FINISH_START.,$);
#148=IFCRELSEQUENCE('3fcV_QVaVF3qru2ClqwG2E',#6,$,$,#113,#115,$,.FINISH_START.,$);
#149=IFCLAGTIME('Lag',.PREDICTED.,$,IFCDURATION('P18D'),.WORKTIME.);
#150=IFCRELSEQUENCE('35QeX0J4tcNOafwQHTtePO',#6,$,$,#45,#59,#149,.START_START.,$);
#151=IFCLAGTIME('Lag',.PREDICTED.,$,IFCRATIOMEASURE(0.4),.WORKTIME.);
#152=IFCRELSEQUENCE('0ovC6qcZXHIPx09SiXq3LE',#6,$,$,#59,#73,#151,.START_START.,$);
#153=IFCLAGTIME('Lag',.PREDICTED.,$,IFCDURATION('-P13D'),.WORKTIME.);
#154=IFCRELSEQUENCE('0c9asACNVgaVVXeo9ueayd',#6,$,$,#83,#87,#153,.FINISH_START.,$);
#155=IFCLAGTIME('Lag',.PREDICTED.,$,IFCDURATION('P2D'),.WORKTIME.);
#156=IFCRELSEQUENCE('02nWnkIJCVEbt2wCGQCN0c',#6,$,$,#83,#93,#155,.FINISH_FINISH.,$);
#157=IFCRELSEQUENCE('1ZR_yLJE55q8lDatU0rdav',#6,$,$,#93,#97,$,.FINISH_START.,$);
#158=IFCRELSEQUENCE('1Dn5kFGEDV3ggwHOpk$wcS',#6,$,$,#103,#107,$,.FINISH_START.,$);
#159=IFCRELASSIGNSTOCONTROL('1i4gBZWYFzyzY21$oX1sIL',#6,$,$,(#43,#45,#47,#49,#51,#53,#55,#57,#59,#61,#63,#65,#67,#69,#71,#73,#75,#77,#79,#81,#83,#85,#87,#89,#91,#93,#95,#97,#99,#101,#103,#105,#107,#109,#111,#113,#115),$,#40);
#160=IFCPROPERTYSINGLEVALUE('InternalProjectId',$,IFCTEXT('proj-mula82rqf4uu2536'),$);
#161=IFCPROPERTYSINGLEVALUE('wbsAutoNumber',$,IFCBOOLEAN(.T.),$);
#162=IFCPROPERTYSINGLEVALUE('DefaultTaskDurationUnit',$,IFCLABEL('days'),$);
#163=IFCPROPERTYSINGLEVALUE('ProjectStartDate',$,IFCDATE('2027-03-01'),$);
#164=IFCPROPERTYSINGLEVALUE('ProjectEndDate',$,$,$);
#165=IFCPROPERTYSINGLEVALUE('CreatedAt',$,IFCTEXT('2026-09-28T13:27:22.886Z'),$);
#166=IFCPROPERTYSINGLEVALUE('ModifiedAt',$,IFCTEXT('2026-09-28T13:27:22.887Z'),$);
#167=IFCPROPERTYSET('0wJyyS8O0ykTT$FjY0G_e6',#6,'OPS_ProjectSettings',$,(#160,#161,#162,#163,#164,#165,#166));
#168=IFCRELDEFINESBYPROPERTIES('20FSCbAJlqMp_tFoiGD6ZZ',#6,$,$,(#13),#167);
#169=IFCPROPERTYSINGLEVALUE('InternalTaskId',$,IFCTEXT('task-mula82rs5q252537'),$);
#170=IFCPROPERTYSET('0SS_DR4ZWgq4kE3Xt23nJ3',#6,'OPS_TaskIdentity',$,(#169));
#171=IFCRELDEFINESBYPROPERTIES('0qpN4VRpQxXrKCnGPSnqLf',#6,$,$,(#43),#170);
#172=IFCPROPERTYSINGLEVALUE('InternalTaskId',$,IFCTEXT('task-mula82rt8xga2538'),$);
#173=IFCPROPERTYSET('1glC7UrrFzfjacsmKOxw$$',#6,'OPS_TaskIdentity',$,(#172));
#174=IFCRELDEFINESBYPROPERTIES('35O1KZN7zoZDxHwpnpDhRF',#6,$,$,(#45),#173);
#175=IFCPROPERTYSINGLEVALUE('InternalTaskId',$,IFCTEXT('task-mula82rupu052539'),$);
#176=IFCPROPERTYSET('0SYh2ZkCUdgbXR9RzcfmZa',#6,'OPS_TaskIdentity',$,(#175));
#177=IFCRELDEFINESBYPROPERTIES('328d2mhypescvGNdeJqaNh',#6,$,$,(#47),#176);
#178=IFCPROPERTYSINGLEVALUE('InternalTaskId',$,IFCTEXT('task-mula82rwo6fe2540'),$);
#179=IFCPROPERTYSET('2UdZz_cbhXq5fexMbxXopX',#6,'OPS_TaskIdentity',$,(#178));
#180=IFCRELDEFINESBYPROPERTIES('3b$Ws4FXqi2uRfLClj8Uy3',#6,$,$,(#49),#179);
#181=IFCPROPERTYSINGLEVALUE('InternalTaskId',$,IFCTEXT('task-mula82rxf6e42541'),$);
#182=IFCPROPERTYSET('22NyM4ihWihvS10Bp7nJbg',#6,'OPS_TaskIdentity',$,(#181));
#183=IFCRELDEFINESBYPROPERTIES('1yis$RYcjRJSXrJ47l8UmX',#6,$,$,(#51),#182);
#184=IFCPROPERTYSINGLEVALUE('InternalTaskId',$,IFCTEXT('task-mula82ry9ip72542'),$);
#185=IFCPROPERTYSET('3dheWXgEy64QUxjHwvztXJ',#6,'OPS_TaskIdentity',$,(#184));
#186=IFCRELDEFINESBYPROPERTIES('1Kegfb9kOwZBgbzL18Nlic',#6,$,$,(#53),#185);
#187=IFCPROPERTYSINGLEVALUE('InternalTaskId',$,IFCTEXT('task-mula82s0eklu2543'),$);
#188=IFCPROPERTYSET('28432Y9$a_H4NqOJ0A17E$',#6,'OPS_TaskIdentity',$,(#187));
#189=IFCRELDEFINESBYPROPERTIES('2IAKA$Zvw69wXy5_$EoWSv',#6,$,$,(#55),#188);
#190=IFCPROPERTYSINGLEVALUE('InternalTaskId',$,IFCTEXT('task-mula82s15erc2544'),$);
#191=IFCPROPERTYSET('2TbsOxUZB1UsUUDFfNQvNo',#6,'OPS_TaskIdentity',$,(#190));
#192=IFCRELDEFINESBYPROPERTIES('3KK$MCnV147ryLW3TE4Itc',#6,$,$,(#57),#191);
#193=IFCPROPERTYSINGLEVALUE('InternalTaskId',$,IFCTEXT('task-mula82s3e9py2545'),$);
#194=IFCPROPERTYSET('1UeYsqTlCD5yP0DcJHoXgT',#6,'OPS_TaskIdentity',$,(#193));
#195=IFCRELDEFINESBYPROPERTIES('3N8fZ82e2l2v89fu9HUfBK',#6,$,$,(#59),#194);
#196=IFCPROPERTYSINGLEVALUE('InternalTaskId',$,IFCTEXT('task-mula82s5hqiw2546'),$);
#197=IFCPROPERTYSET('2HdHKqXhtLfdaIUzNT708T',#6,'OPS_TaskIdentity',$,(#196));
#198=IFCRELDEFINESBYPROPERTIES('30VpQmqZpu$_A2m0n53mN1',#6,$,$,(#61),#197);
#199=IFCPROPERTYSINGLEVALUE('InternalTaskId',$,IFCTEXT('task-mula82s62pxp2547'),$);
#200=IFCPROPERTYSET('2mHVnGeOdmOyN4RCo$8rjQ',#6,'OPS_TaskIdentity',$,(#199));
#201=IFCRELDEFINESBYPROPERTIES('0dP$lzcX73Z7tTPH_sIsvg',#6,$,$,(#63),#200);
#202=IFCPROPERTYSINGLEVALUE('InternalTaskId',$,IFCTEXT('task-mula82s79d1e2548'),$);
#203=IFCPROPERTYSET('293xa6TKPYQR9Cv2NiPanI',#6,'OPS_TaskIdentity',$,(#202));
#204=IFCRELDEFINESBYPROPERTIES('01c$Kh_9Itlf4NUnjkZSUj',#6,$,$,(#65),#203);
#205=IFCPROPERTYSINGLEVALUE('InternalTaskId',$,IFCTEXT('task-mula82s9h4og2549'),$);
#206=IFCPROPERTYSET('2xAK4z8xrNujkkBzPNxBW2',#6,'OPS_TaskIdentity',$,(#205));
#207=IFCRELDEFINESBYPROPERTIES('0BQD9DMMkW8CjVCYz$fB0u',#6,$,$,(#67),#206);
#208=IFCPROPERTYSINGLEVALUE('InternalTaskId',$,IFCTEXT('task-mula82sb6yzn2550'),$);
#209=IFCPROPERTYSET('20yjRJfHCU2L$4_333K_L3',#6,'OPS_TaskIdentity',$,(#208));
#210=IFCRELDEFINESBYPROPERTIES('0BoibXsLJ6PjTUWjmGwbJE',#6,$,$,(#69),#209);
#211=IFCPROPERTYSINGLEVALUE('InternalTaskId',$,IFCTEXT('task-mula82scn8x52551'),$);
#212=IFCPROPERTYSET('2JFd7JjUnPDZJvZ064rVN1',#6,'OPS_TaskIdentity',$,(#211));
#213=IFCRELDEFINESBYPROPERTIES('3Jj2WM1YovdiGp_fegwFS5',#6,$,$,(#71),#212);
#214=IFCPROPERTYSINGLEVALUE('InternalTaskId',$,IFCTEXT('task-mula82seo5d42552'),$);
#215=IFCPROPERTYSET('1DFtIxbtOpjp$frGNBCO7w',#6,'OPS_TaskIdentity',$,(#214));
#216=IFCRELDEFINESBYPROPERTIES('0D9HP6No89ut0seKDAlDHq',#6,$,$,(#73),#215);
#217=IFCPROPERTYSINGLEVALUE('InternalTaskId',$,IFCTEXT('task-mula82sg8fw12553'),$);
#218=IFCPROPERTYSET('0Z8beAkMpusX8YpRqA9l0b',#6,'OPS_TaskIdentity',$,(#217));
#219=IFCRELDEFINESBYPROPERTIES('39ATJZj2MQIj4Qb6MPoJSP',#6,$,$,(#75),#218);
#220=IFCPROPERTYSINGLEVALUE('InternalTaskId',$,IFCTEXT('task-mula82shnpqp2554'),$);
#221=IFCPROPERTYSET('1RQpqVS1BqXoBXgrmCoVw9',#6,'OPS_TaskIdentity',$,(#220));
#222=IFCRELDEFINESBYPROPERTIES('1CAl62GPVCDEYUC5yOByka',#6,$,$,(#77),#221);
#223=IFCPROPERTYSINGLEVALUE('InternalTaskId',$,IFCTEXT('task-mula82sj0nu52555'),$);
#224=IFCPROPERTYSET('3TnSi6encSiPcyQlIyh6nA',#6,'OPS_TaskIdentity',$,(#223));
#225=IFCRELDEFINESBYPROPERTIES('23mks0SiWSZqA8SkmT$FTB',#6,$,$,(#79),#224);
#226=IFCPROPERTYSINGLEVALUE('InternalTaskId',$,IFCTEXT('task-mula82skiser2556'),$);
#227=IFCPROPERTYSET('0eRcDyvo40KL7SHaOXeQON',#6,'OPS_TaskIdentity',$,(#226));
#228=IFCRELDEFINESBYPROPERTIES('3wDcpx0iF2gabZneUW4aDI',#6,$,$,(#81),#227);
#229=IFCPROPERTYSINGLEVALUE('InternalTaskId',$,IFCTEXT('task-mula82sm3cud2557'),$);
#230=IFCPROPERTYSET('0b8LTZnNrd7xncpmvVeWug',#6,'OPS_TaskIdentity',$,(#229));
#231=IFCRELDEFINESBYPROPERTIES('3FJOOLcPGwMbnbhdcxjs1O',#6,$,$,(#83),#230);
#232=IFCPROPERTYSINGLEVALUE('InternalTaskId',$,IFCTEXT('task-mula82soyzpb2558'),$);
#233=IFCPROPERTYSET('3tRf923swdmSwtaISzLR4i',#6,'OPS_TaskIdentity',$,(#232));
#234=IFCRELDEFINESBYPROPERTIES('1GONUpc918uLYnu5GZgeTv',#6,$,$,(#85),#233);
#235=IFCPROPERTYSINGLEVALUE('InternalTaskId',$,IFCTEXT('task-mula82spap362559'),$);
#236=IFCPROPERTYSET('3TSe2EyNleD0tqWnGjBLrU',#6,'OPS_TaskIdentity',$,(#235));
#237=IFCRELDEFINESBYPROPERTIES('0ODUW12S16qWFBj8qHWisG',#6,$,$,(#87),#236);
#238=IFCPROPERTYSINGLEVALUE('InternalTaskId',$,IFCTEXT('task-mula82sro3g62560'),$);
#239=IFCPROPERTYSET('0LB3KEEhBpiABl4AGRcG4s',#6,'OPS_TaskIdentity',$,(#238));
#240=IFCRELDEFINESBYPROPERTIES('1O4pJo5kIWwcpPH$aoesDX',#6,$,$,(#89),#239);
#241=IFCPROPERTYSINGLEVALUE('InternalTaskId',$,IFCTEXT('task-mula82ssvacu2561'),$);
#242=IFCPROPERTYSET('3dTxcIOlOQmbR$HGkyDLJ1',#6,'OPS_TaskIdentity',$,(#241));
#243=IFCRELDEFINESBYPROPERTIES('13bFNtIMtPA5FZAJMUvrcG',#6,$,$,(#91),#242);
#244=IFCPROPERTYSINGLEVALUE('InternalTaskId',$,IFCTEXT('task-mula82su2cit2562'),$);
#245=IFCPROPERTYSET('0Ac3Y2fi7r9scf4_s0HMi9',#6,'OPS_TaskIdentity',$,(#244));
#246=IFCRELDEFINESBYPROPERTIES('3fIk$ut_AibB6KZgwH1L47',#6,$,$,(#93),#245);
#247=IFCPROPERTYSINGLEVALUE('InternalTaskId',$,IFCTEXT('task-mula82swwzqb2563'),$);
#248=IFCPROPERTYSET('15_Ma5ffs1b6L1A2fkJ9NY',#6,'OPS_TaskIdentity',$,(#247));
#249=IFCRELDEFINESBYPROPERTIES('1oRwH9Q6CDuUgEGD6B3zxr',#6,$,$,(#95),#248);
#250=IFCPROPERTYSINGLEVALUE('InternalTaskId',$,IFCTEXT('task-mula82szcjjf2564'),$);
#251=IFCPROPERTYSET('2u1wJZR$rYbYUaFrtDVE5q',#6,'OPS_TaskIdentity',$,(#250));
#252=IFCRELDEFINESBYPROPERTIES('2XVIkGVDvq9QzVcELIAons',#6,$,$,(#97),#251);
#253=IFCPROPERTYSINGLEVALUE('InternalTaskId',$,IFCTEXT('task-mula82t157ho2565'),$);
#254=IFCPROPERTYSET('1HIrxIErjsYvui4838UVIG',#6,'OPS_TaskIdentity',$,(#253));
#255=IFCRELDEFINESBYPROPERTIES('04Wx_oWS5HIdBrYdl52cOh',#6,$,$,(#99),#254);
#256=IFCPROPERTYSINGLEVALUE('InternalTaskId',$,IFCTEXT('task-mula82t2cqjt2566'),$);
#257=IFCPROPERTYSET('2AjYVqu$PAkRYjvO5re2wB',#6,'OPS_TaskIdentity',$,(#256));
#258=IFCRELDEFINESBYPROPERTIES('39Iszc1Wx6xP6FF74Zrd24',#6,$,$,(#101),#257);
#259=IFCPROPERTYSINGLEVALUE('InternalTaskId',$,IFCTEXT('task-mula82t4bvl22567'),$);
#260=IFCPROPERTYSET('2CvSeoDmeolB_IHyOC$Rx$',#6,'OPS_TaskIdentity',$,(#259));
#261=IFCRELDEFINESBYPROPERTIES('1ogmqao_x9hpnK7HLczcz8',#6,$,$,(#103),#260);
#262=IFCPROPERTYSINGLEVALUE('InternalTaskId',$,IFCTEXT('task-mula82t67ris2568'),$);
#263=IFCPROPERTYSET('09Dz$LULOHhJNmmnn3D4Pv',#6,'OPS_TaskIdentity',$,(#262));
#264=IFCRELDEFINESBYPROPERTIES('3HehwYlroiUjTMxrjGGtSL',#6,$,$,(#105),#263);
#265=IFCPROPERTYSINGLEVALUE('InternalTaskId',$,IFCTEXT('task-mula82t8woma2569'),$);
#266=IFCPROPERTYSET('3vBqBTG_SHP40aVu4JnYHS',#6,'OPS_TaskIdentity',$,(#265));
#267=IFCRELDEFINESBYPROPERTIES('0sqIms3Fk2bOSDlVAtAQnI',#6,$,$,(#107),#266);
#268=IFCPROPERTYSINGLEVALUE('InternalTaskId',$,IFCTEXT('task-mula82t9lrle2570'),$);
#269=IFCPROPERTYSET('1U$xuXTqzILYLD1OAIjWnj',#6,'OPS_TaskIdentity',$,(#268));
#270=IFCRELDEFINESBYPROPERTIES('3ZbaWfq6WXwSM5vNvWjtGT',#6,$,$,(#109),#269);
#271=IFCPROPERTYSINGLEVALUE('InternalTaskId',$,IFCTEXT('task-mula82tbd7wv2571'),$);
#272=IFCPROPERTYSET('2JT4b1bJZ9oWE1N0SZO94i',#6,'OPS_TaskIdentity',$,(#271));
#273=IFCRELDEFINESBYPROPERTIES('3bNknQyvv97FvBS3CppAi2',#6,$,$,(#111),#272);
#274=IFCPROPERTYSINGLEVALUE('InternalTaskId',$,IFCTEXT('task-mula82tdzaet2572'),$);
#275=IFCPROPERTYSET('281Df9N_MpyDX$huPDzner',#6,'OPS_TaskIdentity',$,(#274));
#276=IFCRELDEFINESBYPROPERTIES('0vBBqiULgEqESNk9TUCCUA',#6,$,$,(#113),#275);
#277=IFCPROPERTYSINGLEVALUE('InternalTaskId',$,IFCTEXT('task-mula82tf6hzx2573'),$);
#278=IFCPROPERTYSET('0sl$FwZNmg8xqi2j21N$iY',#6,'OPS_TaskIdentity',$,(#277));
#279=IFCRELDEFINESBYPROPERTIES('3R7ylN2zCtsrmKeBsHfhWO',#6,$,$,(#115),#278);
#280=IFCPROPERTYSINGLEVALUE('MilestoneKind',$,IFCLABEL('START'),$);
#281=IFCPROPERTYSET('3K6brCwDoD3ih6hrrnDFJu',#6,'OPS_Milestone',$,(#280));
#282=IFCRELDEFINESBYPROPERTIES('0t0sKIJl6$Uc0Q11vfhiD5',#6,$,$,(#55),#281);
#283=IFCPROPERTYSINGLEVALUE('MilestoneKind',$,IFCLABEL('FINISH'),$);
#284=IFCPROPERTYSINGLEVALUE('Mandatory',$,IFCBOOLEAN(.T.),$);
#285=IFCPROPERTYSET('1f3oUUUsUoARC7bYOKD9dA',#6,'OPS_Milestone',$,(#283,#284));
#286=IFCRELDEFINESBYPROPERTIES('09TSQjQ2klHoEO2nldXDiV',#6,$,$,(#115),#285);
ENDSEC;
END-ISO-10303-21;
