ISO-10303-21;
HEADER;
FILE_DESCRIPTION(('ViewDefinition [SchedulingView]'),'2;1');
FILE_NAME('120-Room Hotel, Scheveningen.ifc','2026-09-28T13:27:23',('Chantal Zee'),('Coastal Construction BV'),'Open Planner Studio 0.1','Open Planner Studio','');
FILE_SCHEMA(('IFC4X3'));
ENDSEC;
DATA;
#1=IFCPERSON($,'Chantal Zee',$,$,$,$,$,$);
#2=IFCORGANIZATION($,'Coastal Construction BV',$,$,$);
#3=IFCPERSONANDORGANIZATION(#1,#2,$);
#4=IFCORGANIZATION($,'OpenAEC Foundation',$,$,$);
#5=IFCAPPLICATION(#4,'0.2','Open Planner Studio','OPS');
#6=IFCOWNERHISTORY(#3,#5,$,.NOCHANGE.,$,$,$,1790602043);
#7=IFCSIUNIT(*,.LENGTHUNIT.,$,.METRE.);
#8=IFCSIUNIT(*,.TIMEUNIT.,$,.SECOND.);
#9=IFCUNITASSIGNMENT((#7,#8));
#10=IFCCARTESIANPOINT((0.,0.,0.));
#11=IFCAXIS2PLACEMENT3D(#10,$,$);
#12=IFCGEOMETRICREPRESENTATIONCONTEXT($,'Plan',3,1.0E-05,#11,$);
#13=IFCPROJECT('0R4pnmdUqx2S7Aw2$BMc6L',#6,'120-Room Hotel, Scheveningen','New-build six-storey seafront hotel with wellness facilities',$,$,$,(#12),#9);
#14=IFCTIMEPERIOD('07:00:00','16:00:00');
#15=IFCRECURRENCEPATTERN(.WEEKLY.,$,(1,2,3,4,5),$,$,$,$,(#14));
#16=IFCWORKTIME('Standard work week',.PREDICTED.,$,#15,$,$);
#17=IFCWORKTIME('New Year''s Day',.PREDICTED.,$,$,'2027-01-01','2027-01-01');
#18=IFCWORKTIME('Good Friday',.PREDICTED.,$,$,'2027-03-26','2027-03-26');
#19=IFCWORKTIME('Easter',.PREDICTED.,$,$,'2027-03-28','2027-03-29');
#20=IFCWORKTIME('King''s Day',.PREDICTED.,$,$,'2027-04-27','2027-04-27');
#21=IFCWORKTIME('Liberation Day',.PREDICTED.,$,$,'2027-05-05','2027-05-05');
#22=IFCWORKTIME('Ascension Day',.PREDICTED.,$,$,'2027-05-06','2027-05-06');
#23=IFCWORKTIME('Whitsun',.PREDICTED.,$,$,'2027-05-16','2027-05-17');
#24=IFCWORKTIME('Christmas',.PREDICTED.,$,$,'2027-12-25','2027-12-26');
#25=IFCWORKTIME('Construction holiday (northern region)',.PREDICTED.,$,$,'2027-07-26','2027-08-15');
#26=IFCWORKTIME('New Year''s Day',.PREDICTED.,$,$,'2028-01-01','2028-01-01');
#27=IFCWORKTIME('Good Friday',.PREDICTED.,$,$,'2028-04-14','2028-04-14');
#28=IFCWORKTIME('Easter',.PREDICTED.,$,$,'2028-04-16','2028-04-17');
#29=IFCWORKTIME('King''s Day',.PREDICTED.,$,$,'2028-04-27','2028-04-27');
#30=IFCWORKTIME('Liberation Day',.PREDICTED.,$,$,'2028-05-05','2028-05-05');
#31=IFCWORKTIME('Ascension Day',.PREDICTED.,$,$,'2028-05-25','2028-05-25');
#32=IFCWORKTIME('Whitsun',.PREDICTED.,$,$,'2028-06-04','2028-06-05');
#33=IFCWORKTIME('Christmas',.PREDICTED.,$,$,'2028-12-25','2028-12-26');
#34=IFCWORKTIME('Construction holiday (northern region)',.PREDICTED.,$,$,'2028-07-24','2028-08-13');
#35=IFCWORKCALENDAR('01JA2_xrIfSjpNPIqmG_R9',#6,'Construction calendar NL','Standard construction calendar: Mon-Fri 07:00-16:00',$,(#16),(#17,#18,#19,#20,#21,#22,#23,#24,#25,#26,#27,#28,#29,#30,#31,#32,#33,#34),.FIRSTSHIFT.);
#36=IFCPROPERTYSINGLEVALUE('HoursPerDay',$,IFCREAL(8),$);
#37=IFCPROPERTYSET('3LZ$7uBbjRcr2gp04R6d10',#6,'OPS_Calendar',$,(#36));
#38=IFCRELDEFINESBYPROPERTIES('3KMKxIGMUOmDxK2Aifpnpc',#6,$,$,(#35),#37);
#39=IFCWORKPLAN('3cL4Cv3bGhks_8Y7xzNO2i',#6,'120-Room Hotel, Scheveningen','New-build six-storey seafront hotel with wellness facilities',$,$,'2026-09-28T13:27:23',$,$,$,$,$,'2027-03-01T07:00:00','2027-03-19T07:00:00',.PLANNED.);
#40=IFCWORKSCHEDULE('1Hq8mJiIFsvPPzBLecwiWY',#6,'Construction schedule v1.0',$,$,$,'2026-09-28T13:27:23',$,$,$,$,$,'2027-03-01T07:00:00','2027-03-19T07:00:00',.PLANNED.);
#41=IFCRELAGGREGATES('1iovlvHCLzsbRKjrYFU1H_',#6,$,$,#39,(#40));
#42=IFCTASKTIME('1. Preparation Time',.PREDICTED.,$,.WORKTIME.,'P0Y0M19D','2027-03-01T07:00:00','2027-03-05T07:00:00','2027-03-01T07:00:00','2027-03-25T07:00:00','2027-03-01T07:00:00','2028-02-16T07:00:00','P0Y0M0D','P0Y0M0D',.T.,$,$,$,$,$,0.00);
#43=IFCTASK('31uHXgokeye1SyUwzkg9px',#6,'1. Preparation',$,$,'1',$,$,$,.F.,$,#42,.CONSTRUCTION.);
#44=IFCTASKTIME('Demolish existing building Time',.PREDICTED.,$,.WORKTIME.,'P0Y0M10D','2027-03-01T07:00:00','2027-03-12T07:00:00','2027-03-01T07:00:00','2027-03-12T07:00:00','2027-03-01T07:00:00','2027-03-12T07:00:00','P0Y0M0D','P0Y0M0D',.T.,$,$,$,$,$,0.00);
#45=IFCTASK('3_pROF0lSZQxh9VU9nf$Vq',#6,'Demolish existing building',$,$,'1.1',$,$,$,.F.,$,#44,.DEMOLITION.);
#46=IFCTASKTIME('Set up site Time',.PREDICTED.,$,.WORKTIME.,'P0Y0M5D','2027-03-01T07:00:00','2027-03-05T07:00:00','2027-03-15T07:00:00','2027-03-19T07:00:00','2028-02-04T07:00:00','2028-02-10T07:00:00','P0Y0M0D','P0Y0M213D',.F.,$,$,$,$,$,0.00);
#47=IFCTASK('3bYtFI0m0zTvoZpEfPZykB',#6,'Set up site',$,$,'1.2',$,$,$,.F.,$,#46,.LOGISTIC.);
#48=IFCTASKTIME('Foundation survey Time',.PREDICTED.,$,.WORKTIME.,'P0Y0M3D','2027-03-01T07:00:00','2027-03-03T07:00:00','2027-03-22T07:00:00','2027-03-24T07:00:00','2028-02-11T07:00:00','2028-02-15T07:00:00','P0Y0M0D','P0Y0M213D',.F.,$,$,$,$,$,0.00);
#49=IFCTASK('2dkC_0Zw_nCGcxHjWp3JkG',#6,'Foundation survey',$,$,'1.3',$,$,$,.F.,$,#48,.ATTENDANCE.);
#50=IFCTASKTIME('Start of new build Time',.PREDICTED.,$,.WORKTIME.,'P0Y0M0D','2027-03-01T07:00:00','2027-03-01T07:00:00','2027-03-25T07:00:00','2027-03-25T07:00:00','2028-02-16T07:00:00','2028-02-16T07:00:00','P0Y0M213D','P0Y0M213D',.F.,$,$,$,$,$,0.00);
#51=IFCTASK('3vOR4$WqTy3JSzXWHCKGR8',#6,'Start of new build',$,$,'1.4',$,$,$,.T.,$,#50,.CONSTRUCTION.);
#52=IFCTASKTIME('2. Foundations Time',.PREDICTED.,$,.WORKTIME.,'P0Y0M46D','2027-03-01T07:00:00','2027-03-05T07:00:00','2027-03-12T07:00:00','2027-05-24T07:00:00','2027-03-12T07:00:00','2028-02-16T07:00:00','P0Y0M0D','P0Y0M0D',.T.,$,$,$,$,$,0.00);
#53=IFCTASK('2zknN8IqVFfMvUEvq7sRC7',#6,'2. Foundations',$,$,'2',$,$,$,.F.,$,#52,.CONSTRUCTION.);
#54=IFCTASKTIME('Sheet piling, boulevard Time',.PREDICTED.,$,.WORKTIME.,'P0Y0M10D','2027-03-01T07:00:00','2027-03-12T07:00:00','2027-03-12T07:00:00','2027-03-25T07:00:00','2027-03-12T07:00:00','2027-03-25T07:00:00','P0Y0M0D','P0Y0M0D',.T.,$,$,$,$,$,0.00);
#55=IFCTASK('1z2i90NZRQEXstpM6voAEW',#6,'Sheet piling, boulevard',$,$,'2.1',$,$,$,.F.,$,#54,.CONSTRUCTION.);
#56=IFCTASKTIME('Excavate basement Time',.PREDICTED.,$,.WORKTIME.,'P0Y0M8D','2027-03-01T07:00:00','2027-03-10T07:00:00','2027-03-30T07:00:00','2027-04-08T07:00:00','2027-12-29T07:00:00','2028-01-07T07:00:00','P0Y0M0D','P0Y0M177D',.F.,$,$,$,$,$,0.00);
#57=IFCTASK('1r6_s$6Wv2k9c1eSdeuYVo',#6,'Excavate basement',$,$,'2.2',$,$,$,.F.,$,#56,.CONSTRUCTION.);
#58=IFCTASKTIME('Foundation piles Time',.PREDICTED.,$,.WORKTIME.,'P0Y0M12D','2027-03-01T07:00:00','2027-03-16T07:00:00','2027-04-09T07:00:00','2027-04-26T07:00:00','2028-01-10T07:00:00','2028-01-25T07:00:00','P0Y0M0D','P0Y0M177D',.F.,$,$,$,$,$,0.00);
#59=IFCTASK('1oQySZnw0_LUv2C1SwEVF_',#6,'Foundation piles',$,$,'2.3',$,$,$,.F.,$,#58,.CONSTRUCTION.);
#60=IFCTASKTIME('Basement floor, wellness Time',.PREDICTED.,$,.WORKTIME.,'P0Y0M8D','2027-03-01T07:00:00','2027-03-10T07:00:00','2027-04-28T07:00:00','2027-05-11T07:00:00','2028-01-26T07:00:00','2028-02-04T07:00:00','P0Y0M0D','P0Y0M177D',.F.,$,$,$,$,$,0.00);
#61=IFCTASK('1IaGJCQrQwiS8MUGsxIzXu',#6,'Basement floor, wellness',$,$,'2.4',$,$,$,.F.,$,#60,.CONSTRUCTION.);
#62=IFCTASKTIME('Basement walls Time',.PREDICTED.,$,.WORKTIME.,'P0Y0M8D','2027-03-01T07:00:00','2027-03-10T07:00:00','2027-05-12T07:00:00','2027-05-24T07:00:00','2028-02-07T07:00:00','2028-02-16T07:00:00','P0Y0M177D','P0Y0M177D',.F.,$,$,$,$,$,0.00);
#63=IFCTASK('1RJ9DDrV8HSIwV8wcY$ntC',#6,'Basement walls',$,$,'2.5',$,$,$,.F.,$,#62,.CONSTRUCTION.);
#64=IFCTASKTIME('3. Structural works Time',.PREDICTED.,$,.WORKTIME.,'P0Y0M68D','2027-03-01T07:00:00','2027-03-05T07:00:00','2027-03-18T07:00:00','2027-06-29T07:00:00','2027-03-18T07:00:00','2028-02-16T07:00:00','P0Y0M0D','P0Y0M0D',.T.,$,$,$,$,$,0.00);
#65=IFCTASK('3c7b6hAQrS_i0ox8uCjFz4',#6,'3. Structural works',$,$,'3',$,$,$,.F.,$,#64,.CONSTRUCTION.);
#66=IFCTASKTIME('Ground floor lobby Time',.PREDICTED.,$,.WORKTIME.,'P0Y0M10D','2027-03-01T07:00:00','2027-03-12T07:00:00','2027-03-18T07:00:00','2027-04-02T07:00:00','2027-03-18T07:00:00','2027-04-02T07:00:00','P0Y0M0D','P0Y0M0D',.T.,$,$,$,$,$,0.00);
#67=IFCTASK('0Ifq014NxOaxSfSVttiIJi',#6,'Ground floor lobby',$,$,'3.1',$,$,$,.F.,$,#66,.CONSTRUCTION.);
#68=IFCTASKTIME('Floor 1 rooms Time',.PREDICTED.,$,.WORKTIME.,'P0Y0M8D','2027-03-01T07:00:00','2027-03-10T07:00:00','2027-04-05T07:00:00','2027-04-14T07:00:00','2027-04-05T07:00:00','2027-04-14T07:00:00','P0Y0M0D','P0Y0M0D',.T.,$,$,$,$,$,0.00);
#69=IFCTASK('0tpD5g7FSDvAnNKraA5snb',#6,'Floor 1 rooms',$,$,'3.2',$,$,$,.F.,$,#68,.CONSTRUCTION.);
#70=IFCTASKTIME('Floor 2 rooms Time',.PREDICTED.,$,.WORKTIME.,'P0Y0M8D','2027-03-01T07:00:00','2027-03-10T07:00:00','2027-04-15T07:00:00','2027-04-26T07:00:00','2027-04-15T07:00:00','2027-04-26T07:00:00','P0Y0M0D','P0Y0M0D',.T.,$,$,$,$,$,0.00);
#71=IFCTASK('3QxrWbftIDYX3vcIUQRcjt',#6,'Floor 2 rooms',$,$,'3.3',$,$,$,.F.,$,#70,.CONSTRUCTION.);
#72=IFCTASKTIME('Floor 3 rooms Time',.PREDICTED.,$,.WORKTIME.,'P0Y0M8D','2027-03-01T07:00:00','2027-03-10T07:00:00','2027-04-28T07:00:00','2027-05-11T07:00:00','2027-04-28T07:00:00','2027-05-11T07:00:00','P0Y0M0D','P0Y0M0D',.T.,$,$,$,$,$,0.00);
#73=IFCTASK('1IoX8nMEZsJKxYakeZSM02',#6,'Floor 3 rooms',$,$,'3.4',$,$,$,.F.,$,#72,.CONSTRUCTION.);
#74=IFCTASKTIME('Floor 4 rooms Time',.PREDICTED.,$,.WORKTIME.,'P0Y0M8D','2027-03-01T07:00:00','2027-03-10T07:00:00','2027-05-12T07:00:00','2027-05-24T07:00:00','2027-05-12T07:00:00','2027-05-24T07:00:00','P0Y0M0D','P0Y0M0D',.T.,$,$,$,$,$,0.00);
#75=IFCTASK('0KPi29STYJIUeNMxlloapO',#6,'Floor 4 rooms',$,$,'3.5',$,$,$,.F.,$,#74,.CONSTRUCTION.);
#76=IFCTASKTIME('Floor 5 rooms Time',.PREDICTED.,$,.WORKTIME.,'P0Y0M8D','2027-03-01T07:00:00','2027-03-10T07:00:00','2027-05-25T07:00:00','2027-06-03T07:00:00','2027-05-25T07:00:00','2027-06-03T07:00:00','P0Y0M0D','P0Y0M0D',.T.,$,$,$,$,$,0.00);
#77=IFCTASK('3HOuzsdxPK$za1ONHT57vC',#6,'Floor 5 rooms',$,$,'3.6',$,$,$,.F.,$,#76,.CONSTRUCTION.);
#78=IFCTASKTIME('Penthouse floor Time',.PREDICTED.,$,.WORKTIME.,'P0Y0M10D','2027-03-01T07:00:00','2027-03-12T07:00:00','2027-06-04T07:00:00','2027-06-17T07:00:00','2027-06-04T07:00:00','2027-06-17T07:00:00','P0Y0M0D','P0Y0M0D',.T.,$,$,$,$,$,0.00);
#79=IFCTASK('3Ag_CO0AqyPrV42XVrivxS',#6,'Penthouse floor',$,$,'3.7',$,$,$,.F.,$,#78,.CONSTRUCTION.);
#80=IFCTASKTIME('Roof terrace structure Time',.PREDICTED.,$,.WORKTIME.,'P0Y0M8D','2027-03-01T07:00:00','2027-03-10T07:00:00','2027-06-18T07:00:00','2027-06-29T07:00:00','2027-06-18T07:00:00','2027-06-29T07:00:00','P0Y0M0D','P0Y0M0D',.T.,$,$,$,$,$,0.00);
#81=IFCTASK('3C_fzNrswYMRmRxTeFt6uD',#6,'Roof terrace structure',$,$,'3.8',$,$,$,.F.,$,#80,.CONSTRUCTION.);
#82=IFCTASKTIME('Topping out Time',.PREDICTED.,$,.WORKTIME.,'P0Y0M0D','2027-03-01T07:00:00','2027-03-01T07:00:00','2027-06-29T07:00:00','2027-06-29T07:00:00','2028-02-16T07:00:00','2028-02-16T07:00:00','P0Y0M151D','P0Y0M151D',.F.,$,$,$,$,$,0.00);
#83=IFCTASK('1$QHd12wHGjbmLtzhWi162',#6,'Topping out',$,$,'3.9',$,$,$,.T.,$,#82,.CONSTRUCTION.);
#84=IFCTASKTIME('4. Facade Time',.PREDICTED.,$,.WORKTIME.,'P0Y0M40D','2027-03-01T07:00:00','2027-03-05T07:00:00','2027-06-10T07:00:00','2027-08-25T07:00:00','2027-06-10T07:00:00','2028-02-16T07:00:00','P0Y0M0D','P0Y0M0D',.T.,$,$,$,$,$,0.00);
#85=IFCTASK('000mbj8Gs7i13s1T6O9mGJ',#6,'4. Facade',$,$,'4',$,$,$,.F.,$,#84,.INSTALLATION.);
#86=IFCTASKTIME('Curtain wall, sea side Time',.PREDICTED.,$,.WORKTIME.,'P0Y0M12D','2027-03-01T07:00:00','2027-03-16T07:00:00','2027-06-10T07:00:00','2027-06-25T07:00:00','2027-06-10T07:00:00','2027-06-25T07:00:00','P0Y0M0D','P0Y0M0D',.T.,$,$,$,$,$,0.00);
#87=IFCTASK('00_75$NudfRTcHX8HcyerW',#6,'Curtain wall, sea side',$,$,'4.1',$,$,$,.F.,$,#86,.INSTALLATION.);
#88=IFCTASKTIME('Curtain wall, land side Time',.PREDICTED.,$,.WORKTIME.,'P0Y0M10D','2027-03-01T07:00:00','2027-03-12T07:00:00','2027-06-28T07:00:00','2027-07-09T07:00:00','2027-06-28T07:00:00','2027-07-09T07:00:00','P0Y0M0D','P0Y0M0D',.T.,$,$,$,$,$,0.00);
#89=IFCTASK('2_t2v0FdcJVeKrCcnZUt3h',#6,'Curtain wall, land side',$,$,'4.2',$,$,$,.F.,$,#88,.INSTALLATION.);
#90=IFCTASKTIME('Natural stone cladding Time',.PREDICTED.,$,.WORKTIME.,'P0Y0M10D','2027-03-01T07:00:00','2027-03-12T07:00:00','2027-07-12T07:00:00','2027-07-23T07:00:00','2027-07-12T07:00:00','2027-07-23T07:00:00','P0Y0M0D','P0Y0M0D',.T.,$,$,$,$,$,0.00);
#91=IFCTASK('2rIfkpoZxpqFTH5BM_V1u1',#6,'Natural stone cladding',$,$,'4.3',$,$,$,.F.,$,#90,.CONSTRUCTION.);
#92=IFCTASKTIME('Window frames and glazing Time',.PREDICTED.,$,.WORKTIME.,'P0Y0M8D','2027-03-01T07:00:00','2027-03-10T07:00:00','2027-08-16T07:00:00','2027-08-25T07:00:00','2027-08-16T07:00:00','2027-08-25T07:00:00','P0Y0M0D','P0Y0M0D',.T.,$,$,$,$,$,0.00);
#93=IFCTASK('29S8y2wBLK310EcylNNOr8',#6,'Window frames and glazing',$,$,'4.4',$,$,$,.F.,$,#92,.INSTALLATION.);
#94=IFCTASKTIME('Wind and weathertight Time',.PREDICTED.,$,.WORKTIME.,'P0Y0M0D','2027-03-01T07:00:00','2027-03-01T07:00:00','2027-08-25T07:00:00','2027-08-25T07:00:00','2028-02-16T07:00:00','2028-02-16T07:00:00','P0Y0M125D','P0Y0M125D',.F.,$,$,$,$,$,0.00);
#95=IFCTASK('0fPFIGdJqmJzPzQ4BeRjQh',#6,'Wind and weathertight',$,$,'4.5',$,$,$,.T.,$,#94,.INSTALLATION.);
#96=IFCTASKTIME('5. Building services Time',.PREDICTED.,$,.WORKTIME.,'P0Y0M71D','2027-03-01T07:00:00','2027-03-05T07:00:00','2027-08-26T07:00:00','2027-12-02T07:00:00','2027-08-26T07:00:00','2028-02-16T07:00:00','P0Y0M0D','P0Y0M0D',.T.,$,$,$,$,$,0.00);
#97=IFCTASK('07vFIxUGichjFcPontHoNX',#6,'5. Building services',$,$,'5',$,$,$,.F.,$,#96,.INSTALLATION.);
#98=IFCTASKTIME('Main electrical distribution Time',.PREDICTED.,$,.WORKTIME.,'P0Y0M8D','2027-03-01T07:00:00','2027-03-10T07:00:00','2027-08-26T07:00:00','2027-09-06T07:00:00','2027-08-26T07:00:00','2027-09-06T07:00:00','P0Y0M0D','P0Y0M0D',.T.,$,$,$,$,$,0.00);
#99=IFCTASK('3F_1EFuQa0ArZXPmbEj02L',#6,'Main electrical distribution',$,$,'5.1',$,$,$,.F.,$,#98,.INSTALLATION.);
#100=IFCTASKTIME('Risers, all services Time',.PREDICTED.,$,.WORKTIME.,'P0Y0M12D','2027-03-01T07:00:00','2027-03-16T07:00:00','2027-09-07T07:00:00','2027-09-22T07:00:00','2027-11-22T07:00:00','2027-12-07T07:00:00','P0Y0M0D','P0Y0M54D',.F.,$,$,$,$,$,0.00);
#101=IFCTASK('3ZL7Tw$aE3VaIOYQq9nKIq',#6,'Risers, all services',$,$,'5.2',$,$,$,.F.,$,#100,.INSTALLATION.);
#102=IFCTASKTIME('VRF climate system Time',.PREDICTED.,$,.WORKTIME.,'P0Y0M10D','2027-03-01T07:00:00','2027-03-12T07:00:00','2027-09-14T07:00:00','2027-09-27T07:00:00','2027-11-29T07:00:00','2027-12-10T07:00:00','P0Y0M0D','P0Y0M54D',.F.,$,$,$,$,$,0.00);
#103=IFCTASK('3qLm_e0kLyUZjYcyfqq5N2',#6,'VRF climate system',$,$,'5.3',$,$,$,.F.,$,#102,.INSTALLATION.);
#104=IFCTASKTIME('Ventilation and air handling Time',.PREDICTED.,$,.WORKTIME.,'P0Y0M10D','2027-03-01T07:00:00','2027-03-12T07:00:00','2027-09-28T07:00:00','2027-10-11T07:00:00','2027-12-13T07:00:00','2027-12-24T07:00:00','P0Y0M0D','P0Y0M54D',.F.,$,$,$,$,$,0.00);
#105=IFCTASK('1Tx5GQpLA8qBRedJCy7VYL',#6,'Ventilation and air handling',$,$,'5.4',$,$,$,.F.,$,#104,.INSTALLATION.);
#106=IFCTASKTIME('Lift installation (2 units) Time',.PREDICTED.,$,.WORKTIME.,'P0Y0M15D','2027-03-01T07:00:00','2027-03-19T07:00:00','2027-10-12T07:00:00','2027-11-01T07:00:00','2027-12-27T07:00:00','2028-01-14T07:00:00','P0Y0M0D','P0Y0M54D',.F.,$,$,$,$,$,0.00);
#107=IFCTASK('3BgwN50D26NyvsaZ2IjhF6',#6,'Lift installation (2 units)',$,$,'5.5',$,$,$,.F.,$,#106,.INSTALLATION.);
#108=IFCTASKTIME('Sprinkler and fire alarm Time',.PREDICTED.,$,.WORKTIME.,'P0Y0M8D','2027-03-01T07:00:00','2027-03-10T07:00:00','2027-11-02T07:00:00','2027-11-11T07:00:00','2028-01-17T07:00:00','2028-01-26T07:00:00','P0Y0M0D','P0Y0M54D',.F.,$,$,$,$,$,0.00);
#109=IFCTASK('3BPyz1SAQJkRmvA5qGwtei',#6,'Sprinkler and fire alarm',$,$,'5.6',$,$,$,.F.,$,#108,.INSTALLATION.);
#110=IFCTASKTIME('Wellness building services Time',.PREDICTED.,$,.WORKTIME.,'P0Y0M10D','2027-03-01T07:00:00','2027-03-12T07:00:00','2027-11-12T07:00:00','2027-11-25T07:00:00','2028-01-27T07:00:00','2028-02-09T07:00:00','P0Y0M0D','P0Y0M54D',.F.,$,$,$,$,$,0.00);
#111=IFCTASK('0nIRSEXRj1NyYxSSdY8d9_',#6,'Wellness building services',$,$,'5.7',$,$,$,.F.,$,#110,.INSTALLATION.);
#112=IFCTASKTIME('Hotel automation Time',.PREDICTED.,$,.WORKTIME.,'P0Y0M5D','2027-03-01T07:00:00','2027-03-05T07:00:00','2027-11-26T07:00:00','2027-12-02T07:00:00','2028-02-10T07:00:00','2028-02-16T07:00:00','P0Y0M54D','P0Y0M54D',.F.,$,$,$,$,$,0.00);
#113=IFCTASK('3vteH3Os4UIiAOQ2zeCtCB',#6,'Hotel automation',$,$,'5.8',$,$,$,.F.,$,#112,.INSTALLATION.);
#114=IFCTASKTIME('6. Fit-out Time',.PREDICTED.,$,.WORKTIME.,'P0Y0M68D','2027-03-01T07:00:00','2027-03-05T07:00:00','2027-10-20T07:00:00','2028-01-21T07:00:00','2027-10-20T07:00:00','2028-01-21T07:00:00','P0Y0M0D','P0Y0M0D',.T.,$,$,$,$,$,0.00);
#115=IFCTASK('2IKraNYV_p6gi_Bp0z6Dmv',#6,'6. Fit-out',$,$,'6',$,$,$,.F.,$,#114,.CONSTRUCTION.);
#116=IFCTASKTIME('Prefab room walls Time',.PREDICTED.,$,.WORKTIME.,'P0Y0M12D','2027-03-01T07:00:00','2027-03-16T07:00:00','2027-10-20T07:00:00','2027-11-04T07:00:00','2027-10-20T07:00:00','2027-11-04T07:00:00','P0Y0M0D','P0Y0M0D',.T.,$,$,$,$,$,0.00);
#117=IFCTASK('2Op3r_p02PLcBQgPNOovBe',#6,'Prefab room walls',$,$,'6.1',$,$,$,.F.,$,#116,.CONSTRUCTION.);
#118=IFCTASKTIME('Prefab bathroom pods Time',.PREDICTED.,$,.WORKTIME.,'P0Y0M10D','2027-03-01T07:00:00','2027-03-12T07:00:00','2027-11-05T07:00:00','2027-11-18T07:00:00','2027-11-05T07:00:00','2027-11-18T07:00:00','P0Y0M0D','P0Y0M0D',.T.,$,$,$,$,$,0.00);
#119=IFCTASK('2L7hTvIJX5lYxx5S2HMIgA',#6,'Prefab bathroom pods',$,$,'6.2',$,$,$,.F.,$,#118,.INSTALLATION.);
#120=IFCTASKTIME('Screeds and carpet Time',.PREDICTED.,$,.WORKTIME.,'P0Y0M8D','2027-03-01T07:00:00','2027-03-10T07:00:00','2027-11-19T07:00:00','2027-11-30T07:00:00','2027-11-19T07:00:00','2027-11-30T07:00:00','P0Y0M0D','P0Y0M0D',.T.,$,$,$,$,$,0.00);
#121=IFCTASK('24opez7$1d2yIqMynD9_B$',#6,'Screeds and carpet',$,$,'6.3',$,$,$,.F.,$,#120,.CONSTRUCTION.);
#122=IFCTASKTIME('Luxury lobby finishes Time',.PREDICTED.,$,.WORKTIME.,'P0Y0M10D','2027-03-01T07:00:00','2027-03-12T07:00:00','2027-12-01T07:00:00','2027-12-14T07:00:00','2027-12-01T07:00:00','2027-12-14T07:00:00','P0Y0M0D','P0Y0M0D',.T.,$,$,$,$,$,0.00);
#123=IFCTASK('17iAnnpPD6A7y9KjpENLp_',#6,'Luxury lobby finishes',$,$,'6.4',$,$,$,.F.,$,#122,.CONSTRUCTION.);
#124=IFCTASKTIME('Restaurant kitchen Time',.PREDICTED.,$,.WORKTIME.,'P0Y0M8D','2027-03-01T07:00:00','2027-03-10T07:00:00','2027-12-15T07:00:00','2027-12-24T07:00:00','2027-12-15T07:00:00','2027-12-24T07:00:00','P0Y0M0D','P0Y0M0D',.T.,$,$,$,$,$,0.00);
#125=IFCTASK('0fRV4sKBCNMYNTjaF82aqu',#6,'Restaurant kitchen',$,$,'6.5',$,$,$,.F.,$,#124,.INSTALLATION.);
#126=IFCTASKTIME('Painting Time',.PREDICTED.,$,.WORKTIME.,'P0Y0M10D','2027-03-01T07:00:00','2027-03-12T07:00:00','2027-12-27T07:00:00','2028-01-07T07:00:00','2027-12-27T07:00:00','2028-01-07T07:00:00','P0Y0M0D','P0Y0M0D',.T.,$,$,$,$,$,0.00);
#127=IFCTASK('0Ctz_Cj2W474QYD9aIujYd',#6,'Painting',$,$,'6.6',$,$,$,.F.,$,#126,.CONSTRUCTION.);
#128=IFCTASKTIME('Room furnishing Time',.PREDICTED.,$,.WORKTIME.,'P0Y0M10D','2027-03-01T07:00:00','2027-03-12T07:00:00','2028-01-10T07:00:00','2028-01-21T07:00:00','2028-01-10T07:00:00','2028-01-21T07:00:00','P0Y0M0D','P0Y0M0D',.T.,$,$,$,$,$,0.00);
#129=IFCTASK('3uBwU2jhZukFxBVlvNJMJm',#6,'Room furnishing',$,$,'6.7',$,$,$,.F.,$,#128,.LOGISTIC.);
#130=IFCTASKTIME('7. Handover Time',.PREDICTED.,$,.WORKTIME.,'P0Y0M18D','2027-03-01T07:00:00','2027-03-05T07:00:00','2028-01-24T07:00:00','2028-02-16T07:00:00','2028-01-24T07:00:00','2028-02-16T07:00:00','P0Y0M0D','P0Y0M0D',.T.,$,$,$,$,$,0.00);
#131=IFCTASK('3FHLkxzj4iV0OgU65jDlzd',#6,'7. Handover',$,$,'7',$,$,$,.F.,$,#130,.CONSTRUCTION.);
#132=IFCTASKTIME('Finish roof terrace Time',.PREDICTED.,$,.WORKTIME.,'P0Y0M5D','2027-03-01T07:00:00','2027-03-05T07:00:00','2028-01-24T07:00:00','2028-01-28T07:00:00','2028-01-24T07:00:00','2028-01-28T07:00:00','P0Y0M0D','P0Y0M0D',.T.,$,$,$,$,$,0.00);
#133=IFCTASK('3NwxbJo02OI$4A4lmHfd_h',#6,'Finish roof terrace',$,$,'7.1',$,$,$,.F.,$,#132,.CONSTRUCTION.);
#134=IFCTASKTIME('External areas, boulevard Time',.PREDICTED.,$,.WORKTIME.,'P0Y0M8D','2027-03-01T07:00:00','2027-03-10T07:00:00','2028-01-31T07:00:00','2028-02-09T07:00:00','2028-01-31T07:00:00','2028-02-09T07:00:00','P0Y0M0D','P0Y0M0D',.T.,$,$,$,$,$,0.00);
#135=IFCTASK('0wYI8oq51J$Wocte9dNes6',#6,'External areas, boulevard',$,$,'7.2',$,$,$,.F.,$,#134,.CONSTRUCTION.);
#136=IFCTASKTIME('Testing and commissioning Time',.PREDICTED.,$,.WORKTIME.,'P0Y0M5D','2027-03-01T07:00:00','2027-03-05T07:00:00','2028-02-10T07:00:00','2028-02-16T07:00:00','2028-02-10T07:00:00','2028-02-16T07:00:00','P0Y0M0D','P0Y0M0D',.T.,$,$,$,$,$,0.00);
#137=IFCTASK('30JG_TBFbIOJKMnLaybZ06',#6,'Testing and commissioning',$,$,'7.3',$,$,$,.F.,$,#136,.ATTENDANCE.);
#138=IFCTASKTIME('Hotel handover Time',.PREDICTED.,$,.WORKTIME.,'P0Y0M0D','2027-03-01T07:00:00','2027-03-01T07:00:00','2028-02-16T07:00:00','2028-02-16T07:00:00','2028-02-16T07:00:00','2028-02-16T07:00:00','P0Y0M0D','P0Y0M0D',.T.,$,$,$,$,$,0.00);
#139=IFCTASK('2VYCTQvtu13yrR8rtmcSDq',#6,'Hotel handover',$,$,'7.4',$,$,$,.T.,$,#138,.CONSTRUCTION.);
#140=IFCRELNESTS('2vE_NlvXqOyiXxK7BAO0J7',#6,'WBS 1. Preparation',$,#43,( #45,#47,#49,#51));
#141=IFCRELNESTS('3IYUBFHvDofPKF07Od$lRp',#6,'WBS 2. Foundations',$,#53,( #55,#57,#59,#61,#63));
#142=IFCRELNESTS('2DmfCkrwC$UgzuWF76l457',#6,'WBS 3. Structural works',$,#65,( #67,#69,#71,#73,#75,#77,#79,#81,#83));
#143=IFCRELNESTS('2STenRHSxuBjaZHwuxj621',#6,'WBS 4. Facade',$,#85,( #87,#89,#91,#93,#95));
#144=IFCRELNESTS('0SWLcNJoS_bgI81sAMSRnQ',#6,'WBS 5. Building services',$,#97,( #99,#101,#103,#105,#107,#109,#111,#113));
#145=IFCRELNESTS('269jjOPBEy9o6z3OrELOIY',#6,'WBS 6. Fit-out',$,#115,( #117,#119,#121,#123,#125,#127,#129));
#146=IFCRELNESTS('2MRIgyyKcJ7r1VRJw9pGiI',#6,'WBS 7. Handover',$,#131,( #133,#135,#137,#139));
#147=IFCRELNESTS('31s8bsERzDfd7xo9IHY7Bq',#6,'WBS Hoofd',$,#40,(#43,#53,#65,#85,#97,#115,#131));
#148=IFCRELSEQUENCE('19EJYmeSR_AwXZtUg_XyUN',#6,$,$,#45,#47,$,.FINISH_START.,$);
#149=IFCRELSEQUENCE('0jrxh3r3ll$Qtt0KqHPMkk',#6,$,$,#47,#49,$,.FINISH_START.,$);
#150=IFCRELSEQUENCE('0GKBuRqOVwWWadue0nF7D$',#6,$,$,#49,#51,$,.FINISH_START.,$);
#151=IFCRELSEQUENCE('0l5F7kGaczv50bg9meCKKE',#6,$,$,#55,#57,$,.FINISH_START.,$);
#152=IFCRELSEQUENCE('0kpg3gLppwJrivW0YkIkHN',#6,$,$,#57,#59,$,.FINISH_START.,$);
#153=IFCRELSEQUENCE('1Wi5lxp3BnJ6zn3puxXMEF',#6,$,$,#59,#61,$,.FINISH_START.,$);
#154=IFCRELSEQUENCE('2wXdLO0ZLNwh590EvC4_Q1',#6,$,$,#61,#63,$,.FINISH_START.,$);
#155=IFCRELSEQUENCE('0esXndIczkbi1EisMdjIaF',#6,$,$,#67,#69,$,.FINISH_START.,$);
#156=IFCRELSEQUENCE('1pgCIaX$7xMF7NACkUtjrQ',#6,$,$,#69,#71,$,.FINISH_START.,$);
#157=IFCRELSEQUENCE('35vGVc_77hqr4saurzdaEe',#6,$,$,#71,#73,$,.FINISH_START.,$);
#158=IFCRELSEQUENCE('3R0pMfPFOTvQsYB6FKu2LD',#6,$,$,#73,#75,$,.FINISH_START.,$);
#159=IFCRELSEQUENCE('1Cq7cJylKLt4paSu3EuTHy',#6,$,$,#75,#77,$,.FINISH_START.,$);
#160=IFCRELSEQUENCE('3Lpul4DdRMsvSKAD5E$jHu',#6,$,$,#77,#79,$,.FINISH_START.,$);
#161=IFCRELSEQUENCE('2WHaTzl9pdKMGhTXd4QCpv',#6,$,$,#79,#81,$,.FINISH_START.,$);
#162=IFCRELSEQUENCE('0uGWFkIXemWsdJDnGLBDUL',#6,$,$,#81,#83,$,.FINISH_START.,$);
#163=IFCRELSEQUENCE('05n9$obwmilC$vwIdjMrV0',#6,$,$,#87,#89,$,.FINISH_START.,$);
#164=IFCRELSEQUENCE('1BALJ9F7BhUpV0VrAOX5I_',#6,$,$,#89,#91,$,.FINISH_START.,$);
#165=IFCRELSEQUENCE('21a2aEPi4gtIPDT8gB47rK',#6,$,$,#91,#93,$,.FINISH_START.,$);
#166=IFCRELSEQUENCE('2t0IZX8NEbr4am_ggTYsy9',#6,$,$,#93,#95,$,.FINISH_START.,$);
#167=IFCRELSEQUENCE('2gE9O4nBFZ9tIJAkx8tvFg',#6,$,$,#99,#101,$,.FINISH_START.,$);
#168=IFCLAGTIME('Lag',.PREDICTED.,$,IFCDURATION('P5D'),.WORKTIME.);
#169=IFCRELSEQUENCE('1gJJ35BZ3fnjUU9fqTbuT3',#6,$,$,#101,#103,#168,.START_START.,$);
#170=IFCRELSEQUENCE('3a0vXubL4fOBF3Ax5wuomL',#6,$,$,#103,#105,$,.FINISH_START.,$);
#171=IFCRELSEQUENCE('0SssXiET1f42FHHmgeO_Hj',#6,$,$,#105,#107,$,.FINISH_START.,$);
#172=IFCRELSEQUENCE('3lJbKHe15JTNGXwjojoSol',#6,$,$,#107,#109,$,.FINISH_START.,$);
#173=IFCRELSEQUENCE('3unx_m0kcxs_pj1dltqM9F',#6,$,$,#109,#111,$,.FINISH_START.,$);
#174=IFCRELSEQUENCE('0bQSupZ7FkNxUyTooeZQQe',#6,$,$,#111,#113,$,.FINISH_START.,$);
#175=IFCRELSEQUENCE('0Y5eyTzUhQ1DX5UXm2KuYR',#6,$,$,#117,#119,$,.FINISH_START.,$);
#176=IFCRELSEQUENCE('1CUmLBV2_dVvw42Zg9gLuJ',#6,$,$,#119,#121,$,.FINISH_START.,$);
#177=IFCRELSEQUENCE('2mbcJuXmvPc7MZSB8SDGM5',#6,$,$,#121,#123,$,.FINISH_START.,$);
#178=IFCRELSEQUENCE('0Re5RBJOjdu0$m0mCcZjLW',#6,$,$,#123,#125,$,.FINISH_START.,$);
#179=IFCRELSEQUENCE('3IWLlJFkE72fPV55yzNxMa',#6,$,$,#125,#127,$,.FINISH_START.,$);
#180=IFCRELSEQUENCE('1q7SOhwmZWKOrPqvlOX6NN',#6,$,$,#127,#129,$,.FINISH_START.,$);
#181=IFCRELSEQUENCE('02ScJu6l20rmEogDGB1$Q2',#6,$,$,#133,#135,$,.FINISH_START.,$);
#182=IFCRELSEQUENCE('3TsdqYpkzNMRtgG1uRFDjY',#6,$,$,#135,#137,$,.FINISH_START.,$);
#183=IFCRELSEQUENCE('1zY2uxTmh1Q6QfufzQ8ao3',#6,$,$,#137,#139,$,.FINISH_START.,$);
#184=IFCLAGTIME('Lag',.PREDICTED.,$,IFCDURATION('P9D'),.WORKTIME.);
#185=IFCRELSEQUENCE('03SQImoq7X57OkBv7LGUTz',#6,$,$,#45,#55,#184,.START_START.,$);
#186=IFCLAGTIME('Lag',.PREDICTED.,$,IFCRATIOMEASURE(0.4),.WORKTIME.);
#187=IFCRELSEQUENCE('1ZdlFgqS6dKxTiEtQe0ia9',#6,$,$,#55,#67,#186,.START_START.,$);
#188=IFCLAGTIME('Lag',.PREDICTED.,$,IFCDURATION('-P14D'),.WORKTIME.);
#189=IFCRELSEQUENCE('3ZX_pgar6ANaeDA5czy3a1',#6,$,$,#81,#87,#188,.FINISH_START.,$);
#190=IFCLAGTIME('Lag',.PREDICTED.,$,IFCDURATION('P2D'),.WORKTIME.);
#191=IFCRELSEQUENCE('0xsCmVxZV1hVrtKXVDbBzp',#6,$,$,#81,#93,#190,.FINISH_FINISH.,$);
#192=IFCRELSEQUENCE('3ADSTkPyGR8wcL$qb1Itvw',#6,$,$,#93,#99,$,.FINISH_START.,$);
#193=IFCLAGTIME('Lag',.PREDICTED.,$,IFCDURATION('P39D'),.WORKTIME.);
#194=IFCRELSEQUENCE('3O184d6WxSMGgWcmwxYRU7',#6,$,$,#99,#117,#193,.START_START.,$);
#195=IFCRELSEQUENCE('1c0WXB$yBgPS0hmc6WBJbw',#6,$,$,#129,#133,$,.FINISH_START.,$);
#196=IFCRELASSIGNSTOCONTROL('1nQxR6PqImTFdw$YaMoXk$',#6,$,$,(#43,#45,#47,#49,#51,#53,#55,#57,#59,#61,#63,#65,#67,#69,#71,#73,#75,#77,#79,#81,#83,#85,#87,#89,#91,#93,#95,#97,#99,#101,#103,#105,#107,#109,#111,#113,#115,#117,#119,#121,#123,#125,#127,#129,#131,#133,#135,#137,#139),$,#40);
#197=IFCPROPERTYSINGLEVALUE('InternalProjectId',$,IFCTEXT('proj-mula82v64vaw2605'),$);
#198=IFCPROPERTYSINGLEVALUE('wbsAutoNumber',$,IFCBOOLEAN(.T.),$);
#199=IFCPROPERTYSINGLEVALUE('DefaultTaskDurationUnit',$,IFCLABEL('days'),$);
#200=IFCPROPERTYSINGLEVALUE('ProjectStartDate',$,IFCDATE('2027-03-01'),$);
#201=IFCPROPERTYSINGLEVALUE('ProjectEndDate',$,$,$);
#202=IFCPROPERTYSINGLEVALUE('CreatedAt',$,IFCTEXT('2026-09-28T13:27:23.010Z'),$);
#203=IFCPROPERTYSINGLEVALUE('ModifiedAt',$,IFCTEXT('2026-09-28T13:27:23.012Z'),$);
#204=IFCPROPERTYSET('0oy5ctYR973EDGgnFH8R9q',#6,'OPS_ProjectSettings',$,(#197,#198,#199,#200,#201,#202,#203));
#205=IFCRELDEFINESBYPROPERTIES('1SFRfi8nTgQLzXh8pgT0PS',#6,$,$,(#13),#204);
#206=IFCPROPERTYSINGLEVALUE('InternalTaskId',$,IFCTEXT('task-mula82v9rsa52606'),$);
#207=IFCPROPERTYSET('1ajQdSVfzDr9Ve5dnjKf_t',#6,'OPS_TaskIdentity',$,(#206));
#208=IFCRELDEFINESBYPROPERTIES('26$UrP9o2ag51mC14_c$L7',#6,$,$,(#43),#207);
#209=IFCPROPERTYSINGLEVALUE('InternalTaskId',$,IFCTEXT('task-mula82vawtkl2607'),$);
#210=IFCPROPERTYSET('0Wn4xbwhnk9JL7uaTv5r8a',#6,'OPS_TaskIdentity',$,(#209));
#211=IFCRELDEFINESBYPROPERTIES('3uoLQC8YFd2hulYapYDxu6',#6,$,$,(#45),#210);
#212=IFCPROPERTYSINGLEVALUE('InternalTaskId',$,IFCTEXT('task-mula82vc2ph82608'),$);
#213=IFCPROPERTYSET('0nBOsD4tHDqXq0zuIPVSSx',#6,'OPS_TaskIdentity',$,(#212));
#214=IFCRELDEFINESBYPROPERTIES('1IukkBKf01cFOiGb86h38A',#6,$,$,(#47),#213);
#215=IFCPROPERTYSINGLEVALUE('InternalTaskId',$,IFCTEXT('task-mula82veuz5g2609'),$);
#216=IFCPROPERTYSET('2Aj8LumNyUC14DaEG5p2ND',#6,'OPS_TaskIdentity',$,(#215));
#217=IFCRELDEFINESBYPROPERTIES('2ej6glMPNiLnObNcYaMk$d',#6,$,$,(#49),#216);
#218=IFCPROPERTYSINGLEVALUE('InternalTaskId',$,IFCTEXT('task-mula82vgj92i2610'),$);
#219=IFCPROPERTYSET('3rfgDX6YRfTmUN30jZP1Ol',#6,'OPS_TaskIdentity',$,(#218));
#220=IFCRELDEFINESBYPROPERTIES('3YZ41lqAhvtBPemUfjkiNL',#6,$,$,(#51),#219);
#221=IFCPROPERTYSINGLEVALUE('InternalTaskId',$,IFCTEXT('task-mula82vieegy2611'),$);
#222=IFCPROPERTYSET('2bmdcslzF8j9qx4u$weUZL',#6,'OPS_TaskIdentity',$,(#221));
#223=IFCRELDEFINESBYPROPERTIES('1WVbArKDIWzrDgNXnw7fDW',#6,$,$,(#53),#222);
#224=IFCPROPERTYSINGLEVALUE('InternalTaskId',$,IFCTEXT('task-mula82vjjr2y2612'),$);
#225=IFCPROPERTYSET('3aBZTl8vwoILhjUHddMsk6',#6,'OPS_TaskIdentity',$,(#224));
#226=IFCRELDEFINESBYPROPERTIES('2xGn9jwkwl8_kBlN$KMvy5',#6,$,$,(#55),#225);
#227=IFCPROPERTYSINGLEVALUE('InternalTaskId',$,IFCTEXT('task-mula82vlh9cg2613'),$);
#228=IFCPROPERTYSET('00ppLz7AhRO9TngNl5swxO',#6,'OPS_TaskIdentity',$,(#227));
#229=IFCRELDEFINESBYPROPERTIES('0RMfjCVy4gaEV9BdvlWxyc',#6,$,$,(#57),#228);
#230=IFCPROPERTYSINGLEVALUE('InternalTaskId',$,IFCTEXT('task-mula82vn8fu72614'),$);
#231=IFCPROPERTYSET('2d0$pBVCHNmdW7QNO9ww2I',#6,'OPS_TaskIdentity',$,(#230));
#232=IFCRELDEFINESBYPROPERTIES('2ZDIi8Bq9AXOdmXPhaz0hL',#6,$,$,(#59),#231);
#233=IFCPROPERTYSINGLEVALUE('InternalTaskId',$,IFCTEXT('task-mula82vo9igf2615'),$);
#234=IFCPROPERTYSET('01Tgh5APPckfS1MEgtNYaV',#6,'OPS_TaskIdentity',$,(#233));
#235=IFCRELDEFINESBYPROPERTIES('0vH3BAzO5qoNpEAvamF7wQ',#6,$,$,(#61),#234);
#236=IFCPROPERTYSINGLEVALUE('InternalTaskId',$,IFCTEXT('task-mula82vp3pd12616'),$);
#237=IFCPROPERTYSET('2EOKSVA8b7AV9kFdvwfPzc',#6,'OPS_TaskIdentity',$,(#236));
#238=IFCRELDEFINESBYPROPERTIES('0KcqbX6SGv70KvDWby2C32',#6,$,$,(#63),#237);
#239=IFCPROPERTYSINGLEVALUE('InternalTaskId',$,IFCTEXT('task-mula82vrc1cm2617'),$);
#240=IFCPROPERTYSET('1JwQD2mnzxZAqMeBxHjCbO',#6,'OPS_TaskIdentity',$,(#239));
#241=IFCRELDEFINESBYPROPERTIES('0egnvhFz3s4$sAWIgBrJ_i',#6,$,$,(#65),#240);
#242=IFCPROPERTYSINGLEVALUE('InternalTaskId',$,IFCTEXT('task-mula82vtj9mu2618'),$);
#243=IFCPROPERTYSET('2DDE8Un9hxeBMdzvz7um8Y',#6,'OPS_TaskIdentity',$,(#242));
#244=IFCRELDEFINESBYPROPERTIES('0Z4AUOdstKRyxOtORctRq$',#6,$,$,(#67),#243);
#245=IFCPROPERTYSINGLEVALUE('InternalTaskId',$,IFCTEXT('task-mula82vu3t3v2619'),$);
#246=IFCPROPERTYSET('2PM1gkXtf2D2$9FVVpcWEL',#6,'OPS_TaskIdentity',$,(#245));
#247=IFCRELDEFINESBYPROPERTIES('3XTsdRyjgRczux$VlrU1Nv',#6,$,$,(#69),#246);
#248=IFCPROPERTYSINGLEVALUE('InternalTaskId',$,IFCTEXT('task-mula82vwifx62620'),$);
#249=IFCPROPERTYSET('3dSPqPHQShXwxvKMdjDXb$',#6,'OPS_TaskIdentity',$,(#248));
#250=IFCRELDEFINESBYPROPERTIES('1gDEZ54$1fy1jvH6hNWi2g',#6,$,$,(#71),#249);
#251=IFCPROPERTYSINGLEVALUE('InternalTaskId',$,IFCTEXT('task-mula82vxo5xh2621'),$);
#252=IFCPROPERTYSET('0T0n7d9A$qflA7DI85wTNV',#6,'OPS_TaskIdentity',$,(#251));
#253=IFCRELDEFINESBYPROPERTIES('3NCH77iIkKD6ai7JILnObU',#6,$,$,(#73),#252);
#254=IFCPROPERTYSINGLEVALUE('InternalTaskId',$,IFCTEXT('task-mula82vyh5l22622'),$);
#255=IFCPROPERTYSET('3BO10eqJAMbWatzPceG1BF',#6,'OPS_TaskIdentity',$,(#254));
#256=IFCRELDEFINESBYPROPERTIES('3jq3zUbyHYBSMQaTF8Kmvs',#6,$,$,(#75),#255);
#257=IFCPROPERTYSINGLEVALUE('InternalTaskId',$,IFCTEXT('task-mula82w0uf022623'),$);
#258=IFCPROPERTYSET('0zi$Zvrq_kQZMOnlL1lbDT',#6,'OPS_TaskIdentity',$,(#257));
#259=IFCRELDEFINESBYPROPERTIES('1JcdQs3S9z60wO1tEWShx7',#6,$,$,(#77),#258);
#260=IFCPROPERTYSINGLEVALUE('InternalTaskId',$,IFCTEXT('task-mula82w1eedu2624'),$);
#261=IFCPROPERTYSET('3iasgDWC$W6CMQbYRuTLwI',#6,'OPS_TaskIdentity',$,(#260));
#262=IFCRELDEFINESBYPROPERTIES('2K69fNeoploLUCoQkIE6h3',#6,$,$,(#79),#261);
#263=IFCPROPERTYSINGLEVALUE('InternalTaskId',$,IFCTEXT('task-mula82w3snj02625'),$);
#264=IFCPROPERTYSET('1W0Dw_Q3c$KLGdk_m$h3ca',#6,'OPS_TaskIdentity',$,(#263));
#265=IFCRELDEFINESBYPROPERTIES('0h0VibfVQcoe1AepjtC3Ra',#6,$,$,(#81),#264);
#266=IFCPROPERTYSINGLEVALUE('InternalTaskId',$,IFCTEXT('task-mula82w5d6ms2626'),$);
#267=IFCPROPERTYSET('0SEEOfRTsUjVe9q$l3JMYT',#6,'OPS_TaskIdentity',$,(#266));
#268=IFCRELDEFINESBYPROPERTIES('1vkKtpeCQr2UoGahE9R7Wv',#6,$,$,(#83),#267);
#269=IFCPROPERTYSINGLEVALUE('InternalTaskId',$,IFCTEXT('task-mula82w6aiac2627'),$);
#270=IFCPROPERTYSET('34JZdvwfPGPdPLVyZprPlP',#6,'OPS_TaskIdentity',$,(#269));
#271=IFCRELDEFINESBYPROPERTIES('0nWWBTtG16deZSbY0Px5dc',#6,$,$,(#85),#270);
#272=IFCPROPERTYSINGLEVALUE('InternalTaskId',$,IFCTEXT('task-mula82w8mamp2628'),$);
#273=IFCPROPERTYSET('3tDCqvk38N8WHDNhzigUWy',#6,'OPS_TaskIdentity',$,(#272));
#274=IFCRELDEFINESBYPROPERTIES('3Yw7JnEfuUJgP69iWpI$Wc',#6,$,$,(#87),#273);
#275=IFCPROPERTYSINGLEVALUE('InternalTaskId',$,IFCTEXT('task-mula82wasqr62629'),$);
#276=IFCPROPERTYSET('0nb4y9bqxNa5FPjYdc6e8j',#6,'OPS_TaskIdentity',$,(#275));
#277=IFCRELDEFINESBYPROPERTIES('30OyWRGsU5W8gTmVEuGxJx',#6,$,$,(#89),#276);
#278=IFCPROPERTYSINGLEVALUE('InternalTaskId',$,IFCTEXT('task-mula82wbpme92630'),$);
#279=IFCPROPERTYSET('2zlvwXUWwM3LdkcNKyWo$g',#6,'OPS_TaskIdentity',$,(#278));
#280=IFCRELDEFINESBYPROPERTIES('2sMXT$IO8h_KjtCvrUBC4T',#6,$,$,(#91),#279);
#281=IFCPROPERTYSINGLEVALUE('InternalTaskId',$,IFCTEXT('task-mula82wdiglr2631'),$);
#282=IFCPROPERTYSET('0IsunYuplV5zQQQlE6d56u',#6,'OPS_TaskIdentity',$,(#281));
#283=IFCRELDEFINESBYPROPERTIES('264wJZXEFGZSEMFzUL3sv6',#6,$,$,(#93),#282);
#284=IFCPROPERTYSINGLEVALUE('InternalTaskId',$,IFCTEXT('task-mula82wf4i822632'),$);
#285=IFCPROPERTYSET('3gYwE4lipv0IXmG3khL2MF',#6,'OPS_TaskIdentity',$,(#284));
#286=IFCRELDEFINESBYPROPERTIES('1rD8_KEPmUrngZK1BIn1te',#6,$,$,(#95),#285);
#287=IFCPROPERTYSINGLEVALUE('InternalTaskId',$,IFCTEXT('task-mula82wg5qd02633'),$);
#288=IFCPROPERTYSET('33kH5ckhXuoGIoMaRnFBIa',#6,'OPS_TaskIdentity',$,(#287));
#289=IFCRELDEFINESBYPROPERTIES('1WEM0THaKJg$LsWNI$HWKt',#6,$,$,(#97),#288);
#290=IFCPROPERTYSINGLEVALUE('InternalTaskId',$,IFCTEXT('task-mula82widcei2634'),$);
#291=IFCPROPERTYSET('1yDmGQVFfBEP8q60Kguj9a',#6,'OPS_TaskIdentity',$,(#290));
#292=IFCRELDEFINESBYPROPERTIES('0EKLd4HsTIjmnHVNWRP$7B',#6,$,$,(#99),#291);
#293=IFCPROPERTYSINGLEVALUE('InternalTaskId',$,IFCTEXT('task-mula82wkx2v92635'),$);
#294=IFCPROPERTYSET('16TCb_4f580dAxT7bHtEis',#6,'OPS_TaskIdentity',$,(#293));
#295=IFCRELDEFINESBYPROPERTIES('1JnFoie$ddgQjvx1C4UO1p',#6,$,$,(#101),#294);
#296=IFCPROPERTYSINGLEVALUE('InternalTaskId',$,IFCTEXT('task-mula82wmzqwg2636'),$);
#297=IFCPROPERTYSET('389pny0v2Vqp7g1lCW2nPz',#6,'OPS_TaskIdentity',$,(#296));
#298=IFCRELDEFINESBYPROPERTIES('2HafNQcFPu7kQ9wRsu9bjB',#6,$,$,(#103),#297);
#299=IFCPROPERTYSINGLEVALUE('InternalTaskId',$,IFCTEXT('task-mula82woldbq2637'),$);
#300=IFCPROPERTYSET('02wKgb$N$qep3C_4jVHi7V',#6,'OPS_TaskIdentity',$,(#299));
#301=IFCRELDEFINESBYPROPERTIES('3ukvwthhPU0GvJtH9OfafS',#6,$,$,(#105),#300);
#302=IFCPROPERTYSINGLEVALUE('InternalTaskId',$,IFCTEXT('task-mula82wqe6sl2638'),$);
#303=IFCPROPERTYSET('0cx075eBxuG6nPDlesbQUR',#6,'OPS_TaskIdentity',$,(#302));
#304=IFCRELDEFINESBYPROPERTIES('0xdWqPUn$$vPsXAWZ$tN$P',#6,$,$,(#107),#303);
#305=IFCPROPERTYSINGLEVALUE('InternalTaskId',$,IFCTEXT('task-mula82wr4u792639'),$);
#306=IFCPROPERTYSET('3vQ3Y6ZH27K1wJ4AW5zWbW',#6,'OPS_TaskIdentity',$,(#305));
#307=IFCRELDEFINESBYPROPERTIES('0rewSn04pywFA0tbquFjY$',#6,$,$,(#109),#306);
#308=IFCPROPERTYSINGLEVALUE('InternalTaskId',$,IFCTEXT('task-mula82wtd5052640'),$);
#309=IFCPROPERTYSET('0K_g_skfbfnUrqyuvrjHl2',#6,'OPS_TaskIdentity',$,(#308));
#310=IFCRELDEFINESBYPROPERTIES('3MQ7UaKh5SMjLxLdSbMmri',#6,$,$,(#111),#309);
#311=IFCPROPERTYSINGLEVALUE('InternalTaskId',$,IFCTEXT('task-mula82wvq3m42641'),$);
#312=IFCPROPERTYSET('2THKU6XIy$$PcbpsonSjpC',#6,'OPS_TaskIdentity',$,(#311));
#313=IFCRELDEFINESBYPROPERTIES('2wnPf$0W6s_S3W6EGdW8NP',#6,$,$,(#113),#312);
#314=IFCPROPERTYSINGLEVALUE('InternalTaskId',$,IFCTEXT('task-mula82wxxxgz2642'),$);
#315=IFCPROPERTYSET('10Dg16XDR$Sro$7v6drnSI',#6,'OPS_TaskIdentity',$,(#314));
#316=IFCRELDEFINESBYPROPERTIES('3QaQfSowyuJKgS7PT11RMH',#6,$,$,(#115),#315);
#317=IFCPROPERTYSINGLEVALUE('InternalTaskId',$,IFCTEXT('task-mula82wz5h9n2643'),$);
#318=IFCPROPERTYSET('0bKshE2gQ7bYBR6pBxRXeZ',#6,'OPS_TaskIdentity',$,(#317));
#319=IFCRELDEFINESBYPROPERTIES('2bqoOXj65zqRf0_Vk3vZ7a',#6,$,$,(#117),#318);
#320=IFCPROPERTYSINGLEVALUE('InternalTaskId',$,IFCTEXT('task-mula82x15wzc2644'),$);
#321=IFCPROPERTYSET('2$eVew6TaY9fX1MDcU8PKR',#6,'OPS_TaskIdentity',$,(#320));
#322=IFCRELDEFINESBYPROPERTIES('3W14WTanokzi6oC84RbyeM',#6,$,$,(#119),#321);
#323=IFCPROPERTYSINGLEVALUE('InternalTaskId',$,IFCTEXT('task-mula82x30edb2645'),$);
#324=IFCPROPERTYSET('19xeJ9yDrY_PMhWc1ktIMb',#6,'OPS_TaskIdentity',$,(#323));
#325=IFCRELDEFINESBYPROPERTIES('0HDP_Y_h7s0prreO3GziAc',#6,$,$,(#121),#324);
#326=IFCPROPERTYSINGLEVALUE('InternalTaskId',$,IFCTEXT('task-mula82x58m0v2646'),$);
#327=IFCPROPERTYSET('3X5ua689qJBMDU5HCwVgUG',#6,'OPS_TaskIdentity',$,(#326));
#328=IFCRELDEFINESBYPROPERTIES('1y$iBPFHiBBppJ3rqPEzP_',#6,$,$,(#123),#327);
#329=IFCPROPERTYSINGLEVALUE('InternalTaskId',$,IFCTEXT('task-mula82x7a9ml2647'),$);
#330=IFCPROPERTYSET('0MMBjyc8EW3NU7h_mBuNU_',#6,'OPS_TaskIdentity',$,(#329));
#331=IFCRELDEFINESBYPROPERTIES('3_eGMqplpNUvlVPDapG0EF',#6,$,$,(#125),#330);
#332=IFCPROPERTYSINGLEVALUE('InternalTaskId',$,IFCTEXT('task-mula82x97ohd2648'),$);
#333=IFCPROPERTYSET('2ux5xMmE0n6j44$Pe7Pkbd',#6,'OPS_TaskIdentity',$,(#332));
#334=IFCRELDEFINESBYPROPERTIES('3dC_1d6d6kSWsWgpsmj6aX',#6,$,$,(#127),#333);
#335=IFCPROPERTYSINGLEVALUE('InternalTaskId',$,IFCTEXT('task-mula82xc7rkm2649'),$);
#336=IFCPROPERTYSET('1IWO5KhBQ4Pc9qq9NC8fTA',#6,'OPS_TaskIdentity',$,(#335));
#337=IFCRELDEFINESBYPROPERTIES('1Yi8u3s66aZ07cLD_droQ7',#6,$,$,(#129),#336);
#338=IFCPROPERTYSINGLEVALUE('InternalTaskId',$,IFCTEXT('task-mula82xeancs2650'),$);
#339=IFCPROPERTYSET('27FvEUIauZtV8MXR5RrshV',#6,'OPS_TaskIdentity',$,(#338));
#340=IFCRELDEFINESBYPROPERTIES('0R2dE2OIJePGhyrmZUsmBc',#6,$,$,(#131),#339);
#341=IFCPROPERTYSINGLEVALUE('InternalTaskId',$,IFCTEXT('task-mula82xgm5mp2651'),$);
#342=IFCPROPERTYSET('2gzcDhKX_z06pcJpZE8GUJ',#6,'OPS_TaskIdentity',$,(#341));
#343=IFCRELDEFINESBYPROPERTIES('0yWiN0RDQesbUWq_Y6lwQb',#6,$,$,(#133),#342);
#344=IFCPROPERTYSINGLEVALUE('InternalTaskId',$,IFCTEXT('task-mula82xi1m942652'),$);
#345=IFCPROPERTYSET('1Ze2OeimzutAVCpnv7gHv7',#6,'OPS_TaskIdentity',$,(#344));
#346=IFCRELDEFINESBYPROPERTIES('3ry30Q8JvND7qcjyV_Bh02',#6,$,$,(#135),#345);
#347=IFCPROPERTYSINGLEVALUE('InternalTaskId',$,IFCTEXT('task-mula82xkkppz2653'),$);
#348=IFCPROPERTYSET('1t3g0o_bwwrOcq8C0Yd87d',#6,'OPS_TaskIdentity',$,(#347));
#349=IFCRELDEFINESBYPROPERTIES('2piy18LEMsHcyELAkl0cKB',#6,$,$,(#137),#348);
#350=IFCPROPERTYSINGLEVALUE('InternalTaskId',$,IFCTEXT('task-mula82xmgfu22654'),$);
#351=IFCPROPERTYSET('2GLdn_wlkvFK73uBJ$3mCr',#6,'OPS_TaskIdentity',$,(#350));
#352=IFCRELDEFINESBYPROPERTIES('0Y4PPS0ZJvgDF_S_GEWkhR',#6,$,$,(#139),#351);
#353=IFCPROPERTYSINGLEVALUE('MilestoneKind',$,IFCLABEL('START'),$);
#354=IFCPROPERTYSET('3b5R5kEFRaTR6$3k7VEPRH',#6,'OPS_Milestone',$,(#353));
#355=IFCRELDEFINESBYPROPERTIES('1KYxWGIGkGFZQgqgXrgomx',#6,$,$,(#51),#354);
#356=IFCPROPERTYSINGLEVALUE('MilestoneKind',$,IFCLABEL('FINISH'),$);
#357=IFCPROPERTYSET('1FJP9rkvz5h2gCpA$fbwfs',#6,'OPS_Milestone',$,(#356));
#358=IFCRELDEFINESBYPROPERTIES('2pXfUfHORt8fuQBK2nGetP',#6,$,$,(#83),#357);
#359=IFCPROPERTYSINGLEVALUE('MilestoneKind',$,IFCLABEL('FINISH'),$);
#360=IFCPROPERTYSET('3lDpPVhKoPSu8MIckEiIDE',#6,'OPS_Milestone',$,(#359));
#361=IFCRELDEFINESBYPROPERTIES('342LmIJb3HQTxyHsseLU5v',#6,$,$,(#95),#360);
#362=IFCPROPERTYSINGLEVALUE('MilestoneKind',$,IFCLABEL('FINISH'),$);
#363=IFCPROPERTYSINGLEVALUE('Mandatory',$,IFCBOOLEAN(.T.),$);
#364=IFCPROPERTYSET('0OHYzjuPX_myEvyZ2a56AG',#6,'OPS_Milestone',$,(#362,#363));
#365=IFCRELDEFINESBYPROPERTIES('1D8BHrR51hlPl2N6KZz8$X',#6,$,$,(#139),#364);
ENDSEC;
END-ISO-10303-21;
