ISO-10303-21;
HEADER;
FILE_DESCRIPTION(('ViewDefinition [SchedulingView]'),'2;1');
FILE_NAME('Breda Railway Station Extension.ifc','2026-09-28T13:27:23',('Willem Spoor'),('Station Construction BV'),'Open Planner Studio 0.1','Open Planner Studio','');
FILE_SCHEMA(('IFC4X3'));
ENDSEC;
DATA;
#1=IFCPERSON($,'Willem Spoor',$,$,$,$,$,$);
#2=IFCORGANIZATION($,'Station Construction BV',$,$,$);
#3=IFCPERSONANDORGANIZATION(#1,#2,$);
#4=IFCORGANIZATION($,'OpenAEC Foundation',$,$,$);
#5=IFCAPPLICATION(#4,'0.2','Open Planner Studio','OPS');
#6=IFCOWNERHISTORY(#3,#5,$,.NOCHANGE.,$,$,$,1790602043);
#7=IFCSIUNIT(*,.LENGTHUNIT.,$,.METRE.);
#8=IFCSIUNIT(*,.TIMEUNIT.,$,.SECOND.);
#9=IFCUNITASSIGNMENT((#7,#8));
#10=IFCCARTESIANPOINT((0.,0.,0.));
#11=IFCAXIS2PLACEMENT3D(#10,$,$);
#12=IFCGEOMETRICREPRESENTATIONCONTEXT($,'Plan',3,1.0E-05,#11,$);
#13=IFCPROJECT('2UEWljk9tDHHqDXNa1yuPZ',#6,'Breda Railway Station Extension','Extension of the station concourse and an extra platform with underpass',$,$,$,(#12),#9);
#14=IFCTIMEPERIOD('07:00:00','16:00:00');
#15=IFCRECURRENCEPATTERN(.WEEKLY.,$,(1,2,3,4,5,6),$,$,$,$,(#14));
#16=IFCWORKTIME('Standard work week',.PREDICTED.,$,#15,$,$);
#17=IFCWORKTIME('New Year''s Day',.PREDICTED.,$,$,'2027-01-01','2027-01-01');
#18=IFCWORKTIME('Good Friday',.PREDICTED.,$,$,'2027-03-26','2027-03-26');
#19=IFCWORKTIME('Easter',.PREDICTED.,$,$,'2027-03-28','2027-03-29');
#20=IFCWORKTIME('King''s Day',.PREDICTED.,$,$,'2027-04-27','2027-04-27');
#21=IFCWORKTIME('Liberation Day',.PREDICTED.,$,$,'2027-05-05','2027-05-05');
#22=IFCWORKTIME('Ascension Day',.PREDICTED.,$,$,'2027-05-06','2027-05-06');
#23=IFCWORKTIME('Whitsun',.PREDICTED.,$,$,'2027-05-16','2027-05-17');
#24=IFCWORKTIME('Christmas',.PREDICTED.,$,$,'2027-12-25','2027-12-26');
#25=IFCWORKTIME('Construction holiday (northern region)',.PREDICTED.,$,$,'2027-07-26','2027-08-15');
#26=IFCWORKTIME('New Year''s Day',.PREDICTED.,$,$,'2028-01-01','2028-01-01');
#27=IFCWORKTIME('Good Friday',.PREDICTED.,$,$,'2028-04-14','2028-04-14');
#28=IFCWORKTIME('Easter',.PREDICTED.,$,$,'2028-04-16','2028-04-17');
#29=IFCWORKTIME('King''s Day',.PREDICTED.,$,$,'2028-04-27','2028-04-27');
#30=IFCWORKTIME('Liberation Day',.PREDICTED.,$,$,'2028-05-05','2028-05-05');
#31=IFCWORKTIME('Ascension Day',.PREDICTED.,$,$,'2028-05-25','2028-05-25');
#32=IFCWORKTIME('Whitsun',.PREDICTED.,$,$,'2028-06-04','2028-06-05');
#33=IFCWORKTIME('Christmas',.PREDICTED.,$,$,'2028-12-25','2028-12-26');
#34=IFCWORKTIME('Construction holiday (northern region)',.PREDICTED.,$,$,'2028-07-24','2028-08-13');
#35=IFCWORKCALENDAR('0wPfUPNsHYenfHloJeTC4A',#6,'Infrastructure calendar Mon-Sat','Infrastructure/hydraulic works: Mon-Sat',$,(#16),(#17,#18,#19,#20,#21,#22,#23,#24,#25,#26,#27,#28,#29,#30,#31,#32,#33,#34),.FIRSTSHIFT.);
#36=IFCPROPERTYSINGLEVALUE('HoursPerDay',$,IFCREAL(8),$);
#37=IFCPROPERTYSET('1NArGsVDbSimdkue_IWsZm',#6,'OPS_Calendar',$,(#36));
#38=IFCRELDEFINESBYPROPERTIES('1gBEcmKEgC0gGYAIE_W0yI',#6,$,$,(#35),#37);
#39=IFCWORKPLAN('0iMKAkorI4ut2fFgEVoXr9',#6,'Breda Railway Station Extension','Extension of the station concourse and an extra platform with underpass',$,$,'2026-09-28T13:27:23',$,$,$,$,$,'2027-03-01T07:00:00','2027-03-16T07:00:00',.PLANNED.);
#40=IFCWORKSCHEDULE('2e_ytqS0WwVKb8W1F_MIuV',#6,'Construction schedule v1.0',$,$,$,'2026-09-28T13:27:23',$,$,$,$,$,'2027-03-01T07:00:00','2027-03-16T07:00:00',.PLANNED.);
#41=IFCRELAGGREGATES('1RiszKIXdV1Ft6pwQCBUm3',#6,$,$,#39,(#40));
#42=IFCTASKTIME('1. Preparation Time',.PREDICTED.,$,.WORKTIME.,'P0Y0M29D','2027-03-01T07:00:00','2027-03-05T07:00:00','2027-03-01T07:00:00','2027-04-05T07:00:00','2027-03-01T07:00:00','2027-09-30T07:00:00','P0Y0M0D','P0Y0M0D',.T.,$,$,$,$,$,0.00);
#43=IFCTASK('0yK1ZQrXmfKxkXUlmMPsEF',#6,'1. Preparation',$,$,'1',$,$,$,.F.,$,#42,.CONSTRUCTION.);
#44=IFCTASKTIME('Phasing of rail traffic Time',.PREDICTED.,$,.WORKTIME.,'P0Y0M5D','2027-03-01T07:00:00','2027-03-05T07:00:00','2027-03-01T07:00:00','2027-03-05T07:00:00','2027-03-01T07:00:00','2027-03-05T07:00:00','P0Y0M0D','P0Y0M0D',.T.,$,$,$,$,$,0.00);
#45=IFCTASK('1kWHMXEBcU0gHpemInF4kn',#6,'Phasing of rail traffic',$,$,'1.1',$,$,$,.F.,$,#44,.ATTENDANCE.);
#46=IFCTASKTIME('Temporary platform facility Time',.PREDICTED.,$,.WORKTIME.,'P0Y0M8D','2027-03-01T07:00:00','2027-03-10T07:00:00','2027-03-06T07:00:00','2027-03-15T07:00:00','2027-09-03T07:00:00','2027-09-11T07:00:00','P0Y0M0D','P0Y0M131D',.F.,$,$,$,$,$,0.00);
#47=IFCTASK('1DTZTcs$vFjFxsPjzAn48_',#6,'Temporary platform facility',$,$,'1.2',$,$,$,.F.,$,#46,.CONSTRUCTION.);
#48=IFCTASKTIME('Rail cables and pipes Time',.PREDICTED.,$,.WORKTIME.,'P0Y0M10D','2027-03-01T07:00:00','2027-03-12T07:00:00','2027-03-16T07:00:00','2027-03-27T07:00:00','2027-09-13T07:00:00','2027-09-23T07:00:00','P0Y0M0D','P0Y0M131D',.F.,$,$,$,$,$,0.00);
#49=IFCTASK('16MNrPEdXl9jyvbe86xUHM',#6,'Rail cables and pipes',$,$,'1.3',$,$,$,.F.,$,#48,.INSTALLATION.);
#50=IFCTASKTIME('Set up site Time',.PREDICTED.,$,.WORKTIME.,'P0Y0M5D','2027-03-01T07:00:00','2027-03-05T07:00:00','2027-03-30T07:00:00','2027-04-03T07:00:00','2027-09-24T07:00:00','2027-09-29T07:00:00','P0Y0M0D','P0Y0M131D',.F.,$,$,$,$,$,0.00);
#51=IFCTASK('110PmSokalxkc$zKH_ZQ_u',#6,'Set up site',$,$,'1.4',$,$,$,.F.,$,#50,.LOGISTIC.);
#52=IFCTASKTIME('Start of works Time',.PREDICTED.,$,.WORKTIME.,'P0Y0M0D','2027-03-01T07:00:00','2027-03-01T07:00:00','2027-04-05T07:00:00','2027-04-05T07:00:00','2027-09-30T07:00:00','2027-09-30T07:00:00','P0Y0M131D','P0Y0M131D',.F.,$,$,$,$,$,0.00);
#53=IFCTASK('03L7mYRpDKN63IlfApA4Ib',#6,'Start of works',$,$,'1.5',$,$,$,.T.,$,#52,.CONSTRUCTION.);
#54=IFCTASKTIME('2. Underpass Time',.PREDICTED.,$,.WORKTIME.,'P0Y0M64D','2027-03-01T07:00:00','2027-03-05T07:00:00','2027-03-17T07:00:00','2027-06-05T07:00:00','2027-03-17T07:00:00','2027-09-30T07:00:00','P0Y0M0D','P0Y0M0D',.T.,$,$,$,$,$,0.00);
#55=IFCTASK('28EUSZH91yY7cC2N5q1IsA',#6,'2. Underpass',$,$,'2',$,$,$,.F.,$,#54,.CONSTRUCTION.);
#56=IFCTASKTIME('Sheet piling, tunnel Time',.PREDICTED.,$,.WORKTIME.,'P0Y0M12D','2027-03-01T07:00:00','2027-03-16T07:00:00','2027-03-17T07:00:00','2027-04-01T07:00:00','2027-03-17T07:00:00','2027-04-01T07:00:00','P0Y0M0D','P0Y0M0D',.T.,$,$,$,$,$,0.00);
#57=IFCTASK('3qVX2QH2Z4gAbsXxqSHgQA',#6,'Sheet piling, tunnel',$,$,'2.1',$,$,$,.F.,$,#56,.CONSTRUCTION.);
#58=IFCTASKTIME('Track possession, weekend 1 Time',.PREDICTED.,$,.WORKTIME.,'P0Y0M3D','2027-03-01T07:00:00','2027-03-03T07:00:00','2027-04-02T07:00:00','2027-04-05T07:00:00','2027-07-12T07:00:00','2027-07-14T07:00:00','P0Y0M0D','P0Y0M82D',.F.,$,$,$,$,$,0.00);
#59=IFCTASK('3jTImD0Wxf5iSFCJAMnkKv',#6,'Track possession, weekend 1',$,$,'2.2',$,$,$,.F.,$,#58,.ATTENDANCE.);
#60=IFCTASKTIME('Excavate tunnel box Time',.PREDICTED.,$,.WORKTIME.,'P0Y0M10D','2027-03-01T07:00:00','2027-03-12T07:00:00','2027-04-06T07:00:00','2027-04-16T07:00:00','2027-07-15T07:00:00','2027-08-16T07:00:00','P0Y0M0D','P0Y0M82D',.F.,$,$,$,$,$,0.00);
#61=IFCTASK('3a3Lrl3iC$LBizSsQCZ1mg',#6,'Excavate tunnel box',$,$,'2.3',$,$,$,.F.,$,#60,.CONSTRUCTION.);
#62=IFCTASKTIME('Pour tunnel floor Time',.PREDICTED.,$,.WORKTIME.,'P0Y0M8D','2027-03-01T07:00:00','2027-03-10T07:00:00','2027-04-17T07:00:00','2027-04-26T07:00:00','2027-08-17T07:00:00','2027-08-25T07:00:00','P0Y0M0D','P0Y0M82D',.F.,$,$,$,$,$,0.00);
#63=IFCTASK('2U4NOa9yZSRIkuNSddzexF',#6,'Pour tunnel floor',$,$,'2.4',$,$,$,.F.,$,#62,.CONSTRUCTION.);
#64=IFCTASKTIME('Pour tunnel walls Time',.PREDICTED.,$,.WORKTIME.,'P0Y0M10D','2027-03-01T07:00:00','2027-03-12T07:00:00','2027-04-28T07:00:00','2027-05-11T07:00:00','2027-08-26T07:00:00','2027-09-06T07:00:00','P0Y0M0D','P0Y0M82D',.F.,$,$,$,$,$,0.00);
#65=IFCTASK('1LdGEcjRpfG67V1QxFJLBN',#6,'Pour tunnel walls',$,$,'2.5',$,$,$,.F.,$,#64,.CONSTRUCTION.);
#66=IFCTASKTIME('Place precast tunnel roof Time',.PREDICTED.,$,.WORKTIME.,'P0Y0M5D','2027-03-01T07:00:00','2027-03-05T07:00:00','2027-05-12T07:00:00','2027-05-18T07:00:00','2027-09-07T07:00:00','2027-09-11T07:00:00','P0Y0M0D','P0Y0M82D',.F.,$,$,$,$,$,0.00);
#67=IFCTASK('31jIVBel2$NkKDcVqUrV9I',#6,'Place precast tunnel roof',$,$,'2.6',$,$,$,.F.,$,#66,.CONSTRUCTION.);
#68=IFCTASKTIME('Track possession, weekend 2 Time',.PREDICTED.,$,.WORKTIME.,'P0Y0M3D','2027-03-01T07:00:00','2027-03-03T07:00:00','2027-05-19T07:00:00','2027-05-21T07:00:00','2027-09-13T07:00:00','2027-09-15T07:00:00','P0Y0M0D','P0Y0M82D',.F.,$,$,$,$,$,0.00);
#69=IFCTASK('2FES0gMjftTR9Uk3cnBQ1x',#6,'Track possession, weekend 2',$,$,'2.7',$,$,$,.F.,$,#68,.ATTENDANCE.);
#70=IFCTASKTIME('Tunnel waterproofing Time',.PREDICTED.,$,.WORKTIME.,'P0Y0M8D','2027-03-01T07:00:00','2027-03-10T07:00:00','2027-05-22T07:00:00','2027-05-31T07:00:00','2027-09-16T07:00:00','2027-09-24T07:00:00','P0Y0M0D','P0Y0M82D',.F.,$,$,$,$,$,0.00);
#71=IFCTASK('3g1DpCCVy_HqcdNVST9rhO',#6,'Tunnel waterproofing',$,$,'2.8',$,$,$,.F.,$,#70,.CONSTRUCTION.);
#72=IFCTASKTIME('Backfill over tunnel Time',.PREDICTED.,$,.WORKTIME.,'P0Y0M5D','2027-03-01T07:00:00','2027-03-05T07:00:00','2027-06-01T07:00:00','2027-06-05T07:00:00','2027-09-25T07:00:00','2027-09-30T07:00:00','P0Y0M82D','P0Y0M82D',.F.,$,$,$,$,$,0.00);
#73=IFCTASK('2EgMfCvs7oNazKjCDET9E$',#6,'Backfill over tunnel',$,$,'2.9',$,$,$,.F.,$,#72,.LOGISTIC.);
#74=IFCTASKTIME('3. Platform structure Time',.PREDICTED.,$,.WORKTIME.,'P0Y0M49D','2027-03-01T07:00:00','2027-03-05T07:00:00','2027-03-23T07:00:00','2027-05-25T07:00:00','2027-03-23T07:00:00','2027-05-25T07:00:00','P0Y0M0D','P0Y0M0D',.T.,$,$,$,$,$,0.00);
#75=IFCTASK('3$G8lN0genucN3BwDmMgpn',#6,'3. Platform structure',$,$,'3',$,$,$,.F.,$,#74,.CONSTRUCTION.);
#76=IFCTASKTIME('Prefab platform edges Time',.PREDICTED.,$,.WORKTIME.,'P0Y0M8D','2027-03-01T07:00:00','2027-03-10T07:00:00','2027-03-23T07:00:00','2027-04-02T07:00:00','2027-03-23T07:00:00','2027-04-02T07:00:00','P0Y0M0D','P0Y0M0D',.T.,$,$,$,$,$,0.00);
#77=IFCTASK('1rFY0IiWMBzr8KvFtU4lhz',#6,'Prefab platform edges',$,$,'3.1',$,$,$,.F.,$,#76,.CONSTRUCTION.);
#78=IFCTASKTIME('Platform infill Time',.PREDICTED.,$,.WORKTIME.,'P0Y0M5D','2027-03-01T07:00:00','2027-03-05T07:00:00','2027-04-03T07:00:00','2027-04-08T07:00:00','2027-04-03T07:00:00','2027-04-08T07:00:00','P0Y0M0D','P0Y0M0D',.T.,$,$,$,$,$,0.00);
#79=IFCTASK('3sOfdYyydq3CB3jWGeLI2l',#6,'Platform infill',$,$,'3.2',$,$,$,.F.,$,#78,.CONSTRUCTION.);
#80=IFCTASKTIME('Lay platform tiles Time',.PREDICTED.,$,.WORKTIME.,'P0Y0M8D','2027-03-01T07:00:00','2027-03-10T07:00:00','2027-04-09T07:00:00','2027-04-17T07:00:00','2027-04-09T07:00:00','2027-04-17T07:00:00','P0Y0M0D','P0Y0M0D',.T.,$,$,$,$,$,0.00);
#81=IFCTASK('3__XN6DBc_QI9R7vJpcth3',#6,'Lay platform tiles',$,$,'3.3',$,$,$,.F.,$,#80,.CONSTRUCTION.);
#82=IFCTASKTIME('Steel canopy Time',.PREDICTED.,$,.WORKTIME.,'P0Y0M10D','2027-03-01T07:00:00','2027-03-12T07:00:00','2027-04-19T07:00:00','2027-04-30T07:00:00','2027-04-19T07:00:00','2027-04-30T07:00:00','P0Y0M0D','P0Y0M0D',.T.,$,$,$,$,$,0.00);
#83=IFCTASK('3daHV_$Uh8tCRA9xBcg5ZX',#6,'Steel canopy',$,$,'3.4',$,$,$,.F.,$,#82,.CONSTRUCTION.);
#84=IFCTASKTIME('Glass canopy Time',.PREDICTED.,$,.WORKTIME.,'P0Y0M8D','2027-03-01T07:00:00','2027-03-10T07:00:00','2027-05-01T07:00:00','2027-05-12T07:00:00','2027-05-01T07:00:00','2027-05-12T07:00:00','P0Y0M0D','P0Y0M0D',.T.,$,$,$,$,$,0.00);
#85=IFCTASK('0uGEVokf63FJPir8Oq0oWv',#6,'Glass canopy',$,$,'3.5',$,$,$,.F.,$,#84,.CONSTRUCTION.);
#86=IFCTASKTIME('Install stairs and lifts Time',.PREDICTED.,$,.WORKTIME.,'P0Y0M10D','2027-03-01T07:00:00','2027-03-12T07:00:00','2027-05-13T07:00:00','2027-05-25T07:00:00','2027-05-13T07:00:00','2027-05-25T07:00:00','P0Y0M0D','P0Y0M0D',.T.,$,$,$,$,$,0.00);
#87=IFCTASK('3apZeE0eYzXy8nbTTz1w06',#6,'Install stairs and lifts',$,$,'3.6',$,$,$,.F.,$,#86,.INSTALLATION.);
#88=IFCTASKTIME('4. Station concourse extension Time',.PREDICTED.,$,.WORKTIME.,'P0Y0M35D','2027-03-01T07:00:00','2027-03-05T07:00:00','2027-05-13T07:00:00','2027-06-23T07:00:00','2027-05-13T07:00:00','2027-06-23T07:00:00','P0Y0M0D','P0Y0M0D',.T.,$,$,$,$,$,0.00);
#89=IFCTASK('3Bdr_MT0Dt7gcIABDM_YJX',#6,'4. Station concourse extension',$,$,'4',$,$,$,.F.,$,#88,.CONSTRUCTION.);
#90=IFCTASKTIME('Structural steel, hall Time',.PREDICTED.,$,.WORKTIME.,'P0Y0M12D','2027-03-01T07:00:00','2027-03-16T07:00:00','2027-05-13T07:00:00','2027-05-27T07:00:00','2027-05-13T07:00:00','2027-05-27T07:00:00','P0Y0M0D','P0Y0M0D',.T.,$,$,$,$,$,0.00);
#91=IFCTASK('1XVr1UTD8sxFaRyvQCLx2y',#6,'Structural steel, hall',$,$,'4.1',$,$,$,.F.,$,#90,.CONSTRUCTION.);
#92=IFCTASKTIME('Glass facade and roof Time',.PREDICTED.,$,.WORKTIME.,'P0Y0M10D','2027-03-01T07:00:00','2027-03-12T07:00:00','2027-05-28T07:00:00','2027-06-08T07:00:00','2027-05-28T07:00:00','2027-06-08T07:00:00','P0Y0M0D','P0Y0M0D',.T.,$,$,$,$,$,0.00);
#93=IFCTASK('3s8sQ7FipRn_M0KELLbbzs',#6,'Glass facade and roof',$,$,'4.2',$,$,$,.F.,$,#92,.INSTALLATION.);
#94=IFCTASKTIME('Natural stone flooring Time',.PREDICTED.,$,.WORKTIME.,'P0Y0M8D','2027-03-01T07:00:00','2027-03-10T07:00:00','2027-06-09T07:00:00','2027-06-17T07:00:00','2027-06-09T07:00:00','2027-06-17T07:00:00','P0Y0M0D','P0Y0M0D',.T.,$,$,$,$,$,0.00);
#95=IFCTASK('1uD5xssdiQ3_37Jqm7lE0E',#6,'Natural stone flooring',$,$,'4.3',$,$,$,.F.,$,#94,.CONSTRUCTION.);
#96=IFCTASKTIME('Shopfronts Time',.PREDICTED.,$,.WORKTIME.,'P0Y0M5D','2027-03-01T07:00:00','2027-03-05T07:00:00','2027-06-18T07:00:00','2027-06-23T07:00:00','2027-06-18T07:00:00','2027-06-23T07:00:00','P0Y0M0D','P0Y0M0D',.T.,$,$,$,$,$,0.00);
#97=IFCTASK('1k5r$TmGGIQW5_Nw40$lCt',#6,'Shopfronts',$,$,'4.4',$,$,$,.F.,$,#96,.INSTALLATION.);
#98=IFCTASKTIME('5. Building services Time',.PREDICTED.,$,.WORKTIME.,'P0Y0M39D','2027-03-01T07:00:00','2027-03-05T07:00:00','2027-06-24T07:00:00','2027-08-28T07:00:00','2027-06-24T07:00:00','2027-09-30T07:00:00','P0Y0M0D','P0Y0M0D',.T.,$,$,$,$,$,0.00);
#99=IFCTASK('004ltBtWr9lSxA32GlkYXE',#6,'5. Building services',$,$,'5',$,$,$,.F.,$,#98,.INSTALLATION.);
#100=IFCTASKTIME('Platform power and lighting Time',.PREDICTED.,$,.WORKTIME.,'P0Y0M8D','2027-03-01T07:00:00','2027-03-10T07:00:00','2027-06-24T07:00:00','2027-07-02T07:00:00','2027-06-24T07:00:00','2027-07-02T07:00:00','P0Y0M0D','P0Y0M0D',.T.,$,$,$,$,$,0.00);
#101=IFCTASK('2HIRDcSK1bMch0szrGTLXQ',#6,'Platform power and lighting',$,$,'5.1',$,$,$,.F.,$,#100,.INSTALLATION.);
#102=IFCTASKTIME('Passenger information systems Time',.PREDICTED.,$,.WORKTIME.,'P0Y0M5D','2027-03-01T07:00:00','2027-03-05T07:00:00','2027-07-03T07:00:00','2027-07-08T07:00:00','2027-08-26T07:00:00','2027-08-31T07:00:00','P0Y0M0D','P0Y0M28D',.F.,$,$,$,$,$,0.00);
#103=IFCTASK('0Fv9w8oRBttFxN0bwyHyd6',#6,'Passenger information systems',$,$,'5.2',$,$,$,.F.,$,#102,.INSTALLATION.);
#104=IFCTASKTIME('Install escalators Time',.PREDICTED.,$,.WORKTIME.,'P0Y0M10D','2027-03-01T07:00:00','2027-03-12T07:00:00','2027-07-09T07:00:00','2027-07-20T07:00:00','2027-09-01T07:00:00','2027-09-11T07:00:00','P0Y0M0D','P0Y0M28D',.F.,$,$,$,$,$,0.00);
#105=IFCTASK('2Aj_1M3s7Z2IFIekb7OBgl',#6,'Install escalators',$,$,'5.3',$,$,$,.F.,$,#104,.INSTALLATION.);
#106=IFCTASKTIME('Public address system Time',.PREDICTED.,$,.WORKTIME.,'P0Y0M3D','2027-03-01T07:00:00','2027-03-03T07:00:00','2027-07-21T07:00:00','2027-07-23T07:00:00','2027-09-13T07:00:00','2027-09-15T07:00:00','P0Y0M0D','P0Y0M28D',.F.,$,$,$,$,$,0.00);
#107=IFCTASK('03zlqnMpwOnXoJukixKeUH',#6,'Public address system',$,$,'5.4',$,$,$,.F.,$,#106,.INSTALLATION.);
#108=IFCTASKTIME('CCTV and security Time',.PREDICTED.,$,.WORKTIME.,'P0Y0M5D','2027-03-01T07:00:00','2027-03-05T07:00:00','2027-07-24T07:00:00','2027-08-19T07:00:00','2027-09-16T07:00:00','2027-09-21T07:00:00','P0Y0M0D','P0Y0M28D',.F.,$,$,$,$,$,0.00);
#109=IFCTASK('3D3yjQyOb__1OWEAbR1i7h',#6,'CCTV and security',$,$,'5.5',$,$,$,.F.,$,#108,.INSTALLATION.);
#110=IFCTASKTIME('HVAC installation, hall Time',.PREDICTED.,$,.WORKTIME.,'P0Y0M8D','2027-03-01T07:00:00','2027-03-10T07:00:00','2027-08-20T07:00:00','2027-08-28T07:00:00','2027-09-22T07:00:00','2027-09-30T07:00:00','P0Y0M28D','P0Y0M28D',.F.,$,$,$,$,$,0.00);
#111=IFCTASK('0WUAIA3EovRG3hi_C8NVXj',#6,'HVAC installation, hall',$,$,'5.6',$,$,$,.F.,$,#110,.INSTALLATION.);
#112=IFCTASKTIME('6. Track & finishing Time',.PREDICTED.,$,.WORKTIME.,'P0Y0M36D','2027-03-01T07:00:00','2027-03-05T07:00:00','2027-07-17T07:00:00','2027-09-17T07:00:00','2027-07-17T07:00:00','2027-09-17T07:00:00','P0Y0M0D','P0Y0M0D',.T.,$,$,$,$,$,0.00);
#113=IFCTASK('0jvig5ABTRKlMfwdvWbtbq',#6,'6. Track & finishing',$,$,'6',$,$,$,.F.,$,#112,.CONSTRUCTION.);
#114=IFCTASKTIME('Lay track at new platform Time',.PREDICTED.,$,.WORKTIME.,'P0Y0M10D','2027-03-01T07:00:00','2027-03-12T07:00:00','2027-07-17T07:00:00','2027-08-18T07:00:00','2027-07-17T07:00:00','2027-08-18T07:00:00','P0Y0M0D','P0Y0M0D',.T.,$,$,$,$,$,0.00);
#115=IFCTASK('2fUxZCvqpeVQnDqCuR7ZI$',#6,'Lay track at new platform',$,$,'6.1',$,$,$,.F.,$,#114,.CONSTRUCTION.);
#116=IFCTASKTIME('Overhead line portals Time',.PREDICTED.,$,.WORKTIME.,'P0Y0M8D','2027-03-01T07:00:00','2027-03-10T07:00:00','2027-08-19T07:00:00','2027-08-27T07:00:00','2027-08-19T07:00:00','2027-08-27T07:00:00','P0Y0M0D','P0Y0M0D',.T.,$,$,$,$,$,0.00);
#117=IFCTASK('1AyDNGZUGllMjfWrRoQRXP',#6,'Overhead line portals',$,$,'6.2',$,$,$,.F.,$,#116,.INSTALLATION.);
#118=IFCTASKTIME('Overhead line commissioning Time',.PREDICTED.,$,.WORKTIME.,'P0Y0M5D','2027-03-01T07:00:00','2027-03-05T07:00:00','2027-08-28T07:00:00','2027-09-02T07:00:00','2027-08-28T07:00:00','2027-09-02T07:00:00','P0Y0M0D','P0Y0M0D',.T.,$,$,$,$,$,0.00);
#119=IFCTASK('2QywqKvnlxzh7ft4F5L6Pf',#6,'Overhead line commissioning',$,$,'6.3',$,$,$,.F.,$,#118,.INSTALLATION.);
#120=IFCTASKTIME('Signalling and safety systems Time',.PREDICTED.,$,.WORKTIME.,'P0Y0M5D','2027-03-01T07:00:00','2027-03-05T07:00:00','2027-09-03T07:00:00','2027-09-08T07:00:00','2027-09-03T07:00:00','2027-09-08T07:00:00','P0Y0M0D','P0Y0M0D',.T.,$,$,$,$,$,0.00);
#121=IFCTASK('0AimHQWg4e3RtXxb4PmY9F',#6,'Signalling and safety systems',$,$,'6.4',$,$,$,.F.,$,#120,.INSTALLATION.);
#122=IFCTASKTIME('Painting and finishing Time',.PREDICTED.,$,.WORKTIME.,'P0Y0M8D','2027-03-01T07:00:00','2027-03-10T07:00:00','2027-09-09T07:00:00','2027-09-17T07:00:00','2027-09-09T07:00:00','2027-09-17T07:00:00','P0Y0M0D','P0Y0M0D',.T.,$,$,$,$,$,0.00);
#123=IFCTASK('33LQk7DbKIWeykJ_cUp$UO',#6,'Painting and finishing',$,$,'6.5',$,$,$,.F.,$,#122,.CONSTRUCTION.);
#124=IFCTASKTIME('7. Handover Time',.PREDICTED.,$,.WORKTIME.,'P0Y0M11D','2027-03-01T07:00:00','2027-03-05T07:00:00','2027-09-18T07:00:00','2027-09-30T07:00:00','2027-09-18T07:00:00','2027-09-30T07:00:00','P0Y0M0D','P0Y0M0D',.T.,$,$,$,$,$,0.00);
#125=IFCTASK('1rJeyX5ALkUeW4y4yAyVjV',#6,'7. Handover',$,$,'7',$,$,$,.F.,$,#124,.CONSTRUCTION.);
#126=IFCTASKTIME('Platform trial operation Time',.PREDICTED.,$,.WORKTIME.,'P0Y0M5D','2027-03-01T07:00:00','2027-03-05T07:00:00','2027-09-18T07:00:00','2027-09-23T07:00:00','2027-09-18T07:00:00','2027-09-23T07:00:00','P0Y0M0D','P0Y0M0D',.T.,$,$,$,$,$,0.00);
#127=IFCTASK('0NSxz1GMZYP$CtWAawEinH',#6,'Platform trial operation',$,$,'7.1',$,$,$,.F.,$,#126,.ATTENDANCE.);
#128=IFCTASKTIME('Remove temporary facilities Time',.PREDICTED.,$,.WORKTIME.,'P0Y0M5D','2027-03-01T07:00:00','2027-03-05T07:00:00','2027-09-24T07:00:00','2027-09-29T07:00:00','2027-09-24T07:00:00','2027-09-29T07:00:00','P0Y0M0D','P0Y0M0D',.T.,$,$,$,$,$,0.00);
#129=IFCTASK('0Ri8yvk9xnwSYKFe3Niu3a',#6,'Remove temporary facilities',$,$,'7.2',$,$,$,.F.,$,#128,.DEMOLITION.);
#130=IFCTASKTIME('Station in service Time',.PREDICTED.,$,.WORKTIME.,'P0Y0M0D','2027-03-01T07:00:00','2027-03-01T07:00:00','2027-09-30T07:00:00','2027-09-30T07:00:00','2027-09-30T07:00:00','2027-09-30T07:00:00','P0Y0M0D','P0Y0M0D',.T.,$,$,$,$,$,0.00);
#131=IFCTASK('1g9xY2Jgz6jYDxqKtTmw06',#6,'Station in service',$,$,'7.3',$,$,$,.T.,$,#130,.CONSTRUCTION.);
#132=IFCRELNESTS('0QY0xPJgFHuCYBzTnaDoSU',#6,'WBS 1. Preparation',$,#43,( #45,#47,#49,#51,#53));
#133=IFCRELNESTS('3iSKz37kWBiF__Rip9zCuG',#6,'WBS 2. Underpass',$,#55,( #57,#59,#61,#63,#65,#67,#69,#71,#73));
#134=IFCRELNESTS('1dXMxKCw5pKnrjuuaPpFp4',#6,'WBS 3. Platform structure',$,#75,( #77,#79,#81,#83,#85,#87));
#135=IFCRELNESTS('2uGaK$8lanKb$Vr6NLaePl',#6,'WBS 4. Station concourse extension',$,#89,( #91,#93,#95,#97));
#136=IFCRELNESTS('0KhRBezjj$YYIINqmBJeN3',#6,'WBS 5. Building services',$,#99,( #101,#103,#105,#107,#109,#111));
#137=IFCRELNESTS('06ElLVzcTEymeRkLHdQmSZ',#6,'WBS 6. Track & finishing',$,#113,( #115,#117,#119,#121,#123));
#138=IFCRELNESTS('1BibfiwM1Ep971em8UoybY',#6,'WBS 7. Handover',$,#125,( #127,#129,#131));
#139=IFCRELNESTS('1ETJE3X24aWgAKk2Enz58b',#6,'WBS Hoofd',$,#40,(#43,#55,#75,#89,#99,#113,#125));
#140=IFCRELSEQUENCE('2ROSmCwBAFDrvaDZJiHAYe',#6,$,$,#45,#47,$,.FINISH_START.,$);
#141=IFCRELSEQUENCE('1j9XI9s3Up7yAJvyNKaMnS',#6,$,$,#47,#49,$,.FINISH_START.,$);
#142=IFCRELSEQUENCE('3pGJ3cbiWpdc5oLt7rl857',#6,$,$,#49,#51,$,.FINISH_START.,$);
#143=IFCRELSEQUENCE('3auIizSQZl$1eXRb0A8a0A',#6,$,$,#51,#53,$,.FINISH_START.,$);
#144=IFCRELSEQUENCE('2Exk9G5MNR3mOirMFZdzu2',#6,$,$,#57,#59,$,.FINISH_START.,$);
#145=IFCRELSEQUENCE('3fE6QNxzmJ2UIcszubsSRr',#6,$,$,#59,#61,$,.FINISH_START.,$);
#146=IFCRELSEQUENCE('06ZpQ74o7sF1z4hygU8GbG',#6,$,$,#61,#63,$,.FINISH_START.,$);
#147=IFCRELSEQUENCE('1mzJZ5QVzvfUX6SBKrZOpS',#6,$,$,#63,#65,$,.FINISH_START.,$);
#148=IFCRELSEQUENCE('2rySCseVD6oHRm4wqeCXNn',#6,$,$,#65,#67,$,.FINISH_START.,$);
#149=IFCRELSEQUENCE('0EqR7ZWll9jyKl21RB3INF',#6,$,$,#67,#69,$,.FINISH_START.,$);
#150=IFCRELSEQUENCE('234fCUtSKvqpQQXGtt26m_',#6,$,$,#69,#71,$,.FINISH_START.,$);
#151=IFCRELSEQUENCE('2LTHNbixfU78xAHeJAyrQm',#6,$,$,#71,#73,$,.FINISH_START.,$);
#152=IFCRELSEQUENCE('12_2MYjkC7Kkw0dQFEoHhC',#6,$,$,#77,#79,$,.FINISH_START.,$);
#153=IFCRELSEQUENCE('0OoLiV$8V5sQC3oPWURLhV',#6,$,$,#79,#81,$,.FINISH_START.,$);
#154=IFCRELSEQUENCE('1QDcj0NkeZTF1PAELqZOAn',#6,$,$,#81,#83,$,.FINISH_START.,$);
#155=IFCRELSEQUENCE('2$eQe9kpJGACgQ8dQeIrIs',#6,$,$,#83,#85,$,.FINISH_START.,$);
#156=IFCRELSEQUENCE('2UOfqXd4NtdCQLTTtm0zc3',#6,$,$,#85,#87,$,.FINISH_START.,$);
#157=IFCRELSEQUENCE('1xcx97Oz9poAohg6qYHR57',#6,$,$,#91,#93,$,.FINISH_START.,$);
#158=IFCRELSEQUENCE('1ZMDG$$fOzTvbF37AN8U5B',#6,$,$,#93,#95,$,.FINISH_START.,$);
#159=IFCRELSEQUENCE('0_4ddmvb$YTsq6ip9PbFLC',#6,$,$,#95,#97,$,.FINISH_START.,$);
#160=IFCRELSEQUENCE('3fakmpq9pXLPCgwrX6wxcB',#6,$,$,#101,#103,$,.FINISH_START.,$);
#161=IFCRELSEQUENCE('3KC6nAJgjMmiVv9cHq7Hfl',#6,$,$,#103,#105,$,.FINISH_START.,$);
#162=IFCRELSEQUENCE('2IdTHwydKWTcIumdHNcpS0',#6,$,$,#105,#107,$,.FINISH_START.,$);
#163=IFCRELSEQUENCE('2KA800mgp7xDC9WH6_ImEN',#6,$,$,#107,#109,$,.FINISH_START.,$);
#164=IFCRELSEQUENCE('3UNy7c_KgBAOqsz9yNwfZf',#6,$,$,#109,#111,$,.FINISH_START.,$);
#165=IFCRELSEQUENCE('11odgo5q0$a8DWMEOK9Sbj',#6,$,$,#115,#117,$,.FINISH_START.,$);
#166=IFCRELSEQUENCE('3_zEQSUSNtAadYI3$NPQaD',#6,$,$,#117,#119,$,.FINISH_START.,$);
#167=IFCRELSEQUENCE('3rgapEeEIWnaYnevzE9FAr',#6,$,$,#119,#121,$,.FINISH_START.,$);
#168=IFCRELSEQUENCE('35yb_qcMk292w92JaPYupf',#6,$,$,#121,#123,$,.FINISH_START.,$);
#169=IFCRELSEQUENCE('0u1rXwqu06y0cy$72M3bzD',#6,$,$,#127,#129,$,.FINISH_START.,$);
#170=IFCRELSEQUENCE('2cr8ieAv0SpD9gibXhOljl',#6,$,$,#129,#131,$,.FINISH_START.,$);
#171=IFCLAGTIME('Lag',.PREDICTED.,$,IFCDURATION('P14D'),.WORKTIME.);
#172=IFCRELSEQUENCE('3ZGSU9VSDVx4j0DB6Tgk0m',#6,$,$,#45,#57,#171,.START_START.,$);
#173=IFCLAGTIME('Lag',.PREDICTED.,$,IFCRATIOMEASURE(0.4),.WORKTIME.);
#174=IFCRELSEQUENCE('3ECFNpv9XhVJ9x3S$bcC1t',#6,$,$,#57,#77,#173,.START_START.,$);
#175=IFCLAGTIME('Lag',.PREDICTED.,$,IFCDURATION('-P10D'),.WORKTIME.);
#176=IFCRELSEQUENCE('1MqQ3RfNsVbguHn7p1WIZ0',#6,$,$,#87,#91,#175,.FINISH_START.,$);
#177=IFCLAGTIME('Lag',.PREDICTED.,$,IFCDURATION('P2D'),.WORKTIME.);
#178=IFCRELSEQUENCE('2xcc2VUlVubzHPGk1CpGTk',#6,$,$,#87,#97,#177,.FINISH_FINISH.,$);
#179=IFCRELSEQUENCE('0S0RuxMr0OlFtmN535Ov52',#6,$,$,#97,#101,$,.FINISH_START.,$);
#180=IFCLAGTIME('Lag',.PREDICTED.,$,IFCDURATION('P20D'),.WORKTIME.);
#181=IFCRELSEQUENCE('29aI1hjb3Tcc7lXKEKXmYM',#6,$,$,#101,#115,#180,.START_START.,$);
#182=IFCRELSEQUENCE('2uAuBej74FJhOmM6xY0Qag',#6,$,$,#123,#127,$,.FINISH_START.,$);
#183=IFCRELASSIGNSTOCONTROL('00ikJY_F0ksaPHbAIq_6dN',#6,$,$,(#43,#45,#47,#49,#51,#53,#55,#57,#59,#61,#63,#65,#67,#69,#71,#73,#75,#77,#79,#81,#83,#85,#87,#89,#91,#93,#95,#97,#99,#101,#103,#105,#107,#109,#111,#113,#115,#117,#119,#121,#123,#125,#127,#129,#131),$,#40);
#184=IFCPROPERTYSINGLEVALUE('InternalProjectId',$,IFCTEXT('proj-mula83033dcv2697'),$);
#185=IFCPROPERTYSINGLEVALUE('wbsAutoNumber',$,IFCBOOLEAN(.T.),$);
#186=IFCPROPERTYSINGLEVALUE('DefaultTaskDurationUnit',$,IFCLABEL('days'),$);
#187=IFCPROPERTYSINGLEVALUE('ProjectStartDate',$,IFCDATE('2027-03-01'),$);
#188=IFCPROPERTYSINGLEVALUE('ProjectEndDate',$,$,$);
#189=IFCPROPERTYSINGLEVALUE('CreatedAt',$,IFCTEXT('2026-09-28T13:27:23.187Z'),$);
#190=IFCPROPERTYSINGLEVALUE('ModifiedAt',$,IFCTEXT('2026-09-28T13:27:23.189Z'),$);
#191=IFCPROPERTYSET('1W1PWxN2wJie$T$bt9geCK',#6,'OPS_ProjectSettings',$,(#184,#185,#186,#187,#188,#189,#190));
#192=IFCRELDEFINESBYPROPERTIES('2h9O00bIcJeahA$76_idbe',#6,$,$,(#13),#191);
#193=IFCPROPERTYSINGLEVALUE('InternalTaskId',$,IFCTEXT('task-mula8306ompb2698'),$);
#194=IFCPROPERTYSET('0Im2k5vXYCVAIiKoDitwfV',#6,'OPS_TaskIdentity',$,(#193));
#195=IFCRELDEFINESBYPROPERTIES('0m0OuwtBkqfHachgB$RbzD',#6,$,$,(#43),#194);
#196=IFCPROPERTYSINGLEVALUE('InternalTaskId',$,IFCTEXT('task-mula8307bbgg2699'),$);
#197=IFCPROPERTYSET('0GHzFuH8NyX4H9Q1NmO5Dm',#6,'OPS_TaskIdentity',$,(#196));
#198=IFCRELDEFINESBYPROPERTIES('0_ivBJuQWG4GYK_ynYVjXE',#6,$,$,(#45),#197);
#199=IFCPROPERTYSINGLEVALUE('InternalTaskId',$,IFCTEXT('task-mula8309nvdx2700'),$);
#200=IFCPROPERTYSET('1WzZGnOTwCByBc$vU6QdwQ',#6,'OPS_TaskIdentity',$,(#199));
#201=IFCRELDEFINESBYPROPERTIES('3KAf3CXUUd9o1DZQXsF35Q',#6,$,$,(#47),#200);
#202=IFCPROPERTYSINGLEVALUE('InternalTaskId',$,IFCTEXT('task-mula830b99zm2701'),$);
#203=IFCPROPERTYSET('06QEtuJ77DeQ21WyHIddb0',#6,'OPS_TaskIdentity',$,(#202));
#204=IFCRELDEFINESBYPROPERTIES('2b6_wZZ_VExQOuv9bDLSbX',#6,$,$,(#49),#203);
#205=IFCPROPERTYSINGLEVALUE('InternalTaskId',$,IFCTEXT('task-mula830c3q222702'),$);
#206=IFCPROPERTYSET('1himY8jZY0g16NnhNSCM9q',#6,'OPS_TaskIdentity',$,(#205));
#207=IFCRELDEFINESBYPROPERTIES('3$uPsuBoV6U22T3dhERzhn',#6,$,$,(#51),#206);
#208=IFCPROPERTYSINGLEVALUE('InternalTaskId',$,IFCTEXT('task-mula830d12ui2703'),$);
#209=IFCPROPERTYSET('10qd1vsvsqndNjEbF$sngk',#6,'OPS_TaskIdentity',$,(#208));
#210=IFCRELDEFINESBYPROPERTIES('2xDJWgaPC2TkZViSjtBI$Y',#6,$,$,(#53),#209);
#211=IFCPROPERTYSINGLEVALUE('InternalTaskId',$,IFCTEXT('task-mula830fsqfa2704'),$);
#212=IFCPROPERTYSET('3IuxfJOoYL3kHgFy$qrB16',#6,'OPS_TaskIdentity',$,(#211));
#213=IFCRELDEFINESBYPROPERTIES('2ywEmSG2jpXZTLyqFptl7Y',#6,$,$,(#55),#212);
#214=IFCPROPERTYSINGLEVALUE('InternalTaskId',$,IFCTEXT('task-mula830g0wyd2705'),$);
#215=IFCPROPERTYSET('2BDTiTfosLX778hLziFj$d',#6,'OPS_TaskIdentity',$,(#214));
#216=IFCRELDEFINESBYPROPERTIES('3h8NLozjBEEhnFXqR8KrZV',#6,$,$,(#57),#215);
#217=IFCPROPERTYSINGLEVALUE('InternalTaskId',$,IFCTEXT('task-mula830iu7zq2706'),$);
#218=IFCPROPERTYSET('1VhkZfdSrblqW0aM9v_6by',#6,'OPS_TaskIdentity',$,(#217));
#219=IFCRELDEFINESBYPROPERTIES('1UQ80DyyIXpCZtCEnADmKT',#6,$,$,(#59),#218);
#220=IFCPROPERTYSINGLEVALUE('InternalTaskId',$,IFCTEXT('task-mula830k6qqp2707'),$);
#221=IFCPROPERTYSET('2KwYWb2dhMBc2qkdT4ph$f',#6,'OPS_TaskIdentity',$,(#220));
#222=IFCRELDEFINESBYPROPERTIES('2dxQJKJUhtDTaeC017WNwT',#6,$,$,(#61),#221);
#223=IFCPROPERTYSINGLEVALUE('InternalTaskId',$,IFCTEXT('task-mula830mqf0c2708'),$);
#224=IFCPROPERTYSET('3dz0m77wPhhbtBLXtpENJ4',#6,'OPS_TaskIdentity',$,(#223));
#225=IFCRELDEFINESBYPROPERTIES('1Yah7MnOWKMHQnGo1meq3W',#6,$,$,(#63),#224);
#226=IFCPROPERTYSINGLEVALUE('InternalTaskId',$,IFCTEXT('task-mula830oq9an2709'),$);
#227=IFCPROPERTYSET('0yB5ceTea54Ug4YUXa3DIO',#6,'OPS_TaskIdentity',$,(#226));
#228=IFCRELDEFINESBYPROPERTIES('0TPNfQLd03CXlGchbHGCvc',#6,$,$,(#65),#227);
#229=IFCPROPERTYSINGLEVALUE('InternalTaskId',$,IFCTEXT('task-mula830qcsgx2710'),$);
#230=IFCPROPERTYSET('0RiE$LtLq9TmedkVAH9qOS',#6,'OPS_TaskIdentity',$,(#229));
#231=IFCRELDEFINESBYPROPERTIES('2zExDDS29qi8dfh7W2cgzl',#6,$,$,(#67),#230);
#232=IFCPROPERTYSINGLEVALUE('InternalTaskId',$,IFCTEXT('task-mula830ta6zd2711'),$);
#233=IFCPROPERTYSET('3_C9s7JTVTZ2uaxaVQpPFL',#6,'OPS_TaskIdentity',$,(#232));
#234=IFCRELDEFINESBYPROPERTIES('3Ke6CJer70m4ULCmyAuJll',#6,$,$,(#69),#233);
#235=IFCPROPERTYSINGLEVALUE('InternalTaskId',$,IFCTEXT('task-mula830vmloq2712'),$);
#236=IFCPROPERTYSET('2nAn3bADpyhlM1axEzBzi8',#6,'OPS_TaskIdentity',$,(#235));
#237=IFCRELDEFINESBYPROPERTIES('0FwKm1XxX4z$LpRxmKCWkC',#6,$,$,(#71),#236);
#238=IFCPROPERTYSINGLEVALUE('InternalTaskId',$,IFCTEXT('task-mula830ygaw72713'),$);
#239=IFCPROPERTYSET('1ehhbeFHemCP66I$9xQwzP',#6,'OPS_TaskIdentity',$,(#238));
#240=IFCRELDEFINESBYPROPERTIES('3aMBEnAsdOuxmZrhzACPNK',#6,$,$,(#73),#239);
#241=IFCPROPERTYSINGLEVALUE('InternalTaskId',$,IFCTEXT('task-mula8310n2z82714'),$);
#242=IFCPROPERTYSET('1dIHLj08$5K8rKRlQ_dsHm',#6,'OPS_TaskIdentity',$,(#241));
#243=IFCRELDEFINESBYPROPERTIES('2aI4cywOCO8G4HJ1kHJW0e',#6,$,$,(#75),#242);
#244=IFCPROPERTYSINGLEVALUE('InternalTaskId',$,IFCTEXT('task-mula8312okyz2715'),$);
#245=IFCPROPERTYSET('08nMLW3HjwvtYfr0o_cJXT',#6,'OPS_TaskIdentity',$,(#244));
#246=IFCRELDEFINESBYPROPERTIES('33Fyx4gflgA9ZKOBAZ1dZS',#6,$,$,(#77),#245);
#247=IFCPROPERTYSINGLEVALUE('InternalTaskId',$,IFCTEXT('task-mula8315ngx42716'),$);
#248=IFCPROPERTYSET('1JdYQcfeJVSJZo64an8oNQ',#6,'OPS_TaskIdentity',$,(#247));
#249=IFCRELDEFINESBYPROPERTIES('0ybjK_oVtjydAhWuHYUYC$',#6,$,$,(#79),#248);
#250=IFCPROPERTYSINGLEVALUE('InternalTaskId',$,IFCTEXT('task-mula8318y2pp2717'),$);
#251=IFCPROPERTYSET('2oB07kQM3_4bqM1jzs1zsx',#6,'OPS_TaskIdentity',$,(#250));
#252=IFCRELDEFINESBYPROPERTIES('1_Kt0J5moyOw3CWqeDD0UM',#6,$,$,(#81),#251);
#253=IFCPROPERTYSINGLEVALUE('InternalTaskId',$,IFCTEXT('task-mula831awljj2718'),$);
#254=IFCPROPERTYSET('3LhGySML1OpIB0POikSLXR',#6,'OPS_TaskIdentity',$,(#253));
#255=IFCRELDEFINESBYPROPERTIES('2TSpe26XBtpik4d4epEg2e',#6,$,$,(#83),#254);
#256=IFCPROPERTYSINGLEVALUE('InternalTaskId',$,IFCTEXT('task-mula831d7g632719'),$);
#257=IFCPROPERTYSET('3m_cvcZh1sstjQj2LtDJBc',#6,'OPS_TaskIdentity',$,(#256));
#258=IFCRELDEFINESBYPROPERTIES('3a2mZrx8U6WpuVnOpIEfYQ',#6,$,$,(#85),#257);
#259=IFCPROPERTYSINGLEVALUE('InternalTaskId',$,IFCTEXT('task-mula831gzxxy2720'),$);
#260=IFCPROPERTYSET('1jWy11kMCQXpF5m94_ECg7',#6,'OPS_TaskIdentity',$,(#259));
#261=IFCRELDEFINESBYPROPERTIES('1JXDDQs_u7yFp1Id4N5X3M',#6,$,$,(#87),#260);
#262=IFCPROPERTYSINGLEVALUE('InternalTaskId',$,IFCTEXT('task-mula831jvbaz2721'),$);
#263=IFCPROPERTYSET('0ySxABhk5wvIP8XD99$knJ',#6,'OPS_TaskIdentity',$,(#262));
#264=IFCRELDEFINESBYPROPERTIES('1_yQvp_v44cZ6sha6O6SyX',#6,$,$,(#89),#263);
#265=IFCPROPERTYSINGLEVALUE('InternalTaskId',$,IFCTEXT('task-mula831mdvyx2722'),$);
#266=IFCPROPERTYSET('3_K2FNiTqn$eppyIT5nFAr',#6,'OPS_TaskIdentity',$,(#265));
#267=IFCRELDEFINESBYPROPERTIES('2zFf66g0BxgD2uJ6i9KjhG',#6,$,$,(#91),#266);
#268=IFCPROPERTYSINGLEVALUE('InternalTaskId',$,IFCTEXT('task-mula831ojg0o2723'),$);
#269=IFCPROPERTYSET('2S88EVRf9vgfJZBqtLpYVE',#6,'OPS_TaskIdentity',$,(#268));
#270=IFCRELDEFINESBYPROPERTIES('2ORb5YXUIiMOZ$9WeIEj2e',#6,$,$,(#93),#269);
#271=IFCPROPERTYSINGLEVALUE('InternalTaskId',$,IFCTEXT('task-mula831rlzlg2724'),$);
#272=IFCPROPERTYSET('2N96EGhHIZGgkLZtt60X7h',#6,'OPS_TaskIdentity',$,(#271));
#273=IFCRELDEFINESBYPROPERTIES('30EWYkkt5iI0VhjAYTR_X2',#6,$,$,(#95),#272);
#274=IFCPROPERTYSINGLEVALUE('InternalTaskId',$,IFCTEXT('task-mula831useoc2725'),$);
#275=IFCPROPERTYSET('2RyobLBSO$C3FhC1aziy9m',#6,'OPS_TaskIdentity',$,(#274));
#276=IFCRELDEFINESBYPROPERTIES('2zSALJuYbRhthqOgYS$YGO',#6,$,$,(#97),#275);
#277=IFCPROPERTYSINGLEVALUE('InternalTaskId',$,IFCTEXT('task-mula831wb8g52726'),$);
#278=IFCPROPERTYSET('2qF$LApaKOqR62jIkRbZqf',#6,'OPS_TaskIdentity',$,(#277));
#279=IFCRELDEFINESBYPROPERTIES('3RX0e9ftX5e4e17y8mpTJ3',#6,$,$,(#99),#278);
#280=IFCPROPERTYSINGLEVALUE('InternalTaskId',$,IFCTEXT('task-mula831zhwjp2727'),$);
#281=IFCPROPERTYSET('23Nx00rB9dF4$dDoeL5ZVj',#6,'OPS_TaskIdentity',$,(#280));
#282=IFCRELDEFINESBYPROPERTIES('1d8UWAJgE7YugEG50uR9NU',#6,$,$,(#101),#281);
#283=IFCPROPERTYSINGLEVALUE('InternalTaskId',$,IFCTEXT('task-mula8322p3p82728'),$);
#284=IFCPROPERTYSET('22aZTH9Q99QSKxAN$oDygG',#6,'OPS_TaskIdentity',$,(#283));
#285=IFCRELDEFINESBYPROPERTIES('0kpnC9XpQJGF5ZvB9Jo_cp',#6,$,$,(#103),#284);
#286=IFCPROPERTYSINGLEVALUE('InternalTaskId',$,IFCTEXT('task-mula832562qo2729'),$);
#287=IFCPROPERTYSET('3fYQ_btAfjtWC1dmLI6Poz',#6,'OPS_TaskIdentity',$,(#286));
#288=IFCRELDEFINESBYPROPERTIES('3yneV0mE486cIxGwpm6YFg',#6,$,$,(#105),#287);
#289=IFCPROPERTYSINGLEVALUE('InternalTaskId',$,IFCTEXT('task-mula8328fnwe2730'),$);
#290=IFCPROPERTYSET('1YhJsjJguqAailOPi3pGrT',#6,'OPS_TaskIdentity',$,(#289));
#291=IFCRELDEFINESBYPROPERTIES('3unzN2b6iN3DsqWLDZmnXt',#6,$,$,(#107),#290);
#292=IFCPROPERTYSINGLEVALUE('InternalTaskId',$,IFCTEXT('task-mula832bwgmy2731'),$);
#293=IFCPROPERTYSET('27OYWDgg3EG41SmPQjhxx6',#6,'OPS_TaskIdentity',$,(#292));
#294=IFCRELDEFINESBYPROPERTIES('3CYbdqycGnWFk9ypHMBpVH',#6,$,$,(#109),#293);
#295=IFCPROPERTYSINGLEVALUE('InternalTaskId',$,IFCTEXT('task-mula832e560l2732'),$);
#296=IFCPROPERTYSET('0tWzzhg54azkHUAdjtnAvu',#6,'OPS_TaskIdentity',$,(#295));
#297=IFCRELDEFINESBYPROPERTIES('1IJeNJ7pxBbqXLqcJxnnWY',#6,$,$,(#111),#296);
#298=IFCPROPERTYSINGLEVALUE('InternalTaskId',$,IFCTEXT('task-mula832hh6392733'),$);
#299=IFCPROPERTYSET('3O8K7zgx_OhWNzfgosHJzs',#6,'OPS_TaskIdentity',$,(#298));
#300=IFCRELDEFINESBYPROPERTIES('1v9dSWieg3uEu7zO0bYWff',#6,$,$,(#113),#299);
#301=IFCPROPERTYSINGLEVALUE('InternalTaskId',$,IFCTEXT('task-mula832knph92734'),$);
#302=IFCPROPERTYSET('3BPRwudI1HjbQW2O8WthQs',#6,'OPS_TaskIdentity',$,(#301));
#303=IFCRELDEFINESBYPROPERTIES('2LoiHxm17zHeom_40KGMFs',#6,$,$,(#115),#302);
#304=IFCPROPERTYSINGLEVALUE('InternalTaskId',$,IFCTEXT('task-mula832ncfov2735'),$);
#305=IFCPROPERTYSET('0c6YBkiGTX3GKS3nwcrM$1',#6,'OPS_TaskIdentity',$,(#304));
#306=IFCRELDEFINESBYPROPERTIES('2niafD6M4cfwMp8h1MnL86',#6,$,$,(#117),#305);
#307=IFCPROPERTYSINGLEVALUE('InternalTaskId',$,IFCTEXT('task-mula832rab2s2736'),$);
#308=IFCPROPERTYSET('2ng34wX5eIN6aDDlrYNKRn',#6,'OPS_TaskIdentity',$,(#307));
#309=IFCRELDEFINESBYPROPERTIES('2zRM60Loy3huLvWDg1dwyF',#6,$,$,(#119),#308);
#310=IFCPROPERTYSINGLEVALUE('InternalTaskId',$,IFCTEXT('task-mula832ux8k42737'),$);
#311=IFCPROPERTYSET('3lyagd50T6LSpRsd$ayNsv',#6,'OPS_TaskIdentity',$,(#310));
#312=IFCRELDEFINESBYPROPERTIES('0wDbGz0WchPj6F7Yn7MijY',#6,$,$,(#121),#311);
#313=IFCPROPERTYSINGLEVALUE('InternalTaskId',$,IFCTEXT('task-mula832xkroq2738'),$);
#314=IFCPROPERTYSET('3H4vBmkhLyNrfuVeErcB6_',#6,'OPS_TaskIdentity',$,(#313));
#315=IFCRELDEFINESBYPROPERTIES('1xyclNg5fVWfonJL8Kggon',#6,$,$,(#123),#314);
#316=IFCPROPERTYSINGLEVALUE('InternalTaskId',$,IFCTEXT('task-mula8331fhug2739'),$);
#317=IFCPROPERTYSET('0S9JxMV6YDVbJpc9VKJ_2a',#6,'OPS_TaskIdentity',$,(#316));
#318=IFCRELDEFINESBYPROPERTIES('0RtnSvaIGnhbXnHDwjdpbk',#6,$,$,(#125),#317);
#319=IFCPROPERTYSINGLEVALUE('InternalTaskId',$,IFCTEXT('task-mula8333h9nw2740'),$);
#320=IFCPROPERTYSET('0DDW06U3vbMjleOlKeVDbG',#6,'OPS_TaskIdentity',$,(#319));
#321=IFCRELDEFINESBYPROPERTIES('3HA7vbAtvyjZJ8fOJrUJE1',#6,$,$,(#127),#320);
#322=IFCPROPERTYSINGLEVALUE('InternalTaskId',$,IFCTEXT('task-mula8337cz752741'),$);
#323=IFCPROPERTYSET('33XhCV79WFjWceG0YGVUQE',#6,'OPS_TaskIdentity',$,(#322));
#324=IFCRELDEFINESBYPROPERTIES('2bak7vCcye4J84vybggUZU',#6,$,$,(#129),#323);
#325=IFCPROPERTYSINGLEVALUE('InternalTaskId',$,IFCTEXT('task-mula833arlsv2742'),$);
#326=IFCPROPERTYSET('2TPLNO_7U9klA$LmG3n3RC',#6,'OPS_TaskIdentity',$,(#325));
#327=IFCRELDEFINESBYPROPERTIES('1L2ZsgSUhVHMQOn_55U034',#6,$,$,(#131),#326);
#328=IFCPROPERTYSINGLEVALUE('MilestoneKind',$,IFCLABEL('START'),$);
#329=IFCPROPERTYSET('3LQtSvw8cM0V0Mg4jI7kDM',#6,'OPS_Milestone',$,(#328));
#330=IFCRELDEFINESBYPROPERTIES('2DqILNJiSU6reVa$bn1I71',#6,$,$,(#53),#329);
ENDSEC;
END-ISO-10303-21;
