ISO-10303-21;
HEADER;
FILE_DESCRIPTION(('ViewDefinition [SchedulingView]'),'2;1');
FILE_NAME('New-Build Primary School (Integrated Child Centre).ifc','2026-09-28T13:27:23',('Femke Onderwijs'),('School Construction West BV'),'Open Planner Studio 0.1','Open Planner Studio','');
FILE_SCHEMA(('IFC4X3'));
ENDSEC;
DATA;
#1=IFCPERSON($,'Femke Onderwijs',$,$,$,$,$,$);
#2=IFCORGANIZATION($,'School Construction West BV',$,$,$);
#3=IFCPERSONANDORGANIZATION(#1,#2,$);
#4=IFCORGANIZATION($,'OpenAEC Foundation',$,$,$);
#5=IFCAPPLICATION(#4,'0.2','Open Planner Studio','OPS');
#6=IFCOWNERHISTORY(#3,#5,$,.NOCHANGE.,$,$,$,1790602043);
#7=IFCSIUNIT(*,.LENGTHUNIT.,$,.METRE.);
#8=IFCSIUNIT(*,.TIMEUNIT.,$,.SECOND.);
#9=IFCUNITASSIGNMENT((#7,#8));
#10=IFCCARTESIANPOINT((0.,0.,0.));
#11=IFCAXIS2PLACEMENT3D(#10,$,$);
#12=IFCGEOMETRICREPRESENTATIONCONTEXT($,'Plan',3,1.0E-05,#11,$);
#13=IFCPROJECT('3UrMxVosyPsS51crF6g2xF',#6,'New-Build Primary School (Integrated Child Centre)','Integrated child centre with school, after-school care and day care',$,$,$,(#12),#9);
#14=IFCTIMEPERIOD('07:00:00','16:00:00');
#15=IFCRECURRENCEPATTERN(.WEEKLY.,$,(1,2,3,4,5),$,$,$,$,(#14));
#16=IFCWORKTIME('Standard work week',.PREDICTED.,$,#15,$,$);
#17=IFCWORKTIME('New Year''s Day',.PREDICTED.,$,$,'2027-01-01','2027-01-01');
#18=IFCWORKTIME('Good Friday',.PREDICTED.,$,$,'2027-03-26','2027-03-26');
#19=IFCWORKTIME('Easter',.PREDICTED.,$,$,'2027-03-28','2027-03-29');
#20=IFCWORKTIME('King''s Day',.PREDICTED.,$,$,'2027-04-27','2027-04-27');
#21=IFCWORKTIME('Liberation Day',.PREDICTED.,$,$,'2027-05-05','2027-05-05');
#22=IFCWORKTIME('Ascension Day',.PREDICTED.,$,$,'2027-05-06','2027-05-06');
#23=IFCWORKTIME('Whitsun',.PREDICTED.,$,$,'2027-05-16','2027-05-17');
#24=IFCWORKTIME('Christmas',.PREDICTED.,$,$,'2027-12-25','2027-12-26');
#25=IFCWORKTIME('Construction holiday (northern region)',.PREDICTED.,$,$,'2027-07-26','2027-08-15');
#26=IFCWORKTIME('New Year''s Day',.PREDICTED.,$,$,'2028-01-01','2028-01-01');
#27=IFCWORKTIME('Good Friday',.PREDICTED.,$,$,'2028-04-14','2028-04-14');
#28=IFCWORKTIME('Easter',.PREDICTED.,$,$,'2028-04-16','2028-04-17');
#29=IFCWORKTIME('King''s Day',.PREDICTED.,$,$,'2028-04-27','2028-04-27');
#30=IFCWORKTIME('Liberation Day',.PREDICTED.,$,$,'2028-05-05','2028-05-05');
#31=IFCWORKTIME('Ascension Day',.PREDICTED.,$,$,'2028-05-25','2028-05-25');
#32=IFCWORKTIME('Whitsun',.PREDICTED.,$,$,'2028-06-04','2028-06-05');
#33=IFCWORKTIME('Christmas',.PREDICTED.,$,$,'2028-12-25','2028-12-26');
#34=IFCWORKTIME('Construction holiday (northern region)',.PREDICTED.,$,$,'2028-07-24','2028-08-13');
#35=IFCWORKCALENDAR('3zokbH6uvNkS5D6yu1Xost',#6,'Construction calendar NL','Standard construction calendar: Mon-Fri 07:00-16:00',$,(#16),(#17,#18,#19,#20,#21,#22,#23,#24,#25,#26,#27,#28,#29,#30,#31,#32,#33,#34),.FIRSTSHIFT.);
#36=IFCPROPERTYSINGLEVALUE('HoursPerDay',$,IFCREAL(8),$);
#37=IFCPROPERTYSET('0nP7_O1vTXospDT_oQGtQX',#6,'OPS_Calendar',$,(#36));
#38=IFCRELDEFINESBYPROPERTIES('2IIUVy_a94CVJOHmiQelin',#6,$,$,(#35),#37);
#39=IFCWORKPLAN('0ZLrfy8q_lXj2MxCzXzuFz',#6,'New-Build Primary School (Integrated Child Centre)','Integrated child centre with school, after-school care and day care',$,$,'2026-09-28T13:27:23',$,$,$,$,$,'2027-03-01T07:00:00','2027-03-16T07:00:00',.PLANNED.);
#40=IFCWORKSCHEDULE('0uXA8fHnHd3gOLAnF$TJQZ',#6,'Construction schedule v1.0',$,$,$,'2026-09-28T13:27:23',$,$,$,$,$,'2027-03-01T07:00:00','2027-03-16T07:00:00',.PLANNED.);
#41=IFCRELAGGREGATES('2k_5dCqwoRHqtYQpWdR4fx',#6,$,$,#39,(#40));
#42=IFCTASKTIME('1. Preparation Time',.PREDICTED.,$,.WORKTIME.,'P0Y0M9D','2027-03-01T07:00:00','2027-03-05T07:00:00','2027-03-01T07:00:00','2027-03-11T07:00:00','2027-03-01T07:00:00','2027-10-15T07:00:00','P0Y0M0D','P0Y0M0D',.T.,$,$,$,$,$,0.00);
#43=IFCTASK('0h4y18euaxDQL8PkumjTrl',#6,'1. Preparation',$,$,'1',$,$,$,.F.,$,#42,.CONSTRUCTION.);
#44=IFCTASKTIME('Prepare construction site Time',.PREDICTED.,$,.WORKTIME.,'P0Y0M5D','2027-03-01T07:00:00','2027-03-05T07:00:00','2027-03-01T07:00:00','2027-03-05T07:00:00','2027-03-01T07:00:00','2027-03-05T07:00:00','P0Y0M0D','P0Y0M0D',.T.,$,$,$,$,$,0.00);
#45=IFCTASK('1ixPyb6CFrcWIwC2QJxO9F',#6,'Prepare construction site',$,$,'1.1',$,$,$,.F.,$,#44,.CONSTRUCTION.);
#46=IFCTASKTIME('Set up site Time',.PREDICTED.,$,.WORKTIME.,'P0Y0M3D','2027-03-01T07:00:00','2027-03-03T07:00:00','2027-03-08T07:00:00','2027-03-10T07:00:00','2027-10-12T07:00:00','2027-10-14T07:00:00','P0Y0M0D','P0Y0M135D',.F.,$,$,$,$,$,0.00);
#47=IFCTASK('1uWOlM__8noL0sJjTprwBS',#6,'Set up site',$,$,'1.2',$,$,$,.F.,$,#46,.LOGISTIC.);
#48=IFCTASKTIME('Start of construction Time',.PREDICTED.,$,.WORKTIME.,'P0Y0M0D','2027-03-01T07:00:00','2027-03-01T07:00:00','2027-03-11T07:00:00','2027-03-11T07:00:00','2027-10-15T07:00:00','2027-10-15T07:00:00','P0Y0M135D','P0Y0M135D',.F.,$,$,$,$,$,0.00);
#49=IFCTASK('3_CJZcSmuQzYt4AN0U9iHP',#6,'Start of construction',$,$,'1.3',$,$,$,.T.,$,#48,.CONSTRUCTION.);
#50=IFCTASKTIME('2. Foundations Time',.PREDICTED.,$,.WORKTIME.,'P0Y0M28D','2027-03-01T07:00:00','2027-03-05T07:00:00','2027-03-05T07:00:00','2027-04-15T07:00:00','2027-03-05T07:00:00','2027-10-15T07:00:00','P0Y0M0D','P0Y0M0D',.T.,$,$,$,$,$,0.00);
#51=IFCTASK('1ahcapeeGMsFLCrD4IGiOk',#6,'2. Foundations',$,$,'2',$,$,$,.F.,$,#50,.CONSTRUCTION.);
#52=IFCTASKTIME('Pile driving, foundation piles Time',.PREDICTED.,$,.WORKTIME.,'P0Y0M10D','2027-03-01T07:00:00','2027-03-12T07:00:00','2027-03-05T07:00:00','2027-03-18T07:00:00','2027-03-05T07:00:00','2027-03-18T07:00:00','P0Y0M0D','P0Y0M0D',.T.,$,$,$,$,$,0.00);
#53=IFCTASK('0myzbu4oN5sKo$ze7I1yPg',#6,'Pile driving, foundation piles',$,$,'2.1',$,$,$,.F.,$,#52,.CONSTRUCTION.);
#54=IFCTASKTIME('Foundation beams and pile caps Time',.PREDICTED.,$,.WORKTIME.,'P0Y0M8D','2027-03-01T07:00:00','2027-03-10T07:00:00','2027-03-19T07:00:00','2027-04-01T07:00:00','2027-09-22T07:00:00','2027-10-01T07:00:00','P0Y0M0D','P0Y0M112D',.F.,$,$,$,$,$,0.00);
#55=IFCTASK('2PN1uyEY4Dv5GU1hGTQws4',#6,'Foundation beams and pile caps',$,$,'2.2',$,$,$,.F.,$,#54,.CONSTRUCTION.);
#56=IFCTASKTIME('Below-slab drainage Time',.PREDICTED.,$,.WORKTIME.,'P0Y0M5D','2027-03-01T07:00:00','2027-03-05T07:00:00','2027-04-02T07:00:00','2027-04-08T07:00:00','2027-10-04T07:00:00','2027-10-08T07:00:00','P0Y0M0D','P0Y0M112D',.F.,$,$,$,$,$,0.00);
#57=IFCTASK('07kk8I$OMz4wN1kzMzd6FB',#6,'Below-slab drainage',$,$,'2.3',$,$,$,.F.,$,#56,.INSTALLATION.);
#58=IFCTASKTIME('Pour ground floor slab Time',.PREDICTED.,$,.WORKTIME.,'P0Y0M5D','2027-03-01T07:00:00','2027-03-05T07:00:00','2027-04-09T07:00:00','2027-04-15T07:00:00','2027-10-11T07:00:00','2027-10-15T07:00:00','P0Y0M112D','P0Y0M112D',.F.,$,$,$,$,$,0.00);
#59=IFCTASK('2xtUUwCAMDUY7PKQHBMC$3',#6,'Pour ground floor slab',$,$,'2.4',$,$,$,.F.,$,#58,.CONSTRUCTION.);
#60=IFCTASKTIME('3. Structural works Time',.PREDICTED.,$,.WORKTIME.,'P0Y0M43D','2027-03-01T07:00:00','2027-03-05T07:00:00','2027-03-11T07:00:00','2027-05-18T07:00:00','2027-03-11T07:00:00','2027-10-15T07:00:00','P0Y0M0D','P0Y0M0D',.T.,$,$,$,$,$,0.00);
#61=IFCTASK('06ipFhfWP_UvtPn7UkBpSX',#6,'3. Structural works',$,$,'3',$,$,$,.F.,$,#60,.CONSTRUCTION.);
#62=IFCTASKTIME('Ground floor masonry Time',.PREDICTED.,$,.WORKTIME.,'P0Y0M12D','2027-03-01T07:00:00','2027-03-16T07:00:00','2027-03-11T07:00:00','2027-03-30T07:00:00','2027-03-11T07:00:00','2027-03-30T07:00:00','P0Y0M0D','P0Y0M0D',.T.,$,$,$,$,$,0.00);
#63=IFCTASK('37kbHOBaTPhjE5aD8jDrIc',#6,'Ground floor masonry',$,$,'3.1',$,$,$,.F.,$,#62,.CONSTRUCTION.);
#64=IFCTASKTIME('Precast upper floor slab Time',.PREDICTED.,$,.WORKTIME.,'P0Y0M5D','2027-03-01T07:00:00','2027-03-05T07:00:00','2027-03-31T07:00:00','2027-04-06T07:00:00','2027-03-31T07:00:00','2027-04-06T07:00:00','P0Y0M0D','P0Y0M0D',.T.,$,$,$,$,$,0.00);
#65=IFCTASK('28YnQhfSsd1674mdh0KNnf',#6,'Precast upper floor slab',$,$,'3.2',$,$,$,.F.,$,#64,.CONSTRUCTION.);
#66=IFCTASKTIME('Upper floor masonry Time',.PREDICTED.,$,.WORKTIME.,'P0Y0M10D','2027-03-01T07:00:00','2027-03-12T07:00:00','2027-04-07T07:00:00','2027-04-20T07:00:00','2027-04-07T07:00:00','2027-04-20T07:00:00','P0Y0M0D','P0Y0M0D',.T.,$,$,$,$,$,0.00);
#67=IFCTASK('0wngeu9hJ5rQuR32c_4gZO',#6,'Upper floor masonry',$,$,'3.3',$,$,$,.F.,$,#66,.CONSTRUCTION.);
#68=IFCTASKTIME('CLT roof structure Time',.PREDICTED.,$,.WORKTIME.,'P0Y0M8D','2027-03-01T07:00:00','2027-03-10T07:00:00','2027-04-21T07:00:00','2027-05-03T07:00:00','2027-04-21T07:00:00','2027-05-03T07:00:00','P0Y0M0D','P0Y0M0D',.T.,$,$,$,$,$,0.00);
#69=IFCTASK('0PvL571yzYI$De7zNDyjFC',#6,'CLT roof structure',$,$,'3.4',$,$,$,.F.,$,#68,.CONSTRUCTION.);
#70=IFCTASKTIME('EPDM roofing Time',.PREDICTED.,$,.WORKTIME.,'P0Y0M5D','2027-03-01T07:00:00','2027-03-05T07:00:00','2027-05-04T07:00:00','2027-05-12T07:00:00','2027-05-04T07:00:00','2027-05-12T07:00:00','P0Y0M0D','P0Y0M0D',.T.,$,$,$,$,$,0.00);
#71=IFCTASK('1dgL9qYIOK3Fq9FhFDNydN',#6,'EPDM roofing',$,$,'3.5',$,$,$,.F.,$,#70,.CONSTRUCTION.);
#72=IFCTASKTIME('Install sedum roof Time',.PREDICTED.,$,.WORKTIME.,'P0Y0M3D','2027-03-01T07:00:00','2027-03-03T07:00:00','2027-05-13T07:00:00','2027-05-18T07:00:00','2027-05-13T07:00:00','2027-05-18T07:00:00','P0Y0M0D','P0Y0M0D',.T.,$,$,$,$,$,0.00);
#73=IFCTASK('31XWswt1Rkoveb0GURMC19',#6,'Install sedum roof',$,$,'3.6',$,$,$,.F.,$,#72,.CONSTRUCTION.);
#74=IFCTASKTIME('Topping out Time',.PREDICTED.,$,.WORKTIME.,'P0Y0M0D','2027-03-01T07:00:00','2027-03-01T07:00:00','2027-05-18T07:00:00','2027-05-18T07:00:00','2027-10-15T07:00:00','2027-10-15T07:00:00','P0Y0M93D','P0Y0M93D',.F.,$,$,$,$,$,0.00);
#75=IFCTASK('1qSxTQM$qzzmrAD_TigzcQ',#6,'Topping out',$,$,'3.7',$,$,$,.T.,$,#74,.CONSTRUCTION.);
#76=IFCTASKTIME('4. Facade & roof Time',.PREDICTED.,$,.WORKTIME.,'P0Y0M31D','2027-03-01T07:00:00','2027-03-05T07:00:00','2027-05-03T07:00:00','2027-06-17T07:00:00','2027-05-03T07:00:00','2027-10-15T07:00:00','P0Y0M0D','P0Y0M0D',.T.,$,$,$,$,$,0.00);
#77=IFCTASK('1m29z_YXZrnnxEdppqWRJY',#6,'4. Facade & roof',$,$,'4',$,$,$,.F.,$,#76,.CONSTRUCTION.);
#78=IFCTASKTIME('ETICS facade insulation Time',.PREDICTED.,$,.WORKTIME.,'P0Y0M10D','2027-03-01T07:00:00','2027-03-12T07:00:00','2027-05-03T07:00:00','2027-05-19T07:00:00','2027-05-03T07:00:00','2027-05-19T07:00:00','P0Y0M0D','P0Y0M0D',.T.,$,$,$,$,$,0.00);
#79=IFCTASK('2AkygKmX8P54SxN_kTv62F',#6,'ETICS facade insulation',$,$,'4.1',$,$,$,.F.,$,#78,.INSTALLATION.);
#80=IFCTASKTIME('Aluminium window frames Time',.PREDICTED.,$,.WORKTIME.,'P0Y0M8D','2027-03-01T07:00:00','2027-03-10T07:00:00','2027-05-20T07:00:00','2027-05-31T07:00:00','2027-05-20T07:00:00','2027-05-31T07:00:00','P0Y0M0D','P0Y0M0D',.T.,$,$,$,$,$,0.00);
#81=IFCTASK('1Eq7cYPCQGdtMxu$4tv84d',#6,'Aluminium window frames',$,$,'4.2',$,$,$,.F.,$,#80,.INSTALLATION.);
#82=IFCTASKTIME('Facade finish, brick slips Time',.PREDICTED.,$,.WORKTIME.,'P0Y0M8D','2027-03-01T07:00:00','2027-03-10T07:00:00','2027-06-01T07:00:00','2027-06-10T07:00:00','2027-06-01T07:00:00','2027-06-10T07:00:00','P0Y0M0D','P0Y0M0D',.T.,$,$,$,$,$,0.00);
#83=IFCTASK('2AcIij5xAYgxInmDMHT6oi',#6,'Facade finish, brick slips',$,$,'4.3',$,$,$,.F.,$,#82,.CONSTRUCTION.);
#84=IFCTASKTIME('Roof solar panels Time',.PREDICTED.,$,.WORKTIME.,'P0Y0M5D','2027-03-01T07:00:00','2027-03-05T07:00:00','2027-06-11T07:00:00','2027-06-17T07:00:00','2027-06-11T07:00:00','2027-06-17T07:00:00','P0Y0M0D','P0Y0M0D',.T.,$,$,$,$,$,0.00);
#85=IFCTASK('1w7nzJc62vPD5qk1cIS1yT',#6,'Roof solar panels',$,$,'4.4',$,$,$,.F.,$,#84,.INSTALLATION.);
#86=IFCTASKTIME('Wind and weathertight Time',.PREDICTED.,$,.WORKTIME.,'P0Y0M0D','2027-03-01T07:00:00','2027-03-01T07:00:00','2027-06-17T07:00:00','2027-06-17T07:00:00','2027-10-15T07:00:00','2027-10-15T07:00:00','P0Y0M71D','P0Y0M71D',.F.,$,$,$,$,$,0.00);
#87=IFCTASK('2Z4jG6q62qaqR3tYuzYjku',#6,'Wind and weathertight',$,$,'4.5',$,$,$,.T.,$,#86,.CONSTRUCTION.);
#88=IFCTASKTIME('5. Building services Time',.PREDICTED.,$,.WORKTIME.,'P0Y0M34D','2027-03-01T07:00:00','2027-03-05T07:00:00','2027-06-18T07:00:00','2027-08-25T07:00:00','2027-06-18T07:00:00','2027-10-15T07:00:00','P0Y0M0D','P0Y0M0D',.T.,$,$,$,$,$,0.00);
#89=IFCTASK('0n8suDMr95oIjUyTKQiJT4',#6,'5. Building services',$,$,'5',$,$,$,.F.,$,#88,.INSTALLATION.);
#90=IFCTASKTIME('Electrical and data Time',.PREDICTED.,$,.WORKTIME.,'P0Y0M8D','2027-03-01T07:00:00','2027-03-10T07:00:00','2027-06-18T07:00:00','2027-06-29T07:00:00','2027-06-18T07:00:00','2027-06-29T07:00:00','P0Y0M0D','P0Y0M0D',.T.,$,$,$,$,$,0.00);
#91=IFCTASK('1gk95icrCOdMzbaa_f0VWJ',#6,'Electrical and data',$,$,'5.1',$,$,$,.F.,$,#90,.INSTALLATION.);
#92=IFCTASKTIME('Air-to-water heat pump Time',.PREDICTED.,$,.WORKTIME.,'P0Y0M5D','2027-03-01T07:00:00','2027-03-05T07:00:00','2027-06-30T07:00:00','2027-07-06T07:00:00','2027-09-10T07:00:00','2027-09-16T07:00:00','P0Y0M0D','P0Y0M37D',.F.,$,$,$,$,$,0.00);
#93=IFCTASK('2Eca8OvITSt_wpaS$93PDq',#6,'Air-to-water heat pump',$,$,'5.2',$,$,$,.F.,$,#92,.INSTALLATION.);
#94=IFCTASKTIME('Underfloor heating Time',.PREDICTED.,$,.WORKTIME.,'P0Y0M8D','2027-03-01T07:00:00','2027-03-10T07:00:00','2027-07-02T07:00:00','2027-07-13T07:00:00','2027-09-14T07:00:00','2027-09-23T07:00:00','P0Y0M0D','P0Y0M37D',.F.,$,$,$,$,$,0.00);
#95=IFCTASK('1timlypXZoqdbrtOodnZKm',#6,'Underfloor heating',$,$,'5.3',$,$,$,.F.,$,#94,.INSTALLATION.);
#96=IFCTASKTIME('CO2-controlled ventilation Time',.PREDICTED.,$,.WORKTIME.,'P0Y0M8D','2027-03-01T07:00:00','2027-03-10T07:00:00','2027-07-14T07:00:00','2027-07-23T07:00:00','2027-09-24T07:00:00','2027-10-05T07:00:00','P0Y0M0D','P0Y0M37D',.F.,$,$,$,$,$,0.00);
#97=IFCTASK('0dkaq6fr6aBnl_nb3jjD0r',#6,'CO2-controlled ventilation',$,$,'5.4',$,$,$,.F.,$,#96,.INSTALLATION.);
#98=IFCTASKTIME('Sanitary pipework Time',.PREDICTED.,$,.WORKTIME.,'P0Y0M5D','2027-03-01T07:00:00','2027-03-05T07:00:00','2027-08-16T07:00:00','2027-08-20T07:00:00','2027-10-06T07:00:00','2027-10-12T07:00:00','P0Y0M0D','P0Y0M37D',.F.,$,$,$,$,$,0.00);
#99=IFCTASK('3rM8Xk7a$fqHRV7jHp_J0u',#6,'Sanitary pipework',$,$,'5.5',$,$,$,.F.,$,#98,.INSTALLATION.);
#100=IFCTASKTIME('Fire alarm and evacuation Time',.PREDICTED.,$,.WORKTIME.,'P0Y0M3D','2027-03-01T07:00:00','2027-03-03T07:00:00','2027-08-23T07:00:00','2027-08-25T07:00:00','2027-10-13T07:00:00','2027-10-15T07:00:00','P0Y0M37D','P0Y0M37D',.F.,$,$,$,$,$,0.00);
#101=IFCTASK('1Nv7RSgQdWfWVZewnDFqtV',#6,'Fire alarm and evacuation',$,$,'5.6',$,$,$,.F.,$,#100,.INSTALLATION.);
#102=IFCTASKTIME('6. Fit-out Time',.PREDICTED.,$,.WORKTIME.,'P0Y0M44D','2027-03-01T07:00:00','2027-03-05T07:00:00','2027-07-15T07:00:00','2027-10-05T07:00:00','2027-07-15T07:00:00','2027-10-05T07:00:00','P0Y0M0D','P0Y0M0D',.T.,$,$,$,$,$,0.00);
#103=IFCTASK('3_gXEI5cuUP7gUHMCEH9xI',#6,'6. Fit-out',$,$,'6',$,$,$,.F.,$,#102,.CONSTRUCTION.);
#104=IFCTASKTIME('Internal walls, metal stud Time',.PREDICTED.,$,.WORKTIME.,'P0Y0M8D','2027-03-01T07:00:00','2027-03-10T07:00:00','2027-07-15T07:00:00','2027-08-16T07:00:00','2027-07-15T07:00:00','2027-08-16T07:00:00','P0Y0M0D','P0Y0M0D',.T.,$,$,$,$,$,0.00);
#105=IFCTASK('14sJnvNiyRWmT0sNA1mAcV',#6,'Internal walls, metal stud',$,$,'6.1',$,$,$,.F.,$,#104,.CONSTRUCTION.);
#106=IFCTASKTIME('Acoustic ceilings Time',.PREDICTED.,$,.WORKTIME.,'P0Y0M5D','2027-03-01T07:00:00','2027-03-05T07:00:00','2027-08-17T07:00:00','2027-08-23T07:00:00','2027-08-17T07:00:00','2027-08-23T07:00:00','P0Y0M0D','P0Y0M0D',.T.,$,$,$,$,$,0.00);
#107=IFCTASK('1BQM28kp_QjJ8qbhFox87b',#6,'Acoustic ceilings',$,$,'6.2',$,$,$,.F.,$,#106,.CONSTRUCTION.);
#108=IFCTASKTIME('Screed floors Time',.PREDICTED.,$,.WORKTIME.,'P0Y0M5D','2027-03-01T07:00:00','2027-03-05T07:00:00','2027-08-24T07:00:00','2027-08-30T07:00:00','2027-08-24T07:00:00','2027-08-30T07:00:00','P0Y0M0D','P0Y0M0D',.T.,$,$,$,$,$,0.00);
#109=IFCTASK('2P7ry2QxOtAmLvwWu4ovy6',#6,'Screed floors',$,$,'6.3',$,$,$,.F.,$,#108,.CONSTRUCTION.);
#110=IFCTASKTIME('Tiling, sanitary areas Time',.PREDICTED.,$,.WORKTIME.,'P0Y0M5D','2027-03-01T07:00:00','2027-03-05T07:00:00','2027-08-31T07:00:00','2027-09-06T07:00:00','2027-08-31T07:00:00','2027-09-06T07:00:00','P0Y0M0D','P0Y0M0D',.T.,$,$,$,$,$,0.00);
#111=IFCTASK('28_SzLZar_NfA2XBz8AoCU',#6,'Tiling, sanitary areas',$,$,'6.4',$,$,$,.F.,$,#110,.CONSTRUCTION.);
#112=IFCTASKTIME('Painting Time',.PREDICTED.,$,.WORKTIME.,'P0Y0M8D','2027-03-01T07:00:00','2027-03-10T07:00:00','2027-09-07T07:00:00','2027-09-16T07:00:00','2027-09-07T07:00:00','2027-09-16T07:00:00','P0Y0M0D','P0Y0M0D',.T.,$,$,$,$,$,0.00);
#113=IFCTASK('2_g$qCaYHuOM_gg96x5Bk6',#6,'Painting',$,$,'6.5',$,$,$,.F.,$,#112,.CONSTRUCTION.);
#114=IFCTASKTIME('Linoleum floor finish Time',.PREDICTED.,$,.WORKTIME.,'P0Y0M5D','2027-03-01T07:00:00','2027-03-05T07:00:00','2027-09-17T07:00:00','2027-09-23T07:00:00','2027-09-17T07:00:00','2027-09-23T07:00:00','P0Y0M0D','P0Y0M0D',.T.,$,$,$,$,$,0.00);
#115=IFCTASK('1tJOXPJixr3P4H$qPKOn1i',#6,'Linoleum floor finish',$,$,'6.6',$,$,$,.F.,$,#114,.CONSTRUCTION.);
#116=IFCTASKTIME('Outdoor playground Time',.PREDICTED.,$,.WORKTIME.,'P0Y0M8D','2027-03-01T07:00:00','2027-03-10T07:00:00','2027-09-24T07:00:00','2027-10-05T07:00:00','2027-09-24T07:00:00','2027-10-05T07:00:00','P0Y0M0D','P0Y0M0D',.T.,$,$,$,$,$,0.00);
#117=IFCTASK('3PkHTpj2nzCMpOPnNu_6Qc',#6,'Outdoor playground',$,$,'6.7',$,$,$,.F.,$,#116,.CONSTRUCTION.);
#118=IFCTASKTIME('7. Handover Time',.PREDICTED.,$,.WORKTIME.,'P0Y0M8D','2027-03-01T07:00:00','2027-03-05T07:00:00','2027-10-06T07:00:00','2027-10-15T07:00:00','2027-10-06T07:00:00','2027-10-15T07:00:00','P0Y0M0D','P0Y0M0D',.T.,$,$,$,$,$,0.00);
#119=IFCTASK('0JSTdZJT2IMI3Ktwyoo$JT',#6,'7. Handover',$,$,'7',$,$,$,.F.,$,#118,.CONSTRUCTION.);
#120=IFCTASKTIME('Classroom furnishing Time',.PREDICTED.,$,.WORKTIME.,'P0Y0M5D','2027-03-01T07:00:00','2027-03-05T07:00:00','2027-10-06T07:00:00','2027-10-12T07:00:00','2027-10-06T07:00:00','2027-10-12T07:00:00','P0Y0M0D','P0Y0M0D',.T.,$,$,$,$,$,0.00);
#121=IFCTASK('2FabFXpSnOwLLcAljEIaSM',#6,'Classroom furnishing',$,$,'7.1',$,$,$,.F.,$,#120,.LOGISTIC.);
#122=IFCTASKTIME('Testing and commissioning Time',.PREDICTED.,$,.WORKTIME.,'P0Y0M3D','2027-03-01T07:00:00','2027-03-03T07:00:00','2027-10-13T07:00:00','2027-10-15T07:00:00','2027-10-13T07:00:00','2027-10-15T07:00:00','P0Y0M0D','P0Y0M0D',.T.,$,$,$,$,$,0.00);
#123=IFCTASK('2oF_T_ly2mg3JrKDcjT0rk',#6,'Testing and commissioning',$,$,'7.2',$,$,$,.F.,$,#122,.ATTENDANCE.);
#124=IFCTASKTIME('Child centre handover Time',.PREDICTED.,$,.WORKTIME.,'P0Y0M0D','2027-03-01T07:00:00','2027-03-01T07:00:00','2027-10-15T07:00:00','2027-10-15T07:00:00','2027-10-15T07:00:00','2027-10-15T07:00:00','P0Y0M0D','P0Y0M0D',.T.,$,$,$,$,$,0.00);
#125=IFCTASK('2C9mfCkOos1E33ZFagjfy1',#6,'Child centre handover',$,$,'7.3',$,$,$,.T.,$,#124,.CONSTRUCTION.);
#126=IFCRELNESTS('1JfAJaMUq5jqFxTiXHt0Uh',#6,'WBS 1. Preparation',$,#43,( #45,#47,#49));
#127=IFCRELNESTS('2X20FIMQmnFNIsRzMuze9C',#6,'WBS 2. Foundations',$,#51,( #53,#55,#57,#59));
#128=IFCRELNESTS('2sBXz3k6bhlBwB22nzDNUG',#6,'WBS 3. Structural works',$,#61,( #63,#65,#67,#69,#71,#73,#75));
#129=IFCRELNESTS('0w4xlocFkMxdJu0tiD5TBm',#6,'WBS 4. Facade & roof',$,#77,( #79,#81,#83,#85,#87));
#130=IFCRELNESTS('2FzwMnWu2EsJky2xzfVVix',#6,'WBS 5. Building services',$,#89,( #91,#93,#95,#97,#99,#101));
#131=IFCRELNESTS('36SCx7pb1i46nv3n3IBTTy',#6,'WBS 6. Fit-out',$,#103,( #105,#107,#109,#111,#113,#115,#117));
#132=IFCRELNESTS('1_k9X7KSHDJvUNg5fauNwr',#6,'WBS 7. Handover',$,#119,( #121,#123,#125));
#133=IFCRELNESTS('3zUxlDkO2Iov2BaxpsmxRj',#6,'WBS Hoofd',$,#40,(#43,#51,#61,#77,#89,#103,#119));
#134=IFCRELSEQUENCE('0SfkNrwCfOwR7aBwirSqeX',#6,$,$,#45,#47,$,.FINISH_START.,$);
#135=IFCRELSEQUENCE('3QyoeYbBXxd9TQ66wjPkTu',#6,$,$,#47,#49,$,.FINISH_START.,$);
#136=IFCRELSEQUENCE('1QpLNokvGuUCZ$$rPuSLGn',#6,$,$,#53,#55,$,.FINISH_START.,$);
#137=IFCRELSEQUENCE('0LjywxANCU7ZUvCOkwsFa0',#6,$,$,#55,#57,$,.FINISH_START.,$);
#138=IFCRELSEQUENCE('0HXIe5A6jxPdqANcDcJARy',#6,$,$,#57,#59,$,.FINISH_START.,$);
#139=IFCRELSEQUENCE('09HzmIvfwxJiev6FGhAzxu',#6,$,$,#63,#65,$,.FINISH_START.,$);
#140=IFCRELSEQUENCE('1zsFVe5QRzfGZc2h$8Kt8Q',#6,$,$,#65,#67,$,.FINISH_START.,$);
#141=IFCRELSEQUENCE('0BuEy40SOZ4Fi9d3JUTxBN',#6,$,$,#67,#69,$,.FINISH_START.,$);
#142=IFCRELSEQUENCE('3V4Owl6YVhMs44tezAH7EU',#6,$,$,#69,#71,$,.FINISH_START.,$);
#143=IFCRELSEQUENCE('39oonNMzNPNV8RnWrLWJ7P',#6,$,$,#71,#73,$,.FINISH_START.,$);
#144=IFCRELSEQUENCE('31QS$$VsZ5OMkCzHwGtSHI',#6,$,$,#73,#75,$,.FINISH_START.,$);
#145=IFCRELSEQUENCE('0yyoZFElsE10wkDdzS9nq6',#6,$,$,#79,#81,$,.FINISH_START.,$);
#146=IFCRELSEQUENCE('1P7an0iFzsGGffNgI$mS8J',#6,$,$,#81,#83,$,.FINISH_START.,$);
#147=IFCRELSEQUENCE('2ezUbXC2XLOpRmW$037xIK',#6,$,$,#83,#85,$,.FINISH_START.,$);
#148=IFCRELSEQUENCE('3uNtF8T$yJoKG3NzR3j3hQ',#6,$,$,#85,#87,$,.FINISH_START.,$);
#149=IFCRELSEQUENCE('1IOzY_zSieXv0KLXgVzjQB',#6,$,$,#91,#93,$,.FINISH_START.,$);
#150=IFCLAGTIME('Lag',.PREDICTED.,$,IFCDURATION('P2D'),.WORKTIME.);
#151=IFCRELSEQUENCE('3eWB3NOXiMtfpRjscqZ0Pz',#6,$,$,#93,#95,#150,.START_START.,$);
#152=IFCRELSEQUENCE('3QBhmIQ5pbZGZxxNaUQ4Tz',#6,$,$,#95,#97,$,.FINISH_START.,$);
#153=IFCRELSEQUENCE('1HM7PfqagbiqS1EHHI$ybA',#6,$,$,#97,#99,$,.FINISH_START.,$);
#154=IFCRELSEQUENCE('0zB3iQ_cOita7D_aduGcSY',#6,$,$,#99,#101,$,.FINISH_START.,$);
#155=IFCRELSEQUENCE('1vH2oMQDXF_SiYyMtm9nAD',#6,$,$,#105,#107,$,.FINISH_START.,$);
#156=IFCRELSEQUENCE('1lgKzIBeRt8El1SYoYNCwR',#6,$,$,#107,#109,$,.FINISH_START.,$);
#157=IFCRELSEQUENCE('0hO2wbqOd2jlzG8Hhgr5rj',#6,$,$,#109,#111,$,.FINISH_START.,$);
#158=IFCRELSEQUENCE('3Op7vhPRMz$95ipuuXxrpw',#6,$,$,#111,#113,$,.FINISH_START.,$);
#159=IFCRELSEQUENCE('21q25e$BlGMcoGnqDDSjbL',#6,$,$,#113,#115,$,.FINISH_START.,$);
#160=IFCRELSEQUENCE('3wP9$vXEo31Rd1A78e_xL1',#6,$,$,#115,#117,$,.FINISH_START.,$);
#161=IFCRELSEQUENCE('2QxHzmK$engkUgGU9zvXn$',#6,$,$,#121,#123,$,.FINISH_START.,$);
#162=IFCRELSEQUENCE('2KxO_aBb5aKZP8mn_M5ajz',#6,$,$,#123,#125,$,.FINISH_START.,$);
#163=IFCLAGTIME('Lag',.PREDICTED.,$,IFCDURATION('P4D'),.WORKTIME.);
#164=IFCRELSEQUENCE('1UkuGUzYWxyzsnTVTHR6TS',#6,$,$,#45,#53,#163,.START_START.,$);
#165=IFCLAGTIME('Lag',.PREDICTED.,$,IFCRATIOMEASURE(0.4),.WORKTIME.);
#166=IFCRELSEQUENCE('3n4WeqDcMMAo8ZcRSKWwpX',#6,$,$,#53,#63,#165,.START_START.,$);
#167=IFCLAGTIME('Lag',.PREDICTED.,$,IFCDURATION('-P9D'),.WORKTIME.);
#168=IFCRELSEQUENCE('0GuO5tmbxB30NZDKfQfVAO',#6,$,$,#73,#79,#167,.FINISH_START.,$);
#169=IFCLAGTIME('Lag',.PREDICTED.,$,IFCDURATION('P2D'),.WORKTIME.);
#170=IFCRELSEQUENCE('3fYwUuSyhar5HvCLZNvBGD',#6,$,$,#73,#85,#169,.FINISH_FINISH.,$);
#171=IFCRELSEQUENCE('1J$pdiyVbehOmVhEYOCxlD',#6,$,$,#85,#91,$,.FINISH_START.,$);
#172=IFCLAGTIME('Lag',.PREDICTED.,$,IFCDURATION('P19D'),.WORKTIME.);
#173=IFCRELSEQUENCE('1L8c4dBeR3HQCngbSD0ovr',#6,$,$,#91,#105,#172,.START_START.,$);
#174=IFCRELSEQUENCE('2L7wg8DWY_ZudI3ZqZd3i2',#6,$,$,#117,#121,$,.FINISH_START.,$);
#175=IFCRELASSIGNSTOCONTROL('2jLrka8jYtPnZtHglXJKkE',#6,$,$,(#43,#45,#47,#49,#51,#53,#55,#57,#59,#61,#63,#65,#67,#69,#71,#73,#75,#77,#79,#81,#83,#85,#87,#89,#91,#93,#95,#97,#99,#101,#103,#105,#107,#109,#111,#113,#115,#117,#119,#121,#123,#125),$,#40);
#176=IFCPROPERTYSINGLEVALUE('InternalProjectId',$,IFCTEXT('proj-mula835evhty2781'),$);
#177=IFCPROPERTYSINGLEVALUE('wbsAutoNumber',$,IFCBOOLEAN(.T.),$);
#178=IFCPROPERTYSINGLEVALUE('DefaultTaskDurationUnit',$,IFCLABEL('days'),$);
#179=IFCPROPERTYSINGLEVALUE('ProjectStartDate',$,IFCDATE('2027-03-01'),$);
#180=IFCPROPERTYSINGLEVALUE('ProjectEndDate',$,$,$);
#181=IFCPROPERTYSINGLEVALUE('CreatedAt',$,IFCTEXT('2026-09-28T13:27:23.378Z'),$);
#182=IFCPROPERTYSINGLEVALUE('ModifiedAt',$,IFCTEXT('2026-09-28T13:27:23.380Z'),$);
#183=IFCPROPERTYSET('3ZUE7B__vQjpJylyqpIxqx',#6,'OPS_ProjectSettings',$,(#176,#177,#178,#179,#180,#181,#182));
#184=IFCRELDEFINESBYPROPERTIES('1AAUEH1Nr3hnKz$pJvhGHR',#6,$,$,(#13),#183);
#185=IFCPROPERTYSINGLEVALUE('InternalTaskId',$,IFCTEXT('task-mula835hlpzd2782'),$);
#186=IFCPROPERTYSET('15$Y_sxPHrBXaORtpuAs6u',#6,'OPS_TaskIdentity',$,(#185));
#187=IFCRELDEFINESBYPROPERTIES('07G6VCFwV5Vovk20cUrsh$',#6,$,$,(#43),#186);
#188=IFCPROPERTYSINGLEVALUE('InternalTaskId',$,IFCTEXT('task-mula835in72k2783'),$);
#189=IFCPROPERTYSET('1_f1tmCB2qiWdAVw0HAM6m',#6,'OPS_TaskIdentity',$,(#188));
#190=IFCRELDEFINESBYPROPERTIES('3F3hK8A4Fbgn38ILbfJJer',#6,$,$,(#45),#189);
#191=IFCPROPERTYSINGLEVALUE('InternalTaskId',$,IFCTEXT('task-mula835jhg7c2784'),$);
#192=IFCPROPERTYSET('0Mt4WwSNxM7$GSa8dg1p8I',#6,'OPS_TaskIdentity',$,(#191));
#193=IFCRELDEFINESBYPROPERTIES('0rADhoSdEgt3p$KD5rMAry',#6,$,$,(#47),#192);
#194=IFCPROPERTYSINGLEVALUE('InternalTaskId',$,IFCTEXT('task-mula835lllhg2785'),$);
#195=IFCPROPERTYSET('1XnsMyKqH4e7Ts6rgCXDx4',#6,'OPS_TaskIdentity',$,(#194));
#196=IFCRELDEFINESBYPROPERTIES('1XhYyBFDqDqq4dfqGBSxAV',#6,$,$,(#49),#195);
#197=IFCPROPERTYSINGLEVALUE('InternalTaskId',$,IFCTEXT('task-mula835n9rce2786'),$);
#198=IFCPROPERTYSET('1pkUPH$qVw8n$xmh6qvTKZ',#6,'OPS_TaskIdentity',$,(#197));
#199=IFCRELDEFINESBYPROPERTIES('3yyJU37MMnEADAQMGzF9w8',#6,$,$,(#51),#198);
#200=IFCPROPERTYSINGLEVALUE('InternalTaskId',$,IFCTEXT('task-mula835o09n22787'),$);
#201=IFCPROPERTYSET('3s2VuZ2KHdZkGDmzzcZap6',#6,'OPS_TaskIdentity',$,(#200));
#202=IFCRELDEFINESBYPROPERTIES('2nPqTotglMndC8MN0kw2Nn',#6,$,$,(#53),#201);
#203=IFCPROPERTYSINGLEVALUE('InternalTaskId',$,IFCTEXT('task-mula835qmh1p2788'),$);
#204=IFCPROPERTYSET('2OGy2cEPNvSUIXHUqMqCqO',#6,'OPS_TaskIdentity',$,(#203));
#205=IFCRELDEFINESBYPROPERTIES('3IHL7uRWRuI0WWvoMTvElj',#6,$,$,(#55),#204);
#206=IFCPROPERTYSINGLEVALUE('InternalTaskId',$,IFCTEXT('task-mula835r8ocn2789'),$);
#207=IFCPROPERTYSET('25KcFcaSMqz_IJuqoUGtzD',#6,'OPS_TaskIdentity',$,(#206));
#208=IFCRELDEFINESBYPROPERTIES('32KvVCBsSWjh0vhP8Ldlb1',#6,$,$,(#57),#207);
#209=IFCPROPERTYSINGLEVALUE('InternalTaskId',$,IFCTEXT('task-mula835se0132790'),$);
#210=IFCPROPERTYSET('1yKA1Ydj8hS6$u2CkNnfaC',#6,'OPS_TaskIdentity',$,(#209));
#211=IFCRELDEFINESBYPROPERTIES('2cF9AgLXYCCUSEVpo0VzS3',#6,$,$,(#59),#210);
#212=IFCPROPERTYSINGLEVALUE('InternalTaskId',$,IFCTEXT('task-mula835ujy6e2791'),$);
#213=IFCPROPERTYSET('0k7d95Z4KgzVvk9XNFxuTo',#6,'OPS_TaskIdentity',$,(#212));
#214=IFCRELDEFINESBYPROPERTIES('0QeBJEppPM1TP4vPcwE4_F',#6,$,$,(#61),#213);
#215=IFCPROPERTYSINGLEVALUE('InternalTaskId',$,IFCTEXT('task-mula835vjuki2792'),$);
#216=IFCPROPERTYSET('3TvwW29Ald_AnjJ$Z7KBEg',#6,'OPS_TaskIdentity',$,(#215));
#217=IFCRELDEFINESBYPROPERTIES('1ykEUIUVXS81p35NjJpXSS',#6,$,$,(#63),#216);
#218=IFCPROPERTYSINGLEVALUE('InternalTaskId',$,IFCTEXT('task-mula835x6w2c2793'),$);
#219=IFCPROPERTYSET('39d2KJnoekAN5ReZF$0wSS',#6,'OPS_TaskIdentity',$,(#218));
#220=IFCRELDEFINESBYPROPERTIES('1w_3i4LIybs8v5zpCwmTcj',#6,$,$,(#65),#219);
#221=IFCPROPERTYSINGLEVALUE('InternalTaskId',$,IFCTEXT('task-mula835zpjep2794'),$);
#222=IFCPROPERTYSET('3feIp0_LZonWPV9T6UcK26',#6,'OPS_TaskIdentity',$,(#221));
#223=IFCRELDEFINESBYPROPERTIES('289NtITJFgYYuWRqDGrcHc',#6,$,$,(#67),#222);
#224=IFCPROPERTYSINGLEVALUE('InternalTaskId',$,IFCTEXT('task-mula8361roet2795'),$);
#225=IFCPROPERTYSET('0WvQOcl0BrCCQZIY5VwgF1',#6,'OPS_TaskIdentity',$,(#224));
#226=IFCRELDEFINESBYPROPERTIES('13lUh8edz8KrXK4i4wxMW6',#6,$,$,(#69),#225);
#227=IFCPROPERTYSINGLEVALUE('InternalTaskId',$,IFCTEXT('task-mula83626uq52796'),$);
#228=IFCPROPERTYSET('27xRZW_vw8Zq9hVDum1hLn',#6,'OPS_TaskIdentity',$,(#227));
#229=IFCRELDEFINESBYPROPERTIES('0WY$EMXjy9ukYjeNy67JMm',#6,$,$,(#71),#228);
#230=IFCPROPERTYSINGLEVALUE('InternalTaskId',$,IFCTEXT('task-mula83645koj2797'),$);
#231=IFCPROPERTYSET('3NHl4nTj1B7C8CuLT3T8Se',#6,'OPS_TaskIdentity',$,(#230));
#232=IFCRELDEFINESBYPROPERTIES('2hyj0A79$UhsKoNwYYdNSm',#6,$,$,(#73),#231);
#233=IFCPROPERTYSINGLEVALUE('InternalTaskId',$,IFCTEXT('task-mula8366e59q2798'),$);
#234=IFCPROPERTYSET('2x6MV7m8I5zPb4N$IgU4wo',#6,'OPS_TaskIdentity',$,(#233));
#235=IFCRELDEFINESBYPROPERTIES('06mLNAnj1ZjNuLEmtmdw76',#6,$,$,(#75),#234);
#236=IFCPROPERTYSINGLEVALUE('InternalTaskId',$,IFCTEXT('task-mula83678akk2799'),$);
#237=IFCPROPERTYSET('2O1mjkcJ0Oh90ad896hrSm',#6,'OPS_TaskIdentity',$,(#236));
#238=IFCRELDEFINESBYPROPERTIES('2MKzNAyXIiSW7uO2nIXUkO',#6,$,$,(#77),#237);
#239=IFCPROPERTYSINGLEVALUE('InternalTaskId',$,IFCTEXT('task-mula8369gfjr2800'),$);
#240=IFCPROPERTYSET('1qUoxrczBjpFBQO3cgAA44',#6,'OPS_TaskIdentity',$,(#239));
#241=IFCRELDEFINESBYPROPERTIES('1VmMEDIt8RWy0M7lZ0ESpe',#6,$,$,(#79),#240);
#242=IFCPROPERTYSINGLEVALUE('InternalTaskId',$,IFCTEXT('task-mula836agssz2801'),$);
#243=IFCPROPERTYSET('1bHkIECt780pvT0QxWfVqX',#6,'OPS_TaskIdentity',$,(#242));
#244=IFCRELDEFINESBYPROPERTIES('0btYa8EOe6vJsi0uBAZ6_i',#6,$,$,(#81),#243);
#245=IFCPROPERTYSINGLEVALUE('InternalTaskId',$,IFCTEXT('task-mula836cjsd02802'),$);
#246=IFCPROPERTYSET('0_30GuCh0wvk5yXB9cnppO',#6,'OPS_TaskIdentity',$,(#245));
#247=IFCRELDEFINESBYPROPERTIES('3wJJJXDK2NoUlJXc$4Hk9i',#6,$,$,(#83),#246);
#248=IFCPROPERTYSINGLEVALUE('InternalTaskId',$,IFCTEXT('task-mula836ej9bj2803'),$);
#249=IFCPROPERTYSET('1yiS5kAiceW$iXpoyPeWST',#6,'OPS_TaskIdentity',$,(#248));
#250=IFCRELDEFINESBYPROPERTIES('226nXNoRrvrWXgE2aDx088',#6,$,$,(#85),#249);
#251=IFCPROPERTYSINGLEVALUE('InternalTaskId',$,IFCTEXT('task-mula836gk9sa2804'),$);
#252=IFCPROPERTYSET('2h3jCdffeQOVUNFKMSlYX4',#6,'OPS_TaskIdentity',$,(#251));
#253=IFCRELDEFINESBYPROPERTIES('0DmfFP42T7CDb3YsWaYmUo',#6,$,$,(#87),#252);
#254=IFCPROPERTYSINGLEVALUE('InternalTaskId',$,IFCTEXT('task-mula836hbwtr2805'),$);
#255=IFCPROPERTYSET('2kfraMUBnzuCoWGZGi_oXe',#6,'OPS_TaskIdentity',$,(#254));
#256=IFCRELDEFINESBYPROPERTIES('2$9wVvz4dERCZDrU2lzHmh',#6,$,$,(#89),#255);
#257=IFCPROPERTYSINGLEVALUE('InternalTaskId',$,IFCTEXT('task-mula836kny2i2806'),$);
#258=IFCPROPERTYSET('2K9HSycybPtlzUAZIEeuQ7',#6,'OPS_TaskIdentity',$,(#257));
#259=IFCRELDEFINESBYPROPERTIES('0RHdsw4atgA00bzUJh0MAy',#6,$,$,(#91),#258);
#260=IFCPROPERTYSINGLEVALUE('InternalTaskId',$,IFCTEXT('task-mula836l17uy2807'),$);
#261=IFCPROPERTYSET('3i3BAoAgNSp2Bv5RXmKTg_',#6,'OPS_TaskIdentity',$,(#260));
#262=IFCRELDEFINESBYPROPERTIES('0epzrcGXum0h7UI0q5OX3Z',#6,$,$,(#93),#261);
#263=IFCPROPERTYSINGLEVALUE('InternalTaskId',$,IFCTEXT('task-mula836npv0e2808'),$);
#264=IFCPROPERTYSET('1tNkaw2sRzLaL5kgLPz4EX',#6,'OPS_TaskIdentity',$,(#263));
#265=IFCRELDEFINESBYPROPERTIES('3sHOcqhYsU6CAvt5FwKRdB',#6,$,$,(#95),#264);
#266=IFCPROPERTYSINGLEVALUE('InternalTaskId',$,IFCTEXT('task-mula836pu1892809'),$);
#267=IFCPROPERTYSET('1rLNzr3iCfNpkkhV4szQ$g',#6,'OPS_TaskIdentity',$,(#266));
#268=IFCRELDEFINESBYPROPERTIES('3Gdel55TiEiePNiXuebB6H',#6,$,$,(#97),#267);
#269=IFCPROPERTYSINGLEVALUE('InternalTaskId',$,IFCTEXT('task-mula836r2zlu2810'),$);
#270=IFCPROPERTYSET('3UNXReMl8bD3ubWFuG_Uyr',#6,'OPS_TaskIdentity',$,(#269));
#271=IFCRELDEFINESBYPROPERTIES('2X7Hq9QIFYOGwIp9NWCv2Z',#6,$,$,(#99),#270);
#272=IFCPROPERTYSINGLEVALUE('InternalTaskId',$,IFCTEXT('task-mula836ttcff2811'),$);
#273=IFCPROPERTYSET('2hNBCfeUYLGDsrKKp_rANu',#6,'OPS_TaskIdentity',$,(#272));
#274=IFCRELDEFINESBYPROPERTIES('2ne5gERb$8hJPNqNiQa3WV',#6,$,$,(#101),#273);
#275=IFCPROPERTYSINGLEVALUE('InternalTaskId',$,IFCTEXT('task-mula836uwa432812'),$);
#276=IFCPROPERTYSET('1ZSedpjSgAzzbaepykAPDD',#6,'OPS_TaskIdentity',$,(#275));
#277=IFCRELDEFINESBYPROPERTIES('3V_JZtPHfAH0Zy11aLMexT',#6,$,$,(#103),#276);
#278=IFCPROPERTYSINGLEVALUE('InternalTaskId',$,IFCTEXT('task-mula836w6gz82813'),$);
#279=IFCPROPERTYSET('2WcrdW99EI7jMDGpznLljl',#6,'OPS_TaskIdentity',$,(#278));
#280=IFCRELDEFINESBYPROPERTIES('0KCJwFBzJwdtak_fGEsAJ5',#6,$,$,(#105),#279);
#281=IFCPROPERTYSINGLEVALUE('InternalTaskId',$,IFCTEXT('task-mula836xe73a2814'),$);
#282=IFCPROPERTYSET('1jKMHYA026D89K1Mbw7R5p',#6,'OPS_TaskIdentity',$,(#281));
#283=IFCRELDEFINESBYPROPERTIES('3e8nRlP3ZRGUbBNU5DgtjT',#6,$,$,(#107),#282);
#284=IFCPROPERTYSINGLEVALUE('InternalTaskId',$,IFCTEXT('task-mula836zm1072815'),$);
#285=IFCPROPERTYSET('2UTaNEBgZVyMTJ8ohA66Uk',#6,'OPS_TaskIdentity',$,(#284));
#286=IFCRELDEFINESBYPROPERTIES('0CM2usPgl5al6ZY4knHF2S',#6,$,$,(#109),#285);
#287=IFCPROPERTYSINGLEVALUE('InternalTaskId',$,IFCTEXT('task-mula8371kpxq2816'),$);
#288=IFCPROPERTYSET('0JRpOcjDXiUC9NosjKNaKl',#6,'OPS_TaskIdentity',$,(#287));
#289=IFCRELDEFINESBYPROPERTIES('2NQV08cC62xUak_arVvR4N',#6,$,$,(#111),#288);
#290=IFCPROPERTYSINGLEVALUE('InternalTaskId',$,IFCTEXT('task-mula8373cnkx2817'),$);
#291=IFCPROPERTYSET('09$R74rQnEAMD_OU7HtxEH',#6,'OPS_TaskIdentity',$,(#290));
#292=IFCRELDEFINESBYPROPERTIES('17CZrGHiqsgmgPezkhxcZe',#6,$,$,(#113),#291);
#293=IFCPROPERTYSINGLEVALUE('InternalTaskId',$,IFCTEXT('task-mula8375qb252818'),$);
#294=IFCPROPERTYSET('3AcJNd4gfFZiuPQTZB7f7A',#6,'OPS_TaskIdentity',$,(#293));
#295=IFCRELDEFINESBYPROPERTIES('0whJJX4n91VxexXjD20wvh',#6,$,$,(#115),#294);
#296=IFCPROPERTYSINGLEVALUE('InternalTaskId',$,IFCTEXT('task-mula8377b16e2819'),$);
#297=IFCPROPERTYSET('0HYxGGH7v$NNDUmTMOA$d9',#6,'OPS_TaskIdentity',$,(#296));
#298=IFCRELDEFINESBYPROPERTIES('1oec0soj5m_Z9nseXAC4Te',#6,$,$,(#117),#297);
#299=IFCPROPERTYSINGLEVALUE('InternalTaskId',$,IFCTEXT('task-mula8379nspr2820'),$);
#300=IFCPROPERTYSET('3dshmpnM8BXbY2E3dfpa92',#6,'OPS_TaskIdentity',$,(#299));
#301=IFCRELDEFINESBYPROPERTIES('2Jaq1U$j737uPz1Ta$qAe7',#6,$,$,(#119),#300);
#302=IFCPROPERTYSINGLEVALUE('InternalTaskId',$,IFCTEXT('task-mula837ay0r02821'),$);
#303=IFCPROPERTYSET('1$91kA_plb4x_wIA2scDkb',#6,'OPS_TaskIdentity',$,(#302));
#304=IFCRELDEFINESBYPROPERTIES('0FeVGTIXhQ_Cer6QImjpam',#6,$,$,(#121),#303);
#305=IFCPROPERTYSINGLEVALUE('InternalTaskId',$,IFCTEXT('task-mula837cwy102822'),$);
#306=IFCPROPERTYSET('1o528KBHZHA16nnKZQuJOP',#6,'OPS_TaskIdentity',$,(#305));
#307=IFCRELDEFINESBYPROPERTIES('0sBDQkAcesb2TyCYIb1WaN',#6,$,$,(#123),#306);
#308=IFCPROPERTYSINGLEVALUE('InternalTaskId',$,IFCTEXT('task-mula837e1upa2823'),$);
#309=IFCPROPERTYSET('2iVb$yGf0cbwomC31pgTI_',#6,'OPS_TaskIdentity',$,(#308));
#310=IFCRELDEFINESBYPROPERTIES('1wFCgV3RpfJRArujF33Y3z',#6,$,$,(#125),#309);
#311=IFCPROPERTYSINGLEVALUE('MilestoneKind',$,IFCLABEL('START'),$);
#312=IFCPROPERTYSET('1O508vvwYjRD8y9_omwaE_',#6,'OPS_Milestone',$,(#311));
#313=IFCRELDEFINESBYPROPERTIES('1d6wu1wSk_zHOYlukKrLr9',#6,$,$,(#49),#312);
#314=IFCPROPERTYSINGLEVALUE('MilestoneKind',$,IFCLABEL('FINISH'),$);
#315=IFCPROPERTYSET('2pYWxTOHr_AwbxVEVw5jVZ',#6,'OPS_Milestone',$,(#314));
#316=IFCRELDEFINESBYPROPERTIES('3BIH2$Sh12aqLDGDzwFaGS',#6,$,$,(#75),#315);
#317=IFCPROPERTYSINGLEVALUE('MilestoneKind',$,IFCLABEL('FINISH'),$);
#318=IFCPROPERTYSET('0scyEB8MZi6uW1AiAPXYDR',#6,'OPS_Milestone',$,(#317));
#319=IFCRELDEFINESBYPROPERTIES('31fnE47CVU56YgNmFNZXY0',#6,$,$,(#87),#318);
#320=IFCPROPERTYSINGLEVALUE('MilestoneKind',$,IFCLABEL('FINISH'),$);
#321=IFCPROPERTYSINGLEVALUE('Mandatory',$,IFCBOOLEAN(.T.),$);
#322=IFCPROPERTYSET('28itpg5I0$0zRsCpGL6_P6',#6,'OPS_Milestone',$,(#320,#321));
#323=IFCRELDEFINESBYPROPERTIES('0DrEnyfHSYqw0JWj0FcxC_',#6,$,$,(#125),#322);
ENDSEC;
END-ISO-10303-21;
