ISO-10303-21;
HEADER;
FILE_DESCRIPTION(('ViewDefinition [SchedulingView]'),'2;1');
FILE_NAME('60-Home Residential District, Almere.ifc','2026-09-28T13:27:24',('Gerrit Nieuwland'),('Flevoland Housing Construction BV'),'Open Planner Studio 0.1','Open Planner Studio','');
FILE_SCHEMA(('IFC4X3'));
ENDSEC;
DATA;
#1=IFCPERSON($,'Gerrit Nieuwland',$,$,$,$,$,$);
#2=IFCORGANIZATION($,'Flevoland Housing Construction BV',$,$,$);
#3=IFCPERSONANDORGANIZATION(#1,#2,$);
#4=IFCORGANIZATION($,'OpenAEC Foundation',$,$,$);
#5=IFCAPPLICATION(#4,'0.2','Open Planner Studio','OPS');
#6=IFCOWNERHISTORY(#3,#5,$,.NOCHANGE.,$,$,$,1790602044);
#7=IFCSIUNIT(*,.LENGTHUNIT.,$,.METRE.);
#8=IFCSIUNIT(*,.TIMEUNIT.,$,.SECOND.);
#9=IFCUNITASSIGNMENT((#7,#8));
#10=IFCCARTESIANPOINT((0.,0.,0.));
#11=IFCAXIS2PLACEMENT3D(#10,$,$);
#12=IFCGEOMETRICREPRESENTATIONCONTEXT($,'Plan',3,1.0E-05,#11,$);
#13=IFCPROJECT('3BVPDUSv1GWyVo75jNdMuU',#6,'60-Home Residential District, Almere','New residential district with 40 terraced houses and 20 semi-detached homes',$,$,$,(#12),#9);
#14=IFCTIMEPERIOD('07:00:00','16:00:00');
#15=IFCRECURRENCEPATTERN(.WEEKLY.,$,(1,2,3,4,5),$,$,$,$,(#14));
#16=IFCWORKTIME('Standard work week',.PREDICTED.,$,#15,$,$);
#17=IFCWORKTIME('New Year''s Day',.PREDICTED.,$,$,'2027-01-01','2027-01-01');
#18=IFCWORKTIME('Good Friday',.PREDICTED.,$,$,'2027-03-26','2027-03-26');
#19=IFCWORKTIME('Easter',.PREDICTED.,$,$,'2027-03-28','2027-03-29');
#20=IFCWORKTIME('King''s Day',.PREDICTED.,$,$,'2027-04-27','2027-04-27');
#21=IFCWORKTIME('Liberation Day',.PREDICTED.,$,$,'2027-05-05','2027-05-05');
#22=IFCWORKTIME('Ascension Day',.PREDICTED.,$,$,'2027-05-06','2027-05-06');
#23=IFCWORKTIME('Whitsun',.PREDICTED.,$,$,'2027-05-16','2027-05-17');
#24=IFCWORKTIME('Christmas',.PREDICTED.,$,$,'2027-12-25','2027-12-26');
#25=IFCWORKTIME('Construction holiday (northern region)',.PREDICTED.,$,$,'2027-07-26','2027-08-15');
#26=IFCWORKTIME('New Year''s Day',.PREDICTED.,$,$,'2028-01-01','2028-01-01');
#27=IFCWORKTIME('Good Friday',.PREDICTED.,$,$,'2028-04-14','2028-04-14');
#28=IFCWORKTIME('Easter',.PREDICTED.,$,$,'2028-04-16','2028-04-17');
#29=IFCWORKTIME('King''s Day',.PREDICTED.,$,$,'2028-04-27','2028-04-27');
#30=IFCWORKTIME('Liberation Day',.PREDICTED.,$,$,'2028-05-05','2028-05-05');
#31=IFCWORKTIME('Ascension Day',.PREDICTED.,$,$,'2028-05-25','2028-05-25');
#32=IFCWORKTIME('Whitsun',.PREDICTED.,$,$,'2028-06-04','2028-06-05');
#33=IFCWORKTIME('Christmas',.PREDICTED.,$,$,'2028-12-25','2028-12-26');
#34=IFCWORKTIME('Construction holiday (northern region)',.PREDICTED.,$,$,'2028-07-24','2028-08-13');
#35=IFCWORKCALENDAR('0cOlE5ns7yWWO7_sFFfmkd',#6,'Construction calendar NL','Standard construction calendar: Mon-Fri 07:00-16:00',$,(#16),(#17,#18,#19,#20,#21,#22,#23,#24,#25,#26,#27,#28,#29,#30,#31,#32,#33,#34),.FIRSTSHIFT.);
#36=IFCPROPERTYSINGLEVALUE('HoursPerDay',$,IFCREAL(8),$);
#37=IFCPROPERTYSET('2zTyUcjOLxjzto1f_UzAHR',#6,'OPS_Calendar',$,(#36));
#38=IFCRELDEFINESBYPROPERTIES('3r4gPETRMfBrKjOAGgU0Dr',#6,$,$,(#35),#37);
#39=IFCWORKPLAN('0yClYpiau8JWBvIFAUD1JT',#6,'60-Home Residential District, Almere','New residential district with 40 terraced houses and 20 semi-detached homes',$,$,'2026-09-28T13:27:24',$,$,$,$,$,'2027-03-01T07:00:00','2027-03-19T07:00:00',.PLANNED.);
#40=IFCWORKSCHEDULE('2Xs4JDPVFG5NcmMjQGqS3Q',#6,'Construction schedule v1.0',$,$,$,'2026-09-28T13:27:24',$,$,$,$,$,'2027-03-01T07:00:00','2027-03-19T07:00:00',.PLANNED.);
#41=IFCRELAGGREGATES('3eKFdAvi9P0vAAZUvfsxfU',#6,$,$,#39,(#40));
#42=IFCTASKTIME('1. Site preparation Time',.PREDICTED.,$,.WORKTIME.,'P0Y0M39D','2027-03-01T07:00:00','2027-03-05T07:00:00','2027-03-01T07:00:00','2027-04-26T07:00:00','2027-03-01T07:00:00','2028-06-27T07:00:00','P0Y0M0D','P0Y0M0D',.T.,$,$,$,$,$,0.00);
#43=IFCTASK('1imZ_hFoPytGqPuUEdMxp5',#6,'1. Site preparation',$,$,'1',$,$,$,.F.,$,#42,.CONSTRUCTION.);
#44=IFCTASKTIME('Clear and level site Time',.PREDICTED.,$,.WORKTIME.,'P0Y0M8D','2027-03-01T07:00:00','2027-03-10T07:00:00','2027-03-01T07:00:00','2027-03-10T07:00:00','2027-03-01T07:00:00','2027-03-10T07:00:00','P0Y0M0D','P0Y0M0D',.T.,$,$,$,$,$,0.00);
#45=IFCTASK('0n4GdqP6qcvfUmo5WRMQ2c',#6,'Clear and level site',$,$,'1.1',$,$,$,.F.,$,#44,.DEMOLITION.);
#46=IFCTASKTIME('Install main sewer Time',.PREDICTED.,$,.WORKTIME.,'P0Y0M12D','2027-03-01T07:00:00','2027-03-16T07:00:00','2027-03-11T07:00:00','2027-03-30T07:00:00','2028-05-12T07:00:00','2028-05-30T07:00:00','P0Y0M0D','P0Y0M281D',.F.,$,$,$,$,$,0.00);
#47=IFCTASK('33P2fiNIkqrQHtNtsAbmw9',#6,'Install main sewer',$,$,'1.2',$,$,$,.F.,$,#46,.INSTALLATION.);
#48=IFCTASKTIME('Utility main Time',.PREDICTED.,$,.WORKTIME.,'P0Y0M10D','2027-03-01T07:00:00','2027-03-12T07:00:00','2027-03-31T07:00:00','2027-04-13T07:00:00','2028-05-31T07:00:00','2028-06-14T07:00:00','P0Y0M0D','P0Y0M281D',.F.,$,$,$,$,$,0.00);
#49=IFCTASK('21PF8eUBr5DG5LWCihmgL_',#6,'Utility main',$,$,'1.3',$,$,$,.F.,$,#48,.INSTALLATION.);
#50=IFCTASKTIME('Construct site roads Time',.PREDICTED.,$,.WORKTIME.,'P0Y0M8D','2027-03-01T07:00:00','2027-03-10T07:00:00','2027-04-14T07:00:00','2027-04-23T07:00:00','2028-06-15T07:00:00','2028-06-26T07:00:00','P0Y0M0D','P0Y0M281D',.F.,$,$,$,$,$,0.00);
#51=IFCTASK('11JzGRJWJXFY8cwY1Loq44',#6,'Construct site roads',$,$,'1.4',$,$,$,.F.,$,#50,.CONSTRUCTION.);
#52=IFCTASKTIME('Start of construction Time',.PREDICTED.,$,.WORKTIME.,'P0Y0M0D','2027-03-01T07:00:00','2027-03-01T07:00:00','2027-04-26T07:00:00','2027-04-26T07:00:00','2028-06-27T07:00:00','2028-06-27T07:00:00','P0Y0M281D','P0Y0M281D',.F.,$,$,$,$,$,0.00);
#53=IFCTASK('2aUrLFrL6wm9uHaXYQiQJd',#6,'Start of construction',$,$,'1.5',$,$,$,.T.,$,#52,.CONSTRUCTION.);
#54=IFCTASKTIME('2. Foundations phase 1 (blocks 1-3) Time',.PREDICTED.,$,.WORKTIME.,'P0Y0M39D','2027-03-01T07:00:00','2027-03-05T07:00:00','2027-03-30T07:00:00','2027-05-27T07:00:00','2027-03-30T07:00:00','2028-06-27T07:00:00','P0Y0M0D','P0Y0M0D',.T.,$,$,$,$,$,0.00);
#55=IFCTASK('38W95nZplBDHDA4orNy1Yi',#6,'2. Foundations phase 1 (blocks 1-3)',$,$,'2',$,$,$,.F.,$,#54,.CONSTRUCTION.);
#56=IFCTASKTIME('Piling block 1 (10 terraced houses) Time',.PREDICTED.,$,.WORKTIME.,'P0Y0M8D','2027-03-01T07:00:00','2027-03-10T07:00:00','2027-03-30T07:00:00','2027-04-08T07:00:00','2027-03-30T07:00:00','2027-04-08T07:00:00','P0Y0M0D','P0Y0M0D',.T.,$,$,$,$,$,0.00);
#57=IFCTASK('2DwfRRI9RJXqIu124cor7O',#6,'Piling block 1 (10 terraced houses)',$,$,'2.1',$,$,$,.F.,$,#56,.CONSTRUCTION.);
#58=IFCTASKTIME('Piling block 2 (10 terraced houses) Time',.PREDICTED.,$,.WORKTIME.,'P0Y0M8D','2027-03-01T07:00:00','2027-03-10T07:00:00','2027-04-09T07:00:00','2027-04-20T07:00:00','2028-05-12T07:00:00','2028-05-23T07:00:00','P0Y0M0D','P0Y0M262D',.F.,$,$,$,$,$,0.00);
#59=IFCTASK('1$PYCYnHEaMsRx6dp1V8gB',#6,'Piling block 2 (10 terraced houses)',$,$,'2.2',$,$,$,.F.,$,#58,.CONSTRUCTION.);
#60=IFCTASKTIME('Piling block 3 (10 terraced houses) Time',.PREDICTED.,$,.WORKTIME.,'P0Y0M8D','2027-03-01T07:00:00','2027-03-10T07:00:00','2027-04-14T07:00:00','2027-04-23T07:00:00','2028-05-17T07:00:00','2028-05-29T07:00:00','P0Y0M0D','P0Y0M262D',.F.,$,$,$,$,$,0.00);
#61=IFCTASK('1vYg$Er4cWpCOUSdSEFT6Z',#6,'Piling block 3 (10 terraced houses)',$,$,'2.3',$,$,$,.F.,$,#60,.CONSTRUCTION.);
#62=IFCTASKTIME('Foundation beams, blocks 1-3 Time',.PREDICTED.,$,.WORKTIME.,'P0Y0M10D','2027-03-01T07:00:00','2027-03-12T07:00:00','2027-04-26T07:00:00','2027-05-12T07:00:00','2028-05-30T07:00:00','2028-06-13T07:00:00','P0Y0M0D','P0Y0M262D',.F.,$,$,$,$,$,0.00);
#63=IFCTASK('2ItWRve_9fOcPDaYiJfk8l',#6,'Foundation beams, blocks 1-3',$,$,'2.4',$,$,$,.F.,$,#62,.CONSTRUCTION.);
#64=IFCTASKTIME('Ground floor slab, blocks 1-3 Time',.PREDICTED.,$,.WORKTIME.,'P0Y0M10D','2027-03-01T07:00:00','2027-03-12T07:00:00','2027-05-13T07:00:00','2027-05-27T07:00:00','2028-06-14T07:00:00','2028-06-27T07:00:00','P0Y0M262D','P0Y0M262D',.F.,$,$,$,$,$,0.00);
#65=IFCTASK('2w4r6ZL2gJQsrAmHlayJeU',#6,'Ground floor slab, blocks 1-3',$,$,'2.5',$,$,$,.F.,$,#64,.CONSTRUCTION.);
#66=IFCTASKTIME('3. Foundations phase 2 (blocks 4-5) Time',.PREDICTED.,$,.WORKTIME.,'P0Y0M27D','2027-03-01T07:00:00','2027-03-05T07:00:00','2027-04-02T07:00:00','2027-05-13T07:00:00','2027-04-02T07:00:00','2027-05-13T07:00:00','P0Y0M0D','P0Y0M0D',.T.,$,$,$,$,$,0.00);
#67=IFCTASK('1fk0ZAT5p$A6ini_DzCglB',#6,'3. Foundations phase 2 (blocks 4-5)',$,$,'3',$,$,$,.F.,$,#66,.CONSTRUCTION.);
#68=IFCTASKTIME('Piling block 4 (10 terraced houses) Time',.PREDICTED.,$,.WORKTIME.,'P0Y0M8D','2027-03-01T07:00:00','2027-03-10T07:00:00','2027-04-02T07:00:00','2027-04-13T07:00:00','2027-04-02T07:00:00','2027-04-13T07:00:00','P0Y0M0D','P0Y0M0D',.T.,$,$,$,$,$,0.00);
#69=IFCTASK('1$f5AOv$jqVvwk0Ttlaecg',#6,'Piling block 4 (10 terraced houses)',$,$,'3.1',$,$,$,.F.,$,#68,.CONSTRUCTION.);
#70=IFCTASKTIME('Piling block 5 (10 semi-detached) Time',.PREDICTED.,$,.WORKTIME.,'P0Y0M8D','2027-03-01T07:00:00','2027-03-10T07:00:00','2027-04-07T07:00:00','2027-04-16T07:00:00','2027-04-07T07:00:00','2027-04-16T07:00:00','P0Y0M0D','P0Y0M0D',.T.,$,$,$,$,$,0.00);
#71=IFCTASK('0joaBz4V$qiy0XJE5Q$66f',#6,'Piling block 5 (10 semi-detached)',$,$,'3.2',$,$,$,.F.,$,#70,.CONSTRUCTION.);
#72=IFCTASKTIME('Foundation beams, blocks 4-5 Time',.PREDICTED.,$,.WORKTIME.,'P0Y0M8D','2027-03-01T07:00:00','2027-03-10T07:00:00','2027-04-19T07:00:00','2027-04-29T07:00:00','2027-04-19T07:00:00','2027-04-29T07:00:00','P0Y0M0D','P0Y0M0D',.T.,$,$,$,$,$,0.00);
#73=IFCTASK('0eDomkP$BkG_pREn6hrbxr',#6,'Foundation beams, blocks 4-5',$,$,'3.3',$,$,$,.F.,$,#72,.CONSTRUCTION.);
#74=IFCTASKTIME('Ground floor slab, blocks 4-5 Time',.PREDICTED.,$,.WORKTIME.,'P0Y0M8D','2027-03-01T07:00:00','2027-03-10T07:00:00','2027-04-30T07:00:00','2027-05-13T07:00:00','2027-04-30T07:00:00','2027-05-13T07:00:00','P0Y0M0D','P0Y0M0D',.T.,$,$,$,$,$,0.00);
#75=IFCTASK('20jub6hX8M42rJX1Giw2Zx',#6,'Ground floor slab, blocks 4-5',$,$,'3.4',$,$,$,.F.,$,#74,.CONSTRUCTION.);
#76=IFCTASKTIME('4. Structural works phase 1 Time',.PREDICTED.,$,.WORKTIME.,'P0Y0M62D','2027-03-01T07:00:00','2027-03-05T07:00:00','2027-05-04T07:00:00','2027-08-23T07:00:00','2027-05-04T07:00:00','2028-06-27T07:00:00','P0Y0M0D','P0Y0M0D',.T.,$,$,$,$,$,0.00);
#77=IFCTASK('3FKpM99Lp3WVRA_tqLQuK7',#6,'4. Structural works phase 1',$,$,'4',$,$,$,.F.,$,#76,.CONSTRUCTION.);
#78=IFCTASKTIME('Masonry ground floor, blocks 1-3 Time',.PREDICTED.,$,.WORKTIME.,'P0Y0M15D','2027-03-01T07:00:00','2027-03-19T07:00:00','2027-05-04T07:00:00','2027-05-27T07:00:00','2027-05-04T07:00:00','2027-05-27T07:00:00','P0Y0M0D','P0Y0M0D',.T.,$,$,$,$,$,0.00);
#79=IFCTASK('1LcKJSRlSAkoo1sdA0Rq3r',#6,'Masonry ground floor, blocks 1-3',$,$,'4.1',$,$,$,.F.,$,#78,.CONSTRUCTION.);
#80=IFCTASKTIME('Upper floor slab, blocks 1-3 Time',.PREDICTED.,$,.WORKTIME.,'P0Y0M10D','2027-03-01T07:00:00','2027-03-12T07:00:00','2027-05-28T07:00:00','2027-06-10T07:00:00','2027-05-28T07:00:00','2027-06-10T07:00:00','P0Y0M0D','P0Y0M0D',.T.,$,$,$,$,$,0.00);
#81=IFCTASK('23TPhVn4c8IxtfLHZsNW04',#6,'Upper floor slab, blocks 1-3',$,$,'4.2',$,$,$,.F.,$,#80,.CONSTRUCTION.);
#82=IFCTASKTIME('Masonry upper floor, blocks 1-3 Time',.PREDICTED.,$,.WORKTIME.,'P0Y0M15D','2027-03-01T07:00:00','2027-03-19T07:00:00','2027-06-11T07:00:00','2027-07-01T07:00:00','2027-06-11T07:00:00','2027-07-01T07:00:00','P0Y0M0D','P0Y0M0D',.T.,$,$,$,$,$,0.00);
#83=IFCTASK('0CcrS_8x5NEsg8ng_azfde',#6,'Masonry upper floor, blocks 1-3',$,$,'4.3',$,$,$,.F.,$,#82,.CONSTRUCTION.);
#84=IFCTASKTIME('Roof structure, blocks 1-3 Time',.PREDICTED.,$,.WORKTIME.,'P0Y0M12D','2027-03-01T07:00:00','2027-03-16T07:00:00','2027-07-02T07:00:00','2027-07-19T07:00:00','2027-07-02T07:00:00','2027-07-19T07:00:00','P0Y0M0D','P0Y0M0D',.T.,$,$,$,$,$,0.00);
#85=IFCTASK('3IupSW3JmSoMH21P7MvOr2',#6,'Roof structure, blocks 1-3',$,$,'4.4',$,$,$,.F.,$,#84,.CONSTRUCTION.);
#86=IFCTASKTIME('Roof tiles, blocks 1-3 Time',.PREDICTED.,$,.WORKTIME.,'P0Y0M10D','2027-03-01T07:00:00','2027-03-12T07:00:00','2027-07-20T07:00:00','2027-08-23T07:00:00','2027-07-20T07:00:00','2027-08-23T07:00:00','P0Y0M0D','P0Y0M0D',.T.,$,$,$,$,$,0.00);
#87=IFCTASK('0XTS6nq8rTzyslYd3GihxF',#6,'Roof tiles, blocks 1-3',$,$,'4.5',$,$,$,.F.,$,#86,.CONSTRUCTION.);
#88=IFCTASKTIME('Topping out, phase 1 Time',.PREDICTED.,$,.WORKTIME.,'P0Y0M0D','2027-03-01T07:00:00','2027-03-01T07:00:00','2027-08-23T07:00:00','2027-08-23T07:00:00','2028-06-27T07:00:00','2028-06-27T07:00:00','P0Y0M215D','P0Y0M215D',.F.,$,$,$,$,$,0.00);
#89=IFCTASK('06W6LNRPLp0A$bPymmMllf',#6,'Topping out, phase 1',$,$,'4.6',$,$,$,.T.,$,#88,.CONSTRUCTION.);
#90=IFCTASKTIME('5. Structural works phase 2 Time',.PREDICTED.,$,.WORKTIME.,'P0Y0M53D','2027-03-01T07:00:00','2027-03-05T07:00:00','2027-08-24T07:00:00','2027-11-04T07:00:00','2027-08-24T07:00:00','2028-06-27T07:00:00','P0Y0M0D','P0Y0M0D',.T.,$,$,$,$,$,0.00);
#91=IFCTASK('1Sdbs8d9fwvVSQpC7S4CXs',#6,'5. Structural works phase 2',$,$,'5',$,$,$,.F.,$,#90,.CONSTRUCTION.);
#92=IFCTASKTIME('Masonry ground floor, blocks 4-5 Time',.PREDICTED.,$,.WORKTIME.,'P0Y0M15D','2027-03-01T07:00:00','2027-03-19T07:00:00','2027-08-24T07:00:00','2027-09-13T07:00:00','2027-08-24T07:00:00','2027-09-13T07:00:00','P0Y0M0D','P0Y0M0D',.T.,$,$,$,$,$,0.00);
#93=IFCTASK('0$vcRTxLEx3vi$PMx_Lak$',#6,'Masonry ground floor, blocks 4-5',$,$,'5.1',$,$,$,.F.,$,#92,.CONSTRUCTION.);
#94=IFCTASKTIME('Upper floor slab, blocks 4-5 Time',.PREDICTED.,$,.WORKTIME.,'P0Y0M8D','2027-03-01T07:00:00','2027-03-10T07:00:00','2027-09-14T07:00:00','2027-09-23T07:00:00','2028-04-28T07:00:00','2028-05-10T07:00:00','P0Y0M0D','P0Y0M160D',.F.,$,$,$,$,$,0.00);
#95=IFCTASK('2R8GKalCOIc97yipm735ru',#6,'Upper floor slab, blocks 4-5',$,$,'5.2',$,$,$,.F.,$,#94,.CONSTRUCTION.);
#96=IFCTASKTIME('Masonry upper floor, blocks 4-5 Time',.PREDICTED.,$,.WORKTIME.,'P0Y0M12D','2027-03-01T07:00:00','2027-03-16T07:00:00','2027-09-24T07:00:00','2027-10-11T07:00:00','2028-05-11T07:00:00','2028-05-29T07:00:00','P0Y0M0D','P0Y0M160D',.F.,$,$,$,$,$,0.00);
#97=IFCTASK('0EUJCWp4bloWPjMWMIMPiI',#6,'Masonry upper floor, blocks 4-5',$,$,'5.3',$,$,$,.F.,$,#96,.CONSTRUCTION.);
#98=IFCTASKTIME('Roof structure, blocks 4-5 Time',.PREDICTED.,$,.WORKTIME.,'P0Y0M10D','2027-03-01T07:00:00','2027-03-12T07:00:00','2027-10-12T07:00:00','2027-10-25T07:00:00','2028-05-30T07:00:00','2028-06-13T07:00:00','P0Y0M0D','P0Y0M160D',.F.,$,$,$,$,$,0.00);
#99=IFCTASK('3AUdPnSytmVrFu8ZtLkA_I',#6,'Roof structure, blocks 4-5',$,$,'5.4',$,$,$,.F.,$,#98,.CONSTRUCTION.);
#100=IFCTASKTIME('Roof tiles, blocks 4-5 Time',.PREDICTED.,$,.WORKTIME.,'P0Y0M8D','2027-03-01T07:00:00','2027-03-10T07:00:00','2027-10-26T07:00:00','2027-11-04T07:00:00','2028-06-14T07:00:00','2028-06-23T07:00:00','P0Y0M0D','P0Y0M160D',.F.,$,$,$,$,$,0.00);
#101=IFCTASK('3zz3SwzX0xihkrbKwizW2K',#6,'Roof tiles, blocks 4-5',$,$,'5.5',$,$,$,.F.,$,#100,.CONSTRUCTION.);
#102=IFCTASKTIME('Topping out, phase 2 Time',.PREDICTED.,$,.WORKTIME.,'P0Y0M0D','2027-03-01T07:00:00','2027-03-01T07:00:00','2027-11-04T07:00:00','2027-11-04T07:00:00','2028-06-27T07:00:00','2028-06-27T07:00:00','P0Y0M162D','P0Y0M162D',.F.,$,$,$,$,$,0.00);
#103=IFCTASK('25FGacVmdKD8G1x7ldpRyK',#6,'Topping out, phase 2',$,$,'5.6',$,$,$,.T.,$,#102,.CONSTRUCTION.);
#104=IFCTASKTIME('6. Facades & roofs Time',.PREDICTED.,$,.WORKTIME.,'P0Y0M38D','2027-03-01T07:00:00','2027-03-05T07:00:00','2027-09-30T07:00:00','2027-11-22T07:00:00','2027-09-30T07:00:00','2028-06-27T07:00:00','P0Y0M0D','P0Y0M0D',.T.,$,$,$,$,$,0.00);
#105=IFCTASK('0HabNXXKnsvhtCccAu7e4w',#6,'6. Facades & roofs',$,$,'6',$,$,$,.F.,$,#104,.INSTALLATION.);
#106=IFCTASKTIME('Window frames, blocks 1-3 Time',.PREDICTED.,$,.WORKTIME.,'P0Y0M10D','2027-03-01T07:00:00','2027-03-12T07:00:00','2027-09-30T07:00:00','2027-10-13T07:00:00','2027-09-30T07:00:00','2027-10-13T07:00:00','P0Y0M0D','P0Y0M0D',.T.,$,$,$,$,$,0.00);
#107=IFCTASK('0OFDxLDLTQlywnFmxtaOdy',#6,'Window frames, blocks 1-3',$,$,'6.1',$,$,$,.F.,$,#106,.INSTALLATION.);
#108=IFCTASKTIME('Window frames, blocks 4-5 Time',.PREDICTED.,$,.WORKTIME.,'P0Y0M8D','2027-03-01T07:00:00','2027-03-10T07:00:00','2027-10-14T07:00:00','2027-10-25T07:00:00','2028-05-17T07:00:00','2028-05-29T07:00:00','P0Y0M0D','P0Y0M150D',.F.,$,$,$,$,$,0.00);
#109=IFCTASK('3FGf26GbU4x3WKhrc1bsUY',#6,'Window frames, blocks 4-5',$,$,'6.2',$,$,$,.F.,$,#108,.INSTALLATION.);
#110=IFCTASKTIME('Facade sealing and insulation Time',.PREDICTED.,$,.WORKTIME.,'P0Y0M12D','2027-03-01T07:00:00','2027-03-16T07:00:00','2027-10-26T07:00:00','2027-11-10T07:00:00','2028-05-30T07:00:00','2028-06-15T07:00:00','P0Y0M0D','P0Y0M150D',.F.,$,$,$,$,$,0.00);
#111=IFCTASK('2KYjt4c2qjfwWgf54Wz6ui',#6,'Facade sealing and insulation',$,$,'6.3',$,$,$,.F.,$,#110,.INSTALLATION.);
#112=IFCTASKTIME('Gutters and rainwater downpipes Time',.PREDICTED.,$,.WORKTIME.,'P0Y0M8D','2027-03-01T07:00:00','2027-03-10T07:00:00','2027-11-11T07:00:00','2027-11-22T07:00:00','2028-06-16T07:00:00','2028-06-27T07:00:00','P0Y0M0D','P0Y0M150D',.F.,$,$,$,$,$,0.00);
#113=IFCTASK('0JWRoV7bBcoNlcQRIgLZKA',#6,'Gutters and rainwater downpipes',$,$,'6.4',$,$,$,.F.,$,#112,.INSTALLATION.);
#114=IFCTASKTIME('Wind and weathertight, all blocks Time',.PREDICTED.,$,.WORKTIME.,'P0Y0M0D','2027-03-01T07:00:00','2027-03-01T07:00:00','2027-11-22T07:00:00','2027-11-22T07:00:00','2028-06-27T07:00:00','2028-06-27T07:00:00','P0Y0M150D','P0Y0M150D',.F.,$,$,$,$,$,0.00);
#115=IFCTASK('2e3rTRg7$CHSiX5Nul8$ll',#6,'Wind and weathertight, all blocks',$,$,'6.5',$,$,$,.T.,$,#114,.INSTALLATION.);
#116=IFCTASKTIME('7. Building services Time',.PREDICTED.,$,.WORKTIME.,'P0Y0M56D','2027-03-01T07:00:00','2027-03-05T07:00:00','2027-10-06T07:00:00','2027-12-22T07:00:00','2027-10-06T07:00:00','2027-12-22T07:00:00','P0Y0M0D','P0Y0M0D',.T.,$,$,$,$,$,0.00);
#117=IFCTASK('0OT_rf_Gc3XB$2ZODXVmLU',#6,'7. Building services',$,$,'7',$,$,$,.F.,$,#116,.INSTALLATION.);
#118=IFCTASKTIME('Electrical, blocks 1-3 Time',.PREDICTED.,$,.WORKTIME.,'P0Y0M12D','2027-03-01T07:00:00','2027-03-16T07:00:00','2027-10-06T07:00:00','2027-10-21T07:00:00','2027-10-06T07:00:00','2027-10-21T07:00:00','P0Y0M0D','P0Y0M0D',.T.,$,$,$,$,$,0.00);
#119=IFCTASK('1jU$S0yk0sHuV7gsz_wwZn',#6,'Electrical, blocks 1-3',$,$,'7.1',$,$,$,.F.,$,#118,.INSTALLATION.);
#120=IFCTASKTIME('Electrical, blocks 4-5 Time',.PREDICTED.,$,.WORKTIME.,'P0Y0M8D','2027-03-01T07:00:00','2027-03-10T07:00:00','2027-10-13T07:00:00','2027-10-22T07:00:00','2027-10-13T07:00:00','2027-10-22T07:00:00','P0Y0M0D','P0Y0M0D',.T.,$,$,$,$,$,0.00);
#121=IFCTASK('2tjO03RIcNTPpJnyJNYApd',#6,'Electrical, blocks 4-5',$,$,'7.2',$,$,$,.F.,$,#120,.INSTALLATION.);
#122=IFCTASKTIME('Plumbing, blocks 1-3 Time',.PREDICTED.,$,.WORKTIME.,'P0Y0M10D','2027-03-01T07:00:00','2027-03-12T07:00:00','2027-10-25T07:00:00','2027-11-05T07:00:00','2027-10-25T07:00:00','2027-11-05T07:00:00','P0Y0M0D','P0Y0M0D',.T.,$,$,$,$,$,0.00);
#123=IFCTASK('2rG48Ori1FeaclPiOA$Ng3',#6,'Plumbing, blocks 1-3',$,$,'7.3',$,$,$,.F.,$,#122,.INSTALLATION.);
#124=IFCTASKTIME('Plumbing, blocks 4-5 Time',.PREDICTED.,$,.WORKTIME.,'P0Y0M8D','2027-03-01T07:00:00','2027-03-10T07:00:00','2027-11-08T07:00:00','2027-11-17T07:00:00','2027-11-08T07:00:00','2027-11-17T07:00:00','P0Y0M0D','P0Y0M0D',.T.,$,$,$,$,$,0.00);
#125=IFCTASK('1oNk3YFm6bChZUxUg_bZaB',#6,'Plumbing, blocks 4-5',$,$,'7.4',$,$,$,.F.,$,#124,.INSTALLATION.);
#126=IFCTASKTIME('Heat pumps, all dwellings Time',.PREDICTED.,$,.WORKTIME.,'P0Y0M15D','2027-03-01T07:00:00','2027-03-19T07:00:00','2027-11-18T07:00:00','2027-12-08T07:00:00','2027-11-18T07:00:00','2027-12-08T07:00:00','P0Y0M0D','P0Y0M0D',.T.,$,$,$,$,$,0.00);
#127=IFCTASK('0VqZQWs7HgP0AIK6XJKUAQ',#6,'Heat pumps, all dwellings',$,$,'7.5',$,$,$,.F.,$,#126,.INSTALLATION.);
#128=IFCTASKTIME('Heat recovery ventilation units Time',.PREDICTED.,$,.WORKTIME.,'P0Y0M10D','2027-03-01T07:00:00','2027-03-12T07:00:00','2027-12-09T07:00:00','2027-12-22T07:00:00','2027-12-09T07:00:00','2027-12-22T07:00:00','P0Y0M0D','P0Y0M0D',.T.,$,$,$,$,$,0.00);
#129=IFCTASK('3Zyx_Oxq8G6bWFbx_vLTcw',#6,'Heat recovery ventilation units',$,$,'7.6',$,$,$,.F.,$,#128,.INSTALLATION.);
#130=IFCTASKTIME('8. Fit-out phase 1 Time',.PREDICTED.,$,.WORKTIME.,'P0Y0M51D','2027-03-01T07:00:00','2027-03-05T07:00:00','2027-12-06T07:00:00','2028-02-14T07:00:00','2027-12-06T07:00:00','2028-02-14T07:00:00','P0Y0M0D','P0Y0M0D',.T.,$,$,$,$,$,0.00);
#131=IFCTASK('0qDzudKY3ZrVOYF5LuOCy5',#6,'8. Fit-out phase 1',$,$,'8',$,$,$,.F.,$,#130,.CONSTRUCTION.);
#132=IFCTASKTIME('Plastering, blocks 1-3 Time',.PREDICTED.,$,.WORKTIME.,'P0Y0M15D','2027-03-01T07:00:00','2027-03-19T07:00:00','2027-12-06T07:00:00','2027-12-24T07:00:00','2027-12-06T07:00:00','2027-12-24T07:00:00','P0Y0M0D','P0Y0M0D',.T.,$,$,$,$,$,0.00);
#133=IFCTASK('2cOJIAezC13Ear4C82Rsk3',#6,'Plastering, blocks 1-3',$,$,'8.1',$,$,$,.F.,$,#132,.CONSTRUCTION.);
#134=IFCTASKTIME('Tiling, blocks 1-3 Time',.PREDICTED.,$,.WORKTIME.,'P0Y0M10D','2027-03-01T07:00:00','2027-03-12T07:00:00','2027-12-27T07:00:00','2028-01-07T07:00:00','2027-12-27T07:00:00','2028-01-07T07:00:00','P0Y0M0D','P0Y0M0D',.T.,$,$,$,$,$,0.00);
#135=IFCTASK('0rN2sZZXaneQctGY8uiwkW',#6,'Tiling, blocks 1-3',$,$,'8.2',$,$,$,.F.,$,#134,.CONSTRUCTION.);
#136=IFCTASKTIME('Kitchens, blocks 1-3 Time',.PREDICTED.,$,.WORKTIME.,'P0Y0M8D','2027-03-01T07:00:00','2027-03-10T07:00:00','2028-01-10T07:00:00','2028-01-19T07:00:00','2028-01-10T07:00:00','2028-01-19T07:00:00','P0Y0M0D','P0Y0M0D',.T.,$,$,$,$,$,0.00);
#137=IFCTASK('1ACqY8L9GAZhx5Jcd9ZvU9',#6,'Kitchens, blocks 1-3',$,$,'8.3',$,$,$,.F.,$,#136,.INSTALLATION.);
#138=IFCTASKTIME('Painting, blocks 1-3 Time',.PREDICTED.,$,.WORKTIME.,'P0Y0M10D','2027-03-01T07:00:00','2027-03-12T07:00:00','2028-01-20T07:00:00','2028-02-02T07:00:00','2028-01-20T07:00:00','2028-02-02T07:00:00','P0Y0M0D','P0Y0M0D',.T.,$,$,$,$,$,0.00);
#139=IFCTASK('3wxe7iXe$DAokgQHOs3jsc',#6,'Painting, blocks 1-3',$,$,'8.4',$,$,$,.F.,$,#138,.CONSTRUCTION.);
#140=IFCTASKTIME('Floor finishes, blocks 1-3 Time',.PREDICTED.,$,.WORKTIME.,'P0Y0M8D','2027-03-01T07:00:00','2027-03-10T07:00:00','2028-02-03T07:00:00','2028-02-14T07:00:00','2028-02-03T07:00:00','2028-02-14T07:00:00','P0Y0M0D','P0Y0M0D',.T.,$,$,$,$,$,0.00);
#141=IFCTASK('36c4uNH_$vfR$u4PIS9qNf',#6,'Floor finishes, blocks 1-3',$,$,'8.5',$,$,$,.F.,$,#140,.CONSTRUCTION.);
#142=IFCTASKTIME('9. Fit-out phase 2 Time',.PREDICTED.,$,.WORKTIME.,'P0Y0M38D','2027-03-01T07:00:00','2027-03-05T07:00:00','2028-02-15T07:00:00','2028-04-06T07:00:00','2028-02-15T07:00:00','2028-06-27T07:00:00','P0Y0M0D','P0Y0M0D',.T.,$,$,$,$,$,0.00);
#143=IFCTASK('3000J$u$JBPe38NwB7CgQ1',#6,'9. Fit-out phase 2',$,$,'9',$,$,$,.F.,$,#142,.CONSTRUCTION.);
#144=IFCTASKTIME('Plastering, blocks 4-5 Time',.PREDICTED.,$,.WORKTIME.,'P0Y0M12D','2027-03-01T07:00:00','2027-03-16T07:00:00','2028-02-15T07:00:00','2028-03-01T07:00:00','2028-02-15T07:00:00','2028-03-01T07:00:00','P0Y0M0D','P0Y0M0D',.T.,$,$,$,$,$,0.00);
#145=IFCTASK('1Vxgu0JudwZocw40b3M8ZM',#6,'Plastering, blocks 4-5',$,$,'9.1',$,$,$,.F.,$,#144,.CONSTRUCTION.);
#146=IFCTASKTIME('Tiling, blocks 4-5 Time',.PREDICTED.,$,.WORKTIME.,'P0Y0M8D','2027-03-01T07:00:00','2027-03-10T07:00:00','2028-03-02T07:00:00','2028-03-13T07:00:00','2028-05-19T07:00:00','2028-05-31T07:00:00','P0Y0M0D','P0Y0M52D',.F.,$,$,$,$,$,0.00);
#147=IFCTASK('0XBhJJ6tK6_LNeoJZKWnEP',#6,'Tiling, blocks 4-5',$,$,'9.2',$,$,$,.F.,$,#146,.CONSTRUCTION.);
#148=IFCTASKTIME('Kitchens, blocks 4-5 Time',.PREDICTED.,$,.WORKTIME.,'P0Y0M5D','2027-03-01T07:00:00','2027-03-05T07:00:00','2028-03-14T07:00:00','2028-03-20T07:00:00','2028-06-01T07:00:00','2028-06-08T07:00:00','P0Y0M0D','P0Y0M52D',.F.,$,$,$,$,$,0.00);
#149=IFCTASK('1y0RcokRVrO2YOt99Wb_0K',#6,'Kitchens, blocks 4-5',$,$,'9.3',$,$,$,.F.,$,#148,.INSTALLATION.);
#150=IFCTASKTIME('Painting, blocks 4-5 Time',.PREDICTED.,$,.WORKTIME.,'P0Y0M8D','2027-03-01T07:00:00','2027-03-10T07:00:00','2028-03-21T07:00:00','2028-03-30T07:00:00','2028-06-09T07:00:00','2028-06-20T07:00:00','P0Y0M0D','P0Y0M52D',.F.,$,$,$,$,$,0.00);
#151=IFCTASK('3GndcReSGG_UNV0beaT7OL',#6,'Painting, blocks 4-5',$,$,'9.4',$,$,$,.F.,$,#150,.CONSTRUCTION.);
#152=IFCTASKTIME('Floor finishes, blocks 4-5 Time',.PREDICTED.,$,.WORKTIME.,'P0Y0M5D','2027-03-01T07:00:00','2027-03-05T07:00:00','2028-03-31T07:00:00','2028-04-06T07:00:00','2028-06-21T07:00:00','2028-06-27T07:00:00','P0Y0M52D','P0Y0M52D',.F.,$,$,$,$,$,0.00);
#153=IFCTASK('10UU_GNHsQ5iUM1nT1xZcB',#6,'Floor finishes, blocks 4-5',$,$,'9.5',$,$,$,.F.,$,#152,.CONSTRUCTION.);
#154=IFCTASKTIME('10. Final site works Time',.PREDICTED.,$,.WORKTIME.,'P0Y0M51D','2027-03-01T07:00:00','2027-03-05T07:00:00','2028-03-13T07:00:00','2028-05-29T07:00:00','2028-03-13T07:00:00','2028-05-29T07:00:00','P0Y0M0D','P0Y0M0D',.T.,$,$,$,$,$,0.00);
#155=IFCTASK('2hCv$xkUdRvW8VONpegRNn',#6,'10. Final site works',$,$,'10',$,$,$,.F.,$,#154,.CONSTRUCTION.);
#156=IFCTASKTIME('Connect permanent sewer Time',.PREDICTED.,$,.WORKTIME.,'P0Y0M8D','2027-03-01T07:00:00','2027-03-10T07:00:00','2028-03-13T07:00:00','2028-03-22T07:00:00','2028-03-13T07:00:00','2028-03-22T07:00:00','P0Y0M0D','P0Y0M0D',.T.,$,$,$,$,$,0.00);
#157=IFCTASK('09sYUoTkquA52sqxKeos7j',#6,'Connect permanent sewer',$,$,'10.1',$,$,$,.F.,$,#156,.INSTALLATION.);
#158=IFCTASKTIME('Paving and pavements Time',.PREDICTED.,$,.WORKTIME.,'P0Y0M15D','2027-03-01T07:00:00','2027-03-19T07:00:00','2028-03-23T07:00:00','2028-04-12T07:00:00','2028-03-23T07:00:00','2028-04-12T07:00:00','P0Y0M0D','P0Y0M0D',.T.,$,$,$,$,$,0.00);
#159=IFCTASK('3FxSEL6b9UH01mmY6nGvaJ',#6,'Paving and pavements',$,$,'10.2',$,$,$,.F.,$,#158,.CONSTRUCTION.);
#160=IFCTASKTIME('Construct parking spaces Time',.PREDICTED.,$,.WORKTIME.,'P0Y0M8D','2027-03-01T07:00:00','2027-03-10T07:00:00','2028-04-13T07:00:00','2028-04-26T07:00:00','2028-04-13T07:00:00','2028-04-26T07:00:00','P0Y0M0D','P0Y0M0D',.T.,$,$,$,$,$,0.00);
#161=IFCTASK('0iznpkNVqDUZEh_oQnAvpd',#6,'Construct parking spaces',$,$,'10.3',$,$,$,.F.,$,#160,.CONSTRUCTION.);
#162=IFCTASKTIME('Landscaping and trees Time',.PREDICTED.,$,.WORKTIME.,'P0Y0M10D','2027-03-01T07:00:00','2027-03-12T07:00:00','2028-04-28T07:00:00','2028-05-12T07:00:00','2028-04-28T07:00:00','2028-05-12T07:00:00','P0Y0M0D','P0Y0M0D',.T.,$,$,$,$,$,0.00);
#163=IFCTASK('1GGzmmkWPxmWvQi3Ye_Frt',#6,'Landscaping and trees',$,$,'10.4',$,$,$,.F.,$,#162,.CONSTRUCTION.);
#164=IFCTASKTIME('Play equipment Time',.PREDICTED.,$,.WORKTIME.,'P0Y0M5D','2027-03-01T07:00:00','2027-03-05T07:00:00','2028-05-15T07:00:00','2028-05-19T07:00:00','2028-05-15T07:00:00','2028-05-19T07:00:00','P0Y0M0D','P0Y0M0D',.T.,$,$,$,$,$,0.00);
#165=IFCTASK('19elif3S6lSGHSuJLkmVSs',#6,'Play equipment',$,$,'10.5',$,$,$,.F.,$,#164,.INSTALLATION.);
#166=IFCTASKTIME('Street lighting Time',.PREDICTED.,$,.WORKTIME.,'P0Y0M5D','2027-03-01T07:00:00','2027-03-05T07:00:00','2028-05-22T07:00:00','2028-05-29T07:00:00','2028-05-22T07:00:00','2028-05-29T07:00:00','P0Y0M0D','P0Y0M0D',.T.,$,$,$,$,$,0.00);
#167=IFCTASK('2SAdVTcGM3xjnAN1duvbIZ',#6,'Street lighting',$,$,'10.6',$,$,$,.F.,$,#166,.INSTALLATION.);
#168=IFCTASKTIME('11. Handover Time',.PREDICTED.,$,.WORKTIME.,'P0Y0M20D','2027-03-01T07:00:00','2027-03-05T07:00:00','2028-05-30T07:00:00','2028-06-27T07:00:00','2028-05-30T07:00:00','2028-06-27T07:00:00','P0Y0M0D','P0Y0M0D',.T.,$,$,$,$,$,0.00);
#169=IFCTASK('0RRF29gduFtYun2y5Fl4G0',#6,'11. Handover',$,$,'11',$,$,$,.F.,$,#168,.CONSTRUCTION.);
#170=IFCTASKTIME('Pre-handover inspection, phase 1 Time',.PREDICTED.,$,.WORKTIME.,'P0Y0M5D','2027-03-01T07:00:00','2027-03-05T07:00:00','2028-05-30T07:00:00','2028-06-06T07:00:00','2028-05-30T07:00:00','2028-06-06T07:00:00','P0Y0M0D','P0Y0M0D',.T.,$,$,$,$,$,0.00);
#171=IFCTASK('0wWC2CUlMSSoVjpTH3IKrJ',#6,'Pre-handover inspection, phase 1',$,$,'11.1',$,$,$,.F.,$,#170,.ATTENDANCE.);
#172=IFCTASKTIME('Pre-handover inspection, phase 2 Time',.PREDICTED.,$,.WORKTIME.,'P0Y0M5D','2027-03-01T07:00:00','2027-03-05T07:00:00','2028-06-07T07:00:00','2028-06-13T07:00:00','2028-06-07T07:00:00','2028-06-13T07:00:00','P0Y0M0D','P0Y0M0D',.T.,$,$,$,$,$,0.00);
#173=IFCTASK('0gSeMet6e5tEk1bNv18oQI',#6,'Pre-handover inspection, phase 2',$,$,'11.2',$,$,$,.F.,$,#172,.ATTENDANCE.);
#174=IFCTASKTIME('Handover of dwellings Time',.PREDICTED.,$,.WORKTIME.,'P0Y0M10D','2027-03-01T07:00:00','2027-03-12T07:00:00','2028-06-14T07:00:00','2028-06-27T07:00:00','2028-06-14T07:00:00','2028-06-27T07:00:00','P0Y0M0D','P0Y0M0D',.T.,$,$,$,$,$,0.00);
#175=IFCTASK('15DZvyUYn7ziQDudDkaRD2',#6,'Handover of dwellings',$,$,'11.3',$,$,$,.F.,$,#174,.ATTENDANCE.);
#176=IFCTASKTIME('Residential district complete Time',.PREDICTED.,$,.WORKTIME.,'P0Y0M0D','2027-03-01T07:00:00','2027-03-01T07:00:00','2028-06-27T07:00:00','2028-06-27T07:00:00','2028-06-27T07:00:00','2028-06-27T07:00:00','P0Y0M0D','P0Y0M0D',.T.,$,$,$,$,$,0.00);
#177=IFCTASK('2$m_34Avlg3HIx5XwqYnbp',#6,'Residential district complete',$,$,'11.4',$,$,$,.T.,$,#176,.CONSTRUCTION.);
#178=IFCRELNESTS('3z7kvqZ3_xghL5svuDlWos',#6,'WBS 1. Site preparation',$,#43,( #45,#47,#49,#51,#53));
#179=IFCRELNESTS('31W9NL5YUs8HAJlC$E7Jse',#6,'WBS 2. Foundations phase 1 (blocks 1-3)',$,#55,( #57,#59,#61,#63,#65));
#180=IFCRELNESTS('2DWh0kmKdfgW_GNI$uRYVU',#6,'WBS 3. Foundations phase 2 (blocks 4-5)',$,#67,( #69,#71,#73,#75));
#181=IFCRELNESTS('37Cy1cpK4rBxFuD0Fv3h7w',#6,'WBS 4. Structural works phase 1',$,#77,( #79,#81,#83,#85,#87,#89));
#182=IFCRELNESTS('0c0BTyICz9NXwOnGIVP5lJ',#6,'WBS 5. Structural works phase 2',$,#91,( #93,#95,#97,#99,#101,#103));
#183=IFCRELNESTS('2qR4ary3em23ULXkwzqBbU',#6,'WBS 6. Facades & roofs',$,#105,( #107,#109,#111,#113,#115));
#184=IFCRELNESTS('1dOGNZ6IbDSz$40QbXz3g7',#6,'WBS 7. Building services',$,#117,( #119,#121,#123,#125,#127,#129));
#185=IFCRELNESTS('2N72jXLQYOzEnPA_mMtiA0',#6,'WBS 8. Fit-out phase 1',$,#131,( #133,#135,#137,#139,#141));
#186=IFCRELNESTS('1wnDz5kIjDGWEPC1tOP1yC',#6,'WBS 9. Fit-out phase 2',$,#143,( #145,#147,#149,#151,#153));
#187=IFCRELNESTS('2Ivx_n5pelwRPauT3eQKlw',#6,'WBS 10. Final site works',$,#155,( #157,#159,#161,#163,#165,#167));
#188=IFCRELNESTS('1XLbvqck9eE8DtPNcwuw9s',#6,'WBS 11. Handover',$,#169,( #171,#173,#175,#177));
#189=IFCRELNESTS('2puBzkvmC3OXnbRxKW67qF',#6,'WBS Hoofd',$,#40,(#43,#55,#67,#77,#91,#105,#117,#131,#143,#155,#169));
#190=IFCRELSEQUENCE('2EjLljcIjdprGIhzyLKO9e',#6,$,$,#45,#47,$,.FINISH_START.,$);
#191=IFCRELSEQUENCE('0sl_2Pikitn88_RvDvjdOV',#6,$,$,#47,#49,$,.FINISH_START.,$);
#192=IFCRELSEQUENCE('0KoKEZL9QA79hIZ4QYwGCL',#6,$,$,#49,#51,$,.FINISH_START.,$);
#193=IFCRELSEQUENCE('1HkgTZWc7DDm4BCeeAQ496',#6,$,$,#51,#53,$,.FINISH_START.,$);
#194=IFCRELSEQUENCE('1GjTgu1xN4u0UmdMTHwy$e',#6,$,$,#57,#59,$,.FINISH_START.,$);
#195=IFCLAGTIME('Lag',.PREDICTED.,$,IFCDURATION('P3D'),.WORKTIME.);
#196=IFCRELSEQUENCE('0rg1SIweeHq9DZHrtM5jUv',#6,$,$,#59,#61,#195,.START_START.,$);
#197=IFCRELSEQUENCE('2aqMWv39lNAaXL1ykEAEm4',#6,$,$,#61,#63,$,.FINISH_START.,$);
#198=IFCRELSEQUENCE('1HGr0ewa8EcPZWdignQ_xW',#6,$,$,#63,#65,$,.FINISH_START.,$);
#199=IFCLAGTIME('Lag',.PREDICTED.,$,IFCDURATION('P3D'),.WORKTIME.);
#200=IFCRELSEQUENCE('2jhrjIV8BAvPStkQPJVeqQ',#6,$,$,#69,#71,#199,.START_START.,$);
#201=IFCRELSEQUENCE('3oW1ZSO4uKN3svWRImEthQ',#6,$,$,#71,#73,$,.FINISH_START.,$);
#202=IFCRELSEQUENCE('3tlkdfSGd2Xbi4d7WpbN_v',#6,$,$,#73,#75,$,.FINISH_START.,$);
#203=IFCRELSEQUENCE('3nWizpFByWy064GYHPpmqm',#6,$,$,#79,#81,$,.FINISH_START.,$);
#204=IFCRELSEQUENCE('3qsrQ6yD8_AeDuwVApw00P',#6,$,$,#81,#83,$,.FINISH_START.,$);
#205=IFCRELSEQUENCE('19Z3YzcQejxlTFGTmc0uyb',#6,$,$,#83,#85,$,.FINISH_START.,$);
#206=IFCRELSEQUENCE('3YI2XmAisszKXmolqHnjv2',#6,$,$,#85,#87,$,.FINISH_START.,$);
#207=IFCRELSEQUENCE('0H6GDG9fW6hr6XJi_Hv$2W',#6,$,$,#87,#89,$,.FINISH_START.,$);
#208=IFCRELSEQUENCE('0HoAxVB1a1y0pLpH5qDifB',#6,$,$,#93,#95,$,.FINISH_START.,$);
#209=IFCRELSEQUENCE('2EEHev9he_rbDRVQiXpgSq',#6,$,$,#95,#97,$,.FINISH_START.,$);
#210=IFCRELSEQUENCE('1qVuW9xqfESmReGsqmuRul',#6,$,$,#97,#99,$,.FINISH_START.,$);
#211=IFCRELSEQUENCE('1g15pJT0Ca$EkV69eSXduW',#6,$,$,#99,#101,$,.FINISH_START.,$);
#212=IFCRELSEQUENCE('0muksjGOEBv7Q$88CbpYLI',#6,$,$,#101,#103,$,.FINISH_START.,$);
#213=IFCRELSEQUENCE('1aV1vT$jKgeLMwWtTxrb1T',#6,$,$,#107,#109,$,.FINISH_START.,$);
#214=IFCRELSEQUENCE('2uswIzFeYPmBeQVr5EscaH',#6,$,$,#109,#111,$,.FINISH_START.,$);
#215=IFCRELSEQUENCE('2dUNrxvtjMG4wZ4e_1hNuD',#6,$,$,#111,#113,$,.FINISH_START.,$);
#216=IFCRELSEQUENCE('2MlNxk9rvdeQbo13aEpsoY',#6,$,$,#113,#115,$,.FINISH_START.,$);
#217=IFCLAGTIME('Lag',.PREDICTED.,$,IFCDURATION('P5D'),.WORKTIME.);
#218=IFCRELSEQUENCE('07JqbRErpGh4MSSY8Hold5',#6,$,$,#119,#121,#217,.START_START.,$);
#219=IFCRELSEQUENCE('3W21yhtXRdyOfExUUO6CAc',#6,$,$,#121,#123,$,.FINISH_START.,$);
#220=IFCRELSEQUENCE('01fo7P_ehtjYtPc5NAga3k',#6,$,$,#123,#125,$,.FINISH_START.,$);
#221=IFCRELSEQUENCE('32uher0DsPhzKobBEHjHkR',#6,$,$,#125,#127,$,.FINISH_START.,$);
#222=IFCRELSEQUENCE('0ZskiQwimc_9nrnW6JeEYi',#6,$,$,#127,#129,$,.FINISH_START.,$);
#223=IFCRELSEQUENCE('2jHleMbK2mEI0lhD0Nub2X',#6,$,$,#133,#135,$,.FINISH_START.,$);
#224=IFCRELSEQUENCE('1UMYeROaLvnaFgBtEdQRPG',#6,$,$,#135,#137,$,.FINISH_START.,$);
#225=IFCRELSEQUENCE('0x7yjM1DwhQLtbbF8AV4me',#6,$,$,#137,#139,$,.FINISH_START.,$);
#226=IFCRELSEQUENCE('0DIgYfaup4ExYVyImMC_IS',#6,$,$,#139,#141,$,.FINISH_START.,$);
#227=IFCRELSEQUENCE('3lKWwgfpXxQxtWIKqq0lk$',#6,$,$,#145,#147,$,.FINISH_START.,$);
#228=IFCRELSEQUENCE('3lXV$8KrysRGFEbhpE7hAZ',#6,$,$,#147,#149,$,.FINISH_START.,$);
#229=IFCRELSEQUENCE('3HtlK8L8KiBDmoecepXzBp',#6,$,$,#149,#151,$,.FINISH_START.,$);
#230=IFCRELSEQUENCE('2pJh7T5nVs0y5o0fjfnom4',#6,$,$,#151,#153,$,.FINISH_START.,$);
#231=IFCRELSEQUENCE('0o3reGu0Opz0aA7S1xxNkC',#6,$,$,#157,#159,$,.FINISH_START.,$);
#232=IFCRELSEQUENCE('2DZtbshV4$$cqPXaEUl7nS',#6,$,$,#159,#161,$,.FINISH_START.,$);
#233=IFCRELSEQUENCE('2znFqJyaZSnDbha_1NwPIS',#6,$,$,#161,#163,$,.FINISH_START.,$);
#234=IFCRELSEQUENCE('2hArEkvh9LTylpez_mc1pF',#6,$,$,#163,#165,$,.FINISH_START.,$);
#235=IFCRELSEQUENCE('3JCa7ClJbtujlMOGZTSaH$',#6,$,$,#165,#167,$,.FINISH_START.,$);
#236=IFCRELSEQUENCE('2NOlfSfyx0i1FUQh14l1HY',#6,$,$,#171,#173,$,.FINISH_START.,$);
#237=IFCRELSEQUENCE('3TC1PM6wTVJYPVm0MKXVAN',#6,$,$,#173,#175,$,.FINISH_START.,$);
#238=IFCRELSEQUENCE('2_itJheHoAfEGIBq7f9WAe',#6,$,$,#175,#177,$,.FINISH_START.,$);
#239=IFCLAGTIME('Lag',.PREDICTED.,$,IFCDURATION('P19D'),.WORKTIME.);
#240=IFCRELSEQUENCE('32jry7vBSX7auU356uK5Nf',#6,$,$,#45,#57,#239,.START_START.,$);
#241=IFCLAGTIME('Lag',.PREDICTED.,$,IFCRATIOMEASURE(0.4),.WORKTIME.);
#242=IFCRELSEQUENCE('10ROt92XXF1xUCoKw_XDmq',#6,$,$,#57,#69,#241,.START_START.,$);
#243=IFCLAGTIME('Lag',.PREDICTED.,$,IFCDURATION('-P6D'),.WORKTIME.);
#244=IFCRELSEQUENCE('0_Taj_uv48MjuqTWOKlu30',#6,$,$,#75,#79,#243,.FINISH_START.,$);
#245=IFCRELSEQUENCE('2QwGuLbnqlwDo1NOIr5eoX',#6,$,$,#87,#93,$,.FINISH_START.,$);
#246=IFCLAGTIME('Lag',.PREDICTED.,$,IFCDURATION('P27D'),.WORKTIME.);
#247=IFCRELSEQUENCE('11bx5gnoumtVRiBSSrG67A',#6,$,$,#93,#107,#246,.START_START.,$);
#248=IFCLAGTIME('Lag',.PREDICTED.,$,IFCDURATION('P2D'),.WORKTIME.);
#249=IFCRELSEQUENCE('033gEepFgm5CGY1Y4lCoYh',#6,$,$,#101,#113,#248,.FINISH_FINISH.,$);
#250=IFCLAGTIME('Lag',.PREDICTED.,$,IFCRATIOMEASURE(0.4),.WORKTIME.);
#251=IFCRELSEQUENCE('3NUvDMHYRzi_QSOPrfRxZ3',#6,$,$,#107,#119,#250,.START_START.,$);
#252=IFCLAGTIME('Lag',.PREDICTED.,$,IFCDURATION('-P13D'),.WORKTIME.);
#253=IFCRELSEQUENCE('2OI2gcnT776kGS9qxABWHe',#6,$,$,#129,#133,#252,.FINISH_START.,$);
#254=IFCRELSEQUENCE('2Yx3hugC3cfTBYs8TI9dqQ',#6,$,$,#141,#145,$,.FINISH_START.,$);
#255=IFCLAGTIME('Lag',.PREDICTED.,$,IFCDURATION('P19D'),.WORKTIME.);
#256=IFCRELSEQUENCE('1TC7DzNcUgNQpzjZw6yHF8',#6,$,$,#145,#157,#255,.START_START.,$);
#257=IFCRELSEQUENCE('0IdmtIQ1acpFnxsauHvxyF',#6,$,$,#167,#171,$,.FINISH_START.,$);
#258=IFCCREWRESOURCE('2e83xSZO_74FnNDxP4fhm3',#6,'Structural works crew','Overarching structural works crew moving from block to block',$,$,$,$,.USERDEFINED.);
#259=IFCLABORRESOURCE('39z2IkX0yeUsDKdQO_E$RM',#6,'Bricklayers',$,$,$,$,$,.USERDEFINED.);
#260=IFCLABORRESOURCE('1rZNr_Szetb0Yr61C8Jf9V',#6,'Carpenters','Roof structures plus window frames; the two overlap across the phase boundary',$,$,$,$,.USERDEFINED.);
#261=IFCLABORRESOURCE('3FKPcVeJp70v0CdrGXqDGW',#6,'MEP fitters','Electrical and plumbing gangs moving from block to block, with a staggered start',$,$,$,$,.USERDEFINED.);
#262=IFCLABORRESOURCE('0jVP86ptnYIpgDspdoz16v',#6,'Plasterers',$,$,$,$,$,.USERDEFINED.);
#263=IFCLABORRESOURCE('2w9U2Hn_kMCCpaKeRrINOU',#6,'Tilers',$,$,$,$,$,.USERDEFINED.);
#264=IFCLABORRESOURCE('0NOV7c4oatjDsuR1G5pB2W',#6,'Kitchen fitters',$,$,$,$,$,.USERDEFINED.);
#265=IFCLABORRESOURCE('3NozGqNQKRGwFzd074vU$P',#6,'Painters',$,$,$,$,$,.USERDEFINED.);
#266=IFCSUBCONTRACTRESOURCE('0$wpuC1SdZD7GYebM4tATE',#6,'Civils contractor','Sewers, roads, paving and public space',$,$,$,$,.USERDEFINED.);
#267=IFCCONSTRUCTIONMATERIALRESOURCE('3pIgD65qaqrKMgcBc2z91O',#6,'Concrete C20/25',$,$,$,$,$,.USERDEFINED.);
#268=IFCPROPERTYSINGLEVALUE('Color',$,IFCTEXT('#1E293B'),$);
#269=IFCPROPERTYSET('043hFC7ZB4F$bRmrM$Wk92',#6,'OPS_Resource',$,(#268));
#270=IFCRELDEFINESBYPROPERTIES('2MqpuH8Tl4mtqGpIdr2BP0',#6,$,$,(#258),#269);
#271=IFCPROPERTYSINGLEVALUE('MaxUnits',$,IFCREAL(8),$);
#272=IFCPROPERTYSINGLEVALUE('CostPerHour',$,IFCMONETARYMEASURE(46),$);
#273=IFCPROPERTYSINGLEVALUE('Color',$,IFCTEXT('#B91C1C'),$);
#274=IFCPROPERTYSINGLEVALUE('ParentGuid',$,IFCTEXT('2e83xSZO_74FnNDxP4fhm3'),$);
#275=IFCPROPERTYSET('3QRBJP6cSF4ZM1axX_$bYw',#6,'OPS_Resource',$,(#271,#272,#273,#274));
#276=IFCRELDEFINESBYPROPERTIES('3MS50C3i6hU2ScRrtwwY8T',#6,$,$,(#259),#275);
#277=IFCPROPERTYSINGLEVALUE('MaxUnits',$,IFCREAL(8),$);
#278=IFCPROPERTYSINGLEVALUE('CostPerHour',$,IFCMONETARYMEASURE(45),$);
#279=IFCPROPERTYSINGLEVALUE('Color',$,IFCTEXT('#DB2777'),$);
#280=IFCPROPERTYSINGLEVALUE('ParentGuid',$,IFCTEXT('2e83xSZO_74FnNDxP4fhm3'),$);
#281=IFCPROPERTYSET('2bvVVN_MFGfHOcYtV3wgut',#6,'OPS_Resource',$,(#277,#278,#279,#280));
#282=IFCRELDEFINESBYPROPERTIES('2wm2QOptfoHYAPVmoXWQfg',#6,$,$,(#260),#281);
#283=IFCPROPERTYSINGLEVALUE('MaxUnits',$,IFCREAL(10),$);
#284=IFCPROPERTYSINGLEVALUE('CostPerHour',$,IFCMONETARYMEASURE(48),$);
#285=IFCPROPERTYSINGLEVALUE('Color',$,IFCTEXT('#C2410C'),$);
#286=IFCPROPERTYSET('3V_7bziNoxBodk6mA3PrKF',#6,'OPS_Resource',$,(#283,#284,#285));
#287=IFCRELDEFINESBYPROPERTIES('1rqbU4Wg_0i3uF0P5e57jM',#6,$,$,(#261),#286);
#288=IFCPROPERTYSINGLEVALUE('MaxUnits',$,IFCREAL(6),$);
#289=IFCPROPERTYSINGLEVALUE('CostPerHour',$,IFCMONETARYMEASURE(42),$);
#290=IFCPROPERTYSINGLEVALUE('Color',$,IFCTEXT('#6366F1'),$);
#291=IFCPROPERTYSET('35VQmPBEb$1VI4cwQ0_adY',#6,'OPS_Resource',$,(#288,#289,#290));
#292=IFCRELDEFINESBYPROPERTIES('2PTAWGvLMpXllQQkrJYDOy',#6,$,$,(#262),#291);
#293=IFCPROPERTYSINGLEVALUE('MaxUnits',$,IFCREAL(4),$);
#294=IFCPROPERTYSINGLEVALUE('CostPerHour',$,IFCMONETARYMEASURE(43),$);
#295=IFCPROPERTYSINGLEVALUE('Color',$,IFCTEXT('#0D9488'),$);
#296=IFCPROPERTYSET('13WGjD3apbjJWuhmZMOmvE',#6,'OPS_Resource',$,(#293,#294,#295));
#297=IFCRELDEFINESBYPROPERTIES('2ilVyRF80s5pVCGpa131AS',#6,$,$,(#263),#296);
#298=IFCPROPERTYSINGLEVALUE('MaxUnits',$,IFCREAL(4),$);
#299=IFCPROPERTYSINGLEVALUE('CostPerHour',$,IFCMONETARYMEASURE(46),$);
#300=IFCPROPERTYSINGLEVALUE('Color',$,IFCTEXT('#D97706'),$);
#301=IFCPROPERTYSET('3DBZZ6qcn_K_xLcbL9e5sR',#6,'OPS_Resource',$,(#298,#299,#300));
#302=IFCRELDEFINESBYPROPERTIES('1SZ2VX73mMQ6niQqI_1Zwy',#6,$,$,(#264),#301);
#303=IFCPROPERTYSINGLEVALUE('MaxUnits',$,IFCREAL(6),$);
#304=IFCPROPERTYSINGLEVALUE('CostPerHour',$,IFCMONETARYMEASURE(38),$);
#305=IFCPROPERTYSINGLEVALUE('Color',$,IFCTEXT('#A78BFA'),$);
#306=IFCPROPERTYSET('1LrvLbqThjM3LrOAbaEYjW',#6,'OPS_Resource',$,(#303,#304,#305));
#307=IFCRELDEFINESBYPROPERTIES('0hwRcfLPaHP5g1IhHBoWMB',#6,$,$,(#265),#306);
#308=IFCPROPERTYSINGLEVALUE('MaxUnits',$,IFCREAL(6),$);
#309=IFCPROPERTYSINGLEVALUE('CostPerHour',$,IFCMONETARYMEASURE(58),$);
#310=IFCPROPERTYSINGLEVALUE('Color',$,IFCTEXT('#38BDF8'),$);
#311=IFCPROPERTYSET('0vjyGH91$CofzydYE9Mgxh',#6,'OPS_Resource',$,(#308,#309,#310));
#312=IFCRELDEFINESBYPROPERTIES('2JBnjst0wuDqt1cqDTTyWM',#6,$,$,(#266),#311);
#313=IFCPROPERTYSINGLEVALUE('MaxUnits',$,IFCREAL(999),$);
#314=IFCPROPERTYSINGLEVALUE('UnitOfMeasure',$,IFCLABEL('m\X2\00B3\X0\'),$);
#315=IFCPROPERTYSINGLEVALUE('Color',$,IFCTEXT('#4ADE80'),$);
#316=IFCPROPERTYSET('03slNlnhDCZPEq2UG1PDvd',#6,'OPS_Resource',$,(#313,#314,#315));
#317=IFCRELDEFINESBYPROPERTIES('3$bhOvV0hbQtQjl2IDk5iA',#6,$,$,(#267),#316);
#318=IFCRELNESTS('2GLVKWhw4KuDf435jKA6J3',#6,'Ploeg Structural works crew',$,#258,(#259,#260));
#319=IFCRELASSIGNSTOPROCESS('21bpZXTayD0BMAPFkpPIOc',#6,$,$,(#266),$,#47,$);
#320=IFCRELASSIGNSTOPROCESS('3si11NKRFiEblPAD42jXTu',#6,$,$,(#266),$,#49,$);
#321=IFCRELASSIGNSTOPROCESS('1irE2kFqpqWAEXgct1SSxN',#6,$,$,(#266),$,#51,$);
#322=IFCRELASSIGNSTOPROCESS('1u49iyFYZUpq_DdpPrFVTb',#6,$,$,(#267),$,#63,$);
#323=IFCRELASSIGNSTOPROCESS('2MGAuWqq1zeoj$SvRqS99j',#6,$,$,(#267),$,#65,$);
#324=IFCRELASSIGNSTOPROCESS('0O4xaPiUXH6k93A7ux8tz_',#6,$,$,(#267),$,#73,$);
#325=IFCRELASSIGNSTOPROCESS('33qOj1zs_hwCPkNy3ZQDKR',#6,$,$,(#267),$,#75,$);
#326=IFCRELASSIGNSTOPROCESS('0wXQd0S2ri0$f3LYzWKXmn',#6,$,$,(#259),$,#79,$);
#327=IFCRELASSIGNSTOPROCESS('1wirX_U7aC5PgC2Fvnc$5N',#6,$,$,(#259),$,#83,$);
#328=IFCRELASSIGNSTOPROCESS('1523wC4Yc_8EmL6Q64ADTe',#6,$,$,(#260),$,#85,$);
#329=IFCRELASSIGNSTOPROCESS('2duVUpY6HpRZAzYA7TRp4x',#6,$,$,(#260),$,#87,$);
#330=IFCRELASSIGNSTOPROCESS('1NWfmoEZVOQOGL85bvu96k',#6,$,$,(#259),$,#93,$);
#331=IFCRELASSIGNSTOPROCESS('3J2wP1_qjPlRbyWqsuB32A',#6,$,$,(#259),$,#97,$);
#332=IFCRELASSIGNSTOPROCESS('0771LKMKTxWQI9H1AMvo55',#6,$,$,(#260),$,#99,$);
#333=IFCRELASSIGNSTOPROCESS('1bbk4qOanSx5g8xLOTkYU1',#6,$,$,(#260),$,#101,$);
#334=IFCRELASSIGNSTOPROCESS('2aqPCRwpdhzOOL0pp0N82f',#6,$,$,(#260),$,#107,$);
#335=IFCRELASSIGNSTOPROCESS('38De5zuU806jgiJ_jn_9qt',#6,$,$,(#260),$,#109,$);
#336=IFCRELASSIGNSTOPROCESS('2fAk7Bhxnu5lHMfE1THEg0',#6,$,$,(#261),$,#119,$);
#337=IFCRELASSIGNSTOPROCESS('3X_CXUcyKVZVX8RPagoith',#6,$,$,(#261),$,#121,$);
#338=IFCRELASSIGNSTOPROCESS('3r0jmz_zJdPM$WBkk5L5UZ',#6,$,$,(#261),$,#123,$);
#339=IFCRELASSIGNSTOPROCESS('0ycPYGJI8nxIb64tm_GEbO',#6,$,$,(#261),$,#125,$);
#340=IFCRELASSIGNSTOPROCESS('0elxvWQKF7uzQyZwTSj6WR',#6,$,$,(#261),$,#127,$);
#341=IFCRELASSIGNSTOPROCESS('3huPStPKcFzv7aJ2PjxUMn',#6,$,$,(#261),$,#129,$);
#342=IFCRELASSIGNSTOPROCESS('2FNoQXb6stexQsKJ5girJY',#6,$,$,(#262),$,#133,$);
#343=IFCRELASSIGNSTOPROCESS('2zxsxCBEapTSccmflrkXSP',#6,$,$,(#263),$,#135,$);
#344=IFCRELASSIGNSTOPROCESS('1F2R7VQ7TP1Tza5oistxXr',#6,$,$,(#264),$,#137,$);
#345=IFCRELASSIGNSTOPROCESS('3wwGsn_RK5vfxBjnGdZpi$',#6,$,$,(#265),$,#139,$);
#346=IFCRELASSIGNSTOPROCESS('3DaN53Y7F05n_l1RgYZGu7',#6,$,$,(#262),$,#145,$);
#347=IFCRELASSIGNSTOPROCESS('3u0G6fjgfgvvB2$SInGg9a',#6,$,$,(#263),$,#147,$);
#348=IFCRELASSIGNSTOPROCESS('2el_An0Bi__yAdq3ZzwuQ0',#6,$,$,(#264),$,#149,$);
#349=IFCRELASSIGNSTOPROCESS('3cs39ugzE1Zt8IcoCgsg01',#6,$,$,(#265),$,#151,$);
#350=IFCRELASSIGNSTOPROCESS('2SeqnrJqIcLlDlv$M22ft1',#6,$,$,(#266),$,#157,$);
#351=IFCRELASSIGNSTOPROCESS('3qqOcfkOjQ8cSYQjH2tcle',#6,$,$,(#266),$,#159,$);
#352=IFCRELASSIGNSTOPROCESS('3$ks3NwF5cdew5WUsYwYYa',#6,$,$,(#266),$,#161,$);
#353=IFCRELASSIGNSTOPROCESS('0fROKWgFYlMTI4vMOyn9hE',#6,$,$,(#266),$,#163,$);
#354=IFCPROPERTYSINGLEVALUE('0$wpuC1SdZD7GYebM4tATE#0',$,IFCTEXT('6|UNIFORM'),$);
#355=IFCPROPERTYSET('2Xw91wMvUg2MJ8xpT0jc0e',#6,'OPS_Assignments',$,(#354));
#356=IFCRELDEFINESBYPROPERTIES('1vIBjuSzpCY9PFtHLZjAx7',#6,$,$,(#47),#355);
#357=IFCPROPERTYSINGLEVALUE('0$wpuC1SdZD7GYebM4tATE#0',$,IFCTEXT('4|UNIFORM'),$);
#358=IFCPROPERTYSET('1VynCvLmsk6s4XnY0WLgcj',#6,'OPS_Assignments',$,(#357));
#359=IFCRELDEFINESBYPROPERTIES('1hmqljz8few4zEmrzx3pL_',#6,$,$,(#49),#358);
#360=IFCPROPERTYSINGLEVALUE('0$wpuC1SdZD7GYebM4tATE#0',$,IFCTEXT('4|UNIFORM'),$);
#361=IFCPROPERTYSET('2BXGEv0pDiw_dD01_H7hoF',#6,'OPS_Assignments',$,(#360));
#362=IFCRELDEFINESBYPROPERTIES('061Z8HdxbxObYdiHC7WuTl',#6,$,$,(#51),#361);
#363=IFCPROPERTYSINGLEVALUE('3pIgD65qaqrKMgcBc2z91O#0',$,IFCTEXT('45|FRONT_LOADED'),$);
#364=IFCPROPERTYSET('3knLPJnIdwYDR1$Zxe2Qvt',#6,'OPS_Assignments',$,(#363));
#365=IFCRELDEFINESBYPROPERTIES('2inrCxMkNgGq7DZv2SXzhl',#6,$,$,(#63),#364);
#366=IFCPROPERTYSINGLEVALUE('3pIgD65qaqrKMgcBc2z91O#0',$,IFCTEXT('60|FRONT_LOADED'),$);
#367=IFCPROPERTYSET('0pN5GXYgtL14X4Q7LH0Rey',#6,'OPS_Assignments',$,(#366));
#368=IFCRELDEFINESBYPROPERTIES('3bSBdHU3V73GeDp0vuzoqY',#6,$,$,(#65),#367);
#369=IFCPROPERTYSINGLEVALUE('3pIgD65qaqrKMgcBc2z91O#0',$,IFCTEXT('35|FRONT_LOADED'),$);
#370=IFCPROPERTYSET('1bm$ywavd8QC1ii8K_hkDR',#6,'OPS_Assignments',$,(#369));
#371=IFCRELDEFINESBYPROPERTIES('0gep3diNPPhVT2$tK9n_rO',#6,$,$,(#73),#370);
#372=IFCPROPERTYSINGLEVALUE('3pIgD65qaqrKMgcBc2z91O#0',$,IFCTEXT('45|FRONT_LOADED'),$);
#373=IFCPROPERTYSET('1l7sgBAQqy6urFBIcVJ0lG',#6,'OPS_Assignments',$,(#372));
#374=IFCRELDEFINESBYPROPERTIES('0ev8ezO$7LOVHS6uFm50Uq',#6,$,$,(#75),#373);
#375=IFCPROPERTYSINGLEVALUE('39z2IkX0yeUsDKdQO_E$RM#0',$,IFCTEXT('8|UNIFORM'),$);
#376=IFCPROPERTYSET('0lS42fkCQjKsDViG_xBLqF',#6,'OPS_Assignments',$,(#375));
#377=IFCRELDEFINESBYPROPERTIES('3S200vuFDpq$3_tMtWgAtS',#6,$,$,(#79),#376);
#378=IFCPROPERTYSINGLEVALUE('39z2IkX0yeUsDKdQO_E$RM#0',$,IFCTEXT('8|UNIFORM'),$);
#379=IFCPROPERTYSET('1jctk4Vy47Jpe5qE37f3sY',#6,'OPS_Assignments',$,(#378));
#380=IFCRELDEFINESBYPROPERTIES('0p8NC$TgKrnizupIJhNiEw',#6,$,$,(#83),#379);
#381=IFCPROPERTYSINGLEVALUE('1rZNr_Szetb0Yr61C8Jf9V#0',$,IFCTEXT('6|UNIFORM'),$);
#382=IFCPROPERTYSET('1c2XR2B3k5rRi_CJcjEisz',#6,'OPS_Assignments',$,(#381));
#383=IFCRELDEFINESBYPROPERTIES('28tNT0diM27VYPsIwpjyDY',#6,$,$,(#85),#382);
#384=IFCPROPERTYSINGLEVALUE('1rZNr_Szetb0Yr61C8Jf9V#0',$,IFCTEXT('4|UNIFORM'),$);
#385=IFCPROPERTYSET('3h6lUB4v$tc7FZ8hQx$nIo',#6,'OPS_Assignments',$,(#384));
#386=IFCRELDEFINESBYPROPERTIES('0GWP2LYl5e3tZ0xAnMr6T8',#6,$,$,(#87),#385);
#387=IFCPROPERTYSINGLEVALUE('39z2IkX0yeUsDKdQO_E$RM#0',$,IFCTEXT('6|UNIFORM'),$);
#388=IFCPROPERTYSET('3Xi69Uya5A7TpaSmWZO_Y9',#6,'OPS_Assignments',$,(#387));
#389=IFCRELDEFINESBYPROPERTIES('1vnmR1WkfVeOF_GUnKIdsw',#6,$,$,(#93),#388);
#390=IFCPROPERTYSINGLEVALUE('39z2IkX0yeUsDKdQO_E$RM#0',$,IFCTEXT('6|UNIFORM'),$);
#391=IFCPROPERTYSET('1Cur_M$jE26VZP0uk4w9IS',#6,'OPS_Assignments',$,(#390));
#392=IFCRELDEFINESBYPROPERTIES('0$7C7$VqvsLRc7fM4QkHOp',#6,$,$,(#97),#391);
#393=IFCPROPERTYSINGLEVALUE('1rZNr_Szetb0Yr61C8Jf9V#0',$,IFCTEXT('5|UNIFORM'),$);
#394=IFCPROPERTYSET('2DDS_xLYnJ7ubrodwsYn0Y',#6,'OPS_Assignments',$,(#393));
#395=IFCRELDEFINESBYPROPERTIES('0A66YRBOnCd_qq67thbF0H',#6,$,$,(#99),#394);
#396=IFCPROPERTYSINGLEVALUE('1rZNr_Szetb0Yr61C8Jf9V#0',$,IFCTEXT('3|UNIFORM'),$);
#397=IFCPROPERTYSET('3dBgXqhoZ5tYyHmzfxHcPo',#6,'OPS_Assignments',$,(#396));
#398=IFCRELDEFINESBYPROPERTIES('2TrdHy7VaAC9e2$8ItYWp9',#6,$,$,(#101),#397);
#399=IFCPROPERTYSINGLEVALUE('1rZNr_Szetb0Yr61C8Jf9V#0',$,IFCTEXT('3|UNIFORM'),$);
#400=IFCPROPERTYSET('08f6S4b9Er6Nc3TFyzQnQY',#6,'OPS_Assignments',$,(#399));
#401=IFCRELDEFINESBYPROPERTIES('1xusdsohngpPOnsBzUgROn',#6,$,$,(#107),#400);
#402=IFCPROPERTYSINGLEVALUE('1rZNr_Szetb0Yr61C8Jf9V#0',$,IFCTEXT('3|UNIFORM'),$);
#403=IFCPROPERTYSET('33lElYDUQPGPpcpus1RW6_',#6,'OPS_Assignments',$,(#402));
#404=IFCRELDEFINESBYPROPERTIES('2gFJyzcqsyHp_6JM2x8w4i',#6,$,$,(#109),#403);
#405=IFCPROPERTYSINGLEVALUE('3FKPcVeJp70v0CdrGXqDGW#0',$,IFCTEXT('6|UNIFORM'),$);
#406=IFCPROPERTYSET('3oEyuvuJmyXVnuTLyl1SL0',#6,'OPS_Assignments',$,(#405));
#407=IFCRELDEFINESBYPROPERTIES('3PHO7s$zZ6RZzNcSgug1zl',#6,$,$,(#119),#406);
#408=IFCPROPERTYSINGLEVALUE('3FKPcVeJp70v0CdrGXqDGW#0',$,IFCTEXT('4|UNIFORM'),$);
#409=IFCPROPERTYSET('2vwVVCz6pJwLJYenuKwwZj',#6,'OPS_Assignments',$,(#408));
#410=IFCRELDEFINESBYPROPERTIES('3ki05esWt_9gOCAXszhe5r',#6,$,$,(#121),#409);
#411=IFCPROPERTYSINGLEVALUE('3FKPcVeJp70v0CdrGXqDGW#0',$,IFCTEXT('6|UNIFORM'),$);
#412=IFCPROPERTYSET('2aZI4Oq4Ashmpx__fZy7C9',#6,'OPS_Assignments',$,(#411));
#413=IFCRELDEFINESBYPROPERTIES('2KD0BHCORan9EAVN79Ezrv',#6,$,$,(#123),#412);
#414=IFCPROPERTYSINGLEVALUE('3FKPcVeJp70v0CdrGXqDGW#0',$,IFCTEXT('4|UNIFORM'),$);
#415=IFCPROPERTYSET('0QlOFFNa4vuMYJDiYh0554',#6,'OPS_Assignments',$,(#414));
#416=IFCRELDEFINESBYPROPERTIES('3b2xYcXY2y_sjJYrVryN58',#6,$,$,(#125),#415);
#417=IFCPROPERTYSINGLEVALUE('3FKPcVeJp70v0CdrGXqDGW#0',$,IFCTEXT('6|UNIFORM'),$);
#418=IFCPROPERTYSET('00Jh4Dms75BoCm3E0iSr4e',#6,'OPS_Assignments',$,(#417));
#419=IFCRELDEFINESBYPROPERTIES('1All_WXtNmpQwHvik4cI68',#6,$,$,(#127),#418);
#420=IFCPROPERTYSINGLEVALUE('3FKPcVeJp70v0CdrGXqDGW#0',$,IFCTEXT('4|UNIFORM'),$);
#421=IFCPROPERTYSET('2Y3Cg_w1y6VyxNHGiJrt4$',#6,'OPS_Assignments',$,(#420));
#422=IFCRELDEFINESBYPROPERTIES('3MKtKRhJOFJahA6CWh0GkM',#6,$,$,(#129),#421);
#423=IFCPROPERTYSINGLEVALUE('0jVP86ptnYIpgDspdoz16v#0',$,IFCTEXT('6|UNIFORM'),$);
#424=IFCPROPERTYSET('1nS0uh4vY6Sxz4HLVHiw6Z',#6,'OPS_Assignments',$,(#423));
#425=IFCRELDEFINESBYPROPERTIES('0lazQ$goxpcl0GthBaHG3k',#6,$,$,(#133),#424);
#426=IFCPROPERTYSINGLEVALUE('2w9U2Hn_kMCCpaKeRrINOU#0',$,IFCTEXT('4|UNIFORM'),$);
#427=IFCPROPERTYSET('0zOplfsF80DvlGHATCMgln',#6,'OPS_Assignments',$,(#426));
#428=IFCRELDEFINESBYPROPERTIES('32S$n2lKFbnlQrTDmrtZNC',#6,$,$,(#135),#427);
#429=IFCPROPERTYSINGLEVALUE('0NOV7c4oatjDsuR1G5pB2W#0',$,IFCTEXT('4|UNIFORM'),$);
#430=IFCPROPERTYSET('3g2bHC5V9eaal4nqbGwEJ4',#6,'OPS_Assignments',$,(#429));
#431=IFCRELDEFINESBYPROPERTIES('0WzvyHsU9xaG_QV3edeSP$',#6,$,$,(#137),#430);
#432=IFCPROPERTYSINGLEVALUE('3NozGqNQKRGwFzd074vU$P#0',$,IFCTEXT('6|UNIFORM'),$);
#433=IFCPROPERTYSET('3IYc8_iet9uvCzLVSLWGBy',#6,'OPS_Assignments',$,(#432));
#434=IFCRELDEFINESBYPROPERTIES('0QT2987Z0IIk8McGiUMRkn',#6,$,$,(#139),#433);
#435=IFCPROPERTYSINGLEVALUE('0jVP86ptnYIpgDspdoz16v#0',$,IFCTEXT('4|UNIFORM'),$);
#436=IFCPROPERTYSET('3XjiThxAECahkwhaQPmTxm',#6,'OPS_Assignments',$,(#435));
#437=IFCRELDEFINESBYPROPERTIES('3c2KYn506H3g96tlox2DJX',#6,$,$,(#145),#436);
#438=IFCPROPERTYSINGLEVALUE('2w9U2Hn_kMCCpaKeRrINOU#0',$,IFCTEXT('3|UNIFORM'),$);
#439=IFCPROPERTYSET('0_kObOUrKzNcz15vfszH4l',#6,'OPS_Assignments',$,(#438));
#440=IFCRELDEFINESBYPROPERTIES('23wPVJHvyeWuv$PLQ63LhH',#6,$,$,(#147),#439);
#441=IFCPROPERTYSINGLEVALUE('0NOV7c4oatjDsuR1G5pB2W#0',$,IFCTEXT('3|UNIFORM'),$);
#442=IFCPROPERTYSET('3nQE1aYUKEW7wfuuuXhBxB',#6,'OPS_Assignments',$,(#441));
#443=IFCRELDEFINESBYPROPERTIES('21I9oI2xqTsikyWAE1mHs4',#6,$,$,(#149),#442);
#444=IFCPROPERTYSINGLEVALUE('3NozGqNQKRGwFzd074vU$P#0',$,IFCTEXT('4|UNIFORM'),$);
#445=IFCPROPERTYSET('1vb1qoifvQ_HvglwAOWt5W',#6,'OPS_Assignments',$,(#444));
#446=IFCRELDEFINESBYPROPERTIES('292L384rzGc9oEMlTsgSKX',#6,$,$,(#151),#445);
#447=IFCPROPERTYSINGLEVALUE('0$wpuC1SdZD7GYebM4tATE#0',$,IFCTEXT('4|UNIFORM'),$);
#448=IFCPROPERTYSET('2ZmcNUcuPDqBty6$nIQP4D',#6,'OPS_Assignments',$,(#447));
#449=IFCRELDEFINESBYPROPERTIES('0_fg2taMgYMchcXyL8OZpl',#6,$,$,(#157),#448);
#450=IFCPROPERTYSINGLEVALUE('0$wpuC1SdZD7GYebM4tATE#0',$,IFCTEXT('6|UNIFORM'),$);
#451=IFCPROPERTYSET('3t$NCeUUM2OqCs31670qj_',#6,'OPS_Assignments',$,(#450));
#452=IFCRELDEFINESBYPROPERTIES('0DxiwhZ_agWLVmGy8bkapI',#6,$,$,(#159),#451);
#453=IFCPROPERTYSINGLEVALUE('0$wpuC1SdZD7GYebM4tATE#0',$,IFCTEXT('4|UNIFORM'),$);
#454=IFCPROPERTYSET('1H1XcvDebFn6t1u7CgEG4a',#6,'OPS_Assignments',$,(#453));
#455=IFCRELDEFINESBYPROPERTIES('0Dkf1yySMFvqwrt1El15FK',#6,$,$,(#161),#454);
#456=IFCPROPERTYSINGLEVALUE('0$wpuC1SdZD7GYebM4tATE#0',$,IFCTEXT('4|UNIFORM'),$);
#457=IFCPROPERTYSET('3549ULVe1FRUjf55zCInCd',#6,'OPS_Assignments',$,(#456));
#458=IFCRELDEFINESBYPROPERTIES('1VzDyHNkfm$P1f06F4ejPZ',#6,$,$,(#163),#457);
#459=IFCRELASSIGNSTOCONTROL('0LZ6DROZFWR7tUhS7u7LH2',#6,$,$,(#43,#45,#47,#49,#51,#53,#55,#57,#59,#61,#63,#65,#67,#69,#71,#73,#75,#77,#79,#81,#83,#85,#87,#89,#91,#93,#95,#97,#99,#101,#103,#105,#107,#109,#111,#113,#115,#117,#119,#121,#123,#125,#127,#129,#131,#133,#135,#137,#139,#141,#143,#145,#147,#149,#151,#153,#155,#157,#159,#161,#163,#165,#167,#169,#171,#173,#175,#177),$,#40);
#460=IFCPROPERTYSINGLEVALUE('InternalProjectId',$,IFCTEXT('proj-mula839c2sgp2859'),$);
#461=IFCPROPERTYSINGLEVALUE('wbsAutoNumber',$,IFCBOOLEAN(.T.),$);
#462=IFCPROPERTYSINGLEVALUE('DefaultTaskDurationUnit',$,IFCLABEL('days'),$);
#463=IFCPROPERTYSINGLEVALUE('ProjectStartDate',$,IFCDATE('2027-03-01'),$);
#464=IFCPROPERTYSINGLEVALUE('ProjectEndDate',$,$,$);
#465=IFCPROPERTYSINGLEVALUE('CreatedAt',$,IFCTEXT('2026-09-28T13:27:23.520Z'),$);
#466=IFCPROPERTYSINGLEVALUE('ModifiedAt',$,IFCTEXT('2026-09-28T13:27:23.522Z'),$);
#467=IFCPROPERTYSET('1gjfj5i0vVjSKJi2eBZ1BC',#6,'OPS_ProjectSettings',$,(#460,#461,#462,#463,#464,#465,#466));
#468=IFCRELDEFINESBYPROPERTIES('3gdSIEydIuoJuk3ErBrEsK',#6,$,$,(#13),#467);
#469=IFCPROPERTYSINGLEVALUE('InternalTaskId',$,IFCTEXT('task-mula839s4j7x2870'),$);
#470=IFCPROPERTYSET('00FIbnIqro39zmps6mZQP7',#6,'OPS_TaskIdentity',$,(#469));
#471=IFCRELDEFINESBYPROPERTIES('3B1OM3M_XO53H677DqhNQJ',#6,$,$,(#43),#470);
#472=IFCPROPERTYSINGLEVALUE('InternalTaskId',$,IFCTEXT('task-mula839tn0v22871'),$);
#473=IFCPROPERTYSET('1g1yQJUlBfmAJSvAQku9_v',#6,'OPS_TaskIdentity',$,(#472));
#474=IFCRELDEFINESBYPROPERTIES('2eNgJelrIw24FET16nKdGq',#6,$,$,(#45),#473);
#475=IFCPROPERTYSINGLEVALUE('InternalTaskId',$,IFCTEXT('task-mula839uhudx2872'),$);
#476=IFCPROPERTYSET('3fIZHT9hO50W6kwU5$_yTT',#6,'OPS_TaskIdentity',$,(#475));
#477=IFCRELDEFINESBYPROPERTIES('2fPq4nDTpNADYK7ajVHFgF',#6,$,$,(#47),#476);
#478=IFCPROPERTYSINGLEVALUE('InternalTaskId',$,IFCTEXT('task-mula839wochr2873'),$);
#479=IFCPROPERTYSET('29K9QK3H5DJZCbIOKyI6hj',#6,'OPS_TaskIdentity',$,(#478));
#480=IFCRELDEFINESBYPROPERTIES('35slcxz1G4ycVCstGt0SeD',#6,$,$,(#49),#479);
#481=IFCPROPERTYSINGLEVALUE('InternalTaskId',$,IFCTEXT('task-mula839yc5j12874'),$);
#482=IFCPROPERTYSET('3MPLx6LSBSU56MzCRN$52p',#6,'OPS_TaskIdentity',$,(#481));
#483=IFCRELDEFINESBYPROPERTIES('2DG9wvmvGWvhN_flTWNMmY',#6,$,$,(#51),#482);
#484=IFCPROPERTYSINGLEVALUE('InternalTaskId',$,IFCTEXT('task-mula839z7v532875'),$);
#485=IFCPROPERTYSET('1Bku4ZhiNFD4slVAwB$7UE',#6,'OPS_TaskIdentity',$,(#484));
#486=IFCRELDEFINESBYPROPERTIES('3fbqaYJryyU5N1i43lSkmk',#6,$,$,(#53),#485);
#487=IFCPROPERTYSINGLEVALUE('InternalTaskId',$,IFCTEXT('task-mula83a1c6sh2876'),$);
#488=IFCPROPERTYSET('1jDSFxMe4ZUMSj5ggnCcVv',#6,'OPS_TaskIdentity',$,(#487));
#489=IFCRELDEFINESBYPROPERTIES('38i4uEN7_dgAUg7xmPncCP',#6,$,$,(#55),#488);
#490=IFCPROPERTYSINGLEVALUE('InternalTaskId',$,IFCTEXT('task-mula83a2coc02877'),$);
#491=IFCPROPERTYSET('0rHU$1UsANil_rTaIn3AVa',#6,'OPS_TaskIdentity',$,(#490));
#492=IFCRELDEFINESBYPROPERTIES('1mYFaoqYuRcRl22u0vLerr',#6,$,$,(#57),#491);
#493=IFCPROPERTYSINGLEVALUE('InternalTaskId',$,IFCTEXT('task-mula83a48up22878'),$);
#494=IFCPROPERTYSET('1fH8Fx1IqH0azbAzU_OO8x',#6,'OPS_TaskIdentity',$,(#493));
#495=IFCRELDEFINESBYPROPERTIES('1IzkKHVww8DHj_qfkjtaT_',#6,$,$,(#59),#494);
#496=IFCPROPERTYSINGLEVALUE('InternalTaskId',$,IFCTEXT('task-mula83a5rxmj2879'),$);
#497=IFCPROPERTYSET('0CQbmVMerj6a561Q0IEIvj',#6,'OPS_TaskIdentity',$,(#496));
#498=IFCRELDEFINESBYPROPERTIES('2MTLdNF5NA9GcFADp6abca',#6,$,$,(#61),#497);
#499=IFCPROPERTYSINGLEVALUE('InternalTaskId',$,IFCTEXT('task-mula83a7yghu2880'),$);
#500=IFCPROPERTYSET('0HddgDK1_LPHf7HTHYJq2m',#6,'OPS_TaskIdentity',$,(#499));
#501=IFCRELDEFINESBYPROPERTIES('00p20tlJUCAjLKkA7EdUFd',#6,$,$,(#63),#500);
#502=IFCPROPERTYSINGLEVALUE('InternalTaskId',$,IFCTEXT('task-mula83a8a9412881'),$);
#503=IFCPROPERTYSET('02a3sVZv86XQm$e$b8fIxv',#6,'OPS_TaskIdentity',$,(#502));
#504=IFCRELDEFINESBYPROPERTIES('3Dz4pwg1IZCXhnugGZzslo',#6,$,$,(#65),#503);
#505=IFCPROPERTYSINGLEVALUE('InternalTaskId',$,IFCTEXT('task-mula83aa88512882'),$);
#506=IFCPROPERTYSET('3xPYznH$aokN6J2yf6mFF3',#6,'OPS_TaskIdentity',$,(#505));
#507=IFCRELDEFINESBYPROPERTIES('1f_V6x5E3RnlV1bYrx3bAt',#6,$,$,(#67),#506);
#508=IFCPROPERTYSINGLEVALUE('InternalTaskId',$,IFCTEXT('task-mula83ab3tw62883'),$);
#509=IFCPROPERTYSET('0sIdTqnU3HKEE_2whjQZSc',#6,'OPS_TaskIdentity',$,(#508));
#510=IFCRELDEFINESBYPROPERTIES('3wDOynOSDwIgQ31btNUF4G',#6,$,$,(#69),#509);
#511=IFCPROPERTYSINGLEVALUE('InternalTaskId',$,IFCTEXT('task-mula83acoq9k2884'),$);
#512=IFCPROPERTYSET('3g$OwePLXLwxd8kl9awoeJ',#6,'OPS_TaskIdentity',$,(#511));
#513=IFCRELDEFINESBYPROPERTIES('2rB556$7aMofl4iY8SEq8b',#6,$,$,(#71),#512);
#514=IFCPROPERTYSINGLEVALUE('InternalTaskId',$,IFCTEXT('task-mula83ae3kh92885'),$);
#515=IFCPROPERTYSET('0ZcpZ4Vo9nKhl7JgKWX_Nn',#6,'OPS_TaskIdentity',$,(#514));
#516=IFCRELDEFINESBYPROPERTIES('2GwGWmbU3QpnqLU9t26p97',#6,$,$,(#73),#515);
#517=IFCPROPERTYSINGLEVALUE('InternalTaskId',$,IFCTEXT('task-mula83agl9ty2886'),$);
#518=IFCPROPERTYSET('1Ddfjl9KFSGr09xwxxAe75',#6,'OPS_TaskIdentity',$,(#517));
#519=IFCRELDEFINESBYPROPERTIES('01zusEbz_sEph3aAJR1Gov',#6,$,$,(#75),#518);
#520=IFCPROPERTYSINGLEVALUE('InternalTaskId',$,IFCTEXT('task-mula83ahtogb2887'),$);
#521=IFCPROPERTYSET('1kZtrTWkl8eX5B4KkFACAZ',#6,'OPS_TaskIdentity',$,(#520));
#522=IFCRELDEFINESBYPROPERTIES('15C56Umc30MyC3MZMwWh9p',#6,$,$,(#77),#521);
#523=IFCPROPERTYSINGLEVALUE('InternalTaskId',$,IFCTEXT('task-mula83aj28f12888'),$);
#524=IFCPROPERTYSET('39EJiyyWKaiNFWQeEBvh_d',#6,'OPS_TaskIdentity',$,(#523));
#525=IFCRELDEFINESBYPROPERTIES('1MFwy559NEn$3dvlsglnL_',#6,$,$,(#79),#524);
#526=IFCPROPERTYSINGLEVALUE('InternalTaskId',$,IFCTEXT('task-mula83alamev2889'),$);
#527=IFCPROPERTYSET('3KbZeoOBlHHvt3rTFIerNq',#6,'OPS_TaskIdentity',$,(#526));
#528=IFCRELDEFINESBYPROPERTIES('07kxpDD0dOLY53tymJ66gV',#6,$,$,(#81),#527);
#529=IFCPROPERTYSINGLEVALUE('InternalTaskId',$,IFCTEXT('task-mula83amrsi02890'),$);
#530=IFCPROPERTYSET('2Z6NnFLvR_zqBse1FjwZGt',#6,'OPS_TaskIdentity',$,(#529));
#531=IFCRELDEFINESBYPROPERTIES('2iOT$CRsg$rfIkPTRQUOkk',#6,$,$,(#83),#530);
#532=IFCPROPERTYSINGLEVALUE('InternalTaskId',$,IFCTEXT('task-mula83aodzz62891'),$);
#533=IFCPROPERTYSET('3cCQsxk3GNPS1cmNcXqpXt',#6,'OPS_TaskIdentity',$,(#532));
#534=IFCRELDEFINESBYPROPERTIES('0RdimxcjZAdoc0wnML8UER',#6,$,$,(#85),#533);
#535=IFCPROPERTYSINGLEVALUE('InternalTaskId',$,IFCTEXT('task-mula83arlbvv2892'),$);
#536=IFCPROPERTYSET('1p52_GJ_L_OFmNcsna9U2F',#6,'OPS_TaskIdentity',$,(#535));
#537=IFCRELDEFINESBYPROPERTIES('22j5LCSRQr90G03thrPfIo',#6,$,$,(#87),#536);
#538=IFCPROPERTYSINGLEVALUE('InternalTaskId',$,IFCTEXT('task-mula83atdkal2893'),$);
#539=IFCPROPERTYSET('0_bFPw8b666bGvkDSfm4e0',#6,'OPS_TaskIdentity',$,(#538));
#540=IFCRELDEFINESBYPROPERTIES('26dRxZfOiVlPPQ8qBvJURD',#6,$,$,(#89),#539);
#541=IFCPROPERTYSINGLEVALUE('InternalTaskId',$,IFCTEXT('task-mula83avnfom2894'),$);
#542=IFCPROPERTYSET('3v4wng4XNTZU_1eX0YPWDl',#6,'OPS_TaskIdentity',$,(#541));
#543=IFCRELDEFINESBYPROPERTIES('3OLw2$QFKXOsHjdYl$s2lQ',#6,$,$,(#91),#542);
#544=IFCPROPERTYSINGLEVALUE('InternalTaskId',$,IFCTEXT('task-mula83awlk4s2895'),$);
#545=IFCPROPERTYSET('1NHCIsRG$OUjsdTlI5KPlV',#6,'OPS_TaskIdentity',$,(#544));
#546=IFCRELDEFINESBYPROPERTIES('2txCdoDY2fKJUUcq6CsMmX',#6,$,$,(#93),#545);
#547=IFCPROPERTYSINGLEVALUE('InternalTaskId',$,IFCTEXT('task-mula83ayuasj2896'),$);
#548=IFCPROPERTYSET('2nmn4KR2TygxVmBa_HZM91',#6,'OPS_TaskIdentity',$,(#547));
#549=IFCRELDEFINESBYPROPERTIES('0fGx4PEwi76GVU8fCNUL$W',#6,$,$,(#95),#548);
#550=IFCPROPERTYSINGLEVALUE('InternalTaskId',$,IFCTEXT('task-mula83b0hbfz2897'),$);
#551=IFCPROPERTYSET('0UADEBDW6iMt67MJa3ZIQC',#6,'OPS_TaskIdentity',$,(#550));
#552=IFCRELDEFINESBYPROPERTIES('2IFFKdQaGmY_4pBZ_XkZQI',#6,$,$,(#97),#551);
#553=IFCPROPERTYSINGLEVALUE('InternalTaskId',$,IFCTEXT('task-mula83b2uymc2898'),$);
#554=IFCPROPERTYSET('14lzQb5WLf7KIEdkY1xe24',#6,'OPS_TaskIdentity',$,(#553));
#555=IFCRELDEFINESBYPROPERTIES('3DggBM2fxQi5blrFrXm_zQ',#6,$,$,(#99),#554);
#556=IFCPROPERTYSINGLEVALUE('InternalTaskId',$,IFCTEXT('task-mula83b46e0g2899'),$);
#557=IFCPROPERTYSET('3F0ZO6k$LCTmOXdXuwJrM2',#6,'OPS_TaskIdentity',$,(#556));
#558=IFCRELDEFINESBYPROPERTIES('2us9ht$N1u0pDvUI2uwME5',#6,$,$,(#101),#557);
#559=IFCPROPERTYSINGLEVALUE('InternalTaskId',$,IFCTEXT('task-mula83b670tp2900'),$);
#560=IFCPROPERTYSET('0ULTc1GmA2XLeTK$EGY44P',#6,'OPS_TaskIdentity',$,(#559));
#561=IFCRELDEFINESBYPROPERTIES('0JRgtq6buGxbvOAEpPgXaR',#6,$,$,(#103),#560);
#562=IFCPROPERTYSINGLEVALUE('InternalTaskId',$,IFCTEXT('task-mula83b9l2cv2901'),$);
#563=IFCPROPERTYSET('11vrkJJefQZ0HECOAEhVdI',#6,'OPS_TaskIdentity',$,(#562));
#564=IFCRELDEFINESBYPROPERTIES('1e9mg4_1T3pE$uOHwUsC7v',#6,$,$,(#105),#563);
#565=IFCPROPERTYSINGLEVALUE('InternalTaskId',$,IFCTEXT('task-mula83baup242902'),$);
#566=IFCPROPERTYSET('15Ina_7LPbgFON7aiYf93a',#6,'OPS_TaskIdentity',$,(#565));
#567=IFCRELDEFINESBYPROPERTIES('2XXesE5HfmokY_5nNKcXTp',#6,$,$,(#107),#566);
#568=IFCPROPERTYSINGLEVALUE('InternalTaskId',$,IFCTEXT('task-mula83bcuyz82903'),$);
#569=IFCPROPERTYSET('1t1ZEL47YEBm_FJrY2q9dp',#6,'OPS_TaskIdentity',$,(#568));
#570=IFCRELDEFINESBYPROPERTIES('1diqUHZZqN1oLOOLqpI4RV',#6,$,$,(#109),#569);
#571=IFCPROPERTYSINGLEVALUE('InternalTaskId',$,IFCTEXT('task-mula83bfbog82904'),$);
#572=IFCPROPERTYSET('0xmkKQfOEuS2FWHGKrWPy_',#6,'OPS_TaskIdentity',$,(#571));
#573=IFCRELDEFINESBYPROPERTIES('08zxZICj7iLezzaisKF9fN',#6,$,$,(#111),#572);
#574=IFCPROPERTYSINGLEVALUE('InternalTaskId',$,IFCTEXT('task-mula83bh4afm2905'),$);
#575=IFCPROPERTYSET('22OicVc5TlxNf$N6ZSl4Xt',#6,'OPS_TaskIdentity',$,(#574));
#576=IFCRELDEFINESBYPROPERTIES('18XtWsjiPm9E5ubwDwmJv8',#6,$,$,(#113),#575);
#577=IFCPROPERTYSINGLEVALUE('InternalTaskId',$,IFCTEXT('task-mula83bj2r512906'),$);
#578=IFCPROPERTYSET('1VoMD12ifZ$7x7ocdM7XlF',#6,'OPS_TaskIdentity',$,(#577));
#579=IFCRELDEFINESBYPROPERTIES('22I0BXed6VuugMNaVJnAlg',#6,$,$,(#115),#578);
#580=IFCPROPERTYSINGLEVALUE('InternalTaskId',$,IFCTEXT('task-mula83bl6y382907'),$);
#581=IFCPROPERTYSET('1yRaY8lnYPTMAf5Dpw_KaJ',#6,'OPS_TaskIdentity',$,(#580));
#582=IFCRELDEFINESBYPROPERTIES('0dre5EKSmY_T7N284xBfj4',#6,$,$,(#117),#581);
#583=IFCPROPERTYSINGLEVALUE('InternalTaskId',$,IFCTEXT('task-mula83bn4h962908'),$);
#584=IFCPROPERTYSET('0MzBudmKZ37ihc9Jxl$wst',#6,'OPS_TaskIdentity',$,(#583));
#585=IFCRELDEFINESBYPROPERTIES('1WHp9rqOMmenHaeu1KHFLg',#6,$,$,(#119),#584);
#586=IFCPROPERTYSINGLEVALUE('InternalTaskId',$,IFCTEXT('task-mula83bpoxxu2909'),$);
#587=IFCPROPERTYSET('2yizGcpTogIllj0Dt7oemI',#6,'OPS_TaskIdentity',$,(#586));
#588=IFCRELDEFINESBYPROPERTIES('0_rUtXN$sBW2mph9fYBV3R',#6,$,$,(#121),#587);
#589=IFCPROPERTYSINGLEVALUE('InternalTaskId',$,IFCTEXT('task-mula83br15jm2910'),$);
#590=IFCPROPERTYSET('0S9iZSlSWzqQWF8Qgekqbu',#6,'OPS_TaskIdentity',$,(#589));
#591=IFCRELDEFINESBYPROPERTIES('3SZIo1W0GdkYrFCMVslDvW',#6,$,$,(#123),#590);
#592=IFCPROPERTYSINGLEVALUE('InternalTaskId',$,IFCTEXT('task-mula83btcyiz2911'),$);
#593=IFCPROPERTYSET('3E1wu7DwEtfPzehWt6lTD1',#6,'OPS_TaskIdentity',$,(#592));
#594=IFCRELDEFINESBYPROPERTIES('3lAQ$MP7fkc6p9fYYf$wO0',#6,$,$,(#125),#593);
#595=IFCPROPERTYSINGLEVALUE('InternalTaskId',$,IFCTEXT('task-mula83bvyhym2912'),$);
#596=IFCPROPERTYSET('12ThJNoP48pGGdrY9bf9QA',#6,'OPS_TaskIdentity',$,(#595));
#597=IFCRELDEFINESBYPROPERTIES('328uqyRH8TiXohUAhufx7k',#6,$,$,(#127),#596);
#598=IFCPROPERTYSINGLEVALUE('InternalTaskId',$,IFCTEXT('task-mula83byhtgu2913'),$);
#599=IFCPROPERTYSET('0yGj$yPjBVnCjv7DCWk1_H',#6,'OPS_TaskIdentity',$,(#598));
#600=IFCRELDEFINESBYPROPERTIES('2Axu1llk0EsnZoh5rfJvT7',#6,$,$,(#129),#599);
#601=IFCPROPERTYSINGLEVALUE('InternalTaskId',$,IFCTEXT('task-mula83c06u242914'),$);
#602=IFCPROPERTYSET('2DJGvXP_KWcdyF$fvpA4w5',#6,'OPS_TaskIdentity',$,(#601));
#603=IFCRELDEFINESBYPROPERTIES('2VHonBN3Z_t_dMlyavmsqs',#6,$,$,(#131),#602);
#604=IFCPROPERTYSINGLEVALUE('InternalTaskId',$,IFCTEXT('task-mula83c25wp42915'),$);
#605=IFCPROPERTYSET('3wbuPTlahPFXPKeM16LiGh',#6,'OPS_TaskIdentity',$,(#604));
#606=IFCRELDEFINESBYPROPERTIES('3$Shxl7mvU2_Yqc0kVZv3H',#6,$,$,(#133),#605);
#607=IFCPROPERTYSINGLEVALUE('InternalTaskId',$,IFCTEXT('task-mula83c407zx2916'),$);
#608=IFCPROPERTYSET('3ladk497ahHiMHW0l2x0u$',#6,'OPS_TaskIdentity',$,(#607));
#609=IFCRELDEFINESBYPROPERTIES('11s_N23sOZVXVQmX$xK3Ua',#6,$,$,(#135),#608);
#610=IFCPROPERTYSINGLEVALUE('InternalTaskId',$,IFCTEXT('task-mula83c6s6p42917'),$);
#611=IFCPROPERTYSET('2lSmG$dSMAKB2RGJ2o8JzS',#6,'OPS_TaskIdentity',$,(#610));
#612=IFCRELDEFINESBYPROPERTIES('2nMec_CNf43NnjRHEwT_zY',#6,$,$,(#137),#611);
#613=IFCPROPERTYSINGLEVALUE('InternalTaskId',$,IFCTEXT('task-mula83c8q48d2918'),$);
#614=IFCPROPERTYSET('2f6iwFwMPfic4PO4$sCMsG',#6,'OPS_TaskIdentity',$,(#613));
#615=IFCRELDEFINESBYPROPERTIES('2vAuvA5Xf0FG7PFi1$CKJM',#6,$,$,(#139),#614);
#616=IFCPROPERTYSINGLEVALUE('InternalTaskId',$,IFCTEXT('task-mula83ca76sb2919'),$);
#617=IFCPROPERTYSET('1WyhsYBDiHjLlxkeCGheoI',#6,'OPS_TaskIdentity',$,(#616));
#618=IFCRELDEFINESBYPROPERTIES('08dXnMfetrUFoAbmvVc_BR',#6,$,$,(#141),#617);
#619=IFCPROPERTYSINGLEVALUE('InternalTaskId',$,IFCTEXT('task-mula83cdr4x92920'),$);
#620=IFCPROPERTYSET('3j1zvumrCNwjuemIBxgw6Q',#6,'OPS_TaskIdentity',$,(#619));
#621=IFCRELDEFINESBYPROPERTIES('3_2y9e$l$EvGp_T42DzKwF',#6,$,$,(#143),#620);
#622=IFCPROPERTYSINGLEVALUE('InternalTaskId',$,IFCTEXT('task-mula83cflncp2921'),$);
#623=IFCPROPERTYSET('1uU5sRu4eqkain3okaSxUq',#6,'OPS_TaskIdentity',$,(#622));
#624=IFCRELDEFINESBYPROPERTIES('0KQFEuUtWTmD88PXg5qjiV',#6,$,$,(#145),#623);
#625=IFCPROPERTYSINGLEVALUE('InternalTaskId',$,IFCTEXT('task-mula83ci0tqx2922'),$);
#626=IFCPROPERTYSET('3vRTA$HGFiGjtD6xX5s1lC',#6,'OPS_TaskIdentity',$,(#625));
#627=IFCRELDEFINESBYPROPERTIES('0WAYOR2C5bbuq$Jc2XXiUc',#6,$,$,(#147),#626);
#628=IFCPROPERTYSINGLEVALUE('InternalTaskId',$,IFCTEXT('task-mula83ckhzve2923'),$);
#629=IFCPROPERTYSET('0Uvd5QT0_btIsNPquA7T96',#6,'OPS_TaskIdentity',$,(#628));
#630=IFCRELDEFINESBYPROPERTIES('2qPBzoq68fiXXUn9kszn3A',#6,$,$,(#149),#629);
#631=IFCPROPERTYSINGLEVALUE('InternalTaskId',$,IFCTEXT('task-mula83cnf6xy2924'),$);
#632=IFCPROPERTYSET('3sni92jlg3lwUYkbZrTJX2',#6,'OPS_TaskIdentity',$,(#631));
#633=IFCRELDEFINESBYPROPERTIES('20x7ahk3uZ0HmZayWUqhsQ',#6,$,$,(#151),#632);
#634=IFCPROPERTYSINGLEVALUE('InternalTaskId',$,IFCTEXT('task-mula83cpvahb2925'),$);
#635=IFCPROPERTYSET('06uIuDCuWk9KjRt8W1akFa',#6,'OPS_TaskIdentity',$,(#634));
#636=IFCRELDEFINESBYPROPERTIES('0WCBxsSXq74v1I89Fj26nl',#6,$,$,(#153),#635);
#637=IFCPROPERTYSINGLEVALUE('InternalTaskId',$,IFCTEXT('task-mula83crsd4v2926'),$);
#638=IFCPROPERTYSET('2a9BiiFkx_9po85GGtBcN5',#6,'OPS_TaskIdentity',$,(#637));
#639=IFCRELDEFINESBYPROPERTIES('27B5j8as6EiMgQt30hx0cK',#6,$,$,(#155),#638);
#640=IFCPROPERTYSINGLEVALUE('InternalTaskId',$,IFCTEXT('task-mula83ctmu4e2927'),$);
#641=IFCPROPERTYSET('06DTfQaNWTui5Bw7Uu4dLf',#6,'OPS_TaskIdentity',$,(#640));
#642=IFCRELDEFINESBYPROPERTIES('3EnRHxqmuibvmZoHNHsyZ$',#6,$,$,(#157),#641);
#643=IFCPROPERTYSINGLEVALUE('InternalTaskId',$,IFCTEXT('task-mula83cwyac32928'),$);
#644=IFCPROPERTYSET('0DOcIF6aiYOMOzbhyLVoXm',#6,'OPS_TaskIdentity',$,(#643));
#645=IFCRELDEFINESBYPROPERTIES('10QDrvIR$tTHextlIdoda2',#6,$,$,(#159),#644);
#646=IFCPROPERTYSINGLEVALUE('InternalTaskId',$,IFCTEXT('task-mula83cyiuwp2929'),$);
#647=IFCPROPERTYSET('1R3yuziPWT4S$TkvVvryeQ',#6,'OPS_TaskIdentity',$,(#646));
#648=IFCRELDEFINESBYPROPERTIES('2RC28xmpTvcAwQPQq9zlqH',#6,$,$,(#161),#647);
#649=IFCPROPERTYSINGLEVALUE('InternalTaskId',$,IFCTEXT('task-mula83d1l5fw2930'),$);
#650=IFCPROPERTYSET('1CLZ9vuz$w3xlic2tiKB$K',#6,'OPS_TaskIdentity',$,(#649));
#651=IFCRELDEFINESBYPROPERTIES('1l8KAH3st$qb2O9F2skLiG',#6,$,$,(#163),#650);
#652=IFCPROPERTYSINGLEVALUE('InternalTaskId',$,IFCTEXT('task-mula83d3rz3v2931'),$);
#653=IFCPROPERTYSET('2lV75YWQllsErf$iVaYLth',#6,'OPS_TaskIdentity',$,(#652));
#654=IFCRELDEFINESBYPROPERTIES('2ZkelstqesXhjhzTBvEb2w',#6,$,$,(#165),#653);
#655=IFCPROPERTYSINGLEVALUE('InternalTaskId',$,IFCTEXT('task-mula83d5e2142932'),$);
#656=IFCPROPERTYSET('2TXUs74HEHNELRjRz9bNZK',#6,'OPS_TaskIdentity',$,(#655));
#657=IFCRELDEFINESBYPROPERTIES('1vQs4X_OLu4IXSH01sPMkn',#6,$,$,(#167),#656);
#658=IFCPROPERTYSINGLEVALUE('InternalTaskId',$,IFCTEXT('task-mula83d8553e2933'),$);
#659=IFCPROPERTYSET('1fRYOP$9Xhrq3ULVrxtjiq',#6,'OPS_TaskIdentity',$,(#658));
#660=IFCRELDEFINESBYPROPERTIES('3c5SpVliUzSgXayBmq_PNq',#6,$,$,(#169),#659);
#661=IFCPROPERTYSINGLEVALUE('InternalTaskId',$,IFCTEXT('task-mula83db51y92934'),$);
#662=IFCPROPERTYSET('20G5pWJXZ86I7HEGEqpTON',#6,'OPS_TaskIdentity',$,(#661));
#663=IFCRELDEFINESBYPROPERTIES('0gk74cHGASAUM0daJXon_O',#6,$,$,(#171),#662);
#664=IFCPROPERTYSINGLEVALUE('InternalTaskId',$,IFCTEXT('task-mula83dev0px2935'),$);
#665=IFCPROPERTYSET('1ifJWYCjeAdIRFa7mfL4wk',#6,'OPS_TaskIdentity',$,(#664));
#666=IFCRELDEFINESBYPROPERTIES('3vDvpuBYE87n6zKQyeVSMY',#6,$,$,(#173),#665);
#667=IFCPROPERTYSINGLEVALUE('InternalTaskId',$,IFCTEXT('task-mula83dg0xj72936'),$);
#668=IFCPROPERTYSET('3A9Nb0HPNceP4HjcBpceoP',#6,'OPS_TaskIdentity',$,(#667));
#669=IFCRELDEFINESBYPROPERTIES('1x$lyka0IB6lgq8Y6lHh$O',#6,$,$,(#175),#668);
#670=IFCPROPERTYSINGLEVALUE('InternalTaskId',$,IFCTEXT('task-mula83di1g0e2937'),$);
#671=IFCPROPERTYSET('1x$xjOX4awdKrxSPrNrM1w',#6,'OPS_TaskIdentity',$,(#670));
#672=IFCRELDEFINESBYPROPERTIES('0dE8nkXGNKMrvmvz7Lfvxx',#6,$,$,(#177),#671);
#673=IFCPROPERTYSINGLEVALUE('MilestoneKind',$,IFCLABEL('START'),$);
#674=IFCPROPERTYSET('3LkkyDMAH39OOGPt_4FvIM',#6,'OPS_Milestone',$,(#673));
#675=IFCRELDEFINESBYPROPERTIES('3CGP3jDtg6riVb5vjAus3R',#6,$,$,(#53),#674);
#676=IFCPROPERTYSINGLEVALUE('MilestoneKind',$,IFCLABEL('FINISH'),$);
#677=IFCPROPERTYSET('2WUYpa5K$9jESAOeIllAZZ',#6,'OPS_Milestone',$,(#676));
#678=IFCRELDEFINESBYPROPERTIES('27QKlIcJDtxsvWKYGh$YGL',#6,$,$,(#89),#677);
#679=IFCPROPERTYSINGLEVALUE('MilestoneKind',$,IFCLABEL('FINISH'),$);
#680=IFCPROPERTYSET('3Gu1KU_HtcNfFeWcLyR0Xe',#6,'OPS_Milestone',$,(#679));
#681=IFCRELDEFINESBYPROPERTIES('3IJABOR1sDul0yiXVf5ynf',#6,$,$,(#103),#680);
#682=IFCPROPERTYSINGLEVALUE('MilestoneKind',$,IFCLABEL('FINISH'),$);
#683=IFCPROPERTYSET('15Eo0ykUTSeek9EAcWJwBw',#6,'OPS_Milestone',$,(#682));
#684=IFCRELDEFINESBYPROPERTIES('2NG3CT$cKymKac0SsYqzw4',#6,$,$,(#115),#683);
#685=IFCPROPERTYSINGLEVALUE('MilestoneKind',$,IFCLABEL('FINISH'),$);
#686=IFCPROPERTYSET('1jiQVL$0G5I5Wf0W5z0Rcv',#6,'OPS_Milestone',$,(#685));
#687=IFCRELDEFINESBYPROPERTIES('2NyLC6kJKVJ9_ozeoAAAF8',#6,$,$,(#177),#686);
ENDSEC;
END-ISO-10303-21;
